<svg xmlns="http://www.w3.org/2000/svg" data-name="Capa 1" viewBox="0 0 182.56 170.03"><path fill="#1260ab" d="M89.06 167.52a2.49 2.49 0 0 1-1.71-.68 127.07 127.07 0 0 0-30.64-21.14l-11.16 8.73a2.5 2.5 0 0 1-4-1.62l-2-14.06a127.54 127.54 0 0 0-34.67-6.08 2.5 2.5 0 0 1-2.42-2.5V5a2.49 2.49 0 0 1 2.5-2.5A256.74 256.74 0 0 1 179.3 74.72a2.5 2.5 0 0 1 .76 1.78 2.47 2.47 0 0 1-.73 1.79l-88.51 88.5a2.46 2.46 0 0 1-1.76.73z"/><path fill="#fff" d="M5 5a254.31 254.31 0 0 1 172.56 71.52l-73.38 73.38-15.12 15.13a129.6 129.6 0 0 0-32.62-22.26l-12.39 9.69-2.2-15.6A130.29 130.29 0 0 0 5 130.17V5m0-5a5 5 0 0 0-5 5v125.17a5 5 0 0 0 4.83 5 125.28 125.28 0 0 1 32.51 5.49l1.76 12.5a5 5 0 0 0 3.08 3.94 5.09 5.09 0 0 0 1.87.36 5 5 0 0 0 3.08-1.06l9.92-7.76a125.11 125.11 0 0 1 28.59 20 5 5 0 0 0 3.42 1.35 5 5 0 0 0 3.53-1.47l15.12-15.09 73.38-73.38a5 5 0 0 0-.06-7.13A259.24 259.24 0 0 0 5.1 0z"/><path d="M104.18 149.9A150.84 150.84 0 0 0 5 108.78v21.39a130.29 130.29 0 0 1 36.85 6.69l2.2 15.6 12.39-9.69a129.6 129.6 0 0 1 32.62 22.26z" opacity=".1"/></svg>