<svg width="324" height="56" viewBox="0 0 243 42" xmlns="http://www.w3.org/2000/svg"><path fill="#ff191f" d="M69.7 0h6.39c5.18.26 10.53.34 15.34 2.51 1.82 1.14 3.32-.97 4.92-1.59 12.93-.32 25.87-.25 38.8-.06 1.14.84 2.1 2.29 3.72 2.02 31.8.15 63.6.22 95.4.3.37-.54 1.1-1.63 1.46-2.18 2.45.66 4.9 1.34 7.27 2.26v6.72c-4.37 1.03-7.99-1.63-11.92-2.79-30.07-.11-60.15-.08-90.23 0-3.13-.28-5.68 2.07-8.76 2.07-12.24.05-24.48.19-36.71-.09-.33-.67-.98-2.01-1.31-2.69-2.18.75-4.79 1.45-5.55 3.94-3.33 8.3-5.73 16.96-9.02 25.28-1.03 3.07-4.65 3.27-7.37 3.25-6.68-.12-13.4.43-20.05-.25-2.38-.39-2.29-3.33-1.65-5.09 2.46-7.96 5.21-15.84 7.75-23.77-.66-.69-1.32-1.37-1.99-2.05-5.93.74-11.91 2.14-17.05 5.33-6.85 4.03-11.59 10.56-16.34 16.75C18.33 35.98 12.13 41.7 4.14 42H.21c.22-1.77.43-3.55.62-5.32 3.4-.35 7.02-.78 9.75-3.03 5.65-4.44 9.18-10.87 13.97-16.12 5.57-6.49 12.98-11.49 21.32-13.55C53.79 2.45 61.53-.16 69.7 0m-5.58 12c-2.51 7.45-4.85 14.97-7.05 22.52 5.27 1 10.66.47 15.99.5 3.6.29 4.17-3.93 5.25-6.44 1.91-6.31 5.49-12.21 5.84-18.91-3.5 1.1-6.86 2.67-9.98 4.59-3.6 2.26-4.5 6.81-4.96 10.72-.71 2.91 4.01 4.02 2.59 6.93-2.53 2-5.54-.64-6.66-2.96-1.98-3.44.18-7.21.98-10.65.73-3.16 1.84-6.34 4.57-8.34-2.17.37-5.77-.87-6.57 2.04z"/></svg>