<?xml version="1.0" standalone="no"?>
<!DOCTYPE svg PUBLIC "-//W3C//DTD SVG 1.1//EN" "http://www.w3.org/Graphics/SVG/1.1/DTD/svg11.dtd" >
<svg xmlns="http://www.w3.org/2000/svg" xmlns:xlink="http://www.w3.org/1999/xlink" version="1.1">
<metadata>
Created by FontForge 20170731 at Mon Jun 27 15:25:34 2016
 By Aleksey,,,
Created by Christian Thalmann with Glyphs in 2015-2016.
</metadata>
<defs>
<font id="Quinoa-Thin" horiz-adv-x="0" >
  <font-face 
    font-family="Quinoa-Thin"
    font-weight="400"
    font-stretch="normal"
    units-per-em="1000"
    panose-1="0 0 3 0 0 0 0 0 0 0"
    ascent="754"
    descent="-246"
    x-height="400"
    cap-height="600"
    bbox="-590 -489 1361 1009"
    underline-thickness="50"
    underline-position="-150"
    unicode-range="U+0020-FEFC"
  />
<missing-glyph horiz-adv-x="460" 
d="M377 700v-920h-291v920h291zM306 638h-151v-30h59v-34h-60v-30h152v30h-60v34h60v30zM246 520h-92v-96h152v31h-60v65zM214 488v-33h-30v33h30zM306 399h-152v-30h60v-34h-60v-31h92v65h60v30zM306 344h-30v-61h-122v-31h152v92zM306 232h-92v-52h32v21h30v-43h-92v74
h-30v-104h152v104zM306 73h-152v-104h152v104zM276 42v-43h-92v43h92zM306 -53h-152v-30h64l-64 -43v-31h152v31h-93l64 43h29v30z" />
    <glyph glyph-name="uniFDF2" unicode="&#x627;&#xfedf;&#xfee0;&#xfeea;" horiz-adv-x="1298" arabic-form="isolated" 
d="M658 878v-151h-11v151h11zM583 532q-66 0 -66 93v54h11v-54q0 -83 56 -83q29 0 46 23.5t17 69.5v71h11v-39q0 -86 58 -86q61 0 61 92v76h11v-76q0 -102 -71 -102q-45 0 -60 43q-9 -82 -74 -82zM918 139v461h11v-461q0 -139 -131 -139h-537q-105 0 -161 53.5t-56 143.5
q0 94 58 148.5t159 54.5h134v-390h260v490h11v-490h132q120 0 120 129zM1161 600h11v-600h-11v600zM261 10h123v380h-123q-96 0 -151 -52t-55 -141q0 -86 53 -136.5t153 -50.5z" />
    <glyph glyph-name="uniFEF5" unicode="&#xfedf;&#xfe82;" horiz-adv-x="512" arabic-form="isolated" 
d="M209 661q0 -30 -7 -47.5t-23 -25t-30 -9.5t-41 -2q-31 0 -45.5 -1.5t-30.5 -9.5t-22 -26.5t-6 -49.5h-10q0 34 7 54.5t25 29.5t32.5 11t45.5 2q28 0 41 2t28 8.5t20.5 22t5.5 41.5h10zM309 288q67 -12 105 -51t38 -96q0 -69 -54 -111t-142 -42t-142 42t-54 111
q0 57 38 96t105 51q-64 14 -100.5 59.5t-36.5 112.5v20h11v-20q0 -76 49 -122t130 -46t130 46t49 122v139h11v-139q0 -67 -36.5 -112.5t-100.5 -59.5zM256 -2q84 0 134.5 39t50.5 104q0 64 -50.5 102.5t-134.5 38.5t-134.5 -38.5t-50.5 -102.5q0 -65 50.5 -104t134.5 -39z
" />
    <glyph glyph-name="uniFEF6" unicode="&#xfee0;&#xfe82;" horiz-adv-x="526" arabic-form="final" 
d="M216 657q0 -30 -7 -47.5t-23 -25t-30 -9.5t-41 -2q-31 0 -45.5 -1.5t-30.5 -9.5t-22 -26.5t-6 -49.5h-10q0 34 7 54.5t25 29.5t32.5 11t45.5 2q28 0 41 2t28 8.5t20.5 22t5.5 41.5h10zM418 10h109v-10h-475v10h203l-156 470h12l155 -470h141v590h11v-590z" />
    <glyph glyph-name="uniFEF7" unicode="&#xfedf;&#xfe84;" horiz-adv-x="512" arabic-form="isolated" 
d="M167 583l5 -8l-142 -87l-6 8l101 61q-15 -3 -30 -3q-43 0 -71.5 27.5t-28.5 69.5q0 43 29 71.5t73 28.5q48 0 74 -31l-8 -7q-23 28 -66 28q-40 0 -65.5 -25.5t-25.5 -63.5t25.5 -63t64.5 -25q33 0 71 19zM309 288q67 -12 105 -51t38 -96q0 -69 -54 -111t-142 -42t-142 42
t-54 111q0 57 38 96t105 51q-64 14 -100.5 59.5t-36.5 112.5v20h11v-20q0 -76 49 -122t130 -46t130 46t49 122v139h11v-139q0 -67 -36.5 -112.5t-100.5 -59.5zM256 -2q84 0 134.5 39t50.5 104q0 64 -50.5 102.5t-134.5 38.5t-134.5 -38.5t-50.5 -102.5q0 -65 50.5 -104
t134.5 -39z" />
    <glyph glyph-name="uniFEF8" unicode="&#xfee0;&#xfe84;" horiz-adv-x="526" arabic-form="final" 
d="M158 513q-43 0 -71.5 27.5t-28.5 69.5q0 43 29 71.5t73 28.5q48 0 74 -31l-8 -7q-23 28 -66 28q-40 0 -65.5 -25.5t-25.5 -63.5t25.5 -63t64.5 -25q33 0 71 19l5 -8l-142 -87l-6 8l101 61q-15 -3 -30 -3zM418 10h109v-10h-475v10h203l-129 390h12l128 -390h141v590h11
v-590z" />
    <glyph glyph-name="uniFEF9" unicode="&#xfedf;&#xfe88;" horiz-adv-x="512" arabic-form="isolated" 
d="M309 288q66 -12 104.5 -51.5t38.5 -96.5q0 -70 -53.5 -112t-142.5 -42t-142.5 42t-53.5 112q0 57 38.5 96.5t104.5 51.5q-64 14 -100.5 59.5t-36.5 112.5v140h11v-140q0 -76 49 -122t130 -46t130 46t49 122v139h11v-139q0 -67 -36.5 -112.5t-100.5 -59.5zM256 -4
q84 0 134.5 39.5t50.5 104.5q0 64 -50.5 103t-134.5 39t-134.5 -39t-50.5 -103q0 -65 50.5 -104.5t134.5 -39.5zM258 -237q33 0 71 19l5 -8l-142 -87l-6 8l101 61q-15 -3 -30 -3q-43 0 -71.5 27.5t-28.5 69.5q0 43 29 71.5t73 28.5q48 0 74 -31l-8 -7q-23 28 -66 28
q-40 0 -65.5 -25.5t-25.5 -63.5t25.5 -63t64.5 -25z" />
    <glyph glyph-name="uniFEFA" unicode="&#xfee0;&#xfe88;" horiz-adv-x="526" arabic-form="final" 
d="M418 10h109v-10h-475v10h203l-179 540h12l178 -540h141v590h11v-590zM304 -237q33 0 71 19l5 -8l-142 -87l-6 8l101 61q-15 -3 -30 -3q-43 0 -71.5 27.5t-28.5 69.5q0 43 29 71.5t73 28.5q48 0 74 -31l-8 -7q-23 28 -66 28q-40 0 -65.5 -25.5t-25.5 -63.5t25.5 -63
t64.5 -25z" />
    <glyph glyph-name="uniFEFB" unicode="&#xfedf;&#xfe8e;" horiz-adv-x="512" arabic-form="isolated" 
d="M309 288q66 -12 104.5 -51.5t38.5 -96.5q0 -70 -53.5 -112t-142.5 -42t-142.5 42t-53.5 112q0 57 38.5 96.5t104.5 51.5q-64 14 -100.5 59.5t-36.5 112.5v140h11v-140q0 -76 49 -122t130 -46t130 46t49 122v139h11v-139q0 -67 -36.5 -112.5t-100.5 -59.5zM256 -4
q84 0 134.5 39.5t50.5 104.5q0 64 -50.5 103t-134.5 39t-134.5 -39t-50.5 -103q0 -65 50.5 -104.5t134.5 -39.5z" />
    <glyph glyph-name="uniFEFC" unicode="&#xfee0;&#xfe8e;" horiz-adv-x="526" arabic-form="final" 
d="M418 10h109v-10h-475v10h203l-179 540h12l178 -540h141v590h11v-590z" />
    <glyph glyph-name="Iacute_J_acutecomb.liga" unicode="&#xcd;J&#x301;" horiz-adv-x="667" 
d="M493 703l-4 9l200 98l5 -10zM79 694l-4 9l200 98l5 -10zM110 231q0 -111 66.5 -173t157.5 -62q90 0 156.5 61.5t66.5 170.5v372h11v-372q0 -114 -69.5 -178t-164.5 -64q-96 0 -165.5 64.5t-69.5 180.5v10h11v-10zM99 369v231h11v-231h-11z" />
    <glyph glyph-name="Q_U.liga" unicode="QU" horiz-adv-x="1427" 
d="M1063 -210q115 0 248 50l5 -9q-134 -51 -254 -51q-159 0 -302.5 62t-242.5 176q-66 -32 -147 -32q-138 0 -226.5 88t-88.5 226t88.5 226t226.5 88t226.5 -88t88.5 -226q0 -93 -42 -165.5t-116 -111.5q98 -111 239.5 -172t296.5 -61zM66 300q0 -133 85.5 -218.5
t218.5 -85.5q132 0 218 84.5t86 219.5q0 134 -85.5 219t-218.5 85t-218.5 -85t-85.5 -219zM1317 600h11v-332q0 -132 -66 -207t-179 -75t-178.5 76t-65.5 210v328h11v-328q0 -129 63 -202.5t170 -73.5q108 0 171 73t63 200v331z" />
    <glyph glyph-name="Q_u.liga" unicode="Qu" horiz-adv-x="1254" 
d="M1311 -160l5 -9q-134 -51 -254 -51q-159 0 -302.5 62t-242.5 176q-66 -32 -147 -32q-138 0 -226.5 88t-88.5 226t88.5 226t226.5 88t226.5 -88t88.5 -226q0 -93 -42 -165.5t-116 -111.5q98 -111 239.5 -172t296.5 -61q115 0 248 50zM66 300q0 -133 85.5 -218.5
t218.5 -85.5q132 0 218 84.5t86 219.5q0 134 -85.5 219t-218.5 85t-218.5 -85t-85.5 -219zM974 -12q-152 0 -152 189v223h11v-219q0 -183 142 -183q81 0 131 53t50 139v210h11v-400h-11v119q-18 -61 -66 -96t-116 -35z" />
    <glyph glyph-name="f_adieresis.liga" unicode="f&#xe4;" horiz-adv-x="860" 
d="M142 507v-117h178v-10h-178v-380h-11v380h-88v10h88v117q0 90 51 145.5t135 55.5q78 0 127 -50t49 -130h-11q0 75 -46.5 122.5t-119.5 47.5q-78 0 -126 -53t-48 -138zM687 534q-17 0 -17 17q0 16 17 16t17 -16q0 -17 -17 -17zM763 400h11v-400h-11v127q-20 -63 -70 -101
t-116 -38q-85 0 -141 60.5t-56 151.5t56 151.5t141 60.5q66 0 116 -38t70 -101v127zM577 -2q80 0 133.5 57.5t53.5 144.5q0 86 -53.5 144t-132.5 58q-80 0 -133.5 -58t-53.5 -144t53.5 -144t132.5 -58z" />
    <glyph glyph-name="f_b.liga" unicode="fb" horiz-adv-x="900" 
d="M659 412q85 0 141 -60.5t56 -151.5t-56 -151.5t-141 -60.5q-66 0 -116 38t-70 101v-127h-11v517q0 83 -43 132t-117 49t-117 -49t-43 -132v-127h178v-10h-178v-380h-11v380h-88v10h88v127q0 88 46.5 139.5t125.5 51.5q78 0 124 -51.5t46 -139.5v-244q20 63 70 101t116 38
zM659 -2q79 0 132.5 58t53.5 144t-53.5 144t-133.5 58q-79 0 -132.5 -58t-53.5 -144q0 -87 53.5 -144.5t133.5 -57.5z" />
    <glyph glyph-name="f_f.liga" unicode="ff" horiz-adv-x="642" 
d="M629 708h19v-10h-19q-90 0 -138 -59.5t-48 -171.5v-77h168v-10h-168v-380h-11v380h-290v-380h-11v380h-88v10h88v87q0 106 51.5 168.5t139.5 62.5q96 0 153 -73q50 73 154 73zM432 467q0 99 38 160q-59 71 -149 71q-82 0 -130.5 -60t-48.5 -161v-87h290v77z" />
    <glyph glyph-name="f_f_adieresis.liga" unicode="ff&#xe4;" horiz-adv-x="1166" 
d="M448 507v-117h178v-10h-178v-380h-11v380h-295v-380h-11v380h-88v10h88v87q0 106 51.5 168.5t139.5 62.5q95 0 153 -72q51 72 148 72q78 0 127 -50t49 -130h-11q0 75 -46.5 122.5t-119.5 47.5q-78 0 -126 -53t-48 -138zM437 507q0 71 32 121q-57 70 -148 70
q-82 0 -130.5 -60t-48.5 -161v-87h295v117zM993 534q-17 0 -17 17q0 16 17 16t17 -16q0 -17 -17 -17zM1069 400h11v-400h-11v127q-20 -63 -70 -101t-116 -38q-85 0 -141 60.5t-56 151.5t56 151.5t141 60.5q66 0 116 -38t70 -101v127zM883 -2q80 0 133.5 57.5t53.5 144.5
q0 86 -53.5 144t-132.5 58q-80 0 -133.5 -58t-53.5 -144t53.5 -144t132.5 -58z" />
    <glyph glyph-name="f_f_b.liga" unicode="ffb" horiz-adv-x="1215" 
d="M974 412q85 0 141 -60.5t56 -151.5t-56 -151.5t-141 -60.5q-66 0 -116 38t-70 101v-127h-11v517q0 83 -43 132t-117 49t-117 -49t-43 -132v-127h178v-10h-178v-380h-11v380h-304v-380h-11v380h-88v10h88v87q0 106 51.5 168.5t139.5 62.5q98 0 154 -74q46 74 142 74
q78 0 124 -51.5t46 -139.5v-244q20 63 70 101t116 38zM446 517q0 63 25 108q-57 73 -150 73q-82 0 -130.5 -60t-48.5 -161v-87h304v127zM974 -2q79 0 132.5 58t53.5 144t-53.5 144t-133.5 58q-79 0 -132.5 -58t-53.5 -144q0 -87 53.5 -144.5t133.5 -57.5z" />
    <glyph glyph-name="f_f_f.liga" unicode="fff" horiz-adv-x="943" 
d="M930 708h19v-10h-19q-90 0 -138 -59.5t-48 -171.5v-77h168v-10h-168v-380h-11v380h-290v-380h-11v380h-290v-380h-11v380h-88v10h88v87q0 106 51.5 168.5t139.5 62.5q96 0 153 -73q53 73 148 73q96 0 153 -73q50 73 154 73zM432 390v87q0 91 38 150q-58 71 -149 71
q-82 0 -130.5 -60t-48.5 -161v-87h290zM733 467q0 99 38 160q-59 71 -149 71q-82 0 -130.5 -60t-48.5 -161v-87h290v77z" />
    <glyph glyph-name="f_f_f_i.liga" unicode="fffi" horiz-adv-x="1198" 
d="M916 698q-74 0 -117 -49t-43 -132v-127h178v-10h-178v-380h-11v380h-301v-380h-11v380h-291v-380h-11v380h-88v10h88v87q0 106 51.5 168.5t139.5 62.5q96 0 154 -74q51 74 148 74q96 0 152 -72q47 72 141 72q78 0 124 -48.5t46 -131.5h-11q0 78 -43.5 124t-116.5 46z
M433 390v87q0 90 37 149q-58 72 -149 72q-82 0 -130.5 -60t-48.5 -161v-87h291zM745 517q0 65 26 111q-57 70 -148 70q-82 0 -130.5 -60t-48.5 -161v-87h301v127zM1076 0v400h11v-400h-11z" />
    <glyph glyph-name="f_f_f_j.liga" unicode="fffj" horiz-adv-x="1198" 
d="M934 390v-10h-178v-380h-11v380h-302v-380h-11v380h-290v-380h-11v380h-88v10h88v87q0 106 51.5 168.5t139.5 62.5q96 0 153 -73q53 73 148 73t153 -72q45 72 141 72q78 0 124 -48.5t46 -131.5h-11q0 78 -43.5 124t-116.5 46q-74 0 -117 -49t-43 -132v-127h178zM432 390
v87q0 91 38 150q-58 71 -149 71q-82 0 -130.5 -60t-48.5 -161v-87h290zM745 517q0 64 26 110q-59 71 -149 71q-82 0 -130.5 -60t-48.5 -161v-87h302v127zM1076 10v390h11v-390q0 -110 -48.5 -170t-135.5 -60h-13v10h13q82 0 127.5 57t45.5 163z" />
    <glyph glyph-name="f_f_f_l.liga" unicode="fffl" horiz-adv-x="1195" 
d="M924 708q80 0 127.5 -51.5t47.5 -139.5v-517h-11v517q0 83 -44.5 132t-120.5 49t-120.5 -49t-44.5 -132v-127h178v-10h-178v-380h-11v380h-304v-380h-11v380h-290v-380h-11v380h-88v10h88v87q0 106 51.5 168.5t139.5 62.5q96 0 153 -73q53 73 148 73q96 0 154 -74
q49 74 147 74zM432 390v87q0 91 38 150q-58 71 -149 71q-82 0 -130.5 -60t-48.5 -161v-87h290zM747 517q0 61 25 108q-58 73 -150 73q-82 0 -130.5 -60t-48.5 -161v-87h304v127z" />
    <glyph glyph-name="f_f_h.liga" unicode="ffh" horiz-adv-x="1209" 
d="M971 412q151 0 151 -189v-223h-11v219q0 183 -141 183q-81 0 -131.5 -54t-50.5 -138v-210h-11v507q0 88 -43 139.5t-117 51.5t-117 -51.5t-43 -139.5v-117h178v-10h-178v-380h-11v380h-304v-380h-11v380h-88v10h88v87q0 106 51.5 168.5t139.5 62.5q98 0 155 -75
q47 75 141 75q78 0 124 -54.5t46 -146.5v-227q19 61 67.5 96.5t115.5 35.5zM446 507q0 71 27 117h-1q-58 74 -151 74q-82 0 -130.5 -60t-48.5 -161v-87h304v117z" />
    <glyph glyph-name="f_f_i.liga" unicode="ffi" horiz-adv-x="899" 
d="M617 698q-74 0 -117 -49t-43 -132v-127h178v-10h-178v-380h-11v380h-304v-380h-11v380h-88v10h88v87q0 106 51.5 168.5t139.5 62.5q98 0 154 -74q46 74 142 74q78 0 124 -48.5t46 -131.5h-11q0 78 -43.5 124t-116.5 46zM446 517q0 63 25 108q-57 73 -150 73
q-82 0 -130.5 -60t-48.5 -161v-87h304v127zM777 0v400h11v-400h-11z" />
    <glyph glyph-name="f_f_j.liga" unicode="ffj" horiz-adv-x="899" 
d="M635 390v-10h-178v-380h-11v380h-304v-380h-11v380h-88v10h88v87q0 106 51.5 168.5t139.5 62.5q98 0 154 -74q46 74 142 74q78 0 124 -48.5t46 -131.5h-11q0 78 -43.5 124t-116.5 46q-74 0 -117 -49t-43 -132v-127h178zM446 517q0 63 25 108q-57 73 -150 73
q-82 0 -130.5 -60t-48.5 -161v-87h304v127zM777 10v390h11v-390q0 -110 -48.5 -170t-135.5 -60h-13v10h13q82 0 127.5 57t45.5 163z" />
    <glyph glyph-name="f_f_k.liga" unicode="ffk" horiz-adv-x="1171" 
d="M901 204q94 -9 147.5 -63t53.5 -141h-11q0 91 -61.5 144.5t-165.5 53.5h-76v-198h-11v517q0 83 -43 132t-117 49t-117 -49t-43 -132v-127h178v-10h-178v-380h-11v380h-304v-380h-11v380h-88v10h88v87q0 106 51.5 168.5t139.5 62.5q98 0 154 -74q46 74 142 74
q78 0 124 -51.5t46 -139.5v-309h56q109 0 178 56.5t69 145.5h11q0 -79 -54.5 -135.5t-146.5 -70.5zM446 517q0 63 25 108q-57 73 -150 73q-82 0 -130.5 -60t-48.5 -161v-87h304v127z" />
    <glyph glyph-name="f_f_l.liga" unicode="ffl" horiz-adv-x="894" 
d="M623 708q80 0 127.5 -51.5t47.5 -139.5v-517h-11v517q0 83 -44.5 132t-120.5 49t-120.5 -49t-44.5 -132v-127h178v-10h-178v-380h-11v380h-304v-380h-11v380h-88v10h88v87q0 106 51.5 168.5t139.5 62.5q96 0 154 -74q49 74 147 74zM446 517q0 61 25 108q-58 73 -150 73
q-82 0 -130.5 -60t-48.5 -161v-87h304v127z" />
    <glyph glyph-name="f_f_odieresis.liga" unicode="ff&#xf6;" horiz-adv-x="1139" 
d="M446 497v-107h178v-10h-178v-380h-11v380h-293v-380h-11v380h-88v10h88v87q0 106 51.5 168.5t139.5 62.5q94 0 153 -72q53 72 146 72q78 0 127 -50t49 -130h-11q0 75 -46.5 122.5t-119.5 47.5q-78 0 -126 -55.5t-48 -145.5zM435 497q0 76 34 130q-57 71 -148 71
q-82 0 -130.5 -60t-48.5 -161v-87h293v107zM991 534q-17 0 -17 17q0 16 17 16t17 -16q0 -17 -17 -17zM889 412q90 0 148 -59.5t58 -152.5t-58 -152.5t-148 -59.5t-148 59.5t-58 152.5t58 152.5t148 59.5zM889 -2q85 0 140 57.5t55 145.5q0 89 -55 145t-140 56t-140 -56
t-55 -145q0 -88 55 -145.5t140 -57.5z" />
    <glyph glyph-name="f_f_ohungarumlaut.liga" unicode="ff&#x151;" horiz-adv-x="1121" 
d="M626 698q-85 0 -132 -55.5t-47 -155.5v-97h168v-10h-168v-380h-11v380h-294v-380h-11v380h-88v10h88v87q0 106 51.5 168.5t139.5 62.5q96 0 153 -73q51 73 152 73q58 0 104 -33l-6 -8q-46 31 -99 31zM436 390v97q0 84 34 140q-58 71 -149 71q-82 0 -130.5 -60t-48.5 -161
v-87h294zM940 623l-153 -129l-6 7l152 130zM931 494l-6 7l152 130l7 -8zM891 412q90 0 148 -59.5t58 -152.5t-58 -152.5t-148 -59.5t-148 59.5t-58 152.5t58 152.5t148 59.5zM891 -2q85 0 140 57.5t55 145.5q0 89 -55 145t-140 56t-140 -56t-55 -145q0 -88 55 -145.5
t140 -57.5z" />
    <glyph glyph-name="f_f_thorn.liga" unicode="ff&#xfe;" horiz-adv-x="1215" 
d="M974 412q85 0 141 -60.5t56 -151.5t-56 -151.5t-141 -60.5q-66 0 -116 38t-70 101v-347h-11v737q0 83 -43 132t-117 49t-117 -49t-43 -132v-127h178v-10h-178v-380h-11v380h-304v-380h-11v380h-88v10h88v87q0 106 51.5 168.5t139.5 62.5q98 0 154 -74q46 74 142 74
q78 0 124 -51.5t46 -139.5v-244q20 63 70 101t116 38zM446 517q0 63 25 108q-57 73 -150 73q-82 0 -130.5 -60t-48.5 -161v-87h304v127zM974 -2q79 0 132.5 58t53.5 144t-53.5 144t-133.5 58q-79 0 -132.5 -58t-53.5 -144q0 -87 53.5 -144.5t133.5 -57.5z" />
    <glyph glyph-name="f_f_t.liga" unicode="fft" horiz-adv-x="991" 
d="M958 53l7 -7q-53 -58 -124 -58q-60 0 -94 39.5t-34 112.5v240h-270v-380h-11v380h-290v-380h-11v380h-88v10h88v87q0 106 51.5 168.5t139.5 62.5q95 0 153 -72q49 72 144 72q83 0 139 -59l-7 -7q-56 56 -132 56q-81 0 -128.5 -59t-47.5 -162v-87h270v90h11v-90h211v-10
h-211v-240q0 -66 30 -104t89 -38q63 0 115 55zM432 390v87q0 91 37 151q-57 70 -148 70q-82 0 -130.5 -60t-48.5 -161v-87h290z" />
    <glyph glyph-name="f_f_udieresis.liga" unicode="ff&#xfc;" horiz-adv-x="1158" 
d="M445 497v-107h178v-10h-178v-380h-11v380h-292v-380h-11v380h-88v10h88v87q0 106 51.5 168.5t139.5 62.5q95 0 153 -72q51 72 145 72q78 0 127 -50t49 -130h-11q0 75 -46.5 122.5t-119.5 47.5q-78 0 -126 -55.5t-48 -145.5zM434 497q0 78 35 131q-57 70 -148 70
q-82 0 -130.5 -60t-48.5 -161v-87h292v107zM993 534q-17 0 -17 17q0 16 17 16t17 -16q0 -17 -17 -17zM1060 400h11v-400h-11v119q-18 -61 -66 -96t-116 -35q-152 0 -152 189v223h11v-219q0 -183 142 -183q81 0 131 53t50 139v210z" />
    <glyph glyph-name="f_f_uhungarumlaut.liga" unicode="ff&#x171;" horiz-adv-x="1150" 
d="M626 698q-85 0 -132 -55.5t-47 -155.5v-97h168v-10h-168v-380h-11v380h-294v-380h-11v380h-88v10h88v87q0 106 51.5 168.5t139.5 62.5q96 0 153 -73q51 73 152 73q58 0 104 -33l-6 -8q-46 31 -99 31zM436 390v97q0 84 34 140q-58 71 -149 71q-82 0 -130.5 -60t-48.5 -161
v-87h294zM939 623l-153 -129l-6 7l152 130zM930 494l-6 7l152 130l7 -8zM1052 190v210h11v-400h-11v119q-18 -61 -66 -96t-116 -35q-152 0 -152 189v223h11v-219q0 -183 142 -183q81 0 131 53t50 139z" />
    <glyph glyph-name="f_h.liga" unicode="fh" horiz-adv-x="893" 
d="M656 412q151 0 151 -189v-223h-11v219q0 183 -141 183q-81 0 -131.5 -54t-50.5 -138v-210h-11v507q0 88 -43 139.5t-117 51.5t-117 -51.5t-43 -139.5v-117h178v-10h-178v-380h-11v380h-88v10h88v117q0 92 46.5 146.5t125.5 54.5q78 0 124 -54.5t46 -146.5v-227
q19 61 67.5 96.5t115.5 35.5z" />
    <glyph glyph-name="f_i.liga" unicode="fi" horiz-adv-x="584" 
d="M131 0v380h-88v10h88v127q0 88 46.5 139.5t125.5 51.5q78 0 124 -48.5t46 -131.5h-11q0 78 -43.5 124t-116.5 46q-74 0 -117 -49t-43 -132v-127h178v-10h-178v-380h-11zM462 0v400h11v-400h-11z" />
    <glyph glyph-name="f_j.liga" unicode="fj" horiz-adv-x="584" 
d="M131 0v380h-88v10h88v127q0 88 46.5 139.5t125.5 51.5q78 0 124 -48.5t46 -131.5h-11q0 78 -43.5 124t-116.5 46q-74 0 -117 -49t-43 -132v-127h178v-10h-178v-380h-11zM276 -220v10h13q82 0 127.5 57t45.5 163v390h11v-390q0 -110 -48.5 -170t-135.5 -60h-13z" />
    <glyph glyph-name="f_k.liga" unicode="fk" horiz-adv-x="856" 
d="M586 204q94 -9 147.5 -63t53.5 -141h-11q0 91 -61.5 144.5t-165.5 53.5h-76v-198h-11v517q0 83 -43 132t-117 49t-117 -49t-43 -132v-127h178v-10h-178v-380h-11v380h-88v10h88v127q0 88 46.5 139.5t125.5 51.5q78 0 124 -51.5t46 -139.5v-309h56q109 0 178 56.5
t69 145.5h11q0 -79 -54.5 -135.5t-146.5 -70.5z" />
    <glyph glyph-name="f_l.liga" unicode="fl" horiz-adv-x="579" 
d="M131 0v380h-88v10h88v127q0 88 48 139.5t129 51.5q80 0 127.5 -51.5t47.5 -139.5v-517h-11v517q0 83 -44.5 132t-120.5 49t-120.5 -49t-44.5 -132v-127h178v-10h-178v-380h-11z" />
    <glyph glyph-name="f_odieresis.liga" unicode="f&#xf6;" horiz-adv-x="835" 
d="M131 0v380h-88v10h88v107q0 94 51 152.5t135 58.5q78 0 127 -50t49 -130h-11q0 75 -46.5 122.5t-119.5 47.5q-78 0 -126 -55.5t-48 -145.5v-107h178v-10h-178v-380h-11zM687 534q-17 0 -17 17q0 16 17 16t17 -16q0 -17 -17 -17zM585 -12q-90 0 -148 59.5t-58 152.5
t58 152.5t148 59.5t148 -59.5t58 -152.5t-58 -152.5t-148 -59.5zM585 -2q85 0 140 57.5t55 145.5q0 89 -55 145t-140 56t-140 -56t-55 -145q0 -88 55 -145.5t140 -57.5z" />
    <glyph glyph-name="f_ohungarumlaut.liga" unicode="f&#x151;" horiz-adv-x="836" 
d="M321 698q-85 0 -132 -55.5t-47 -155.5v-97h168v-10h-168v-380h-11v380h-88v10h88v97q0 104 50.5 162.5t140.5 58.5q58 0 104 -33l-6 -8q-46 31 -99 31zM635 623l-153 -129l-6 7l152 130zM626 494l-6 7l152 130l7 -8zM586 412q90 0 148 -59.5t58 -152.5t-58 -152.5
t-148 -59.5t-148 59.5t-58 152.5t58 152.5t148 59.5zM586 -2q85 0 140 57.5t55 145.5q0 89 -55 145t-140 56t-140 -56t-55 -145q0 -88 55 -145.5t140 -57.5z" />
    <glyph glyph-name="f_thorn.liga" unicode="f&#xfe;" horiz-adv-x="900" 
d="M659 412q85 0 141 -60.5t56 -151.5t-56 -151.5t-141 -60.5q-66 0 -116 38t-70 101v-347h-11v737q0 83 -43 132t-117 49t-117 -49t-43 -132v-127h178v-10h-178v-380h-11v380h-88v10h88v127q0 88 46.5 139.5t125.5 51.5q78 0 124 -51.5t46 -139.5v-244q20 63 70 101t116 38
zM659 -2q79 0 132.5 58t53.5 144t-53.5 144t-133.5 58q-79 0 -132.5 -58t-53.5 -144q0 -87 53.5 -144.5t133.5 -57.5z" />
    <glyph glyph-name="f_t.liga" unicode="ft" horiz-adv-x="690" 
d="M657 53l7 -7q-53 -58 -124 -58q-60 0 -94 39.5t-34 112.5v240h-270v-380h-11v380h-88v10h88v87q0 108 50.5 169.5t136.5 61.5q83 0 139 -59l-7 -7q-56 56 -132 56q-81 0 -128.5 -59t-47.5 -162v-87h270v90h11v-90h211v-10h-211v-240q0 -66 30 -104t89 -38q63 0 115 55z
" />
    <glyph glyph-name="f_udieresis.liga" unicode="f&#xfc;" horiz-adv-x="855" 
d="M142 497v-107h178v-10h-178v-380h-11v380h-88v10h88v107q0 94 51 152.5t135 58.5q78 0 127 -50t49 -130h-11q0 75 -46.5 122.5t-119.5 47.5q-78 0 -126 -55.5t-48 -145.5zM690 534q-17 0 -17 17q0 16 17 16t17 -16q0 -17 -17 -17zM757 400h11v-400h-11v119
q-18 -61 -66 -96t-116 -35q-152 0 -152 189v223h11v-219q0 -183 142 -183q81 0 131 53t50 139v210z" />
    <glyph glyph-name="f_uhungarumlaut.liga" unicode="f&#x171;" horiz-adv-x="845" 
d="M321 698q-85 0 -132 -55.5t-47 -155.5v-97h168v-10h-168v-380h-11v380h-88v10h88v97q0 104 50.5 162.5t140.5 58.5q58 0 104 -33l-6 -8q-46 31 -99 31zM634 623l-153 -129l-6 7l152 130zM625 494l-6 7l152 130l7 -8zM747 190v210h11v-400h-11v119q-18 -61 -66 -96
t-116 -35q-152 0 -152 189v223h11v-219q0 -183 142 -183q81 0 131 53t50 139z" />
    <glyph glyph-name="uni00ED02370301.liga" unicode="&#xed;&#x237;&#x301;" horiz-adv-x="518" 
d="M246 623l-153 -129l-6 7l152 130zM511 623l-153 -129l-6 7l152 130zM421 190v210h11v-428q0 -97 -49 -150t-137 -53q-99 0 -154 57l7 7q56 -54 147 -54q83 0 129 50.5t46 142.5v150q-17 -62 -65.5 -98t-117.5 -36q-152 0 -152 189v223h11v-219q0 -183 142 -183
q81 0 131.5 53t50.5 139z" />
    <glyph glyph-name="longs_t.liga" unicode="&#x17f;t" horiz-adv-x="705" 
d="M672 53l7 -7q-53 -58 -124 -58q-60 0 -94 39.5t-34 112.5v250h-98v10h98v107q0 93 -40 142t-110 49t-110 -49t-40 -142v-507h-11v507q0 98 43 149.5t119 51.5q75 0 117.5 -51.5t42.5 -149.5v-107h211v-10h-211v-250q0 -66 30 -104t89 -38q63 0 115 55z" />
    <glyph glyph-name="longs_adieresis.liga" unicode="&#x17f;&#xe4;" horiz-adv-x="795" 
d="M427 528q0 78 -39 124t-106 46q-71 0 -113 -54.5t-42 -146.5v-497h-11v497q0 97 45 154t122 57q71 0 113 -48.5t42 -131.5h-11zM622 534q-17 0 -17 17q0 16 17 16t17 -16q0 -17 -17 -17zM698 400h11v-400h-11v127q-20 -63 -70 -101t-116 -38q-85 0 -141 60.5t-56 151.5
t56 151.5t141 60.5q66 0 116 -38t70 -101v127zM512 -2q80 0 133.5 57.5t53.5 144.5q0 86 -53.5 144t-132.5 58q-80 0 -133.5 -58t-53.5 -144t53.5 -144t132.5 -58z" />
    <glyph glyph-name="longs_b.liga" unicode="&#x17f;b" horiz-adv-x="865" 
d="M624 412q85 0 141 -60.5t56 -151.5t-56 -151.5t-141 -60.5q-66 0 -116 38t-70 101v-127h-11v507q0 93 -40 142t-110 49t-110 -49t-40 -142v-507h-11v507q0 98 43 149.5t119 51.5q75 0 117.5 -51.5t42.5 -149.5v-234q20 63 70 101t116 38zM624 -2q79 0 132.5 58t53.5 144
t-53.5 144t-133.5 58q-79 0 -132.5 -58t-53.5 -144q0 -87 53.5 -144.5t133.5 -57.5z" />
    <glyph glyph-name="longs_h.liga" unicode="&#x17f;h" horiz-adv-x="858" 
d="M621 412q151 0 151 -189v-223h-11v219q0 183 -141 183q-81 0 -131.5 -54t-50.5 -138v-210h-11v507q0 93 -40 142t-110 49t-110 -49t-40 -142v-507h-11v507q0 98 43 149.5t119 51.5q75 0 117.5 -51.5t42.5 -149.5v-227q19 61 67.5 96.5t115.5 35.5z" />
    <glyph glyph-name="longs_i.liga" unicode="&#x17f;i" horiz-adv-x="549" 
d="M116 0v507q0 92 44.5 146.5t119.5 54.5q73 0 115.5 -48.5t42.5 -131.5h-11q0 78 -40 124t-108 46q-70 0 -111 -51.5t-41 -139.5v-507h-11zM427 0v400h11v-400h-11z" />
    <glyph glyph-name="longs_j.liga" unicode="&#x17f;j" horiz-adv-x="549" 
d="M116 0v507q0 92 44.5 146.5t119.5 54.5q73 0 115.5 -48.5t42.5 -131.5h-11q0 78 -40 124t-108 46q-70 0 -111 -51.5t-41 -139.5v-507h-11zM241 -220v10h13q82 0 127.5 57t45.5 163v390h11v-390q0 -110 -48.5 -170t-135.5 -60h-13z" />
    <glyph glyph-name="longs_k.liga" unicode="&#x17f;k" horiz-adv-x="821" 
d="M551 204q94 -9 147.5 -63t53.5 -141h-11q0 91 -61.5 144.5t-165.5 53.5h-76v-198h-11v507q0 93 -40 142t-110 49t-110 -49t-40 -142v-507h-11v507q0 98 43 149.5t119 51.5q75 0 117.5 -51.5t42.5 -149.5v-299h56q109 0 178 56.5t69 145.5h11q0 -79 -54.5 -135.5
t-146.5 -70.5z" />
    <glyph glyph-name="longs_l.liga" unicode="&#x17f;l" horiz-adv-x="554" 
d="M438 690v-690h-11v690h-79q-109 0 -165 -56t-56 -164v-470h-11v470q0 113 59 171.5t173 58.5h82q8 0 8 -10z" />
    <glyph glyph-name="longs_odieresis.liga" unicode="&#x17f;&#xf6;" horiz-adv-x="770" 
d="M116 0v497q0 97 45 154t122 57q71 0 113 -48.5t42 -131.5h-11q0 78 -39 124t-106 46q-71 0 -113 -54.5t-42 -146.5v-497h-11zM617 534q-17 0 -17 17q0 16 17 16t17 -16q0 -17 -17 -17zM520 -12q-90 0 -148 59.5t-58 152.5t58 152.5t148 59.5t148 -59.5t58 -152.5
t-58 -152.5t-148 -59.5zM520 -2q85 0 140 57.5t55 145.5q0 89 -55 145t-140 56t-140 -56t-55 -145q0 -88 55 -145.5t140 -57.5z" />
    <glyph glyph-name="longs_thorn.liga" unicode="&#x17f;&#xfe;" horiz-adv-x="865" 
d="M624 412q85 0 141 -60.5t56 -151.5t-56 -151.5t-141 -60.5q-66 0 -116 38t-70 101v-347h-11v727q0 93 -40 142t-110 49t-110 -49t-40 -142v-507h-11v507q0 98 43 149.5t119 51.5q75 0 117.5 -51.5t42.5 -149.5v-234q20 63 70 101t116 38zM623 -2q80 0 133.5 58t53.5 144
t-53.5 144t-132.5 58q-80 0 -133.5 -57.5t-53.5 -144.5q0 -86 53.5 -144t132.5 -58z" />
    <glyph glyph-name="longs_longs.liga" unicode="&#x17f;&#x17f;" horiz-adv-x="606" 
d="M590 708h33v-10h-33q-82 0 -127.5 -57t-45.5 -163v-478h-11v478q0 85 29 140q-53 80 -139 80q-80 0 -124.5 -58.5t-44.5 -162.5v-477h-11v477q0 109 48 170t133 61q91 0 143 -80q48 80 150 80z" />
    <glyph glyph-name="longs_longs_adieresis.liga" unicode="&#x17f;&#x17f;&#xe4;" horiz-adv-x="1090" 
d="M722 528q0 78 -39 124t-106 46q-71 0 -113 -54.5t-42 -146.5v-497h-11v497q0 72 24 120q-53 81 -139 81q-80 0 -124.5 -58.5t-44.5 -162.5v-477h-11v477q0 109 48 170t133 61q91 0 143 -80q45 80 138 80q71 0 113 -48.5t42 -131.5h-11zM917 534q-17 0 -17 17q0 16 17 16
t17 -16q0 -17 -17 -17zM993 400h11v-400h-11v127q-20 -63 -70 -101t-116 -38q-85 0 -141 60.5t-56 151.5t56 151.5t141 60.5q66 0 116 -38t70 -101v127zM807 -2q80 0 133.5 57.5t53.5 144.5q0 86 -53.5 144t-132.5 58q-80 0 -133.5 -58t-53.5 -144t53.5 -144t132.5 -58z" />
    <glyph glyph-name="longs_longs_b.liga" unicode="&#x17f;&#x17f;b" horiz-adv-x="1163" 
d="M922 412q85 0 141 -60.5t56 -151.5t-56 -151.5t-141 -60.5q-66 0 -116 38t-70 101v-127h-11v507q0 93 -40 142t-110 49t-110 -49t-40 -142v-507h-11v507q0 66 20 112q-54 79 -138 79q-80 0 -124.5 -58.5t-44.5 -162.5v-477h-11v477q0 109 48 170t133 61q90 0 142 -79
q40 79 137 79q75 0 117.5 -51.5t42.5 -149.5v-234q20 63 70 101t116 38zM922 -2q79 0 132.5 58t53.5 144t-53.5 144t-133.5 58q-79 0 -132.5 -58t-53.5 -144q0 -87 53.5 -144.5t133.5 -57.5z" />
    <glyph glyph-name="longs_longs_h.liga" unicode="&#x17f;&#x17f;h" horiz-adv-x="1157" 
d="M919 412q151 0 151 -189v-223h-11v219q0 183 -141 183q-81 0 -131.5 -54t-50.5 -138v-210h-11v507q0 93 -40 142t-110 49t-110 -49t-40 -142v-507h-11v507q0 66 20 112q-54 79 -138 79q-80 0 -124.5 -58.5t-44.5 -162.5v-477h-11v477q0 109 48 170t133 61q90 0 142 -79
q40 79 137 79q75 0 117.5 -51.5t42.5 -149.5v-227q19 61 67.5 96.5t115.5 35.5z" />
    <glyph glyph-name="longs_longs_i.liga" unicode="&#x17f;&#x17f;i" horiz-adv-x="844" 
d="M733 528h-11q0 78 -40 124t-108 46q-70 0 -111 -51.5t-41 -139.5v-507h-11v507q0 64 23 112q-53 79 -138 79q-80 0 -124.5 -58.5t-44.5 -162.5v-477h-11v477q0 109 48 170t133 61q90 0 142 -78q45 78 136 78q73 0 115.5 -48.5t42.5 -131.5zM722 0v400h11v-400h-11z" />
    <glyph glyph-name="longs_longs_j.liga" unicode="&#x17f;&#x17f;j" horiz-adv-x="844" 
d="M722 528q0 78 -40 124t-108 46q-70 0 -111 -51.5t-41 -139.5v-507h-11v507q0 64 23 112q-53 79 -138 79q-80 0 -124.5 -58.5t-44.5 -162.5v-477h-11v477q0 109 48 170t133 61q90 0 142 -78q45 78 136 78q73 0 115.5 -48.5t42.5 -131.5h-11zM722 10v390h11v-390
q0 -110 -48.5 -170t-135.5 -60h-13v10h13q82 0 127.5 57t45.5 163z" />
    <glyph glyph-name="longs_longs_k.liga" unicode="&#x17f;&#x17f;k" horiz-adv-x="1120" 
d="M850 204q94 -9 147.5 -63t53.5 -141h-11q0 91 -61.5 144.5t-165.5 53.5h-76v-198h-11v507q0 93 -40 142t-110 49t-110 -49t-40 -142v-507h-11v507q0 65 20 111q-53 80 -139 80q-80 0 -124.5 -58.5t-44.5 -162.5v-477h-11v477q0 109 48 170t133 61q89 0 143 -80
q41 80 137 80q75 0 117.5 -51.5t42.5 -149.5v-299h56q109 0 178 56.5t69 145.5h11q0 -79 -54.5 -135.5t-146.5 -70.5z" />
    <glyph glyph-name="longs_longs_l.liga" unicode="&#x17f;&#x17f;l" horiz-adv-x="834" 
d="M710 700q8 0 8 -10v-690h-11v690h-79q-109 0 -165 -56t-56 -164v-470h-11v470q0 92 39 148q-53 80 -139 80q-80 0 -124.5 -58.5t-44.5 -162.5v-477h-11v477q0 109 48 170t133 61q92 0 144 -82q59 74 187 74h82z" />
    <glyph glyph-name="longs_longs_odieresis.liga" unicode="&#x17f;&#x17f;&#xf6;" horiz-adv-x="1064" 
d="M721 528q0 78 -39 124t-106 46q-71 0 -113 -54.5t-42 -146.5v-497h-11v497q0 69 25 121q-55 80 -139 80q-80 0 -124.5 -58.5t-44.5 -162.5v-477h-11v477q0 109 48 170t133 61q89 0 143 -80q44 80 137 80q71 0 113 -48.5t42 -131.5h-11zM911 534q-17 0 -17 17q0 16 17 16
t17 -16q0 -17 -17 -17zM814 412q90 0 148 -59.5t58 -152.5t-58 -152.5t-148 -59.5t-148 59.5t-58 152.5t58 152.5t148 59.5zM814 -2q85 0 140 57.5t55 145.5q0 89 -55 145t-140 56t-140 -56t-55 -145q0 -88 55 -145.5t140 -57.5z" />
    <glyph glyph-name="longs_longs_thorn.liga" unicode="&#x17f;&#x17f;&#xfe;" horiz-adv-x="1164" 
d="M923 412q85 0 141 -60.5t56 -151.5t-56 -151.5t-141 -60.5q-66 0 -116 38t-70 101v-347h-11v727q0 93 -40 142t-110 49t-110 -49t-40 -142v-507h-11v507q0 65 20 111q-53 80 -139 80q-80 0 -124.5 -58.5t-44.5 -162.5v-477h-11v477q0 109 48 170t133 61q89 0 143 -80
q41 80 137 80q75 0 117.5 -51.5t42.5 -149.5v-234q20 63 70 101t116 38zM922 -2q80 0 133.5 58t53.5 144t-53.5 144t-132.5 58q-80 0 -133.5 -57.5t-53.5 -144.5q0 -86 53.5 -144t132.5 -58z" />
    <glyph glyph-name="longs_longs_longs.liga" unicode="&#x17f;&#x17f;&#x17f;" horiz-adv-x="891" 
d="M875 708h33v-10h-33q-82 0 -127.5 -57t-45.5 -163v-478h-11v478q0 85 29 140q-53 80 -139 80q-80 0 -124.5 -58.5t-44.5 -162.5v-477h-11v477q0 86 31 145q-53 76 -136 76q-80 0 -124.5 -58.5t-44.5 -162.5v-477h-11v477q0 109 48 170t133 61q88 0 141 -77q48 77 144 77
q91 0 143 -80q48 80 150 80z" />
    <glyph glyph-name="longs_longs_longs_h.liga" unicode="&#x17f;&#x17f;&#x17f;h" horiz-adv-x="1448" 
d="M1210 412q151 0 151 -189v-223h-11v219q0 183 -141 183q-81 0 -131.5 -54t-50.5 -138v-210h-11v507q0 93 -40 142t-110 49t-110 -49t-40 -142v-507h-11v507q0 65 20 111q-53 80 -139 80q-80 0 -124.5 -58.5t-44.5 -162.5v-477h-11v477q0 85 29 140q-53 81 -139 81
q-80 0 -124.5 -58.5t-44.5 -162.5v-477h-11v477q0 109 48 170t133 61q91 0 144 -81q47 81 146 81q89 0 143 -80q41 80 137 80q75 0 117.5 -51.5t42.5 -149.5v-227q19 61 67.5 96.5t115.5 35.5z" />
    <glyph glyph-name="longs_longs_longs_i.liga" unicode="&#x17f;&#x17f;&#x17f;i" horiz-adv-x="1134" 
d="M1023 528h-11q0 78 -40 124t-108 46q-70 0 -111 -51.5t-41 -139.5v-507h-11v507q0 62 22 111q-53 80 -139 80q-80 0 -124.5 -58.5t-44.5 -162.5v-477h-11v477q0 87 30 142q-53 79 -138 79q-80 0 -124.5 -58.5t-44.5 -162.5v-477h-11v477q0 109 48 170t133 61
q89 0 142 -79q48 79 146 79q91 0 143 -80q44 80 137 80q73 0 115.5 -48.5t42.5 -131.5zM1012 0v400h11v-400h-11z" />
    <glyph glyph-name="longs_longs_longs_j.liga" unicode="&#x17f;&#x17f;&#x17f;j" horiz-adv-x="1134" 
d="M1012 528q0 78 -40 124t-108 46q-70 0 -111 -51.5t-41 -139.5v-507h-11v507q0 62 22 111q-53 80 -139 80q-80 0 -124.5 -58.5t-44.5 -162.5v-477h-11v477q0 87 30 142q-53 79 -138 79q-80 0 -124.5 -58.5t-44.5 -162.5v-477h-11v477q0 109 48 170t133 61q89 0 142 -79
q48 79 146 79q91 0 143 -80q44 80 137 80q73 0 115.5 -48.5t42.5 -131.5h-11zM1012 10v390h11v-390q0 -110 -48.5 -170t-135.5 -60h-13v10h13q82 0 127.5 57t45.5 163z" />
    <glyph glyph-name="longs_longs_longs_k.liga" unicode="&#x17f;&#x17f;&#x17f;k" horiz-adv-x="1406" 
d="M1136 204q94 -9 147.5 -63t53.5 -141h-11q0 91 -61.5 144.5t-165.5 53.5h-76v-198h-11v507q0 93 -40 142t-110 49t-110 -49t-40 -142v-507h-11v507q0 68 21 113q-53 78 -137 78q-80 0 -124.5 -58.5t-44.5 -162.5v-477h-11v477q0 85 29 141q-53 80 -138 80
q-80 0 -124.5 -58.5t-44.5 -162.5v-477h-11v477q0 109 48 170t133 61q91 0 143 -80q48 80 146 80q88 0 141 -77q41 77 136 77q75 0 117.5 -51.5t42.5 -149.5v-299h56q109 0 178 56.5t69 145.5h11q0 -79 -54.5 -135.5t-146.5 -70.5z" />
    <glyph glyph-name="longs_longs_longs_l.liga" unicode="&#x17f;&#x17f;&#x17f;l" horiz-adv-x="1119" 
d="M995 700q8 0 8 -10v-690h-11v690h-79q-109 0 -165 -56t-56 -164v-470h-11v470q0 95 41 151q-53 77 -136 77q-80 0 -124.5 -58.5t-44.5 -162.5v-477h-11v477q0 85 29 140q-53 81 -139 81q-80 0 -124.5 -58.5t-44.5 -162.5v-477h-11v477q0 109 48 170t133 61q91 0 144 -81
q47 81 146 81q90 0 142 -78q59 70 184 70h82z" />
    <glyph glyph-name="longs_longs_longs_t.liga" unicode="&#x17f;&#x17f;&#x17f;t" horiz-adv-x="1291" 
d="M1258 53l7 -7q-53 -58 -124 -58q-60 0 -94 39.5t-34 112.5v250h-98v10h98v107q0 93 -40 142t-110 49t-110 -49t-40 -142v-507h-11v507q0 66 20 112q-54 79 -138 79q-80 0 -124.5 -58.5t-44.5 -162.5v-477h-11v477q0 87 30 142q-53 79 -138 79q-80 0 -124.5 -58.5
t-44.5 -162.5v-477h-11v477q0 109 48 170t133 61q89 0 142 -79q48 79 146 79q90 0 142 -79q40 79 137 79q75 0 117.5 -51.5t42.5 -149.5v-107h211v-10h-211v-250q0 -66 30 -104t89 -38q63 0 115 55z" />
    <glyph glyph-name="longs_longs_t.liga" unicode="&#x17f;&#x17f;t" horiz-adv-x="1005" 
d="M972 53l7 -7q-53 -58 -124 -58q-60 0 -94 39.5t-34 112.5v250h-98v10h98v107q0 93 -40 142t-110 49t-110 -49t-40 -142v-507h-11v507q0 63 19 110q-54 81 -139 81q-80 0 -124.5 -58.5t-44.5 -162.5v-477h-11v477q0 109 48 170t133 61q91 0 143 -80q41 80 138 80
q75 0 117.5 -51.5t42.5 -149.5v-107h211v-10h-211v-250q0 -66 30 -104t89 -38q63 0 115 55z" />
    <glyph glyph-name="longs_longs_udieresis.liga" unicode="&#x17f;&#x17f;&#xfc;" horiz-adv-x="1082" 
d="M721 528q0 78 -39 124t-106 46q-71 0 -113 -54.5t-42 -146.5v-497h-11v497q0 69 25 121q-55 80 -139 80q-80 0 -124.5 -58.5t-44.5 -162.5v-477h-11v477q0 109 48 170t133 61q89 0 143 -80q44 80 137 80q71 0 113 -48.5t42 -131.5h-11zM918 534q-17 0 -17 17q0 16 17 16
t17 -16q0 -17 -17 -17zM984 400h11v-400h-11v119q-18 -61 -66 -96t-116 -35q-152 0 -152 189v223h11v-219q0 -183 142 -183q81 0 131 53t50 139v210z" />
    <glyph glyph-name="longs_udieresis.liga" unicode="&#x17f;&#xfc;" horiz-adv-x="787" 
d="M427 528q0 78 -39 124t-106 46q-71 0 -113 -54.5t-42 -146.5v-497h-11v497q0 97 45 154t122 57q71 0 113 -48.5t42 -131.5h-11zM624 534q-17 0 -17 17q0 16 17 16t17 -16q0 -17 -17 -17zM690 400h11v-400h-11v119q-18 -61 -66 -96t-116 -35q-152 0 -152 189v223h11v-219
q0 -183 142 -183q81 0 131 53t50 139v210z" />
    <glyph glyph-name="t_t.liga" unicode="tt" horiz-adv-x="758" 
d="M725 53l7 -7q-53 -58 -124 -58q-60 0 -94 39.5t-34 112.5v240h-353v-240q0 -66 30 -104t89 -38q63 0 115 55l7 -7q-53 -58 -124 -58q-60 0 -94 39.5t-34 112.5v240h-78v10h78v90h11v-90h353v90h11v-90h211v-10h-211v-240q0 -66 30 -104t89 -38q63 0 115 55z" />
    <glyph glyph-name="uni06440671" unicode="&#xfedf;&#xfb51;" horiz-adv-x="512" 
d="M256 614q0 -39 -29 -59.5t-82 -20.5h-134v10h54q36 141 120 141q33 0 52 -19.5t19 -51.5zM185 675q-74 0 -109 -131h69q48 0 74 18t26 51q0 27 -16.5 44.5t-43.5 17.5zM309 288q67 -12 105 -51t38 -96q0 -69 -54 -111t-142 -42t-142 42t-54 111q0 57 38 96t105 51
q-64 14 -100.5 59.5t-36.5 112.5v20h11v-20q0 -76 49 -122t130 -46t130 46t49 122v139h11v-139q0 -67 -36.5 -112.5t-100.5 -59.5zM256 -2q84 0 134.5 39t50.5 104q0 64 -50.5 102.5t-134.5 38.5t-134.5 -38.5t-50.5 -102.5q0 -65 50.5 -104t134.5 -39z" />
    <glyph glyph-name="uni06440671.fina" unicode="&#xfee0;&#xfb51;" horiz-adv-x="526" 
d="M276 614q0 -39 -29 -59.5t-82 -20.5h-134v10h54q36 141 120 141q33 0 52 -19.5t19 -51.5zM205 675q-74 0 -109 -131h69q48 0 74 18t26 51q0 27 -16.5 44.5t-43.5 17.5zM418 10h109v-10h-475v10h203l-156 470h12l155 -470h141v590h11v-590z" />
    <glyph glyph-name="uni0644FD3D" unicode="&#xfedf;&#xfd3c;" horiz-adv-x="512" 
d="M230 715l4 -9l-217 -83l-4 10zM237 635l4 -9l-217 -83l-4 10zM309 288q67 -12 105 -51t38 -96q0 -69 -54 -111t-142 -42t-142 42t-54 111q0 57 38 96t105 51q-64 14 -100.5 59.5t-36.5 112.5v20h11v-20q0 -76 49 -122t130 -46t130 46t49 122v139h11v-139
q0 -67 -36.5 -112.5t-100.5 -59.5zM256 -2q84 0 134.5 39t50.5 104q0 64 -50.5 102.5t-134.5 38.5t-134.5 -38.5t-50.5 -102.5q0 -65 50.5 -104t134.5 -39z" />
    <glyph glyph-name="uni0644FD3D.fina" unicode="&#xfee0;&#xfd3c;" horiz-adv-x="526" 
d="M230 705l4 -9l-217 -83l-4 10zM237 625l4 -9l-217 -83l-4 10zM418 10h109v-10h-475v10h203l-156 470h12l155 -470h141v590h11v-590z" />
    <glyph glyph-name="uni0531055B.liga" unicode="&#x531;&#x55b;" horiz-adv-x="792" 
d="M729 872l-184 -207l-8 7l184 207zM600 224q81 0 126 -51t45 -141v-32h-11v32q0 86 -42 134t-118 48h-23q-8 -100 -74.5 -164t-164.5 -64q-104 0 -171.5 72.5t-67.5 183.5v358h11v-358q0 -107 64.5 -176.5t163.5 -69.5t164 69t65 174v361h11v-362v-14h22z" />
    <glyph glyph-name="uni0531055C.liga" unicode="&#x531;&#x55c;" horiz-adv-x="792" 
d="M600 753q-49 0 -75.5 -27t-26.5 -76h-11q0 53 30 83t83 30h50q49 0 75.5 27t26.5 76h11q0 -53 -30 -83t-83 -30h-50zM600 224q81 0 126 -51t45 -141v-32h-11v32q0 86 -42 134t-118 48h-23q-8 -100 -74.5 -164t-164.5 -64q-104 0 -171.5 72.5t-67.5 183.5v358h11v-358
q0 -107 64.5 -176.5t163.5 -69.5t164 69t65 174v361h11v-362v-14h22z" />
    <glyph glyph-name="uni0531055E.liga" unicode="&#x531;&#x55e;" horiz-adv-x="792" 
d="M585 820q-60 -13 -95 -55t-35 -104h-11q0 79 51 126t136 47q62 0 97.5 -25.5t35.5 -71.5q0 -36 -22.5 -57.5t-61.5 -21.5q-45 0 -70 29t-25 81v52zM753 737q0 41 -32.5 64t-89.5 23q-19 0 -35 -3v-53q0 -47 21.5 -73.5t61.5 -26.5q34 0 54 18.5t20 50.5zM600 224
q81 0 126 -51t45 -141v-32h-11v32q0 86 -42 134t-118 48h-23q-8 -100 -74.5 -164t-164.5 -64q-104 0 -171.5 72.5t-67.5 183.5v358h11v-358q0 -107 64.5 -176.5t163.5 -69.5t164 69t65 174v361h11v-362v-14h22z" />
    <glyph glyph-name="uni0535055B.liga" unicode="&#x535;&#x55b;" horiz-adv-x="615" 
d="M566 872l-184 -207l-8 7l184 207zM110 600v-181h456v-10h-456v-181q0 -105 61 -168.5t162 -63.5t161.5 58t60.5 154v32h11v-32q0 -100 -64 -161t-169 -61q-106 0 -170 66.5t-64 175.5v372h11z" />
    <glyph glyph-name="uni0535055C.liga" unicode="&#x535;&#x55c;" horiz-adv-x="615" 
d="M589 866h11q0 -53 -30 -83t-83 -30h-50q-49 0 -75.5 -27t-26.5 -76h-11q0 53 30 83t83 30h50q49 0 75.5 27t26.5 76zM110 600v-181h456v-10h-456v-181q0 -105 61 -168.5t162 -63.5t161.5 58t60.5 154v32h11v-32q0 -100 -64 -161t-169 -61q-106 0 -170 66.5t-64 175.5v372
h11z" />
    <glyph glyph-name="uni0535055E.liga" unicode="&#x535;&#x55e;" horiz-adv-x="615" 
d="M468 834q62 0 97.5 -25.5t35.5 -71.5q0 -36 -22.5 -57.5t-61.5 -21.5q-45 0 -70 29t-25 81v52q-60 -13 -95 -55t-35 -104h-11q0 79 51 126t136 47zM516 668q34 0 54 18.5t20 50.5q0 41 -32.5 64t-89.5 23q-18 0 -35 -3v-53q0 -47 21.5 -73.5t61.5 -26.5zM110 600v-181
h456v-10h-456v-181q0 -105 61 -168.5t162 -63.5t161.5 58t60.5 154v32h11v-32q0 -100 -64 -161t-169 -61q-106 0 -170 66.5t-64 175.5v372h11z" />
    <glyph glyph-name="uni0537055B.liga" unicode="&#x537;&#x55b;" horiz-adv-x="533" 
d="M484 872l-184 -207l-8 7l184 207zM400 10q57 0 89 -30t32 -85v-17h-11v17q0 49 -29 77t-81 28h-299v600h11v-210h375v-10h-375v-370h288z" />
    <glyph glyph-name="uni0537055C.liga" unicode="&#x537;&#x55c;" horiz-adv-x="533" 
d="M355 753q-49 0 -75.5 -27t-26.5 -76h-11q0 53 30 83t83 30h50q49 0 75.5 27t26.5 76h11q0 -53 -30 -83t-83 -30h-50zM400 10q57 0 89 -30t32 -85v-17h-11v17q0 49 -29 77t-81 28h-299v600h11v-210h375v-10h-375v-370h288z" />
    <glyph glyph-name="uni0537055E.liga" unicode="&#x537;&#x55e;" horiz-adv-x="533" 
d="M340 820q-60 -13 -95 -55t-35 -104h-11q0 79 51 126t136 47q62 0 97.5 -25.5t35.5 -71.5q0 -36 -22.5 -57.5t-61.5 -21.5q-45 0 -70 29t-25 81v52zM508 737q0 41 -32.5 64t-89.5 23q-19 0 -35 -3v-53q0 -47 21.5 -73.5t61.5 -26.5q34 0 54 18.5t20 50.5zM400 10
q57 0 89 -30t32 -85v-17h-11v17q0 49 -29 77t-81 28h-299v600h11v-210h375v-10h-375v-370h288z" />
    <glyph glyph-name="uni0538055B.liga" unicode="&#x538;&#x55b;" horiz-adv-x="665" 
d="M586 872l-184 -207l-8 7l184 207zM105 10h501v-10h-512v332q0 132 67 207t182 75t181.5 -75t66.5 -207v-74h-11v74q0 128 -63.5 200t-173.5 72t-174 -72.5t-64 -199.5v-322z" />
    <glyph glyph-name="uni0538055C.liga" unicode="&#x538;&#x55c;" horiz-adv-x="665" 
d="M457 753q-49 0 -75.5 -27t-26.5 -76h-11q0 53 30 83t83 30h50q49 0 75.5 27t26.5 76h11q0 -53 -30 -83t-83 -30h-50zM105 332v-322h501v-10h-512v332q0 132 67 207t182 75t181.5 -75t66.5 -207v-74h-11v74q0 128 -63.5 200t-173.5 72t-174 -72.5t-64 -199.5z" />
    <glyph glyph-name="uni0538055E.liga" unicode="&#x538;&#x55e;" horiz-adv-x="665" 
d="M442 820q-60 -13 -95 -55t-35 -104h-11q0 79 51 126t136 47q62 0 97.5 -25.5t35.5 -71.5q0 -36 -22.5 -57.5t-61.5 -21.5q-45 0 -70 29t-25 81v52zM610 737q0 41 -32.5 64t-89.5 23q-19 0 -35 -3v-53q0 -47 21.5 -73.5t61.5 -26.5q34 0 54 18.5t20 50.5zM105 332v-322
h501v-10h-512v332q0 132 67 207t182 75t181.5 -75t66.5 -207v-74h-11v74q0 128 -63.5 200t-173.5 72t-174 -72.5t-64 -199.5z" />
    <glyph glyph-name="uni053B055B.liga" unicode="&#x53b;&#x55b;" horiz-adv-x="578" 
d="M496 872l-184 -207l-8 7l184 207zM330 462q87 0 139 -55t52 -146v-131h-11v130q0 87 -49 139.5t-131 52.5q-98 0 -158 -66t-60 -175v-211h-11v600h11v-307q20 79 78 124t140 45z" />
    <glyph glyph-name="uni053B055C.liga" unicode="&#x53b;&#x55c;" horiz-adv-x="578" 
d="M367 753q-49 0 -75.5 -27t-26.5 -76h-11q0 53 30 83t83 30h50q49 0 75.5 27t26.5 76h11q0 -53 -30 -83t-83 -30h-50zM330 462q87 0 139 -55t52 -146v-131h-11v130q0 87 -49 139.5t-131 52.5q-98 0 -158 -66t-60 -175v-211h-11v600h11v-307q20 79 78 124t140 45z" />
    <glyph glyph-name="uni053B055E.liga" unicode="&#x53b;&#x55e;" horiz-adv-x="578" 
d="M352 820q-60 -13 -95 -55t-35 -104h-11q0 79 51 126t136 47q62 0 97.5 -25.5t35.5 -71.5q0 -36 -22.5 -57.5t-61.5 -21.5q-45 0 -70 29t-25 81v52zM520 737q0 41 -32.5 64t-89.5 23q-18 0 -35 -3v-53q0 -47 21.5 -73.5t61.5 -26.5q34 0 54 18.5t20 50.5zM330 462
q87 0 139 -55t52 -146v-131h-11v130q0 87 -49 139.5t-131 52.5q-98 0 -158 -66t-60 -175v-211h-11v600h11v-307q20 79 78 124t140 45z" />
    <glyph glyph-name="uni0548055B.liga" unicode="&#x548;&#x55b;" horiz-adv-x="697" 
d="M395 665l-8 7l184 207l8 -7zM99 332q0 132 69 207t187 75q114 0 178.5 -76t64.5 -210v-328h-11v329q0 129 -61.5 202t-170.5 73q-113 0 -179 -72.5t-66 -200.5v-331h-11v332z" />
    <glyph glyph-name="uni0548055C.liga" unicode="&#x548;&#x55c;" horiz-adv-x="697" 
d="M337 650q0 53 30 83t83 30h50q49 0 75.5 27t26.5 76h11q0 -53 -30 -83t-83 -30h-50q-49 0 -75.5 -27t-26.5 -76h-11zM99 332q0 132 69 207t187 75q114 0 178.5 -76t64.5 -210v-328h-11v329q0 129 -61.5 202t-170.5 73q-113 0 -179 -72.5t-66 -200.5v-331h-11v332z" />
    <glyph glyph-name="uni0548055E.liga" unicode="&#x548;&#x55e;" horiz-adv-x="697" 
d="M435 820q-60 -13 -95 -55t-35 -104h-11q0 79 51 126t136 47q62 0 97.5 -25.5t35.5 -71.5q0 -36 -22.5 -57.5t-61.5 -21.5q-45 0 -70 29t-25 81v52zM603 737q0 41 -32.5 64t-89.5 23q-19 0 -35 -3v-53q0 -47 21.5 -73.5t61.5 -26.5q34 0 54 18.5t20 50.5zM355 614
q114 0 178.5 -76t64.5 -210v-328h-11v329q0 129 -61.5 202t-170.5 73q-113 0 -179 -72.5t-66 -200.5v-331h-11v332q0 132 69 207t187 75z" />
    <glyph glyph-name="uni0555055B.liga" unicode="&#x555;&#x55b;" horiz-adv-x="740" 
d="M452 665l-8 7l184 207l8 -7zM360 -14q-131 0 -215.5 88t-84.5 226t84.5 226t215.5 88t215.5 -88t84.5 -226t-84.5 -226t-215.5 -88zM360 -4q126 0 207.5 84.5t81.5 219.5q0 134 -81.5 219t-207.5 85t-207.5 -85t-81.5 -219q0 -133 81.5 -218.5t207.5 -85.5z" />
    <glyph glyph-name="uni0555055C.liga" unicode="&#x555;&#x55c;" horiz-adv-x="740" 
d="M394 650q0 53 30 83t83 30h50q49 0 75.5 27t26.5 76h11q0 -53 -30 -83t-83 -30h-50q-49 0 -75.5 -27t-26.5 -76h-11zM360 -14q-131 0 -215.5 88t-84.5 226t84.5 226t215.5 88t215.5 -88t84.5 -226t-84.5 -226t-215.5 -88zM360 -4q126 0 207.5 84.5t81.5 219.5
q0 134 -81.5 219t-207.5 85t-207.5 -85t-81.5 -219q0 -133 81.5 -218.5t207.5 -85.5z" />
    <glyph glyph-name="uni0555055E.liga" unicode="&#x555;&#x55e;" horiz-adv-x="740" 
d="M492 820q-60 -13 -95 -55t-35 -104h-11q0 79 51 126t136 47q62 0 97.5 -25.5t35.5 -71.5q0 -36 -22.5 -57.5t-61.5 -21.5q-45 0 -70 29t-25 81v52zM660 737q0 41 -32.5 64t-89.5 23q-18 0 -35 -3v-53q0 -47 21.5 -73.5t61.5 -26.5q34 0 54 18.5t20 50.5zM360 614
q131 0 215.5 -88t84.5 -226t-84.5 -226t-215.5 -88t-215.5 88t-84.5 226t84.5 226t215.5 88zM360 -4q126 0 207.5 84.5t81.5 219.5q0 134 -81.5 219t-207.5 85t-207.5 -85t-81.5 -219q0 -133 81.5 -218.5t207.5 -85.5z" />
    <glyph glyph-name="uni0561055B.liga" unicode="&#x561;&#x55b;" horiz-adv-x="809" 
d="M711 705l-184 -207l-8 7l184 207zM711 400h11v-400h-11v118q-18 -61 -64 -95.5t-105 -34.5q-61 0 -96 37t-44 104q-16 -65 -62.5 -103t-109.5 -38q-71 0 -107 50t-36 139v223h11v-219q0 -86 33.5 -134.5t99.5 -48.5q72 0 120 53t48 139v210h11v-219q0 -87 33 -135
t100 -48q71 0 119.5 53t48.5 139v210z" />
    <glyph glyph-name="uni0561055C.liga" unicode="&#x561;&#x55c;" horiz-adv-x="809" 
d="M577 577q-49 0 -75.5 -27t-26.5 -76h-11q0 53 30 83t83 30h40q49 0 75.5 27t26.5 76h11q0 -53 -30 -83t-83 -30h-40zM711 190v210h11v-400h-11v118q-18 -61 -64 -95.5t-105 -34.5q-61 0 -96 37t-44 104q-16 -65 -62.5 -103t-109.5 -38q-71 0 -107 50t-36 139v223h11v-219
q0 -86 33.5 -134.5t99.5 -48.5q72 0 120 53t48 139v210h11v-219q0 -87 33 -135t100 -48q71 0 119.5 53t48.5 139z" />
    <glyph glyph-name="uni0561055E.liga" unicode="&#x561;&#x55e;" horiz-adv-x="809" 
d="M574 690q-49 -12 -78 -54t-29 -104h-11q0 79 43 126t115 47q53 0 82.5 -25.5t29.5 -71.5q0 -36 -19 -57.5t-52 -21.5q-39 0 -60 29t-21 81v51zM715 608q0 41 -27 64t-74 23q-11 0 -29 -2v-54q0 -47 18 -73.5t51 -26.5q28 0 44.5 18.5t16.5 50.5zM711 190v210h11v-400h-11
v118q-18 -61 -64 -95.5t-105 -34.5q-61 0 -96 37t-44 104q-16 -65 -62.5 -103t-109.5 -38q-71 0 -107 50t-36 139v223h11v-219q0 -86 33.5 -134.5t99.5 -48.5q72 0 120 53t48 139v210h11v-219q0 -87 33 -135t100 -48q71 0 119.5 53t48.5 139z" />
    <glyph glyph-name="uni0565055B.liga" unicode="&#x565;&#x55b;" horiz-adv-x="519" 
d="M412 705l-184 -207l-8 7l184 207zM449 380h-352v-206q0 -80 45.5 -128t121.5 -48t121.5 52.5t45.5 139.5h11v-190h-11v115q-17 -60 -61 -93.5t-106 -33.5q-80 0 -129 51t-49 135v526h11v-310h352v-10z" />
    <glyph glyph-name="uni0565055C.liga" unicode="&#x565;&#x55c;" horiz-adv-x="519" 
d="M449 380h-352v-206q0 -80 45.5 -128t121.5 -48t121.5 52.5t45.5 139.5h11v-190h-11v115q-17 -60 -61 -93.5t-106 -33.5q-80 0 -129 51t-49 135v526h11v-310h352v-10zM278 577q-49 0 -75.5 -27t-26.5 -76h-11q0 53 30 83t83 30h40q49 0 75.5 27t26.5 76h11q0 -53 -30 -83
t-83 -30h-40z" />
    <glyph glyph-name="uni0565055E.liga" unicode="&#x565;&#x55e;" horiz-adv-x="519" 
d="M275 690q-49 -12 -78 -54t-29 -104h-11q0 79 43 126t115 47q53 0 82.5 -25.5t29.5 -71.5q0 -36 -19 -57.5t-52 -21.5q-39 0 -60 29t-21 81v51zM449 380h-352v-206q0 -80 45.5 -128t121.5 -48t121.5 52.5t45.5 139.5h11v-190h-11v115q-17 -60 -61 -93.5t-106 -33.5
q-80 0 -129 51t-49 135v526h11v-310h352v-10zM416 608q0 41 -27 64t-74 23q-11 0 -29 -2v-54q0 -47 18 -73.5t51 -26.5q28 0 44.5 18.5t16.5 50.5z" />
    <glyph glyph-name="uni05660575.liga" unicode="&#x566;&#x575;" horiz-adv-x="837" 
d="M438 400v-610h92v-10h-103v347q-20 -63 -70 -101t-116 -38q-85 0 -141 60.5t-56 151.5t56 151.5t141 60.5q66 0 116 -38t70 -101v127h11zM242 -2q79 0 132.5 58t53.5 144q0 87 -53.5 144.5t-133.5 57.5q-79 0 -132.5 -58t-53.5 -144t53.5 -144t133.5 -58zM715 400h11
v-480q0 -140 -131 -140h-5v10h5q120 0 120 130v480z" />
    <glyph glyph-name="uni0567055B.liga" unicode="&#x567;&#x55b;" horiz-adv-x="461" 
d="M422 705l-184 -207l-8 7l184 207zM306 10q114 0 114 -112v-10h-11v10q0 102 -103 102h-210v700h11v-310h295v-10h-295v-370h199z" />
    <glyph glyph-name="uni0567055C.liga" unicode="&#x567;&#x55c;" horiz-adv-x="461" 
d="M306 10q114 0 114 -112v-10h-11v10q0 102 -103 102h-210v700h11v-310h295v-10h-295v-370h199zM288 577q-49 0 -75.5 -27t-26.5 -76h-11q0 53 30 83t83 30h40q49 0 75.5 27t26.5 76h11q0 -53 -30 -83t-83 -30h-40z" />
    <glyph glyph-name="uni0567055E.liga" unicode="&#x567;&#x55e;" horiz-adv-x="461" 
d="M285 690q-49 -12 -78 -54t-29 -104h-11q0 79 43 126t115 47q53 0 82.5 -25.5t29.5 -71.5q0 -36 -19 -57.5t-52 -21.5q-39 0 -60 29t-21 81v51zM306 10q114 0 114 -112v-10h-11v10q0 102 -103 102h-210v700h11v-310h295v-10h-295v-370h199zM426 608q0 41 -27 64t-74 23
q-11 0 -29 -2v-54q0 -47 18 -73.5t51 -26.5q28 0 44.5 18.5t16.5 50.5z" />
    <glyph glyph-name="uni05680575.liga" unicode="&#x568;&#x575;" horiz-adv-x="751" 
d="M275 412q74 0 115 -48t41 -131v-233h-11v229q0 80 -38 126.5t-108 46.5q-77 0 -127 -53.5t-50 -138.5v-420h316v-10h-327v620h11v-119q19 60 66.5 95.5t111.5 35.5zM629 400h11v-450q0 -87 -37.5 -128.5t-116.5 -41.5h-13v10h13q73 0 108 39t35 121v450z" />
    <glyph glyph-name="uni0568055B.liga" unicode="&#x568;&#x55b;" horiz-adv-x="518" 
d="M416 705l-184 -207l-8 7l184 207zM97 -210h347v-10h-358v620h11v-119q19 60 66.5 95.5t111.5 35.5q74 0 115 -48t41 -131v-233h-11v229q0 80 -38 126.5t-108 46.5q-77 0 -127 -53.5t-50 -138.5v-420z" />
    <glyph glyph-name="uni0568055B0575.liga" unicode="&#x568;&#x55b;&#x575;" horiz-adv-x="751" 
d="M416 705l-184 -207l-8 7l184 207zM275 412q74 0 115 -48t41 -131v-233h-11v229q0 80 -38 126.5t-108 46.5q-77 0 -127 -53.5t-50 -138.5v-420h316v-10h-327v620h11v-119q19 60 66.5 95.5t111.5 35.5zM629 400h11v-450q0 -87 -37.5 -128.5t-116.5 -41.5h-13v10h13
q73 0 108 39t35 121v450z" />
    <glyph glyph-name="uni0568055C.liga" unicode="&#x568;&#x55c;" horiz-adv-x="518" 
d="M282 577q-49 0 -75.5 -27t-26.5 -76h-11q0 53 30 83t83 30h40q49 0 75.5 27t26.5 76h11q0 -53 -30 -83t-83 -30h-40zM97 -210h347v-10h-358v620h11v-119q19 60 66.5 95.5t111.5 35.5q74 0 115 -48t41 -131v-233h-11v229q0 80 -38 126.5t-108 46.5q-77 0 -127 -53.5
t-50 -138.5v-420z" />
    <glyph glyph-name="uni0568055C0575.liga" unicode="&#x568;&#x55c;&#x575;" horiz-adv-x="751" 
d="M322 587q49 0 75.5 27t26.5 76h11q0 -53 -30 -83t-83 -30h-40q-49 0 -75.5 -27t-26.5 -76h-11q0 53 30 83t83 30h40zM275 412q74 0 115 -48t41 -131v-233h-11v229q0 80 -38 126.5t-108 46.5q-77 0 -127 -53.5t-50 -138.5v-420h316v-10h-327v620h11v-119q19 60 66.5 95.5
t111.5 35.5zM629 400h11v-450q0 -87 -37.5 -128.5t-116.5 -41.5h-13v10h13q73 0 108 39t35 121v450z" />
    <glyph glyph-name="uni0568055E.liga" unicode="&#x568;&#x55e;" horiz-adv-x="518" 
d="M279 690q-49 -12 -78 -54t-29 -104h-11q0 79 43 126t115 47q53 0 82.5 -25.5t29.5 -71.5q0 -36 -19 -57.5t-52 -21.5q-39 0 -60 29t-21 81v51zM420 608q0 41 -27 64t-74 23q-11 0 -29 -2v-54q0 -47 18 -73.5t51 -26.5q28 0 44.5 18.5t16.5 50.5zM97 -210h347v-10h-358
v620h11v-119q19 60 66.5 95.5t111.5 35.5q74 0 115 -48t41 -131v-233h-11v229q0 80 -38 126.5t-108 46.5q-77 0 -127 -53.5t-50 -138.5v-420z" />
    <glyph glyph-name="uni0568055E0575.liga" unicode="&#x568;&#x55e;&#x575;" horiz-adv-x="751" 
d="M319 705q53 0 82.5 -25.5t29.5 -71.5q0 -36 -19 -57.5t-52 -21.5q-39 0 -60 29t-21 81v51q-49 -12 -78 -54t-29 -104h-11q0 79 43 126t115 47zM359 539q28 0 44.5 18.5t16.5 50.5q0 41 -27 64t-74 23q-11 0 -29 -2v-54q0 -47 18 -73.5t51 -26.5zM275 412q74 0 115 -48
t41 -131v-233h-11v229q0 80 -38 126.5t-108 46.5q-77 0 -127 -53.5t-50 -138.5v-420h316v-10h-327v620h11v-119q19 60 66.5 95.5t111.5 35.5zM629 400h11v-450q0 -87 -37.5 -128.5t-116.5 -41.5h-13v10h13q73 0 108 39t35 121v450z" />
    <glyph glyph-name="uni056B055B.liga" unicode="&#x56b;&#x55b;" horiz-adv-x="528" 
d="M417 705l-184 -207l-8 7l184 207zM290 412q151 0 151 -189v-223h-11v219q0 183 -141 183q-81 0 -131.5 -54t-50.5 -138v-430h-11v920h11v-420q19 61 67.5 96.5t115.5 35.5z" />
    <glyph glyph-name="uni056B055C.liga" unicode="&#x56b;&#x55c;" horiz-adv-x="528" 
d="M290 412q151 0 151 -189v-223h-11v219q0 183 -141 183q-81 0 -131.5 -54t-50.5 -138v-430h-11v920h11v-420q19 61 67.5 96.5t115.5 35.5zM283 577q-49 0 -75.5 -27t-26.5 -76h-11q0 53 30 83t83 30h40q49 0 75.5 27t26.5 76h11q0 -53 -30 -83t-83 -30h-40z" />
    <glyph glyph-name="uni056B055E.liga" unicode="&#x56b;&#x55e;" horiz-adv-x="528" 
d="M280 690q-49 -12 -78 -54t-29 -104h-11q0 79 43 126t115 47q53 0 82.5 -25.5t29.5 -71.5q0 -36 -19 -57.5t-52 -21.5q-39 0 -60 29t-21 81v51zM290 412q151 0 151 -189v-223h-11v219q0 183 -141 183q-81 0 -131.5 -54t-50.5 -138v-430h-11v920h11v-420q19 61 67.5 96.5
t115.5 35.5zM421 608q0 41 -27 64t-74 23q-11 0 -29 -2v-54q0 -47 18 -73.5t51 -26.5q28 0 44.5 18.5t16.5 50.5z" />
    <glyph glyph-name="uni056C0575.liga" unicode="&#x56c;&#x575;" horiz-adv-x="525" 
d="M115 -220v620h11v-610h92v-10h-103zM278 -220v10h5q120 0 120 130v480h11v-480q0 -140 -131 -140h-5z" />
    <glyph glyph-name="uni05720575.liga" unicode="&#x572;&#x575;" horiz-adv-x="831" 
d="M432 233v-443h102v-10h-113v449q0 80 -38 126.5t-108 46.5q-77 0 -127 -53.5t-50 -138.5v-210h-11v400h11v-119q19 60 66.5 95.5t111.5 35.5q74 0 115 -48t41 -131zM709 400h11v-490q0 -130 -121 -130h-5v10h5q110 0 110 120v490z" />
    <glyph glyph-name="uni05740565055B.liga" unicode="&#x574;&#x565;&#x55b;" horiz-adv-x="1075" 
d="M980 705l-184 -207l-8 7l184 207zM998 380h-335v-206q0 -80 44.5 -128t117.5 -48t117.5 52.5t44.5 139.5h11v-190h-11v114q-17 -59 -59.5 -92.5t-102.5 -33.5q-78 0 -125.5 51t-47.5 135v516h-55q-81 0 -123 -47.5t-42 -138.5v-504h-11v119q-18 -61 -66 -96t-116 -35
q-152 0 -152 189v223h11v-219q0 -183 142 -183q81 0 131 53t50 139v314q0 97 44 146.5t130 49.5h68v-310h335v-10z" />
    <glyph glyph-name="uni05740565055C.liga" unicode="&#x574;&#x565;&#x55c;" horiz-adv-x="1075" 
d="M663 700v-310h335v-10h-335v-206q0 -80 44.5 -128t117.5 -48t117.5 52.5t44.5 139.5h11v-190h-11v114q-17 -59 -59.5 -92.5t-102.5 -33.5q-78 0 -125.5 51t-47.5 135v516h-55q-81 0 -123 -47.5t-42 -138.5v-504h-11v119q-18 -61 -66 -96t-116 -35q-152 0 -152 189v223h11
v-219q0 -183 142 -183q81 0 131 53t50 139v314q0 97 44 146.5t130 49.5h68zM846 577q-49 0 -75.5 -27t-26.5 -76h-11q0 53 30 83t83 30h40q49 0 75.5 27t26.5 76h11q0 -53 -30 -83t-83 -30h-40z" />
    <glyph glyph-name="uni05740565055E.liga" unicode="&#x574;&#x565;&#x55e;" horiz-adv-x="1075" 
d="M843 690q-49 -12 -78 -54t-29 -104h-11q0 79 43 126t115 47q53 0 82.5 -25.5t29.5 -71.5q0 -36 -19 -57.5t-52 -21.5q-39 0 -60 29t-21 81v51zM998 380h-335v-206q0 -80 44.5 -128t117.5 -48t117.5 52.5t44.5 139.5h11v-190h-11v114q-17 -59 -59.5 -92.5t-102.5 -33.5
q-78 0 -125.5 51t-47.5 135v516h-55q-81 0 -123 -47.5t-42 -138.5v-504h-11v119q-18 -61 -66 -96t-116 -35q-152 0 -152 189v223h11v-219q0 -183 142 -183q81 0 131 53t50 139v314q0 97 44 146.5t130 49.5h68v-310h335v-10zM984 608q0 41 -27 64t-74 23q-11 0 -29 -2v-54
q0 -47 18 -73.5t51 -26.5q28 0 44.5 18.5t16.5 50.5z" />
    <glyph glyph-name="uni05740567.liga" unicode="&#x574;&#x567;" horiz-adv-x="1045" 
d="M885 10q114 0 114 -112v-10h-11v10q0 102 -103 102h-230v690h-58q-81 0 -123 -47.5t-42 -138.5v-504h-11v119q-18 -61 -66 -96t-116 -35q-152 0 -152 189v223h11v-219q0 -183 142 -183q81 0 131 53t50 139v314q0 97 44 146.5t130 49.5h71v-310h325v-10h-325v-370h219z
" />
    <glyph glyph-name="uni05740567055B.liga" unicode="&#x574;&#x567;&#x55b;" horiz-adv-x="1045" 
d="M983 705l-184 -207l-8 7l184 207zM885 10q114 0 114 -112v-10h-11v10q0 102 -103 102h-230v690h-58q-81 0 -123 -47.5t-42 -138.5v-504h-11v119q-18 -61 -66 -96t-116 -35q-152 0 -152 189v223h11v-219q0 -183 142 -183q81 0 131 53t50 139v314q0 97 44 146.5t130 49.5
h71v-310h325v-10h-325v-370h219z" />
    <glyph glyph-name="uni05740567055C.liga" unicode="&#x574;&#x567;&#x55c;" horiz-adv-x="1045" 
d="M885 10q114 0 114 -112v-10h-11v10q0 102 -103 102h-230v690h-58q-81 0 -123 -47.5t-42 -138.5v-504h-11v119q-18 -61 -66 -96t-116 -35q-152 0 -152 189v223h11v-219q0 -183 142 -183q81 0 131 53t50 139v314q0 97 44 146.5t130 49.5h71v-310h325v-10h-325v-370h219z
M849 577q-49 0 -75.5 -27t-26.5 -76h-11q0 53 30 83t83 30h40q49 0 75.5 27t26.5 76h11q0 -53 -30 -83t-83 -30h-40z" />
    <glyph glyph-name="uni05740567055E.liga" unicode="&#x574;&#x567;&#x55e;" horiz-adv-x="1045" 
d="M846 690q-49 -12 -78 -54t-29 -104h-11q0 79 43 126t115 47q53 0 82.5 -25.5t29.5 -71.5q0 -36 -19 -57.5t-52 -21.5q-39 0 -60 29t-21 81v51zM885 10q114 0 114 -112v-10h-11v10q0 102 -103 102h-230v690h-58q-81 0 -123 -47.5t-42 -138.5v-504h-11v119q-18 -61 -66 -96
t-116 -35q-152 0 -152 189v223h11v-219q0 -183 142 -183q81 0 131 53t50 139v314q0 97 44 146.5t130 49.5h71v-310h325v-10h-325v-370h219zM987 608q0 41 -27 64t-74 23q-11 0 -29 -2v-54q0 -47 18 -73.5t51 -26.5q28 0 44.5 18.5t16.5 50.5z" />
    <glyph glyph-name="uni0574056B055B.liga" unicode="&#x574;&#x56b;&#x55b;" horiz-adv-x="1087" 
d="M990 705l-184 -207l-8 7l184 207zM849 412q151 0 151 -189v-223h-11v219q0 183 -141 183q-81 0 -131.5 -54t-50.5 -138v-430h-11v910h-58q-81 0 -123 -47.5t-42 -138.5v-504h-11v119q-18 -61 -66 -96t-116 -35q-152 0 -152 189v223h11v-219q0 -183 142 -183q81 0 131 53
t50 139v314q0 97 44 146.5t130 49.5h71v-420q19 61 67.5 96.5t115.5 35.5z" />
    <glyph glyph-name="uni0574056B055C.liga" unicode="&#x574;&#x56b;&#x55c;" horiz-adv-x="1087" 
d="M849 412q151 0 151 -189v-223h-11v219q0 183 -141 183q-81 0 -131.5 -54t-50.5 -138v-430h-11v910h-58q-81 0 -123 -47.5t-42 -138.5v-504h-11v119q-18 -61 -66 -96t-116 -35q-152 0 -152 189v223h11v-219q0 -183 142 -183q81 0 131 53t50 139v314q0 97 44 146.5
t130 49.5h71v-420q19 61 67.5 96.5t115.5 35.5zM856 577q-49 0 -75.5 -27t-26.5 -76h-11q0 53 30 83t83 30h40q49 0 75.5 27t26.5 76h11q0 -53 -30 -83t-83 -30h-40z" />
    <glyph glyph-name="uni0574056B055E.liga" unicode="&#x574;&#x56b;&#x55e;" horiz-adv-x="1087" 
d="M853 690q-49 -12 -78 -54t-29 -104h-11q0 79 43 126t115 47q53 0 82.5 -25.5t29.5 -71.5q0 -36 -19 -57.5t-52 -21.5q-39 0 -60 29t-21 81v51zM849 412q151 0 151 -189v-223h-11v219q0 183 -141 183q-81 0 -131.5 -54t-50.5 -138v-430h-11v910h-58q-81 0 -123 -47.5
t-42 -138.5v-504h-11v119q-18 -61 -66 -96t-116 -35q-152 0 -152 189v223h11v-219q0 -183 142 -183q81 0 131 53t50 139v314q0 97 44 146.5t130 49.5h71v-420q19 61 67.5 96.5t115.5 35.5zM994 608q0 41 -27 64t-74 23q-11 0 -29 -2v-54q0 -47 18 -73.5t51 -26.5
q28 0 44.5 18.5t16.5 50.5z" />
    <glyph glyph-name="uni05770575.liga" unicode="&#x577;&#x575;" horiz-adv-x="718" 
d="M406 238q0 -123 -145 -261l-195 -187h314v-10h-330v8l203 196q77 74 109.5 134t32.5 119q0 75 -44.5 120t-119.5 45q-77 0 -124.5 -46.5t-47.5 -122.5v-30h-11v30q0 81 50.5 130t132.5 49q80 0 127.5 -47t47.5 -127zM596 400h11v-450q0 -87 -37.5 -128.5t-116.5 -41.5
h-13v10h13q73 0 108 39t35 121v450z" />
    <glyph glyph-name="uni0578055B.liga" unicode="&#x578;&#x55b;" horiz-adv-x="519" 
d="M416 705l-184 -207l-8 7l184 207zM276 412q74 0 115 -48t41 -131v-233h-11v229q0 80 -38 126.5t-108 46.5q-77 0 -127 -53.5t-50 -138.5v-210h-11v400h11v-119q19 60 66.5 95.5t111.5 35.5z" />
    <glyph glyph-name="uni0578055C.liga" unicode="&#x578;&#x55c;" horiz-adv-x="519" 
d="M282 577q-49 0 -75.5 -27t-26.5 -76h-11q0 53 30 83t83 30h40q49 0 75.5 27t26.5 76h11q0 -53 -30 -83t-83 -30h-40zM276 412q74 0 115 -48t41 -131v-233h-11v229q0 80 -38 126.5t-108 46.5q-77 0 -127 -53.5t-50 -138.5v-210h-11v400h11v-119q19 60 66.5 95.5
t111.5 35.5z" />
    <glyph glyph-name="uni0578055E.liga" unicode="&#x578;&#x55e;" horiz-adv-x="519" 
d="M279 690q-49 -12 -78 -54t-29 -104h-11q0 79 43 126t115 47q53 0 82.5 -25.5t29.5 -71.5q0 -36 -19 -57.5t-52 -21.5q-39 0 -60 29t-21 81v51zM420 608q0 41 -27 64t-74 23q-11 0 -29 -2v-54q0 -47 18 -73.5t51 -26.5q28 0 44.5 18.5t16.5 50.5zM276 412q74 0 115 -48
t41 -131v-233h-11v229q0 80 -38 126.5t-108 46.5q-77 0 -127 -53.5t-50 -138.5v-210h-11v400h11v-119q19 60 66.5 95.5t111.5 35.5z" />
    <glyph glyph-name="uni05790575.liga" unicode="&#x579;&#x575;" horiz-adv-x="643" 
d="M303 178l-263 -388h265v-10h-275l-4 9l264 389q-113 2 -171 56t-58 156v20h11v-20q0 -99 59 -150t172 -51v-11zM521 400h11v-450q0 -87 -37.5 -128.5t-116.5 -41.5h-13v10h13q73 0 108 39t35 121v450z" />
    <glyph glyph-name="uni057E0575.liga" unicode="&#x57e;&#x575;" horiz-adv-x="841" 
d="M432 700v-910h102v-10h-113v339q-18 -61 -66 -96t-116 -35q-152 0 -152 189v223h11v-219q0 -183 142 -183q81 0 131 53t50 139v510h11zM719 400h11v-480q0 -140 -131 -140h-5v10h5q120 0 120 130v480z" />
    <glyph glyph-name="uni0585055B.liga" unicode="&#x585;&#x55b;" horiz-adv-x="500" 
d="M253 498l-8 7l184 207l8 -7zM250 -12q-90 0 -148 59.5t-58 152.5t58 152.5t148 59.5t148 -59.5t58 -152.5t-58 -152.5t-148 -59.5zM250 -2q85 0 140 57.5t55 145.5q0 89 -55 145t-140 56t-140 -56t-55 -145q0 -88 55 -145.5t140 -57.5z" />
    <glyph glyph-name="uni0585055C.liga" unicode="&#x585;&#x55c;" horiz-adv-x="500" 
d="M190 474q0 53 30 83t83 30h40q49 0 75.5 27t26.5 76h11q0 -53 -30 -83t-83 -30h-40q-49 0 -75.5 -27t-26.5 -76h-11zM250 -12q-90 0 -148 59.5t-58 152.5t58 152.5t148 59.5t148 -59.5t58 -152.5t-58 -152.5t-148 -59.5zM250 -2q85 0 140 57.5t55 145.5q0 89 -55 145
t-140 56t-140 -56t-55 -145q0 -88 55 -145.5t140 -57.5z" />
    <glyph glyph-name="uni0585055E.liga" unicode="&#x585;&#x55e;" horiz-adv-x="500" 
d="M300 690q-49 -12 -78 -54t-29 -104h-11q0 79 43 126t115 47q53 0 82.5 -25.5t29.5 -71.5q0 -36 -19 -57.5t-52 -21.5q-39 0 -60 29t-21 81v51zM441 608q0 41 -27 64t-74 23q-11 0 -29 -2v-54q0 -47 18 -73.5t51 -26.5q28 0 44.5 18.5t16.5 50.5zM250 412q90 0 148 -59.5
t58 -152.5t-58 -152.5t-148 -59.5t-148 59.5t-58 152.5t58 152.5t148 59.5zM250 -2q85 0 140 57.5t55 145.5q0 89 -55 145t-140 56t-140 -56t-55 -145q0 -88 55 -145.5t140 -57.5z" />
    <glyph glyph-name="uniFB13.liga" unicode="&#x574;&#x576;" horiz-adv-x="1043" 
d="M945 400h11v-400h-11v119q-18 -61 -66 -96t-116 -35q-152 0 -152 189v278h-179v-455h-11v119q-18 -61 -66 -96t-116 -35q-152 0 -152 189v223h11v-219q0 -183 142 -183q81 0 131 53t50 139v265h-60q-80 0 -122 40t-42 116v10h11v-10q0 -72 39.5 -109t115.5 -37h58v69
q0 82 36.5 124t107.5 42h59v-10h-57q-66 0 -100.5 -40t-34.5 -116v-69h190v-284q0 -183 142 -183q81 0 131 53t50 139v210z" />
    <glyph glyph-name="uniFB14.liga" unicode="&#x574;&#x565;" horiz-adv-x="1075" 
d="M998 380h-335v-206q0 -80 44.5 -128t117.5 -48t117.5 52.5t44.5 139.5h11v-190h-11v114q-17 -59 -59.5 -92.5t-102.5 -33.5q-78 0 -125.5 51t-47.5 135v516h-55q-81 0 -123 -47.5t-42 -138.5v-504h-11v119q-18 -61 -66 -96t-116 -35q-152 0 -152 189v223h11v-219
q0 -183 142 -183q81 0 131 53t50 139v314q0 97 44 146.5t130 49.5h68v-310h335v-10z" />
    <glyph glyph-name="uniFB15.liga" unicode="&#x574;&#x56b;" horiz-adv-x="1087" 
d="M849 412q151 0 151 -189v-223h-11v219q0 183 -141 183q-81 0 -131.5 -54t-50.5 -138v-430h-11v910h-58q-81 0 -123 -47.5t-42 -138.5v-504h-11v119q-18 -61 -66 -96t-116 -35q-152 0 -152 189v223h11v-219q0 -183 142 -183q81 0 131 53t50 139v314q0 97 44 146.5
t130 49.5h71v-420q19 61 67.5 96.5t115.5 35.5z" />
    <glyph glyph-name="uniFB16.liga" unicode="&#x57e;&#x576;" horiz-adv-x="1037" 
d="M939 400h11v-400h-11v119q-18 -61 -66 -96t-116 -35q-152 0 -152 189v278h-173v-665h167v-10h-178v339q-18 -61 -66 -96t-116 -35q-152 0 -152 189v223h11v-219q0 -183 142 -183q81 0 131 53t50 139v265h-60q-80 0 -122 40t-42 116v10h11v-10q0 -72 39.5 -109t115.5 -37
h58v235h11v-235h184v-284q0 -183 142 -183q81 0 131 53t50 139v210z" />
    <glyph glyph-name="uniFB17.liga" unicode="&#x574;&#x56d;" horiz-adv-x="1315" 
d="M1218 400h11v-220q0 -87 -43.5 -140t-115.5 -53q-71 0 -115.5 53t-44.5 140v200h-244v-600h-11v910h-58q-81 0 -123 -47.5t-42 -138.5v-504h-11v119q-18 -61 -66 -96t-116 -35q-152 0 -152 189v223h11v-219q0 -183 142 -183q81 0 131 53t50 139v314q0 97 44 146.5
t130 49.5h71v-310h255v-210q0 -82 41 -132.5t108 -50.5t107.5 50t40.5 133v220z" />
    <glyph glyph-name="uni066E.init" unicode="&#x66e;" horiz-adv-x="303" 
d="M-1 0v10h52q120 0 120 129v261h11v-261q0 -139 -131 -139h-52z" />
    <glyph glyph-name="uni066E.medi" unicode="&#x66e;" horiz-adv-x="343" 
d="M181 10h163v-10h-345v10h171v390h11v-390z" />
    <glyph glyph-name="uni066E.fina" unicode="&#x66e;" horiz-adv-x="728" 
d="M566 10h163v-10h-361q-131 0 -210.5 82t-79.5 218v100h11v-100q0 -131 76.5 -210.5t202.5 -79.5h187v390h11v-390z" />
    <glyph glyph-name="uni066F.fina" unicode="&#x66f;" horiz-adv-x="840" 
d="M841 10v-10h-84q-39 -101 -124.5 -160.5t-195.5 -59.5q-164 0 -271.5 113.5t-107.5 286.5v120h11v-120q0 -169 104.5 -279.5t263.5 -110.5q105 0 187 57t121 153h-124q-115 0 -175.5 58t-60.5 158q0 89 54.5 142.5t145.5 53.5q95 0 148 -67t53 -187q0 -78 -25 -148h80z
M621 10h128q26 69 26 148q0 115 -50.5 179.5t-139.5 64.5q-85 0 -137 -51t-52 -135q0 -96 57.5 -151t167.5 -55z" />
    <glyph glyph-name="uni06A1.init" unicode="&#x6a1;" horiz-adv-x="520" 
d="M260 412q89 0 147.5 -58t58.5 -147q0 -85 -53 -146t-153 -61h-261v10h195q-66 19 -103 73.5t-37 124.5q0 88 58.5 146t147.5 58zM261 10q87 0 140.5 54.5t53.5 141.5q0 85 -55 140.5t-140 55.5t-140 -55t-55 -139q0 -86 53.5 -142t142.5 -56z" />
    <glyph glyph-name="uni06A1.medi" unicode="&#x6a1;" horiz-adv-x="520" 
d="M326 10h195v-10h-522v10h195q-66 19 -103 73.5t-37 124.5q0 88 58.5 146t147.5 58t147.5 -58t58.5 -146q0 -70 -37 -124.5t-103 -73.5zM65 208q0 -86 53.5 -142t141.5 -56t141.5 56t53.5 142q0 84 -55 139t-140 55t-140 -55t-55 -139z" />
    <glyph glyph-name="uni06A1.fina" unicode="&#x6a1;" horiz-adv-x="870" 
d="M676 10h195v-10h-522q-133 0 -202 76.5t-69 223.5v100h11v-100q0 -142 66 -216t194 -74h195q-66 19 -103 73.5t-37 124.5q0 88 58.5 146t147.5 58t147.5 -58t58.5 -146q0 -70 -37 -124.5t-103 -73.5zM415 208q0 -86 53.5 -142t141.5 -56t141.5 56t53.5 142q0 84 -55 139
t-140 55t-140 -55t-55 -139z" />
    <glyph glyph-name="uni06C2.fina" unicode="&#x6c2;" horiz-adv-x="529" 
d="M270 513q-43 0 -71.5 27.5t-28.5 69.5q0 43 29 71.5t73 28.5q48 0 74 -31l-8 -7q-23 28 -66 28q-40 0 -65.5 -25.5t-25.5 -63.5t25.5 -63t64.5 -25q33 0 71 19l5 -8l-142 -87l-6 8l101 61q-15 -3 -30 -3zM395 10h135v-10h-269q-105 0 -161 53.5t-56 143.5q0 94 58 148.5
t159 54.5h134v-390zM261 10h123v380h-123q-96 0 -151 -52t-55 -141q0 -86 53 -136.5t153 -50.5z" />
    <glyph glyph-name="uni06C3.fina" unicode="&#x6c3;" horiz-adv-x="582" 
d="M217 499q-17 0 -17 17q0 16 17 16t17 -16q0 -17 -17 -17zM347 499q-17 0 -17 17q0 16 17 16t17 -16q0 -17 -17 -17zM571 10h12v-10h-12q-71 0 -113.5 43.5t-42.5 115.5v231h-76q-126 0 -202 -93t-76 -247v-50h-11v50q0 158 79 254t210 96h87v-241q0 -67 40 -108t105 -41z
" />
    <glyph glyph-name="uniFB51" unicode="&#x671;" horiz-adv-x="273" arabic-form="final" 
d="M254 630q0 -39 -29 -59.5t-82 -20.5h-134v10h54q36 141 120 141q33 0 52 -19.5t19 -51.5zM183 691q-74 0 -109 -131h69q48 0 74 18t26 51q0 27 -16.5 44.5t-43.5 17.5zM257 10h17v-10h-17q-131 0 -131 139v361h11v-361q0 -129 120 -129z" />
    <glyph glyph-name="uniFB57" unicode="&#x67e;" horiz-adv-x="728" arabic-form="final" 
d="M566 10h163v-10h-361q-131 0 -210.5 82t-79.5 218v100h11v-100q0 -131 76.5 -210.5t202.5 -79.5h187v390h11v-390zM284 -75q17 0 17 -17q0 -16 -17 -16t-17 16q0 17 17 17zM414 -75q17 0 17 -17q0 -16 -17 -16t-17 16q0 17 17 17zM349 -186q17 0 17 -17q0 -16 -17 -16
t-17 16q0 17 17 17z" />
    <glyph glyph-name="uniFB58" unicode="&#x67e;" horiz-adv-x="303" arabic-form="initial" 
d="M-1 0v10h52q120 0 120 129v261h11v-261q0 -139 -131 -139h-52zM65 -75q17 0 17 -17q0 -16 -17 -16t-17 16q0 17 17 17zM195 -75q17 0 17 -17q0 -16 -17 -16t-17 16q0 17 17 17zM130 -186q17 0 17 -17q0 -16 -17 -16t-17 16q0 17 17 17z" />
    <glyph glyph-name="uniFB59" unicode="&#x67e;" horiz-adv-x="343" arabic-form="medial" 
d="M181 10h163v-10h-345v10h171v390h11v-390zM60 -75q17 0 17 -17q0 -16 -17 -16t-17 16q0 17 17 17zM190 -75q17 0 17 -17q0 -16 -17 -16t-17 16q0 17 17 17zM125 -186q17 0 17 -17q0 -16 -17 -16t-17 16q0 17 17 17z" />
    <glyph glyph-name="uniFB67" unicode="&#x679;" horiz-adv-x="728" arabic-form="final" 
d="M465 570q0 -41 -28 -67t-73 -26h-113v264h11v-192q14 46 46 74t76 28q36 0 58.5 -22t22.5 -59zM262 487h102q40 0 65 23.5t25 59.5q0 33 -19.5 52t-51.5 19q-51 0 -86 -45.5t-35 -108.5zM566 10h163v-10h-361q-131 0 -210.5 82t-79.5 218v100h11v-100q0 -131 76.5 -210.5
t202.5 -79.5h187v390h11v-390z" />
    <glyph glyph-name="uniFB68" unicode="&#x679;" horiz-adv-x="303" arabic-form="initial" 
d="M221 651q36 0 58.5 -22t22.5 -59q0 -41 -28 -67t-73 -26h-113v264h11v-192q14 46 46 74t76 28zM201 487q40 0 65 23.5t25 59.5q0 33 -19.5 52t-51.5 19q-51 0 -86 -45.5t-35 -108.5h102zM171 139v261h11v-261q0 -139 -131 -139h-52v10h52q120 0 120 129z" />
    <glyph glyph-name="uniFB69" unicode="&#x679;" horiz-adv-x="343" arabic-form="medial" 
d="M303 570q0 -41 -28 -67t-73 -26h-113v264h11v-192q14 46 46 74t76 28q36 0 58.5 -22t22.5 -59zM100 487h102q40 0 65 23.5t25 59.5q0 33 -19.5 52t-51.5 19q-51 0 -86 -45.5t-35 -108.5zM181 10h163v-10h-345v10h171v390h11v-390z" />
    <glyph glyph-name="uniFB6B" unicode="&#x6a4;" horiz-adv-x="870" arabic-form="final" 
d="M604 628q-17 0 -17 17q0 16 17 16t17 -16q0 -17 -17 -17zM530 499q-17 0 -17 17q0 16 17 16t17 -16q0 -17 -17 -17zM680 499q-17 0 -17 17q0 16 17 16t17 -16q0 -17 -17 -17zM676 10h195v-10h-522q-133 0 -202 76.5t-69 223.5v100h11v-100q0 -142 66 -216t194 -74h195
q-66 19 -103 73.5t-37 124.5q0 88 58.5 146t147.5 58t147.5 -58t58.5 -146q0 -70 -37 -124.5t-103 -73.5zM415 208q0 -86 53.5 -142t141.5 -56t141.5 56t53.5 142q0 84 -55 139t-140 55t-140 -55t-55 -139z" />
    <glyph glyph-name="uniFB6C" unicode="&#x6a4;" horiz-adv-x="520" arabic-form="initial" 
d="M259 628q-17 0 -17 17q0 16 17 16t17 -16q0 -17 -17 -17zM185 499q-17 0 -17 17q0 16 17 16t17 -16q0 -17 -17 -17zM335 499q-17 0 -17 17q0 16 17 16t17 -16q0 -17 -17 -17zM260 412q89 0 147.5 -58t58.5 -147q0 -85 -53 -146t-153 -61h-261v10h195q-66 19 -103 73.5
t-37 124.5q0 88 58.5 146t147.5 58zM261 10q87 0 140.5 54.5t53.5 141.5q0 85 -55 140.5t-140 55.5t-140 -55t-55 -139q0 -86 53.5 -142t142.5 -56z" />
    <glyph glyph-name="uniFB6D" unicode="&#x6a4;" horiz-adv-x="520" arabic-form="medial" 
d="M259 628q-17 0 -17 17q0 16 17 16t17 -16q0 -17 -17 -17zM185 499q-17 0 -17 17q0 16 17 16t17 -16q0 -17 -17 -17zM335 499q-17 0 -17 17q0 16 17 16t17 -16q0 -17 -17 -17zM326 10h195v-10h-522v10h195q-66 19 -103 73.5t-37 124.5q0 88 58.5 146t147.5 58t147.5 -58
t58.5 -146q0 -70 -37 -124.5t-103 -73.5zM65 208q0 -86 53.5 -142t141.5 -56t141.5 56t53.5 142q0 84 -55 139t-140 55t-140 -55t-55 -139z" />
    <glyph glyph-name="uniFB7B" unicode="&#x686;" horiz-adv-x="643" arabic-form="final" 
d="M621 10h23v-10h-23q-64 0 -99.5 36t-35.5 100v36h-215q-98 0 -157 -52t-59 -137q0 -87 59.5 -140t156.5 -53h213v-10h-213q-103 0 -165 55.5t-62 147.5q0 90 62 144.5t165 54.5h215q0 99 -54.5 153.5t-154.5 54.5h-197v10h197q104 0 162 -58.5t58 -159.5v-46
q0 -60 32.5 -93t91.5 -33zM236 22q0 17 17 17t17 -17q0 -16 -17 -16t-17 16zM366 22q0 17 17 17t17 -17q0 -16 -17 -16t-17 16zM301 -79q0 17 17 17t17 -17q0 -16 -17 -16t-17 16z" />
    <glyph glyph-name="uniFB7C" unicode="&#x686;" horiz-adv-x="615" arabic-form="initial" 
d="M187 400q182 0 270 -95.5t88 -294.5v-10h-546v10h535q0 194 -84.5 287t-262.5 93h-141v10h141zM213 -75q17 0 17 -17q0 -16 -17 -16t-17 16q0 17 17 17zM343 -75q17 0 17 -17q0 -16 -17 -16t-17 16q0 17 17 17zM278 -186q17 0 17 -17q0 -16 -17 -16t-17 16q0 17 17 17z
" />
    <glyph glyph-name="uniFB7D" unicode="&#x686;" horiz-adv-x="615" arabic-form="medial" 
d="M545 10h71v-10h-617v10h535q-1 194 -85.5 287t-261.5 93h-141v10h141q182 0 269.5 -95.5t88.5 -294.5zM213 -75q17 0 17 -17q0 -16 -17 -16t-17 16q0 17 17 17zM343 -75q17 0 17 -17q0 -16 -17 -16t-17 16q0 17 17 17zM278 -186q17 0 17 -17q0 -16 -17 -16t-17 16
q0 17 17 17z" />
    <glyph glyph-name="uniFB89" unicode="&#x688;" horiz-adv-x="431" arabic-form="final" 
d="M323 570q0 -41 -28 -67t-73 -26h-113v264h11v-192q14 46 46 74t76 28q36 0 58.5 -22t22.5 -59zM120 487h102q40 0 65 23.5t25 59.5q0 33 -19.5 52t-51.5 19q-51 0 -86 -45.5t-35 -108.5zM337 10h95v-10h-401v10h295v152q0 109 -54 168.5t-162 59.5h-70v10h70
q113 0 170 -62t57 -176v-152z" />
    <glyph glyph-name="uniFB8B" unicode="&#x698;" horiz-adv-x="319" arabic-form="final" 
d="M157 628q-17 0 -17 17q0 16 17 16t17 -16q0 -17 -17 -17zM83 499q-17 0 -17 17q0 16 17 16t17 -16q0 -17 -17 -17zM233 499q-17 0 -17 17q0 16 17 16t17 -16q0 -17 -17 -17zM320 10v-10h-157q-2 -106 -50.5 -163t-133.5 -57h-13v10h13q82 0 127.5 57t45.5 163v390h11
v-390h157z" />
    <glyph glyph-name="uniFB8D" unicode="&#x691;" horiz-adv-x="319" arabic-form="final" 
d="M285 570q0 -41 -28 -67t-73 -26h-113v264h11v-192q14 46 46 74t76 28q36 0 58.5 -22t22.5 -59zM82 487h102q40 0 65 23.5t25 59.5q0 33 -19.5 52t-51.5 19q-51 0 -86 -45.5t-35 -108.5zM320 10v-10h-157q-2 -106 -50.5 -163t-133.5 -57h-13v10h13q82 0 127.5 57t45.5 163
v390h11v-390h157z" />
    <glyph glyph-name="uniFB8F" unicode="&#x6a9;" horiz-adv-x="721" arabic-form="final" 
d="M637 10h85v-10h-484q-96 0 -148 51t-52 139v20h11v-20q0 -83 49 -131.5t140 -48.5h388v115q0 106 -59 170.5t-157 64.5h-117l-3 10l286 281l8 -7l-279 -274h105q103 0 165 -67t62 -178v-115z" />
    <glyph glyph-name="uniFB90" unicode="&#x6a9;" horiz-adv-x="432" arabic-form="initial" 
d="M181 370q94 0 150.5 -50.5t56.5 -134.5t-58 -134.5t-153 -50.5h-178v10h178q91 0 145.5 48t54.5 127t-53.5 127t-142.5 48h-137l-3 10l286 281l8 -7l-279 -274h125z" />
    <glyph glyph-name="uniFB91" unicode="&#x6a9;" horiz-adv-x="472" arabic-form="medial" 
d="M388 10h85v-10h-474v10h378v115q0 106 -59 170.5t-157 64.5h-117l-3 10l286 281l8 -7l-279 -274h105q103 0 165 -67t62 -178v-115z" />
    <glyph glyph-name="uniFB93" unicode="&#x6af;" horiz-adv-x="721" arabic-form="final" 
d="M637 10h85v-10h-484q-96 0 -148 51t-52 139v20h11v-20q0 -83 49 -131.5t140 -48.5h388v115q0 106 -59 170.5t-157 64.5h-117l-3 10l286 281l8 -7l-279 -274h105q103 0 165 -67t62 -178v-115zM478 640l-211 -211l-4 10l208 208z" />
    <glyph glyph-name="uniFB94" unicode="&#x6af;" horiz-adv-x="432" arabic-form="initial" 
d="M181 370q94 0 150.5 -50.5t56.5 -134.5t-58 -134.5t-153 -50.5h-178v10h178q91 0 145.5 48t54.5 127t-53.5 127t-142.5 48h-137l-3 10l286 281l8 -7l-279 -274h125zM233 640l-211 -211l-4 10l208 208z" />
    <glyph glyph-name="uniFB95" unicode="&#x6af;" horiz-adv-x="472" arabic-form="medial" 
d="M388 10h85v-10h-474v10h378v115q0 106 -59 170.5t-157 64.5h-117l-3 10l286 281l8 -7l-279 -274h105q103 0 165 -67t62 -178v-115zM233 640l-211 -211l-4 10l208 208z" />
    <glyph glyph-name="uniFB9F" unicode="&#x6ba;" horiz-adv-x="732" arabic-form="final" 
d="M733 10v-10h-177q-36 -60 -94.5 -90t-125.5 -30q-52 0 -98.5 18t-85.5 54.5t-61.5 100t-22.5 146.5v201h11v-201q0 -155 75 -232t182 -77q108 0 182.5 77t74.5 232v201h11v-201q0 -111 -42 -189h171z" />
    <glyph glyph-name="uniFBA7" unicode="&#x6c1;" horiz-adv-x="582" arabic-form="final" 
d="M571 10h12v-10h-12q-71 0 -113.5 43.5t-42.5 115.5v231h-76q-126 0 -202 -93t-76 -247v-50h-11v50q0 158 79 254t210 96h87v-241q0 -67 40 -108t105 -41z" />
    <glyph glyph-name="uniFBA8" unicode="&#x6c1;" horiz-adv-x="303" arabic-form="initial" 
d="M-1 0v10h52q120 0 120 129v261h11v-261q0 -139 -131 -139h-52zM114 -223l-10 2l36 163l11 -2z" />
    <glyph glyph-name="uniFBA9" unicode="&#x6c1;" horiz-adv-x="389" arabic-form="medial" 
d="M362 10h28v-10h-28q-92 0 -140 -54.5t-48 -159.5v-6h-11v220h-164v10h164v210h11v-346q35 136 188 136z" />
    <glyph glyph-name="uniFBAB" unicode="&#x6be;" horiz-adv-x="774" arabic-form="final" 
d="M699 10h76v-10h-690v10q0 205 74 303.5t228 98.5q159 0 235.5 -98.5t76.5 -303.5zM382 402q-146 -1 -216 -97t-70 -295h286v392zM393 10h295q0 198 -72 294.5t-223 97.5v-392z" />
    <glyph glyph-name="uniFBAC" unicode="&#x6be;" horiz-adv-x="774" arabic-form="initial" 
d="M387 412q154 0 228 -98.5t74 -303.5v-10h-690v10h76q0 205 76.5 303.5t235.5 98.5zM381 402q-151 -1 -223 -97.5t-72 -294.5h295v392zM392 10h286q0 199 -70 295t-216 97v-392z" />
    <glyph glyph-name="uniFBAD" unicode="&#x6be;" horiz-adv-x="774" arabic-form="medial" 
d="M689 10h86v-10h-776v10h76q0 205 76.5 303.5t235.5 98.5q154 0 228 -98.5t74 -303.5zM381 402q-151 -1 -223 -97.5t-72 -294.5h295v392zM392 10h286q0 199 -70 295t-216 97v-392z" />
    <glyph glyph-name="uniFBAF" unicode="&#x6d2;" horiz-adv-x="568" arabic-form="final" 
d="M172 0q-58 0 -92.5 -29t-34.5 -76t34.5 -76t92.5 -29h327v-10h-327q-62 0 -100 31.5t-38 83.5t38 83.5t100 31.5h397v-10h-397z" />
    <glyph glyph-name="uniFBB1" unicode="&#x6d3;" horiz-adv-x="568" arabic-form="final" 
d="M147 141q-43 0 -71.5 27.5t-28.5 69.5q0 43 29 71.5t73 28.5q48 0 74 -31l-8 -7q-23 28 -66 28q-40 0 -65.5 -25.5t-25.5 -63.5t25.5 -63t64.5 -25q33 0 71 19l5 -8l-142 -87l-6 8l101 61q-15 -3 -30 -3zM172 0q-58 0 -92.5 -29t-34.5 -76t34.5 -76t92.5 -29h327v-10
h-327q-62 0 -100 31.5t-38 83.5t38 83.5t100 31.5h397v-10h-397z" />
    <glyph glyph-name="uniFBFD" unicode="&#x6cc;" horiz-adv-x="685" arabic-form="final" 
d="M686 10v-10h-29q-4 -95 -86 -157.5t-200 -62.5q-138 0 -224.5 87.5t-86.5 222.5v90h11v-90q0 -131 84 -215.5t217 -84.5q113 0 191.5 60t82.5 150q-89 1 -142.5 55.5t-53.5 144.5h11q0 -86 51 -138t136 -52h38z" />
    <glyph glyph-name="uniFBFE" unicode="&#x6cc;" horiz-adv-x="303" arabic-form="initial" 
d="M-1 0v10h52q120 0 120 129v261h11v-261q0 -139 -131 -139h-52zM65 -115q-17 0 -17 17q0 16 17 16t17 -16q0 -17 -17 -17zM195 -115q-17 0 -17 17q0 16 17 16t17 -16q0 -17 -17 -17z" />
    <glyph glyph-name="uniFBFF" unicode="&#x6cc;" horiz-adv-x="343" arabic-form="medial" 
d="M181 10h163v-10h-345v10h171v390h11v-390zM60 -82q17 0 17 -16q0 -17 -17 -17t-17 17q0 16 17 16zM190 -82q17 0 17 -16q0 -17 -17 -17t-17 17q0 16 17 16z" />
    <glyph glyph-name="uniFC32" unicode="&#xfc32;" horiz-adv-x="730" arabic-form="isolated" 
d="M373 639q-17 0 -17 17q0 16 17 16t17 -16q0 -17 -17 -17zM552 251q61 -4 100 -44t39 -98q0 -63 -45.5 -103t-115.5 -40h-300q-94 0 -147 50.5t-53 139.5v20h11v-20q0 -85 50 -132.5t139 -47.5h300q65 0 107.5 37.5t42.5 95.5q0 56 -37.5 93.5t-95.5 38.5
q-25 -48 -73 -75.5t-109 -27.5q-90 0 -148 57t-58 145t58 145t148 57t148 -57t58 -145q0 -48 -19 -89zM365 148q85 0 140 54t55 138q0 85 -54.5 138.5t-140.5 53.5t-140.5 -53.5t-54.5 -138.5q0 -84 55 -138t140 -54zM305 -159q17 0 17 -16q0 -17 -17 -17t-17 17q0 16 17 16
zM435 -159q17 0 17 -16q0 -17 -17 -17t-17 17q0 16 17 16z" />
    <glyph glyph-name="uniFD3C" unicode="&#xfd3c;" horiz-adv-x="273" arabic-form="final" 
d="M16 640l217 82l4 -9l-217 -83zM23 560l217 82l4 -9l-217 -83zM257 0q-131 0 -131 139v361h11v-361q0 -129 120 -129h17v-10h-17z" />
    <glyph glyph-name="uniFD3D" unicode="&#xfd3d;" horiz-adv-x="263" arabic-form="isolated" 
d="M16 640l217 82l4 -9l-217 -83zM23 560l217 82l4 -9l-217 -83zM126 0v500h11v-500h-11z" />
    <glyph glyph-name="uniFE82" unicode="&#x622;" horiz-adv-x="273" arabic-form="final" 
d="M24 510q0 34 7 54.5t25 29.5t32.5 11t45.5 2q28 0 41 2t28 8.5t20.5 22t5.5 41.5h10q0 -30 -7 -47.5t-23 -25t-30 -9.5t-41 -2q-31 0 -45.5 -1.5t-30.5 -9.5t-22 -26.5t-6 -49.5h-10zM257 0q-131 0 -131 139v361h11v-361q0 -129 120 -129h17v-10h-17z" />
    <glyph glyph-name="uniFE84" unicode="&#x623;" horiz-adv-x="273" arabic-form="final" 
d="M209 642l5 -8l-142 -87l-6 8l101 61q-15 -3 -30 -3q-43 0 -71.5 27.5t-28.5 69.5q0 43 29 71.5t73 28.5q48 0 74 -31l-8 -7q-23 28 -66 28q-40 0 -65.5 -25.5t-25.5 -63.5t25.5 -63t64.5 -25q33 0 71 19zM257 10h17v-10h-17q-131 0 -131 139v361h11v-361q0 -129 120 -129
z" />
    <glyph glyph-name="uniFE86" unicode="&#x624;" horiz-adv-x="540" arabic-form="final" 
d="M266 513q-43 0 -71.5 27.5t-28.5 69.5q0 43 29 71.5t73 28.5q48 0 74 -31l-8 -7q-23 28 -66 28q-40 0 -65.5 -25.5t-25.5 -63.5t25.5 -63t64.5 -25q33 0 71 19l5 -8l-142 -87l-6 8l101 61q-15 -3 -30 -3zM541 10v-10h-99q-35 -102 -114 -161t-185 -59h-8v10h8
q101 0 177 56t111 154h-116q-141 0 -201 55.5t-60 154.5q0 90 57 146t149 56q93 0 149.5 -69.5t56.5 -191.5q0 -77 -21 -141h96zM315 10h119q21 63 21 141q0 118 -53.5 184.5t-141.5 66.5q-87 0 -141 -53.5t-54 -138.5q0 -95 56.5 -147.5t193.5 -52.5z" />
    <glyph glyph-name="uniFE88" unicode="&#x625;" horiz-adv-x="273" arabic-form="final" 
d="M257 10h17v-10h-17q-131 0 -131 139v461h11v-461q0 -129 120 -129zM184 -227q33 0 71 19l5 -8l-142 -87l-6 8l101 61q-15 -3 -30 -3q-43 0 -71.5 27.5t-28.5 69.5q0 43 29 71.5t73 28.5q48 0 74 -31l-8 -7q-23 28 -66 28q-40 0 -65.5 -25.5t-25.5 -63.5t25.5 -63
t64.5 -25z" />
    <glyph glyph-name="uniFE8A" unicode="&#x626;" horiz-adv-x="685" arabic-form="final" 
d="M148 322l5 -8l-142 -87l-6 8l101 61q-15 -3 -30 -3q-43 0 -71.5 27.5t-28.5 69.5q0 43 29 71.5t73 28.5q48 0 74 -31l-8 -7q-23 28 -66 28q-40 0 -65.5 -25.5t-25.5 -63.5t25.5 -63t64.5 -25q33 0 71 19zM686 10v-10h-29q-4 -95 -86 -157.5t-200 -62.5
q-138 0 -224.5 87.5t-86.5 222.5v90h11v-90q0 -131 84 -215.5t217 -84.5q113 0 191.5 60t82.5 150q-89 1 -142.5 55.5t-53.5 144.5h11q0 -86 51 -138t136 -52h38z" />
    <glyph glyph-name="uniFE8B" unicode="&#x626;" horiz-adv-x="303" arabic-form="initial" 
d="M180 513q-43 0 -71.5 27.5t-28.5 69.5q0 43 29 71.5t73 28.5q48 0 74 -31l-8 -7q-23 28 -66 28q-40 0 -65.5 -25.5t-25.5 -63.5t25.5 -63t64.5 -25q33 0 71 19l5 -8l-142 -87l-6 8l101 61q-15 -3 -30 -3zM171 139v261h11v-261q0 -139 -131 -139h-52v10h52q120 0 120 129z
" />
    <glyph glyph-name="uniFE8C" unicode="&#x626;" horiz-adv-x="343" arabic-form="medial" 
d="M181 513q-43 0 -71.5 27.5t-28.5 69.5q0 43 29 71.5t73 28.5q48 0 74 -31l-8 -7q-23 28 -66 28q-40 0 -65.5 -25.5t-25.5 -63.5t25.5 -63t64.5 -25q33 0 71 19l5 -8l-142 -87l-6 8l101 61q-15 -3 -30 -3zM181 10h163v-10h-345v10h171v390h11v-390z" />
    <glyph glyph-name="uniFE8E" unicode="&#x627;" horiz-adv-x="273" arabic-form="final" 
d="M257 0q-131 0 -131 139v461h11v-461q0 -129 120 -129h17v-10h-17z" />
    <glyph glyph-name="uniFE90" unicode="&#x628;" horiz-adv-x="728" arabic-form="final" 
d="M566 10h163v-10h-361q-131 0 -210.5 82t-79.5 218v100h11v-100q0 -131 76.5 -210.5t202.5 -79.5h187v390h11v-390zM350 -92q17 0 17 -16q0 -17 -17 -17t-17 17q0 16 17 16z" />
    <glyph glyph-name="uniFE91" unicode="&#x628;" horiz-adv-x="303" arabic-form="initial" 
d="M-1 0v10h52q120 0 120 129v261h11v-261q0 -139 -131 -139h-52zM131 -125q-17 0 -17 17q0 16 17 16t17 -16q0 -17 -17 -17z" />
    <glyph glyph-name="uniFE92" unicode="&#x628;" horiz-adv-x="343" arabic-form="medial" 
d="M181 10h163v-10h-345v10h171v390h11v-390zM126 -92q17 0 17 -16q0 -17 -17 -17t-17 17q0 16 17 16z" />
    <glyph glyph-name="uniFE94" unicode="&#x629;" horiz-adv-x="529" arabic-form="final" 
d="M201 499q-17 0 -17 17q0 16 17 16t17 -16q0 -17 -17 -17zM331 499q-17 0 -17 17q0 16 17 16t17 -16q0 -17 -17 -17zM395 10h135v-10h-269q-105 0 -161 53.5t-56 143.5q0 94 58 148.5t159 54.5h134v-390zM261 10h123v380h-123q-96 0 -151 -52t-55 -141q0 -86 53 -136.5
t153 -50.5z" />
    <glyph glyph-name="uniFE96" unicode="&#x62a;" horiz-adv-x="728" arabic-form="final" 
d="M274 499q-17 0 -17 17q0 16 17 16t17 -16q0 -17 -17 -17zM404 499q-17 0 -17 17q0 16 17 16t17 -16q0 -17 -17 -17zM566 10h163v-10h-361q-131 0 -210.5 82t-79.5 218v100h11v-100q0 -131 76.5 -210.5t202.5 -79.5h187v390h11v-390z" />
    <glyph glyph-name="uniFE97" unicode="&#x62a;" horiz-adv-x="303" arabic-form="initial" 
d="M111 499q-17 0 -17 17q0 16 17 16t17 -16q0 -17 -17 -17zM241 499q-17 0 -17 17q0 16 17 16t17 -16q0 -17 -17 -17zM-1 0v10h52q120 0 120 129v261h11v-261q0 -139 -131 -139h-52z" />
    <glyph glyph-name="uniFE98" unicode="&#x62a;" horiz-adv-x="343" arabic-form="medial" 
d="M112 499q-17 0 -17 17q0 16 17 16t17 -16q0 -17 -17 -17zM242 499q-17 0 -17 17q0 16 17 16t17 -16q0 -17 -17 -17zM181 10h163v-10h-345v10h171v390h11v-390z" />
    <glyph glyph-name="uniFE9A" unicode="&#x62b;" horiz-adv-x="728" arabic-form="final" 
d="M337 628q-17 0 -17 17q0 16 17 16t17 -16q0 -17 -17 -17zM263 499q-17 0 -17 17q0 16 17 16t17 -16q0 -17 -17 -17zM413 499q-17 0 -17 17q0 16 17 16t17 -16q0 -17 -17 -17zM566 10h163v-10h-361q-131 0 -210.5 82t-79.5 218v100h11v-100q0 -131 76.5 -210.5
t202.5 -79.5h187v390h11v-390z" />
    <glyph glyph-name="uniFE9B" unicode="&#x62b;" horiz-adv-x="303" arabic-form="initial" 
d="M174 628q-17 0 -17 17q0 16 17 16t17 -16q0 -17 -17 -17zM100 499q-17 0 -17 17q0 16 17 16t17 -16q0 -17 -17 -17zM250 499q-17 0 -17 17q0 16 17 16t17 -16q0 -17 -17 -17zM-1 0v10h52q120 0 120 129v261h11v-261q0 -139 -131 -139h-52z" />
    <glyph glyph-name="uniFE9C" unicode="&#x62b;" horiz-adv-x="343" arabic-form="medial" 
d="M175 628q-17 0 -17 17q0 16 17 16t17 -16q0 -17 -17 -17zM101 499q-17 0 -17 17q0 16 17 16t17 -16q0 -17 -17 -17zM251 499q-17 0 -17 17q0 16 17 16t17 -16q0 -17 -17 -17zM181 10h163v-10h-345v10h171v390h11v-390z" />
    <glyph glyph-name="uniFE9E" unicode="&#x62c;" horiz-adv-x="643" arabic-form="final" 
d="M621 10h23v-10h-23q-64 0 -99.5 36t-35.5 100v36h-215q-98 0 -157 -52t-59 -137q0 -87 59.5 -140t156.5 -53h213v-10h-213q-103 0 -165 55.5t-62 147.5q0 90 62 144.5t165 54.5h215q0 99 -54.5 153.5t-154.5 54.5h-197v10h197q104 0 162 -58.5t58 -159.5v-46
q0 -60 32.5 -93t91.5 -33zM300 -17q0 16 17 16t17 -16q0 -17 -17 -17t-17 17z" />
    <glyph glyph-name="uniFE9F" unicode="&#x62c;" horiz-adv-x="615" arabic-form="initial" 
d="M187 400q182 0 270 -95.5t88 -294.5v-10h-546v10h535q0 194 -84.5 287t-262.5 93h-141v10h141zM279 -92q17 0 17 -16q0 -17 -17 -17t-17 17q0 16 17 16z" />
    <glyph glyph-name="uniFEA0" unicode="&#x62c;" horiz-adv-x="615" arabic-form="medial" 
d="M545 10h71v-10h-617v10h535q-1 194 -85.5 287t-261.5 93h-141v10h141q182 0 269.5 -95.5t88.5 -294.5zM279 -92q17 0 17 -16q0 -17 -17 -17t-17 17q0 16 17 16z" />
    <glyph glyph-name="uniFEA2" unicode="&#x62d;" horiz-adv-x="643" arabic-form="final" 
d="M621 10h23v-10h-23q-64 0 -99.5 36t-35.5 100v36h-215q-98 0 -157 -52t-59 -137q0 -87 59.5 -140t156.5 -53h213v-10h-213q-103 0 -165 55.5t-62 147.5q0 90 62 144.5t165 54.5h215q0 99 -54.5 153.5t-154.5 54.5h-197v10h197q104 0 162 -58.5t58 -159.5v-46
q0 -60 32.5 -93t91.5 -33z" />
    <glyph glyph-name="uniFEA3" unicode="&#x62d;" horiz-adv-x="615" arabic-form="initial" 
d="M187 400q182 0 270 -95.5t88 -294.5v-10h-546v10h535q0 194 -84.5 287t-262.5 93h-141v10h141z" />
    <glyph glyph-name="uniFEA4" unicode="&#x62d;" horiz-adv-x="615" arabic-form="medial" 
d="M545 10h71v-10h-617v10h535q-1 194 -85.5 287t-261.5 93h-141v10h141q182 0 269.5 -95.5t88.5 -294.5z" />
    <glyph glyph-name="uniFEA6" unicode="&#x62e;" horiz-adv-x="643" arabic-form="final" 
d="M278 519q-17 0 -17 17q0 16 17 16t17 -16q0 -17 -17 -17zM621 10h23v-10h-23q-64 0 -99.5 36t-35.5 100v36h-215q-98 0 -157 -52t-59 -137q0 -87 59.5 -140t156.5 -53h213v-10h-213q-103 0 -165 55.5t-62 147.5q0 90 62 144.5t165 54.5h215q0 99 -54.5 153.5t-154.5 54.5
h-197v10h197q104 0 162 -58.5t58 -159.5v-46q0 -60 32.5 -93t91.5 -33z" />
    <glyph glyph-name="uniFEA7" unicode="&#x62e;" horiz-adv-x="615" arabic-form="initial" 
d="M279 499q-17 0 -17 17q0 16 17 16t17 -16q0 -17 -17 -17zM187 400q182 0 270 -95.5t88 -294.5v-10h-546v10h535q0 194 -84.5 287t-262.5 93h-141v10h141z" />
    <glyph glyph-name="uniFEA8" unicode="&#x62e;" horiz-adv-x="615" arabic-form="medial" 
d="M279 499q-17 0 -17 17q0 16 17 16t17 -16q0 -17 -17 -17zM545 10h71v-10h-617v10h535q-1 194 -85.5 287t-261.5 93h-141v10h141q182 0 269.5 -95.5t88.5 -294.5z" />
    <glyph glyph-name="uniFEAA" unicode="&#x62f;" horiz-adv-x="431" arabic-form="final" 
d="M337 10h95v-10h-401v10h295v152q0 109 -54 168.5t-162 59.5h-70v10h70q113 0 170 -62t57 -176v-152z" />
    <glyph glyph-name="uniFEAC" unicode="&#x630;" horiz-adv-x="431" arabic-form="final" 
d="M197 499q-17 0 -17 17q0 16 17 16t17 -16q0 -17 -17 -17zM337 10h95v-10h-401v10h295v152q0 109 -54 168.5t-162 59.5h-70v10h70q113 0 170 -62t57 -176v-152z" />
    <glyph glyph-name="uniFEAE" unicode="&#x631;" horiz-adv-x="319" arabic-form="final" 
d="M320 10v-10h-157q-2 -106 -50.5 -163t-133.5 -57h-13v10h13q82 0 127.5 57t45.5 163v390h11v-390h157z" />
    <glyph glyph-name="uniFEB0" unicode="&#x632;" horiz-adv-x="319" arabic-form="final" 
d="M159 499q-17 0 -17 17q0 16 17 16t17 -16q0 -17 -17 -17zM320 10v-10h-157q-2 -106 -50.5 -163t-133.5 -57h-13v10h13q82 0 127.5 57t45.5 163v390h11v-390h157z" />
    <glyph glyph-name="uniFEB2" unicode="&#x633;" horiz-adv-x="1237" arabic-form="final" 
d="M1075 10h163v-10h-697q-11 -101 -74.5 -160.5t-159.5 -59.5q-113 0 -181 74t-68 196v50h11v-50q0 -118 65.5 -189t172.5 -71q102 0 164 69.5t62 184.5v256h11v-256q0 -6 -0.5 -17.5t-0.5 -16.5h256v340h11v-340h254v390h11v-390z" />
    <glyph glyph-name="uniFEB3" unicode="&#x633;" horiz-adv-x="813" arabic-form="initial" 
d="M701 400h11v-261q0 -139 -131 -139h-582v10h171v290h11v-290h255v340h11v-340h134q120 0 120 129v261z" />
    <glyph glyph-name="uniFEB4" unicode="&#x633;" horiz-adv-x="874" arabic-form="medial" 
d="M712 10h163v-10h-876v10h171v290h11v-290h255v340h11v-340h254v390h11v-390z" />
    <glyph glyph-name="uniFEB6" unicode="&#x634;" horiz-adv-x="1237" arabic-form="final" 
d="M803 578q-17 0 -17 17q0 16 17 16t17 -16q0 -17 -17 -17zM729 449q-17 0 -17 17q0 16 17 16t17 -16q0 -17 -17 -17zM879 449q-17 0 -17 17q0 16 17 16t17 -16q0 -17 -17 -17zM1075 10h163v-10h-697q-11 -101 -74.5 -160.5t-159.5 -59.5q-113 0 -181 74t-68 196v50h11v-50
q0 -118 65.5 -189t172.5 -71q102 0 164 69.5t62 184.5v256h11v-256q0 -6 -0.5 -17.5t-0.5 -16.5h256v340h11v-340h254v390h11v-390z" />
    <glyph glyph-name="uniFEB7" unicode="&#x634;" horiz-adv-x="813" arabic-form="initial" 
d="M440 578q-17 0 -17 17q0 16 17 16t17 -16q0 -17 -17 -17zM366 449q-17 0 -17 17q0 16 17 16t17 -16q0 -17 -17 -17zM516 449q-17 0 -17 17q0 16 17 16t17 -16q0 -17 -17 -17zM701 400h11v-261q0 -139 -131 -139h-582v10h171v290h11v-290h255v340h11v-340h134
q120 0 120 129v261z" />
    <glyph glyph-name="uniFEB8" unicode="&#x634;" horiz-adv-x="874" arabic-form="medial" 
d="M440 578q-17 0 -17 17q0 16 17 16t17 -16q0 -17 -17 -17zM366 449q-17 0 -17 17q0 16 17 16t17 -16q0 -17 -17 -17zM516 449q-17 0 -17 17q0 16 17 16t17 -16q0 -17 -17 -17zM712 10h163v-10h-876v10h171v290h11v-290h255v340h11v-340h254v390h11v-390z" />
    <glyph glyph-name="uniFEBA" unicode="&#x635;" horiz-adv-x="1142" arabic-form="final" 
d="M931 10h212v-10h-599q0 -100 -64.5 -160t-171.5 -60q-113 0 -181.5 68.5t-68.5 181.5v70h11v-70q0 -109 65.5 -174.5t173.5 -65.5q101 0 163 57.5t62 152.5v400h11v-311q27 137 124 230t219 93q95 0 148 -54t53 -146q0 -78 -39.5 -130.5t-117.5 -71.5zM544 10h295
q119 0 178.5 54t59.5 147q0 88 -51 139.5t-140 51.5q-88 0 -166 -54t-126 -145t-50 -193z" />
    <glyph glyph-name="uniFEBB" unicode="&#x635;" horiz-adv-x="755" arabic-form="initial" 
d="M500 412q95 0 148 -54t53 -146q0 -99 -62.5 -155.5t-186.5 -56.5h-453v10h147v390h11v-311q27 137 124 230t219 93zM452 10q119 0 178.5 54t59.5 147q0 88 -51 139.5t-140 51.5q-88 0 -166 -54t-126 -145t-50 -193h295z" />
    <glyph glyph-name="uniFEBC" unicode="&#x635;" horiz-adv-x="755" arabic-form="medial" 
d="M544 10h212v-10h-757v10h147v390h11v-311q27 137 124 230t219 93q95 0 148 -54t53 -146q0 -78 -39.5 -130.5t-117.5 -71.5zM157 10h295q119 0 178.5 54t59.5 147q0 88 -51 139.5t-140 51.5q-88 0 -166 -54t-126 -145t-50 -193z" />
    <glyph glyph-name="uniFEBE" unicode="&#x636;" horiz-adv-x="1142" arabic-form="final" 
d="M689 499q-17 0 -17 17q0 16 17 16t17 -16q0 -17 -17 -17zM931 10h212v-10h-599q0 -100 -64.5 -160t-171.5 -60q-113 0 -181.5 68.5t-68.5 181.5v70h11v-70q0 -109 65.5 -174.5t173.5 -65.5q101 0 163 57.5t62 152.5v400h11v-311q27 137 124 230t219 93q95 0 148 -54
t53 -146q0 -78 -39.5 -130.5t-117.5 -71.5zM544 10h295q119 0 178.5 54t59.5 147q0 88 -51 139.5t-140 51.5q-88 0 -166 -54t-126 -145t-50 -193z" />
    <glyph glyph-name="uniFEBF" unicode="&#x636;" horiz-adv-x="755" arabic-form="initial" 
d="M311 499q-17 0 -17 17q0 16 17 16t17 -16q0 -17 -17 -17zM500 412q95 0 148 -54t53 -146q0 -99 -62.5 -155.5t-186.5 -56.5h-453v10h147v390h11v-311q27 137 124 230t219 93zM452 10q119 0 178.5 54t59.5 147q0 88 -51 139.5t-140 51.5q-88 0 -166 -54t-126 -145
t-50 -193h295z" />
    <glyph glyph-name="uniFEC0" unicode="&#x636;" horiz-adv-x="755" arabic-form="medial" 
d="M311 499q-17 0 -17 17q0 16 17 16t17 -16q0 -17 -17 -17zM544 10h212v-10h-757v10h147v390h11v-311q27 137 124 230t219 93q95 0 148 -54t53 -146q0 -78 -39.5 -130.5t-117.5 -71.5zM157 10h295q119 0 178.5 54t59.5 147q0 88 -51 139.5t-140 51.5q-88 0 -166 -54
t-126 -145t-50 -193z" />
    <glyph glyph-name="uniFEC2" unicode="&#x637;" horiz-adv-x="755" arabic-form="final" 
d="M544 10h212v-10h-757v10h147v590h11v-511q27 137 124 230t219 93q95 0 148 -54t53 -146q0 -78 -39.5 -130.5t-117.5 -71.5zM157 10h295q119 0 178.5 54t59.5 147q0 88 -51 139.5t-140 51.5q-88 0 -166 -54t-126 -145t-50 -193z" />
    <glyph glyph-name="uniFEC3" unicode="&#x637;" horiz-adv-x="755" arabic-form="initial" 
d="M500 412q95 0 148 -54t53 -146q0 -99 -62.5 -155.5t-186.5 -56.5h-453v10h147v590h11v-511q27 137 124 230t219 93zM452 10q119 0 178.5 54t59.5 147q0 88 -51 139.5t-140 51.5q-88 0 -166 -54t-126 -145t-50 -193h295z" />
    <glyph glyph-name="uniFEC4" unicode="&#x637;" horiz-adv-x="755" arabic-form="medial" 
d="M544 10h212v-10h-757v10h147v590h11v-511q27 137 124 230t219 93q95 0 148 -54t53 -146q0 -78 -39.5 -130.5t-117.5 -71.5zM157 10h295q119 0 178.5 54t59.5 147q0 88 -51 139.5t-140 51.5q-88 0 -166 -54t-126 -145t-50 -193z" />
    <glyph glyph-name="uniFEC6" unicode="&#x638;" horiz-adv-x="755" arabic-form="final" 
d="M544 10h212v-10h-757v10h147v590h11v-511q27 137 124 230t219 93q95 0 148 -54t53 -146q0 -78 -39.5 -130.5t-117.5 -71.5zM311 499q-17 0 -17 17q0 16 17 16t17 -16q0 -17 -17 -17zM157 10h295q119 0 178.5 54t59.5 147q0 88 -51 139.5t-140 51.5q-88 0 -166 -54
t-126 -145t-50 -193z" />
    <glyph glyph-name="uniFEC7" unicode="&#x638;" horiz-adv-x="755" arabic-form="initial" 
d="M500 412q95 0 148 -54t53 -146q0 -99 -62.5 -155.5t-186.5 -56.5h-453v10h147v590h11v-511q27 137 124 230t219 93zM311 499q-17 0 -17 17q0 16 17 16t17 -16q0 -17 -17 -17zM452 10q119 0 178.5 54t59.5 147q0 88 -51 139.5t-140 51.5q-88 0 -166 -54t-126 -145
t-50 -193h295z" />
    <glyph glyph-name="uniFEC8" unicode="&#x638;" horiz-adv-x="755" arabic-form="medial" 
d="M544 10h212v-10h-757v10h147v590h11v-511q27 137 124 230t219 93q95 0 148 -54t53 -146q0 -78 -39.5 -130.5t-117.5 -71.5zM311 499q-17 0 -17 17q0 16 17 16t17 -16q0 -17 -17 -17zM157 10h295q119 0 178.5 54t59.5 147q0 88 -51 139.5t-140 51.5q-88 0 -166 -54
t-126 -145t-50 -193z" />
    <glyph glyph-name="uniFECA" unicode="&#x639;" horiz-adv-x="510" arabic-form="final" 
d="M424 10h87v-10h-87q-99 0 -180 42q-16 -10 -49 -29.5t-46.5 -29t-32.5 -25.5t-26 -32.5t-7 -37.5q0 -47 39.5 -72.5t110.5 -25.5h170v-10h-170q-80 0 -120 29.5t-40 78.5q0 19 7 36t16 28.5t27.5 25.5t31.5 22t39 23t40 24q-87 50 -135 142.5t-48 210.5h396
q0 -90 -27 -159.5t-61.5 -106.5t-85.5 -73l-19 -13q78 -38 170 -38zM62 390q2 -113 49.5 -201.5t132.5 -134.5q12 7 22 14q76 52 122 127.5t48 194.5h-374z" />
    <glyph glyph-name="uniFECB" unicode="&#x639;" horiz-adv-x="467" arabic-form="initial" 
d="M274 412q98 0 164 -78l-7 -7q-66 75 -159 75q-85 0 -141 -55.5t-56 -139.5q0 -87 59 -142t149 -55h96v-10h-380v10h216q-68 19 -109.5 71.5t-41.5 125.5q0 88 59.5 146.5t150.5 58.5z" />
    <glyph glyph-name="uniFECC" unicode="&#x639;" horiz-adv-x="522" arabic-form="medial" 
d="M436 10h87v-10h-87q-97 0 -175 39q-78 -39 -175 -39h-87v10h87q91 0 164 35q-89 49 -138 142t-49 213h396q0 -120 -49 -213t-138 -142q73 -35 164 -35zM74 390q2 -116 51 -204.5t136 -134.5q87 46 136 134.5t51 204.5h-374z" />
    <glyph glyph-name="uniFECE" unicode="&#x63a;" horiz-adv-x="510" arabic-form="final" 
d="M241 499q-17 0 -17 17q0 16 17 16t17 -16q0 -17 -17 -17zM424 10h87v-10h-87q-99 0 -180 42q-16 -10 -49 -29.5t-46.5 -29t-32.5 -25.5t-26 -32.5t-7 -37.5q0 -47 39.5 -72.5t110.5 -25.5h170v-10h-170q-80 0 -120 29.5t-40 78.5q0 19 7 36t16 28.5t27.5 25.5t31.5 22
t39 23t40 24q-87 50 -135 142.5t-48 210.5h396q0 -90 -27 -159.5t-61.5 -106.5t-85.5 -73l-19 -13q78 -38 170 -38zM62 390q2 -113 49.5 -201.5t132.5 -134.5q12 7 22 14q76 52 122 127.5t48 194.5h-374z" />
    <glyph glyph-name="uniFECF" unicode="&#x63a;" horiz-adv-x="467" arabic-form="initial" 
d="M273 499q-17 0 -17 17q0 16 17 16t17 -16q0 -17 -17 -17zM274 412q98 0 164 -78l-7 -7q-66 75 -159 75q-85 0 -141 -55.5t-56 -139.5q0 -87 59 -142t149 -55h96v-10h-380v10h216q-68 19 -109.5 71.5t-41.5 125.5q0 88 59.5 146.5t150.5 58.5z" />
    <glyph glyph-name="uniFED0" unicode="&#x63a;" horiz-adv-x="522" arabic-form="medial" 
d="M262 499q-17 0 -17 17q0 16 17 16t17 -16q0 -17 -17 -17zM436 10h87v-10h-87q-97 0 -175 39q-78 -39 -175 -39h-87v10h87q91 0 164 35q-89 49 -138 142t-49 213h396q0 -120 -49 -213t-138 -142q73 -35 164 -35zM74 390q2 -116 51 -204.5t136 -134.5q87 46 136 134.5
t51 204.5h-374z" />
    <glyph glyph-name="uniFED2" unicode="&#x641;" horiz-adv-x="870" arabic-form="final" 
d="M606 499q-17 0 -17 17q0 16 17 16t17 -16q0 -17 -17 -17zM676 10h195v-10h-522q-133 0 -202 76.5t-69 223.5v100h11v-100q0 -142 66 -216t194 -74h195q-66 19 -103 73.5t-37 124.5q0 88 58.5 146t147.5 58t147.5 -58t58.5 -146q0 -70 -37 -124.5t-103 -73.5zM415 208
q0 -86 53.5 -142t141.5 -56t141.5 56t53.5 142q0 84 -55 139t-140 55t-140 -55t-55 -139z" />
    <glyph glyph-name="uniFED3" unicode="&#x641;" horiz-adv-x="520" arabic-form="initial" 
d="M261 499q-17 0 -17 17q0 16 17 16t17 -16q0 -17 -17 -17zM260 412q89 0 147.5 -58t58.5 -147q0 -85 -53 -146t-153 -61h-261v10h195q-66 19 -103 73.5t-37 124.5q0 88 58.5 146t147.5 58zM261 10q87 0 140.5 54.5t53.5 141.5q0 85 -55 140.5t-140 55.5t-140 -55t-55 -139
q0 -86 53.5 -142t142.5 -56z" />
    <glyph glyph-name="uniFED4" unicode="&#x641;" horiz-adv-x="520" arabic-form="medial" 
d="M261 499q-17 0 -17 17q0 16 17 16t17 -16q0 -17 -17 -17zM326 10h195v-10h-522v10h195q-66 19 -103 73.5t-37 124.5q0 88 58.5 146t147.5 58t147.5 -58t58.5 -146q0 -70 -37 -124.5t-103 -73.5zM65 208q0 -86 53.5 -142t141.5 -56t141.5 56t53.5 142q0 84 -55 139
t-140 55t-140 -55t-55 -139z" />
    <glyph glyph-name="uniFED6" unicode="&#x642;" horiz-adv-x="840" arabic-form="final" 
d="M511 499q-17 0 -17 17q0 16 17 16t17 -16q0 -17 -17 -17zM641 499q-17 0 -17 17q0 16 17 16t17 -16q0 -17 -17 -17zM841 10v-10h-84q-39 -101 -124.5 -160.5t-195.5 -59.5q-164 0 -271.5 113.5t-107.5 286.5v120h11v-120q0 -169 104.5 -279.5t263.5 -110.5q105 0 187 57
t121 153h-124q-115 0 -175.5 58t-60.5 158q0 89 54.5 142.5t145.5 53.5q95 0 148 -67t53 -187q0 -78 -25 -148h80zM621 10h128q26 69 26 148q0 115 -50.5 179.5t-139.5 64.5q-85 0 -137 -51t-52 -135q0 -96 57.5 -151t167.5 -55z" />
    <glyph glyph-name="uniFED7" unicode="&#x642;" horiz-adv-x="520" arabic-form="initial" 
d="M196 499q-17 0 -17 17q0 16 17 16t17 -16q0 -17 -17 -17zM326 499q-17 0 -17 17q0 16 17 16t17 -16q0 -17 -17 -17zM260 412q89 0 147.5 -58t58.5 -147q0 -85 -53 -146t-153 -61h-261v10h195q-66 19 -103 73.5t-37 124.5q0 88 58.5 146t147.5 58zM261 10q87 0 140.5 54.5
t53.5 141.5q0 85 -55 140.5t-140 55.5t-140 -55t-55 -139q0 -86 53.5 -142t142.5 -56z" />
    <glyph glyph-name="uniFED8" unicode="&#x642;" horiz-adv-x="520" arabic-form="medial" 
d="M196 499q-17 0 -17 17q0 16 17 16t17 -16q0 -17 -17 -17zM326 499q-17 0 -17 17q0 16 17 16t17 -16q0 -17 -17 -17zM326 10h195v-10h-522v10h195q-66 19 -103 73.5t-37 124.5q0 88 58.5 146t147.5 58t147.5 -58t58.5 -146q0 -70 -37 -124.5t-103 -73.5zM65 208
q0 -86 53.5 -142t141.5 -56t141.5 56t53.5 142q0 84 -55 139t-140 55t-140 -55t-55 -139z" />
    <glyph glyph-name="uniFEDA" unicode="&#x643;" horiz-adv-x="718" arabic-form="final" 
d="M566 10h153v-10h-352q-131 0 -210.5 82t-79.5 218v100h11v-100q0 -131 76.5 -210.5t202.5 -79.5h189v590h10v-590zM442 301q0 -39 -29.5 -64.5t-74.5 -25.5h-79v10h79q40 0 66.5 22.5t26.5 57.5q0 37 -27.5 61t-68.5 24h-60l-5 10l132 107l6 -8l-121 -99h48
q46 0 76.5 -27t30.5 -68z" />
    <glyph glyph-name="uniFEDB" unicode="&#x643;" horiz-adv-x="432" arabic-form="initial" 
d="M181 370q94 0 150.5 -50.5t56.5 -134.5t-58 -134.5t-153 -50.5h-178v10h178q91 0 145.5 48t54.5 127t-53.5 127t-142.5 48h-137l-3 10l286 281l8 -7l-279 -274h125z" />
    <glyph glyph-name="uniFEDC" unicode="&#x643;" horiz-adv-x="472" arabic-form="medial" 
d="M388 10h85v-10h-474v10h378v115q0 106 -59 170.5t-157 64.5h-117l-3 10l286 281l8 -7l-279 -274h105q103 0 165 -67t62 -178v-115z" />
    <glyph glyph-name="uniFEDE" unicode="&#x644;" horiz-adv-x="692" arabic-form="final" 
d="M693 10v-10h-133q-16 -101 -80 -160.5t-155 -59.5q-107 0 -177 76.5t-70 193.5v50h11v-50q0 -112 67 -186t169 -74q100 0 164 73.5t64 196.5v540h11v-540q0 -26 -3 -50h132z" />
    <glyph glyph-name="uniFEDF" unicode="&#x644;" horiz-adv-x="243" arabic-form="initial" 
d="M-1 0v10h7q120 0 120 129v461h11v-461q0 -139 -131 -139h-7z" />
    <glyph glyph-name="uniFEE0" unicode="&#x644;" horiz-adv-x="263" arabic-form="medial" 
d="M137 10h127v-10h-265v10h127v590h11v-590z" />
    <glyph glyph-name="uniFEE2" unicode="&#x645;" horiz-adv-x="676" arabic-form="final" 
d="M677 10v-10h-78q-24 -52 -72.5 -82t-111.5 -30q-89 0 -147 58t-59 149q-149 -3 -149 -170v-195h-11v195q0 177 160 180q1 91 59 149t147 58q90 0 148 -59.5t58 -152.5q0 -48 -17 -90h73zM415 -102q85 0 140 57.5t55 145.5q0 89 -55 145t-140 56t-140 -56t-55 -145
q0 -88 55 -145.5t140 -57.5z" />
    <glyph glyph-name="uniFEE3" unicode="&#x645;" horiz-adv-x="520" arabic-form="initial" 
d="M260 312q89 0 147 -59.5t58 -152.5t-58 -152.5t-147 -59.5q-62 0 -110.5 30t-72.5 82h-78v10h73q-17 42 -17 90q0 93 58 152.5t147 59.5zM260 -102q84 0 139 57.5t55 145.5q0 89 -54.5 145t-139.5 56t-139.5 -56t-54.5 -145q0 -88 55 -145.5t139 -57.5z" />
    <glyph glyph-name="uniFEE4" unicode="&#x645;" horiz-adv-x="520" arabic-form="medial" 
d="M521 10v-10h-78q-24 -52 -72.5 -82t-110.5 -30t-110.5 30t-72.5 82h-78v10h73q-17 42 -17 90q0 93 58 152.5t147 59.5t147 -59.5t58 -152.5q0 -48 -17 -90h73zM260 -102q84 0 139 57.5t55 145.5q0 89 -54.5 145t-139.5 56t-139.5 -56t-54.5 -145q0 -88 55 -145.5
t139 -57.5z" />
    <glyph glyph-name="uniFEE6" unicode="&#x646;" horiz-adv-x="732" arabic-form="final" 
d="M341 499q-17 0 -17 17q0 16 17 16t17 -16q0 -17 -17 -17zM733 10v-10h-177q-36 -60 -94.5 -90t-125.5 -30q-52 0 -98.5 18t-85.5 54.5t-61.5 100t-22.5 146.5v201h11v-201q0 -155 75 -232t182 -77q108 0 182.5 77t74.5 232v201h11v-201q0 -111 -42 -189h171z" />
    <glyph glyph-name="uniFEE7" unicode="&#x646;" horiz-adv-x="303" arabic-form="initial" 
d="M176 499q-17 0 -17 17q0 16 17 16t17 -16q0 -17 -17 -17zM-1 0v10h52q120 0 120 129v261h11v-261q0 -139 -131 -139h-52z" />
    <glyph glyph-name="uniFEE8" unicode="&#x646;" horiz-adv-x="343" arabic-form="medial" 
d="M177 499q-17 0 -17 17q0 16 17 16t17 -16q0 -17 -17 -17zM181 10h163v-10h-345v10h171v390h11v-390z" />
    <glyph glyph-name="uniFEEA" unicode="&#x647;" horiz-adv-x="529" arabic-form="final" 
d="M395 10h135v-10h-269q-105 0 -161 53.5t-56 143.5q0 94 58 148.5t159 54.5h134v-390zM261 10h123v380h-123q-96 0 -151 -52t-55 -141q0 -86 53 -136.5t153 -50.5z" />
    <glyph glyph-name="uniFEEB" unicode="&#x647;" horiz-adv-x="774" arabic-form="initial" 
d="M387 412q154 0 228 -98.5t74 -303.5v-10h-690v10h76q0 205 76.5 303.5t235.5 98.5zM381 402q-151 -1 -223 -97.5t-72 -294.5h295v392zM392 10h286q0 199 -70 295t-216 97v-392z" />
    <glyph glyph-name="uniFEEC" unicode="&#x647;" horiz-adv-x="774" arabic-form="medial" 
d="M689 10h86v-10h-776v10h76q0 205 76.5 303.5t235.5 98.5q154 0 228 -98.5t74 -303.5zM381 402q-151 -1 -223 -97.5t-72 -294.5h295v392zM392 10h286q0 199 -70 295t-216 97v-392z" />
    <glyph glyph-name="uniFEEE" unicode="&#x648;" horiz-adv-x="540" arabic-form="final" 
d="M541 10v-10h-99q-35 -102 -114 -161t-185 -59h-8v10h8q101 0 177 56t111 154h-116q-141 0 -201 55.5t-60 154.5q0 90 57 146t149 56q93 0 149.5 -69.5t56.5 -191.5q0 -77 -21 -141h96zM315 10h119q21 63 21 141q0 118 -53.5 184.5t-141.5 66.5q-87 0 -141 -53.5
t-54 -138.5q0 -95 56.5 -147.5t193.5 -52.5z" />
    <glyph glyph-name="uniFEF0" unicode="&#x649;" horiz-adv-x="685" arabic-form="final" 
d="M686 10v-10h-29q-4 -95 -86 -157.5t-200 -62.5q-138 0 -224.5 87.5t-86.5 222.5v90h11v-90q0 -131 84 -215.5t217 -84.5q113 0 191.5 60t82.5 150q-89 1 -142.5 55.5t-53.5 144.5h11q0 -86 51 -138t136 -52h38z" />
    <glyph glyph-name="uniFEF2" unicode="&#x64a;" horiz-adv-x="685" arabic-form="final" 
d="M686 10v-10h-29q-4 -95 -86 -157.5t-200 -62.5q-138 0 -224.5 87.5t-86.5 222.5v90h11v-90q0 -131 84 -215.5t217 -84.5q113 0 191.5 60t82.5 150q-89 1 -142.5 55.5t-53.5 144.5h11q0 -86 51 -138t136 -52h38zM306 -302q17 0 17 -16q0 -17 -17 -17t-17 17q0 16 17 16z
M436 -302q17 0 17 -16q0 -17 -17 -17t-17 17q0 16 17 16z" />
    <glyph glyph-name="uniFEF3" unicode="&#x64a;" horiz-adv-x="303" arabic-form="initial" 
d="M-1 0v10h52q120 0 120 129v261h11v-261q0 -139 -131 -139h-52zM65 -115q-17 0 -17 17q0 16 17 16t17 -16q0 -17 -17 -17zM195 -115q-17 0 -17 17q0 16 17 16t17 -16q0 -17 -17 -17z" />
    <glyph glyph-name="uniFEF4" unicode="&#x64a;" horiz-adv-x="343" arabic-form="medial" 
d="M181 10h163v-10h-345v10h171v390h11v-390zM60 -82q17 0 17 -16q0 -17 -17 -17t-17 17q0 16 17 16zM190 -82q17 0 17 -16q0 -17 -17 -17t-17 17q0 16 17 16z" />
    <glyph glyph-name=".notdef" horiz-adv-x="460" 
d="M377 700v-920h-291v920h291zM306 638h-151v-30h59v-34h-60v-30h152v30h-60v34h60v30zM246 520h-92v-96h152v31h-60v65zM214 488v-33h-30v33h30zM306 399h-152v-30h60v-34h-60v-31h92v65h60v30zM306 344h-30v-61h-122v-31h152v92zM306 232h-92v-52h32v21h30v-43h-92v74
h-30v-104h152v104zM306 73h-152v-104h152v104zM276 42v-43h-92v43h92zM306 -53h-152v-30h64l-64 -43v-31h152v31h-93l64 43h29v30z" />
    <glyph glyph-name=".null" 
 />
    <glyph glyph-name="nonmarkingreturn" horiz-adv-x="333" 
 />
    <glyph glyph-name="space" unicode=" " horiz-adv-x="250" 
 />
    <glyph glyph-name="exclam" unicode="!" horiz-adv-x="256" 
d="M123 270v430h11v-430h-11zM129 -5q-17 0 -17 17q0 16 17 16t17 -16q0 -17 -17 -17z" />
    <glyph glyph-name="quotedbl" unicode="&#x22;" horiz-adv-x="420" 
d="M125 324h-11l1 276h11zM305 324h-11l1 276h11z" />
    <glyph glyph-name="numbersign" unicode="#" horiz-adv-x="660" 
d="M610 361h-136l-40 -230h176v-10h-178l-39 -223l-11 1l39 222h-233l-39 -223l-11 1l39 222h-127v10h129l40 230h-169v10h171l41 233l11 -1l-41 -232h233l41 233l11 -1l-41 -232h134v-10zM423 131l40 230h-233l-40 -230h233z" />
    <glyph glyph-name="dollar" unicode="$" horiz-adv-x="600" 
d="M310 311q43 -10 68 -17t59.5 -21t53 -29t32 -39.5t13.5 -55.5q0 -71 -60 -117t-158 -46h-8v-106h-10v106q-77 4 -141 38.5t-100 92.5l8 6q35 -59 102 -93t148 -34q94 0 151 43t57 109q0 29 -13 52t-31 37.5t-51.5 27.5t-57 19.5t-66.5 16.5q-44 10 -70 17.5t-59.5 21
t-51 28.5t-30.5 38.5t-13 53.5q0 70 59.5 112t148.5 42h12v101h10v-102q71 -4 128.5 -36.5t87.5 -84.5l-8 -6q-32 53 -93 85.5t-137 32.5q-85 0 -141 -39.5t-56 -104.5q0 -28 12.5 -50.5t29.5 -36t50.5 -26.5t57 -19.5t67.5 -16.5z" />
    <glyph glyph-name="percent" unicode="%" horiz-adv-x="736" 
d="M188 332q-62 0 -102.5 39.5t-40.5 100.5t40.5 100.5t102.5 39.5t102.5 -39.5t40.5 -100.5t-40.5 -100.5t-102.5 -39.5zM114 -8l-9 6l524 608l8 -7zM188 342q57 0 94.5 36.5t37.5 93.5t-37.5 93.5t-94.5 36.5t-94.5 -36.5t-37.5 -93.5t37.5 -93.5t94.5 -36.5zM548 -12
q-62 0 -102.5 39.5t-40.5 100.5t40.5 100.5t102.5 39.5t102.5 -39.5t40.5 -100.5t-40.5 -100.5t-102.5 -39.5zM548 -2q57 0 94.5 36.5t37.5 93.5t-37.5 93.5t-94.5 36.5t-94.5 -36.5t-37.5 -93.5t37.5 -93.5t94.5 -36.5z" />
    <glyph glyph-name="ampersand" unicode="&#x26;" horiz-adv-x="576" 
d="M527 -1l-7 -8l-115 95q-77 -100 -187 -100q-72 0 -117 44.5t-45 109.5q0 99 118 178q-51 74 -51 137q0 68 48 113.5t123 45.5q82 0 133 -51l-8 -7q-48 48 -125 48q-70 0 -115 -42.5t-45 -105.5q0 -68 62.5 -150.5t207.5 -205.5q70 99 70 237h10q0 -141 -73 -243zM219 -4
q104 0 178 96q-157 134 -217 218q-113 -75 -113 -169q0 -61 42 -103t110 -42z" />
    <glyph glyph-name="quotesingle" unicode="'" horiz-adv-x="236" 
d="M125 324h-11l1 276h11z" />
    <glyph glyph-name="parenleft" unicode="(" horiz-adv-x="344" 
d="M280 -223q-98 76 -152.5 199t-54.5 267t55 267.5t152 199.5l7 -8q-96 -74 -149.5 -196t-53.5 -263t53.5 -262.5t149.5 -195.5z" />
    <glyph glyph-name="parenright" unicode=")" horiz-adv-x="344" 
d="M64 -223l-7 8q96 74 149.5 195.5t53.5 262.5t-53.5 263t-149.5 196l7 8q97 -76 152 -199.5t55 -267.5t-54.5 -267t-152.5 -199z" />
    <glyph glyph-name="asterisk" unicode="*" horiz-adv-x="531" 
d="M480 488v-11h-212l70 -200l-10 -3l-69 199l-170 -134l-6 9l169 132l-182 116l6 8l183 -116l56 202l10 -3l-57 -201z" />
    <glyph glyph-name="plus" unicode="+" horiz-adv-x="520" 
d="M490 254v-10h-225v-225h-10v225h-225v10h225v225h10v-225h225z" />
    <glyph glyph-name="comma" unicode="," horiz-adv-x="236" 
d="M83 -156l-10 2l53 253l11 -2z" />
    <glyph glyph-name="hyphen" unicode="-" horiz-adv-x="420" 
d="M360 244h-300v10h300v-10z" />
    <glyph glyph-name="period" unicode="." horiz-adv-x="236" 
d="M119 -5q-17 0 -17 17q0 16 17 16t17 -16q0 -17 -17 -17z" />
    <glyph glyph-name="slash" unicode="/" horiz-adv-x="362" 
d="M46 -111l256 815l11 -3l-257 -815z" />
    <glyph glyph-name="zero" unicode="0" horiz-adv-x="602" 
d="M301 -12q-113 0 -185 73.5t-72 188.5t72 188.5t185 73.5t185 -73.5t72 -188.5t-72 -188.5t-185 -73.5zM301 -2q108 0 177 71t69 181t-69 181t-177 71t-177 -71t-69 -181t69 -181t177 -71z" />
    <glyph glyph-name="one" unicode="1" horiz-adv-x="333" 
d="M172 0v400q0 56 -13.5 73.5t-65.5 17.5h-47v9h47q58 0 74 -20t16 -80v-400h-11z" />
    <glyph glyph-name="two" unicode="2" horiz-adv-x="465" 
d="M64 10h360v-10h-380v7l186 152q76 62 110.5 113t34.5 102q0 58 -39.5 93.5t-101.5 35.5q-53 0 -97 -27.5t-70 -71.5l-8 5q27 46 72.5 75t102.5 29q65 0 108.5 -38.5t43.5 -100.5q0 -102 -148 -222z" />
    <glyph glyph-name="three" unicode="3" horiz-adv-x="481" 
d="M232 209q196 -21 196 -156q0 -75 -59 -120t-155 -45q-107 0 -186 47l6 8q74 -45 179 -45q92 0 148 42.5t56 112.5q0 151 -261 151v10q119 0 180.5 38t61.5 110q0 64 -45.5 102t-122.5 38q-108 0 -186 -56l-6 8q80 58 192 58q81 0 130 -41t49 -110q0 -129 -177 -152z" />
    <glyph glyph-name="four" unicode="4" horiz-adv-x="530" 
d="M489 60v-10h-117v-150h-11v150h-322v8l318 442h15v-440h117zM53 60h308v427z" />
    <glyph glyph-name="five" unicode="5" horiz-adv-x="478" 
d="M225 -112q-105 0 -170 57l7 8q63 -55 163 -55q85 0 136 48.5t51 128.5q0 84 -60.5 123t-190.5 39h-61v263h302v-10h-291v-243h50q135 0 198.5 -41.5t63.5 -130.5q0 -85 -53.5 -136t-144.5 -51z" />
    <glyph glyph-name="six" unicode="6" horiz-adv-x="520" 
d="M274 370q90 0 146 -50t56 -133q0 -86 -57 -142.5t-148 -56.5q-103 0 -165 74.5t-62 196.5q0 151 95 246t248 95h8v-10h-8q-145 0 -236 -87t-96 -229q33 43 92.5 69.5t126.5 26.5zM271 -2q86 0 140 53.5t54 135.5q0 79 -52.5 126t-138.5 47q-66 0 -126.5 -27.5
t-92.5 -73.5q0 -117 59 -189t157 -72z" />
    <glyph glyph-name="seven" unicode="7" horiz-adv-x="460" 
d="M33 500h386v-10l-274 -594l-10 5l272 589h-374v10z" />
    <glyph glyph-name="eight" unicode="8" horiz-adv-x="526" 
d="M314 313q76 -11 120.5 -54t44.5 -106q0 -74 -59.5 -119.5t-156.5 -45.5t-156.5 45.5t-59.5 119.5q0 63 44.5 106t120.5 54q-62 11 -98.5 48.5t-36.5 91.5q0 67 51.5 108t134.5 41t134.5 -41t51.5 -108q0 -54 -36.5 -91.5t-98.5 -48.5zM88 453q0 -61 48 -98t127 -37
t127 37t48 98q0 62 -48 100.5t-127 38.5t-127 -38.5t-48 -100.5zM263 -2q92 0 148.5 42.5t56.5 112.5t-56.5 112.5t-148.5 42.5t-148.5 -42.5t-56.5 -112.5t56.5 -112.5t148.5 -42.5z" />
    <glyph glyph-name="nine" unicode="9" horiz-adv-x="520" 
d="M250 512q101 0 163.5 -75t62.5 -196q0 -151 -95 -246t-248 -95h-8v10h8q145 0 236 87t96 229q-34 -44 -94 -70t-129 -26q-86 0 -142 50.5t-56 129.5q0 90 57 146t149 56zM242 140q70 0 130.5 27.5t92.5 73.5q0 117 -59 189t-156 72q-87 0 -141 -53.5t-54 -138.5
q0 -74 52.5 -122t134.5 -48z" />
    <glyph glyph-name="colon" unicode=":" horiz-adv-x="236" 
d="M119 312q-17 0 -17 17q0 16 17 16t17 -16q0 -17 -17 -17zM119 -5q-17 0 -17 17q0 16 17 16t17 -16q0 -17 -17 -17z" />
    <glyph glyph-name="semicolon" unicode=";" horiz-adv-x="249" 
d="M132 312q-17 0 -17 17q0 16 17 16t17 -16q0 -17 -17 -17zM93 -156l-10 2l53 253l11 -2z" />
    <glyph glyph-name="less" unicode="&#x3c;" horiz-adv-x="515" 
d="M435 454l-364 -203l364 -203l-5 -9l-373 208v8l373 208z" />
    <glyph glyph-name="equal" unicode="=" horiz-adv-x="520" 
d="M490 344h-460v10h460v-10zM490 144h-460v10h460v-10z" />
    <glyph glyph-name="greater" unicode="&#x3e;" horiz-adv-x="515" 
d="M85 460l373 -208v-8l-373 -208l-5 9l364 203l-364 203z" />
    <glyph glyph-name="question" unicode="?" horiz-adv-x="420" 
d="M214 270h-11v1q0 33 13.5 63t28 47t40.5 43t39.5 42t26.5 44t13 57q0 60 -42 97.5t-110 37.5q-111 0 -173 -99l-9 5q64 104 181 104q70 0 117 -38t47 -106q0 -33 -13.5 -63t-27 -45.5t-40.5 -42.5q-27 -26 -40.5 -42t-26.5 -44.5t-13 -60.5zM209 -5q-17 0 -17 17
q0 16 17 16t17 -16q0 -17 -17 -17z" />
    <glyph glyph-name="at" unicode="@" horiz-adv-x="1025" 
d="M522 701q187 0 315 -124.5t128 -306.5q0 -110 -40 -177.5t-108 -67.5q-50 0 -80.5 39t-31.5 108q-20 -65 -73 -106t-121 -41q-85 0 -143.5 61.5t-58.5 150.5t58.5 150.5t144.5 61.5q68 0 120.5 -39.5t72.5 -103.5v131h11v-260q0 -66 27 -104t74 -38q62 0 99.5 65
t37.5 170q0 178 -125 299.5t-307 121.5q-188 0 -317 -128.5t-129 -316.5q0 -193 132.5 -325t326.5 -132q125 0 231 48l5 -9q-109 -49 -237 -49q-198 0 -333.5 135t-135.5 332q0 192 132 323.5t325 131.5zM511 35q82 0 138 59t56 145q0 85 -56 142.5t-137 57.5
q-82 0 -137 -58t-55 -144t55 -144t136 -58z" />
    <glyph glyph-name="A" unicode="A" horiz-adv-x="632" 
d="M568 0l-91 213h-323l-90 -213h-11l255 600h14l257 -600h-11zM159 223h314l-158 368z" />
    <glyph glyph-name="B" unicode="B" horiz-adv-x="654" 
d="M427 309q79 -9 125 -48t46 -99q0 -76 -57.5 -119t-173.5 -43h-252v600h252q100 0 145.5 -39.5t45.5 -104.5q0 -59 -35 -97.5t-96 -49.5zM126 590v-277h257q75 0 119.5 39t44.5 104q0 134 -180 134h-241zM367 10q112 0 166 40t54 112q0 64 -55.5 102.5t-148.5 38.5h-257
v-293h241z" />
    <glyph glyph-name="C" unicode="C" horiz-adv-x="630" 
d="M598 110q-100 -124 -248 -124q-126 0 -210.5 88.5t-84.5 224.5q0 138 85.5 226.5t216.5 88.5q73 0 134 -30.5t99 -85.5l-9 -5q-81 111 -225 111q-126 0 -208 -86t-82 -219q0 -132 81.5 -217.5t203.5 -85.5q143 0 239 120z" />
    <glyph glyph-name="D" unicode="D" horiz-adv-x="670" 
d="M281 600q84 0 149.5 -25.5t105 -68.5t59.5 -95.5t20 -110.5t-20 -110.5t-59.5 -95.5t-105 -68.5t-149.5 -25.5h-175v600h175zM281 10q82 0 145.5 25t101.5 66.5t57 92t19 106.5t-19.5 107t-57.5 92.5t-101.5 66t-144.5 24.5h-164v-580h164z" />
    <glyph glyph-name="E" unicode="E" horiz-adv-x="580" 
d="M117 10h415v-10h-426v600h416v-10h-405v-277h385v-10h-385v-293z" />
    <glyph glyph-name="F" unicode="F" horiz-adv-x="560" 
d="M525 590h-408v-287h381v-10h-381v-293h-11v600h419v-10z" />
    <glyph glyph-name="G" unicode="G" horiz-adv-x="739" 
d="M364 307h320v-6q0 -139 -82.5 -227t-228.5 -88q-139 0 -228.5 87t-89.5 223q0 140 90 229.5t231 89.5q137 0 236 -91l-7 -8q-98 89 -229 89q-136 0 -223 -86.5t-87 -222.5q0 -131 86.5 -215.5t220.5 -84.5q136 0 217 83.5t83 217.5h-309v10z" />
    <glyph glyph-name="H" unicode="H" horiz-adv-x="693" 
d="M576 600h11v-600h-11v303h-459v-303h-11v600h11v-287h459v287z" />
    <glyph glyph-name="I" unicode="I" horiz-adv-x="283" 
d="M136 0v600h11v-600h-11z" />
    <glyph glyph-name="J" unicode="J" horiz-adv-x="308" 
d="M-44 -148h26q179 0 179 197v551h11v-552q0 -103 -49.5 -154.5t-142.5 -51.5h-24v10z" />
    <glyph glyph-name="K" unicode="K" horiz-adv-x="635" 
d="M304 308q128 -15 198.5 -96t70.5 -212h-11q0 142 -84.5 222.5t-234.5 80.5h-126v-303h-11v600h11v-287h126q136 0 223 80.5t87 206.5h11q0 -114 -72 -194t-188 -98z" />
    <glyph glyph-name="L" unicode="L" horiz-adv-x="523" 
d="M117 10h385v-10h-396v600h11v-590z" />
    <glyph glyph-name="M" unicode="M" horiz-adv-x="826" 
d="M720 0h-11l-39 583l-252 -503h-10l-252 503l-39 -583h-11l40 600h13l254 -508l254 508h13z" />
    <glyph glyph-name="N" unicode="N" horiz-adv-x="683" 
d="M566 600h11v-600h-11l-449 583v-583h-11v600h11l449 -583v583z" />
    <glyph glyph-name="O" unicode="O" horiz-adv-x="740" 
d="M370 -14q-138 0 -226.5 88t-88.5 226t88.5 226t226.5 88t226.5 -88t88.5 -226t-88.5 -226t-226.5 -88zM370 -4q132 0 218 84.5t86 219.5q0 134 -85.5 219t-218.5 85t-218.5 -85t-85.5 -219q0 -133 85.5 -218.5t218.5 -85.5z" />
    <glyph glyph-name="P" unicode="P" horiz-adv-x="578" 
d="M283 216h-166v-216h-11v600h171q114 0 178.5 -51.5t64.5 -142.5q0 -89 -62.5 -139.5t-174.5 -50.5zM277 590h-160v-364h166q107 0 166.5 48t59.5 133q0 86 -61.5 134.5t-170.5 48.5z" />
    <glyph glyph-name="Q" unicode="Q" horiz-adv-x="740" 
d="M685 300q0 -91 -39.5 -162t-110.5 -110l118 -116l-7 -8l-120 119q-69 -37 -156 -37q-138 0 -226.5 88t-88.5 226t88.5 226t226.5 88t226.5 -88t88.5 -226zM66 300q0 -133 85.5 -218.5t218.5 -85.5q132 0 218 84.5t86 219.5q0 134 -85.5 219t-218.5 85t-218.5 -85
t-85.5 -219z" />
    <glyph glyph-name="R" unicode="R" horiz-adv-x="654" 
d="M392 279q181 -34 181 -279h-11q0 276 -235 276h-201v-276h-11v600h250q93 0 143.5 -44.5t50.5 -115.5q0 -67 -45 -110t-122 -51zM126 286h237q84 0 134.5 42t50.5 111q0 67 -47.5 109.5t-135.5 42.5h-239v-305z" />
    <glyph glyph-name="S" unicode="S" horiz-adv-x="600" 
d="M318 -14q-83 0 -152 35t-107 96l8 6q35 -59 102 -93t148 -34q94 0 151 43t57 109q0 29 -13 52t-31 37.5t-51.5 27.5t-57 19.5t-66.5 16.5q-44 10 -70 17.5t-59.5 21t-51 28.5t-30.5 38.5t-13 53.5q0 70 59.5 112t148.5 42q78 0 141.5 -33t96.5 -89l-8 -6q-32 53 -93 85.5
t-137 32.5q-85 0 -141 -39.5t-56 -104.5q0 -28 12.5 -50.5t29.5 -36t50.5 -26.5t57 -19.5t67.5 -16.5q43 -10 68 -17t59.5 -21t53 -29t32 -39.5t13.5 -55.5q0 -71 -60 -117t-158 -46z" />
    <glyph glyph-name="T" unicode="T" horiz-adv-x="593" 
d="M568 600v-10h-266v-590h-11v590h-266v10h543z" />
    <glyph glyph-name="U" unicode="U" horiz-adv-x="687" 
d="M588 268q0 -132 -66 -207t-179 -75t-178.5 76t-65.5 210v328h11v-328q0 -129 63 -202.5t170 -73.5q108 0 171 73t63 200v331h11v-332z" />
    <glyph glyph-name="V" unicode="V" horiz-adv-x="632" 
d="M568 600h11l-257 -600h-14l-255 600h11l251 -591z" />
    <glyph glyph-name="W" unicode="W" horiz-adv-x="926" 
d="M836 600h12l-181 -600h-16l-189 591l-189 -591h-17l-180 600h12l177 -593l189 593h16l189 -593z" />
    <glyph glyph-name="X" unicode="X" horiz-adv-x="674" 
d="M594 558q-1 -104 -55.5 -171t-149.5 -82q96 -15 150.5 -82t54.5 -171v-52h-11v52q0 114 -66.5 181t-179.5 67t-179.5 -67t-66.5 -181v-52h-11v52q0 104 54.5 171t149.5 82q-95 15 -149 82t-55 171v42h11v-42q1 -114 67.5 -181t178.5 -67t178.5 67t67.5 181v42h11v-42z
" />
    <glyph glyph-name="Y" unicode="Y" horiz-adv-x="581" 
d="M527 600h11v-66q0 -116 -66 -187.5t-176 -73.5v-273h-11v273q-110 2 -176 73.5t-66 189.5v64h11v-64q0 -115 64.5 -184t171.5 -69t172 69t65 182v66z" />
    <glyph glyph-name="Z" unicode="Z" horiz-adv-x="595" 
d="M543 591l-460 -567q-3 -3 -6.5 -7.5t-5.5 -6.5h60h412v-10h-487v9l453 558q9 11 21 23h-71h-396v10h480v-9z" />
    <glyph glyph-name="bracketleft" unicode="[" horiz-adv-x="340" 
d="M295 690h-151v-900h151v-10h-162v920h162v-10z" />
    <glyph glyph-name="backslash" unicode="\" horiz-adv-x="362" 
d="M303 -114l-257 815l11 3l256 -815z" />
    <glyph glyph-name="bracketright" unicode="]" horiz-adv-x="340" 
d="M207 700v-920h-162v10h151v900h-151v10h162z" />
    <glyph glyph-name="asciicircum" unicode="^" horiz-adv-x="422" 
d="M392 443l-8 -7l-173 164l-174 -164l-7 7l181 171z" />
    <glyph glyph-name="underscore" unicode="_" horiz-adv-x="520" 
d="M490 -20h-460v10h460v-10z" />
    <glyph glyph-name="grave" unicode="`" horiz-adv-x="259" 
d="M231 494l-153 129l7 8l152 -130z" />
    <glyph glyph-name="a" unicode="a" horiz-adv-x="524" 
d="M427 400h11v-400h-11v127q-20 -63 -70 -101t-116 -38q-85 0 -141 60.5t-56 151.5t56 151.5t141 60.5q66 0 116 -38t70 -101v127zM241 -2q80 0 133.5 57.5t53.5 144.5q0 86 -53.5 144t-132.5 58q-80 0 -133.5 -58t-53.5 -144t53.5 -144t132.5 -58z" />
    <glyph glyph-name="b" unicode="b" horiz-adv-x="534" 
d="M293 412q85 0 141 -60.5t56 -151.5t-56 -151.5t-141 -60.5q-66 0 -116 38t-70 101v-127h-11v700h11v-427q20 63 70 101t116 38zM293 -2q79 0 132.5 58t53.5 144t-53.5 144t-133.5 58q-79 0 -132.5 -58t-53.5 -144q0 -87 53.5 -144.5t133.5 -57.5z" />
    <glyph glyph-name="c" unicode="c" horiz-adv-x="431" 
d="M382 354q-56 48 -132 48q-87 0 -141 -56t-54 -145t55.5 -146t140.5 -57q81 0 134 52l8 -7q-57 -55 -144 -55q-89 0 -147 59.5t-58 153.5q0 93 57 152t150 59q83 0 138 -50z" />
    <glyph glyph-name="d" unicode="d" horiz-adv-x="534" 
d="M427 700h11v-700h-11v127q-20 -63 -70 -101t-116 -38q-85 0 -141 60.5t-56 151.5t56 151.5t141 60.5q66 0 116 -38t70 -101v427zM241 -2q80 0 133.5 57.5t53.5 144.5q0 86 -53.5 144t-132.5 58q-80 0 -133.5 -58t-53.5 -144t53.5 -144t132.5 -58z" />
    <glyph glyph-name="e" unicode="e" horiz-adv-x="488" 
d="M436 215l-376 -1v-12q0 -88 54.5 -146t147.5 -58q100 0 161 63l8 -8q-65 -65 -170 -65q-94 0 -153 59t-59 153q0 93 57 152.5t147 59.5q84 0 134 -48.5t50 -138.5q0 -7 -1 -10zM253 402q-78 0 -131.5 -48.5t-60.5 -129.5l365 1q-1 85 -48 131t-125 46z" />
    <glyph glyph-name="f" unicode="f" horiz-adv-x="341" 
d="M328 708h19v-10h-19q-90 0 -138 -59.5t-48 -171.5v-77h168v-10h-168v-380h-11v380h-88v10h88v77q0 116 51 178.5t146 62.5z" />
    <glyph glyph-name="g" unicode="g" horiz-adv-x="524" 
d="M427 400h11v-418q0 -102 -53.5 -157.5t-149.5 -55.5q-107 0 -167 57l7 7q60 -54 161 -54q91 0 141 53t50 150v145q-20 -63 -70 -101t-116 -38q-85 0 -141 60.5t-56 151.5t56 151.5t141 60.5q66 0 116 -38t70 -101v127zM242 -2q80 0 133 57.5t53 144.5q0 86 -53.5 144
t-132.5 58q-80 0 -133.5 -58t-53.5 -144t53.5 -144t133.5 -58z" />
    <glyph glyph-name="h" unicode="h" horiz-adv-x="528" 
d="M290 412q151 0 151 -189v-223h-11v219q0 183 -141 183q-81 0 -131.5 -54t-50.5 -138v-210h-11v700h11v-420q19 61 67.5 96.5t115.5 35.5z" />
    <glyph glyph-name="i" unicode="i" horiz-adv-x="233" 
d="M116 554q-17 0 -17 17q0 16 17 16t17 -16q0 -17 -17 -17zM111 0v400h11v-400h-11z" />
    <glyph glyph-name="j" unicode="j" horiz-adv-x="233" 
d="M116 554q-17 0 -17 17q0 16 17 16t17 -16q0 -17 -17 -17zM111 -220v620h11v-620h-11z" />
    <glyph glyph-name="k" unicode="k" horiz-adv-x="490" 
d="M220 204q94 -9 147.5 -63t53.5 -141h-11q0 91 -61.5 144.5t-165.5 53.5h-76v-198h-11v700h11v-492h56q109 0 178 56.5t69 145.5h11q0 -79 -54.5 -135.5t-146.5 -70.5z" />
    <glyph glyph-name="l" unicode="l" horiz-adv-x="203" 
d="M96 0v700h11v-700h-11z" />
    <glyph glyph-name="m" unicode="m" horiz-adv-x="809" 
d="M579 412q71 0 107 -50t36 -139v-223h-11v219q0 86 -33.5 134.5t-99.5 48.5q-72 0 -120 -53t-48 -139v-210h-11v219q0 87 -33 135t-100 48q-71 0 -119.5 -53t-48.5 -139v-210h-11v400h11v-118q18 61 64 95.5t105 34.5q61 0 96 -37t44 -104q16 65 62.5 103t109.5 38z" />
    <glyph glyph-name="n" unicode="n" horiz-adv-x="519" 
d="M276 412q74 0 115 -48t41 -131v-233h-11v229q0 80 -38 126.5t-108 46.5q-77 0 -127 -53.5t-50 -138.5v-210h-11v400h11v-119q19 60 66.5 95.5t111.5 35.5z" />
    <glyph glyph-name="o" unicode="o" horiz-adv-x="500" 
d="M250 -12q-90 0 -148 59.5t-58 152.5t58 152.5t148 59.5t148 -59.5t58 -152.5t-58 -152.5t-148 -59.5zM250 -2q85 0 140 57.5t55 145.5q0 89 -55 145t-140 56t-140 -56t-55 -145q0 -88 55 -145.5t140 -57.5z" />
    <glyph glyph-name="p" unicode="p" horiz-adv-x="524" 
d="M283 412q85 0 141 -60.5t56 -151.5t-56 -151.5t-141 -60.5q-66 0 -116 38t-70 101v-347h-11v620h11v-127q20 63 70 101t116 38zM282 -2q80 0 133.5 58t53.5 144t-53.5 144t-132.5 58q-80 0 -133.5 -57.5t-53.5 -144.5q0 -86 53.5 -144t132.5 -58z" />
    <glyph glyph-name="q" unicode="q" horiz-adv-x="524" 
d="M427 400h11v-620h-11v347q-20 -63 -70 -101t-116 -38q-85 0 -141 60.5t-56 151.5t56 151.5t141 60.5q66 0 116 -38t70 -101v127zM242 -2q79 0 132.5 58t53.5 144q0 87 -53.5 144.5t-133.5 57.5q-79 0 -132.5 -58t-53.5 -144t53.5 -144t133.5 -58z" />
    <glyph glyph-name="r" unicode="r" horiz-adv-x="356" 
d="M98 230q20 82 80 127.5t153 45.5v-10h-1q-109 0 -170.5 -65.5t-61.5 -177.5v-150h-11v400h11v-170z" />
    <glyph glyph-name="s" unicode="s" horiz-adv-x="398" 
d="M200 -12q-81 0 -144 58l8 8q59 -56 138 -56q57 0 90 28.5t33 71.5q0 20 -8.5 36.5t-18 25.5t-31.5 18t-31.5 12t-35.5 10q-30 8 -48.5 14.5t-40 19t-31.5 31t-10 43.5q0 47 36.5 76t93.5 29q79 0 122 -49l-8 -6q-45 45 -114 45q-56 0 -87.5 -27.5t-31.5 -67.5
q0 -18 7.5 -33t18 -24.5t29 -18t32 -12.5t36.5 -10q32 -8 50 -15t40 -19.5t32 -31.5t10 -45q0 -48 -36 -79.5t-100 -31.5z" />
    <glyph glyph-name="t" unicode="t" horiz-adv-x="394" 
d="M361 53l7 -7q-53 -58 -124 -58q-60 0 -94 39.5t-34 112.5v240h-78v10h78v90h11v-90h211v-10h-211v-240q0 -66 30 -104t89 -38q63 0 115 55z" />
    <glyph glyph-name="u" unicode="u" horiz-adv-x="519" 
d="M421 400h11v-400h-11v119q-18 -61 -66 -96t-116 -35q-152 0 -152 189v223h11v-219q0 -183 142 -183q81 0 131 53t50 139v210z" />
    <glyph glyph-name="v" unicode="v" horiz-adv-x="462" 
d="M405 400h12l-177 -400h-14l-181 400h12l176 -391z" />
    <glyph glyph-name="w" unicode="w" horiz-adv-x="752" 
d="M695 400h12l-160 -400h-14l-157 390l-157 -390h-14l-160 400h12l155 -391l157 391h14l157 -391z" />
    <glyph glyph-name="x" unicode="x" horiz-adv-x="480" 
d="M284 200q59 -12 91.5 -53.5t32.5 -113.5v-33h-11v33q0 78 -41 120t-116 42t-116 -42t-41 -120v-33h-11v33q0 72 32.5 113.5t91.5 53.5q-123 24 -123 167v33h11v-33q0 -79 40.5 -120.5t115.5 -41.5t115.5 41.5t40.5 120.5v33h11v-33q0 -143 -123 -167z" />
    <glyph glyph-name="y" unicode="y" horiz-adv-x="518" 
d="M421 400h11v-428q0 -97 -49 -150t-137 -53q-99 0 -154 57l7 7q56 -54 147 -54q83 0 129 50.5t46 142.5v150q-17 -62 -65.5 -98t-117.5 -36q-152 0 -152 189v223h11v-219q0 -183 142 -183q81 0 131.5 53t50.5 139v210z" />
    <glyph glyph-name="z" unicode="z" horiz-adv-x="440" 
d="M399 392l-302 -340q-12 -14 -38 -42h67h273v-10h-355v9l298 335l41 46h-67h-269v10h352v-8z" />
    <glyph glyph-name="braceleft" unicode="{" horiz-adv-x="398" 
d="M202 -210h151v-10h-162v460h-151v10h151v450h162v-10h-151v-900z" />
    <glyph glyph-name="bar" unicode="|" horiz-adv-x="307" 
d="M148 -220v920h11v-920h-11z" />
    <glyph glyph-name="braceright" unicode="}" horiz-adv-x="398" 
d="M358 240v-10h-151v-450h-162v10h151v900h-151v10h162v-460h151z" />
    <glyph glyph-name="asciitilde" unicode="~" horiz-adv-x="488" 
d="M351 181q-23 0 -45 11t-34 22.5t-32 32.5q-21 22 -31.5 32t-30.5 20.5t-41 10.5q-43 0 -71.5 -33.5t-28.5 -87.5h-11q0 56 31.5 93.5t79.5 37.5q23 0 45 -11t34 -22.5t32 -32.5t31.5 -31.5t31.5 -21t41 -10.5q43 0 71 33.5t28 86.5h11q0 -57 -31.5 -93.5t-79.5 -36.5z
" />
    <glyph glyph-name="exclamdown" unicode="&#xa1;" horiz-adv-x="256" 
d="M129 547q17 0 17 -17q0 -16 -17 -16t-17 16q0 17 17 17zM135 272v-430h-11v430h11z" />
    <glyph glyph-name="cent" unicode="&#xa2;" horiz-adv-x="431" 
d="M393 93q-54 -52 -137 -55v-128h-10v128q-88 1 -145 60t-57 153q0 93 56 151.5t147 59.5v131h10v-131q79 -1 132 -50l-7 -8q-56 48 -132 48q-87 0 -141 -56t-54 -145t55.5 -146t140.5 -57q81 0 134 52z" />
    <glyph glyph-name="sterling" unicode="&#xa3;" horiz-adv-x="573" 
d="M137 255v-245h365v-10h-376v255h-93v10h93v135q0 96 50.5 154t134.5 58q88 0 141 -58t53 -154h-11q0 91 -50 146.5t-133 55.5q-79 0 -126.5 -55.5t-47.5 -146.5v-135h196v-10h-196z" />
    <glyph glyph-name="currency" unicode="&#xa4;" horiz-adv-x="610" 
d="M153 458l-90 125l8 6l91 -125zM456 458l-9 6l91 125l8 -6zM305 38q-90 0 -148 59.5t-58 152.5t58 152.5t148 59.5t148 -59.5t58 -152.5t-58 -152.5t-148 -59.5zM305 48q85 0 140 57t55 145q0 89 -55 145.5t-140 56.5t-140 -56.5t-55 -145.5q0 -88 55 -145t140 -57z
M71 -88l-8 6l90 125l9 -6zM538 -88l-91 125l9 6l90 -125z" />
    <glyph glyph-name="yen" unicode="&#xa5;" horiz-adv-x="580" 
d="M294 273v-123h163v-10h-163v-140h-11v140h-166v10h166v123q-118 2 -179 85t-61 242h11q0 -157 60 -237t176 -80t176 80t60 237h11q0 -160 -62 -242.5t-181 -84.5z" />
    <glyph glyph-name="brokenbar" unicode="&#xa6;" horiz-adv-x="307" 
d="M148 320v380h11v-380h-11zM148 -220v380h11v-380h-11z" />
    <glyph glyph-name="section" unicode="&#xa7;" horiz-adv-x="522" 
d="M338 35q42 -26 65 -56.5t23 -73.5q0 -61 -46 -98t-127 -37q-126 0 -184 97l8 7q56 -94 177 -94q75 0 118 34.5t43 89.5q0 24 -10 45.5t-22.5 36.5t-37 31.5t-41 25t-49 24.5t-46.5 23q-65 34 -107 77.5t-42 108.5q0 99 124 169q-42 26 -65 56.5t-23 73.5q0 61 46 98
t127 37q126 0 184 -97l-8 -7q-56 94 -177 94q-75 0 -118 -34.5t-43 -89.5q0 -24 10 -45.5t22.5 -36.5t37 -31.5t41 -25t49 -24.5t46.5 -23q66 -35 107.5 -78t41.5 -107q0 -100 -124 -170zM71 275q0 -35 14.5 -64.5t43.5 -53.5t55.5 -40t66.5 -36q52 -26 76 -39
q124 68 124 163q0 35 -14.5 64.5t-43.5 53.5t-55.5 40t-66.5 36q-52 26 -76 39q-124 -68 -124 -163z" />
    <glyph glyph-name="dieresis" unicode="&#xa8;" horiz-adv-x="334" 
d="M67 534q-17 0 -17 17q0 16 17 16t17 -16q0 -17 -17 -17zM267 534q-17 0 -17 17q0 16 17 16t17 -16q0 -17 -17 -17z" />
    <glyph glyph-name="copyright" unicode="&#xa9;" horiz-adv-x="1040" 
d="M524 -221q-194 0 -329 134.5t-135 327.5q0 192 134 326t326 134t326 -134.5t134 -327.5q0 -192 -133 -326t-323 -134zM524 -211q186 0 315.5 131t129.5 319q0 189 -130.5 320.5t-318.5 131.5t-318.5 -131t-130.5 -319q0 -189 132 -320.5t321 -131.5zM539 18
q-100 0 -163.5 62t-63.5 161q0 98 63 159.5t163 61.5q88 0 144 -50l-7 -8q-57 48 -137 48q-96 0 -155.5 -59t-59.5 -152q0 -94 61 -153.5t156 -59.5q83 0 138 52l8 -7q-58 -55 -147 -55z" />
    <glyph glyph-name="ordfeminine" unicode="&#xaa;" horiz-adv-x="400" 
d="M193 376q-64 0 -107.5 46.5t-43.5 115.5t43.5 115.5t107.5 46.5q48 0 85.5 -27t54.5 -72v90h11v-306h-11v90q-17 -45 -54.5 -72t-85.5 -27zM194 690q-61 0 -101 -43.5t-40 -108.5t40 -108.5t100 -43.5q61 0 101 43t40 109q0 65 -40 108.5t-100 43.5zM48 254h310v-10h-310
v10z" />
    <glyph glyph-name="guillemotleft" unicode="&#xab;" horiz-adv-x="529" 
d="M235 400l7 -8l-153 -143l153 -143l-7 -8l-160 151zM452 392l-153 -143l153 -143l-7 -8l-160 151l160 151z" />
    <glyph glyph-name="logicalnot" unicode="&#xac;" horiz-adv-x="560" 
d="M490 105v105q0 41 -22 60.5t-68 19.5h-360v10h360q52 0 76 -21.5t24 -68.5v-105h-10z" />
    <glyph glyph-name="registered" unicode="&#xae;" horiz-adv-x="1040" 
d="M520 701q192 0 326 -134.5t134 -327.5q0 -192 -133 -326t-323 -134q-194 0 -329 134.5t-135 327.5q0 192 134 326t326 134zM524 -211q186 0 315.5 131t129.5 319q0 189 -130.5 320.5t-318.5 131.5t-318.5 -131t-130.5 -319q0 -189 132 -320.5t321 -131.5zM576 233
q142 -32 142 -218h-11q0 106 -49.5 160.5t-144.5 54.5h-124v-215h-11v462h179q70 0 109.5 -32t39.5 -89q0 -50 -34 -82t-96 -41zM389 240h138q79 0 123.5 30.5t44.5 85.5q0 52 -36.5 81.5t-101.5 29.5h-168v-227z" />
    <glyph glyph-name="macron" unicode="&#xaf;" horiz-adv-x="400" 
d="M350 538h-300v10h300v-10z" />
    <glyph glyph-name="degree" unicode="&#xb0;" horiz-adv-x="376" 
d="M188 312q-62 0 -102.5 42t-40.5 108t40.5 108t102.5 42t102.5 -42t40.5 -108t-40.5 -108t-102.5 -42zM188 322q57 0 94.5 39.5t37.5 100.5t-37.5 100.5t-94.5 39.5t-94.5 -39.5t-37.5 -100.5t37.5 -100.5t94.5 -39.5z" />
    <glyph glyph-name="plusminus" unicode="&#xb1;" horiz-adv-x="520" 
d="M265 374h225v-10h-225v-225h-10v225h-225v10h225v225h10v-225zM30 24v10h460v-10h-460z" />
    <glyph glyph-name="uni00B2" unicode="&#xb2;" horiz-adv-x="272" 
d="M54 390h190v-10h-208v8q114 111 149 154.5t35 81.5q0 34 -20.5 53t-57.5 19q-64 0 -98 -55l-9 5q38 60 107 60q41 0 65 -22t24 -60q0 -39 -34.5 -83t-142.5 -151z" />
    <glyph glyph-name="uni00B3" unicode="&#xb3;" horiz-adv-x="279" 
d="M156 543q85 -17 85 -80q0 -39 -31 -64t-79 -25q-62 0 -102 37l8 7q36 -34 93 -34q44 0 72 22t28 56q0 36 -34 55.5t-95 19.5v10q57 0 89 21.5t32 57.5q0 31 -24 50.5t-62 19.5q-61 0 -92 -38l-8 7q36 41 101 41q42 0 69 -22.5t27 -58.5q0 -63 -77 -82z" />
    <glyph glyph-name="acute" unicode="&#xb4;" horiz-adv-x="259" 
d="M56 494l-6 7l152 130l7 -8z" />
    <glyph glyph-name="paragraph" unicode="&#xb6;" horiz-adv-x="767" 
d="M443 0q-170 0 -266.5 79.5t-96.5 220.5t96.5 220.5t266.5 79.5h36v-600h-36zM554 -220v820h11v-820h-11zM633 -220v820h11v-820h-11zM443 10h25v580h-25q-165 0 -258.5 -77t-93.5 -213t93.5 -213t258.5 -77z" />
    <glyph glyph-name="periodcentered" unicode="&#xb7;" horiz-adv-x="236" 
d="M119 233q-17 0 -17 17q0 16 17 16t17 -16q0 -17 -17 -17z" />
    <glyph glyph-name="cedilla" unicode="&#xb8;" horiz-adv-x="110" 
d="M60 -220h-10v135h10v-135z" />
    <glyph glyph-name="uni00B9" unicode="&#xb9;" horiz-adv-x="243" 
d="M132 380v220q0 56 -13.5 73.5t-65.5 17.5h-10v9h10q58 0 74 -20t16 -80v-220h-11z" />
    <glyph glyph-name="ordmasculine" unicode="&#xba;" horiz-adv-x="390" 
d="M195 376q-69 0 -113 45.5t-44 116.5t44 116.5t113 45.5t113 -45.5t44 -116.5t-44 -116.5t-113 -45.5zM195 386q63 0 104.5 43t41.5 110t-41 109t-105 42t-105 -42t-41 -109t41.5 -110t104.5 -43zM45 244v10h300v-10h-300z" />
    <glyph glyph-name="guillemotright" unicode="&#xbb;" horiz-adv-x="529" 
d="M77 388l7 8l160 -151l-160 -151l-7 8l153 143zM294 396l160 -151l-160 -151l-7 8l153 143l-153 143z" />
    <glyph glyph-name="onequarter" unicode="&#xbc;" horiz-adv-x="688" 
d="M511 625l9 -6l-419 -646l-10 5zM132 500q0 56 -13.5 73.5t-65.5 17.5h-10v9h10q58 0 74 -20t16 -80v-220h-11v220zM669 92v-10h-71v-82h-11v82h-175v9l171 229h15v-228h71zM587 308l-162 -216h162v216z" />
    <glyph glyph-name="onehalf" unicode="&#xbd;" horiz-adv-x="650" 
d="M511 625l9 -6l-419 -646l-10 5zM132 500q0 56 -13.5 73.5t-65.5 17.5h-10v9h10q58 0 74 -20t16 -80v-220h-11v220zM432 10h190v-10h-208v8q114 111 149 154.5t35 81.5q0 34 -20.5 53t-57.5 19q-64 0 -98 -55l-9 5q38 60 107 60q41 0 65 -22t24 -60q0 -39 -34.5 -83
t-142.5 -151z" />
    <glyph glyph-name="threequarters" unicode="&#xbe;" horiz-adv-x="724" 
d="M547 625l9 -6l-419 -646l-10 5zM130 284q44 0 72 22t28 56q0 36 -34 55.5t-95 19.5v10q57 0 89 21.5t32 57.5q0 31 -24 50.5t-62 19.5q-61 0 -92 -38l-8 7q36 41 101 41q42 0 69 -22.5t27 -58.5q0 -63 -77 -82q85 -17 85 -80q0 -39 -31 -64t-79 -25q-62 0 -102 37l8 7
q36 -34 93 -34zM705 92v-10h-71v-82h-11v82h-175v9l171 229h15v-228h71zM623 308l-162 -216h162v216z" />
    <glyph glyph-name="questiondown" unicode="&#xbf;" horiz-adv-x="420" 
d="M211 555q17 0 17 -17q0 -16 -17 -16t-17 16q0 17 17 17zM206 280h11v-1q0 -33 -13.5 -63t-28 -47t-40.5 -43t-39.5 -42t-26.5 -44t-13 -57q0 -60 42 -97.5t110 -37.5q111 0 173 99l9 -5q-64 -104 -181 -104q-70 0 -117 38t-47 106q0 33 13.5 63t27 45.5t40.5 42.5
q27 26 40.5 42t26.5 44.5t13 60.5z" />
    <glyph glyph-name="Agrave" unicode="&#xc0;" horiz-adv-x="632" 
d="M404 712l-4 -9l-201 97l5 10zM568 0l-91 213h-323l-90 -213h-11l255 600h14l257 -600h-11zM159 223h314l-158 368z" />
    <glyph glyph-name="Aacute" unicode="&#xc1;" horiz-adv-x="632" 
d="M433 800l-201 -97l-4 9l200 98zM568 0l-91 213h-323l-90 -213h-11l255 600h14l257 -600h-11zM159 223h314l-158 368z" />
    <glyph glyph-name="Acircumflex" unicode="&#xc2;" horiz-adv-x="632" 
d="M317 814l-134 -125l-7 7l141 132l140 -132l-8 -7zM568 0l-91 213h-323l-90 -213h-11l255 600h14l257 -600h-11zM159 223h314l-158 368z" />
    <glyph glyph-name="Atilde" unicode="&#xc3;" horiz-adv-x="632" 
d="M246 790q-28 0 -47.5 -25t-19.5 -63h-11q0 42 23 70t56 28t72 -46q36 -44 67 -44q29 0 48 25t19 63h11q0 -43 -22.5 -70.5t-56.5 -27.5q-35 0 -74 47q-11 14 -18 21.5t-20 14.5t-27 7zM568 0l-91 213h-323l-90 -213h-11l255 600h14l257 -600h-11zM159 223h314l-158 368z
" />
    <glyph glyph-name="Adieresis" unicode="&#xc4;" horiz-adv-x="632" 
d="M215 714q-17 0 -17 17q0 16 17 16t17 -16q0 -17 -17 -17zM415 714q-17 0 -17 17q0 16 17 16t17 -16q0 -17 -17 -17zM568 0l-91 213h-323l-90 -213h-11l255 600h14l257 -600h-11zM159 223h314l-158 368z" />
    <glyph glyph-name="Aring" unicode="&#xc5;" horiz-adv-x="632" 
d="M317 687q-40 0 -65 25t-25 64t25 64t65 25t65 -25t25 -64t-25 -64t-65 -25zM317 855q-35 0 -57 -22.5t-22 -56.5t22 -56.5t57 -22.5t57 22.5t22 56.5t-22 56.5t-57 22.5zM568 0l-91 213h-323l-90 -213h-11l255 600h14l257 -600h-11zM159 223h314l-158 368z" />
    <glyph glyph-name="AE" unicode="&#xc6;" horiz-adv-x="854" 
d="M517 10h289v-10h-299l-41 213h-295l-126 -213h-12l355 600h408v-10h-392l54 -277h318v-10h-316zM177 223h287l-71 365z" />
    <glyph glyph-name="Ccedilla" unicode="&#xc7;" horiz-adv-x="630" 
d="M598 110q-100 -124 -248 -124q-126 0 -210.5 88.5t-84.5 224.5q0 138 85.5 226.5t216.5 88.5q73 0 134 -30.5t99 -85.5l-9 -5q-81 111 -225 111q-126 0 -208 -86t-82 -219q0 -132 81.5 -217.5t203.5 -85.5q143 0 239 120zM370 -220h-10v135h10v-135z" />
    <glyph glyph-name="Egrave" unicode="&#xc8;" horiz-adv-x="580" 
d="M404 712l-4 -9l-201 97l5 10zM117 10h415v-10h-426v600h416v-10h-405v-277h385v-10h-385v-293z" />
    <glyph glyph-name="Eacute" unicode="&#xc9;" horiz-adv-x="580" 
d="M433 800l-201 -97l-4 9l200 98zM117 10h415v-10h-426v600h416v-10h-405v-277h385v-10h-385v-293z" />
    <glyph glyph-name="Ecircumflex" unicode="&#xca;" horiz-adv-x="580" 
d="M317 814l-134 -125l-7 7l141 132l140 -132l-8 -7zM117 10h415v-10h-426v600h416v-10h-405v-277h385v-10h-385v-293z" />
    <glyph glyph-name="Edieresis" unicode="&#xcb;" horiz-adv-x="580" 
d="M215 714q-17 0 -17 17q0 16 17 16t17 -16q0 -17 -17 -17zM415 714q-17 0 -17 17q0 16 17 16t17 -16q0 -17 -17 -17zM117 10h415v-10h-426v600h416v-10h-405v-277h385v-10h-385v-293z" />
    <glyph glyph-name="Igrave" unicode="&#xcc;" horiz-adv-x="283" 
d="M225 703l-201 97l5 10l200 -98zM136 0v600h11v-600h-11z" />
    <glyph glyph-name="Iacute" unicode="&#xcd;" horiz-adv-x="283" 
d="M57 703l-4 9l200 98l5 -10zM136 0v600h11v-600h-11z" />
    <glyph glyph-name="Icircumflex" unicode="&#xce;" horiz-adv-x="283" 
d="M142 828l140 -132l-8 -7l-132 125l-134 -125l-7 7zM136 0v600h11v-600h-11z" />
    <glyph glyph-name="Idieresis" unicode="&#xcf;" horiz-adv-x="283" 
d="M40 714q-17 0 -17 17q0 16 17 16t17 -16q0 -17 -17 -17zM240 714q-17 0 -17 17q0 16 17 16t17 -16q0 -17 -17 -17zM136 0v600h11v-600h-11z" />
    <glyph glyph-name="Eth" unicode="&#xd0;" horiz-adv-x="670" 
d="M281 600q84 0 149.5 -25.5t105 -68.5t59.5 -95.5t20 -110.5t-20 -110.5t-59.5 -95.5t-105 -68.5t-149.5 -25.5h-175v295h-90v10h90v295h175zM281 10q82 0 145.5 25t101.5 66.5t57 92t19 106.5t-19.5 107t-57.5 92.5t-101.5 66t-144.5 24.5h-164v-285h179v-10h-179v-285
h164z" />
    <glyph glyph-name="Ntilde" unicode="&#xd1;" horiz-adv-x="683" 
d="M276 790q-28 0 -47.5 -25t-19.5 -63h-11q0 42 23 70t56 28t72 -46q36 -44 67 -44q29 0 48 25t19 63h11q0 -43 -22.5 -70.5t-56.5 -27.5q-35 0 -74 47q-11 14 -18 21.5t-20 14.5t-27 7zM566 600h11v-600h-11l-449 583v-583h-11v600h11l449 -583v583z" />
    <glyph glyph-name="Ograve" unicode="&#xd2;" horiz-adv-x="740" 
d="M454 703l-201 97l5 10l200 -98zM370 -14q-138 0 -226.5 88t-88.5 226t88.5 226t226.5 88t226.5 -88t88.5 -226t-88.5 -226t-226.5 -88zM370 -4q132 0 218 84.5t86 219.5q0 134 -85.5 219t-218.5 85t-218.5 -85t-85.5 -219q0 -133 85.5 -218.5t218.5 -85.5z" />
    <glyph glyph-name="Oacute" unicode="&#xd3;" horiz-adv-x="740" 
d="M286 703l-4 9l200 98l5 -10zM370 -14q-138 0 -226.5 88t-88.5 226t88.5 226t226.5 88t226.5 -88t88.5 -226t-88.5 -226t-226.5 -88zM370 -4q132 0 218 84.5t86 219.5q0 134 -85.5 219t-218.5 85t-218.5 -85t-85.5 -219q0 -133 85.5 -218.5t218.5 -85.5z" />
    <glyph glyph-name="Ocircumflex" unicode="&#xd4;" horiz-adv-x="740" 
d="M371 814l-134 -125l-7 7l141 132l140 -132l-8 -7zM370 614q138 0 226.5 -88t88.5 -226t-88.5 -226t-226.5 -88t-226.5 88t-88.5 226t88.5 226t226.5 88zM370 -4q132 0 218 84.5t86 219.5q0 134 -85.5 219t-218.5 85t-218.5 -85t-85.5 -219q0 -133 85.5 -218.5
t218.5 -85.5z" />
    <glyph glyph-name="Otilde" unicode="&#xd5;" horiz-adv-x="740" 
d="M439 700q-35 0 -74 47q-11 14 -18 21.5t-20 14.5t-27 7q-28 0 -47.5 -25t-19.5 -63h-11q0 42 23 70t56 28t72 -46q36 -44 67 -44q29 0 48 25t19 63h11q0 -43 -22.5 -70.5t-56.5 -27.5zM370 -14q-138 0 -226.5 88t-88.5 226t88.5 226t226.5 88t226.5 -88t88.5 -226
t-88.5 -226t-226.5 -88zM370 -4q132 0 218 84.5t86 219.5q0 134 -85.5 219t-218.5 85t-218.5 -85t-85.5 -219q0 -133 85.5 -218.5t218.5 -85.5z" />
    <glyph glyph-name="Odieresis" unicode="&#xd6;" horiz-adv-x="740" 
d="M269 714q-17 0 -17 17q0 16 17 16t17 -16q0 -17 -17 -17zM469 714q-17 0 -17 17q0 16 17 16t17 -16q0 -17 -17 -17zM370 -14q-138 0 -226.5 88t-88.5 226t88.5 226t226.5 88t226.5 -88t88.5 -226t-88.5 -226t-226.5 -88zM370 -4q132 0 218 84.5t86 219.5q0 134 -85.5 219
t-218.5 85t-218.5 -85t-85.5 -219q0 -133 85.5 -218.5t218.5 -85.5z" />
    <glyph glyph-name="multiply" unicode="&#xd7;" horiz-adv-x="520" 
d="M446 428l-178 -178l178 -179l-7 -7l-178 179l-180 -180l-7 7l180 180l-180 179l7 7l180 -179l178 178z" />
    <glyph glyph-name="Oslash" unicode="&#xd8;" horiz-adv-x="740" 
d="M598 525q87 -89 87 -225q0 -138 -88.5 -226t-226.5 -88q-139 0 -228 89l-83 -82l-7 7l83 82q-80 88 -80 218q0 138 88.5 226t226.5 88q133 0 221 -82l76 75l7 -7zM66 300q0 -127 77 -210l440 434q-83 80 -213 80q-133 0 -218.5 -85t-85.5 -219zM370 -4q132 0 218 84.5
t86 219.5q0 133 -84 217l-440 -434q85 -87 220 -87z" />
    <glyph glyph-name="Ugrave" unicode="&#xd9;" horiz-adv-x="687" 
d="M428 703l-201 97l5 10l200 -98zM588 268q0 -132 -66 -207t-179 -75t-178.5 76t-65.5 210v328h11v-328q0 -129 63 -202.5t170 -73.5q108 0 171 73t63 200v331h11v-332z" />
    <glyph glyph-name="Uacute" unicode="&#xda;" horiz-adv-x="687" 
d="M260 703l-4 9l200 98l5 -10zM588 258q0 -118 -69.5 -195t-175.5 -77t-175 78.5t-69 197.5v338h11v-338q0 -115 66 -190.5t167 -75.5t167.5 74.5t66.5 188.5v341h11v-342z" />
    <glyph glyph-name="Ucircumflex" unicode="&#xdb;" horiz-adv-x="687" 
d="M345 814l-134 -125l-7 7l141 132l140 -132l-8 -7zM577 600h11v-342q0 -118 -69.5 -195t-175.5 -77t-175 78.5t-69 197.5v338h11v-338q0 -115 66 -190.5t167 -75.5t167.5 74.5t66.5 188.5v341z" />
    <glyph glyph-name="Udieresis" unicode="&#xdc;" horiz-adv-x="687" 
d="M243 714q-17 0 -17 17q0 16 17 16t17 -16q0 -17 -17 -17zM443 714q-17 0 -17 17q0 16 17 16t17 -16q0 -17 -17 -17zM588 258q0 -118 -69.5 -195t-175.5 -77t-175 78.5t-69 197.5v338h11v-338q0 -115 66 -190.5t167 -75.5t167.5 74.5t66.5 188.5v341h11v-342z" />
    <glyph glyph-name="Yacute" unicode="&#xdd;" horiz-adv-x="581" 
d="M407 800l-201 -97l-4 9l200 98zM527 600h11v-66q0 -116 -66 -187.5t-176 -73.5v-273h-11v273q-110 2 -176 73.5t-66 189.5v64h11v-64q0 -115 64.5 -184t171.5 -69t172 69t65 182v66z" />
    <glyph glyph-name="Thorn" unicode="&#xde;" horiz-adv-x="568" 
d="M106 0v600h11v-108h160q114 0 178.5 -51.5t64.5 -142.5q0 -89 -62.5 -139.5t-174.5 -50.5h-166v-108h-11zM117 118h166q107 0 166.5 48t59.5 133q0 86 -61.5 134.5t-170.5 48.5h-160v-364z" />
    <glyph glyph-name="germandbls" unicode="&#xdf;" horiz-adv-x="584" 
d="M383 -12q-80 0 -130 56l7 8q45 -54 122 -54q58 0 94.5 36.5t36.5 91.5q0 31 -13.5 55t-29 37t-46.5 34q-28 19 -41 29.5t-26.5 32t-13.5 47.5q0 35 38 99q43 69 43 116q0 54 -37 88t-98 34q-82 0 -129.5 -64t-47.5 -177v-457h-11v457q0 117 51 184t137 67
q65 0 105.5 -36.5t40.5 -95.5q0 -49 -44 -122q-37 -60 -37 -93q0 -23 13 -43t25 -29.5t39 -28.5q31 -21 46.5 -34t31 -39.5t15.5 -58.5q0 -56 -37 -98t-104 -42z" />
    <glyph glyph-name="agrave" unicode="&#xe0;" horiz-adv-x="524" 
d="M324 501l-6 -7l-153 129l7 8zM427 400h11v-400h-11v127q-20 -63 -70 -101t-116 -38q-85 0 -141 60.5t-56 151.5t56 151.5t141 60.5q66 0 116 -38t70 -101v127zM241 -2q80 0 133.5 57.5t53.5 144.5q0 86 -53.5 144t-132.5 58q-80 0 -133.5 -58t-53.5 -144t53.5 -144
t132.5 -58z" />
    <glyph glyph-name="aacute" unicode="&#xe1;" horiz-adv-x="524" 
d="M339 623l-153 -129l-6 7l152 130zM427 400h11v-400h-11v127q-20 -63 -70 -101t-116 -38q-85 0 -141 60.5t-56 151.5t56 151.5t141 60.5q66 0 116 -38t70 -101v127zM241 -2q80 0 133.5 57.5t53.5 144.5q0 86 -53.5 144t-132.5 58q-80 0 -133.5 -58t-53.5 -144t53.5 -144
t132.5 -58z" />
    <glyph glyph-name="acircumflex" unicode="&#xe2;" horiz-adv-x="524" 
d="M253 614l-134 -125l-7 7l141 132l140 -132l-8 -7zM427 400h11v-400h-11v127q-20 -63 -70 -101t-116 -38q-85 0 -141 60.5t-56 151.5t56 151.5t141 60.5q66 0 116 -38t70 -101v127zM241 -2q80 0 133.5 57.5t53.5 144.5q0 86 -53.5 144t-132.5 58q-80 0 -133.5 -58
t-53.5 -144t53.5 -144t132.5 -58z" />
    <glyph glyph-name="atilde" unicode="&#xe3;" horiz-adv-x="524" 
d="M182 590q-28 0 -47.5 -25t-19.5 -63h-11q0 42 23 70t56 28t72 -46q36 -44 67 -44q29 0 48 25t19 63h11q0 -43 -22.5 -70.5t-56.5 -27.5q-35 0 -74 47q-11 14 -18 21.5t-20 14.5t-27 7zM427 400h11v-400h-11v127q-20 -63 -70 -101t-116 -38q-85 0 -141 60.5t-56 151.5
t56 151.5t141 60.5q66 0 116 -38t70 -101v127zM241 -2q80 0 133.5 57.5t53.5 144.5q0 86 -53.5 144t-132.5 58q-80 0 -133.5 -58t-53.5 -144t53.5 -144t132.5 -58z" />
    <glyph glyph-name="adieresis" unicode="&#xe4;" horiz-adv-x="524" 
d="M152 554q-17 0 -17 17q0 16 17 16t17 -16q0 -17 -17 -17zM352 554q-17 0 -17 17q0 16 17 16t17 -16q0 -17 -17 -17zM427 400h11v-400h-11v127q-20 -63 -70 -101t-116 -38q-85 0 -141 60.5t-56 151.5t56 151.5t141 60.5q66 0 116 -38t70 -101v127zM241 -2q80 0 133.5 57.5
t53.5 144.5q0 86 -53.5 144t-132.5 58q-80 0 -133.5 -58t-53.5 -144t53.5 -144t132.5 -58z" />
    <glyph glyph-name="aring" unicode="&#xe5;" horiz-adv-x="524" 
d="M253 487q-40 0 -65 25t-25 64t25 64t65 25t65 -25t25 -64t-25 -64t-65 -25zM253 655q-35 0 -57 -22.5t-22 -56.5t22 -56.5t57 -22.5t57 22.5t22 56.5t-22 56.5t-57 22.5zM427 400h11v-400h-11v127q-20 -63 -70 -101t-116 -38q-85 0 -141 60.5t-56 151.5t56 151.5
t141 60.5q66 0 116 -38t70 -101v127zM241 -2q80 0 133.5 57.5t53.5 144.5q0 86 -53.5 144t-132.5 58q-80 0 -133.5 -58t-53.5 -144t53.5 -144t132.5 -58z" />
    <glyph glyph-name="ae" unicode="&#xe6;" horiz-adv-x="823" 
d="M771 215l-343 -1v-14q0 -87 48.5 -144.5t132.5 -57.5q91 0 149 63l8 -8q-62 -65 -158 -65q-67 0 -114.5 37t-65.5 100v-125h-11v125q-19 -62 -66.5 -99.5t-111.5 -37.5q-83 0 -139 60.5t-56 151.5t56 151.5t139 60.5q64 0 111.5 -37.5t66.5 -99.5v125h11v-126
q18 64 65 101t112 37q75 0 121 -49t46 -138q0 -7 -1 -10zM240 -2q77 0 127.5 57.5t50.5 144.5t-50.5 144.5t-127.5 57.5q-78 0 -131.5 -58t-53.5 -144t53.5 -144t131.5 -58zM605 402q-72 0 -120.5 -48t-55.5 -130l332 1q-1 84 -44 130.5t-112 46.5z" />
    <glyph glyph-name="ccedilla" unicode="&#xe7;" horiz-adv-x="431" 
d="M382 354q-56 48 -132 48q-87 0 -141 -56t-54 -145t55.5 -146t140.5 -57q81 0 134 52l8 -7q-57 -55 -144 -55q-89 0 -147 59.5t-58 153.5q0 93 57 152t150 59q83 0 138 -50zM251 -220h-10v135h10v-135z" />
    <glyph glyph-name="egrave" unicode="&#xe8;" horiz-adv-x="488" 
d="M327 501l-6 -7l-153 129l7 8zM436 215l-376 -1v-12q0 -88 54.5 -146t147.5 -58q100 0 161 63l8 -8q-65 -65 -170 -65q-94 0 -153 59t-59 153q0 93 57 152.5t147 59.5q84 0 134 -48.5t50 -138.5q0 -7 -1 -10zM253 402q-78 0 -131.5 -48.5t-60.5 -129.5l365 1
q-1 85 -48 131t-125 46z" />
    <glyph glyph-name="eacute" unicode="&#xe9;" horiz-adv-x="488" 
d="M342 623l-153 -129l-6 7l152 130zM436 215l-376 -1v-12q0 -88 54.5 -146t147.5 -58q100 0 161 63l8 -8q-65 -65 -170 -65q-94 0 -153 59t-59 153q0 93 57 152.5t147 59.5q84 0 134 -48.5t50 -138.5q0 -7 -1 -10zM253 402q-78 0 -131.5 -48.5t-60.5 -129.5l365 1
q-1 85 -48 131t-125 46z" />
    <glyph glyph-name="ecircumflex" unicode="&#xea;" horiz-adv-x="488" 
d="M256 614l-134 -125l-7 7l141 132l140 -132l-8 -7zM436 215l-376 -1v-12q0 -88 54.5 -146t147.5 -58q100 0 161 63l8 -8q-65 -65 -170 -65q-94 0 -153 59t-59 153q0 93 57 152.5t147 59.5q84 0 134 -48.5t50 -138.5q0 -7 -1 -10zM253 402q-78 0 -131.5 -48.5t-60.5 -129.5
l365 1q-1 85 -48 131t-125 46z" />
    <glyph glyph-name="edieresis" unicode="&#xeb;" horiz-adv-x="488" 
d="M155 554q-17 0 -17 17q0 16 17 16t17 -16q0 -17 -17 -17zM355 554q-17 0 -17 17q0 16 17 16t17 -16q0 -17 -17 -17zM436 215l-376 -1v-12q0 -88 54.5 -146t147.5 -58q100 0 161 63l8 -8q-65 -65 -170 -65q-94 0 -153 59t-59 153q0 93 57 152.5t147 59.5q84 0 134 -48.5
t50 -138.5q0 -7 -1 -10zM253 402q-78 0 -131.5 -48.5t-60.5 -129.5l365 1q-1 85 -48 131t-125 46z" />
    <glyph glyph-name="igrave" unicode="&#xec;" horiz-adv-x="233" 
d="M182 494l-153 129l7 8l152 -130zM111 0v400h11v-400h-11z" />
    <glyph glyph-name="iacute" unicode="&#xed;" horiz-adv-x="233" 
d="M50 494l-6 7l152 130l7 -8zM111 0v400h11v-400h-11z" />
    <glyph glyph-name="icircumflex" unicode="&#xee;" horiz-adv-x="233" 
d="M117 623l110 -132l-8 -7l-102 124l-104 -124l-7 7zM111 0v400h11v-400h-11z" />
    <glyph glyph-name="idieresis" unicode="&#xef;" horiz-adv-x="233" 
d="M51 554q-17 0 -17 17q0 16 17 16t17 -16q0 -17 -17 -17zM181 554q-17 0 -17 17q0 16 17 16t17 -16q0 -17 -17 -17zM111 0v400h11v-400h-11z" />
    <glyph glyph-name="eth" unicode="&#xf0;" horiz-adv-x="500" 
d="M269 616q82 -68 134.5 -166t52.5 -194q0 -125 -56.5 -196.5t-152.5 -71.5q-90 0 -146.5 59.5t-56.5 151.5q0 89 53.5 145t137.5 56q62 0 118 -32t91 -88q-6 89 -56.5 178t-127.5 152l-152 -108l-6 8l150 106q-84 65 -167 76l2 10q87 -12 174 -79l110 78l7 -8zM247 -2
q92 0 145 69t53 191q-34 62 -90.5 97t-120.5 35q-79 0 -129 -53t-50 -138q0 -88 53.5 -144.5t138.5 -56.5z" />
    <glyph glyph-name="ntilde" unicode="&#xf1;" horiz-adv-x="519" 
d="M189 590q-28 0 -47.5 -25t-19.5 -63h-11q0 42 23 70t56 28t72 -46q36 -44 67 -44q29 0 48 25t19 63h11q0 -43 -22.5 -70.5t-56.5 -27.5q-35 0 -74 47q-11 14 -18 21.5t-20 14.5t-27 7zM276 412q74 0 115 -48t41 -131v-233h-11v229q0 80 -38 126.5t-108 46.5
q-77 0 -127 -53.5t-50 -138.5v-210h-11v400h11v-119q19 60 66.5 95.5t111.5 35.5z" />
    <glyph glyph-name="ograve" unicode="&#xf2;" horiz-adv-x="500" 
d="M318 494l-153 129l7 8l152 -130zM250 -12q-90 0 -148 59.5t-58 152.5t58 152.5t148 59.5t148 -59.5t58 -152.5t-58 -152.5t-148 -59.5zM250 -2q85 0 140 57.5t55 145.5q0 89 -55 145t-140 56t-140 -56t-55 -145q0 -88 55 -145.5t140 -57.5z" />
    <glyph glyph-name="oacute" unicode="&#xf3;" horiz-adv-x="500" 
d="M186 494l-6 7l152 130l7 -8zM250 -12q-90 0 -148 59.5t-58 152.5t58 152.5t148 59.5t148 -59.5t58 -152.5t-58 -152.5t-148 -59.5zM250 -2q85 0 140 57.5t55 145.5q0 89 -55 145t-140 56t-140 -56t-55 -145q0 -88 55 -145.5t140 -57.5z" />
    <glyph glyph-name="ocircumflex" unicode="&#xf4;" horiz-adv-x="500" 
d="M253 614l-134 -125l-7 7l141 132l140 -132l-8 -7zM250 412q90 0 148 -59.5t58 -152.5t-58 -152.5t-148 -59.5t-148 59.5t-58 152.5t58 152.5t148 59.5zM250 -2q85 0 140 57.5t55 145.5q0 89 -55 145t-140 56t-140 -56t-55 -145q0 -88 55 -145.5t140 -57.5z" />
    <glyph glyph-name="otilde" unicode="&#xf5;" horiz-adv-x="500" 
d="M321 500q-35 0 -74 47q-11 14 -18 21.5t-20 14.5t-27 7q-28 0 -47.5 -25t-19.5 -63h-11q0 42 23 70t56 28t72 -46q36 -44 67 -44q29 0 48 25t19 63h11q0 -43 -22.5 -70.5t-56.5 -27.5zM250 -12q-90 0 -148 59.5t-58 152.5t58 152.5t148 59.5t148 -59.5t58 -152.5
t-58 -152.5t-148 -59.5zM250 -2q85 0 140 57.5t55 145.5q0 89 -55 145t-140 56t-140 -56t-55 -145q0 -88 55 -145.5t140 -57.5z" />
    <glyph glyph-name="odieresis" unicode="&#xf6;" horiz-adv-x="500" 
d="M152 554q-17 0 -17 17q0 16 17 16t17 -16q0 -17 -17 -17zM352 554q-17 0 -17 17q0 16 17 16t17 -16q0 -17 -17 -17zM250 -12q-90 0 -148 59.5t-58 152.5t58 152.5t148 59.5t148 -59.5t58 -152.5t-58 -152.5t-148 -59.5zM250 -2q85 0 140 57.5t55 145.5q0 89 -55 145
t-140 56t-140 -56t-55 -145q0 -88 55 -145.5t140 -57.5z" />
    <glyph glyph-name="divide" unicode="&#xf7;" horiz-adv-x="520" 
d="M263 458q-17 0 -17 17q0 16 17 16t17 -16q0 -17 -17 -17zM490 245h-460v10h460v-10zM263 -4q-17 0 -17 17q0 16 17 16t17 -16q0 -17 -17 -17z" />
    <glyph glyph-name="oslash" unicode="&#xf8;" horiz-adv-x="500" 
d="M458 400l-55 -53q53 -58 53 -147q0 -93 -58 -152.5t-148 -59.5q-94 0 -151 63l-60 -58l-7 7l60 58q-48 59 -48 142q0 93 58 152.5t148 59.5t146 -58l55 53zM55 201q0 -79 45 -135l289 281q-53 55 -139 55q-85 0 -140 -56t-55 -145zM445 201q0 84 -49 139l-289 -281
q56 -61 143 -61q85 0 140 57.5t55 145.5z" />
    <glyph glyph-name="ugrave" unicode="&#xf9;" horiz-adv-x="519" 
d="M333 501l-6 -7l-153 129l7 8zM421 400h11v-400h-11v119q-18 -61 -66 -96t-116 -35q-152 0 -152 189v223h11v-219q0 -183 142 -183q81 0 131 53t50 139v210z" />
    <glyph glyph-name="uacute" unicode="&#xfa;" horiz-adv-x="519" 
d="M348 623l-153 -129l-6 7l152 130zM421 400h11v-400h-11v119q-18 -61 -66 -96t-116 -35q-152 0 -152 189v223h11v-219q0 -183 142 -183q81 0 131 53t50 139v210z" />
    <glyph glyph-name="ucircumflex" unicode="&#xfb;" horiz-adv-x="519" 
d="M262 614l-134 -125l-7 7l141 132l140 -132l-8 -7zM421 400h11v-400h-11v119q-18 -61 -66 -96t-116 -35q-152 0 -152 189v223h11v-219q0 -183 142 -183q81 0 131 53t50 139v210z" />
    <glyph glyph-name="udieresis" unicode="&#xfc;" horiz-adv-x="519" 
d="M161 554q-17 0 -17 17q0 16 17 16t17 -16q0 -17 -17 -17zM361 554q-17 0 -17 17q0 16 17 16t17 -16q0 -17 -17 -17zM421 400h11v-400h-11v119q-18 -61 -66 -96t-116 -35q-152 0 -152 189v223h11v-219q0 -183 142 -183q81 0 131 53t50 139v210z" />
    <glyph glyph-name="yacute" unicode="&#xfd;" horiz-adv-x="518" 
d="M346 623l-153 -129l-6 7l152 130zM421 400h11v-428q0 -97 -49 -150t-137 -53q-99 0 -154 57l7 7q56 -54 147 -54q83 0 129 50.5t46 142.5v150q-17 -62 -65.5 -98t-117.5 -36q-152 0 -152 189v223h11v-219q0 -183 142 -183q81 0 131.5 53t50.5 139v210z" />
    <glyph glyph-name="thorn" unicode="&#xfe;" horiz-adv-x="534" 
d="M293 412q85 0 141 -60.5t56 -151.5t-56 -151.5t-141 -60.5q-66 0 -116 38t-70 101v-347h-11v920h11v-427q20 63 70 101t116 38zM292 -2q80 0 133.5 58t53.5 144t-53.5 144t-132.5 58q-80 0 -133.5 -57.5t-53.5 -144.5q0 -86 53.5 -144t132.5 -58z" />
    <glyph glyph-name="ydieresis" unicode="&#xff;" horiz-adv-x="518" 
d="M159 554q-17 0 -17 17q0 16 17 16t17 -16q0 -17 -17 -17zM359 554q-17 0 -17 17q0 16 17 16t17 -16q0 -17 -17 -17zM421 400h11v-428q0 -97 -49 -150t-137 -53q-99 0 -154 57l7 7q56 -54 147 -54q83 0 129 50.5t46 142.5v150q-17 -62 -65.5 -98t-117.5 -36
q-152 0 -152 189v223h11v-219q0 -183 142 -183q81 0 131.5 53t50.5 139v210z" />
    <glyph glyph-name="Amacron" unicode="&#x100;" horiz-adv-x="632" 
d="M466 748v-10h-300v10h300zM568 0l-91 213h-323l-90 -213h-11l255 600h14l257 -600h-11zM159 223h314l-158 368z" />
    <glyph glyph-name="amacron" unicode="&#x101;" horiz-adv-x="524" 
d="M402 548v-10h-300v10h300zM427 400h11v-400h-11v127q-20 -63 -70 -101t-116 -38q-85 0 -141 60.5t-56 151.5t56 151.5t141 60.5q66 0 116 -38t70 -101v127zM241 -2q80 0 133.5 57.5t53.5 144.5q0 86 -53.5 144t-132.5 58q-80 0 -133.5 -58t-53.5 -144t53.5 -144
t132.5 -58z" />
    <glyph glyph-name="Abreve" unicode="&#x102;" horiz-adv-x="632" 
d="M316 692q-55 0 -91 38t-36 96h11q0 -54 33 -89t84 -35t83 34.5t32 89.5h11q0 -58 -36 -96t-91 -38zM568 0l-91 213h-323l-90 -213h-11l255 600h14l257 -600h-11zM159 223h314l-158 368z" />
    <glyph glyph-name="abreve" unicode="&#x103;" horiz-adv-x="524" 
d="M252 492q-55 0 -91 38t-36 96h11q0 -54 33 -89t84 -35t83 34.5t32 89.5h11q0 -58 -36 -96t-91 -38zM427 400h11v-400h-11v127q-20 -63 -70 -101t-116 -38q-85 0 -141 60.5t-56 151.5t56 151.5t141 60.5q66 0 116 -38t70 -101v127zM241 -2q80 0 133.5 57.5t53.5 144.5
q0 86 -53.5 144t-132.5 58q-80 0 -133.5 -58t-53.5 -144t53.5 -144t132.5 -58z" />
    <glyph glyph-name="Aogonek" unicode="&#x104;" horiz-adv-x="632" 
d="M493 -134q0 -39 27 -61t74 -22v-10h-4q-51 0 -79.5 24.5t-28.5 66.5q0 77 84 140l-89 209h-323l-90 -213h-11l255 600h14l257 -600q-86 -58 -86 -134zM159 223h314l-158 368z" />
    <glyph glyph-name="aogonek" unicode="&#x105;" horiz-adv-x="524" 
d="M352 -134q0 -39 27 -61t74 -22v-10h-4q-51 0 -79.5 24.5t-28.5 66.5q0 78 86 140v123q-20 -63 -70 -101t-116 -38q-85 0 -141 60.5t-56 151.5t56 151.5t141 60.5q66 0 116 -38t70 -101v127h11v-400q-86 -58 -86 -134zM241 -2q80 0 133.5 57.5t53.5 144.5q0 86 -53.5 144
t-132.5 58q-80 0 -133.5 -58t-53.5 -144t53.5 -144t132.5 -58z" />
    <glyph glyph-name="Cacute" unicode="&#x106;" horiz-adv-x="630" 
d="M279 703l-4 9l200 98l5 -10zM598 110q-100 -124 -248 -124q-126 0 -210.5 88.5t-84.5 224.5q0 138 85.5 226.5t216.5 88.5q73 0 134 -30.5t99 -85.5l-9 -5q-81 111 -225 111q-126 0 -208 -86t-82 -219q0 -132 81.5 -217.5t203.5 -85.5q143 0 239 120z" />
    <glyph glyph-name="cacute" unicode="&#x107;" horiz-adv-x="431" 
d="M180 494l-6 7l152 130l7 -8zM382 354q-56 48 -132 48q-87 0 -141 -56t-54 -145t55.5 -146t140.5 -57q81 0 134 52l8 -7q-57 -55 -144 -55q-89 0 -147 59.5t-58 153.5q0 93 57 152t150 59q83 0 138 -50z" />
    <glyph glyph-name="Ccircumflex" unicode="&#x108;" horiz-adv-x="630" 
d="M364 814l-134 -125l-7 7l141 132l140 -132l-8 -7zM590 116l8 -6q-100 -124 -248 -124q-126 0 -210.5 88.5t-84.5 224.5q0 138 85.5 226.5t216.5 88.5q73 0 134 -30.5t99 -85.5l-9 -5q-81 111 -225 111q-126 0 -208 -86t-82 -219q0 -132 81.5 -217.5t203.5 -85.5
q143 0 239 120z" />
    <glyph glyph-name="ccircumflex" unicode="&#x109;" horiz-adv-x="431" 
d="M247 614l-134 -125l-7 7l141 132l140 -132l-8 -7zM385 50l8 -7q-57 -55 -144 -55q-89 0 -147 59.5t-58 153.5q0 93 57 152t150 59q83 0 138 -50l-7 -8q-56 48 -132 48q-87 0 -141 -56t-54 -145t55.5 -146t140.5 -57q81 0 134 52z" />
    <glyph glyph-name="Cdotaccent" unicode="&#x10a;" horiz-adv-x="630" 
d="M363 731q-17 0 -17 17q0 16 17 16t17 -16q0 -17 -17 -17zM598 110q-100 -124 -248 -124q-126 0 -210.5 88.5t-84.5 224.5q0 138 85.5 226.5t216.5 88.5q73 0 134 -30.5t99 -85.5l-9 -5q-81 111 -225 111q-126 0 -208 -86t-82 -219q0 -132 81.5 -217.5t203.5 -85.5
q143 0 239 120z" />
    <glyph glyph-name="cdotaccent" unicode="&#x10b;" horiz-adv-x="431" 
d="M246 554q-17 0 -17 17q0 16 17 16t17 -16q0 -17 -17 -17zM382 354q-56 48 -132 48q-87 0 -141 -56t-54 -145t55.5 -146t140.5 -57q81 0 134 52l8 -7q-57 -55 -144 -55q-89 0 -147 59.5t-58 153.5q0 93 57 152t150 59q83 0 138 -50z" />
    <glyph glyph-name="Ccaron" unicode="&#x10c;" horiz-adv-x="630" 
d="M504 816l-141 -132l-140 132l8 7l132 -125l134 125zM590 116l8 -6q-100 -124 -248 -124q-126 0 -210.5 88.5t-84.5 224.5q0 138 85.5 226.5t216.5 88.5q73 0 134 -30.5t99 -85.5l-9 -5q-81 111 -225 111q-126 0 -208 -86t-82 -219q0 -132 81.5 -217.5t203.5 -85.5
q143 0 239 120z" />
    <glyph glyph-name="ccaron" unicode="&#x10d;" horiz-adv-x="431" 
d="M387 616l-141 -132l-140 132l8 7l132 -125l134 125zM385 50l8 -7q-57 -55 -144 -55q-89 0 -147 59.5t-58 153.5q0 93 57 152t150 59q83 0 138 -50l-7 -8q-56 48 -132 48q-87 0 -141 -56t-54 -145t55.5 -146t140.5 -57q81 0 134 52z" />
    <glyph glyph-name="Dcaron" unicode="&#x10e;" horiz-adv-x="670" 
d="M428 816l-141 -132l-140 132l8 7l132 -125l134 125zM281 600q84 0 149.5 -25.5t105 -68.5t59.5 -95.5t20 -110.5t-20 -110.5t-59.5 -95.5t-105 -68.5t-149.5 -25.5h-175v600h175zM281 10q82 0 145.5 25t101.5 66.5t57 92t19 106.5t-19.5 107t-57.5 92.5t-101.5 66
t-144.5 24.5h-164v-580h164z" />
    <glyph glyph-name="dcaron" unicode="&#x10f;" horiz-adv-x="534" 
d="M427 273v427h11v-700h-11v127q-20 -63 -70 -101t-116 -38q-85 0 -141 60.5t-56 151.5t56 151.5t141 60.5q66 0 116 -38t70 -101zM539 700l1 -211l-10 -5l-1 216h10zM241 -2q80 0 133.5 57.5t53.5 144.5q0 86 -53.5 144t-132.5 58q-80 0 -133.5 -58t-53.5 -144t53.5 -144
t132.5 -58z" />
    <glyph glyph-name="Dcroat" unicode="&#x110;" horiz-adv-x="670" 
d="M281 600q84 0 149.5 -25.5t105 -68.5t59.5 -95.5t20 -110.5t-20 -110.5t-59.5 -95.5t-105 -68.5t-149.5 -25.5h-175v295h-90v10h90v295h175zM281 10q82 0 145.5 25t101.5 66.5t57 92t19 106.5t-19.5 107t-57.5 92.5t-101.5 66t-144.5 24.5h-164v-285h179v-10h-179v-285
h164z" />
    <glyph glyph-name="dcroat" unicode="&#x111;" horiz-adv-x="534" 
d="M520 535v-10h-82v-525h-11v127q-20 -63 -70 -101t-116 -38q-85 0 -141 60.5t-56 151.5t56 151.5t141 60.5q66 0 116 -38t70 -101v252h-187v10h187v165h11v-165h82zM241 -2q80 0 133.5 57.5t53.5 144.5q0 86 -53.5 144t-132.5 58q-80 0 -133.5 -58t-53.5 -144t53.5 -144
t132.5 -58z" />
    <glyph glyph-name="Emacron" unicode="&#x112;" horiz-adv-x="580" 
d="M466 748v-10h-300v10h300zM117 10h415v-10h-426v600h416v-10h-405v-277h385v-10h-385v-293z" />
    <glyph glyph-name="emacron" unicode="&#x113;" horiz-adv-x="488" 
d="M405 548v-10h-300v10h300zM436 215l-376 -1v-12q0 -88 54.5 -146t147.5 -58q100 0 161 63l8 -8q-65 -65 -170 -65q-94 0 -153 59t-59 153q0 93 57 152.5t147 59.5q84 0 134 -48.5t50 -138.5q0 -7 -1 -10zM253 402q-78 0 -131.5 -48.5t-60.5 -129.5l365 1q-1 85 -48 131
t-125 46z" />
    <glyph glyph-name="Ebreve" unicode="&#x114;" horiz-adv-x="580" 
d="M316 692q-55 0 -91 38t-36 96h11q0 -54 33 -89t84 -35t83 34.5t32 89.5h11q0 -58 -36 -96t-91 -38zM117 10h415v-10h-426v600h416v-10h-405v-277h385v-10h-385v-293z" />
    <glyph glyph-name="ebreve" unicode="&#x115;" horiz-adv-x="488" 
d="M255 492q-55 0 -91 38t-36 96h11q0 -54 33 -89t84 -35t83 34.5t32 89.5h11q0 -58 -36 -96t-91 -38zM436 215l-376 -1v-12q0 -88 54.5 -146t147.5 -58q100 0 161 63l8 -8q-65 -65 -170 -65q-94 0 -153 59t-59 153q0 93 57 152.5t147 59.5q84 0 134 -48.5t50 -138.5
q0 -7 -1 -10zM253 402q-78 0 -131.5 -48.5t-60.5 -129.5l365 1q-1 85 -48 131t-125 46z" />
    <glyph glyph-name="Edotaccent" unicode="&#x116;" horiz-adv-x="580" 
d="M316 731q-17 0 -17 17q0 16 17 16t17 -16q0 -17 -17 -17zM117 10h415v-10h-426v600h416v-10h-405v-277h385v-10h-385v-293z" />
    <glyph glyph-name="edotaccent" unicode="&#x117;" horiz-adv-x="488" 
d="M255 554q-17 0 -17 17q0 16 17 16t17 -16q0 -17 -17 -17zM436 215l-376 -1v-12q0 -88 54.5 -146t147.5 -58q100 0 161 63l8 -8q-65 -65 -170 -65q-94 0 -153 59t-59 153q0 93 57 152.5t147 59.5q84 0 134 -48.5t50 -138.5q0 -7 -1 -10zM253 402q-78 0 -131.5 -48.5
t-60.5 -129.5l365 1q-1 85 -48 131t-125 46z" />
    <glyph glyph-name="Eogonek" unicode="&#x118;" horiz-adv-x="580" 
d="M446 -134q0 -39 27 -61t74 -22v-10h-4q-51 0 -79.5 24.5t-28.5 66.5q0 73 79 136h-408v600h416v-10h-405v-277h385v-10h-385v-293h415v-10q-86 -58 -86 -134z" />
    <glyph glyph-name="eogonek" unicode="&#x119;" horiz-adv-x="488" 
d="M345 -121q0 -42 26.5 -64t74.5 -22v-10h-4q-51 0 -79.5 24.5t-28.5 70.5q0 63 63 148q-60 -38 -136 -38q-94 0 -153 59t-59 153q0 93 57 152.5t147 59.5q84 0 134 -48.5t50 -138.5q0 -7 -1 -10l-376 -1v-12q0 -88 54.5 -146t147.5 -58q100 0 161 63l8 -8
q-86 -102 -86 -174zM253 402q-78 0 -131.5 -48.5t-60.5 -129.5l365 1q-1 85 -48 131t-125 46z" />
    <glyph glyph-name="Ecaron" unicode="&#x11a;" horiz-adv-x="580" 
d="M457 816l-141 -132l-140 132l8 7l132 -125l134 125zM117 10h415v-10h-426v600h416v-10h-405v-277h385v-10h-385v-293z" />
    <glyph glyph-name="ecaron" unicode="&#x11b;" horiz-adv-x="488" 
d="M396 616l-141 -132l-140 132l8 7l132 -125l134 125zM436 215l-376 -1v-12q0 -88 54.5 -146t147.5 -58q100 0 161 63l8 -8q-65 -65 -170 -65q-94 0 -153 59t-59 153q0 93 57 152.5t147 59.5q84 0 134 -48.5t50 -138.5q0 -7 -1 -10zM253 402q-78 0 -131.5 -48.5
t-60.5 -129.5l365 1q-1 85 -48 131t-125 46z" />
    <glyph glyph-name="Gcircumflex" unicode="&#x11c;" horiz-adv-x="739" 
d="M376 814l-134 -125l-7 7l141 132l140 -132l-8 -7zM364 307h320v-6q0 -139 -82.5 -227t-228.5 -88q-139 0 -228.5 87t-89.5 223q0 140 90 229.5t231 89.5q137 0 236 -91l-7 -8q-98 89 -229 89q-136 0 -223 -86.5t-87 -222.5q0 -131 86.5 -215.5t220.5 -84.5
q136 0 217 83.5t83 217.5h-309v10z" />
    <glyph glyph-name="gcircumflex" unicode="&#x11d;" horiz-adv-x="524" 
d="M256 614l-134 -125l-7 7l141 132l140 -132l-8 -7zM427 400h11v-418q0 -102 -53.5 -157.5t-149.5 -55.5q-107 0 -167 57l7 7q60 -54 161 -54q91 0 141 53t50 150v145q-20 -63 -70 -101t-116 -38q-85 0 -141 60.5t-56 151.5t56 151.5t141 60.5q66 0 116 -38t70 -101v127z
M242 -2q80 0 133 57.5t53 144.5q0 86 -53.5 144t-132.5 58q-80 0 -133.5 -58t-53.5 -144t53.5 -144t133.5 -58z" />
    <glyph glyph-name="Gbreve" unicode="&#x11e;" horiz-adv-x="739" 
d="M375 692q-55 0 -91 38t-36 96h11q0 -54 33 -89t84 -35t83 34.5t32 89.5h11q0 -58 -36 -96t-91 -38zM364 307h320v-6q0 -139 -82.5 -227t-228.5 -88q-139 0 -228.5 87t-89.5 223q0 140 90 229.5t231 89.5q137 0 236 -91l-7 -8q-98 89 -229 89q-136 0 -223 -86.5
t-87 -222.5q0 -131 86.5 -215.5t220.5 -84.5q136 0 217 83.5t83 217.5h-309v10z" />
    <glyph glyph-name="gbreve" unicode="&#x11f;" horiz-adv-x="524" 
d="M255 492q-55 0 -91 38t-36 96h11q0 -54 33 -89t84 -35t83 34.5t32 89.5h11q0 -58 -36 -96t-91 -38zM427 400h11v-418q0 -102 -53.5 -157.5t-149.5 -55.5q-107 0 -167 57l7 7q60 -54 161 -54q91 0 141 53t50 150v145q-20 -63 -70 -101t-116 -38q-85 0 -141 60.5t-56 151.5
t56 151.5t141 60.5q66 0 116 -38t70 -101v127zM242 -2q80 0 133 57.5t53 144.5q0 86 -53.5 144t-132.5 58q-80 0 -133.5 -58t-53.5 -144t53.5 -144t133.5 -58z" />
    <glyph glyph-name="Gdotaccent" unicode="&#x120;" horiz-adv-x="739" 
d="M375 731q-17 0 -17 17q0 16 17 16t17 -16q0 -17 -17 -17zM364 307h320v-6q0 -139 -82.5 -227t-228.5 -88q-139 0 -228.5 87t-89.5 223q0 140 90 229.5t231 89.5q137 0 236 -91l-7 -8q-98 89 -229 89q-136 0 -223 -86.5t-87 -222.5q0 -131 86.5 -215.5t220.5 -84.5
q136 0 217 83.5t83 217.5h-309v10z" />
    <glyph glyph-name="gdotaccent" unicode="&#x121;" horiz-adv-x="524" 
d="M255 554q-17 0 -17 17q0 16 17 16t17 -16q0 -17 -17 -17zM427 400h11v-418q0 -102 -53.5 -157.5t-149.5 -55.5q-107 0 -167 57l7 7q60 -54 161 -54q91 0 141 53t50 150v145q-20 -63 -70 -101t-116 -38q-85 0 -141 60.5t-56 151.5t56 151.5t141 60.5q66 0 116 -38t70 -101
v127zM242 -2q80 0 133 57.5t53 144.5q0 86 -53.5 144t-132.5 58q-80 0 -133.5 -58t-53.5 -144t53.5 -144t133.5 -58z" />
    <glyph glyph-name="Gcommaaccent" unicode="&#x122;" horiz-adv-x="739" 
d="M364 307h320v-6q0 -139 -82.5 -227t-228.5 -88q-139 0 -228.5 87t-89.5 223q0 140 90 229.5t231 89.5q137 0 236 -91l-7 -8q-98 89 -229 89q-136 0 -223 -86.5t-87 -222.5q0 -131 86.5 -215.5t220.5 -84.5q136 0 217 83.5t83 217.5h-309v10zM357 -221l36 163l11 -2
l-37 -163z" />
    <glyph glyph-name="gcommaaccent" unicode="&#x123;" horiz-adv-x="524" 
d="M285 674l-42 -192l-11 2l43 192zM427 400h11v-418q0 -102 -53.5 -157.5t-149.5 -55.5q-107 0 -167 57l7 7q60 -54 161 -54q91 0 141 53t50 150v145q-20 -63 -70 -101t-116 -38q-85 0 -141 60.5t-56 151.5t56 151.5t141 60.5q66 0 116 -38t70 -101v127zM242 -2
q80 0 133 57.5t53 144.5q0 86 -53.5 144t-132.5 58q-80 0 -133.5 -58t-53.5 -144t53.5 -144t133.5 -58z" />
    <glyph glyph-name="Hcircumflex" unicode="&#x124;" horiz-adv-x="693" 
d="M348 814l-134 -125l-7 7l141 132l140 -132l-8 -7zM576 600h11v-600h-11v303h-459v-303h-11v600h11v-287h459v287z" />
    <glyph glyph-name="hcircumflex" unicode="&#x125;" horiz-adv-x="518" 
d="M233 648l-132 125l-134 -125l-7 7l141 132l140 -132zM281 412q151 0 151 -189v-223h-11v219q0 183 -141 183q-81 0 -131.5 -54t-50.5 -138v-210h-11v630h11v-354q18 62 67 99t116 37z" />
    <glyph glyph-name="Hbar" unicode="&#x126;" horiz-adv-x="693" 
d="M576 600h11v-600h-11v187h-459v-187h-11v600h11v-183h459v183zM117 197h459v210h-459v-210z" />
    <glyph glyph-name="hbar" unicode="&#x127;" horiz-adv-x="528" 
d="M290 412q151 0 151 -189v-223h-11v219q0 183 -141 183q-81 0 -131.5 -54t-50.5 -138v-210h-11v525h-87v10h87v165h11v-165h182v-10h-182v-245q19 61 67.5 96.5t115.5 35.5z" />
    <glyph glyph-name="Itilde" unicode="&#x128;" horiz-adv-x="283" 
d="M210 700q-35 0 -74 47q-11 14 -18 21.5t-20 14.5t-27 7q-28 0 -47.5 -25t-19.5 -63h-11q0 42 23 70t56 28t72 -46q36 -44 67 -44q29 0 48 25t19 63h11q0 -43 -22.5 -70.5t-56.5 -27.5zM136 0v600h11v-600h-11z" />
    <glyph glyph-name="itilde" unicode="&#x129;" horiz-adv-x="233" 
d="M185 500q-35 0 -74 47q-11 14 -18 21.5t-20 14.5t-27 7q-28 0 -47.5 -25t-19.5 -63h-11q0 42 23 70t56 28t72 -46q36 -44 67 -44q29 0 48 25t19 63h11q0 -43 -22.5 -70.5t-56.5 -27.5zM111 0v400h11v-400h-11z" />
    <glyph glyph-name="Imacron" unicode="&#x12a;" horiz-adv-x="283" 
d="M251 738h-220v10h220v-10zM136 0v600h11v-600h-11z" />
    <glyph glyph-name="imacron" unicode="&#x12b;" horiz-adv-x="233" 
d="M226 538h-220v10h220v-10zM111 0v400h11v-400h-11z" />
    <glyph glyph-name="Ibreve" unicode="&#x12c;" horiz-adv-x="283" 
d="M25 826q0 -54 33 -89t84 -35t83 34.5t32 89.5h11q0 -58 -36 -96t-91 -38t-91 38t-36 96h11zM136 0v600h11v-600h-11z" />
    <glyph glyph-name="ibreve" unicode="&#x12d;" horiz-adv-x="233" 
d="M30 606q0 -48 23.5 -76t63.5 -28q39 0 62 28t23 76v20h11v-20q0 -52 -26.5 -83t-70.5 -31t-70.5 31t-26.5 83v20h11v-20zM111 0v400h11v-400h-11z" />
    <glyph glyph-name="Iogonek" unicode="&#x12e;" horiz-adv-x="283" 
d="M61 -134q0 -39 27 -61t74 -22v-10h-4q-51 0 -79.5 24.5t-28.5 66.5q0 79 86 141v595h11v-600q-86 -58 -86 -134z" />
    <glyph glyph-name="iogonek" unicode="&#x12f;" horiz-adv-x="233" 
d="M116 554q-17 0 -17 17q0 16 17 16t17 -16q0 -17 -17 -17zM74 -115q0 -48 27 -75t74 -27v-10h-4q-50 0 -79 30t-29 80q0 66 48 120v397h11v-400q-48 -48 -48 -115z" />
    <glyph glyph-name="Idotaccent" unicode="&#x130;" horiz-adv-x="283" 
d="M141 731q-17 0 -17 17q0 16 17 16t17 -16q0 -17 -17 -17zM136 0v600h11v-600h-11z" />
    <glyph glyph-name="dotlessi" unicode="&#x131;" horiz-adv-x="233" 
d="M111 0v400h11v-400h-11z" />
    <glyph glyph-name="IJ" unicode="&#x132;" horiz-adv-x="667" 
d="M110 231q0 -111 66.5 -173t157.5 -62q90 0 156.5 61.5t66.5 170.5v372h11v-372q0 -114 -69.5 -178t-164.5 -64q-96 0 -165.5 64.5t-69.5 180.5v10h11v-10zM99 369v231h11v-231h-11z" />
    <glyph glyph-name="ij" unicode="&#x133;" horiz-adv-x="518" 
d="M115 571q0 -17 -17 -17t-17 17q0 16 17 16t17 -16zM425 587q17 0 17 -16q0 -17 -17 -17t-17 17q0 16 17 16zM421 190v210h11v-428q0 -97 -49 -150t-137 -53q-99 0 -154 57l7 7q56 -54 147 -54q83 0 129 50.5t46 142.5v150q-17 -62 -65.5 -98t-117.5 -36q-152 0 -152 189
v223h11v-219q0 -183 142 -183q81 0 131.5 53t50.5 139z" />
    <glyph glyph-name="Jcircumflex" unicode="&#x134;" horiz-adv-x="308" 
d="M168 828l140 -132l-8 -7l-132 125l-134 -125l-7 7zM161 49v551h11v-552q0 -103 -49.5 -154.5t-142.5 -51.5h-24v10h26q179 0 179 197z" />
    <glyph glyph-name="jcircumflex" unicode="&#x135;" horiz-adv-x="233" 
d="M117 623l110 -132l-8 -7l-102 124l-104 -124l-7 7zM111 -220v620h11v-620h-11z" />
    <glyph glyph-name="Kcommaaccent" unicode="&#x136;" horiz-adv-x="635" 
d="M304 308q128 -15 198.5 -96t70.5 -212h-11q0 142 -84.5 222.5t-234.5 80.5h-126v-303h-11v600h11v-287h126q136 0 223 80.5t87 206.5h11q0 -114 -72 -194t-188 -98zM302 -221l36 163l11 -2l-37 -163z" />
    <glyph glyph-name="kcommaaccent" unicode="&#x137;" horiz-adv-x="490" 
d="M220 204q94 -9 147.5 -63t53.5 -141h-11q0 91 -61.5 144.5t-165.5 53.5h-76v-198h-11v700h11v-492h56q109 0 178 56.5t69 145.5h11q0 -79 -54.5 -135.5t-146.5 -70.5zM224 -221l36 163l11 -2l-37 -163z" />
    <glyph glyph-name="Lacute" unicode="&#x139;" horiz-adv-x="523" 
d="M224 810l5 -10l-201 -97l-4 9zM117 10h385v-10h-396v600h11v-590z" />
    <glyph glyph-name="lacute" unicode="&#x13a;" horiz-adv-x="203" 
d="M23 693l-4 9l200 98l5 -10zM96 0v615h11v-615h-11z" />
    <glyph glyph-name="Lcommaaccent" unicode="&#x13b;" horiz-adv-x="523" 
d="M117 10h385v-10h-396v600h11v-590zM260 -221l36 163l11 -2l-37 -163z" />
    <glyph glyph-name="lcommaaccent" unicode="&#x13c;" horiz-adv-x="203" 
d="M96 0v700h11v-700h-11zM81 -223l-10 2l36 163l11 -2z" />
    <glyph glyph-name="Lcaron" unicode="&#x13d;" horiz-adv-x="523" 
d="M117 10h385v-10h-396v600h11v-590zM420 349l-10 -5l-1 256h10z" />
    <glyph glyph-name="lcaron" unicode="&#x13e;" horiz-adv-x="203" 
d="M96 0v700h11v-700h-11zM207 699l1 -211l-10 -5l-1 216h10z" />
    <glyph glyph-name="Ldot" unicode="&#x13f;" horiz-adv-x="523" 
d="M117 10h385v-10h-396v600h11v-590zM416 295q-17 0 -17 17q0 16 17 16t17 -16q0 -17 -17 -17z" />
    <glyph glyph-name="ldot" unicode="&#x140;" horiz-adv-x="203" 
d="M96 0v700h11v-700h-11zM204 332q-17 0 -17 17q0 16 17 16t17 -16q0 -17 -17 -17z" />
    <glyph glyph-name="Lslash" unicode="&#x141;" horiz-adv-x="533" 
d="M127 10h385v-10h-396v244l-70 -39l-5 9l75 41v345h11v-338l218 120l6 -9l-224 -123v-240z" />
    <glyph glyph-name="lslash" unicode="&#x142;" horiz-adv-x="223" 
d="M243 428l-126 -85v-343h-11v336l-119 -80l-6 8l125 84v352h11v-345l120 81z" />
    <glyph glyph-name="Nacute" unicode="&#x143;" horiz-adv-x="683" 
d="M463 800l-201 -97l-4 9l200 98zM566 600h11v-600h-11l-449 583v-583h-11v600h11l449 -583v583z" />
    <glyph glyph-name="nacute" unicode="&#x144;" horiz-adv-x="519" 
d="M346 623l-153 -129l-6 7l152 130zM276 412q74 0 115 -48t41 -131v-233h-11v229q0 80 -38 126.5t-108 46.5q-77 0 -127 -53.5t-50 -138.5v-210h-11v400h11v-119q19 60 66.5 95.5t111.5 35.5z" />
    <glyph glyph-name="Ncommaaccent" unicode="&#x145;" horiz-adv-x="683" 
d="M566 600h11v-600h-11l-449 583v-583h-11v600h11l449 -583v583zM317 -221l36 163l11 -2l-37 -163z" />
    <glyph glyph-name="ncommaaccent" unicode="&#x146;" horiz-adv-x="519" 
d="M276 412q74 0 115 -48t41 -131v-233h-11v229q0 80 -38 126.5t-108 46.5q-77 0 -127 -53.5t-50 -138.5v-210h-11v400h11v-119q19 60 66.5 95.5t111.5 35.5zM233 -221l36 163l11 -2l-37 -163z" />
    <glyph glyph-name="Ncaron" unicode="&#x147;" horiz-adv-x="683" 
d="M487 816l-141 -132l-140 132l8 7l132 -125l134 125zM566 600h11v-600h-11l-449 583v-583h-11v600h11l449 -583v583z" />
    <glyph glyph-name="ncaron" unicode="&#x148;" horiz-adv-x="519" 
d="M400 616l-141 -132l-140 132l8 7l132 -125l134 125zM276 412q74 0 115 -48t41 -131v-233h-11v229q0 80 -38 126.5t-108 46.5q-77 0 -127 -53.5t-50 -138.5v-210h-11v400h11v-119q19 60 66.5 95.5t111.5 35.5z" />
    <glyph glyph-name="Eng" unicode="&#x14a;" horiz-adv-x="704" 
d="M384 614q110 0 165.5 -74t55.5 -210v-282q0 -103 -49.5 -154.5t-142.5 -51.5h-24v10h26q179 0 179 197v281q0 132 -53 203t-158 71q-121 0 -193.5 -87t-72.5 -216v-301h-11v600h11v-208q24 103 96 162.5t171 59.5z" />
    <glyph glyph-name="eng" unicode="&#x14b;" horiz-adv-x="518" 
d="M276 412q74 0 115 -48t41 -131v-223q0 -110 -48.5 -170t-135.5 -60h-9v10h9q82 0 127.5 57t45.5 163v219q0 80 -38 126.5t-108 46.5q-77 0 -127 -53.5t-50 -138.5v-210h-11v400h11v-119q19 60 66.5 95.5t111.5 35.5z" />
    <glyph glyph-name="Omacron" unicode="&#x14c;" horiz-adv-x="740" 
d="M520 738h-300v10h300v-10zM370 -14q-138 0 -226.5 88t-88.5 226t88.5 226t226.5 88t226.5 -88t88.5 -226t-88.5 -226t-226.5 -88zM370 -4q132 0 218 84.5t86 219.5q0 134 -85.5 219t-218.5 85t-218.5 -85t-85.5 -219q0 -133 85.5 -218.5t218.5 -85.5z" />
    <glyph glyph-name="omacron" unicode="&#x14d;" horiz-adv-x="500" 
d="M402 538h-300v10h300v-10zM250 -12q-90 0 -148 59.5t-58 152.5t58 152.5t148 59.5t148 -59.5t58 -152.5t-58 -152.5t-148 -59.5zM250 -2q85 0 140 57.5t55 145.5q0 89 -55 145t-140 56t-140 -56t-55 -145q0 -88 55 -145.5t140 -57.5z" />
    <glyph glyph-name="Obreve" unicode="&#x14e;" horiz-adv-x="740" 
d="M254 826q0 -54 33 -89t84 -35t83 34.5t32 89.5h11q0 -58 -36 -96t-91 -38t-91 38t-36 96h11zM370 -14q-138 0 -226.5 88t-88.5 226t88.5 226t226.5 88t226.5 -88t88.5 -226t-88.5 -226t-226.5 -88zM370 -4q132 0 218 84.5t86 219.5q0 134 -85.5 219t-218.5 85t-218.5 -85
t-85.5 -219q0 -133 85.5 -218.5t218.5 -85.5z" />
    <glyph glyph-name="obreve" unicode="&#x14f;" horiz-adv-x="500" 
d="M136 626q0 -54 33 -89t84 -35t83 34.5t32 89.5h11q0 -58 -36 -96t-91 -38t-91 38t-36 96h11zM250 -12q-90 0 -148 59.5t-58 152.5t58 152.5t148 59.5t148 -59.5t58 -152.5t-58 -152.5t-148 -59.5zM250 -2q85 0 140 57.5t55 145.5q0 89 -55 145t-140 56t-140 -56t-55 -145
q0 -88 55 -145.5t140 -57.5z" />
    <glyph glyph-name="Ohungarumlaut" unicode="&#x150;" horiz-adv-x="740" 
d="M221 703l-4 9l200 98l5 -10zM401 703l-4 9l200 98l5 -10zM370 -14q-138 0 -226.5 88t-88.5 226t88.5 226t226.5 88t226.5 -88t88.5 -226t-88.5 -226t-226.5 -88zM370 -4q132 0 218 84.5t86 219.5q0 134 -85.5 219t-218.5 85t-218.5 -85t-85.5 -219q0 -133 85.5 -218.5
t218.5 -85.5z" />
    <glyph glyph-name="ohungarumlaut" unicode="&#x151;" horiz-adv-x="500" 
d="M146 494l-6 7l152 130l7 -8zM290 494l-6 7l152 130l7 -8zM250 -12q-90 0 -148 59.5t-58 152.5t58 152.5t148 59.5t148 -59.5t58 -152.5t-58 -152.5t-148 -59.5zM250 -2q85 0 140 57.5t55 145.5q0 89 -55 145t-140 56t-140 -56t-55 -145q0 -88 55 -145.5t140 -57.5z" />
    <glyph glyph-name="OE" unicode="&#x152;" horiz-adv-x="980" 
d="M932 10v-10h-480q-45 -14 -94 -14q-132 0 -217.5 88t-85.5 226t85.5 226t217.5 88q49 0 94 -14h470v-10h-443q79 -33 126 -106.5t50 -170.5h247v-10h-247v-3q0 -102 -47.5 -178.5t-128.5 -111.5h453zM66 300q0 -133 83 -218.5t210 -85.5q125 0 205 85t80 219t-80 219
t-205 85q-127 0 -210 -85t-83 -219z" />
    <glyph glyph-name="oe" unicode="&#x153;" horiz-adv-x="848" 
d="M796 215l-356 -1v-14q0 -89 52.5 -145.5t134.5 -56.5q96 0 156 63l8 -8q-63 -65 -164 -65q-73 0 -125 43t-67 115q-15 -72 -66.5 -115t-123.5 -43q-87 0 -144 59.5t-57 152.5t57 152.5t144 59.5q72 0 123 -43t67 -115q15 72 66 115t123 43q77 0 125 -49t48 -138
q0 -7 -1 -10zM245 -2q81 0 132.5 56.5t51.5 145.5t-51.5 145.5t-132.5 56.5q-82 0 -136 -56t-54 -145q0 -88 54 -145.5t136 -57.5zM623 402q-75 0 -124.5 -49.5t-57.5 -128.5l345 1q-1 84 -46 130.5t-117 46.5z" />
    <glyph glyph-name="Racute" unicode="&#x154;" horiz-adv-x="654" 
d="M438 800l-201 -97l-4 9l200 98zM392 279q181 -34 181 -279h-11q0 276 -235 276h-201v-276h-11v600h250q93 0 143.5 -44.5t50.5 -115.5q0 -67 -45 -110t-122 -51zM126 286h237q84 0 134.5 42t50.5 111q0 67 -47.5 109.5t-135.5 42.5h-239v-305z" />
    <glyph glyph-name="racute" unicode="&#x155;" horiz-adv-x="356" 
d="M287 623l-153 -129l-6 7l152 130zM98 230q20 82 80 127.5t153 45.5v-10h-1q-109 0 -170.5 -65.5t-61.5 -177.5v-150h-11v400h11v-170z" />
    <glyph glyph-name="Rcommaaccent" unicode="&#x156;" horiz-adv-x="654" 
d="M392 279q181 -34 181 -279h-11q0 276 -235 276h-201v-276h-11v600h250q93 0 143.5 -44.5t50.5 -115.5q0 -67 -45 -110t-122 -51zM126 286h237q84 0 134.5 42t50.5 111q0 67 -47.5 109.5t-135.5 42.5h-239v-305zM306 -221l36 163l11 -2l-37 -163z" />
    <glyph glyph-name="rcommaaccent" unicode="&#x157;" horiz-adv-x="356" 
d="M98 230q20 82 80 127.5t153 45.5v-10h-1q-109 0 -170.5 -65.5t-61.5 -177.5v-150h-11v400h11v-170zM138 -221l36 163l11 -2l-37 -163z" />
    <glyph glyph-name="Rcaron" unicode="&#x158;" horiz-adv-x="654" 
d="M462 816l-141 -132l-140 132l8 7l132 -125l134 125zM392 279q181 -34 181 -279h-11q0 276 -235 276h-201v-276h-11v600h250q93 0 143.5 -44.5t50.5 -115.5q0 -67 -45 -110t-122 -51zM126 286h237q84 0 134.5 42t50.5 111q0 67 -47.5 109.5t-135.5 42.5h-239v-305z" />
    <glyph glyph-name="rcaron" unicode="&#x159;" horiz-adv-x="356" 
d="M341 616l-141 -132l-140 132l8 7l132 -125l134 125zM98 230q20 82 80 127.5t153 45.5v-10h-1q-109 0 -170.5 -65.5t-61.5 -177.5v-150h-11v400h11v-170z" />
    <glyph glyph-name="Sacute" unicode="&#x15a;" horiz-adv-x="600" 
d="M221 703l-4 9l200 98l5 -10zM318 -14q-83 0 -152 35t-107 96l8 6q35 -59 102 -93t148 -34q94 0 151 43t57 109q0 29 -13 52t-31 37.5t-51.5 27.5t-57 19.5t-66.5 16.5q-44 10 -70 17.5t-59.5 21t-51 28.5t-30.5 38.5t-13 53.5q0 70 59.5 112t148.5 42q78 0 141.5 -33
t96.5 -89l-8 -6q-32 53 -93 85.5t-137 32.5q-85 0 -141 -39.5t-56 -104.5q0 -28 12.5 -50.5t29.5 -36t50.5 -26.5t57 -19.5t67.5 -16.5q43 -10 68 -17t59.5 -21t53 -29t32 -39.5t13.5 -55.5q0 -71 -60 -117t-158 -46z" />
    <glyph glyph-name="sacute" unicode="&#x15b;" horiz-adv-x="398" 
d="M137 494l-6 7l152 130l7 -8zM200 -12q-81 0 -144 58l8 8q59 -56 138 -56q57 0 90 28.5t33 71.5q0 20 -8.5 36.5t-18 25.5t-31.5 18t-31.5 12t-35.5 10q-30 8 -48.5 14.5t-40 19t-31.5 31t-10 43.5q0 47 36.5 76t93.5 29q79 0 122 -49l-8 -6q-45 45 -114 45
q-56 0 -87.5 -27.5t-31.5 -67.5q0 -18 7.5 -33t18 -24.5t29 -18t32 -12.5t36.5 -10q32 -8 50 -15t40 -19.5t32 -31.5t10 -45q0 -48 -36 -79.5t-100 -31.5z" />
    <glyph glyph-name="Scircumflex" unicode="&#x15c;" horiz-adv-x="600" 
d="M306 814l-134 -125l-7 7l141 132l140 -132l-8 -7zM310 311q43 -10 68 -17t59.5 -21t53 -29t32 -39.5t13.5 -55.5q0 -71 -60 -117t-158 -46q-83 0 -152 35t-107 96l8 6q35 -59 102 -93t148 -34q94 0 151 43t57 109q0 29 -13 52t-31 37.5t-51.5 27.5t-57 19.5t-66.5 16.5
q-44 10 -70 17.5t-59.5 21t-51 28.5t-30.5 38.5t-13 53.5q0 70 59.5 112t148.5 42q78 0 141.5 -33t96.5 -89l-8 -6q-32 53 -93 85.5t-137 32.5q-85 0 -141 -39.5t-56 -104.5q0 -28 12.5 -50.5t29.5 -36t50.5 -26.5t57 -19.5t67.5 -16.5z" />
    <glyph glyph-name="scircumflex" unicode="&#x15d;" horiz-adv-x="398" 
d="M204 608l-104 -124l-7 7l111 132l110 -132l-8 -7zM204 210q32 -8 50 -15t40 -19.5t32 -31.5t10 -45q0 -48 -36 -79.5t-100 -31.5q-81 0 -144 58l8 8q59 -56 138 -56q57 0 90 28.5t33 71.5q0 20 -8.5 36.5t-18 25.5t-31.5 18t-31.5 12t-35.5 10q-30 8 -48.5 14.5t-40 19
t-31.5 31t-10 43.5q0 47 36.5 76t93.5 29q79 0 122 -49l-8 -6q-45 45 -114 45q-56 0 -87.5 -27.5t-31.5 -67.5q0 -18 7.5 -33t18 -24.5t29 -18t32 -12.5t36.5 -10z" />
    <glyph glyph-name="Scedilla" unicode="&#x15e;" horiz-adv-x="600" 
d="M318 -14q-83 0 -152 35t-107 96l8 6q35 -59 102 -93t148 -34q94 0 151 43t57 109q0 29 -13 52t-31 37.5t-51.5 27.5t-57 19.5t-66.5 16.5q-44 10 -70 17.5t-59.5 21t-51 28.5t-30.5 38.5t-13 53.5q0 70 59.5 112t148.5 42q78 0 141.5 -33t96.5 -89l-8 -6q-32 53 -93 85.5
t-137 32.5q-85 0 -141 -39.5t-56 -104.5q0 -28 12.5 -50.5t29.5 -36t50.5 -26.5t57 -19.5t67.5 -16.5q43 -10 68 -17t59.5 -21t53 -29t32 -39.5t13.5 -55.5q0 -71 -60 -117t-158 -46zM321 -220h-10v135h10v-135z" />
    <glyph glyph-name="scedilla" unicode="&#x15f;" horiz-adv-x="398" 
d="M200 -12q-81 0 -144 58l8 8q59 -56 138 -56q57 0 90 28.5t33 71.5q0 20 -8.5 36.5t-18 25.5t-31.5 18t-31.5 12t-35.5 10q-30 8 -48.5 14.5t-40 19t-31.5 31t-10 43.5q0 47 36.5 76t93.5 29q79 0 122 -49l-8 -6q-45 45 -114 45q-56 0 -87.5 -27.5t-31.5 -67.5
q0 -18 7.5 -33t18 -24.5t29 -18t32 -12.5t36.5 -10q32 -8 50 -15t40 -19.5t32 -31.5t10 -45q0 -48 -36 -79.5t-100 -31.5zM215 -220h-10v135h10v-135z" />
    <glyph glyph-name="Scaron" unicode="&#x160;" horiz-adv-x="600" 
d="M446 816l-141 -132l-140 132l8 7l132 -125l134 125zM310 311q43 -10 68 -17t59.5 -21t53 -29t32 -39.5t13.5 -55.5q0 -71 -60 -117t-158 -46q-83 0 -152 35t-107 96l8 6q35 -59 102 -93t148 -34q94 0 151 43t57 109q0 29 -13 52t-31 37.5t-51.5 27.5t-57 19.5t-66.5 16.5
q-44 10 -70 17.5t-59.5 21t-51 28.5t-30.5 38.5t-13 53.5q0 70 59.5 112t148.5 42q78 0 141.5 -33t96.5 -89l-8 -6q-32 53 -93 85.5t-137 32.5q-85 0 -141 -39.5t-56 -104.5q0 -28 12.5 -50.5t29.5 -36t50.5 -26.5t57 -19.5t67.5 -16.5z" />
    <glyph glyph-name="scaron" unicode="&#x161;" horiz-adv-x="398" 
d="M314 616l-111 -132l-110 132l8 7l102 -124l104 124zM204 210q32 -8 50 -15t40 -19.5t32 -31.5t10 -45q0 -48 -36 -79.5t-100 -31.5q-81 0 -144 58l8 8q59 -56 138 -56q57 0 90 28.5t33 71.5q0 20 -8.5 36.5t-18 25.5t-31.5 18t-31.5 12t-35.5 10q-30 8 -48.5 14.5t-40 19
t-31.5 31t-10 43.5q0 47 36.5 76t93.5 29q79 0 122 -49l-8 -6q-45 45 -114 45q-56 0 -87.5 -27.5t-31.5 -67.5q0 -18 7.5 -33t18 -24.5t29 -18t32 -12.5t36.5 -10z" />
    <glyph glyph-name="uni0162" unicode="&#x162;" horiz-adv-x="593" 
d="M568 600v-10h-266v-590h-11v590h-266v10h543zM292 -220v135h10v-135h-10z" />
    <glyph glyph-name="uni0163" unicode="&#x163;" horiz-adv-x="394" 
d="M361 53l7 -7q-53 -58 -124 -58q-60 0 -94 39.5t-34 112.5v240h-78v10h78v90h11v-90h211v-10h-211v-240q0 -66 30 -104t89 -38q63 0 115 55zM231 -220v135h10v-135h-10z" />
    <glyph glyph-name="Tcaron" unicode="&#x164;" horiz-adv-x="593" 
d="M438 816l-141 -132l-140 132l8 7l132 -125l134 125zM568 600v-10h-266v-590h-11v590h-266v10h543z" />
    <glyph glyph-name="tcaron" unicode="&#x165;" horiz-adv-x="394" 
d="M271 489l-10 -5l-1 216h10zM361 53l7 -7q-53 -58 -124 -58q-60 0 -94 39.5t-34 112.5v240h-78v10h78v90h11v-90h211v-10h-211v-240q0 -66 30 -104t89 -38q63 0 115 55z" />
    <glyph glyph-name="Tbar" unicode="&#x166;" horiz-adv-x="593" 
d="M568 590h-266v-285h135v-10h-135v-295h-11v295h-134v10h134v285h-266v10h543v-10z" />
    <glyph glyph-name="tbar" unicode="&#x167;" horiz-adv-x="394" 
d="M361 53l7 -7q-53 -58 -124 -58q-60 0 -94 39.5t-34 112.5v61h-68v10h68v169h-78v10h78v90h11v-90h211v-10h-211v-169h201v-10h-201v-61q0 -66 30 -104t89 -38q63 0 115 55z" />
    <glyph glyph-name="Utilde" unicode="&#x168;" horiz-adv-x="687" 
d="M413 700q-35 0 -74 47q-11 14 -18 21.5t-20 14.5t-27 7q-28 0 -47.5 -25t-19.5 -63h-11q0 42 23 70t56 28t72 -46q36 -44 67 -44q29 0 48 25t19 63h11q0 -43 -22.5 -70.5t-56.5 -27.5zM588 268q0 -132 -66 -207t-179 -75t-178.5 76t-65.5 210v328h11v-328
q0 -129 63 -202.5t170 -73.5q108 0 171 73t63 200v331h11v-332z" />
    <glyph glyph-name="utilde" unicode="&#x169;" horiz-adv-x="519" 
d="M191 590q-28 0 -47.5 -25t-19.5 -63h-11q0 42 23 70t56 28t72 -46q36 -44 67 -44q29 0 48 25t19 63h11q0 -43 -22.5 -70.5t-56.5 -27.5q-35 0 -74 47q-11 14 -18 21.5t-20 14.5t-27 7zM421 400h11v-400h-11v119q-18 -61 -66 -96t-116 -35q-152 0 -152 189v223h11v-219
q0 -183 142 -183q81 0 131 53t50 139v210z" />
    <glyph glyph-name="Umacron" unicode="&#x16a;" horiz-adv-x="687" 
d="M494 738h-300v10h300v-10zM588 258q0 -118 -69.5 -195t-175.5 -77t-175 78.5t-69 197.5v338h11v-338q0 -115 66 -190.5t167 -75.5t167.5 74.5t66.5 188.5v341h11v-342z" />
    <glyph glyph-name="umacron" unicode="&#x16b;" horiz-adv-x="519" 
d="M411 548v-10h-300v10h300zM421 400h11v-400h-11v119q-18 -61 -66 -96t-116 -35q-152 0 -152 189v223h11v-219q0 -183 142 -183q81 0 131 53t50 139v210z" />
    <glyph glyph-name="Ubreve" unicode="&#x16c;" horiz-adv-x="687" 
d="M228 826q0 -54 33 -89t84 -35t83 34.5t32 89.5h11q0 -58 -36 -96t-91 -38t-91 38t-36 96h11zM588 268q0 -132 -66 -207t-179 -75t-178.5 76t-65.5 210v328h11v-328q0 -129 63 -202.5t170 -73.5q108 0 171 73t63 200v331h11v-332z" />
    <glyph glyph-name="ubreve" unicode="&#x16d;" horiz-adv-x="519" 
d="M261 492q-55 0 -91 38t-36 96h11q0 -54 33 -89t84 -35t83 34.5t32 89.5h11q0 -58 -36 -96t-91 -38zM421 400h11v-400h-11v119q-18 -61 -66 -96t-116 -35q-152 0 -152 189v223h11v-219q0 -183 142 -183q81 0 131 53t50 139v210z" />
    <glyph glyph-name="Uring" unicode="&#x16e;" horiz-adv-x="687" 
d="M345 687q-40 0 -65 25t-25 64t25 64t65 25t65 -25t25 -64t-25 -64t-65 -25zM345 697q35 0 57 22.5t22 56.5t-22 56.5t-57 22.5t-57 -22.5t-22 -56.5t22 -56.5t57 -22.5zM588 258q0 -118 -69.5 -195t-175.5 -77t-175 78.5t-69 197.5v338h11v-338q0 -115 66 -190.5
t167 -75.5t167.5 74.5t66.5 188.5v341h11v-342z" />
    <glyph glyph-name="uring" unicode="&#x16f;" horiz-adv-x="519" 
d="M262 487q-40 0 -65 25t-25 64t25 64t65 25t65 -25t25 -64t-25 -64t-65 -25zM262 655q-34 0 -56.5 -22.5t-22.5 -56.5t22.5 -56.5t56.5 -22.5t56.5 22.5t22.5 56.5t-22.5 56.5t-56.5 22.5zM421 400h11v-400h-11v119q-18 -61 -66 -96t-116 -35q-152 0 -152 189v223h11v-219
q0 -183 142 -183q81 0 131 53t50 139v210z" />
    <glyph glyph-name="Uhungarumlaut" unicode="&#x170;" horiz-adv-x="687" 
d="M195 703l-4 9l200 98l5 -10zM375 703l-4 9l200 98l5 -10zM588 268q0 -132 -66 -207t-179 -75t-178.5 76t-65.5 210v328h11v-328q0 -129 63 -202.5t170 -73.5q108 0 171 73t63 200v331h11v-332z" />
    <glyph glyph-name="uhungarumlaut" unicode="&#x171;" horiz-adv-x="519" 
d="M308 623l-153 -129l-6 7l152 130zM299 494l-6 7l152 130l7 -8zM421 190v210h11v-400h-11v119q-18 -61 -66 -96t-116 -35q-152 0 -152 189v223h11v-219q0 -183 142 -183q81 0 131 53t50 139z" />
    <glyph glyph-name="Uogonek" unicode="&#x172;" horiz-adv-x="687" 
d="M577 600h11v-342q0 -93 -45 -163t-120 -96q-85 -58 -85 -133q0 -39 27 -61t74 -22v-10h-4q-51 0 -79.5 24.5t-28.5 66.5q0 69 69 128q-26 -6 -53 -6q-106 0 -175 78.5t-69 197.5v338h11v-338q0 -115 66 -190.5t167 -75.5t167.5 74.5t66.5 188.5v341z" />
    <glyph glyph-name="uogonek" unicode="&#x173;" horiz-adv-x="519" 
d="M346 -134q0 -39 27 -61t74 -22v-10h-4q-51 0 -79.5 24.5t-28.5 66.5q0 78 86 140v115q-18 -61 -66 -96t-116 -35q-152 0 -152 189v223h11v-219q0 -183 142 -183q81 0 131 53t50 139v210h11v-400q-86 -58 -86 -134z" />
    <glyph glyph-name="Wcircumflex" unicode="&#x174;" horiz-adv-x="926" 
d="M463 814l-134 -125l-7 7l141 132l140 -132l-8 -7zM836 600h12l-181 -600h-16l-189 591l-189 -591h-17l-180 600h12l177 -593l189 593h16l189 -593z" />
    <glyph glyph-name="wcircumflex" unicode="&#x175;" horiz-adv-x="752" 
d="M371 614l-134 -125l-7 7l141 132l140 -132l-8 -7zM695 400h12l-160 -400h-14l-157 390l-157 -390h-14l-160 400h12l155 -391l157 391h14l157 -391z" />
    <glyph glyph-name="Ycircumflex" unicode="&#x176;" horiz-adv-x="581" 
d="M291 814l-134 -125l-7 7l141 132l140 -132l-8 -7zM527 600h11v-66q0 -116 -66 -187.5t-176 -73.5v-273h-11v273q-110 2 -176 73.5t-66 189.5v64h11v-64q0 -115 64.5 -184t171.5 -69t172 69t65 182v66z" />
    <glyph glyph-name="ycircumflex" unicode="&#x177;" horiz-adv-x="518" 
d="M260 614l-134 -125l-7 7l141 132l140 -132l-8 -7zM421 400h11v-428q0 -97 -49 -150t-137 -53q-99 0 -154 57l7 7q56 -54 147 -54q83 0 129 50.5t46 142.5v150q-17 -62 -65.5 -98t-117.5 -36q-152 0 -152 189v223h11v-219q0 -183 142 -183q81 0 131.5 53t50.5 139v210z
" />
    <glyph glyph-name="Ydieresis" unicode="&#x178;" horiz-adv-x="581" 
d="M189 714q-17 0 -17 17q0 16 17 16t17 -16q0 -17 -17 -17zM389 714q-17 0 -17 17q0 16 17 16t17 -16q0 -17 -17 -17zM527 600h11v-66q0 -116 -66 -187.5t-176 -73.5v-273h-11v273q-110 2 -176 73.5t-66 189.5v64h11v-64q0 -115 64.5 -184t171.5 -69t172 69t65 182v66z" />
    <glyph glyph-name="Zacute" unicode="&#x179;" horiz-adv-x="595" 
d="M428 800l-201 -97l-4 9l200 98zM543 591l-460 -567q-3 -3 -6.5 -7.5t-5.5 -6.5h60h412v-10h-487v9l453 558q9 11 21 23h-71h-396v10h480v-9z" />
    <glyph glyph-name="zacute" unicode="&#x17a;" horiz-adv-x="440" 
d="M312 623l-153 -129l-6 7l152 130zM399 392l-302 -340q-12 -14 -38 -42h67h273v-10h-355v9l298 335l41 46h-67h-269v10h352v-8z" />
    <glyph glyph-name="Zdotaccent" unicode="&#x17b;" horiz-adv-x="595" 
d="M311 731q-17 0 -17 17q0 16 17 16t17 -16q0 -17 -17 -17zM543 591l-460 -567q-3 -3 -6.5 -7.5t-5.5 -6.5h60h412v-10h-487v9l453 558q9 11 21 23h-71h-396v10h480v-9z" />
    <glyph glyph-name="zdotaccent" unicode="&#x17c;" horiz-adv-x="440" 
d="M225 554q-17 0 -17 17q0 16 17 16t17 -16q0 -17 -17 -17zM399 392l-302 -340q-12 -14 -38 -42h67h273v-10h-355v9l298 335l41 46h-67h-269v10h352v-8z" />
    <glyph glyph-name="Zcaron" unicode="&#x17d;" horiz-adv-x="595" 
d="M452 816l-141 -132l-140 132l8 7l132 -125l134 125zM543 591l-460 -567q-3 -3 -6.5 -7.5t-5.5 -6.5h60h412v-10h-487v9l453 558q9 11 21 23h-71h-396v10h480v-9z" />
    <glyph glyph-name="zcaron" unicode="&#x17e;" horiz-adv-x="440" 
d="M366 616l-141 -132l-140 132l8 7l132 -125l134 125zM399 392l-302 -340q-12 -14 -38 -42h67h273v-10h-355v9l298 335l41 46h-67h-269v10h352v-8z" />
    <glyph glyph-name="longs" unicode="&#x17f;" horiz-adv-x="316" 
d="M116 0v478q0 110 48.5 170t135.5 60h33v-10h-33q-82 0 -127.5 -57t-45.5 -163v-478h-11z" />
    <glyph glyph-name="uni018F" unicode="&#x18f;" horiz-adv-x="710" 
d="M353 614q136 0 219 -86.5t83 -226.5q0 -142 -85.5 -228.5t-221.5 -86.5q-133 0 -213 83t-80 219q0 6 1 9h588v5q0 135 -80.5 218.5t-211.5 83.5q-145 0 -253 -112l-8 7q111 115 262 115zM348 -4q128 0 209.5 79.5t86.5 211.5h-578q0 -131 77 -211t205 -80z" />
    <glyph glyph-name="uni01CD" unicode="&#x1cd;" horiz-adv-x="632" 
d="M457 816l-141 -132l-140 132l8 7l132 -125l134 125zM568 0l-91 213h-323l-90 -213h-11l255 600h14l257 -600h-11zM159 223h314l-158 368z" />
    <glyph glyph-name="uni01CE" unicode="&#x1ce;" horiz-adv-x="524" 
d="M393 616l-141 -132l-140 132l8 7l132 -125l134 125zM427 400h11v-400h-11v127q-20 -63 -70 -101t-116 -38q-85 0 -141 60.5t-56 151.5t56 151.5t141 60.5q66 0 116 -38t70 -101v127zM241 -2q80 0 133.5 57.5t53.5 144.5q0 86 -53.5 144t-132.5 58q-80 0 -133.5 -58
t-53.5 -144t53.5 -144t132.5 -58z" />
    <glyph glyph-name="uni01CF" unicode="&#x1cf;" horiz-adv-x="283" 
d="M282 816l-141 -132l-140 132l8 7l132 -125l134 125zM136 0v600h11v-600h-11z" />
    <glyph glyph-name="uni01D0" unicode="&#x1d0;" horiz-adv-x="233" 
d="M227 616l-111 -132l-110 132l8 7l102 -124l104 124zM111 0v400h11v-400h-11z" />
    <glyph glyph-name="uni01D1" unicode="&#x1d1;" horiz-adv-x="740" 
d="M511 816l-141 -132l-140 132l8 7l132 -125l134 125zM370 614q138 0 226.5 -88t88.5 -226t-88.5 -226t-226.5 -88t-226.5 88t-88.5 226t88.5 226t226.5 88zM370 -4q132 0 218 84.5t86 219.5q0 134 -85.5 219t-218.5 85t-218.5 -85t-85.5 -219q0 -133 85.5 -218.5
t218.5 -85.5z" />
    <glyph glyph-name="uni01D2" unicode="&#x1d2;" horiz-adv-x="500" 
d="M393 616l-141 -132l-140 132l8 7l132 -125l134 125zM250 412q90 0 148 -59.5t58 -152.5t-58 -152.5t-148 -59.5t-148 59.5t-58 152.5t58 152.5t148 59.5zM250 -2q85 0 140 57.5t55 145.5q0 89 -55 145t-140 56t-140 -56t-55 -145q0 -88 55 -145.5t140 -57.5z" />
    <glyph glyph-name="uni01D3" unicode="&#x1d3;" horiz-adv-x="687" 
d="M485 816l-141 -132l-140 132l8 7l132 -125l134 125zM577 600h11v-332q0 -132 -66 -207t-179 -75t-178.5 76t-65.5 210v328h11v-328q0 -129 63 -202.5t170 -73.5q108 0 171 73t63 200v331z" />
    <glyph glyph-name="uni01D4" unicode="&#x1d4;" horiz-adv-x="519" 
d="M402 616l-141 -132l-140 132l8 7l132 -125l134 125zM421 400h11v-400h-11v119q-18 -61 -66 -96t-116 -35q-152 0 -152 189v223h11v-219q0 -183 142 -183q81 0 131 53t50 139v210z" />
    <glyph glyph-name="uni01D5" unicode="&#x1d5;" horiz-adv-x="687" 
d="M494 858h-300v10h300v-10zM243 721q-17 0 -17 17q0 16 17 16t17 -16q0 -17 -17 -17zM443 721q-17 0 -17 17q0 16 17 16t17 -16q0 -17 -17 -17zM588 258q0 -118 -69.5 -195t-175.5 -77t-175 78.5t-69 197.5v338h11v-338q0 -115 66 -190.5t167 -75.5t167.5 74.5t66.5 188.5
v341h11v-342z" />
    <glyph glyph-name="uni01D6" unicode="&#x1d6;" horiz-adv-x="519" 
d="M411 668v-10h-300v10h300zM143 538q0 16 17 16t17 -16q0 -17 -17 -17t-17 17zM343 538q0 16 17 16t17 -16q0 -17 -17 -17t-17 17zM421 400h11v-400h-11v119q-18 -61 -66 -96t-116 -35q-152 0 -152 189v223h11v-219q0 -183 142 -183q81 0 131 53t50 139v210z" />
    <glyph glyph-name="uni01D7" unicode="&#x1d7;" horiz-adv-x="687" 
d="M254 824l-4 9l200 98l5 -10zM243 721q-17 0 -17 17q0 16 17 16t17 -16q0 -17 -17 -17zM443 721q-17 0 -17 17q0 16 17 16t17 -16q0 -17 -17 -17zM588 258q0 -118 -69.5 -195t-175.5 -77t-175 78.5t-69 197.5v338h11v-338q0 -115 66 -190.5t167 -75.5t167.5 74.5
t66.5 188.5v341h11v-342z" />
    <glyph glyph-name="uni01D8" unicode="&#x1d8;" horiz-adv-x="519" 
d="M372 721l-201 -97l-4 9l200 98zM160 521q-17 0 -17 17q0 16 17 16t17 -16q0 -17 -17 -17zM343 538q0 16 17 16t17 -16q0 -17 -17 -17t-17 17zM421 400h11v-400h-11v119q-18 -61 -66 -96t-116 -35q-152 0 -152 189v223h11v-219q0 -183 142 -183q81 0 131 53t50 139v210z
" />
    <glyph glyph-name="uni01D9" unicode="&#x1d9;" horiz-adv-x="687" 
d="M484 943l-141 -132l-140 132l8 7l132 -125l134 125zM226 738q0 16 17 16t17 -16q0 -17 -17 -17t-17 17zM426 738q0 16 17 16t17 -16q0 -17 -17 -17t-17 17zM577 600h11v-342q0 -118 -69.5 -195t-175.5 -77t-175 78.5t-69 197.5v338h11v-338q0 -115 66 -190.5t167 -75.5
t167.5 74.5t66.5 188.5v341z" />
    <glyph glyph-name="uni01DA" unicode="&#x1da;" horiz-adv-x="519" 
d="M401 743l-141 -132l-140 132l8 7l132 -125l134 125zM143 538q0 16 17 16t17 -16q0 -17 -17 -17t-17 17zM343 538q0 16 17 16t17 -16q0 -17 -17 -17t-17 17zM421 400h11v-400h-11v119q-18 -61 -66 -96t-116 -35q-152 0 -152 189v223h11v-219q0 -183 142 -183q81 0 131 53
t50 139v210z" />
    <glyph glyph-name="uni01DB" unicode="&#x1db;" horiz-adv-x="687" 
d="M432 824l-201 97l5 10l200 -98zM243 721q-17 0 -17 17q0 16 17 16t17 -16q0 -17 -17 -17zM443 721q-17 0 -17 17q0 16 17 16t17 -16q0 -17 -17 -17zM588 258q0 -118 -69.5 -195t-175.5 -77t-175 78.5t-69 197.5v338h11v-338q0 -115 66 -190.5t167 -75.5t167.5 74.5
t66.5 188.5v341h11v-342z" />
    <glyph glyph-name="uni01DC" unicode="&#x1dc;" horiz-adv-x="519" 
d="M353 633l-4 -9l-201 97l5 10zM160 521q-17 0 -17 17q0 16 17 16t17 -16q0 -17 -17 -17zM343 538q0 16 17 16t17 -16q0 -17 -17 -17t-17 17zM421 400h11v-400h-11v119q-18 -61 -66 -96t-116 -35q-152 0 -152 189v223h11v-219q0 -183 142 -183q81 0 131 53t50 139v210z" />
    <glyph glyph-name="uni01E2" unicode="&#x1e2;" horiz-adv-x="854" 
d="M684 748v-10h-300v10h300zM517 10h289v-10h-299l-41 213h-295l-126 -213h-12l355 600h408v-10h-392l54 -277h318v-10h-316zM177 223h287l-71 365z" />
    <glyph glyph-name="uni01E3" unicode="&#x1e3;" horiz-adv-x="823" 
d="M577 548v-10h-300v10h300zM771 215l-343 -1v-14q0 -87 48.5 -144.5t132.5 -57.5q91 0 149 63l8 -8q-62 -65 -158 -65q-67 0 -114.5 37t-65.5 100v-125h-11v125q-19 -62 -66.5 -99.5t-111.5 -37.5q-83 0 -139 60.5t-56 151.5t56 151.5t139 60.5q64 0 111.5 -37.5
t66.5 -99.5v125h11v-126q18 64 65 101t112 37q75 0 121 -49t46 -138q0 -7 -1 -10zM240 -2q77 0 127.5 57.5t50.5 144.5t-50.5 144.5t-127.5 57.5q-78 0 -131.5 -58t-53.5 -144t53.5 -144t131.5 -58zM605 402q-72 0 -120.5 -48t-55.5 -130l332 1q-1 84 -44 130.5t-112 46.5z
" />
    <glyph glyph-name="Gcaron" unicode="&#x1e6;" horiz-adv-x="739" 
d="M516 816l-141 -132l-140 132l8 7l132 -125l134 125zM364 307h320v-6q0 -139 -82.5 -227t-228.5 -88q-139 0 -228.5 87t-89.5 223q0 140 90 229.5t231 89.5q137 0 236 -91l-7 -8q-98 89 -229 89q-136 0 -223 -86.5t-87 -222.5q0 -131 86.5 -215.5t220.5 -84.5
q136 0 217 83.5t83 217.5h-309v10z" />
    <glyph glyph-name="gcaron" unicode="&#x1e7;" horiz-adv-x="524" 
d="M396 616l-141 -132l-140 132l8 7l132 -125l134 125zM427 400h11v-418q0 -102 -53.5 -157.5t-149.5 -55.5q-107 0 -167 57l7 7q60 -54 161 -54q91 0 141 53t50 150v145q-20 -63 -70 -101t-116 -38q-85 0 -141 60.5t-56 151.5t56 151.5t141 60.5q66 0 116 -38t70 -101v127z
M242 -2q80 0 133 57.5t53 144.5q0 86 -53.5 144t-132.5 58q-80 0 -133.5 -58t-53.5 -144t53.5 -144t133.5 -58z" />
    <glyph glyph-name="uni01E8" unicode="&#x1e8;" horiz-adv-x="635" 
d="M469 816l-141 -132l-140 132l8 7l132 -125l134 125zM304 308q128 -15 198.5 -96t70.5 -212h-11q0 142 -84.5 222.5t-234.5 80.5h-126v-303h-11v600h11v-287h126q136 0 223 80.5t87 206.5h11q0 -114 -72 -194t-188 -98z" />
    <glyph glyph-name="uni01E9" unicode="&#x1e9;" horiz-adv-x="480" 
d="M233 816l-141 -132l-140 132l8 7l132 -125l134 125zM210 204q94 -9 147.5 -63t53.5 -141h-11q0 91 -61.5 144.5t-165.5 53.5h-76v-198h-11v620h11v-412h56q109 0 178 56.5t69 145.5h11q0 -79 -54.5 -135.5t-146.5 -70.5z" />
    <glyph glyph-name="uni01EA" unicode="&#x1ea;" horiz-adv-x="740" 
d="M461 -2q-82 -58 -82 -132q0 -39 27 -61t74 -22v-10h-4q-51 0 -79.5 24.5t-28.5 66.5q0 69 70 128q-33 -6 -68 -6q-138 0 -226.5 88t-88.5 226t88.5 226t226.5 88t226.5 -88t88.5 -226q0 -113 -61 -194.5t-163 -107.5zM370 -4q44 0 86 11l1 1h1l1 -1q98 27 156.5 105
t58.5 188q0 134 -85.5 219t-218.5 85t-218.5 -85t-85.5 -219q0 -133 85.5 -218.5t218.5 -85.5z" />
    <glyph glyph-name="uni01EB" unicode="&#x1eb;" horiz-adv-x="500" 
d="M341 7q-82 -56 -82 -131q0 -39 27 -61t74 -22v-10h-4q-51 0 -79.5 24.5t-28.5 66.5q0 65 64 123q-28 -9 -62 -9q-90 0 -148 59.5t-58 152.5t58 152.5t148 59.5t148 -59.5t58 -152.5q0 -67 -31 -117.5t-84 -75.5zM55 201q0 -88 55 -145.5t140 -57.5t140 57.5t55 145.5
q0 89 -55 145t-140 56t-140 -56t-55 -145z" />
    <glyph glyph-name="AEacute" unicode="&#x1fc;" horiz-adv-x="854" 
d="M651 800l-201 -97l-4 9l200 98zM517 10h289v-10h-299l-41 213h-295l-126 -213h-12l355 600h408v-10h-392l54 -277h318v-10h-316zM177 223h287l-71 365z" />
    <glyph glyph-name="aeacute" unicode="&#x1fd;" horiz-adv-x="823" 
d="M514 623l-153 -129l-6 7l152 130zM771 215l-343 -1v-14q0 -87 48.5 -144.5t132.5 -57.5q91 0 149 63l8 -8q-62 -65 -158 -65q-67 0 -114.5 37t-65.5 100v-125h-11v125q-19 -62 -66.5 -99.5t-111.5 -37.5q-83 0 -139 60.5t-56 151.5t56 151.5t139 60.5q64 0 111.5 -37.5
t66.5 -99.5v125h11v-126q18 64 65 101t112 37q75 0 121 -49t46 -138q0 -7 -1 -10zM240 -2q77 0 127.5 57.5t50.5 144.5t-50.5 144.5t-127.5 57.5q-78 0 -131.5 -58t-53.5 -144t53.5 -144t131.5 -58zM605 402q-72 0 -120.5 -48t-55.5 -130l332 1q-1 84 -44 130.5t-112 46.5z
" />
    <glyph glyph-name="Oslashacute" unicode="&#x1fe;" horiz-adv-x="740" 
d="M482 800l-201 -97l-4 9l200 98zM598 525q87 -89 87 -225q0 -138 -88.5 -226t-226.5 -88q-139 0 -228 89l-83 -82l-7 7l83 82q-80 88 -80 218q0 138 88.5 226t226.5 88q133 0 221 -82l76 75l7 -7zM66 300q0 -127 77 -210l440 434q-83 80 -213 80q-133 0 -218.5 -85
t-85.5 -219zM370 -4q132 0 218 84.5t86 219.5q0 133 -84 217l-440 -434q85 -87 220 -87z" />
    <glyph glyph-name="oslashacute" unicode="&#x1ff;" horiz-adv-x="500" 
d="M337 623l-153 -129l-6 7l152 130zM458 400l-55 -53q53 -58 53 -147q0 -93 -58 -152.5t-148 -59.5q-94 0 -151 63l-60 -58l-7 7l60 58q-48 59 -48 142q0 93 58 152.5t148 59.5t146 -58l55 53zM55 201q0 -79 45 -135l289 281q-53 55 -139 55q-85 0 -140 -56t-55 -145z
M445 201q0 84 -49 139l-289 -281q56 -61 143 -61q85 0 140 57.5t55 145.5z" />
    <glyph glyph-name="Scommaaccent" unicode="&#x218;" horiz-adv-x="600" 
d="M318 -14q-83 0 -152 35t-107 96l8 6q35 -59 102 -93t148 -34q94 0 151 43t57 109q0 29 -13 52t-31 37.5t-51.5 27.5t-57 19.5t-66.5 16.5q-44 10 -70 17.5t-59.5 21t-51 28.5t-30.5 38.5t-13 53.5q0 70 59.5 112t148.5 42q78 0 141.5 -33t96.5 -89l-8 -6q-32 53 -93 85.5
t-137 32.5q-85 0 -141 -39.5t-56 -104.5q0 -28 12.5 -50.5t29.5 -36t50.5 -26.5t57 -19.5t67.5 -16.5q43 -10 68 -17t59.5 -21t53 -29t32 -39.5t13.5 -55.5q0 -71 -60 -117t-158 -46zM300 -223l-10 2l36 163l11 -2z" />
    <glyph glyph-name="scommaaccent" unicode="&#x219;" horiz-adv-x="398" 
d="M200 -12q-81 0 -144 58l8 8q59 -56 138 -56q57 0 90 28.5t33 71.5q0 20 -8.5 36.5t-18 25.5t-31.5 18t-31.5 12t-35.5 10q-30 8 -48.5 14.5t-40 19t-31.5 31t-10 43.5q0 47 36.5 76t93.5 29q79 0 122 -49l-8 -6q-45 45 -114 45q-56 0 -87.5 -27.5t-31.5 -67.5
q0 -18 7.5 -33t18 -24.5t29 -18t32 -12.5t36.5 -10q32 -8 50 -15t40 -19.5t32 -31.5t10 -45q0 -48 -36 -79.5t-100 -31.5zM194 -223l-10 2l36 163l11 -2z" />
    <glyph glyph-name="uni021A" unicode="&#x21a;" horiz-adv-x="593" 
d="M568 600v-10h-266v-590h-11v590h-266v10h543zM271 -221l36 163l11 -2l-37 -163z" />
    <glyph glyph-name="uni021B" unicode="&#x21b;" horiz-adv-x="394" 
d="M361 53l7 -7q-53 -58 -124 -58q-60 0 -94 39.5t-34 112.5v240h-78v10h78v90h11v-90h211v-10h-211v-240q0 -66 30 -104t89 -38q63 0 115 55zM210 -221l36 163l11 -2l-37 -163z" />
    <glyph glyph-name="uni0232" unicode="&#x232;" horiz-adv-x="581" 
d="M440 748v-10h-300v10h300zM527 600h11v-66q0 -116 -66 -187.5t-176 -73.5v-273h-11v273q-110 2 -176 73.5t-66 189.5v64h11v-64q0 -115 64.5 -184t171.5 -69t172 69t65 182v66z" />
    <glyph glyph-name="uni0233" unicode="&#x233;" horiz-adv-x="518" 
d="M409 548v-10h-300v10h300zM421 400h11v-428q0 -97 -49 -150t-137 -53q-99 0 -154 57l7 7q56 -54 147 -54q83 0 129 50.5t46 142.5v150q-17 -62 -65.5 -98t-117.5 -36q-152 0 -152 189v223h11v-219q0 -183 142 -183q81 0 131.5 53t50.5 139v210z" />
    <glyph glyph-name="uni0237" unicode="&#x237;" horiz-adv-x="233" 
d="M111 -220v620h11v-620h-11z" />
    <glyph glyph-name="uni0259" unicode="&#x259;" horiz-adv-x="488" 
d="M227 412q94 0 153 -59t59 -153q0 -93 -57 -152.5t-147 -59.5q-84 0 -134 48.5t-50 138.5q0 7 1 10l376 1v12q0 88 -54.5 146t-147.5 58q-100 0 -161 -63l-8 8q65 65 170 65zM235 -2q78 0 131.5 48.5t60.5 129.5l-365 -1q1 -85 48 -131t125 -46z" />
    <glyph glyph-name="circumflex" unicode="&#x2c6;" horiz-adv-x="381" 
d="M331 496l-8 -7l-132 125l-134 -125l-7 7l141 132z" />
    <glyph glyph-name="caron" unicode="&#x2c7;" horiz-adv-x="381" 
d="M324 623l7 -7l-141 -132l-140 132l8 7l132 -125z" />
    <glyph glyph-name="breve" unicode="&#x2d8;" horiz-adv-x="354" 
d="M61 626q0 -54 33 -89t84 -35t83 34.5t32 89.5h11q0 -58 -36 -96t-91 -38t-91 38t-36 96h11z" />
    <glyph glyph-name="dotaccent" unicode="&#x2d9;" horiz-adv-x="134" 
d="M67 554q-17 0 -17 17q0 16 17 16t17 -16q0 -17 -17 -17z" />
    <glyph glyph-name="ring" unicode="&#x2da;" horiz-adv-x="280" 
d="M140 487q-40 0 -65 25t-25 64t25 64t65 25t65 -25t25 -64t-25 -64t-65 -25zM140 497q34 0 56.5 22.5t22.5 56.5t-22.5 56.5t-56.5 22.5t-56.5 -22.5t-22.5 -56.5t22.5 -56.5t56.5 -22.5z" />
    <glyph glyph-name="ogonek" unicode="&#x2db;" horiz-adv-x="212" 
d="M158 -227q-51 0 -79.5 24.5t-28.5 66.5q0 79 90 143l7 -7q-86 -58 -86 -134q0 -39 27 -61t74 -22v-10h-4z" />
    <glyph glyph-name="tilde" unicode="&#x2dc;" horiz-adv-x="396" 
d="M267 500q-35 0 -74 47q-11 14 -18 21.5t-20 14.5t-27 7q-28 0 -47.5 -25t-19.5 -63h-11q0 42 23 70t56 28t72 -46q36 -44 67 -44q29 0 48 25t19 63h11q0 -43 -22.5 -70.5t-56.5 -27.5z" />
    <glyph glyph-name="hungarumlaut" unicode="&#x2dd;" horiz-adv-x="423" 
d="M50 494l-6 7l152 130l7 -8zM194 494l-6 7l152 130l7 -8z" />
    <glyph glyph-name="gravecomb" unicode="&#x300;" 
d="M-50 494l-153 129l7 8l152 -130z" />
    <glyph glyph-name="acutecomb" unicode="&#x301;" 
d="M-213 494l-6 7l152 130l7 -8z" />
    <glyph glyph-name="uni0302" unicode="&#x302;" 
d="M-40 496l-8 -7l-132 125l-134 -125l-7 7l141 132z" />
    <glyph glyph-name="tildecomb" unicode="&#x303;" 
d="M-110 500q-35 0 -74 47q-11 14 -18 21.5t-20 14.5t-27 7q-28 0 -47.5 -25t-19.5 -63h-11q0 42 23 70t56 28t72 -46q36 -44 67 -44q29 0 48 25t19 63h11q0 -43 -22.5 -70.5t-56.5 -27.5z" />
    <glyph glyph-name="uni0304" unicode="&#x304;" 
d="M-30 538h-300v10h300v-10z" />
    <glyph glyph-name="uni0306" unicode="&#x306;" 
d="M-296 626q0 -54 33 -89t84 -35t83 34.5t32 89.5h11q0 -58 -36 -96t-91 -38t-91 38t-36 96h11z" />
    <glyph glyph-name="uni0307" unicode="&#x307;" 
d="M-122 554q-17 0 -17 17q0 16 17 16t17 -16q0 -17 -17 -17z" />
    <glyph glyph-name="uni0308" unicode="&#x308;" 
d="M-323 554q-17 0 -17 17q0 16 17 16t17 -16q0 -17 -17 -17zM-123 554q-17 0 -17 17q0 16 17 16t17 -16q0 -17 -17 -17z" />
    <glyph glyph-name="uni030A" unicode="&#x30a;" 
d="M-160 487q-40 0 -65 25t-25 64t25 64t65 25t65 -25t25 -64t-25 -64t-65 -25zM-160 497q34 0 56.5 22.5t22.5 56.5t-22.5 56.5t-56.5 22.5t-56.5 -22.5t-22.5 -56.5t22.5 -56.5t56.5 -22.5z" />
    <glyph glyph-name="uni030B" unicode="&#x30b;" 
d="M-353 494l-6 7l152 130l7 -8zM-209 494l-6 7l152 130l7 -8z" />
    <glyph glyph-name="uni030C" unicode="&#x30c;" 
d="M-47 623l7 -7l-141 -132l-140 132l8 7l132 -125z" />
    <glyph glyph-name="uni0312" unicode="&#x312;" 
d="M-90 676l10 -2l-42 -192l-11 2z" />
    <glyph glyph-name="uni0326" unicode="&#x326;" 
d="M-143 -223l-10 2l36 163l11 -2z" />
    <glyph glyph-name="uni0327" unicode="&#x327;" 
d="M-95 -220h-10v135h10v-135z" />
    <glyph glyph-name="uni0328" unicode="&#x328;" 
d="M-35 -227q-51 0 -79.5 24.5t-28.5 66.5q0 79 90 143l7 -7q-86 -58 -86 -134q0 -39 27 -61t74 -22v-10h-4z" />
    <glyph glyph-name="uni0335" unicode="&#x335;" 
d="M-320 195v10h280v-10h-280z" />
    <glyph glyph-name="uni0336" unicode="&#x336;" 
d="M-40 195h-330v10h330v-10z" />
    <glyph glyph-name="uni0337" unicode="&#x337;" 
d="M-52 340l-256 -172l-6 8l256 172z" />
    <glyph glyph-name="uni0338" unicode="&#x338;" 
d="M50 399l-405 -391l-7 7l405 391z" />
    <glyph glyph-name="uni037E" unicode="&#x37e;" horiz-adv-x="249" 
d="M132 312q-17 0 -17 17q0 16 17 16t17 -16q0 -17 -17 -17zM93 -156l-10 2l53 253l11 -2z" />
    <glyph glyph-name="tonos" unicode="&#x384;" horiz-adv-x="211" 
d="M101 483l-10 2l37 153l10 -2z" />
    </font>
</defs>
</svg>
