<?xml version="1.0" standalone="no"?>
<!DOCTYPE svg PUBLIC "-//W3C//DTD SVG 1.1//EN" "http://www.w3.org/Graphics/SVG/1.1/DTD/svg11.dtd" >
<svg xmlns="http://www.w3.org/2000/svg" xmlns:xlink="http://www.w3.org/1999/xlink" version="1.1">
<metadata>
Created by FontForge 20170731 at Mon Jun 27 15:23:56 2016
 By Aleksey,,,
Created by Christian Thalmann with Glyphs in 2015-2016.
</metadata>
<defs>
<font id="Quinoa-LightItalic" horiz-adv-x="520" >
  <font-face 
    font-family="Quinoa-LightItalic"
    font-weight="400"
    font-style="italic"
    font-stretch="normal"
    units-per-em="1000"
    panose-1="0 0 4 0 0 0 0 0 0 0"
    ascent="754"
    descent="-246"
    x-height="400"
    cap-height="600"
    bbox="-424 -231 1400 958"
    underline-thickness="50"
    underline-position="-150"
    slope="-10"
    unicode-range="U+0020-FB4F"
  />
<missing-glyph horiz-adv-x="460" 
d="M377 700v-920h-291v920h291zM306 638h-151v-30h59v-34h-60v-30h152v30h-60v34h60v30zM246 520h-92v-96h152v31h-60v65zM214 488v-33h-30v33h30zM306 399h-152v-30h60v-34h-60v-31h92v65h60v30zM306 344h-30v-61h-122v-31h152v92zM306 232h-92v-52h32v21h30v-43h-92v74
h-30v-104h152v104zM306 73h-152v-104h152v104zM276 42v-43h-92v43h92zM306 -53h-152v-30h64l-64 -43v-31h152v31h-93l64 43h29v30z" />
    <glyph glyph-name="Iacute_J_acutecomb.liga" unicode="&#xcd;J&#x301;" horiz-adv-x="667" 
d="M543 700l-7 16l217 98l8 -16zM128 691l-7 16l217 98l8 -16zM124 231q-16 -96 37 -161t148 -65q93 0 160.5 62t86.5 163l65 370h21l-66 -371q-20 -110 -93 -176.5t-174 -66.5q-105 0 -164.5 71t-42.5 174l2 12h22zM123 352l44 248h21l-43 -248h-22z" />
    <glyph glyph-name="Q_U.liga" unicode="QU" horiz-adv-x="1425" 
d="M1041 -202q122 0 258 50l8 -17q-136 -51 -267 -51q-161 0 -310 61.5t-232 173.5q-65 -28 -136 -28q-149 0 -229.5 97t-55.5 247q21 123 115 203t217 80q152 0 233.5 -97t54.5 -247q-14 -81 -61.5 -145.5t-118.5 -100.5q82 -108 227 -167t297 -59zM1379 600h21l-59 -333
q-24 -134 -97 -207.5t-187 -73.5q-120 0 -177 79.5t-30 225.5l57 309h21l-58 -313q-26 -135 26.5 -208.5t160.5 -73.5q106 0 174 69t90 194zM98 329q-24 -140 51 -231.5t214 -91.5q117 0 205 75t108 191q25 140 -50.5 231.5t-217.5 91.5q-115 0 -203 -75.5t-107 -190.5z" />
    <glyph glyph-name="Q_u.liga" unicode="Qu" horiz-adv-x="1251" 
d="M1299 -152l8 -17q-136 -51 -267 -51q-161 0 -310 61.5t-232 173.5q-65 -28 -136 -28q-149 0 -229.5 97t-55.5 247q21 123 115 203t217 80q152 0 233.5 -97t54.5 -247q-14 -81 -61.5 -145.5t-118.5 -100.5q82 -108 227 -167t297 -59q122 0 258 50zM98 329
q-24 -140 51 -231.5t214 -91.5q117 0 205 75t108 191q25 140 -50.5 231.5t-217.5 91.5q-115 0 -203 -75.5t-107 -190.5zM933 -12q-71 0 -104 48t-19 131l41 233h20l-40 -228q-14 -77 14.5 -121.5t92.5 -44.5q73 0 133.5 55.5t74.5 133.5l36 205h20l-70 -400h-20l19 107
q-33 -54 -85 -86.5t-113 -32.5z" />
    <glyph glyph-name="f_adieresis.liga" unicode="f&#xe4;" horiz-adv-x="828" 
d="M355 391l-2 -17h-174l-65 -374h-20l65 374h-86l2 17h87l18 103q19 102 76 158t141 56q83 0 128.5 -51t29.5 -132h-19q14 72 -25.5 118.5t-113.5 46.5q-76 0 -128 -51t-69 -143l-18 -105h173zM740 531q-21 0 -21 22q0 20 21 20q22 0 22 -20q0 -22 -22 -22zM760 400h20
l-70 -400h-20l15 88q-29 -47 -75.5 -73.5t-101.5 -26.5q-89 0 -142 67t-35 165q16 82 75 136.5t143 54.5q67 0 112 -34.5t59 -94.5zM530 6q74 0 127 49t65 126q19 92 -23.5 152t-127.5 60q-75 0 -130.5 -48.5t-69.5 -126.5q-16 -86 29.5 -149t129.5 -63z" />
    <glyph glyph-name="f_b.liga" unicode="fb" horiz-adv-x="897" 
d="M674 412q89 0 142 -67t35 -165q-16 -82 -75 -136.5t-143 -54.5q-67 0 -111.5 34t-58.5 92l-20 -115h-20l88 506q16 85 -18.5 134.5t-107.5 49.5q-71 0 -119 -49t-64 -135l-20 -115h173l-2 -17h-174l-65 -374h-20l65 374h-86l2 17h87l20 113q17 95 71.5 149.5t134.5 54.5
q81 0 120.5 -55t22.5 -148l-33 -193q29 46 75 73t101 27zM831 182q16 86 -29.5 149t-128.5 63q-74 0 -127.5 -49.5t-64.5 -125.5q-19 -92 23.5 -152t126.5 -60q76 0 131 49t69 126z" />
    <glyph glyph-name="f_f.liga" unicode="ff" horiz-adv-x="652" 
d="M727 708h21l-3 -19h-21q-91 0 -145 -54t-73 -166l-14 -78h165l-2 -18h-166l-66 -373h-20l66 373h-292l-66 -373h-20l66 373h-85l3 18h85l15 85q19 109 79.5 170.5t145.5 61.5q102 0 149 -79q61 79 178 79zM486 467q15 89 51 145q-45 78 -138 78q-77 0 -131.5 -57.5
t-72.5 -156.5l-15 -85h292z" />
    <glyph glyph-name="f_f_adieresis.liga" unicode="ff&#xe4;" horiz-adv-x="1143" 
d="M670 391l-2 -17h-174l-65 -374h-20l65 374h-29v-1h-268l-66 -373h-20l66 373h-85l3 18h85l15 85q19 109 79.5 170.5t145.5 61.5q102 0 150 -80q60 80 162 80q83 0 128.5 -51t29.5 -132h-19q14 72 -25.5 118.5t-113.5 46.5q-76 0 -128 -51t-69 -143l-18 -105h173zM477 391
l18 103q12 68 43 116q-45 80 -139 80q-77 0 -131.5 -57.5t-72.5 -156.5l-15 -85h297zM1055 531q-21 0 -21 22q0 20 21 20q22 0 22 -20q0 -22 -22 -22zM1075 400h20l-70 -400h-20l15 88q-29 -47 -75.5 -73.5t-101.5 -26.5q-89 0 -142 67t-35 165q16 82 75 136.5t143 54.5
q67 0 112 -34.5t59 -94.5zM845 6q74 0 127 49t65 126q19 92 -23.5 152t-127.5 60q-75 0 -130.5 -48.5t-69.5 -126.5q-16 -86 29.5 -149t129.5 -63z" />
    <glyph glyph-name="f_f_b.liga" unicode="ffb" horiz-adv-x="1212" 
d="M989 412q89 0 142 -67t35 -165q-16 -82 -75 -136.5t-143 -54.5q-67 0 -111.5 34t-58.5 92l-20 -115h-20l88 506q16 85 -18.5 134.5t-107.5 49.5q-71 0 -119 -49t-64 -135l-20 -115h173l-2 -17h-174l-65 -374h-20l65 374h-29v-1h-268l-66 -373h-20l66 373h-85l3 18h85
l15 85q19 109 79.5 170.5t145.5 61.5q102 0 148 -78q58 78 155 78q81 0 120.5 -55t22.5 -148l-33 -193q29 46 75 73t101 27zM497 504q12 64 40 108q-45 78 -138 78q-77 0 -131.5 -57.5t-72.5 -156.5l-15 -85h297zM1146 182q16 86 -29.5 149t-128.5 63q-74 0 -127.5 -49.5
t-64.5 -125.5q-19 -92 23.5 -152t126.5 -60q76 0 131 49t69 126z" />
    <glyph glyph-name="f_f_f.liga" unicode="fff" horiz-adv-x="963" 
d="M1038 708h21l-3 -19h-21q-91 0 -145 -54t-73 -166l-14 -78h165l-2 -18h-166l-66 -373h-20l66 373h-292l-66 -373h-20l66 373h-291l-66 -373h-20l66 373h-85l3 18h85l15 85q19 109 79.5 170.5t145.5 61.5q103 0 149 -80q63 80 162 80q102 0 149 -79q61 79 178 79zM471 391
l15 85q15 82 51 135q-44 79 -138 79q-77 0 -131.5 -57.5t-72.5 -156.5l-15 -85h291zM797 467q15 89 51 145q-45 78 -138 78q-77 0 -131.5 -57.5t-72.5 -156.5l-15 -85h292z" />
    <glyph glyph-name="f_f_f_i.liga" unicode="fffi" horiz-adv-x="1207" 
d="M1010 708q80 0 121.5 -50t25.5 -131h-19q14 75 -22 119t-108 44q-73 0 -121 -49t-63 -135l-20 -115h173l-2 -18h-174l-66 -373h-20l66 373h-297l-66 -373h-20l66 373h-287l-66 -373h-20l66 373h-85l3 18h85l15 85q19 109 79.5 170.5t145.5 61.5q100 0 148 -77
q63 77 159 77q100 0 148 -77q58 77 155 77zM467 391l15 85q15 84 53 138q-45 76 -136 76q-77 0 -131.5 -57.5t-72.5 -156.5l-15 -85h287zM804 505q10 60 39 108q-44 77 -137 77q-77 0 -131.5 -57.5t-72.5 -156.5l-15 -85h297zM1044 0l70 400h20l-70 -400h-20z" />
    <glyph glyph-name="f_f_f_j.liga" unicode="fffj" horiz-adv-x="1207" 
d="M1010 708q80 0 121.5 -50t25.5 -131h-19q14 75 -22 119t-108 44q-73 0 -121 -49t-63 -135l-20 -115h173l-2 -18h-174l-66 -373h-20l66 373h-297l-66 -373h-20l66 373h-287l-66 -373h-20l66 373h-85l3 18h85l15 85q19 109 79.5 170.5t145.5 61.5q100 0 148 -77
q63 77 159 77q100 0 148 -77q58 77 155 77zM467 391l15 85q15 84 53 138q-45 76 -136 76q-77 0 -131.5 -57.5t-72.5 -156.5l-15 -85h287zM804 505q10 60 39 108q-44 77 -137 77q-77 0 -131.5 -57.5t-72.5 -156.5l-15 -85h297zM1046 9l69 391h20l-69 -391
q-20 -117 -75.5 -173.5t-150.5 -56.5h-16l3 18h15q85 0 135 52t69 160z" />
    <glyph glyph-name="f_f_f_l.liga" unicode="fffl" horiz-adv-x="1192" 
d="M1009 708q81 0 120.5 -55t23.5 -148l-88 -505h-20l88 506q16 85 -18.5 134.5t-107.5 49.5q-71 0 -119 -49t-64 -135l-20 -115h173l-2 -18h-174l-66 -373h-20l66 373h-297l-66 -373h-20l66 373h-287l-66 -373h-20l66 373h-85l3 18h85l15 85q19 109 79.5 170.5t145.5 61.5
q100 0 148 -77q63 77 159 77q101 0 148 -78q58 78 154 78zM467 391l15 85q15 84 53 138q-45 76 -136 76q-77 0 -131.5 -57.5t-72.5 -156.5l-15 -85h287zM804 505q12 63 39 108q-45 77 -137 77q-77 0 -131.5 -57.5t-72.5 -156.5l-15 -85h297z" />
    <glyph glyph-name="f_f_h.liga" unicode="ffh" horiz-adv-x="1206" 
d="M1006 412q72 0 104.5 -48t18.5 -131l-41 -233h-20l40 228q14 77 -14.5 121.5t-92.5 44.5q-70 0 -128 -50t-77 -126l-38 -218h-20l88 506q16 85 -18.5 134.5t-107.5 49.5q-71 0 -119 -49t-64 -135l-20 -115h173l-2 -17h-174l-65 -374h-20l65 374h-29v-1h-268l-66 -373h-20
l66 373h-85l3 18h85l15 85q19 109 79.5 170.5t145.5 61.5q102 0 148 -78q58 78 155 78q81 0 120.5 -55t22.5 -148l-37 -212q32 54 84.5 86.5t112.5 32.5zM497 504q12 64 40 108q-45 78 -138 78q-77 0 -131.5 -57.5t-72.5 -156.5l-15 -85h297z" />
    <glyph glyph-name="f_f_i.liga" unicode="ffi" horiz-adv-x="900" 
d="M703 708q80 0 121.5 -50t25.5 -131h-19q14 75 -22 119t-108 44q-73 0 -121 -49t-63 -135l-20 -115h173l-2 -18h-174l-66 -373h-20l66 373h-297l-66 -373h-20l66 373h-85l3 18h85l15 85q19 109 79.5 170.5t145.5 61.5q100 0 148 -77q58 77 155 77zM497 505q10 60 39 108
q-44 77 -137 77q-77 0 -131.5 -57.5t-72.5 -156.5l-15 -85h297zM737 0l70 400h20l-70 -400h-20z" />
    <glyph glyph-name="f_f_j.liga" unicode="ffj" horiz-adv-x="900" 
d="M703 708q80 0 121.5 -50t25.5 -131h-19q14 75 -22 119t-108 44q-73 0 -121 -49t-63 -135l-20 -115h173l-2 -18h-174l-66 -373h-20l66 373h-297l-66 -373h-20l66 373h-85l3 18h85l15 85q19 109 79.5 170.5t145.5 61.5q100 0 148 -77q58 77 155 77zM497 505q10 60 39 108
q-44 77 -137 77q-77 0 -131.5 -57.5t-72.5 -156.5l-15 -85h297zM739 9l69 391h20l-69 -391q-20 -117 -75.5 -173.5t-150.5 -56.5h-16l3 18h15q85 0 135 52t69 160z" />
    <glyph glyph-name="f_f_k.liga" unicode="ffk" horiz-adv-x="1168" 
d="M1138 410q-13 -80 -71.5 -134t-146.5 -71q83 -14 122 -68t24 -137h-20q16 90 -33.5 142.5t-148.5 52.5h-72l-34 -195h-20l88 506q16 85 -18.5 134.5t-107.5 49.5q-71 0 -119 -49t-64 -135l-20 -115h173l-2 -18h-174l-66 -373h-20l66 373h-297l-66 -373h-20l66 373h-85
l3 18h85l15 85q19 109 79.5 170.5t145.5 61.5q101 0 148 -78q58 78 154 78q81 0 120.5 -55t23.5 -148l-51 -292h51q106 0 181 54t91 143h20zM497 505q12 63 39 108q-46 77 -137 77q-77 0 -131.5 -57.5t-72.5 -156.5l-15 -85h297z" />
    <glyph glyph-name="f_f_l.liga" unicode="ffl" horiz-adv-x="886" 
d="M702 708q81 0 120.5 -55t23.5 -148l-88 -505h-20l88 506q16 85 -18.5 134.5t-107.5 49.5q-71 0 -119 -49t-64 -135l-20 -115h173l-2 -18h-174l-66 -373h-20l66 373h-297l-66 -373h-20l66 373h-85l3 18h85l15 85q19 109 79.5 170.5t145.5 61.5q101 0 148 -78q58 78 154 78
zM497 505q12 63 39 108q-46 77 -137 77q-77 0 -131.5 -57.5t-72.5 -156.5l-15 -85h297z" />
    <glyph glyph-name="f_f_odieresis.liga" unicode="ff&#xf6;" horiz-adv-x="1117" 
d="M670 391l-2 -18h-174l-66 -373h-20l66 373h-297l-66 -373h-20l66 373h-85l3 18h85l15 85q19 109 79.5 170.5t145.5 61.5q103 0 149 -80q62 80 163 80q83 0 128.5 -51t29.5 -131h-19q14 71 -25.5 117.5t-114.5 46.5q-76 0 -128 -51.5t-68 -142.5l-18 -105h173zM477 391
l18 104q12 67 43 115q-45 80 -139 80q-77 0 -131.5 -57.5t-72.5 -156.5l-15 -85h297zM1056 531q-22 0 -22 22q0 20 22 20q21 0 21 -20q0 -10 -6 -16t-15 -6zM885 411q95 0 149 -65.5t36 -166.5q-16 -87 -77 -139t-144 -52q-95 0 -149 66.5t-36 165.5q16 82 76 136.5
t145 54.5zM1050 181q17 92 -31 152t-135 60q-75 0 -130.5 -48.5t-69.5 -126.5q-17 -89 30.5 -150.5t135.5 -61.5q75 0 130 47.5t70 127.5z" />
    <glyph glyph-name="f_f_ohungarumlaut.liga" unicode="ff&#x151;" horiz-adv-x="1126" 
d="M507 478l-15 -87h164l-2 -18h-166l-66 -373h-20l66 373h-291l-66 -373h-20l66 373h-85l3 18h85l15 85q19 109 79.5 170.5t145.5 61.5q101 0 148 -78q63 78 171 78q59 0 101 -33l-13 -15q-38 30 -89 30q-86 0 -139.5 -54t-71.5 -158zM471 391l15 85q13 82 50 137
q-44 77 -137 77q-77 0 -131.5 -57.5t-72.5 -156.5l-15 -85h291zM823 491l-10 13l174 130l11 -14zM969 491l-11 13l175 130l11 -14zM895 411q95 0 149 -65.5t36 -166.5q-16 -87 -77 -139t-144 -52q-95 0 -149 66.5t-36 165.5q16 82 76 136.5t145 54.5zM1060 181
q17 92 -31 152t-135 60q-75 0 -130.5 -48.5t-69.5 -126.5q-17 -89 30.5 -150.5t135.5 -61.5q75 0 130 47.5t70 127.5z" />
    <glyph glyph-name="f_f_thorn.liga" unicode="ff&#xfe;" horiz-adv-x="1203" 
d="M989 412q89 0 142 -67t35 -165q-16 -82 -75 -136.5t-143 -54.5q-68 0 -113 37.5t-56 101.5l-61 -348h-20l128 726q16 85 -18.5 134.5t-107.5 49.5q-71 0 -119 -49t-64 -135l-20 -115h173l-2 -18h-174l-66 -373h-20l66 373h-297l-66 -373h-20l66 373h-85l3 18h85l15 85
q19 109 79.5 170.5t145.5 61.5q101 0 148 -78q58 78 154 78q81 0 121 -55t23 -148l-35 -200q28 49 75 78t103 29zM497 505q12 63 39 108q-46 77 -137 77q-77 0 -131.5 -57.5t-72.5 -156.5l-15 -85h297zM1147 182q15 86 -30.5 149t-128.5 63q-74 0 -127.5 -49.5t-64.5 -125.5
q-19 -92 23.5 -152t126.5 -60q76 0 131 48.5t70 126.5z" />
    <glyph glyph-name="f_f_t.liga" unicode="fft" horiz-adv-x="996" 
d="M766 373l-41 -230q-12 -66 13 -101.5t82 -35.5q65 0 113 51l12 -11q-52 -58 -129 -58q-64 0 -94 40.5t-17 113.5l41 231h-261l-66 -373h-20l66 373h-288l-66 -373h-20l66 373h-85l3 18h85l15 85q19 109 79.5 170.5t145.5 61.5q102 0 148 -78q66 78 164 78q86 0 131 -60
l-15 -12q-44 54 -117 54q-78 0 -134 -56.5t-74 -155.5l-15 -87h261l16 91h20l-16 -91h207l-2 -18h-208zM468 391l15 85q13 79 53 137q-44 77 -137 77q-77 0 -131.5 -57.5t-72.5 -156.5l-15 -85h288z" />
    <glyph glyph-name="f_f_udieresis.liga" unicode="ff&#xfc;" horiz-adv-x="1169" 
d="M712 690q-76 0 -128 -51t-69 -143l-18 -105h173l-2 -17h-174l-65 -374h-20l65 374h-29v-1h-268l-66 -373h-20l66 373h-85l3 18h85l15 85q19 109 79.5 170.5t145.5 61.5q102 0 150 -80q60 80 162 80q83 0 128.5 -51t29.5 -132h-19q14 72 -25.5 118.5t-113.5 46.5zM495 494
q12 68 43 116q-45 80 -139 80q-77 0 -131.5 -57.5t-72.5 -156.5l-15 -85h297zM1055 531q-21 0 -21 22q0 20 21 20q22 0 22 -20q0 -22 -22 -22zM1100 400h20l-70 -400h-20l19 107q-33 -54 -85.5 -86.5t-112.5 -32.5q-71 0 -104 48t-19 131l41 233h20l-40 -228
q-14 -77 14.5 -121.5t92.5 -44.5q73 0 133.5 55.5t74.5 133.5z" />
    <glyph glyph-name="f_f_uhungarumlaut.liga" unicode="ff&#x171;" horiz-adv-x="1155" 
d="M718 690q-86 0 -139.5 -54t-71.5 -158l-15 -87h164l-2 -18h-166l-66 -373h-20l66 373h-291l-66 -373h-20l66 373h-85l3 18h85l15 85q19 109 79.5 170.5t145.5 61.5q101 0 148 -78q63 78 171 78q59 0 101 -33l-13 -15q-38 30 -89 30zM471 391l15 85q13 82 50 137
q-44 77 -137 77q-77 0 -131.5 -57.5t-72.5 -156.5l-15 -85h291zM1028 620l-175 -129l-10 13l174 130zM999 491l-11 13l175 130l11 -14zM1060 195l36 205h20l-70 -400h-20l19 107q-33 -54 -85 -86.5t-113 -32.5q-71 0 -104 48t-19 131l41 233h20l-40 -228
q-14 -77 14.5 -121.5t92.5 -44.5q73 0 133.5 55.5t74.5 133.5z" />
    <glyph glyph-name="f_h.liga" unicode="fh" horiz-adv-x="891" 
d="M691 412q72 0 104.5 -48t18.5 -131l-41 -233h-20l40 228q14 77 -14.5 121.5t-92.5 44.5q-70 0 -128 -50t-77 -126l-38 -218h-20l88 506q16 85 -18.5 134.5t-107.5 49.5q-71 0 -119 -49t-64 -135l-20 -115h173l-2 -17h-174l-65 -374h-20l65 374h-86l2 17h87l20 113
q17 95 71.5 149.5t134.5 54.5q81 0 120.5 -55t22.5 -148l-37 -212q32 54 84.5 86.5t112.5 32.5z" />
    <glyph glyph-name="f_i.liga" unicode="fi" horiz-adv-x="585" 
d="M93 0l66 373h-86l2 18h87l20 114q17 95 71 149t135 54q80 0 121.5 -50t25.5 -131h-19q14 75 -22 119t-108 44q-73 0 -121 -49t-63 -135l-20 -115h173l-2 -18h-174l-66 -373h-20zM422 0l70 400h20l-70 -400h-20z" />
    <glyph glyph-name="f_j.liga" unicode="fj" horiz-adv-x="585" 
d="M93 0l66 373h-86l2 18h87l20 114q17 95 71 149t135 54q80 0 121.5 -50t25.5 -131h-19q14 75 -22 119t-108 44q-73 0 -121 -49t-63 -135l-20 -115h173l-2 -18h-174l-66 -373h-20zM202 -221l3 18h15q85 0 135 52t69 160l69 391h20l-69 -391q-20 -117 -75.5 -173.5
t-150.5 -56.5h-16z" />
    <glyph glyph-name="f_k.liga" unicode="fk" horiz-adv-x="853" 
d="M823 410q-13 -80 -71.5 -134t-146.5 -71q83 -14 122 -68t24 -137h-20q16 90 -33.5 142.5t-148.5 52.5h-72l-34 -195h-20l88 506q16 85 -18.5 134.5t-107.5 49.5q-71 0 -119 -49t-64 -135l-20 -115h173l-2 -18h-174l-66 -373h-20l66 373h-86l2 18h87l20 114
q17 95 71.5 149t133.5 54q81 0 120.5 -55t23.5 -148l-51 -292h51q106 0 181 54t91 143h20z" />
    <glyph glyph-name="f_l.liga" unicode="fl" horiz-adv-x="570" 
d="M93 0l66 373h-86l2 18h87l20 114q17 95 71.5 149t133.5 54q81 0 120.5 -55t23.5 -148l-88 -505h-20l88 506q16 85 -18.5 134.5t-107.5 49.5q-71 0 -119 -49t-64 -135l-20 -115h173l-2 -18h-174l-66 -373h-20z" />
    <glyph glyph-name="f_odieresis.liga" unicode="f&#xf6;" horiz-adv-x="802" 
d="M93 0l66 373h-86l2 18h87l18 104q19 101 76 157t141 56q83 0 128.5 -51t29.5 -131h-19q14 71 -25.5 117.5t-114.5 46.5q-76 0 -128 -51.5t-68 -142.5l-18 -105h173l-2 -18h-174l-66 -373h-20zM741 531q-22 0 -22 22q0 20 22 20q21 0 21 -20q0 -10 -6 -16t-15 -6zM534 -12
q-95 0 -149 66.5t-36 165.5q16 82 76 136.5t145 54.5q95 0 149 -65.5t36 -166.5q-16 -87 -77 -139t-144 -52zM535 6q75 0 130 47.5t70 127.5q17 92 -31 152t-135 60q-75 0 -130.5 -48.5t-69.5 -126.5q-17 -89 30.5 -150.5t135.5 -61.5z" />
    <glyph glyph-name="f_ohungarumlaut.liga" unicode="f&#x151;" horiz-adv-x="816" 
d="M197 478l-15 -87h164l-2 -18h-166l-66 -373h-20l66 373h-85l2 18h86l15 85q19 114 78.5 173t154.5 59q59 0 101 -33l-13 -15q-38 30 -89 30q-86 0 -139.5 -54t-71.5 -158zM513 491l-10 13l174 130l11 -14zM659 491l-11 13l175 130l11 -14zM585 411q95 0 149 -65.5
t36 -166.5q-16 -87 -77 -139t-144 -52q-95 0 -149 66.5t-36 165.5q16 82 76 136.5t145 54.5zM750 181q17 92 -31 152t-135 60q-75 0 -130.5 -48.5t-69.5 -126.5q-17 -89 30.5 -150.5t135.5 -61.5q75 0 130 47.5t70 127.5z" />
    <glyph glyph-name="f_thorn.liga" unicode="f&#xfe;" horiz-adv-x="888" 
d="M674 412q89 0 142 -67t35 -165q-16 -82 -75 -136.5t-143 -54.5q-68 0 -113 37.5t-56 101.5l-61 -348h-20l128 726q16 85 -18.5 134.5t-107.5 49.5q-71 0 -119 -49t-64 -135l-20 -115h173l-2 -18h-174l-66 -373h-20l66 373h-86l2 18h87l20 114q17 95 71.5 149t133.5 54
q81 0 121 -55t23 -148l-35 -200q28 49 75 78t103 29zM832 182q15 86 -30.5 149t-128.5 63q-74 0 -127.5 -49.5t-64.5 -125.5q-19 -92 23.5 -152t126.5 -60q76 0 131 48.5t70 126.5z" />
    <glyph glyph-name="f_t.liga" unicode="ft" horiz-adv-x="690" 
d="M460 373l-41 -230q-12 -66 13 -101.5t82 -35.5q65 0 113 51l12 -11q-52 -58 -129 -58q-64 0 -94 40.5t-17 113.5l41 231h-261l-66 -373h-20l66 373h-86l2 18h87l15 85q19 109 80.5 170.5t148.5 61.5q86 0 131 -60l-15 -12q-44 54 -117 54q-78 0 -134 -56.5t-74 -155.5
l-15 -87h261l16 91h20l-16 -91h207l-2 -18h-208z" />
    <glyph glyph-name="f_udieresis.liga" unicode="f&#xfc;" horiz-adv-x="854" 
d="M397 690q-76 0 -128 -51t-69 -143l-18 -105h173l-2 -17h-174l-65 -374h-20l65 374h-86l2 17h87l18 103q19 102 76 158t141 56q83 0 128.5 -51t29.5 -132h-19q14 72 -25.5 118.5t-113.5 46.5zM740 531q-21 0 -21 22q0 20 21 20q22 0 22 -20q0 -22 -22 -22zM785 400h20
l-70 -400h-20l19 107q-33 -54 -85.5 -86.5t-112.5 -32.5q-71 0 -104 48t-19 131l41 233h20l-40 -228q-14 -77 14.5 -121.5t92.5 -44.5q73 0 133.5 55.5t74.5 133.5z" />
    <glyph glyph-name="f_uhungarumlaut.liga" unicode="f&#x171;" horiz-adv-x="855" 
d="M408 690q-86 0 -139.5 -54t-71.5 -158l-15 -87h164l-2 -18h-166l-66 -373h-20l66 373h-85l2 18h86l15 85q19 114 78.5 173t154.5 59q59 0 101 -33l-13 -15q-38 30 -89 30zM718 620l-175 -129l-10 13l174 130zM689 491l-11 13l175 130l11 -14zM750 195l36 205h20l-70 -400
h-20l19 107q-33 -54 -85 -86.5t-113 -32.5q-71 0 -104 48t-19 131l41 233h20l-40 -228q-14 -77 14.5 -121.5t92.5 -44.5q73 0 133.5 55.5t74.5 133.5z" />
    <glyph glyph-name="uni00ED02370301.liga" unicode="&#xed;&#x237;&#x301;" horiz-adv-x="518" 
d="M290 620l-175 -129l-11 13l175 130zM573 620l-175 -129l-11 13l175 130zM409 172l40 228h19l-72 -416q-18 -102 -71.5 -158.5t-138.5 -56.5q-99 0 -144 59l15 12q44 -52 130 -52q75 0 123.5 50.5t65.5 144.5l20 115q-66 -110 -197 -110q-153 0 -120 188l39 224h20
l-38 -219q-31 -175 104 -175q73 0 129.5 45.5t75.5 120.5z" />
    <glyph glyph-name="longs_t.liga" unicode="&#x17f;t" horiz-adv-x="704" 
d="M474 373l-41 -230q-12 -66 13 -101.5t82 -35.5q65 0 113 51l12 -11q-52 -58 -129 -58q-64 0 -94.5 40.5t-17.5 113.5l41 231h-95l2 18h96l21 115q16 91 -15 137.5t-101 46.5t-114.5 -47.5t-59.5 -136.5l-89 -506h-20l89 505q17 98 67 150.5t129 52.5q78 0 115 -52
t19 -150l-20 -115h206l-3 -18h-206z" />
    <glyph glyph-name="longs_adieresis.liga" unicode="&#x17f;&#xe4;" horiz-adv-x="796" 
d="M483 525q15 77 -18.5 121t-98.5 44q-72 0 -118.5 -53t-62.5 -141l-87 -496h-20l87 494q18 99 71 156.5t132 57.5q74 0 113 -49t22 -134h-20zM684 531q-21 0 -21 22q0 20 21 20q22 0 22 -20q0 -22 -22 -22zM728 400h20l-70 -400h-20l16 88q-30 -46 -76 -73t-101 -27
q-89 0 -142 67t-35 165q15 82 74 136.5t143 54.5q67 0 112 -34.5t59 -93.5zM498 6q74 0 127 49t65 126q19 92 -23.5 152t-127.5 60q-75 0 -130.5 -48.5t-69.5 -126.5q-16 -86 29.5 -149t129.5 -63z" />
    <glyph glyph-name="longs_b.liga" unicode="&#x17f;b" horiz-adv-x="862" 
d="M639 412q89 0 142 -67t35 -165q-16 -82 -75 -136.5t-143 -54.5q-67 0 -112 34.5t-59 94.5l-20 -118h-20l90 511q14 82 -18 130.5t-99 48.5t-112.5 -49t-60.5 -135l-89 -506h-20l89 504q17 97 68.5 150.5t125.5 53.5q77 0 114.5 -54t21.5 -144l-34 -197q63 99 176 99z
M796 182q16 86 -29.5 149t-128.5 63q-74 0 -127.5 -49t-65.5 -126q-18 -92 24.5 -152t126.5 -60q75 0 130.5 48.5t69.5 126.5z" />
    <glyph glyph-name="longs_h.liga" unicode="&#x17f;h" horiz-adv-x="856" 
d="M657 412q153 0 119 -188l-39 -224h-20l38 219q33 175 -102 175q-78 0 -136.5 -52t-72.5 -133l-37 -209h-20l89 506q16 90 -14 137t-97 47q-68 0 -115 -47t-63 -137l-89 -506h-20l89 504q18 100 71 152t129 52q77 0 112 -52.5t17 -150.5l-36 -206q31 53 82.5 83t114.5 30z
" />
    <glyph glyph-name="longs_i.liga" unicode="&#x17f;i" horiz-adv-x="548" 
d="M78 0l89 505q16 97 67.5 150t127.5 53q75 0 113.5 -49.5t23.5 -131.5h-19q13 75 -20.5 119t-99.5 44q-68 0 -113 -48.5t-60 -135.5l-89 -506h-20zM386 0l70 400h20l-70 -400h-20z" />
    <glyph glyph-name="longs_j.liga" unicode="&#x17f;j" horiz-adv-x="549" 
d="M78 0l89 505q16 97 67.5 150t127.5 53q75 0 113.5 -49.5t23.5 -131.5h-19q13 75 -20.5 119t-99.5 44q-68 0 -113 -48.5t-60 -135.5l-89 -506h-20zM166 -221l3 18h15q85 0 135 52t69 160l69 391h20l-69 -391q-20 -117 -75.5 -173.5t-150.5 -56.5h-16z" />
    <glyph glyph-name="longs_k.liga" unicode="&#x17f;k" horiz-adv-x="819" 
d="M789 410q-13 -79 -72 -133.5t-147 -71.5q82 -14 121.5 -68t25.5 -137h-20q16 90 -34 142.5t-149 52.5h-73l-34 -195h-20l89 506q16 90 -14 137t-97 47q-68 0 -115 -47t-63 -137l-89 -506h-20l89 505q18 99 71 151t129 52q77 0 112 -52.5t17 -150.5l-51 -292h51
q106 0 181 54t92 143h20z" />
    <glyph glyph-name="longs_l.liga" unicode="&#x17f;l" horiz-adv-x="556" 
d="M527 681l-120 -681h-20l120 682h-79q-107 0 -167.5 -51.5t-79.5 -158.5l-83 -472h-20l83 470q20 117 86.5 173.5t183.5 56.5h82q18 0 14 -19z" />
    <glyph glyph-name="longs_odieresis.liga" unicode="&#x17f;&#xf6;" horiz-adv-x="771" 
d="M78 0l87 495q18 103 70 158t132 55q75 0 114 -49t22 -133h-20q15 76 -18.5 120t-98.5 44q-74 0 -119.5 -50.5t-61.5 -143.5l-87 -496h-20zM683 531q-22 0 -22 22q0 20 22 20q21 0 21 -20q0 -10 -6 -16t-15 -6zM503 -12q-95 0 -149 66.5t-35 165.5q15 82 75.5 136.5
t145.5 54.5q95 0 148.5 -65.5t35.5 -166.5q-16 -87 -77 -139t-144 -52zM504 6q75 0 130.5 47.5t70.5 127.5q17 92 -31.5 152t-134.5 60q-75 0 -131 -48.5t-70 -126.5q-17 -89 30.5 -150.5t135.5 -61.5z" />
    <glyph glyph-name="longs_thorn.liga" unicode="&#x17f;&#xfe;" horiz-adv-x="853" 
d="M639 412q89 0 142 -67t35 -165q-16 -82 -75 -136.5t-143 -54.5q-68 0 -113 37t-56 101l-61 -347h-20l129 731q14 82 -18 130.5t-99 48.5t-112.5 -49t-60.5 -135l-89 -506h-20l89 505q17 96 68.5 149.5t125.5 53.5q77 0 114.5 -54t21.5 -144l-36 -205q28 50 74.5 78.5
t103.5 28.5zM796 182q16 86 -29.5 149t-128.5 63q-74 0 -127.5 -49t-65.5 -126q-18 -92 24.5 -152t126.5 -60q75 0 130.5 48.5t69.5 126.5z" />
    <glyph glyph-name="longs_longs.liga" unicode="&#x17f;&#x17f;" horiz-adv-x="606" 
d="M679 708h34l-3 -19h-33q-86 0 -136 -51.5t-69 -159.5l-84 -478h-20l84 477q15 89 50 141q-39 72 -128 72q-76 0 -125 -54t-67 -158l-84 -478h-20l84 476q19 112 73.5 172t139.5 60q95 0 139 -73q58 73 165 73z" />
    <glyph glyph-name="longs_longs_adieresis.liga" unicode="&#x17f;&#x17f;&#xe4;" horiz-adv-x="1088" 
d="M774 525q15 77 -18.5 121t-98.5 44q-72 0 -118.5 -53t-62.5 -141l-87 -496h-20l87 494q14 74 46 124q-39 72 -128 72q-76 0 -125 -54t-67 -158l-84 -478h-20l84 476q19 112 73.5 172t139.5 60q96 0 139 -73q56 73 145 73q74 0 113 -49t22 -134h-20zM975 531q-21 0 -21 22
q0 20 21 20q22 0 22 -20q0 -22 -22 -22zM1019 400h20l-70 -400h-20l16 88q-30 -46 -76 -73t-101 -27q-89 0 -142 67t-35 165q15 82 74 136.5t143 54.5q67 0 112 -34.5t59 -93.5zM789 6q74 0 127 49t65 126q19 92 -23.5 152t-127.5 60q-75 0 -130.5 -48.5t-69.5 -126.5
q-16 -86 29.5 -149t129.5 -63z" />
    <glyph glyph-name="longs_longs_b.liga" unicode="&#x17f;&#x17f;b" horiz-adv-x="1155" 
d="M932 412q89 0 142 -67t35 -165q-16 -82 -75 -136.5t-143 -54.5q-67 0 -112 34.5t-59 94.5l-20 -118h-20l90 511q14 82 -18 130.5t-99 48.5t-112.5 -49t-60.5 -135l-89 -506h-20l89 504q12 68 41 115q-38 71 -127 71q-76 0 -125 -54t-67 -158l-84 -478h-20l84 476
q19 112 73.5 172t139.5 60q94 0 138 -72q54 72 141 72q77 0 114.5 -54t21.5 -144l-34 -197q63 99 176 99zM1089 182q16 86 -29.5 149t-128.5 63q-74 0 -127.5 -49t-65.5 -126q-18 -92 24.5 -152t126.5 -60q75 0 130.5 48.5t69.5 126.5z" />
    <glyph glyph-name="longs_longs_h.liga" unicode="&#x17f;&#x17f;h" horiz-adv-x="1150" 
d="M951 412q153 0 119 -188l-39 -224h-20l38 219q33 175 -102 175q-78 0 -136.5 -52t-72.5 -133l-37 -209h-20l89 506q16 90 -14 137t-97 47q-68 0 -115 -47t-63 -137l-89 -506h-20l89 504q12 66 41 114q-39 72 -128 72q-76 0 -125 -54t-67 -158l-84 -478h-20l84 476
q19 112 73.5 172t139.5 60q96 0 139 -73q54 73 147 73q77 0 112 -52.5t17 -150.5l-36 -206q31 53 82.5 83t114.5 30z" />
    <glyph glyph-name="longs_longs_i.liga" unicode="&#x17f;&#x17f;i" horiz-adv-x="842" 
d="M656 708q75 0 113.5 -49.5t23.5 -131.5h-19q13 75 -20.5 119t-99.5 44q-68 0 -113 -48.5t-60 -135.5l-89 -506h-20l89 505q12 69 40 114q-38 71 -127 71q-76 0 -125 -54t-67 -158l-84 -478h-20l84 476q19 112 73.5 172t139.5 60q94 0 138 -72q54 72 143 72zM680 0l70 400
h20l-70 -400h-20z" />
    <glyph glyph-name="longs_longs_j.liga" unicode="&#x17f;&#x17f;j" horiz-adv-x="843" 
d="M656 708q75 0 113.5 -49.5t23.5 -131.5h-19q13 75 -20.5 119t-99.5 44q-68 0 -113 -48.5t-60 -135.5l-89 -506h-20l89 505q12 69 40 114q-38 71 -127 71q-76 0 -125 -54t-67 -158l-84 -478h-20l84 476q19 112 73.5 172t139.5 60q94 0 138 -72q54 72 143 72zM682 9l69 391
h20l-69 -391q-20 -117 -75.5 -173.5t-150.5 -56.5h-16l3 18h15q85 0 135 52t69 160z" />
    <glyph glyph-name="longs_longs_k.liga" unicode="&#x17f;&#x17f;k" horiz-adv-x="1119" 
d="M1080 410q-13 -79 -72 -133.5t-147 -71.5q82 -14 121.5 -68t25.5 -137h-20q16 90 -34 142.5t-149 52.5h-73l-34 -195h-20l89 506q16 90 -14 137t-97 47q-68 0 -115 -47t-63 -137l-89 -506h-20l89 505q12 67 42 115q-37 70 -126 70q-76 0 -125 -54t-67 -158l-84 -478h-20
l84 476q19 112 73.5 172t139.5 60q96 0 137 -71q56 71 146 71q77 0 112 -52.5t17 -150.5l-51 -292h51q106 0 181 54t92 143h20z" />
    <glyph glyph-name="longs_longs_l.liga" unicode="&#x17f;&#x17f;l" horiz-adv-x="837" 
d="M794 700q18 0 14 -19l-120 -681h-20l120 682h-79q-107 0 -167.5 -51.5t-79.5 -158.5l-83 -472h-20l83 470q17 92 60 146q-38 74 -128 74q-76 0 -125 -54t-67 -158l-84 -478h-20l84 476q19 112 73.5 172t139.5 60q99 0 141 -77q66 69 196 69h82z" />
    <glyph glyph-name="longs_longs_odieresis.liga" unicode="&#x17f;&#x17f;&#xf6;" horiz-adv-x="1063" 
d="M775 526q15 76 -18.5 120t-98.5 44q-74 0 -119.5 -50.5t-61.5 -143.5l-87 -496h-20l87 495q14 76 44 124q-39 71 -127 71q-76 0 -125 -54t-67 -158l-84 -478h-20l84 476q19 112 73.5 172t139.5 60q94 0 138 -72q55 72 146 72q75 0 114 -49t22 -133h-20zM975 531
q-22 0 -22 22q0 20 22 20q21 0 21 -20q0 -10 -6 -16t-15 -6zM832 411q95 0 148.5 -65.5t35.5 -166.5q-16 -87 -77 -139t-144 -52q-95 0 -149 66.5t-35 165.5q15 82 75.5 136.5t145.5 54.5zM997 181q17 92 -31.5 152t-134.5 60q-75 0 -131 -48.5t-70 -126.5
q-17 -89 30.5 -150.5t135.5 -61.5q75 0 130.5 47.5t70.5 127.5z" />
    <glyph glyph-name="longs_longs_thorn.liga" unicode="&#x17f;&#x17f;&#xfe;" horiz-adv-x="1149" 
d="M935 412q89 0 142 -67t35 -165q-16 -82 -75 -136.5t-143 -54.5q-68 0 -113 37t-56 101l-61 -347h-20l129 731q14 82 -18 130.5t-99 48.5t-112.5 -49t-60.5 -135l-89 -506h-20l89 505q12 66 39 111q-38 74 -128 74q-76 0 -125 -54t-67 -158l-84 -478h-20l84 476
q19 112 73.5 172t139.5 60q97 0 139 -74q56 74 143 74q77 0 114.5 -54t21.5 -144l-36 -205q28 50 74.5 78.5t103.5 28.5zM1092 182q16 86 -29.5 149t-128.5 63q-74 0 -127.5 -49t-65.5 -126q-18 -92 24.5 -152t126.5 -60q75 0 130.5 48.5t69.5 126.5z" />
    <glyph glyph-name="longs_longs_longs.liga" unicode="&#x17f;&#x17f;&#x17f;" horiz-adv-x="892" 
d="M965 708h34l-3 -19h-33q-86 0 -136 -51.5t-69 -159.5l-84 -478h-20l84 477q15 89 50 141q-39 72 -128 72q-76 0 -125 -54t-67 -158l-84 -478h-20l84 476q16 90 52 144q-39 70 -126 70q-76 0 -125 -54t-67 -158l-84 -478h-20l84 476q19 112 73.5 172t139.5 60
q96 0 137 -71q57 71 149 71q95 0 139 -73q58 73 165 73z" />
    <glyph glyph-name="longs_longs_longs_h.liga" unicode="&#x17f;&#x17f;&#x17f;h" horiz-adv-x="1446" 
d="M1242 412q153 0 119 -188l-39 -224h-20l38 219q33 175 -102 175q-78 0 -136.5 -52t-72.5 -133l-37 -209h-20l89 506q16 90 -14 137t-97 47q-68 0 -115 -47t-63 -137l-89 -506h-20l89 504q12 66 40 113q-37 73 -128 73q-76 0 -125 -54t-67 -158l-84 -478h-20l84 476
q15 88 50 141q-37 73 -128 73q-76 0 -125 -54t-67 -158l-84 -478h-20l84 476q19 112 73.5 172t139.5 60q97 0 139 -74q57 74 151 74q97 0 139 -74q56 74 148 74q77 0 112 -52.5t17 -150.5l-36 -206q31 53 82.5 83t114.5 30z" />
    <glyph glyph-name="longs_longs_longs_i.liga" unicode="&#x17f;&#x17f;&#x17f;i" horiz-adv-x="1135" 
d="M948 708q75 0 113.5 -49.5t23.5 -131.5h-19q13 75 -20.5 119t-99.5 44q-68 0 -113 -48.5t-60 -135.5l-89 -506h-20l89 505q12 68 40 113q-39 72 -128 72q-76 0 -125 -54t-67 -158l-84 -478h-20l84 476q15 86 49 140q-38 74 -128 74q-76 0 -125 -54t-67 -158l-84 -478h-20
l84 476q19 112 73.5 172t139.5 60q97 0 139 -74q57 74 152 74q97 0 138 -73q55 73 144 73zM972 0l70 400h20l-70 -400h-20z" />
    <glyph glyph-name="longs_longs_longs_j.liga" unicode="&#x17f;&#x17f;&#x17f;j" horiz-adv-x="1135" 
d="M948 708q75 0 113.5 -49.5t23.5 -131.5h-19q13 75 -20.5 119t-99.5 44q-68 0 -113 -48.5t-60 -135.5l-89 -506h-20l89 505q12 68 40 113q-39 72 -128 72q-76 0 -125 -54t-67 -158l-84 -478h-20l84 476q15 86 49 140q-38 74 -128 74q-76 0 -125 -54t-67 -158l-84 -478h-20
l84 476q19 112 73.5 172t139.5 60q97 0 139 -74q57 74 152 74q97 0 138 -73q55 73 144 73zM974 9l69 391h20l-69 -391q-20 -117 -75.5 -173.5t-150.5 -56.5h-16l3 18h15q85 0 135 52t69 160z" />
    <glyph glyph-name="longs_longs_longs_k.liga" unicode="&#x17f;&#x17f;&#x17f;k" horiz-adv-x="1405" 
d="M1375 410q-13 -79 -72 -133.5t-147 -71.5q82 -14 121.5 -68t25.5 -137h-20q16 90 -34 142.5t-149 52.5h-73l-34 -195h-20l89 506q16 90 -14 137t-97 47q-68 0 -115 -47t-63 -137l-89 -506h-20l89 505q11 64 40 112q-37 73 -128 73q-76 0 -125 -54t-67 -158l-84 -478h-20
l84 476q15 86 49 140q-38 74 -128 74q-76 0 -125 -54t-67 -158l-84 -478h-20l84 476q19 112 73.5 172t139.5 60q97 0 139 -74q57 74 152 74q97 0 139 -74q56 74 148 74q77 0 112 -52.5t17 -150.5l-51 -292h51q106 0 181 54t92 143h20z" />
    <glyph glyph-name="longs_longs_longs_l.liga" unicode="&#x17f;&#x17f;&#x17f;l" horiz-adv-x="1123" 
d="M1081 700q18 0 14 -19l-120 -681h-20l120 682h-79q-107 0 -167.5 -51.5t-79.5 -158.5l-83 -472h-20l83 470q17 95 63 149q-39 71 -127 71q-76 0 -125 -54t-67 -158l-84 -478h-20l84 476q15 86 49 140q-38 74 -128 74q-76 0 -125 -54t-67 -158l-84 -478h-20l84 476
q19 112 73.5 172t139.5 60q97 0 139 -74q57 74 152 74q97 0 139 -74q69 66 194 66h82z" />
    <glyph glyph-name="longs_longs_longs_t.liga" unicode="&#x17f;&#x17f;&#x17f;t" horiz-adv-x="1286" 
d="M1057 373l-41 -230q-12 -66 13 -101.5t82 -35.5q65 0 113 51l12 -11q-52 -58 -129 -58q-64 0 -94.5 40.5t-17.5 113.5l41 231h-95l2 18h96l21 115q16 91 -15 137.5t-101 46.5t-114.5 -47.5t-59.5 -136.5l-89 -506h-20l89 505q12 70 40 115q-39 70 -127 70q-76 0 -125 -54
t-67 -158l-84 -478h-20l84 476q15 87 51 142q-39 72 -128 72q-76 0 -125 -54t-67 -158l-84 -478h-20l84 476q19 112 73.5 172t139.5 60q96 0 139 -73q56 73 150 73q96 0 137 -71q52 71 145 71q78 0 115 -52t19 -150l-20 -115h206l-3 -18h-206z" />
    <glyph glyph-name="longs_longs_t.liga" unicode="&#x17f;&#x17f;t" horiz-adv-x="1004" 
d="M774 373l-41 -230q-12 -66 13 -101.5t82 -35.5q65 0 113 51l12 -11q-52 -58 -129 -58q-64 0 -94.5 40.5t-17.5 113.5l41 231h-95l2 18h96l21 115q16 91 -15 137.5t-101 46.5t-114.5 -47.5t-59.5 -136.5l-89 -506h-20l89 505q10 64 36 109q-37 76 -129 76q-76 0 -125 -54
t-67 -158l-84 -478h-20l84 476q19 112 73.5 172t139.5 60q97 0 140 -75q52 75 148 75q78 0 115 -52t19 -150l-20 -115h206l-3 -18h-206z" />
    <glyph glyph-name="longs_longs_udieresis.liga" unicode="&#x17f;&#x17f;&#xfc;" horiz-adv-x="1081" 
d="M774 525q15 77 -18.5 121t-98.5 44q-72 0 -118.5 -53t-62.5 -141l-87 -496h-20l87 494q14 74 46 124q-39 72 -128 72q-76 0 -125 -54t-67 -158l-84 -478h-20l84 476q19 112 73.5 172t139.5 60q96 0 139 -73q56 73 145 73q74 0 113 -49t22 -134h-20zM984 531q-21 0 -21 22
q0 20 21 20q22 0 22 -20q0 -22 -22 -22zM1011 400h20l-70 -400h-20l16 95q-65 -107 -194 -107q-154 0 -121 188l39 224h20l-38 -219q-31 -175 103 -175q78 0 136 51.5t72 133.5z" />
    <glyph glyph-name="longs_udieresis.liga" unicode="&#x17f;&#xfc;" horiz-adv-x="789" 
d="M483 525q15 77 -18.5 121t-98.5 44q-72 0 -118.5 -53t-62.5 -141l-87 -496h-20l87 494q18 99 71 156.5t132 57.5q74 0 113 -49t22 -134h-20zM693 531q-21 0 -21 22q0 20 21 20q22 0 22 -20q0 -22 -22 -22zM720 400h20l-70 -400h-20l16 95q-65 -107 -194 -107
q-154 0 -121 188l39 224h20l-38 -219q-31 -175 103 -175q78 0 136 51.5t72 133.5z" />
    <glyph glyph-name="t_t.liga" unicode="tt" horiz-adv-x="757" 
d="M527 373l-41 -230q-12 -66 13 -101.5t82 -35.5q66 0 113 51l12 -11q-51 -58 -129 -58q-64 0 -94 40.5t-17 113.5l41 231h-343l-41 -230q-12 -66 13 -101.5t82 -35.5q65 0 113 51l12 -11q-52 -58 -129 -58q-64 0 -94 40.5t-17 113.5l41 231h-76l2 18h77l16 91h20l-16 -91
h343l16 91h20l-16 -91h206l-2 -18h-207z" />
    <glyph glyph-name=".notdef" horiz-adv-x="460" 
d="M377 700v-920h-291v920h291zM306 638h-151v-30h59v-34h-60v-30h152v30h-60v34h60v30zM246 520h-92v-96h152v31h-60v65zM214 488v-33h-30v33h30zM306 399h-152v-30h60v-34h-60v-31h92v65h60v30zM306 344h-30v-61h-122v-31h152v92zM306 232h-92v-52h32v21h30v-43h-92v74
h-30v-104h152v104zM306 73h-152v-104h152v104zM276 42v-43h-92v43h92zM306 -53h-152v-30h64l-64 -43v-31h152v31h-93l64 43h29v30z" />
    <glyph glyph-name=".null" horiz-adv-x="0" 
 />
    <glyph glyph-name="nonmarkingreturn" horiz-adv-x="333" 
 />
    <glyph glyph-name="space" unicode=" " horiz-adv-x="250" 
 />
    <glyph glyph-name="exclam" unicode="!" horiz-adv-x="256" 
d="M130 270l76 430h21l-76 -430h-21zM96 -6q-22 0 -22 22q0 21 22 21q21 0 21 -21q0 -10 -6 -16t-15 -6z" />
    <glyph glyph-name="quotedbl" unicode="&#x22;" horiz-adv-x="416" 
d="M147 324h-18l49 276h20zM327 324h-18l49 276h20z" />
    <glyph glyph-name="numbersign" unicode="#" horiz-adv-x="660" 
d="M637 357h-132l-78 -222h171l-3 -18h-175l-77 -219l-18 3l77 216h-226l-77 -219l-18 3l76 216h-122l3 18h126l78 222h-165l4 18h167l81 229l17 -3l-79 -226h226l81 229l17 -3l-80 -226h130zM408 135l79 222h-227l-78 -222h226z" />
    <glyph glyph-name="dollar" unicode="$" horiz-adv-x="600" 
d="M356 595q-79 0 -135.5 -31.5t-69.5 -87.5q-7 -30 2.5 -55.5t26.5 -41t47 -29.5t51.5 -20.5t52.5 -14.5q33 -9 53 -15t54.5 -21t53 -31.5t30.5 -43.5t6 -60q-14 -72 -82.5 -114.5t-158.5 -42.5h-8l-19 -107h-18l18 108q-78 5 -134.5 39t-81.5 91l16 10q26 -58 85 -90
t141 -32q84 0 147.5 37.5t75.5 101.5q3 19 0 35.5t-13.5 30t-21.5 24.5t-30 20t-31.5 15t-33.5 12t-29.5 8.5t-25.5 6.5q-31 7 -53.5 14t-55 22t-51.5 33t-30 47.5t-3 64.5q16 68 79.5 102t146.5 34h16l18 101h18l-18 -103q69 -7 118.5 -39.5t71.5 -80.5l-16 -11
q-24 50 -78 82t-131 32z" />
    <glyph glyph-name="percent" unicode="%" horiz-adv-x="736" 
d="M216 330q-68 0 -103.5 44t-20.5 111q13 58 57 92.5t103 34.5q68 0 103 -44t21 -110q-13 -59 -56.5 -93.5t-103.5 -34.5zM82 -8l-13 11l626 603l12 -12zM218 348q52 0 89.5 29.5t49.5 81.5q14 59 -16 97.5t-90 38.5q-52 0 -90.5 -30.5t-49.5 -80.5q-14 -59 16 -97.5
t91 -38.5zM517 -12q-69 0 -104.5 44t-19.5 111q13 58 57 92.5t103 34.5q68 0 103 -44t21 -110q-13 -59 -56 -93.5t-104 -34.5zM519 6q52 0 89.5 29.5t49.5 81.5q14 59 -16 97t-90 38q-53 0 -91 -30t-49 -80q-14 -59 16 -97.5t91 -38.5z" />
    <glyph glyph-name="ampersand" unicode="&#x26;" horiz-adv-x="576" 
d="M510 337q-24 -150 -104 -247l89 -86l-13 -13l-88 84q-81 -89 -183 -89q-76 0 -127 46t-37 121q19 94 146 167q-36 71 -26 136q11 71 63.5 114.5t130.5 43.5q86 0 131 -52l-14 -14q-41 47 -115 47q-70 0 -118.5 -38.5t-58.5 -104.5q-10 -65 35 -143.5t172 -206.5
q75 93 98 235h19zM212 5q94 0 169 83q-131 129 -180 216q-117 -63 -135 -152q-12 -64 32.5 -105.5t113.5 -41.5z" />
    <glyph glyph-name="quotesingle" unicode="'" horiz-adv-x="236" 
d="M147 324h-18l49 276h20z" />
    <glyph glyph-name="parenleft" unicode="(" horiz-adv-x="344" 
d="M205 -220q-91 95 -123.5 225t-8.5 265q25 139 102.5 257t194.5 183l10 -15q-114 -64 -189 -178t-98 -248q-23 -132 8 -257.5t118 -217.5z" />
    <glyph glyph-name="parenright" unicode=")" horiz-adv-x="344" 
d="M-10 -220l-10 15q114 64 189 178t98 248q23 132 -8 257.5t-118 217.5l14 14q91 -95 123.5 -225t8.5 -265q-25 -139 -102.5 -257t-194.5 -183z" />
    <glyph glyph-name="asterisk" unicode="*" horiz-adv-x="531" 
d="M525 493v-19h-207l70 -195l-18 -6l-67 195l-166 -132l-11 15l165 129l-178 113l10 14l179 -114l54 198l18 -5l-57 -197z" />
    <glyph glyph-name="plus" unicode="+" 
d="M491 258v-18h-221v-221h-18v221h-221v18h221v221h18v-221h221z" />
    <glyph glyph-name="comma" unicode="," horiz-adv-x="236" 
d="M24 -159l-17 7l97 255l19 -7z" />
    <glyph glyph-name="hyphen" unicode="-" horiz-adv-x="420" 
d="M366 240h-300l4 18h300z" />
    <glyph glyph-name="period" unicode="." horiz-adv-x="236" 
d="M86 -6q-22 0 -22 22q0 21 22 21q21 0 21 -21q0 -10 -6 -16t-15 -6z" />
    <glyph glyph-name="slash" unicode="/" horiz-adv-x="362" 
d="M-25 -109l390 813l17 -7l-390 -814z" />
    <glyph glyph-name="zero" unicode="0" horiz-adv-x="602" 
d="M285 -12q-122 0 -187 82.5t-42 205.5q20 107 96 172t182 65q121 0 186.5 -82t42.5 -206q-21 -110 -97 -173.5t-181 -63.5zM286 7q98 0 168.5 59.5t89.5 160.5q22 114 -38 190.5t-174 76.5q-99 0 -168.5 -60.5t-88.5 -159.5q-22 -112 37.5 -189.5t173.5 -77.5z" />
    <glyph glyph-name="one" unicode="1" horiz-adv-x="333" 
d="M132 0l71 399q11 49 1 66t-59 17h-50l2 18h52q57 0 70.5 -20.5t3.5 -79.5l-71 -400h-20z" />
    <glyph glyph-name="two" unicode="2" horiz-adv-x="465" 
d="M417 371q-8 -53 -52.5 -104.5t-130.5 -113.5l-189 -135h346l-3 -18h-380l2 14l213 153q82 60 124.5 108.5t49.5 97.5q9 57 -26 89.5t-95 32.5q-52 0 -98 -26t-71 -69l-14 10q26 44 75.5 73.5t109.5 29.5q68 0 109 -38t30 -104z" />
    <glyph glyph-name="three" unicode="3" horiz-adv-x="481" 
d="M438 359q-21 -124 -189 -149q176 -24 153 -157q-13 -76 -77 -120.5t-159 -44.5q-110 0 -185 47l12 15q69 -43 173 -43q89 0 148 41.5t69 108.5q12 71 -46 107t-186 36l4 18q121 0 186 38.5t77 105.5q10 62 -31.5 97t-119.5 35q-98 0 -177 -54l-8 14q83 58 186 58
q85 0 133.5 -41t36.5 -112z" />
    <glyph glyph-name="four" unicode="4" horiz-adv-x="530" 
d="M466 65l-3 -18h-114l-26 -147h-19l26 147h-318l2 15l392 438h23l-77 -435h114zM39 65h294l73 409z" />
    <glyph glyph-name="five" unicode="5" horiz-adv-x="478" 
d="M184 -112q-50 0 -98 15.5t-77 40.5l12 15q28 -25 74 -39t91 -14q76 0 129.5 44.5t66.5 117.5q15 84 -37.5 124t-175.5 40h-66l47 268h305l-3 -18h-284l-42 -232h46q133 0 189.5 -45t39.5 -140q-15 -81 -74 -129t-143 -48z" />
    <glyph glyph-name="six" unicode="6" 
d="M297 373q92 0 142 -52t35 -143q-13 -81 -74 -135.5t-154 -54.5q-103 0 -158 76.5t-35 195.5q27 153 137 246.5t266 93.5h10l-3 -18h-8q-142 0 -244.5 -81.5t-134.5 -219.5q38 41 96.5 66.5t124.5 25.5zM454 179q14 82 -30.5 129t-129.5 47q-64 0 -125 -27.5t-97 -74.5
q-19 -107 31 -177t146 -70q81 0 136.5 48t68.5 125z" />
    <glyph glyph-name="seven" unicode="7" horiz-adv-x="460" 
d="M84 500h388l-3 -17l-375 -588l-16 9l370 578h-367z" />
    <glyph glyph-name="eight" unicode="8" horiz-adv-x="526" 
d="M495 440q-10 -50 -49.5 -84t-98.5 -45q69 -17 103 -61.5t22 -106.5q-13 -69 -76.5 -112t-158.5 -43q-106 0 -160 51.5t-39 126.5q12 59 61.5 99.5t125.5 50.5q-55 17 -84 58.5t-19 94.5q11 61 66.5 97t134.5 36q89 0 137.5 -46.5t34.5 -115.5zM293 321q71 0 121 33t62 89
q12 61 -31 101t-123 40q-75 0 -124 -33.5t-58 -84.5q-11 -58 33 -101.5t120 -43.5zM453 146q13 70 -37.5 114t-143.5 44q-86 0 -144.5 -39t-69.5 -102q-13 -68 36.5 -112.5t143.5 -44.5q84 0 143 37.5t72 102.5z" />
    <glyph glyph-name="nine" unicode="9" 
d="M292 512q103 0 158 -76.5t35 -195.5q-27 -153 -137 -246.5t-266 -93.5h-10l3 18h8q142 0 244 81t135 219q-37 -41 -96 -66t-125 -25q-92 0 -142 52t-35 143q13 81 74 135.5t154 54.5zM244 145q64 0 125 27.5t97 74.5q19 107 -31 177t-146 70q-81 0 -136.5 -48t-68.5 -125
q-14 -82 30.5 -129t129.5 -47z" />
    <glyph glyph-name="colon" unicode=":" horiz-adv-x="237" 
d="M137 281q-22 0 -22 22q0 21 22 21q21 0 21 -21q0 -10 -6 -16t-15 -6zM86 -6q-22 0 -22 22q0 21 22 21q21 0 21 -21q0 -10 -6 -16t-15 -6z" />
    <glyph glyph-name="semicolon" unicode=";" horiz-adv-x="249" 
d="M150 281q-22 0 -22 22q0 21 22 21q21 0 21 -21q0 -10 -6 -16t-15 -6zM34 -159l-17 7l97 255l19 -7z" />
    <glyph glyph-name="less" unicode="&#x3c;" horiz-adv-x="515" 
d="M427 448l-357 -197l357 -197l-9 -17l-371 207v14l371 207z" />
    <glyph glyph-name="equal" unicode="=" 
d="M499 340h-460v18h460v-18zM499 140h-460v18h460v-18z" />
    <glyph glyph-name="greater" unicode="&#x3e;" horiz-adv-x="515" 
d="M97 462l371 -207v-14l-371 -207l-9 17l357 197l-357 197z" />
    <glyph glyph-name="question" unicode="?" horiz-adv-x="420" 
d="M231 270h-21l1 4q9 51 32.5 82t74.5 72q32 26 47 39.5t32 38t22 51.5q11 60 -27 98t-108 38q-101 0 -170 -95l-14 11q77 103 184 103q74 0 121.5 -41.5t32.5 -117.5q-8 -42 -31 -69t-74 -68q-50 -41 -71.5 -68.5t-30.5 -77.5zM181 -6q-22 0 -22 22q0 21 22 21
q21 0 21 -21q0 -10 -6 -16t-15 -6z" />
    <glyph glyph-name="at" unicode="@" horiz-adv-x="1025" 
d="M565 701q79 0 146 -19.5t113.5 -52.5t82 -78.5t51.5 -97.5t22 -108.5t-7 -111.5q-17 -88 -64 -148t-121 -60q-53 0 -78.5 33.5t-20.5 94.5q-33 -58 -89 -93t-120 -35q-86 0 -134 61.5t-32 152.5q16 89 84.5 149.5t153.5 60.5q64 0 108.5 -34t58.5 -91l19 113h19l-46 -259
q-11 -66 10 -100.5t70 -34.5q65 0 106.5 54.5t57.5 135.5q12 52 7 106t-20 104t-48.5 93.5t-77.5 76t-109 51.5t-142 19q-102 0 -186.5 -32.5t-141 -87t-92 -120t-49.5 -138.5q-27 -136 19.5 -252.5t155 -186t254.5 -69.5q137 0 240 48l7 -17q-110 -49 -249 -49
q-92 0 -172 28t-136 77t-95 115.5t-48 143.5t4 162q15 80 54 149.5t98.5 125.5t146.5 88.5t190 32.5zM481 43q79 0 143.5 57t79.5 140q14 81 -29.5 136t-120.5 55q-79 0 -142.5 -56t-78.5 -140q-14 -82 28.5 -137t119.5 -55z" />
    <glyph glyph-name="A" unicode="A" horiz-adv-x="632" 
d="M524 0l-51 209h-311l-124 -209h-23l358 600h24l150 -600h-23zM173 227h295l-86 352z" />
    <glyph glyph-name="B" unicode="B" horiz-adv-x="653" 
d="M604 446q-10 -50 -49 -86.5t-94 -50.5q70 -13 104 -56t24 -106q-12 -67 -66.5 -107t-141.5 -40h-304l106 600h254q89 0 134.5 -43.5t32.5 -110.5zM401 316q66 0 118 36.5t64 93.5q12 59 -28 97.5t-122 38.5h-233l-47 -266h248zM570 150q11 67 -35 107.5t-135 40.5h-249
l-50 -280h281q77 0 127 36t61 96z" />
    <glyph glyph-name="C" unicode="C" horiz-adv-x="630" 
d="M344 -13q-137 0 -216 99.5t-51 244.5q23 124 114.5 203.5t213.5 79.5q146 0 237 -126l-15 -13q-84 120 -222 120q-113 0 -198.5 -73t-108.5 -193q-26 -133 46 -228t203 -95q135 0 241 122l14 -13q-112 -128 -258 -128z" />
    <glyph glyph-name="D" unicode="D" horiz-adv-x="669" 
d="M343 600q150 0 230 -88t57 -225q-24 -136 -123 -211.5t-259 -75.5h-180l106 600h169zM251 19q149 0 242 71t116 199q22 129 -53 211t-217 82h-148l-99 -563h159z" />
    <glyph glyph-name="E" unicode="E" horiz-adv-x="580" 
d="M589 581h-397l-47 -264h377l-3 -18h-377l-50 -280h408l-4 -19h-428l106 600h418z" />
    <glyph glyph-name="F" unicode="F" horiz-adv-x="560" 
d="M592 581h-400l-49 -274h374l-3 -18h-374l-51 -289h-21l106 600h422z" />
    <glyph glyph-name="G" unicode="G" horiz-adv-x="737" 
d="M381 311h320q0 -8 -1 -14q-18 -138 -112 -224t-228 -86q-148 0 -229 99.5t-54 244.5q24 128 118.5 205.5t225.5 77.5q149 0 232 -88l-17 -13q-77 82 -217 82q-121 0 -210 -72.5t-112 -193.5q-25 -136 50.5 -229.5t213.5 -93.5q125 0 212.5 79.5t105.5 207.5h-301z" />
    <glyph glyph-name="H" unicode="H" horiz-adv-x="693" 
d="M640 600h21l-106 -600h-21l53 299h-445l-53 -299h-21l106 600h21l-50 -283h445z" />
    <glyph glyph-name="I" unicode="I" horiz-adv-x="283" 
d="M96 0l106 600h21l-106 -600h-21z" />
    <glyph glyph-name="J" unicode="J" horiz-adv-x="308" 
d="M-104 -139h27q80 0 135.5 51t70.5 138l97 550h21l-97 -550q-17 -97 -79 -152.5t-153 -55.5h-26z" />
    <glyph glyph-name="K" unicode="K" horiz-adv-x="635" 
d="M347 308q110 -23 162 -105t31 -203h-21q24 135 -46 217t-209 82h-122l-53 -299h-21l106 600h21l-50 -283h121q129 0 228.5 80.5t121.5 202.5h21q-19 -109 -98.5 -189t-191.5 -103z" />
    <glyph glyph-name="L" unicode="L" horiz-adv-x="525" 
d="M92 19h379l-3 -19h-400l106 600h21z" />
    <glyph glyph-name="M" unicode="M" horiz-adv-x="826" 
d="M728 600h26l-66 -600h-20l62 572l-329 -492h-18l-155 494l-140 -574h-20l146 600h26l156 -494z" />
    <glyph glyph-name="N" unicode="N" horiz-adv-x="683" 
d="M630 600h21l-106 -600h-22l-334 571l-101 -571h-20l106 600h22l334 -572z" />
    <glyph glyph-name="O" unicode="O" horiz-adv-x="738" 
d="M362 -13q-149 0 -229.5 97t-55.5 247q21 123 115 203t217 80q152 0 233.5 -97t54.5 -247q-21 -123 -115.5 -203t-219.5 -80zM363 6q117 0 205 75t108 191q25 140 -50.5 231.5t-217.5 91.5q-115 0 -203 -75.5t-107 -190.5q-24 -140 51 -231.5t214 -91.5z" />
    <glyph glyph-name="P" unicode="P" horiz-adv-x="578" 
d="M286 212h-160l-37 -212h-21l106 600h174q112 0 169 -55.5t38 -151.5q-17 -87 -86.5 -134t-182.5 -47zM344 581h-153l-62 -351h159q104 0 168 44.5t79 121.5q16 87 -35.5 136t-155.5 49z" />
    <glyph glyph-name="Q" unicode="Q" horiz-adv-x="738" 
d="M697 270q-14 -80 -61 -144.5t-117 -100.5l102 -116l-16 -14l-105 121q-64 -29 -138 -29q-149 0 -229.5 97t-55.5 247q21 123 115 203t217 80q152 0 233.5 -97t54.5 -247zM363 6q117 0 205 75t108 191q25 140 -50.5 231.5t-217.5 91.5q-115 0 -203 -75.5t-107 -190.5
q-24 -140 51 -231.5t214 -91.5z" />
    <glyph glyph-name="R" unicode="R" horiz-adv-x="654" 
d="M435 600q89 0 135 -44.5t33 -117.5q-11 -64 -59 -107.5t-120 -54.5q158 -48 117 -276h-21q25 134 -23 203t-165 69h-186l-48 -272h-21l106 600h252zM582 437q12 67 -29 106.5t-122 39.5h-231l-51 -293h229q80 0 136.5 41t67.5 106z" />
    <glyph glyph-name="S" unicode="S" horiz-adv-x="600" 
d="M287 -13q-88 0 -151.5 34.5t-91.5 96.5l16 10q26 -58 85 -90t141 -32q84 0 147.5 37.5t75.5 101.5q3 19 0 35.5t-13.5 30t-21.5 24.5t-30 20t-31.5 15t-33.5 12t-29.5 8.5t-25.5 6.5q-31 7 -53.5 14t-55 22t-51.5 33t-30 47.5t-3 64.5q16 68 79.5 102t146.5 34
q81 0 140.5 -34t83.5 -88l-16 -11q-24 50 -78 82t-131 32q-79 0 -135.5 -31.5t-69.5 -87.5q-7 -30 2.5 -55.5t26.5 -41t47 -29.5t51.5 -20.5t52.5 -14.5q33 -9 53 -15t54.5 -21t53 -31.5t30.5 -43.5t6 -60q-14 -72 -82.5 -114.5t-158.5 -42.5z" />
    <glyph glyph-name="T" unicode="T" horiz-adv-x="593" 
d="M639 600l-3 -19h-261l-103 -581h-21l103 581h-261l3 19h543z" />
    <glyph glyph-name="U" unicode="U" horiz-adv-x="687" 
d="M319 -14q-120 0 -177 79.5t-30 225.5l57 309h21l-58 -313q-26 -135 26.5 -208.5t160.5 -73.5q106 0 174 69t90 194l58 332h21l-59 -333q-24 -134 -97 -207.5t-187 -73.5z" />
    <glyph glyph-name="V" unicode="V" horiz-adv-x="632" 
d="M630 600h23l-361 -600h-24l-147 600h22l140 -580z" />
    <glyph glyph-name="W" unicode="W" horiz-adv-x="926" 
d="M902 604h23l-287 -604h-26l-83 576l-287 -576h-27l-72 604h21l69 -581l287 577h25l83 -578z" />
    <glyph glyph-name="X" unicode="X" horiz-adv-x="654" 
d="M413 306q86 -26 123 -106.5t15 -199.5h-22q25 136 -27 217.5t-165 81.5q-105 0 -182 -81.5t-100 -217.5h-22q22 125 87.5 207.5t158.5 102.5q-87 24 -124.5 100.5t-15.5 189.5h22q-25 -130 29 -206.5t166 -76.5q104 0 180.5 77.5t98.5 205.5h22q-21 -119 -86 -197
t-158 -97z" />
    <glyph glyph-name="Y" unicode="Y" horiz-adv-x="580" 
d="M588 600h21q-26 -156 -104 -242.5t-191 -86.5h-3l-47 -271h-21l47 272q-111 8 -157.5 94t-20.5 234h21q-28 -147 20 -229t161 -82q105 0 176.5 81.5t97.5 229.5z" />
    <glyph glyph-name="Z" unicode="Z" horiz-adv-x="595" 
d="M610 583l-540 -548q-12 -12 -19 -18q22 1 64 1h396l-3 -18h-487l3 16l533 541q12 12 28 26q-30 -1 -75 -1h-380l3 18h481z" />
    <glyph glyph-name="bracketleft" unicode="[" horiz-adv-x="322" 
d="M365 683h-146l-157 -886h146l-3 -17h-166l3 17l157 886h-1l4 17h166z" />
    <glyph glyph-name="backslash" unicode="\" horiz-adv-x="364" 
d="M226 -114l-111 813l20 4l111 -813z" />
    <glyph glyph-name="bracketright" unicode="]" horiz-adv-x="322" 
d="M294 683l-157 -886h1l-4 -17h-166l3 17h146l157 886h-146l3 17h166z" />
    <glyph glyph-name="asciicircum" unicode="^" horiz-adv-x="422" 
d="M436 441l-16 -12l-140 160l-198 -161l-12 13l213 173z" />
    <glyph glyph-name="underscore" unicode="_" 
d="M450 -26h-460l2 17h460z" />
    <glyph glyph-name="grave" unicode="`" horiz-adv-x="264" 
d="M255 491l-130 129l14 14l129 -130z" />
    <glyph glyph-name="a" unicode="a" horiz-adv-x="523" 
d="M455 400h20l-70 -400h-20l15 88q-29 -47 -75.5 -73.5t-101.5 -26.5q-89 0 -142 67t-35 165q16 82 75 136.5t143 54.5q67 0 112 -35t58 -95zM226 6q73 0 126 49.5t65 125.5q18 92 -24.5 152t-126.5 60q-75 0 -130.5 -48.5t-69.5 -126.5q-16 -87 30 -149.5t130 -62.5z" />
    <glyph glyph-name="b" unicode="b" horiz-adv-x="532" 
d="M309 412q89 0 142 -67t35 -165q-16 -82 -75 -136.5t-143 -54.5q-67 0 -111.5 34t-58.5 93l-21 -116h-19l123 700h20l-69 -388q30 46 76 73t101 27zM466 182q17 86 -29 149t-129 63q-74 0 -127.5 -49.5t-64.5 -125.5q-19 -92 23.5 -152t126.5 -60q76 0 131 48.5t69 126.5z
" />
    <glyph glyph-name="c" unicode="c" horiz-adv-x="430" 
d="M231 -12q-95 0 -149 66.5t-36 165.5q16 82 76 136.5t145 54.5q90 0 145 -61l-15 -12q-50 55 -131 55q-75 0 -130.5 -48.5t-69.5 -126.5q-17 -89 30.5 -150.5t135.5 -61.5q69 0 125 43l12 -13q-59 -48 -138 -48z" />
    <glyph glyph-name="d" unicode="d" horiz-adv-x="532" 
d="M508 700h20l-123 -700h-20l15 88q-29 -47 -75.5 -73.5t-101.5 -26.5q-89 0 -142 67t-35 165q16 82 75 136.5t143 54.5q67 0 111.5 -34.5t58.5 -93.5zM224 6q74 0 127.5 49t65.5 126q18 92 -24.5 152t-126.5 60q-75 0 -130.5 -48.5t-70.5 -126.5q-15 -86 30.5 -149
t128.5 -63z" />
    <glyph glyph-name="e" unicode="e" horiz-adv-x="486" 
d="M279 411q86 0 132 -53t30 -136q0 -6 -3 -13h-369q-14 -84 34.5 -143.5t135.5 -59.5q84 0 150 57l12 -14q-74 -61 -163 -61q-95 0 -149.5 66t-39.5 160q15 87 79 142t151 55zM279 393q-74 0 -131.5 -45t-75.5 -121l350 1q12 72 -28.5 118.5t-114.5 46.5z" />
    <glyph glyph-name="f" unicode="f" horiz-adv-x="341" 
d="M416 708h21l-3 -19h-21q-91 0 -145 -54t-73 -166l-14 -78h165l-2 -18h-166l-66 -373h-20l66 373h-85l2 18h86l14 76q21 123 80 182t161 59z" />
    <glyph glyph-name="g" unicode="g" horiz-adv-x="523" 
d="M455 400h20l-73 -417q-18 -103 -79 -158.5t-153 -55.5q-94 0 -144 50l14 13q47 -45 131 -45q85 0 140 51.5t71 144.5l18 105q-29 -46 -75.5 -73t-101.5 -27q-89 0 -142 67t-35 165q16 82 75 136.5t143 54.5q67 0 112 -34.5t59 -93.5zM224 6q74 0 127.5 49t65.5 126
q18 92 -24.5 152t-126.5 60q-75 0 -130.5 -48.5t-70.5 -126.5q-15 -86 30.5 -149t128.5 -63z" />
    <glyph glyph-name="h" unicode="h" horiz-adv-x="527" 
d="M327 412q72 0 104.5 -48t18.5 -131l-41 -233h-20l40 228q14 77 -14.5 121.5t-92.5 44.5q-73 0 -133 -54.5t-75 -135.5l-36 -204h-20l123 700h20l-72 -407q33 55 85.5 87t112.5 32z" />
    <glyph glyph-name="i" unicode="i" horiz-adv-x="234" 
d="M181 548q-22 0 -22 22q0 21 22 21t22 -21q0 -22 -22 -22zM72 0l70 400h20l-70 -400h-20z" />
    <glyph glyph-name="j" unicode="j" horiz-adv-x="234" 
d="M181 548q-22 0 -22 22q0 21 22 21t22 -21q0 -22 -22 -22zM33 -220l109 620h20l-109 -620h-20z" />
    <glyph glyph-name="k" unicode="k" horiz-adv-x="490" 
d="M460 410q-13 -78 -69 -132t-140 -73q78 -17 114.5 -71t22.5 -134h-20q16 90 -33.5 142.5t-148.5 52.5h-74l-34 -195h-20l123 700h20l-86 -487h52q107 0 182 54t91 143h20z" />
    <glyph glyph-name="l" unicode="l" horiz-adv-x="207" 
d="M58 0l123 700h20l-123 -700h-20z" />
    <glyph glyph-name="m" unicode="m" horiz-adv-x="808" 
d="M610 412q75 0 106 -49t15 -130l-41 -233h-20l40 228q14 77 -11 121.5t-91 44.5q-71 0 -124 -50.5t-68 -137.5h-1l-36 -206h-20l40 228q13 77 -10.5 121.5t-85.5 44.5q-69 0 -125 -50.5t-72 -133.5l-37 -210h-20l70 400h20l-18 -101q31 54 80.5 83.5t104.5 29.5
q58 0 87.5 -32.5t31.5 -90.5q28 58 77 90.5t108 32.5z" />
    <glyph glyph-name="n" unicode="n" horiz-adv-x="518" 
d="M318 412q71 0 104 -48t19 -131l-41 -233h-20l40 228q14 77 -14.5 121.5t-92.5 44.5q-74 0 -134 -54t-74 -135l-36 -205h-20l70 400h20l-18 -104q31 54 83 85t114 31z" />
    <glyph glyph-name="o" unicode="o" horiz-adv-x="498" 
d="M231 -12q-95 0 -149 66.5t-36 165.5q16 82 76 136.5t145 54.5q95 0 149 -65.5t36 -166.5q-16 -87 -77 -139t-144 -52zM232 6q75 0 130 47.5t70 127.5q17 92 -31 152t-135 60q-75 0 -130.5 -48.5t-69.5 -126.5q-17 -89 30.5 -150.5t135.5 -61.5z" />
    <glyph glyph-name="p" unicode="p" horiz-adv-x="532" 
d="M309 412q89 0 142 -67t35 -165q-16 -82 -75 -136.5t-143 -54.5q-67 0 -111.5 34t-58.5 93l-59 -336h-20l109 620h19l-15 -89q29 47 75.5 74t101.5 27zM466 182q17 86 -29 149t-129 63q-74 0 -127.5 -49.5t-64.5 -125.5q-19 -92 23.5 -152t126.5 -60q76 0 131 48.5
t69 126.5z" />
    <glyph glyph-name="q" unicode="q" horiz-adv-x="523" 
d="M455 400h20l-109 -620h-20l53 307q-63 -99 -176 -99q-89 0 -142 67t-35 165q16 82 75 136.5t143 54.5q67 0 111.5 -34t58.5 -93zM224 6q74 0 127.5 49t65.5 126q18 92 -24.5 152t-126.5 60q-75 0 -130.5 -48.5t-69.5 -126.5q-16 -86 30 -149t128 -63z" />
    <glyph glyph-name="r" unicode="r" horiz-adv-x="356" 
d="M114 260q76 143 253 143l-3 -19h-2q-101 0 -171 -57t-93 -161l-29 -166h-20l70 400h20z" />
    <glyph glyph-name="s" unicode="s" horiz-adv-x="398" 
d="M166 -12q-86 0 -139 60l14 11q49 -54 127 -54q53 0 87.5 23.5t42.5 59.5q8 41 -19.5 65.5t-78.5 44.5q-28 11 -45.5 20t-36 23.5t-25.5 34.5t-2 46q8 44 49.5 67.5t95.5 23.5q82 0 117 -51l-15 -10q-35 44 -103 44q-53 0 -86 -22.5t-39 -55.5q-4 -22 3 -39t25 -29.5
t31.5 -19t36.5 -15.5q12 -5 20 -8t21.5 -9.5t21 -11.5t18.5 -13.5t15.5 -16.5t11 -19.5t5 -23t-2.5 -27.5q-10 -46 -50.5 -72t-99.5 -26z" />
    <glyph glyph-name="t" unicode="t" horiz-adv-x="394" 
d="M164 373l-41 -230q-12 -66 13 -101.5t82 -35.5q65 0 113 51l12 -11q-52 -58 -129 -58q-64 0 -94 40.5t-17 113.5l41 231h-76l2 18h77l16 91h20l-16 -91h207l-2 -18h-208z" />
    <glyph glyph-name="u" unicode="u" horiz-adv-x="518" 
d="M449 400h20l-70 -400h-20l19 107q-33 -54 -85 -86.5t-113 -32.5q-71 0 -104 48t-19 131l41 233h20l-40 -228q-14 -77 14.5 -121.5t92.5 -44.5q73 0 133.5 55.5t74.5 133.5z" />
    <glyph glyph-name="v" unicode="v" horiz-adv-x="462" 
d="M433 400h22l-245 -400h-24l-109 400h21l102 -382z" />
    <glyph glyph-name="w" unicode="w" horiz-adv-x="752" 
d="M723 400h22l-228 -400h-24l-85 381l-219 -381h-23l-89 400h21l82 -382l219 382h24l84 -382z" />
    <glyph glyph-name="x" unicode="x" horiz-adv-x="480" 
d="M292 199q54 -17 76 -68.5t6 -130.5h-20q18 91 -14.5 141t-106.5 50q-70 0 -115.5 -49.5t-61.5 -141.5h-20q29 174 153 202q-54 17 -76.5 68t-6.5 130h20q-18 -91 14 -141t107 -50q70 0 115.5 49.5t61.5 141.5h20q-29 -173 -152 -201z" />
    <glyph glyph-name="y" unicode="y" horiz-adv-x="518" 
d="M449 400h19l-72 -416q-18 -102 -71.5 -158.5t-138.5 -56.5q-99 0 -144 59l15 12q44 -52 130 -52q75 0 123.5 50.5t65.5 144.5l20 115q-66 -110 -197 -110q-153 0 -120 188l39 224h20l-38 -219q-31 -175 104 -175q73 0 129.5 45.5t75.5 120.5z" />
    <glyph glyph-name="z" unicode="z" horiz-adv-x="439" 
d="M431 385l-346 -324q-39 -37 -48 -44h71h258l-3 -17h-354l2 15l341 321q11 9 30.5 26.5t22.5 20.5h-72h-253l2 17h351z" />
    <glyph glyph-name="braceleft" unicode="{" horiz-adv-x="393" 
d="M438 683h-146l-157 -886h146l-3 -17h-166l3 17l78 439h-149l4 18h148l76 429h-1l4 17h166z" />
    <glyph glyph-name="bar" unicode="|" horiz-adv-x="307" 
d="M52 -220l163 920h20l-163 -920h-20z" />
    <glyph glyph-name="braceright" unicode="}" horiz-adv-x="393" 
d="M363 244l-4 -18h-147l-79 -446h-167l3 17h147l157 886h-147l3 17h167l-81 -456h148z" />
    <glyph glyph-name="asciitilde" unicode="~" horiz-adv-x="488" 
d="M354 179q-23 0 -45 11t-34 22t-32 32q-19 21 -30 30.5t-29.5 19.5t-38.5 10q-41 0 -68.5 -32.5t-27.5 -84.5h-18q0 59 32 97t81 38q23 0 45 -11t34 -22t32 -32q19 -20 30 -30.5t30 -20t39 -9.5q42 0 68.5 32.5t26.5 83.5h18q0 -58 -32.5 -96t-80.5 -38z" />
    <glyph glyph-name="exclamdown" unicode="&#xa1;" horiz-adv-x="257" 
d="M186 548q22 0 22 -22q0 -21 -22 -21q-21 0 -21 21q0 10 6 16t15 6zM152 272l-76 -430h-21l76 430h21z" />
    <glyph glyph-name="cent" unicode="&#xa2;" horiz-adv-x="430" 
d="M305 459q71 -9 115 -59l-15 -12q-50 55 -131 55q-75 0 -130.5 -48.5t-69.5 -126.5q-17 -89 30.5 -150.5t135.5 -61.5q69 0 125 43l12 -13q-59 -48 -138 -48h-10l-22 -128h-18l23 130q-84 10 -129 74.5t-29 155.5q16 82 76 136.5t145 54.5h12l23 131h18z" />
    <glyph glyph-name="sterling" unicode="&#xa3;" horiz-adv-x="573" 
d="M378 612q89 0 135.5 -59.5t27.5 -152.5h-20q18 86 -23.5 140t-120.5 54q-78 0 -131 -53.5t-68 -141.5l-23 -129h194l-4 -17h-193l-41 -235h359l-3 -18h-379l44 253h-90l3 17h90l23 129q16 95 74.5 154t145.5 59z" />
    <glyph glyph-name="currency" unicode="&#xa4;" horiz-adv-x="610" 
d="M192 458l-68 126l17 10l69 -125zM504 455l-15 12l113 125l14 -11zM295 38q-95 0 -149 66.5t-36 165.5q15 82 75.5 136.5t145.5 54.5q95 0 149.5 -66t35.5 -166q-16 -87 -77 -139t-144 -52zM296 56q75 0 130 47.5t70 127.5q17 92 -31 152t-135 60q-75 0 -130.5 -48.5
t-69.5 -126.5q-17 -89 30.5 -150.5t135.5 -61.5zM23 -91l-14 11l112 126l15 -12zM484 -94l-70 125l18 11l68 -126z" />
    <glyph glyph-name="yen" unicode="&#xa5;" horiz-adv-x="580" 
d="M579 600q-14 -157 -85.5 -242.5t-187.5 -86.5l-12 -117h158l-1 -18h-158l-14 -136h-21l14 136h-161l1 18h161l12 118q-113 7 -165.5 91.5t-37.5 236.5h21q-16 -149 36 -229.5t165 -80.5q108 0 173.5 80.5t80.5 229.5h21z" />
    <glyph glyph-name="brokenbar" unicode="&#xa6;" horiz-adv-x="307" 
d="M148 320l67 380h20l-67 -380h-20zM52 -220l67 380h20l-67 -380h-20z" />
    <glyph glyph-name="section" unicode="&#xa7;" horiz-adv-x="522" 
d="M347 710q135 0 179 -97l-16 -12q-41 91 -163 91q-69 0 -114.5 -33.5t-53.5 -86.5q-5 -30 2.5 -53.5t31 -43.5t42 -31.5t55.5 -30.5q19 -10 26 -14t25 -14t25 -16t22 -16.5t21 -19t16 -20.5t13.5 -24t7.5 -26.5t3.5 -31t-3.5 -34.5q-18 -97 -154 -158q78 -53 65 -132
q-10 -61 -60.5 -99t-126.5 -38q-135 0 -179 97l16 12q41 -91 163 -91q69 0 114.5 33.5t53.5 86.5q5 30 -2.5 53.5t-31 43.5t-42 31.5t-55.5 30.5q-19 10 -26 14t-25 14t-25 16t-22 16.5t-21 19t-16 20.5t-13.5 24t-7.5 27t-3.5 31.5t3.5 34.5q19 95 154 157q-77 55 -65 132
q10 61 60.5 99t126.5 38zM446 199q17 92 -70 154q-25 17 -77 45q-35 18 -59 33q-132 -58 -148 -150q-3 -16 -3.5 -31t3 -28t7.5 -24t12.5 -22t15 -19.5t19.5 -18t21 -15t23.5 -15t23 -13.5t24.5 -13q44 -23 59 -33q131 59 149 150z" />
    <glyph glyph-name="dieresis" unicode="&#xa8;" horiz-adv-x="344" 
d="M132 531q-23 0 -20 23q5 20 24 20q23 0 20 -23q-5 -20 -24 -20zM332 531q-23 0 -20 23q5 20 24 20q23 0 20 -23q-5 -20 -24 -20z" />
    <glyph glyph-name="copyright" unicode="&#xa9;" horiz-adv-x="1040" 
d="M494 -221q-136 0 -239 63.5t-151 177.5t-24 255q31 186 166 306t326 120q139 0 239.5 -66t142.5 -180.5t18 -253.5q-32 -187 -162 -304.5t-316 -117.5zM494 -203q179 0 304 113t156 293q35 206 -74 343t-309 137q-181 0 -311 -114t-161 -295q-35 -203 79.5 -340
t315.5 -137zM520 14q-100 0 -159 69.5t-39 173.5q17 84 80.5 142.5t153.5 58.5q95 0 152 -70l-15 -12q-52 63 -137 63q-80 0 -139.5 -51.5t-74.5 -132.5q-18 -93 33 -157.5t145 -64.5q76 0 133 52l12 -13q-61 -58 -145 -58z" />
    <glyph glyph-name="ordfeminine" unicode="&#xaa;" horiz-adv-x="400" 
d="M416 691h17l-53 -306h-18l11 65q-48 -74 -133 -74q-68 0 -108.5 51.5t-26.5 125.5q12 63 57 105t110 42q50 0 84 -25t45 -68zM241 393q56 0 96.5 36.5t48.5 93.5q14 70 -17.5 115t-95.5 45q-56 0 -97.5 -36.5t-52.5 -94.5q-12 -64 22 -111.5t96 -47.5zM55 240l3 18h310
l-3 -18h-310z" />
    <glyph glyph-name="guillemotleft" unicode="&#xab;" horiz-adv-x="529" 
d="M267 402l12 -15l-174 -139l123 -138l-14 -14l-134 153zM489 387l-174 -139l123 -138l-14 -14l-134 153l187 153z" />
    <glyph glyph-name="logicalnot" unicode="&#xac;" horiz-adv-x="560" 
d="M482 104v109q0 38 -19.5 55.5t-62.5 17.5h-359v18h360q53 0 76.5 -21.5t23.5 -68.5v-110h-19z" />
    <glyph glyph-name="registered" unicode="&#xae;" horiz-adv-x="1040" 
d="M572 701q139 0 239.5 -66t142.5 -180.5t18 -253.5q-32 -187 -162 -304.5t-316 -117.5q-136 0 -239 63.5t-151 177.5t-24 255q31 186 166 306t326 120zM954 203q35 206 -74 343t-309 137q-181 0 -311 -114t-161 -295q-35 -203 79.5 -340t315.5 -137q179 0 304 113t156 293
zM596 477q72 0 107 -37.5t21 -96.5q-22 -94 -140 -112q127 -39 95 -216h-19q38 211 -152 211h-116l-37 -211h-19l81 462h179zM706 345q11 51 -19 83t-94 32h-160l-39 -217h133q154 0 179 102z" />
    <glyph glyph-name="macron" unicode="&#xaf;" horiz-adv-x="401" 
d="M410 535h-300l3 17h300z" />
    <glyph glyph-name="degree" unicode="&#xb0;" horiz-adv-x="376" 
d="M216 312q-68 0 -103.5 46.5t-20.5 117.5q13 63 56.5 99.5t103.5 36.5q68 0 103 -46t21 -117q-13 -63 -56.5 -100t-103.5 -37zM218 330q52 0 89.5 32t49.5 88q14 62 -16 103.5t-90 41.5q-52 0 -90.5 -33t-49.5 -87q-14 -63 16 -104t91 -41z" />
    <glyph glyph-name="plusminus" unicode="&#xb1;" 
d="M270 378h221v-18h-221v-221h-18v221h-221v18h221v221h18v-221zM31 20v18h460v-18h-460z" />
    <glyph glyph-name="uni00B2" unicode="&#xb2;" horiz-adv-x="272" 
d="M305 612q-8 -34 -45.5 -73t-161.5 -143h180l-3 -16h-209l2 13q134 112 174 151t46 70q8 36 -12.5 55.5t-58.5 19.5q-25 0 -51.5 -14t-42.5 -39l-12 10q44 60 107 60q49 0 73 -26t14 -68z" />
    <glyph glyph-name="uni00B3" unicode="&#xb3;" horiz-adv-x="279" 
d="M306 614q-14 -54 -88 -71q83 -19 68 -90q-7 -37 -38 -58t-78 -21q-68 0 -106 36l11 12q32 -32 94 -32q87 0 99 66q8 38 -21.5 58t-90.5 20l2 16q111 0 130 66q8 33 -12.5 53.5t-59.5 20.5q-59 0 -92 -36l-8 12q38 40 100 40q50 0 75 -28t15 -64z" />
    <glyph glyph-name="acute" unicode="&#xb4;" horiz-adv-x="265" 
d="M114 491l-11 13l175 130l11 -14z" />
    <glyph glyph-name="paragraph" unicode="&#xb6;" horiz-adv-x="767" 
d="M406 0q-168 0 -251.5 86t-57.5 226q26 134 135 211t279 77h43l-106 -600h-42zM474 -220l145 820h21l-145 -820h-21zM553 -220l145 820h21l-145 -820h-21zM408 18h24l99 564h-23q-160 0 -264 -73t-127 -201q-24 -133 55.5 -211.5t235.5 -78.5z" />
    <glyph glyph-name="periodcentered" unicode="&#xb7;" horiz-adv-x="236" 
d="M126 228q-22 0 -22 22q0 21 22 21q21 0 21 -21q0 -10 -6 -16t-15 -6z" />
    <glyph glyph-name="cedilla" unicode="&#xb8;" horiz-adv-x="118" 
d="M-6 -220h-18l24 137h19z" />
    <glyph glyph-name="uni00B9" unicode="&#xb9;" horiz-adv-x="243" 
d="M159 380l39 221q11 49 1.5 65.5t-58.5 16.5h-15l3 17h16q57 0 70 -20.5t2 -79.5l-39 -220h-19z" />
    <glyph glyph-name="ordmasculine" unicode="&#xba;" horiz-adv-x="390" 
d="M236 376q-74 0 -112 50t-22 127q15 67 61.5 107t110.5 40q73 0 111 -50t23 -126q-13 -68 -60 -108t-112 -40zM238 393q56 0 97.5 35.5t54.5 96.5q14 69 -18.5 113.5t-98.5 44.5q-57 0 -98.5 -36t-54.5 -95q-15 -69 18 -114t100 -45zM52 240l4 18h300l-4 -18h-300z" />
    <glyph glyph-name="guillemotright" unicode="&#xbb;" horiz-adv-x="529" 
d="M60 384l14 14l134 -153l-187 -153l-12 15l174 139zM284 398l134 -153l-187 -153l-12 15l174 139l-123 138z" />
    <glyph glyph-name="onequarter" unicode="&#xbc;" horiz-adv-x="690" 
d="M585 625l13 -10l-533 -642l-13 10zM179 501q11 49 1.5 65.5t-58.5 16.5h-15l3 17h16q57 0 70 -20.5t2 -79.5l-39 -220h-19zM653 95l-3 -16h-68l-14 -79h-18l15 79h-172l1 14l206 227h25l-40 -225h68zM604 302l-187 -207h151z" />
    <glyph glyph-name="onehalf" unicode="&#xbd;" horiz-adv-x="652" 
d="M585 625l13 -10l-533 -642l-13 10zM179 501q11 49 1.5 65.5t-58.5 16.5h-15l3 17h16q57 0 70 -20.5t2 -79.5l-39 -220h-19zM619 232q-8 -34 -45.5 -73t-161.5 -143h180l-3 -16h-209l2 13q134 112 174 151t46 70q8 36 -12.5 55.5t-58.5 19.5q-25 0 -51.5 -14t-42.5 -39
l-12 10q44 60 107 60q49 0 73 -26t14 -68z" />
    <glyph glyph-name="threequarters" unicode="&#xbe;" horiz-adv-x="726" 
d="M621 625l13 -10l-533 -642l-13 10zM267 353q-7 -37 -38 -58t-78 -21q-68 0 -106 36l11 12q32 -32 94 -32q87 0 99 66q8 38 -21.5 58t-90.5 20l2 16q111 0 130 66q8 33 -12.5 53.5t-59.5 20.5q-59 0 -92 -36l-8 12q38 40 100 40q50 0 75 -28t15 -64q-14 -54 -88 -71
q83 -19 68 -90zM689 95l-3 -16h-68l-14 -79h-18l15 79h-172l1 14l206 227h25l-40 -225h68zM640 302l-187 -207h151z" />
    <glyph glyph-name="questiondown" unicode="&#xbf;" horiz-adv-x="420" 
d="M266 556q22 0 22 -22q0 -21 -22 -21q-21 0 -21 21q0 10 6 16t15 6zM216 280h21l-1 -4q-9 -51 -32.5 -82t-74.5 -72q-32 -26 -47 -39.5t-32 -38t-22 -51.5q-11 -60 27 -98t108 -38q101 0 170 95l14 -11q-77 -103 -184 -103q-74 0 -121.5 41.5t-32.5 117.5q8 42 31 69
t74 68q50 41 71.5 68.5t30.5 77.5z" />
    <glyph glyph-name="Agrave" unicode="&#xc0;" horiz-adv-x="632" 
d="M508 715l-9 -14l-202 96l10 16zM524 0l-51 209h-311l-124 -209h-23l358 600h24l150 -600h-23zM173 227h295l-86 352z" />
    <glyph glyph-name="Aacute" unicode="&#xc1;" horiz-adv-x="632" 
d="M533 798l-218 -98l-7 16l217 98zM524 0l-51 209h-311l-124 -209h-23l358 600h24l150 -600h-23zM173 227h295l-86 352z" />
    <glyph glyph-name="Acircumflex" unicode="&#xc2;" horiz-adv-x="632" 
d="M424 804l-152 -121l-10 13l165 132l117 -133l-14 -12zM524 0l-51 209h-311l-124 -209h-23l358 600h24l150 -600h-23zM173 227h295l-86 352z" />
    <glyph glyph-name="Atilde" unicode="&#xc3;" horiz-adv-x="632" 
d="M316 785q-27 0 -45.5 -23.5t-18.5 -60.5h-17q0 44 23.5 72.5t57.5 28.5q36 0 72 -45q13 -15 19 -21.5t18.5 -13.5t26.5 -7q28 0 45.5 23.5t17.5 60.5h18q0 -44 -23.5 -72.5t-58.5 -28.5t-73 46q-2 2 -5.5 6t-5.5 6.5t-5.5 6l-6 6t-6.5 5.5t-7.5 4.5t-7.5 3t-8.5 2.5
t-9.5 1zM524 0l-51 209h-311l-124 -209h-23l358 600h24l150 -600h-23zM173 227h295l-86 352z" />
    <glyph glyph-name="Adieresis" unicode="&#xc4;" horiz-adv-x="632" 
d="M307 711q-9 0 -15 6t-6 16q0 21 21 21q22 0 22 -21q0 -22 -22 -22zM507 711q-9 0 -15 6t-6 16q0 21 21 21q22 0 22 -21q0 -22 -22 -22zM524 0l-51 209h-311l-124 -209h-23l358 600h24l150 -600h-23zM173 227h295l-86 352z" />
    <glyph glyph-name="Aring" unicode="&#xc5;" horiz-adv-x="632" 
d="M405 684q-41 0 -67.5 26t-26.5 66t26.5 66t67.5 26t67.5 -26t26.5 -66t-26.5 -66t-67.5 -26zM405 852q-33 0 -54.5 -21.5t-21.5 -54.5t21.5 -54.5t54.5 -21.5t54.5 21.5t21.5 54.5t-21.5 54.5t-54.5 21.5zM524 0l-51 209h-311l-124 -209h-23l358 600h24l150 -600h-23z
M173 227h295l-86 352z" />
    <glyph glyph-name="AE" unicode="&#xc6;" horiz-adv-x="853" 
d="M863 581h-386l6 -264h313l-4 -18h-309l6 -280h284l-3 -19h-302l-4 209h-286l-158 -209h-25l455 600h416zM191 227h273l-6 353z" />
    <glyph glyph-name="Ccedilla" unicode="&#xc7;" horiz-adv-x="630" 
d="M344 -13q-137 0 -216 99.5t-51 244.5q23 124 114.5 203.5t213.5 79.5q146 0 237 -126l-15 -13q-84 120 -222 120q-113 0 -198.5 -73t-108.5 -193q-26 -133 46 -228t203 -95q135 0 241 122l14 -13q-112 -128 -258 -128zM296 -220h-18l24 137h19z" />
    <glyph glyph-name="Egrave" unicode="&#xc8;" horiz-adv-x="580" 
d="M511 715l-9 -14l-202 96l10 16zM589 581h-397l-47 -264h377l-3 -18h-377l-50 -280h408l-4 -19h-428l106 600h418z" />
    <glyph glyph-name="Eacute" unicode="&#xc9;" horiz-adv-x="580" 
d="M536 798l-218 -98l-7 16l217 98zM589 581h-397l-47 -264h377l-3 -18h-377l-50 -280h408l-4 -19h-428l106 600h418z" />
    <glyph glyph-name="Ecircumflex" unicode="&#xca;" horiz-adv-x="580" 
d="M426 804l-152 -121l-10 13l165 132l117 -133l-14 -12zM589 581h-397l-47 -264h377l-3 -18h-377l-50 -280h408l-4 -19h-428l106 600h418z" />
    <glyph glyph-name="Edieresis" unicode="&#xcb;" horiz-adv-x="580" 
d="M309 711q-9 0 -15 6t-6 16q0 21 21 21q22 0 22 -21q0 -22 -22 -22zM509 711q-9 0 -15 6t-6 16q0 21 21 21q22 0 22 -21q0 -22 -22 -22zM589 581h-397l-47 -264h377l-3 -18h-377l-50 -280h408l-4 -19h-428l106 600h418z" />
    <glyph glyph-name="Igrave" unicode="&#xcc;" horiz-adv-x="283" 
d="M327 701l-202 96l10 16l201 -98zM96 0l106 600h21l-106 -600h-21z" />
    <glyph glyph-name="Iacute" unicode="&#xcd;" horiz-adv-x="283" 
d="M143 700l-7 16l217 98l8 -16zM96 0l106 600h21l-106 -600h-21z" />
    <glyph glyph-name="Icircumflex" unicode="&#xce;" horiz-adv-x="283" 
d="M372 695l-14 -12l-106 121l-152 -121l-10 13l165 132zM96 0l106 600h21l-106 -600h-21z" />
    <glyph glyph-name="Idieresis" unicode="&#xcf;" horiz-adv-x="283" 
d="M135 711q-9 0 -15 6t-6 16q0 21 21 21q22 0 22 -21q0 -22 -22 -22zM335 711q-9 0 -15 6t-6 16q0 21 21 21q22 0 22 -21q0 -22 -22 -22zM96 0l106 600h21l-106 -600h-21z" />
    <glyph glyph-name="Eth" unicode="&#xd0;" horiz-adv-x="669" 
d="M343 600q150 0 230 -88t57 -225q-24 -136 -123 -211.5t-259 -75.5h-180l51 291h-87l3 18h88l51 291h169zM609 289q22 129 -53 211t-217 82h-148l-48 -273h174l-4 -18h-173l-48 -272h159q149 0 242 71t116 199z" />
    <glyph glyph-name="Ntilde" unicode="&#xd1;" horiz-adv-x="683" 
d="M344 785q-27 0 -45.5 -23.5t-18.5 -60.5h-17q0 44 23.5 72.5t57.5 28.5q36 0 72 -45q13 -15 19 -21.5t18.5 -13.5t26.5 -7q28 0 45.5 23.5t17.5 60.5h18q0 -44 -23.5 -72.5t-58.5 -28.5t-73 46q-2 2 -5.5 6t-5.5 6.5t-5.5 6l-6 6t-6.5 5.5t-7.5 4.5t-7.5 3t-8.5 2.5
t-9.5 1zM630 600h21l-106 -600h-22l-334 571l-101 -571h-20l106 600h22l334 -572z" />
    <glyph glyph-name="Ograve" unicode="&#xd2;" horiz-adv-x="738" 
d="M546 692l-202 96l10 16l201 -98zM362 -13q-149 0 -229.5 97t-55.5 247q21 123 115 203t217 80q152 0 233.5 -97t54.5 -247q-21 -123 -115.5 -203t-219.5 -80zM363 6q117 0 205 75t108 191q25 140 -50.5 231.5t-217.5 91.5q-115 0 -203 -75.5t-107 -190.5
q-24 -140 51 -231.5t214 -91.5z" />
    <glyph glyph-name="Oacute" unicode="&#xd3;" horiz-adv-x="738" 
d="M362 691l-7 16l217 98l8 -16zM362 -13q-149 0 -229.5 97t-55.5 247q21 123 115 203t217 80q152 0 233.5 -97t54.5 -247q-21 -123 -115.5 -203t-219.5 -80zM363 6q117 0 205 75t108 191q25 140 -50.5 231.5t-217.5 91.5q-115 0 -203 -75.5t-107 -190.5q-24 -140 51 -231.5
t214 -91.5z" />
    <glyph glyph-name="Ocircumflex" unicode="&#xd4;" horiz-adv-x="738" 
d="M471 795l-152 -121l-10 13l165 132l117 -133l-14 -12zM409 614q152 0 233.5 -97t54.5 -247q-21 -123 -115.5 -203t-219.5 -80q-149 0 -229.5 97t-55.5 247q21 123 115 203t217 80zM676 272q25 140 -50.5 231.5t-217.5 91.5q-115 0 -203 -75.5t-107 -190.5
q-24 -140 51 -231.5t214 -91.5q117 0 205 75t108 191z" />
    <glyph glyph-name="Otilde" unicode="&#xd5;" horiz-adv-x="738" 
d="M513 689q-35 0 -73 46q-2 2 -5.5 6t-5.5 6.5t-5.5 6l-6 6t-6.5 5.5t-7.5 4.5t-7.5 3t-8.5 2.5t-9.5 1q-27 0 -45.5 -23.5t-18.5 -60.5h-17q0 44 23.5 72.5t57.5 28.5q36 0 72 -45q13 -15 19 -21.5t18.5 -13.5t26.5 -7q28 0 45.5 23.5t17.5 60.5h18q0 -44 -23.5 -72.5
t-58.5 -28.5zM362 -13q-149 0 -229.5 97t-55.5 247q21 123 115 203t217 80q152 0 233.5 -97t54.5 -247q-21 -123 -115.5 -203t-219.5 -80zM363 6q117 0 205 75t108 191q25 140 -50.5 231.5t-217.5 91.5q-115 0 -203 -75.5t-107 -190.5q-24 -140 51 -231.5t214 -91.5z" />
    <glyph glyph-name="Odieresis" unicode="&#xd6;" horiz-adv-x="738" 
d="M354 702q-9 0 -15 6t-6 16q0 21 21 21q22 0 22 -21q0 -22 -22 -22zM554 702q-9 0 -15 6t-6 16q0 21 21 21q22 0 22 -21q0 -22 -22 -22zM362 -13q-149 0 -229.5 97t-55.5 247q21 123 115 203t217 80q152 0 233.5 -97t54.5 -247q-21 -123 -115.5 -203t-219.5 -80zM363 6
q117 0 205 75t108 191q25 140 -50.5 231.5t-217.5 91.5q-115 0 -203 -75.5t-107 -190.5q-24 -140 51 -231.5t214 -91.5z" />
    <glyph glyph-name="multiply" unicode="&#xd7;" 
d="M459 425l-175 -175l175 -176l-13 -13l-175 176l-177 -177l-13 13l177 177l-177 176l13 13l177 -176l175 175z" />
    <glyph glyph-name="Oslash" unicode="&#xd8;" horiz-adv-x="738" 
d="M729 595l-99 -83q77 -98 50 -242q-20 -123 -115 -203t-220 -80q-147 0 -228 94l-106 -89l-11 13l107 90q-71 95 -47 236q21 123 115 203t218 80q145 0 226 -89l99 83zM80 329q-22 -131 42 -221l481 404q-74 84 -211 84q-115 0 -203.5 -75.5t-108.5 -191.5zM660 272
q24 138 -46 227l-481 -405q75 -89 213 -89q118 0 206 75.5t108 191.5z" />
    <glyph glyph-name="Ugrave" unicode="&#xd9;" horiz-adv-x="687" 
d="M530 701l-202 96l10 16l201 -98zM319 -14q-120 0 -177 79.5t-30 225.5l57 309h21l-58 -313q-26 -135 26.5 -208.5t160.5 -73.5q106 0 174 69t90 194l58 332h21l-59 -333q-24 -134 -97 -207.5t-187 -73.5z" />
    <glyph glyph-name="Uacute" unicode="&#xda;" horiz-adv-x="687" 
d="M346 700l-7 16l217 98l8 -16zM325 -14q-121 0 -181 80t-32 227l57 307h21l-58 -311q-27 -135 28.5 -209.5t166.5 -74.5q103 0 168.5 67.5t87.5 195.5l58 332h21l-59 -333q-23 -135 -93 -208t-185 -73z" />
    <glyph glyph-name="Ucircumflex" unicode="&#xdb;" horiz-adv-x="687" 
d="M455 804l-152 -121l-10 13l165 132l117 -133l-14 -12zM641 600h21l-59 -333q-23 -135 -93 -208t-185 -73q-121 0 -181 80t-32 227l57 307h21l-58 -311q-27 -135 28.5 -209.5t166.5 -74.5q103 0 168.5 67.5t87.5 195.5z" />
    <glyph glyph-name="Udieresis" unicode="&#xdc;" horiz-adv-x="687" 
d="M338 711q-9 0 -15 6t-6 16q0 21 21 21q22 0 22 -21q0 -22 -22 -22zM538 711q-9 0 -15 6t-6 16q0 21 21 21q22 0 22 -21q0 -22 -22 -22zM325 -14q-121 0 -181 80t-32 227l57 307h21l-58 -311q-27 -135 28.5 -209.5t166.5 -74.5q103 0 168.5 67.5t87.5 195.5l58 332h21
l-59 -333q-23 -135 -93 -208t-185 -73z" />
    <glyph glyph-name="Yacute" unicode="&#xdd;" horiz-adv-x="580" 
d="M510 798l-218 -98l-7 16l217 98zM588 600h21q-26 -156 -104 -242.5t-191 -86.5h-3l-47 -271h-21l47 272q-111 8 -157.5 94t-20.5 234h21q-28 -147 20 -229t161 -82q105 0 176.5 81.5t97.5 229.5z" />
    <glyph glyph-name="Thorn" unicode="&#xde;" horiz-adv-x="578" 
d="M68 -1l106 602h21l-19 -107h154q114 0 169.5 -55t39.5 -152q-15 -85 -87 -133t-184 -48h-161l-19 -107h-20zM111 125h160q102 0 168.5 43.5t79.5 121.5q14 88 -36 136.5t-156 48.5h-155z" />
    <glyph glyph-name="germandbls" unicode="&#xdf;" horiz-adv-x="584" 
d="M348 -12q-82 0 -123 56l15 14q36 -52 107 -52q56 0 97 35t50 88q5 29 -5 53.5t-22 36t-37 31.5q-25 18 -37 29.5t-21.5 33.5t-4.5 48q6 36 56 100q53 69 61 111q10 52 -22 85t-91 33q-78 0 -133.5 -60t-74.5 -171l-80 -459h-20l80 457q21 120 82 185.5t147 65.5
q69 0 106 -39t26 -99q-10 -48 -65 -117q-47 -60 -53 -94q-4 -21 4.5 -40t20 -29.5t33.5 -27.5q27 -21 40.5 -34t24.5 -40t5 -60q-10 -56 -54.5 -98t-111.5 -42z" />
    <glyph glyph-name="agrave" unicode="&#xe0;" horiz-adv-x="523" 
d="M383 504l-13 -13l-130 129l14 14zM455 400h20l-70 -400h-20l15 88q-29 -47 -75.5 -73.5t-101.5 -26.5q-89 0 -142 67t-35 165q16 82 75 136.5t143 54.5q67 0 112 -35t58 -95zM226 6q73 0 126 49.5t65 125.5q18 92 -24.5 152t-126.5 60q-75 0 -130.5 -48.5t-69.5 -126.5
q-16 -87 30 -149.5t130 -62.5z" />
    <glyph glyph-name="aacute" unicode="&#xe1;" horiz-adv-x="523" 
d="M423 620l-175 -129l-11 13l175 130zM455 400h20l-70 -400h-20l15 88q-29 -47 -75.5 -73.5t-101.5 -26.5q-89 0 -142 67t-35 165q16 82 75 136.5t143 54.5q67 0 112 -35t58 -95zM226 6q73 0 126 49.5t65 125.5q18 92 -24.5 152t-126.5 60q-75 0 -130.5 -48.5t-69.5 -126.5
q-16 -87 30 -149.5t130 -62.5z" />
    <glyph glyph-name="acircumflex" unicode="&#xe2;" horiz-adv-x="523" 
d="M330 604l-152 -121l-10 13l165 132l117 -133l-14 -12zM455 400h20l-70 -400h-20l15 88q-29 -47 -75.5 -73.5t-101.5 -26.5q-89 0 -142 67t-35 165q16 82 75 136.5t143 54.5q67 0 112 -35t58 -95zM226 6q73 0 126 49.5t65 125.5q18 92 -24.5 152t-126.5 60
q-75 0 -130.5 -48.5t-69.5 -126.5q-16 -87 30 -149.5t130 -62.5z" />
    <glyph glyph-name="atilde" unicode="&#xe3;" horiz-adv-x="523" 
d="M237 585q-27 0 -45.5 -23.5t-18.5 -60.5h-17q0 44 23.5 72.5t57.5 28.5q36 0 72 -45q13 -15 19 -21.5t18.5 -13.5t26.5 -7q28 0 45.5 23.5t17.5 60.5h18q0 -44 -23.5 -72.5t-58.5 -28.5t-73 46q-2 2 -5.5 6t-5.5 6.5t-5.5 6l-6 6t-6.5 5.5t-7.5 4.5t-7.5 3t-8.5 2.5
t-9.5 1zM455 400h20l-70 -400h-20l15 88q-29 -47 -75.5 -73.5t-101.5 -26.5q-89 0 -142 67t-35 165q16 82 75 136.5t143 54.5q67 0 112 -35t58 -95zM226 6q73 0 126 49.5t65 125.5q18 92 -24.5 152t-126.5 60q-75 0 -130.5 -48.5t-69.5 -126.5q-16 -87 30 -149.5t130 -62.5z
" />
    <glyph glyph-name="adieresis" unicode="&#xe4;" horiz-adv-x="523" 
d="M220 548q-22 0 -22 22q0 9 6 15t16 6t16 -6t6 -15q0 -22 -22 -22zM420 548q-22 0 -22 22q0 9 6 15t16 6t16 -6t6 -15q0 -22 -22 -22zM455 400h20l-70 -400h-20l15 88q-29 -47 -75.5 -73.5t-101.5 -26.5q-89 0 -142 67t-35 165q16 82 75 136.5t143 54.5q67 0 112 -35
t58 -95zM226 6q73 0 126 49.5t65 125.5q18 92 -24.5 152t-126.5 60q-75 0 -130.5 -48.5t-69.5 -126.5q-16 -87 30 -149.5t130 -62.5z" />
    <glyph glyph-name="aring" unicode="&#xe5;" horiz-adv-x="523" 
d="M311 484q-41 0 -67.5 26t-26.5 66t26.5 66t67.5 26t67.5 -26t26.5 -66t-26.5 -66t-67.5 -26zM311 652q-33 0 -54.5 -21.5t-21.5 -54.5t21.5 -54.5t54.5 -21.5t54.5 21.5t21.5 54.5t-21.5 54.5t-54.5 21.5zM455 400h20l-70 -400h-20l15 88q-29 -47 -75.5 -73.5
t-101.5 -26.5q-89 0 -142 67t-35 165q16 82 75 136.5t143 54.5q67 0 112 -35t58 -95zM226 6q73 0 126 49.5t65 125.5q18 92 -24.5 152t-126.5 60q-75 0 -130.5 -48.5t-69.5 -126.5q-16 -87 30 -149.5t130 -62.5z" />
    <glyph glyph-name="ae" unicode="&#xe6;" horiz-adv-x="820" 
d="M632 411q76 0 116.5 -53t25.5 -136q0 -3 -2 -13h-339q-1 -2 -1 -5.5t-1 -4.5q-13 -80 31.5 -136.5t123.5 -56.5q76 0 137 52l11 -14q-69 -56 -150 -56q-64 0 -109.5 36t-58.5 95l-21 -119h-19l17 95q-28 -50 -73 -78.5t-100 -28.5q-87 0 -139.5 67t-34.5 165
q16 82 74 136.5t142 54.5q65 0 108.5 -34t56.5 -92l19 115h19l-18 -101q30 52 78.5 82t106.5 30zM221 6q73 0 124 51.5t66 133.5q16 87 -25 144.5t-124 57.5q-75 0 -128.5 -48.5t-67.5 -126.5q-15 -86 29 -149t126 -63zM631 393q-68 0 -121.5 -45t-72.5 -121l319 1
q10 72 -25.5 118.5t-99.5 46.5z" />
    <glyph glyph-name="ccedilla" unicode="&#xe7;" horiz-adv-x="430" 
d="M231 -12q-95 0 -149 66.5t-36 165.5q16 82 76 136.5t145 54.5q90 0 145 -61l-15 -12q-50 55 -131 55q-75 0 -130.5 -48.5t-69.5 -126.5q-17 -89 30.5 -150.5t135.5 -61.5q69 0 125 43l12 -13q-59 -48 -138 -48zM181 -220h-18l24 137h19z" />
    <glyph glyph-name="egrave" unicode="&#xe8;" horiz-adv-x="486" 
d="M381 504l-13 -13l-130 129l14 14zM279 411q86 0 132 -53t30 -136q0 -6 -3 -13h-369q-14 -84 34.5 -143.5t135.5 -59.5q84 0 150 57l12 -14q-74 -61 -163 -61q-95 0 -149.5 66t-39.5 160q15 87 79 142t151 55zM279 393q-74 0 -131.5 -45t-75.5 -121l350 1
q12 72 -28.5 118.5t-114.5 46.5z" />
    <glyph glyph-name="eacute" unicode="&#xe9;" horiz-adv-x="486" 
d="M421 620l-175 -129l-11 13l175 130zM279 411q86 0 132 -53t30 -136q0 -6 -3 -13h-369q-14 -84 34.5 -143.5t135.5 -59.5q84 0 150 57l12 -14q-74 -61 -163 -61q-95 0 -149.5 66t-39.5 160q15 87 79 142t151 55zM279 393q-74 0 -131.5 -45t-75.5 -121l350 1
q12 72 -28.5 118.5t-114.5 46.5z" />
    <glyph glyph-name="ecircumflex" unicode="&#xea;" horiz-adv-x="486" 
d="M328 604l-152 -121l-10 13l165 132l117 -133l-14 -12zM279 411q86 0 132 -53t30 -136q0 -6 -3 -13h-369q-14 -84 34.5 -143.5t135.5 -59.5q84 0 150 57l12 -14q-74 -61 -163 -61q-95 0 -149.5 66t-39.5 160q15 87 79 142t151 55zM422 228q12 72 -28.5 118.5t-114.5 46.5
t-131.5 -45t-75.5 -121z" />
    <glyph glyph-name="edieresis" unicode="&#xeb;" horiz-adv-x="486" 
d="M218 548q-22 0 -22 22q0 9 6 15t16 6t16 -6t6 -15q0 -22 -22 -22zM418 548q-22 0 -22 22q0 9 6 15t16 6t16 -6t6 -15q0 -22 -22 -22zM279 411q86 0 132 -53t30 -136q0 -6 -3 -13h-369q-14 -84 34.5 -143.5t135.5 -59.5q84 0 150 57l12 -14q-74 -61 -163 -61
q-95 0 -149.5 66t-39.5 160q15 87 79 142t151 55zM279 393q-74 0 -131.5 -45t-75.5 -121l350 1q12 72 -28.5 118.5t-114.5 46.5z" />
    <glyph glyph-name="igrave" unicode="&#xec;" horiz-adv-x="234" 
d="M231 491l-130 129l14 14l129 -130zM72 0l70 400h20l-70 -400h-20z" />
    <glyph glyph-name="iacute" unicode="&#xed;" horiz-adv-x="234" 
d="M109 491l-11 13l175 130l11 -14zM72 0l70 400h20l-70 -400h-20z" />
    <glyph glyph-name="icircumflex" unicode="&#xee;" horiz-adv-x="234" 
d="M281 494l-14 -11l-79 118l-122 -119l-11 12l137 133zM72 0l70 400h20l-70 -400h-20z" />
    <glyph glyph-name="idieresis" unicode="&#xef;" horiz-adv-x="234" 
d="M114 548q-9 0 -15 6t-6 16q0 20 21 20q22 0 22 -20q0 -22 -22 -22zM248 548q-21 0 -21 22q0 20 21 20t21 -20q0 -10 -6 -16t-15 -6zM72 0l70 400h20l-70 -400h-20z" />
    <glyph glyph-name="eth" unicode="&#xf0;" horiz-adv-x="489" 
d="M474 679l-125 -79q63 -68 93.5 -161.5t14.5 -184.5q-22 -126 -83 -196t-152 -70q-99 0 -147 70t-29 162q16 81 73.5 130.5t137.5 49.5q61 0 109.5 -30t75.5 -84q7 82 -23 163t-87 141l-163 -103l-9 14l160 101q-73 71 -160 83l5 18q94 -13 172 -90l128 81zM224 6
q84 0 139 66t73 182q-20 60 -68 94.5t-110 34.5q-72 0 -124.5 -45t-67.5 -121q-17 -88 26.5 -149.5t131.5 -61.5z" />
    <glyph glyph-name="ntilde" unicode="&#xf1;" horiz-adv-x="518" 
d="M238 585q-27 0 -45.5 -23.5t-18.5 -60.5h-17q0 44 23.5 72.5t57.5 28.5q36 0 72 -45q13 -15 19 -21.5t18.5 -13.5t26.5 -7q28 0 45.5 23.5t17.5 60.5h18q0 -44 -23.5 -72.5t-58.5 -28.5t-73 46q-2 2 -5.5 6t-5.5 6.5t-5.5 6l-6 6t-6.5 5.5t-7.5 4.5t-7.5 3t-8.5 2.5
t-9.5 1zM318 412q71 0 104 -48t19 -131l-41 -233h-20l40 228q14 77 -14.5 121.5t-92.5 44.5q-74 0 -134 -54t-74 -135l-36 -205h-20l70 400h20l-18 -104q31 54 83 85t114 31z" />
    <glyph glyph-name="ograve" unicode="&#xf2;" horiz-adv-x="498" 
d="M364 491l-130 129l14 14l129 -130zM231 -12q-95 0 -149 66.5t-36 165.5q16 82 76 136.5t145 54.5q95 0 149 -65.5t36 -166.5q-16 -87 -77 -139t-144 -52zM232 6q75 0 130 47.5t70 127.5q17 92 -31 152t-135 60q-75 0 -130.5 -48.5t-69.5 -126.5q-17 -89 30.5 -150.5
t135.5 -61.5z" />
    <glyph glyph-name="oacute" unicode="&#xf3;" horiz-adv-x="498" 
d="M242 491l-11 13l175 130l11 -14zM231 -12q-95 0 -149 66.5t-36 165.5q16 82 76 136.5t145 54.5q95 0 149 -65.5t36 -166.5q-16 -87 -77 -139t-144 -52zM232 6q75 0 130 47.5t70 127.5q17 92 -31 152t-135 60q-75 0 -130.5 -48.5t-69.5 -126.5q-17 -89 30.5 -150.5
t135.5 -61.5z" />
    <glyph glyph-name="ocircumflex" unicode="&#xf4;" horiz-adv-x="498" 
d="M324 604l-152 -121l-10 13l165 132l117 -133l-14 -12zM267 411q95 0 149 -65.5t36 -166.5q-16 -87 -77 -139t-144 -52q-95 0 -149 66.5t-36 165.5q16 82 76 136.5t145 54.5zM432 181q17 92 -31 152t-135 60q-75 0 -130.5 -48.5t-69.5 -126.5q-17 -89 30.5 -150.5
t135.5 -61.5q75 0 130 47.5t70 127.5z" />
    <glyph glyph-name="otilde" unicode="&#xf5;" horiz-adv-x="498" 
d="M366 498q-35 0 -73 46q-2 2 -5.5 6t-5.5 6.5t-5.5 6l-6 6t-6.5 5.5t-7.5 4.5t-7.5 3t-8.5 2.5t-9.5 1q-27 0 -45.5 -23.5t-18.5 -60.5h-17q0 44 23.5 72.5t57.5 28.5q36 0 72 -45q13 -15 19 -21.5t18.5 -13.5t26.5 -7q28 0 45.5 23.5t17.5 60.5h18q0 -44 -23.5 -72.5
t-58.5 -28.5zM231 -12q-95 0 -149 66.5t-36 165.5q16 82 76 136.5t145 54.5q95 0 149 -65.5t36 -166.5q-16 -87 -77 -139t-144 -52zM232 6q75 0 130 47.5t70 127.5q17 92 -31 152t-135 60q-75 0 -130.5 -48.5t-69.5 -126.5q-17 -89 30.5 -150.5t135.5 -61.5z" />
    <glyph glyph-name="odieresis" unicode="&#xf6;" horiz-adv-x="498" 
d="M214 548q-22 0 -22 22q0 9 6 15t16 6t16 -6t6 -15q0 -22 -22 -22zM414 548q-22 0 -22 22q0 9 6 15t16 6t16 -6t6 -15q0 -22 -22 -22zM231 -12q-95 0 -149 66.5t-36 165.5q16 82 76 136.5t145 54.5q95 0 149 -65.5t36 -166.5q-16 -87 -77 -139t-144 -52zM232 6
q75 0 130 47.5t70 127.5q17 92 -31 152t-135 60q-75 0 -130.5 -48.5t-69.5 -126.5q-17 -89 30.5 -150.5t135.5 -61.5z" />
    <glyph glyph-name="divide" unicode="&#xf7;" 
d="M272 451q-22 0 -22 21t22 21t22 -21t-22 -21zM499 241h-460v18h460v-18zM272 -5q-22 0 -22 22q0 21 22 21t22 -21q0 -22 -22 -22z" />
    <glyph glyph-name="oslash" unicode="&#xf8;" horiz-adv-x="498" 
d="M493 396l-71 -59q48 -66 30 -158q-16 -87 -77 -139t-144 -52q-94 0 -149 66l-76 -63l-10 13l77 64q-43 64 -27 152q16 82 76 136.5t145 54.5q91 0 146 -61l70 58zM65 218q-15 -79 22 -138l311 258q-48 56 -132 56q-76 0 -131.5 -49t-69.5 -127zM433 181q16 85 -25 144
l-311 -258q48 -61 135 -61q75 0 130.5 47.5t70.5 127.5z" />
    <glyph glyph-name="ugrave" unicode="&#xf9;" horiz-adv-x="518" 
d="M388 504l-13 -13l-130 129l14 14zM449 400h20l-70 -400h-20l19 107q-33 -54 -85 -86.5t-113 -32.5q-71 0 -104 48t-19 131l41 233h20l-40 -228q-14 -77 14.5 -121.5t92.5 -44.5q73 0 133.5 55.5t74.5 133.5z" />
    <glyph glyph-name="uacute" unicode="&#xfa;" horiz-adv-x="518" 
d="M428 620l-175 -129l-11 13l175 130zM449 400h20l-70 -400h-20l19 107q-33 -54 -85 -86.5t-113 -32.5q-71 0 -104 48t-19 131l41 233h20l-40 -228q-14 -77 14.5 -121.5t92.5 -44.5q73 0 133.5 55.5t74.5 133.5z" />
    <glyph glyph-name="ucircumflex" unicode="&#xfb;" horiz-adv-x="518" 
d="M335 604l-152 -121l-10 13l165 132l117 -133l-14 -12zM449 400h20l-70 -400h-20l19 107q-33 -54 -85 -86.5t-113 -32.5q-71 0 -104 48t-19 131l41 233h20l-40 -228q-14 -77 14.5 -121.5t92.5 -44.5q73 0 133.5 55.5t74.5 133.5z" />
    <glyph glyph-name="udieresis" unicode="&#xfc;" horiz-adv-x="518" 
d="M225 548q-22 0 -22 22q0 9 6 15t16 6t16 -6t6 -15q0 -22 -22 -22zM425 548q-22 0 -22 22q0 9 6 15t16 6t16 -6t6 -15q0 -22 -22 -22zM449 400h20l-70 -400h-20l19 107q-33 -54 -85 -86.5t-113 -32.5q-71 0 -104 48t-19 131l41 233h20l-40 -228q-14 -77 14.5 -121.5
t92.5 -44.5q73 0 133.5 55.5t74.5 133.5z" />
    <glyph glyph-name="yacute" unicode="&#xfd;" horiz-adv-x="518" 
d="M424 620l-175 -129l-11 13l175 130zM449 400h19l-72 -416q-18 -102 -71.5 -158.5t-138.5 -56.5q-99 0 -144 59l15 12q44 -52 130 -52q75 0 123.5 50.5t65.5 144.5l20 115q-66 -110 -197 -110q-153 0 -120 188l39 224h20l-38 -219q-31 -175 104 -175q73 0 129.5 45.5
t75.5 120.5z" />
    <glyph glyph-name="thorn" unicode="&#xfe;" horiz-adv-x="523" 
d="M309 412q89 0 142 -67t35 -165q-16 -82 -75 -136.5t-143 -54.5q-67 0 -111.5 34t-58.5 93l-59 -336h-20l162 920h20l-69 -388q30 46 76 73t101 27zM466 182q17 86 -29 149t-129 63q-74 0 -127.5 -49.5t-64.5 -125.5q-19 -92 23.5 -152t126.5 -60q76 0 131 48.5t69 126.5z
" />
    <glyph glyph-name="ydieresis" unicode="&#xff;" horiz-adv-x="518" 
d="M221 548q-22 0 -22 22q0 9 6 15t16 6t16 -6t6 -15q0 -22 -22 -22zM421 548q-22 0 -22 22q0 9 6 15t16 6t16 -6t6 -15q0 -22 -22 -22zM449 400h19l-72 -416q-18 -102 -71.5 -158.5t-138.5 -56.5q-99 0 -144 59l15 12q44 -52 130 -52q75 0 123.5 50.5t65.5 144.5l20 115
q-66 -110 -197 -110q-153 0 -120 188l39 224h20l-38 -219q-31 -175 104 -175q73 0 129.5 45.5t75.5 120.5z" />
    <glyph glyph-name="Amacron" unicode="&#x100;" horiz-adv-x="632" 
d="M261 752h300l-3 -17h-300zM373 600h24l150 -600h-23l-51 209h-311l-124 -209h-23zM173 227h295l-86 352z" />
    <glyph glyph-name="amacron" unicode="&#x101;" horiz-adv-x="523" 
d="M467 552l-3 -17h-300l3 17h300zM455 400h20l-70 -400h-20l15 88q-29 -47 -75.5 -73.5t-101.5 -26.5q-89 0 -142 67t-35 165q16 82 75 136.5t143 54.5q67 0 112 -35t58 -95zM226 6q73 0 126 49.5t65 125.5q18 92 -24.5 152t-126.5 60q-75 0 -130.5 -48.5t-69.5 -126.5
q-16 -87 30 -149.5t130 -62.5z" />
    <glyph glyph-name="Abreve" unicode="&#x102;" horiz-adv-x="632" 
d="M398 690q-61 0 -90.5 37.5t-23.5 98.5h17q-4 -55 20.5 -87t78.5 -32q50 0 82 31.5t41 87.5h19q-10 -64 -48 -100t-96 -36zM524 0l-51 209h-311l-124 -209h-23l358 600h24l150 -600h-23zM173 227h295l-86 352z" />
    <glyph glyph-name="abreve" unicode="&#x103;" horiz-adv-x="523" 
d="M304 490q-61 0 -90.5 37.5t-23.5 98.5h17q-4 -55 20.5 -87t78.5 -32q50 0 82 31.5t41 87.5h19q-10 -64 -48 -100t-96 -36zM455 400h20l-70 -400h-20l15 88q-29 -47 -75.5 -73.5t-101.5 -26.5q-89 0 -142 67t-35 165q16 82 75 136.5t143 54.5q67 0 112 -35t58 -95zM226 6
q73 0 126 49.5t65 125.5q18 92 -24.5 152t-126.5 60q-75 0 -130.5 -48.5t-69.5 -126.5q-16 -87 30 -149.5t130 -62.5z" />
    <glyph glyph-name="Aogonek" unicode="&#x104;" horiz-adv-x="632" 
d="M441 -132q-7 -38 15 -58t69 -20l-3 -17h-6q-51 0 -77 26.5t-18 69.5q14 75 102 136l-50 204h-311l-124 -209h-23l358 600h24l150 -600q-91 -56 -106 -132zM173 227h295l-86 352z" />
    <glyph glyph-name="aogonek" unicode="&#x105;" horiz-adv-x="523" 
d="M405 0q-92 -59 -106 -132q-6 -36 16 -57t68 -21l-3 -17h-5q-50 0 -76 26.5t-19 68.5q14 74 106 136l14 84q-29 -47 -75.5 -73.5t-101.5 -26.5q-89 0 -142 67t-35 165q16 82 75 136.5t143 54.5q67 0 112 -35t58 -95l21 119h20zM226 6q73 0 126 49.5t65 125.5
q18 92 -24.5 152t-126.5 60q-75 0 -130.5 -48.5t-69.5 -126.5q-16 -87 30 -149.5t130 -62.5z" />
    <glyph glyph-name="Cacute" unicode="&#x106;" horiz-adv-x="630" 
d="M337 700l-7 16l217 98l8 -16zM344 -13q-137 0 -216 99.5t-51 244.5q23 124 114.5 203.5t213.5 79.5q146 0 237 -126l-15 -13q-84 120 -222 120q-113 0 -198.5 -73t-108.5 -193q-26 -133 46 -228t203 -95q135 0 241 122l14 -13q-112 -128 -258 -128z" />
    <glyph glyph-name="cacute" unicode="&#x107;" horiz-adv-x="430" 
d="M237 491l-11 13l175 130l11 -14zM231 -12q-95 0 -149 66.5t-36 165.5q16 82 76 136.5t145 54.5q90 0 145 -61l-15 -12q-50 55 -131 55q-75 0 -130.5 -48.5t-69.5 -126.5q-17 -89 30.5 -150.5t135.5 -61.5q69 0 125 43l12 -13q-59 -48 -138 -48z" />
    <glyph glyph-name="Ccircumflex" unicode="&#x108;" horiz-adv-x="630" 
d="M446 804l-152 -121l-10 13l165 132l117 -133l-14 -12zM405 595q-113 0 -198.5 -73t-108.5 -193q-26 -133 46 -228t203 -95q135 0 241 122l14 -13q-112 -128 -258 -128q-137 0 -216 99.5t-51 244.5q23 124 114.5 203.5t213.5 79.5q146 0 237 -126l-15 -13
q-84 120 -222 120z" />
    <glyph glyph-name="ccircumflex" unicode="&#x109;" horiz-adv-x="430" 
d="M322 628l117 -133l-14 -12l-106 121l-152 -121l-10 13zM267 411q90 0 145 -61l-15 -12q-50 55 -131 55q-75 0 -130.5 -48.5t-69.5 -126.5q-17 -89 30.5 -150.5t135.5 -61.5q69 0 125 43l12 -13q-59 -48 -138 -48q-95 0 -149 66.5t-36 165.5q16 82 76 136.5t145 54.5z" />
    <glyph glyph-name="Cdotaccent" unicode="&#x10a;" horiz-adv-x="630" 
d="M432 728q-21 0 -21 22q0 21 21 21q22 0 22 -21q0 -22 -22 -22zM344 -13q-137 0 -216 99.5t-51 244.5q23 124 114.5 203.5t213.5 79.5q146 0 237 -126l-15 -13q-84 120 -222 120q-113 0 -198.5 -73t-108.5 -193q-26 -133 46 -228t203 -95q135 0 241 122l14 -13
q-112 -128 -258 -128z" />
    <glyph glyph-name="cdotaccent" unicode="&#x10b;" horiz-adv-x="430" 
d="M309 548q-22 0 -22 22q0 21 22 21t22 -21q0 -22 -22 -22zM231 -12q-95 0 -149 66.5t-36 165.5q16 82 76 136.5t145 54.5q90 0 145 -61l-15 -12q-50 55 -131 55q-75 0 -130.5 -48.5t-69.5 -126.5q-17 -89 30.5 -150.5t135.5 -61.5q69 0 125 43l12 -13q-59 -48 -138 -48z
" />
    <glyph glyph-name="Ccaron" unicode="&#x10c;" horiz-adv-x="630" 
d="M582 814l-165 -132l-117 133l14 11l106 -120l151 121zM405 595q-113 0 -198.5 -73t-108.5 -193q-26 -133 46 -228t203 -95q135 0 241 122l14 -13q-112 -128 -258 -128q-137 0 -216 99.5t-51 244.5q23 124 114.5 203.5t213.5 79.5q146 0 237 -126l-15 -13
q-84 120 -222 120z" />
    <glyph glyph-name="ccaron" unicode="&#x10d;" horiz-adv-x="430" 
d="M455 614l-165 -132l-117 133l14 11l106 -120l151 121zM267 411q90 0 145 -61l-15 -12q-50 55 -131 55q-75 0 -130.5 -48.5t-69.5 -126.5q-17 -89 30.5 -150.5t135.5 -61.5q69 0 125 43l12 -13q-59 -48 -138 -48q-95 0 -149 66.5t-36 165.5q16 82 76 136.5t145 54.5z" />
    <glyph glyph-name="Dcaron" unicode="&#x10e;" horiz-adv-x="669" 
d="M544 814l-165 -132l-117 133l14 11l106 -120l151 121zM343 600q150 0 230 -88t57 -225q-24 -136 -123 -211.5t-259 -75.5h-180l106 600h169zM609 289q22 129 -53 211t-217 82h-148l-99 -563h159q149 0 242 71t116 199z" />
    <glyph glyph-name="dcaron" unicode="&#x10f;" horiz-adv-x="532" 
d="M434 283l74 417h20l-123 -700h-20l15 88q-29 -47 -75.5 -73.5t-101.5 -26.5q-89 0 -142 67t-35 165q16 82 75 136.5t143 54.5q67 0 111.5 -34.5t58.5 -93.5zM616 700h18l-36 -209l-19 -9zM224 6q74 0 127.5 49t65.5 126q18 92 -24.5 152t-126.5 60q-75 0 -130.5 -48.5
t-70.5 -126.5q-15 -86 30.5 -149t128.5 -63z" />
    <glyph glyph-name="Dcroat" unicode="&#x110;" horiz-adv-x="669" 
d="M343 600q150 0 230 -88t57 -225q-24 -136 -123 -211.5t-259 -75.5h-180l51 291h-87l3 18h88l51 291h169zM609 289q22 129 -53 211t-217 82h-148l-48 -273h174l-4 -18h-173l-48 -272h159q149 0 242 71t116 199z" />
    <glyph glyph-name="dcroat" unicode="&#x111;" horiz-adv-x="532" 
d="M581 539l-4 -18h-80l-92 -521h-20l15 88q-29 -47 -75.5 -73.5t-101.5 -26.5q-89 0 -142 67t-35 165q16 82 75 136.5t143 54.5q67 0 111.5 -34.5t58.5 -93.5l42 238h-180l3 18h180l29 161h20l-28 -161h81zM224 6q74 0 127.5 49t65.5 126q18 92 -24.5 152t-126.5 60
q-75 0 -130.5 -48.5t-70.5 -126.5q-15 -86 30.5 -149t128.5 -63z" />
    <glyph glyph-name="Emacron" unicode="&#x112;" horiz-adv-x="580" 
d="M563 752l-3 -17h-300l3 17h300zM589 581h-397l-47 -264h377l-3 -18h-377l-50 -280h408l-4 -19h-428l106 600h418z" />
    <glyph glyph-name="emacron" unicode="&#x113;" horiz-adv-x="486" 
d="M165 552h300l-3 -17h-300zM279 411q86 0 132 -53t30 -136q0 -6 -3 -13h-369q-14 -84 34.5 -143.5t135.5 -59.5q84 0 150 57l12 -14q-74 -61 -163 -61q-95 0 -149.5 66t-39.5 160q15 87 79 142t151 55zM422 228q12 72 -28.5 118.5t-114.5 46.5t-131.5 -45t-75.5 -121z" />
    <glyph glyph-name="Ebreve" unicode="&#x114;" horiz-adv-x="580" 
d="M400 690q-61 0 -90.5 37.5t-23.5 98.5h17q-4 -55 20.5 -87t78.5 -32q50 0 82 31.5t41 87.5h19q-10 -64 -48 -100t-96 -36zM589 581h-397l-47 -264h377l-3 -18h-377l-50 -280h408l-4 -19h-428l106 600h418z" />
    <glyph glyph-name="ebreve" unicode="&#x115;" horiz-adv-x="486" 
d="M302 490q-61 0 -90.5 37.5t-23.5 98.5h17q-4 -55 20.5 -87t78.5 -32q50 0 82 31.5t41 87.5h19q-10 -64 -48 -100t-96 -36zM279 411q86 0 132 -53t30 -136q0 -6 -3 -13h-369q-14 -84 34.5 -143.5t135.5 -59.5q84 0 150 57l12 -14q-74 -61 -163 -61q-95 0 -149.5 66
t-39.5 160q15 87 79 142t151 55zM422 228q12 72 -28.5 118.5t-114.5 46.5t-131.5 -45t-75.5 -121z" />
    <glyph glyph-name="Edotaccent" unicode="&#x116;" horiz-adv-x="580" 
d="M412 728q-21 0 -21 22q0 21 21 21q22 0 22 -21q0 -22 -22 -22zM589 581h-397l-47 -264h377l-3 -18h-377l-50 -280h408l-4 -19h-428l106 600h418z" />
    <glyph glyph-name="edotaccent" unicode="&#x117;" horiz-adv-x="486" 
d="M318 548q-22 0 -22 22q0 21 22 21t22 -21q0 -22 -22 -22zM279 411q86 0 132 -53t30 -136q0 -6 -3 -13h-369q-14 -84 34.5 -143.5t135.5 -59.5q84 0 150 57l12 -14q-74 -61 -163 -61q-95 0 -149.5 66t-39.5 160q15 87 79 142t151 55zM279 393q-74 0 -131.5 -45t-75.5 -121
l350 1q12 72 -28.5 118.5t-114.5 46.5z" />
    <glyph glyph-name="Eogonek" unicode="&#x118;" horiz-adv-x="580" 
d="M589 581h-397l-47 -264h377l-3 -18h-377l-50 -280h408l-4 -19q-91 -56 -106 -132q-7 -38 15 -58t69 -20l-3 -17h-6q-51 0 -77 26.5t-18 68.5q12 71 97 132h-399l106 600h418z" />
    <glyph glyph-name="eogonek" unicode="&#x119;" horiz-adv-x="486" 
d="M279 411q86 0 132 -53t30 -136q0 -6 -3 -13h-369q-14 -84 34.5 -143.5t135.5 -59.5q84 0 150 57l12 -14q-97 -97 -110 -168q-7 -39 15 -60t68 -21l-3 -17h-5q-53 0 -77.5 26t-16.5 73q11 58 75 132q-52 -26 -109 -26q-95 0 -149.5 66t-39.5 160q15 87 79 142t151 55z
M279 393q-74 0 -131.5 -45t-75.5 -121l350 1q12 72 -28.5 118.5t-114.5 46.5z" />
    <glyph glyph-name="Ecaron" unicode="&#x11a;" horiz-adv-x="580" 
d="M562 814l-165 -132l-117 133l14 11l106 -120l151 121zM589 581h-397l-47 -264h377l-3 -18h-377l-50 -280h408l-4 -19h-428l106 600h418z" />
    <glyph glyph-name="ecaron" unicode="&#x11b;" horiz-adv-x="486" 
d="M464 614l-165 -132l-117 133l14 11l106 -120l151 121zM279 411q86 0 132 -53t30 -136q0 -6 -3 -13h-369q-14 -84 34.5 -143.5t135.5 -59.5q84 0 150 57l12 -14q-74 -61 -163 -61q-95 0 -149.5 66t-39.5 160q15 87 79 142t151 55zM422 228q12 72 -28.5 118.5t-114.5 46.5
t-131.5 -45t-75.5 -121z" />
    <glyph glyph-name="Gcircumflex" unicode="&#x11c;" horiz-adv-x="737" 
d="M469 804l-152 -121l-10 13l165 132l117 -133l-14 -12zM381 311h320q0 -8 -1 -14q-18 -138 -112 -224t-228 -86q-148 0 -229 99.5t-54 244.5q24 128 118.5 205.5t225.5 77.5q149 0 232 -88l-17 -13q-77 82 -217 82q-121 0 -210 -72.5t-112 -193.5q-25 -136 50.5 -229.5
t213.5 -93.5q125 0 212.5 79.5t105.5 207.5h-301z" />
    <glyph glyph-name="gcircumflex" unicode="&#x11d;" horiz-adv-x="523" 
d="M330 604l-152 -121l-10 13l165 132l117 -133l-14 -12zM455 400h20l-73 -417q-18 -103 -79 -158.5t-153 -55.5q-94 0 -144 50l14 13q47 -45 131 -45q85 0 140 51.5t71 144.5l18 105q-29 -46 -75.5 -73t-101.5 -27q-89 0 -142 67t-35 165q16 82 75 136.5t143 54.5
q67 0 112 -34.5t59 -93.5zM224 6q74 0 127.5 49t65.5 126q18 92 -24.5 152t-126.5 60q-75 0 -130.5 -48.5t-70.5 -126.5q-15 -86 30.5 -149t128.5 -63z" />
    <glyph glyph-name="Gbreve" unicode="&#x11e;" horiz-adv-x="737" 
d="M443 690q-61 0 -90.5 37.5t-23.5 98.5h17q-4 -55 20.5 -87t78.5 -32q50 0 82 31.5t41 87.5h19q-10 -64 -48 -100t-96 -36zM381 311h320q0 -8 -1 -14q-18 -138 -112 -224t-228 -86q-148 0 -229 99.5t-54 244.5q24 128 118.5 205.5t225.5 77.5q149 0 232 -88l-17 -13
q-77 82 -217 82q-121 0 -210 -72.5t-112 -193.5q-25 -136 50.5 -229.5t213.5 -93.5q125 0 212.5 79.5t105.5 207.5h-301z" />
    <glyph glyph-name="gbreve" unicode="&#x11f;" horiz-adv-x="523" 
d="M304 490q-61 0 -90.5 37.5t-23.5 98.5h17q-4 -55 20.5 -87t78.5 -32q50 0 82 31.5t41 87.5h19q-10 -64 -48 -100t-96 -36zM455 400h20l-73 -417q-18 -103 -79 -158.5t-153 -55.5q-94 0 -144 50l14 13q47 -45 131 -45q85 0 140 51.5t71 144.5l18 105q-29 -46 -75.5 -73
t-101.5 -27q-89 0 -142 67t-35 165q16 82 75 136.5t143 54.5q67 0 112 -34.5t59 -93.5zM224 6q74 0 127.5 49t65.5 126q18 92 -24.5 152t-126.5 60q-75 0 -130.5 -48.5t-70.5 -126.5q-15 -86 30.5 -149t128.5 -63z" />
    <glyph glyph-name="Gdotaccent" unicode="&#x120;" horiz-adv-x="737" 
d="M456 728q-21 0 -21 22q0 21 21 21q22 0 22 -21q0 -22 -22 -22zM381 311h320q0 -8 -1 -14q-18 -138 -112 -224t-228 -86q-148 0 -229 99.5t-54 244.5q24 128 118.5 205.5t225.5 77.5q149 0 232 -88l-17 -13q-77 82 -217 82q-121 0 -210 -72.5t-112 -193.5
q-25 -136 50.5 -229.5t213.5 -93.5q125 0 212.5 79.5t105.5 207.5h-301z" />
    <glyph glyph-name="gdotaccent" unicode="&#x121;" horiz-adv-x="523" 
d="M320 548q-22 0 -22 22q0 21 22 21t22 -21q0 -22 -22 -22zM455 400h20l-73 -417q-18 -103 -79 -158.5t-153 -55.5q-94 0 -144 50l14 13q47 -45 131 -45q85 0 140 51.5t71 144.5l18 105q-29 -46 -75.5 -73t-101.5 -27q-89 0 -142 67t-35 165q16 82 75 136.5t143 54.5
q67 0 112 -34.5t59 -93.5zM224 6q74 0 127.5 49t65.5 126q18 92 -24.5 152t-126.5 60q-75 0 -130.5 -48.5t-70.5 -126.5q-15 -86 30.5 -149t128.5 -63z" />
    <glyph glyph-name="Gcommaaccent" unicode="&#x122;" horiz-adv-x="737" 
d="M381 311h320q0 -8 -1 -14q-18 -138 -112 -224t-228 -86q-148 0 -229 99.5t-54 244.5q24 128 118.5 205.5t225.5 77.5q149 0 232 -88l-17 -13q-77 82 -217 82q-121 0 -210 -72.5t-112 -193.5q-25 -136 50.5 -229.5t213.5 -93.5q125 0 212.5 79.5t105.5 207.5h-301z
M298 -218l64 163l20 -6l-67 -163z" />
    <glyph glyph-name="gcommaaccent" unicode="&#x123;" horiz-adv-x="523" 
d="M368 673l-74 -192l-19 6l77 192zM455 400h20l-73 -417q-18 -103 -79 -158.5t-153 -55.5q-94 0 -144 50l14 13q47 -45 131 -45q85 0 140 51.5t71 144.5l18 105q-29 -46 -75.5 -73t-101.5 -27q-89 0 -142 67t-35 165q16 82 75 136.5t143 54.5q67 0 112 -34.5t59 -93.5z
M224 6q74 0 127.5 49t65.5 126q18 92 -24.5 152t-126.5 60q-75 0 -130.5 -48.5t-70.5 -126.5q-15 -86 30.5 -149t128.5 -63z" />
    <glyph glyph-name="Hcircumflex" unicode="&#x124;" horiz-adv-x="693" 
d="M458 804l-152 -121l-10 13l165 132l117 -133l-14 -12zM640 600h21l-106 -600h-21l53 299h-445l-53 -299h-21l106 600h21l-50 -283h445z" />
    <glyph glyph-name="hcircumflex" unicode="&#x125;" horiz-adv-x="518" 
d="M301 642l-106 121l-152 -122l-10 13l165 132l117 -132zM326 412q71 0 104 -48t19 -131l-41 -233h-20l40 228q14 77 -14.5 121.5t-92.5 44.5q-70 0 -127.5 -48.5t-76.5 -123.5l-39 -222h-20l105 600h20l-53 -306q32 53 84.5 85.5t111.5 32.5z" />
    <glyph glyph-name="Hbar" unicode="&#x126;" horiz-adv-x="690" 
d="M637 600h21l-106 -600h-21l32 183h-442l-32 -183h-21l106 600h21l-31 -178h442zM125 201h442l35 203h-442z" />
    <glyph glyph-name="hbar" unicode="&#x127;" horiz-adv-x="527" 
d="M327 412q72 0 104.5 -48t18.5 -131l-41 -233h-20l40 228q14 77 -14.5 121.5t-92.5 44.5q-73 0 -133 -54.5t-75 -135.5l-36 -204h-20l92 521h-85l3 18h85l28 161h20l-28 -161h177l-4 -18h-176l-41 -228q33 55 85.5 87t112.5 32z" />
    <glyph glyph-name="Itilde" unicode="&#x128;" horiz-adv-x="283" 
d="M294 698q-35 0 -73 46q-2 2 -5.5 6t-5.5 6.5t-5.5 6l-6 6t-6.5 5.5t-7.5 4.5t-7.5 3t-8.5 2.5t-9.5 1q-27 0 -45.5 -23.5t-18.5 -60.5h-17q0 44 23.5 72.5t57.5 28.5q36 0 72 -45q13 -15 19 -21.5t18.5 -13.5t26.5 -7q28 0 45.5 23.5t17.5 60.5h18q0 -44 -23.5 -72.5
t-58.5 -28.5zM96 0l106 600h21l-106 -600h-21z" />
    <glyph glyph-name="itilde" unicode="&#x129;" horiz-adv-x="234" 
d="M233 498q-35 0 -73 46q-2 2 -5.5 6t-5.5 6.5t-5.5 6l-6 6t-6.5 5.5t-7.5 4.5t-7.5 3t-8.5 2.5t-9.5 1q-27 0 -45.5 -23.5t-18.5 -60.5h-17q0 44 23.5 72.5t57.5 28.5q36 0 72 -45q13 -15 19 -21.5t18.5 -13.5t26.5 -7q28 0 45.5 23.5t17.5 60.5h18q0 -44 -23.5 -72.5
t-58.5 -28.5zM72 0l70 400h20l-70 -400h-20z" />
    <glyph glyph-name="Imacron" unicode="&#x12a;" horiz-adv-x="283" 
d="M347 735h-223l3 17h223zM96 0l106 600h21l-106 -600h-21z" />
    <glyph glyph-name="imacron" unicode="&#x12b;" horiz-adv-x="234" 
d="M286 535h-223l3 17h223zM72 0l70 400h20l-70 -400h-20z" />
    <glyph glyph-name="Ibreve" unicode="&#x12c;" horiz-adv-x="283" 
d="M129 826q-4 -55 20.5 -87t78.5 -32q50 0 82 31.5t41 87.5h19q-10 -64 -48 -100t-96 -36q-61 0 -90.5 37.5t-23.5 98.5h17zM96 0l106 600h21l-106 -600h-21z" />
    <glyph glyph-name="ibreve" unicode="&#x12d;" horiz-adv-x="234" 
d="M109 626q-11 -56 8 -87.5t59 -31.5q37 0 61.5 33t33.5 86h18q-11 -64 -40.5 -100t-74.5 -36q-47 0 -71 37t-12 99h18zM72 0l70 400h20l-70 -400h-20z" />
    <glyph glyph-name="Iogonek" unicode="&#x12e;" horiz-adv-x="283" 
d="M117 0q-91 -56 -106 -132q-7 -38 15 -58t69 -20l-3 -17h-6q-51 0 -77 26.5t-18 68.5q14 77 106 138l105 594h21z" />
    <glyph glyph-name="iogonek" unicode="&#x12f;" horiz-adv-x="234" 
d="M181 591q22 0 22 -21q0 -22 -22 -22t-22 22q0 21 22 21zM92 0q-56 -47 -69 -114q-8 -44 13 -69.5t67 -25.5l-2 -18h-5q-52 0 -76.5 30.5t-15.5 81.5q12 62 68 117l70 398h20z" />
    <glyph glyph-name="Idotaccent" unicode="&#x130;" horiz-adv-x="283" 
d="M238 728q-21 0 -21 22q0 21 21 21q22 0 22 -21q0 -22 -22 -22zM96 0l106 600h21l-106 -600h-21z" />
    <glyph glyph-name="dotlessi" unicode="&#x131;" horiz-adv-x="234" 
d="M72 0l70 400h20l-70 -400h-20z" />
    <glyph glyph-name="IJ" unicode="&#x132;" horiz-adv-x="667" 
d="M124 231q-16 -96 37 -161t148 -65q93 0 160.5 62t86.5 163l65 370h21l-66 -371q-20 -110 -93 -176.5t-174 -66.5q-105 0 -164.5 71t-42.5 174l2 12h22zM123 352l44 248h21l-43 -248h-22z" />
    <glyph glyph-name="ij" unicode="&#x133;" horiz-adv-x="518" 
d="M160 548q-22 0 -22 22q0 21 22 21t22 -21q0 -22 -22 -22zM481 591q22 0 22 -21q0 -22 -22 -22t-22 22q0 21 22 21zM409 172l40 228h19l-72 -416q-18 -102 -71.5 -158.5t-138.5 -56.5q-99 0 -144 59l15 12q44 -52 130 -52q75 0 123.5 50.5t65.5 144.5l20 115
q-66 -110 -197 -110q-153 0 -120 188l39 224h20l-38 -219q-31 -175 104 -175q73 0 129.5 45.5t75.5 120.5z" />
    <glyph glyph-name="Jcircumflex" unicode="&#x134;" horiz-adv-x="308" 
d="M397 695l-14 -12l-106 121l-152 -121l-10 13l165 132zM129 50l97 550h21l-97 -550q-17 -97 -79 -152.5t-153 -55.5h-26l4 19h27q80 0 135.5 51t70.5 138z" />
    <glyph glyph-name="jcircumflex" unicode="&#x135;" horiz-adv-x="234" 
d="M281 494l-14 -11l-79 118l-122 -119l-11 12l137 133zM33 -220l109 620h20l-109 -620h-20z" />
    <glyph glyph-name="Kcommaaccent" unicode="&#x136;" horiz-adv-x="635" 
d="M347 308q110 -23 162 -105t31 -203h-21q24 135 -46 217t-209 82h-122l-53 -299h-21l106 600h21l-50 -283h121q129 0 228.5 80.5t121.5 202.5h21q-19 -109 -98.5 -189t-191.5 -103zM226 -218l64 163l20 -6l-67 -163z" />
    <glyph glyph-name="kcommaaccent" unicode="&#x137;" horiz-adv-x="490" 
d="M460 410q-13 -78 -69 -132t-140 -73q78 -17 114.5 -71t22.5 -134h-20q16 90 -33.5 142.5t-148.5 52.5h-74l-34 -195h-20l123 700h20l-86 -487h52q107 0 182 54t91 143h20zM147 -220l64 164l19 -5l-67 -163z" />
    <glyph glyph-name="Lacute" unicode="&#x139;" horiz-adv-x="525" 
d="M333 798l-218 -98l-7 16l217 98zM92 19h379l-3 -19h-400l106 600h21z" />
    <glyph glyph-name="lacute" unicode="&#x13a;" horiz-adv-x="223" 
d="M118 665l-7 16l217 98l8 -16zM67 0l105 600h20l-105 -600h-20z" />
    <glyph glyph-name="Lcommaaccent" unicode="&#x13b;" horiz-adv-x="525" 
d="M92 19h379l-3 -19h-400l106 600h21zM201 -218l64 163l20 -6l-67 -163z" />
    <glyph glyph-name="lcommaaccent" unicode="&#x13c;" horiz-adv-x="207" 
d="M58 0l123 700h20l-123 -700h-20zM12 -224l-16 4l64 164l19 -5z" />
    <glyph glyph-name="Lcaron" unicode="&#x13d;" horiz-adv-x="525" 
d="M195 600l-103 -581h379l-3 -19h-400l106 600h21zM497 600l-43 -249l-20 -9l44 258h19z" />
    <glyph glyph-name="lcaron" unicode="&#x13e;" horiz-adv-x="207" 
d="M58 0l123 700h20l-123 -700h-20zM304 699l-36 -209l-19 -9l37 218h18z" />
    <glyph glyph-name="Ldot" unicode="&#x13f;" horiz-adv-x="525" 
d="M92 19h379l-3 -19h-400l106 600h21zM416 283q-22 0 -22 22q0 21 22 21q21 0 21 -21q0 -10 -6 -16t-15 -6z" />
    <glyph glyph-name="ldot" unicode="&#x140;" horiz-adv-x="209" 
d="M58 0l123 700h20l-123 -700h-20zM230 312q-22 0 -22 22q0 21 22 21q21 0 21 -21q0 -10 -6 -16t-15 -6z" />
    <glyph glyph-name="Lslash" unicode="&#x141;" horiz-adv-x="535" 
d="M102 19h379l-3 -19h-400l46 262l-117 -59l-6 16l127 64l56 317h21l-54 -306l186 94l7 -16l-197 -99z" />
    <glyph glyph-name="lslash" unicode="&#x142;" horiz-adv-x="227" 
d="M288 425l-139 -84l-60 -341h-20l58 328l-125 -75l-8 14l136 82l62 351h20l-59 -337l126 76z" />
    <glyph glyph-name="Nacute" unicode="&#x143;" horiz-adv-x="683" 
d="M562 798l-218 -98l-7 16l217 98zM630 600h21l-106 -600h-22l-334 571l-101 -571h-20l106 600h22l334 -572z" />
    <glyph glyph-name="nacute" unicode="&#x144;" horiz-adv-x="518" 
d="M424 620l-175 -129l-11 13l175 130zM318 412q71 0 104 -48t19 -131l-41 -233h-20l40 228q14 77 -14.5 121.5t-92.5 44.5q-74 0 -134 -54t-74 -135l-36 -205h-20l70 400h20l-18 -104q31 54 83 85t114 31z" />
    <glyph glyph-name="Ncommaaccent" unicode="&#x145;" horiz-adv-x="683" 
d="M630 600h21l-106 -600h-22l-334 571l-101 -571h-20l106 600h22l334 -572zM241 -218l64 163l20 -6l-67 -163z" />
    <glyph glyph-name="ncommaaccent" unicode="&#x146;" horiz-adv-x="518" 
d="M318 412q71 0 104 -48t19 -131l-41 -233h-20l40 228q14 77 -14.5 121.5t-92.5 44.5q-74 0 -134 -54t-74 -135l-36 -205h-20l70 400h20l-18 -104q31 54 83 85t114 31zM156 -220l64 164l19 -5l-67 -163z" />
    <glyph glyph-name="Ncaron" unicode="&#x147;" horiz-adv-x="683" 
d="M588 814l-165 -132l-117 133l14 11l106 -120l151 121zM630 600h21l-106 -600h-22l-334 571l-101 -571h-20l106 600h22l334 -572z" />
    <glyph glyph-name="ncaron" unicode="&#x148;" horiz-adv-x="518" 
d="M467 614l-165 -132l-117 133l14 11l106 -120l151 121zM318 412q71 0 104 -48t19 -131l-41 -233h-20l40 228q14 77 -14.5 121.5t-92.5 44.5q-74 0 -134 -54t-74 -135l-36 -205h-20l70 400h20l-18 -104q31 54 83 85t114 31z" />
    <glyph glyph-name="Eng" unicode="&#x14a;" horiz-adv-x="704" 
d="M458 614q110 0 153 -73t20 -208l-50 -283q-19 -103 -78 -155.5t-154 -52.5h-26l4 19h27q172 0 206 189l49 280q23 128 -14.5 196.5t-139.5 68.5q-119 0 -205 -84t-108 -210l-53 -301h-21l106 600h21l-31 -177q46 90 124 140.5t170 50.5z" />
    <glyph glyph-name="eng" unicode="&#x14b;" horiz-adv-x="518" 
d="M314 412q74 0 107.5 -48t19.5 -131l-40 -224q-19 -110 -79 -170t-148 -60h-12l3 18h12q79 0 132 55t72 158l39 218q14 77 -14.5 121.5t-94.5 44.5q-74 0 -132.5 -51.5t-72.5 -133.5l-37 -209h-20l70 400h20l-17 -100q31 53 81.5 82.5t110.5 29.5z" />
    <glyph glyph-name="Omacron" unicode="&#x14c;" horiz-adv-x="738" 
d="M605 726h-300l3 17h300zM362 -13q-149 0 -229.5 97t-55.5 247q21 123 115 203t217 80q152 0 233.5 -97t54.5 -247q-21 -123 -115.5 -203t-219.5 -80zM363 6q117 0 205 75t108 191q25 140 -50.5 231.5t-217.5 91.5q-115 0 -203 -75.5t-107 -190.5q-24 -140 51 -231.5
t214 -91.5z" />
    <glyph glyph-name="omacron" unicode="&#x14d;" horiz-adv-x="498" 
d="M458 535h-300l3 17h300zM231 -12q-95 0 -149 66.5t-36 165.5q16 82 76 136.5t145 54.5q95 0 149 -65.5t36 -166.5q-16 -87 -77 -139t-144 -52zM232 6q75 0 130 47.5t70 127.5q17 92 -31 152t-135 60q-75 0 -130.5 -48.5t-69.5 -126.5q-17 -89 30.5 -150.5t135.5 -61.5z
" />
    <glyph glyph-name="Obreve" unicode="&#x14e;" horiz-adv-x="738" 
d="M348 817q-4 -55 20.5 -87t78.5 -32q50 0 82 31.5t41 87.5h19q-10 -64 -48 -100t-96 -36q-61 0 -90.5 37.5t-23.5 98.5h17zM362 -13q-149 0 -229.5 97t-55.5 247q21 123 115 203t217 80q152 0 233.5 -97t54.5 -247q-21 -123 -115.5 -203t-219.5 -80zM363 6q117 0 205 75
t108 191q25 140 -50.5 231.5t-217.5 91.5q-115 0 -203 -75.5t-107 -190.5q-24 -140 51 -231.5t214 -91.5z" />
    <glyph glyph-name="obreve" unicode="&#x14f;" horiz-adv-x="498" 
d="M201 626q-4 -55 20.5 -87t78.5 -32q50 0 82 31.5t41 87.5h19q-10 -64 -48 -100t-96 -36q-61 0 -90.5 37.5t-23.5 98.5h17zM231 -12q-95 0 -149 66.5t-36 165.5q16 82 76 136.5t145 54.5q95 0 149 -65.5t36 -166.5q-16 -87 -77 -139t-144 -52zM232 6q75 0 130 47.5
t70 127.5q17 92 -31 152t-135 60q-75 0 -130.5 -48.5t-69.5 -126.5q-17 -89 30.5 -150.5t135.5 -61.5z" />
    <glyph glyph-name="Ohungarumlaut" unicode="&#x150;" horiz-adv-x="738" 
d="M303 691l-7 16l217 98l8 -16zM480 691l-7 16l217 98l8 -16zM362 -13q-149 0 -229.5 97t-55.5 247q21 123 115 203t217 80q152 0 233.5 -97t54.5 -247q-21 -123 -115.5 -203t-219.5 -80zM363 6q117 0 205 75t108 191q25 140 -50.5 231.5t-217.5 91.5q-115 0 -203 -75.5
t-107 -190.5q-24 -140 51 -231.5t214 -91.5z" />
    <glyph glyph-name="ohungarumlaut" unicode="&#x151;" horiz-adv-x="498" 
d="M195 491l-10 13l174 130l11 -14zM341 491l-11 13l175 130l11 -14zM231 -12q-95 0 -149 66.5t-36 165.5q16 82 76 136.5t145 54.5q95 0 149 -65.5t36 -166.5q-16 -87 -77 -139t-144 -52zM232 6q75 0 130 47.5t70 127.5q17 92 -31 152t-135 60q-75 0 -130.5 -48.5
t-69.5 -126.5q-17 -89 30.5 -150.5t135.5 -61.5z" />
    <glyph glyph-name="OE" unicode="&#x152;" horiz-adv-x="980" 
d="M992 600l-3 -19h-447q66 -36 100 -105t30 -159h250l-3 -18h-248q-2 -18 -4 -29q-13 -84 -60 -150t-117 -101h410l-4 -19h-455q-47 -13 -92 -13q-140 0 -218.5 97.5t-53.5 246.5q21 123 113.5 203t215.5 80q48 0 92 -14h494zM646 272q23 140 -45.5 231.5t-195.5 91.5
q-114 0 -200.5 -74.5t-107.5 -191.5q-23 -140 50.5 -231.5t203.5 -91.5q115 0 196 74t99 192z" />
    <glyph glyph-name="oe" unicode="&#x153;" horiz-adv-x="843" 
d="M654 412q79 0 119 -50t24 -140q0 -6 -3 -13h-351q-1 -2 -1 -5.5t-1 -4.5q-15 -85 26 -139t120 -54q94 0 162 60l12 -13q-75 -65 -173 -65q-70 0 -115 39.5t-53 105.5q-29 -66 -86 -105.5t-125 -39.5q-88 0 -135.5 60.5t-30.5 154.5q16 91 82.5 150t152.5 59q70 0 114 -39
t51 -106q30 66 86.5 105.5t124.5 39.5zM210 7q78 0 137.5 54t74.5 139t-25 139.5t-118 54.5q-80 0 -141 -54t-76 -139q-15 -84 27.5 -139t120.5 -55zM653 394q-71 0 -127.5 -46t-78.5 -121l331 1q12 79 -23 122.5t-102 43.5z" />
    <glyph glyph-name="Racute" unicode="&#x154;" horiz-adv-x="654" 
d="M538 798l-218 -98l-7 16l217 98zM435 600q89 0 135 -44.5t33 -117.5q-11 -64 -59 -107.5t-120 -54.5q158 -48 117 -276h-21q25 134 -23 203t-165 69h-186l-48 -272h-21l106 600h252zM582 437q12 67 -29 106.5t-122 39.5h-231l-51 -293h229q80 0 136.5 41t67.5 106z" />
    <glyph glyph-name="racute" unicode="&#x155;" horiz-adv-x="356" 
d="M367 620l-175 -129l-11 13l175 130zM114 260q76 143 253 143l-3 -19h-2q-101 0 -171 -57t-93 -161l-29 -166h-20l70 400h20z" />
    <glyph glyph-name="Rcommaaccent" unicode="&#x156;" horiz-adv-x="654" 
d="M435 600q89 0 135 -44.5t33 -117.5q-11 -64 -59 -107.5t-120 -54.5q158 -48 117 -276h-21q25 134 -23 203t-165 69h-186l-48 -272h-21l106 600h252zM582 437q12 67 -29 106.5t-122 39.5h-231l-51 -293h229q80 0 136.5 41t67.5 106zM230 -218l64 163l20 -6l-67 -163z" />
    <glyph glyph-name="rcommaaccent" unicode="&#x157;" horiz-adv-x="356" 
d="M114 260q76 143 253 143l-3 -19h-2q-101 0 -171 -57t-93 -161l-29 -166h-20l70 400h20zM75 -220l64 164l19 -5l-67 -163z" />
    <glyph glyph-name="Rcaron" unicode="&#x158;" horiz-adv-x="654" 
d="M565 814l-165 -132l-117 133l14 11l106 -120l151 121zM435 600q89 0 135 -44.5t33 -117.5q-11 -64 -59 -107.5t-120 -54.5q158 -48 117 -276h-21q25 134 -23 203t-165 69h-186l-48 -272h-21l106 600h252zM582 437q12 67 -29 106.5t-122 39.5h-231l-51 -293h229
q80 0 136.5 41t67.5 106z" />
    <glyph glyph-name="rcaron" unicode="&#x159;" horiz-adv-x="356" 
d="M410 614l-165 -132l-117 133l14 11l106 -120l151 121zM114 260q76 143 253 143l-3 -19h-2q-101 0 -171 -57t-93 -161l-29 -166h-20l70 400h20z" />
    <glyph glyph-name="Sacute" unicode="&#x15a;" horiz-adv-x="600" 
d="M302 700l-7 16l217 98l8 -16zM287 -13q-88 0 -151.5 34.5t-91.5 96.5l16 10q26 -58 85 -90t141 -32q84 0 147.5 37.5t75.5 101.5q3 19 0 35.5t-13.5 30t-21.5 24.5t-30 20t-31.5 15t-33.5 12t-29.5 8.5t-25.5 6.5q-31 7 -53.5 14t-55 22t-51.5 33t-30 47.5t-3 64.5
q16 68 79.5 102t146.5 34q81 0 140.5 -34t83.5 -88l-16 -11q-24 50 -78 82t-131 32q-79 0 -135.5 -31.5t-69.5 -87.5q-7 -30 2.5 -55.5t26.5 -41t47 -29.5t51.5 -20.5t52.5 -14.5q33 -9 53 -15t54.5 -21t53 -31.5t30.5 -43.5t6 -60q-14 -72 -82.5 -114.5t-158.5 -42.5z" />
    <glyph glyph-name="sacute" unicode="&#x15b;" horiz-adv-x="398" 
d="M194 491l-11 13l175 130l11 -14zM166 -12q-86 0 -139 60l14 11q49 -54 127 -54q53 0 87.5 23.5t42.5 59.5q8 41 -19.5 65.5t-78.5 44.5q-28 11 -45.5 20t-36 23.5t-25.5 34.5t-2 46q8 44 49.5 67.5t95.5 23.5q82 0 117 -51l-15 -10q-35 44 -103 44q-53 0 -86 -22.5
t-39 -55.5q-4 -22 3 -39t25 -29.5t31.5 -19t36.5 -15.5q12 -5 20 -8t21.5 -9.5t21 -11.5t18.5 -13.5t15.5 -16.5t11 -19.5t5 -23t-2.5 -27.5q-10 -46 -50.5 -72t-99.5 -26z" />
    <glyph glyph-name="Scircumflex" unicode="&#x15c;" horiz-adv-x="600" 
d="M411 804l-152 -121l-10 13l165 132l117 -133l-14 -12zM356 595q-79 0 -135.5 -31.5t-69.5 -87.5q-7 -30 2.5 -55.5t26.5 -41t47 -29.5t51.5 -20.5t52.5 -14.5q33 -9 53 -15t54.5 -21t53 -31.5t30.5 -43.5t6 -60q-14 -72 -82.5 -114.5t-158.5 -42.5q-88 0 -151.5 34.5
t-91.5 96.5l16 10q26 -58 85 -90t141 -32q84 0 147.5 37.5t75.5 101.5q3 19 0 35.5t-13.5 30t-21.5 24.5t-30 20t-31.5 15t-33.5 12t-29.5 8.5t-25.5 6.5q-31 7 -53.5 14t-55 22t-51.5 33t-30 47.5t-3 64.5q16 68 79.5 102t146.5 34q81 0 140.5 -34t83.5 -88l-16 -11
q-24 50 -78 82t-131 32z" />
    <glyph glyph-name="scircumflex" unicode="&#x15d;" horiz-adv-x="398" 
d="M273 601l-122 -119l-11 12l137 133l89 -133l-14 -11zM236 413q82 0 117 -51l-15 -10q-35 44 -103 44q-53 0 -86 -22.5t-39 -55.5q-4 -22 3 -39t25 -29.5t31.5 -19t36.5 -15.5q12 -5 20 -8t21.5 -9.5t21 -11.5t18.5 -13.5t15.5 -16.5t11 -19.5t5 -23t-2.5 -27.5
q-10 -46 -50.5 -72t-99.5 -26q-86 0 -139 60l14 11q49 -54 127 -54q53 0 87.5 23.5t42.5 59.5q8 41 -19.5 65.5t-78.5 44.5q-28 11 -45.5 20t-36 23.5t-25.5 34.5t-2 46q8 44 49.5 67.5t95.5 23.5z" />
    <glyph glyph-name="Scedilla" unicode="&#x15e;" horiz-adv-x="600" 
d="M287 -13q-88 0 -151.5 34.5t-91.5 96.5l16 10q26 -58 85 -90t141 -32q84 0 147.5 37.5t75.5 101.5q3 19 0 35.5t-13.5 30t-21.5 24.5t-30 20t-31.5 15t-33.5 12t-29.5 8.5t-25.5 6.5q-31 7 -53.5 14t-55 22t-51.5 33t-30 47.5t-3 64.5q16 68 79.5 102t146.5 34
q81 0 140.5 -34t83.5 -88l-16 -11q-24 50 -78 82t-131 32q-79 0 -135.5 -31.5t-69.5 -87.5q-7 -30 2.5 -55.5t26.5 -41t47 -29.5t51.5 -20.5t52.5 -14.5q33 -9 53 -15t54.5 -21t53 -31.5t30.5 -43.5t6 -60q-14 -72 -82.5 -114.5t-158.5 -42.5zM235 -220h-18l24 137h19z" />
    <glyph glyph-name="scedilla" unicode="&#x15f;" horiz-adv-x="398" 
d="M166 -12q-86 0 -139 60l14 11q49 -54 127 -54q53 0 87.5 23.5t42.5 59.5q8 41 -19.5 65.5t-78.5 44.5q-28 11 -45.5 20t-36 23.5t-25.5 34.5t-2 46q8 44 49.5 67.5t95.5 23.5q82 0 117 -51l-15 -10q-35 44 -103 44q-53 0 -86 -22.5t-39 -55.5q-4 -22 3 -39t25 -29.5
t31.5 -19t36.5 -15.5q12 -5 20 -8t21.5 -9.5t21 -11.5t18.5 -13.5t15.5 -16.5t11 -19.5t5 -23t-2.5 -27.5q-10 -46 -50.5 -72t-99.5 -26zM144 -220h-18l24 137h19z" />
    <glyph glyph-name="Scaron" unicode="&#x160;" horiz-adv-x="600" 
d="M547 814l-165 -132l-117 133l14 11l106 -120l151 121zM356 595q-79 0 -135.5 -31.5t-69.5 -87.5q-7 -30 2.5 -55.5t26.5 -41t47 -29.5t51.5 -20.5t52.5 -14.5q33 -9 53 -15t54.5 -21t53 -31.5t30.5 -43.5t6 -60q-14 -72 -82.5 -114.5t-158.5 -42.5q-88 0 -151.5 34.5
t-91.5 96.5l16 10q26 -58 85 -90t141 -32q84 0 147.5 37.5t75.5 101.5q3 19 0 35.5t-13.5 30t-21.5 24.5t-30 20t-31.5 15t-33.5 12t-29.5 8.5t-25.5 6.5q-31 7 -53.5 14t-55 22t-51.5 33t-30 47.5t-3 64.5q16 68 79.5 102t146.5 34q81 0 140.5 -34t83.5 -88l-16 -11
q-24 50 -78 82t-131 32z" />
    <glyph glyph-name="scaron" unicode="&#x161;" horiz-adv-x="398" 
d="M388 615l-138 -133l-89 133l14 11l79 -119l122 120zM236 413q82 0 117 -51l-15 -10q-35 44 -103 44q-53 0 -86 -22.5t-39 -55.5q-4 -22 3 -39t25 -29.5t31.5 -19t36.5 -15.5q12 -5 20 -8t21.5 -9.5t21 -11.5t18.5 -13.5t15.5 -16.5t11 -19.5t5 -23t-2.5 -27.5
q-10 -46 -50.5 -72t-99.5 -26q-86 0 -139 60l14 11q49 -54 127 -54q53 0 87.5 23.5t42.5 59.5q8 41 -19.5 65.5t-78.5 44.5q-28 11 -45.5 20t-36 23.5t-25.5 34.5t-2 46q8 44 49.5 67.5t95.5 23.5z" />
    <glyph glyph-name="uni0162" unicode="&#x162;" horiz-adv-x="593" 
d="M639 600l-3 -19h-261l-103 -581h-21l103 581h-261l3 19h543zM214 -220l24 137h19l-25 -137h-18z" />
    <glyph glyph-name="uni0163" unicode="&#x163;" horiz-adv-x="394" 
d="M164 373l-41 -230q-12 -66 13 -101.5t82 -35.5q65 0 113 51l12 -11q-52 -58 -129 -58q-64 0 -94 40.5t-17 113.5l41 231h-76l2 18h77l16 91h20l-16 -91h207l-2 -18h-208zM153 -220l24 137h19l-25 -137h-18z" />
    <glyph glyph-name="Tcaron" unicode="&#x164;" horiz-adv-x="593" 
d="M544 814l-165 -132l-117 133l14 11l106 -120l151 121zM639 600l-3 -19h-261l-103 -581h-21l103 581h-261l3 19h543z" />
    <glyph glyph-name="tcaron" unicode="&#x165;" horiz-adv-x="394" 
d="M337 700l-36 -209l-19 -9l37 218h18zM164 373l-41 -230q-12 -66 13 -101.5t82 -35.5q65 0 113 51l12 -11q-52 -58 -129 -58q-64 0 -94 40.5t-17 113.5l41 231h-76l2 18h77l16 91h20l-16 -91h207l-2 -18h-208z" />
    <glyph glyph-name="Tbar" unicode="&#x166;" horiz-adv-x="593" 
d="M636 581h-261l-48 -272h131l-4 -18h-131l-51 -291h-21l51 291h-129l3 18h130l48 272h-261l3 19h543z" />
    <glyph glyph-name="tbar" unicode="&#x167;" horiz-adv-x="394" 
d="M372 373h-208l-28 -158h194l-4 -18h-193l-10 -54q-12 -66 13 -101.5t82 -35.5q65 0 113 51l12 -11q-52 -58 -129 -58q-64 0 -94 40.5t-17 113.5l10 55h-68l3 18h68l28 158h-76l2 18h77l16 91h20l-16 -91h207z" />
    <glyph glyph-name="Utilde" unicode="&#x168;" horiz-adv-x="687" 
d="M482 698q-35 0 -73 46q-2 2 -5.5 6t-5.5 6.5t-5.5 6l-6 6t-6.5 5.5t-7.5 4.5t-7.5 3t-8.5 2.5t-9.5 1q-27 0 -45.5 -23.5t-18.5 -60.5h-17q0 44 23.5 72.5t57.5 28.5q36 0 72 -45q13 -15 19 -21.5t18.5 -13.5t26.5 -7q28 0 45.5 23.5t17.5 60.5h18q0 -44 -23.5 -72.5
t-58.5 -28.5zM319 -14q-120 0 -177 79.5t-30 225.5l57 309h21l-58 -313q-26 -135 26.5 -208.5t160.5 -73.5q106 0 174 69t90 194l58 332h21l-59 -333q-24 -134 -97 -207.5t-187 -73.5z" />
    <glyph glyph-name="utilde" unicode="&#x169;" horiz-adv-x="518" 
d="M242 585q-27 0 -45.5 -23.5t-18.5 -60.5h-17q0 44 23.5 72.5t57.5 28.5q36 0 72 -45q13 -15 19 -21.5t18.5 -13.5t26.5 -7q28 0 45.5 23.5t17.5 60.5h18q0 -44 -23.5 -72.5t-58.5 -28.5t-73 46q-2 2 -5.5 6t-5.5 6.5t-5.5 6l-6 6t-6.5 5.5t-7.5 4.5t-7.5 3t-8.5 2.5
t-9.5 1zM449 400h20l-70 -400h-20l19 107q-33 -54 -85 -86.5t-113 -32.5q-71 0 -104 48t-19 131l41 233h20l-40 -228q-14 -77 14.5 -121.5t92.5 -44.5q73 0 133.5 55.5t74.5 133.5z" />
    <glyph glyph-name="Umacron" unicode="&#x16a;" horiz-adv-x="687" 
d="M589 735h-300l3 17h300zM325 -14q-121 0 -181 80t-32 227l57 307h21l-58 -311q-27 -135 28.5 -209.5t166.5 -74.5q103 0 168.5 67.5t87.5 195.5l58 332h21l-59 -333q-23 -135 -93 -208t-185 -73z" />
    <glyph glyph-name="umacron" unicode="&#x16b;" horiz-adv-x="518" 
d="M172 552h300l-3 -17h-300zM413 195l36 205h20l-70 -400h-20l19 107q-33 -54 -85 -86.5t-113 -32.5q-71 0 -104 48t-19 131l41 233h20l-40 -228q-14 -77 14.5 -121.5t92.5 -44.5q73 0 133.5 55.5t74.5 133.5z" />
    <glyph glyph-name="Ubreve" unicode="&#x16c;" horiz-adv-x="687" 
d="M332 826q-4 -55 20.5 -87t78.5 -32q50 0 82 31.5t41 87.5h19q-10 -64 -48 -100t-96 -36q-61 0 -90.5 37.5t-23.5 98.5h17zM319 -14q-120 0 -177 79.5t-30 225.5l57 309h21l-58 -313q-26 -135 26.5 -208.5t160.5 -73.5q106 0 174 69t90 194l58 332h21l-59 -333
q-24 -134 -97 -207.5t-187 -73.5z" />
    <glyph glyph-name="ubreve" unicode="&#x16d;" horiz-adv-x="518" 
d="M309 490q-61 0 -90.5 37.5t-23.5 98.5h17q-4 -55 20.5 -87t78.5 -32q50 0 82 31.5t41 87.5h19q-10 -64 -48 -100t-96 -36zM449 400h20l-70 -400h-20l19 107q-33 -54 -85 -86.5t-113 -32.5q-71 0 -104 48t-19 131l41 233h20l-40 -228q-14 -77 14.5 -121.5t92.5 -44.5
q73 0 133.5 55.5t74.5 133.5z" />
    <glyph glyph-name="Uring" unicode="&#x16e;" horiz-adv-x="687" 
d="M436 684q-41 0 -67.5 26t-26.5 66t26.5 66t67.5 26t67.5 -26t26.5 -66t-26.5 -66t-67.5 -26zM436 700q33 0 54.5 21.5t21.5 54.5t-21.5 54.5t-54.5 21.5t-54.5 -21.5t-21.5 -54.5t21.5 -54.5t54.5 -21.5zM325 -14q-121 0 -181 80t-32 227l57 307h21l-58 -311
q-27 -135 28.5 -209.5t166.5 -74.5q103 0 168.5 67.5t87.5 195.5l58 332h21l-59 -333q-23 -135 -93 -208t-185 -73z" />
    <glyph glyph-name="uring" unicode="&#x16f;" horiz-adv-x="518" 
d="M316 484q-41 0 -67.5 26t-26.5 66t26.5 66t67.5 26t67.5 -26t26.5 -66t-26.5 -66t-67.5 -26zM316 652q-33 0 -54.5 -21.5t-21.5 -54.5t21.5 -54.5t54.5 -21.5t54.5 21.5t21.5 54.5t-21.5 54.5t-54.5 21.5zM449 400h20l-70 -400h-20l19 107q-33 -54 -85 -86.5t-113 -32.5
q-71 0 -104 48t-19 131l41 233h20l-40 -228q-14 -77 14.5 -121.5t92.5 -44.5q73 0 133.5 55.5t74.5 133.5z" />
    <glyph glyph-name="Uhungarumlaut" unicode="&#x170;" horiz-adv-x="687" 
d="M287 700l-7 16l217 98l8 -16zM464 700l-7 16l217 98l8 -16zM319 -14q-120 0 -177 79.5t-30 225.5l57 309h21l-58 -313q-26 -135 26.5 -208.5t160.5 -73.5q106 0 174 69t90 194l58 332h21l-59 -333q-24 -134 -97 -207.5t-187 -73.5z" />
    <glyph glyph-name="uhungarumlaut" unicode="&#x171;" horiz-adv-x="518" 
d="M381 620l-175 -129l-10 13l174 130zM352 491l-11 13l175 130l11 -14zM413 195l36 205h20l-70 -400h-20l19 107q-33 -54 -85 -86.5t-113 -32.5q-71 0 -104 48t-19 131l41 233h20l-40 -228q-14 -77 14.5 -121.5t92.5 -44.5q73 0 133.5 55.5t74.5 133.5z" />
    <glyph glyph-name="Uogonek" unicode="&#x172;" horiz-adv-x="687" 
d="M641 600h21l-59 -333q-38 -222 -193 -269q-88 -56 -103 -130q-7 -38 15 -58t69 -20l-3 -17h-6q-51 0 -77 26.5t-18 68.5q12 67 83 121q-22 -3 -45 -3q-121 0 -181 80t-32 227l57 307h21l-58 -311q-27 -135 28.5 -209.5t166.5 -74.5q103 0 168.5 67.5t87.5 195.5z" />
    <glyph glyph-name="uogonek" unicode="&#x173;" horiz-adv-x="518" 
d="M399 0q-92 -59 -106 -132q-6 -36 16 -57t68 -21l-3 -17h-5q-50 0 -76 26.5t-19 68.5q14 74 106 136l18 103q-33 -54 -85 -86.5t-113 -32.5q-71 0 -104 48t-19 131l41 233h20l-40 -228q-14 -77 14.5 -121.5t92.5 -44.5q73 0 133.5 55.5t74.5 133.5l36 205h20z" />
    <glyph glyph-name="Wcircumflex" unicode="&#x174;" horiz-adv-x="926" 
d="M573 804l-152 -121l-10 13l165 132l117 -133l-14 -12zM902 604h23l-287 -604h-26l-83 576l-287 -576h-27l-72 604h21l69 -581l287 577h25l83 -578z" />
    <glyph glyph-name="wcircumflex" unicode="&#x175;" horiz-adv-x="752" 
d="M445 604l-152 -121l-10 13l165 132l117 -133l-14 -12zM723 400h22l-228 -400h-24l-85 381l-219 -381h-23l-89 400h21l82 -382l219 382h24l84 -382z" />
    <glyph glyph-name="Ycircumflex" unicode="&#x176;" horiz-adv-x="580" 
d="M401 804l-152 -121l-10 13l165 132l117 -133l-14 -12zM588 600h21q-26 -156 -104 -242.5t-191 -86.5h-3l-47 -271h-21l47 272q-111 8 -157.5 94t-20.5 234h21q-28 -147 20 -229t161 -82q105 0 176.5 81.5t97.5 229.5z" />
    <glyph glyph-name="ycircumflex" unicode="&#x177;" horiz-adv-x="518" 
d="M331 604l-152 -121l-10 13l165 132l117 -133l-14 -12zM449 400h19l-72 -416q-18 -102 -71.5 -158.5t-138.5 -56.5q-99 0 -144 59l15 12q44 -52 130 -52q75 0 123.5 50.5t65.5 144.5l20 115q-66 -110 -197 -110q-153 0 -120 188l39 224h20l-38 -219q-31 -175 104 -175
q73 0 129.5 45.5t75.5 120.5z" />
    <glyph glyph-name="Ydieresis" unicode="&#x178;" horiz-adv-x="580" 
d="M284 711q-9 0 -15 6t-6 16q0 21 21 21q22 0 22 -21q0 -22 -22 -22zM484 711q-9 0 -15 6t-6 16q0 21 21 21q22 0 22 -21q0 -22 -22 -22zM588 600h21q-26 -156 -104 -242.5t-191 -86.5h-3l-47 -271h-21l47 272q-111 8 -157.5 94t-20.5 234h21q-28 -147 20 -229t161 -82
q105 0 176.5 81.5t97.5 229.5z" />
    <glyph glyph-name="Zacute" unicode="&#x179;" horiz-adv-x="595" 
d="M514 798l-218 -98l-7 16l217 98zM610 583l-540 -548q-12 -12 -19 -18q22 1 64 1h396l-3 -18h-487l3 16l533 541q12 12 28 26q-30 -1 -75 -1h-380l3 18h481z" />
    <glyph glyph-name="zacute" unicode="&#x17a;" horiz-adv-x="439" 
d="M393 620l-175 -129l-11 13l175 130zM431 385l-346 -324q-39 -37 -48 -44h71h258l-3 -17h-354l2 15l341 321q11 9 30.5 26.5t22.5 20.5h-72h-253l2 17h351z" />
    <glyph glyph-name="Zdotaccent" unicode="&#x17b;" horiz-adv-x="595" 
d="M391 728q-21 0 -21 22q0 21 21 21q22 0 22 -21q0 -22 -22 -22zM610 583l-540 -548q-12 -12 -19 -18q22 1 64 1h396l-3 -18h-487l3 16l533 541q12 12 28 26q-30 -1 -75 -1h-380l3 18h481z" />
    <glyph glyph-name="zdotaccent" unicode="&#x17c;" horiz-adv-x="439" 
d="M290 548q-22 0 -22 22q0 21 22 21t22 -21q0 -22 -22 -22zM431 385l-346 -324q-39 -37 -48 -44h71h258l-3 -17h-354l2 15l341 321q11 9 30.5 26.5t22.5 20.5h-72h-253l2 17h351z" />
    <glyph glyph-name="Zcaron" unicode="&#x17d;" horiz-adv-x="595" 
d="M541 814l-165 -132l-117 133l14 11l106 -120l151 121zM610 583l-540 -548q-12 -12 -19 -18q22 1 64 1h396l-3 -18h-487l3 16l533 541q12 12 28 26q-30 -1 -75 -1h-380l3 18h481z" />
    <glyph glyph-name="zcaron" unicode="&#x17e;" horiz-adv-x="439" 
d="M436 614l-165 -132l-117 133l14 11l106 -120l151 121zM80 383l2 17h351l-2 -15l-346 -324q-39 -37 -48 -44h71h258l-3 -17h-354l2 15l341 321q11 9 30.5 26.5t22.5 20.5h-72h-253z" />
    <glyph glyph-name="longs" unicode="&#x17f;" horiz-adv-x="316" 
d="M78 0l84 477q20 117 76 174t151 57h34l-3 -19h-33q-86 0 -136 -51.5t-69 -159.5l-84 -478h-20z" />
    <glyph glyph-name="uni018F" unicode="&#x18f;" horiz-adv-x="710" 
d="M383 614q150 0 230.5 -97t54.5 -247q-21 -123 -115 -203t-219 -80q-131 0 -206.5 89t-56.5 226h581q11 129 -64 211t-206 82q-77 0 -144 -26.5t-113 -73.5l-11 14q49 49 119 77t150 28zM335 6q116 0 204.5 75t108.5 191q0 2 1 6t1 6h-559q-13 -122 56.5 -200t187.5 -78z
" />
    <glyph glyph-name="uni01CD" unicode="&#x1cd;" horiz-adv-x="632" 
d="M560 814l-165 -132l-117 133l14 11l106 -120l151 121zM373 600h24l150 -600h-23l-51 209h-311l-124 -209h-23zM173 227h295l-86 352z" />
    <glyph glyph-name="uni01CE" unicode="&#x1ce;" horiz-adv-x="523" 
d="M466 614l-165 -132l-117 133l14 11l106 -120l151 121zM455 400h20l-70 -400h-20l15 88q-29 -47 -75.5 -73.5t-101.5 -26.5q-89 0 -142 67t-35 165q16 82 75 136.5t143 54.5q67 0 112 -35t58 -95zM226 6q73 0 126 49.5t65 125.5q18 92 -24.5 152t-126.5 60
q-75 0 -130.5 -48.5t-69.5 -126.5q-16 -87 30 -149.5t130 -62.5z" />
    <glyph glyph-name="uni01CF" unicode="&#x1cf;" horiz-adv-x="283" 
d="M377 827l11 -13l-165 -132l-117 133l14 11l106 -120zM96 0l106 600h21l-106 -600h-21z" />
    <glyph glyph-name="uni01D0" unicode="&#x1d0;" horiz-adv-x="234" 
d="M291 627l12 -12l-138 -133l-89 133l14 11l79 -119zM72 0l70 400h20l-70 -400h-20z" />
    <glyph glyph-name="uni01D1" unicode="&#x1d1;" horiz-adv-x="738" 
d="M607 805l-165 -132l-117 133l14 11l106 -120l151 121zM409 614q152 0 233.5 -97t54.5 -247q-21 -123 -115.5 -203t-219.5 -80q-149 0 -229.5 97t-55.5 247q21 123 115 203t217 80zM676 272q25 140 -50.5 231.5t-217.5 91.5q-115 0 -203 -75.5t-107 -190.5
q-24 -140 51 -231.5t214 -91.5q117 0 205 75t108 191z" />
    <glyph glyph-name="uni01D2" unicode="&#x1d2;" horiz-adv-x="498" 
d="M460 614l-165 -132l-117 133l14 11l106 -120l151 121zM267 411q95 0 149 -65.5t36 -166.5q-16 -87 -77 -139t-144 -52q-95 0 -149 66.5t-36 165.5q16 82 76 136.5t145 54.5zM432 181q17 92 -31 152t-135 60q-75 0 -130.5 -48.5t-69.5 -126.5q-17 -89 30.5 -150.5
t135.5 -61.5q75 0 130 47.5t70 127.5z" />
    <glyph glyph-name="uni01D3" unicode="&#x1d3;" horiz-adv-x="687" 
d="M591 814l-165 -132l-117 133l14 11l106 -120l151 121zM641 600h21l-59 -333q-24 -134 -97 -207.5t-187 -73.5q-120 0 -177 79.5t-30 225.5l57 309h21l-58 -313q-26 -135 26.5 -208.5t160.5 -73.5q106 0 174 69t90 194z" />
    <glyph glyph-name="uni01D4" unicode="&#x1d4;" horiz-adv-x="518" 
d="M471 614l-165 -132l-117 133l14 11l106 -120l151 121zM413 195l36 205h20l-70 -400h-20l19 107q-33 -54 -85 -86.5t-113 -32.5q-71 0 -104 48t-19 131l41 233h20l-40 -228q-14 -77 14.5 -121.5t92.5 -44.5q73 0 133.5 55.5t74.5 133.5z" />
    <glyph glyph-name="uni01D5" unicode="&#x1d5;" horiz-adv-x="687" 
d="M606 860h-300l4 17h300zM333 716q-21 0 -21 22q0 21 21 21q22 0 22 -21q0 -22 -22 -22zM533 716q-21 0 -21 22q0 21 21 21q22 0 22 -21q0 -22 -22 -22zM325 -14q-121 0 -181 80t-32 227l57 307h21l-58 -311q-27 -135 28.5 -209.5t166.5 -74.5q103 0 168.5 67.5
t87.5 195.5l58 332h21l-59 -333q-23 -135 -93 -208t-185 -73z" />
    <glyph glyph-name="uni01D6" unicode="&#x1d6;" horiz-adv-x="518" 
d="M190 677h300l-4 -17h-300zM235 538q0 -22 -22 -22q-21 0 -21 22q0 21 21 21q22 0 22 -21zM435 538q0 -22 -22 -22q-21 0 -21 22q0 21 21 21q22 0 22 -21zM413 195l36 205h20l-70 -400h-20l19 107q-33 -54 -85 -86.5t-113 -32.5q-71 0 -104 48t-19 131l41 233h20l-40 -228
q-14 -77 14.5 -121.5t92.5 -44.5q73 0 133.5 55.5t74.5 133.5z" />
    <glyph glyph-name="uni01D7" unicode="&#x1d7;" horiz-adv-x="687" 
d="M347 824l-7 16l216 98l9 -16zM333 716q-21 0 -21 22q0 21 21 21q22 0 22 -21q0 -22 -22 -22zM533 716q-21 0 -21 22q0 21 21 21q22 0 22 -21q0 -22 -22 -22zM325 -14q-121 0 -181 80t-32 227l57 307h21l-58 -311q-27 -135 28.5 -209.5t166.5 -74.5q103 0 168.5 67.5
t87.5 195.5l58 332h21l-59 -333q-23 -135 -93 -208t-185 -73z" />
    <glyph glyph-name="uni01D8" unicode="&#x1d8;" horiz-adv-x="518" 
d="M445 722l-218 -98l-7 16l216 98zM213 516q-21 0 -21 22q0 21 21 21q22 0 22 -21q0 -22 -22 -22zM392 538q0 21 21 21q22 0 22 -21q0 -22 -22 -22q-21 0 -21 22zM449 400h20l-70 -400h-20l19 107q-33 -54 -85 -86.5t-113 -32.5q-71 0 -104 48t-19 131l41 233h20l-40 -228
q-14 -77 14.5 -121.5t92.5 -44.5q73 0 133.5 55.5t74.5 133.5z" />
    <glyph glyph-name="uni01D9" unicode="&#x1d9;" horiz-adv-x="687" 
d="M613 945l-165 -132l-117 133l14 12l106 -121l152 121zM334 716q-21 0 -21 22q0 21 21 21q22 0 22 -21q0 -22 -22 -22zM513 738q0 21 21 21q22 0 22 -21q0 -22 -22 -22q-21 0 -21 22zM641 600h21l-59 -333q-23 -135 -93 -208t-185 -73q-121 0 -181 80t-32 227l57 307h21
l-58 -311q-27 -135 28.5 -209.5t166.5 -74.5q103 0 168.5 67.5t87.5 195.5z" />
    <glyph glyph-name="uni01DA" unicode="&#x1da;" horiz-adv-x="518" 
d="M493 745l-165 -132l-117 133l14 12l106 -121l152 121zM214 516q-21 0 -21 22q0 21 21 21q22 0 22 -21q0 -22 -22 -22zM393 538q0 21 21 21q22 0 22 -21q0 -22 -22 -22q-21 0 -21 22zM413 195l36 205h20l-70 -400h-20l19 107q-33 -54 -85 -86.5t-113 -32.5q-71 0 -104 48
t-19 131l41 233h20l-40 -228q-14 -77 14.5 -121.5t92.5 -44.5q73 0 133.5 55.5t74.5 133.5z" />
    <glyph glyph-name="uni01DB" unicode="&#x1db;" horiz-adv-x="687" 
d="M546 807l-202 97l9 16l202 -98zM334 716q-21 0 -21 22q0 21 21 21q22 0 22 -21q0 -22 -22 -22zM534 716q-21 0 -21 22q0 21 21 21q22 0 22 -21q0 -22 -22 -22zM325 -14q-121 0 -181 80t-32 227l57 307h21l-58 -311q-27 -135 28.5 -209.5t166.5 -74.5q103 0 168.5 67.5
t87.5 195.5l58 332h21l-59 -333q-23 -135 -93 -208t-185 -73z" />
    <glyph glyph-name="uni01DC" unicode="&#x1dc;" horiz-adv-x="518" 
d="M435 622l-9 -15l-202 97l9 16zM214 516q-21 0 -21 22q0 21 21 21q22 0 22 -21q0 -22 -22 -22zM414 559q22 0 22 -21q0 -22 -22 -22q-21 0 -21 22q0 21 21 21zM449 400h20l-70 -400h-20l19 107q-33 -54 -85 -86.5t-113 -32.5q-71 0 -104 48t-19 131l41 233h20l-40 -228
q-14 -77 14.5 -121.5t92.5 -44.5q73 0 133.5 55.5t74.5 133.5z" />
    <glyph glyph-name="uni01E2" unicode="&#x1e2;" horiz-adv-x="846" 
d="M772 752l-3 -17h-300l3 17h300zM863 581h-386l6 -264h313l-4 -18h-309l6 -280h284l-3 -19h-302l-4 209h-286l-158 -209h-25l455 600h416zM191 227h273l-6 353z" />
    <glyph glyph-name="uni01E3" unicode="&#x1e3;" horiz-adv-x="820" 
d="M636 552l-3 -17h-300l3 17h300zM632 411q76 0 116.5 -53t25.5 -136q0 -3 -2 -13h-339q-1 -2 -1 -5.5t-1 -4.5q-13 -80 31.5 -136.5t123.5 -56.5q76 0 137 52l11 -14q-69 -56 -150 -56q-64 0 -109.5 36t-58.5 95l-21 -119h-19l17 95q-28 -50 -73 -78.5t-100 -28.5
q-87 0 -139.5 67t-34.5 165q16 82 74 136.5t142 54.5q65 0 108.5 -34t56.5 -92l19 115h19l-18 -101q30 52 78.5 82t106.5 30zM221 6q73 0 124 51.5t66 133.5q16 87 -25 144.5t-124 57.5q-75 0 -128.5 -48.5t-67.5 -126.5q-15 -86 29 -149t126 -63zM631 393q-68 0 -121.5 -45
t-72.5 -121l319 1q10 72 -25.5 118.5t-99.5 46.5z" />
    <glyph glyph-name="Gcaron" unicode="&#x1e6;" horiz-adv-x="737" 
d="M605 814l-165 -132l-117 133l14 11l106 -120l151 121zM381 311h320q0 -8 -1 -14q-18 -138 -112 -224t-228 -86q-148 0 -229 99.5t-54 244.5q24 128 118.5 205.5t225.5 77.5q149 0 232 -88l-17 -13q-77 82 -217 82q-121 0 -210 -72.5t-112 -193.5q-25 -136 50.5 -229.5
t213.5 -93.5q125 0 212.5 79.5t105.5 207.5h-301z" />
    <glyph glyph-name="gcaron" unicode="&#x1e7;" horiz-adv-x="523" 
d="M466 614l-165 -132l-117 133l14 11l106 -120l151 121zM455 400h20l-73 -417q-18 -103 -79 -158.5t-153 -55.5q-94 0 -144 50l14 13q47 -45 131 -45q85 0 140 51.5t71 144.5l18 105q-29 -46 -75.5 -73t-101.5 -27q-89 0 -142 67t-35 165q16 82 75 136.5t143 54.5
q67 0 112 -34.5t59 -93.5zM224 6q74 0 127.5 49t65.5 126q18 92 -24.5 152t-126.5 60q-75 0 -130.5 -48.5t-70.5 -126.5q-15 -86 30.5 -149t128.5 -63z" />
    <glyph glyph-name="uni01E8" unicode="&#x1e8;" horiz-adv-x="635" 
d="M574 814l-165 -132l-117 133l14 11l106 -120l151 121zM347 308q110 -23 162 -105t31 -203h-21q24 135 -46 217t-209 82h-122l-53 -299h-21l106 600h21l-50 -283h121q129 0 228.5 80.5t121.5 202.5h21q-19 -109 -98.5 -189t-191.5 -103z" />
    <glyph glyph-name="uni01E9" unicode="&#x1e9;" horiz-adv-x="489" 
d="M345 793l-165 -132l-117 133l14 11l106 -120l151 121zM459 410q-13 -80 -71.5 -134t-146.5 -71q83 -14 122 -68t24 -137h-20q16 90 -33.5 142.5t-148.5 52.5h-74l-34 -195h-20l105 600h20l-68 -387h52q107 0 182 54.5t91 142.5h20z" />
    <glyph glyph-name="uni01EA" unicode="&#x1ea;" horiz-adv-x="738" 
d="M409 614q152 0 233.5 -97t54.5 -247q-17 -99 -83 -172t-161 -99q-88 -54 -103 -130q-7 -38 15 -58t69 -20l-3 -17h-6q-51 0 -77 26.5t-18 68.5q12 66 84 122q-23 -4 -52 -4q-149 0 -229.5 97t-55.5 247q21 123 115 203t217 80zM676 272q25 140 -50.5 231.5t-217.5 91.5
q-115 0 -203 -75.5t-107 -190.5q-24 -140 51 -231.5t214 -91.5q117 0 205 75t108 191z" />
    <glyph glyph-name="uni01EB" unicode="&#x1eb;" horiz-adv-x="498" 
d="M267 411q95 0 149 -65.5t36 -166.5q-11 -61 -45.5 -105.5t-84.5 -66.5q-87 -57 -101 -129q-6 -36 16 -57t68 -21l-3 -17h-5q-50 0 -76 26.5t-19 68.5q10 59 78 115q-27 -5 -49 -5q-95 0 -149 66.5t-36 165.5q16 82 76 136.5t145 54.5zM432 181q17 92 -31 152t-135 60
q-75 0 -130.5 -48.5t-69.5 -126.5q-17 -89 30.5 -150.5t135.5 -61.5q75 0 130 47.5t70 127.5z" />
    <glyph glyph-name="AEacute" unicode="&#x1fc;" horiz-adv-x="846" 
d="M744 798l-218 -98l-7 16l217 98zM863 581h-386l6 -264h313l-4 -18h-309l6 -280h284l-3 -19h-302l-4 209h-286l-158 -209h-25l455 600h416zM191 227h273l-6 353z" />
    <glyph glyph-name="aeacute" unicode="&#x1fd;" horiz-adv-x="820" 
d="M592 620l-175 -129l-11 13l175 130zM632 411q76 0 116.5 -53t25.5 -136q0 -3 -2 -13h-339q-1 -2 -1 -5.5t-1 -4.5q-13 -80 31.5 -136.5t123.5 -56.5q76 0 137 52l11 -14q-69 -56 -150 -56q-64 0 -109.5 36t-58.5 95l-21 -119h-19l17 95q-28 -50 -73 -78.5t-100 -28.5
q-87 0 -139.5 67t-34.5 165q16 82 74 136.5t142 54.5q65 0 108.5 -34t56.5 -92l19 115h19l-18 -101q30 52 78.5 82t106.5 30zM221 6q73 0 124 51.5t66 133.5q16 87 -25 144.5t-124 57.5q-75 0 -128.5 -48.5t-67.5 -126.5q-15 -86 29 -149t126 -63zM631 393q-68 0 -121.5 -45
t-72.5 -121l319 1q10 72 -25.5 118.5t-99.5 46.5z" />
    <glyph glyph-name="Oslashacute" unicode="&#x1fe;" horiz-adv-x="738" 
d="M589 798l-218 -98l-7 16l217 98zM729 595l-99 -83q77 -98 50 -242q-20 -123 -115 -203t-220 -80q-147 0 -228 94l-106 -89l-11 13l107 90q-71 95 -47 236q21 123 115 203t218 80q145 0 226 -89l99 83zM80 329q-22 -131 42 -221l481 404q-74 84 -211 84
q-115 0 -203.5 -75.5t-108.5 -191.5zM660 272q24 138 -46 227l-481 -405q75 -89 213 -89q118 0 206 75.5t108 191.5z" />
    <glyph glyph-name="oslashacute" unicode="&#x1ff;" horiz-adv-x="498" 
d="M417 620l-175 -129l-11 13l175 130zM493 396l-71 -59q48 -66 30 -158q-16 -87 -77 -139t-144 -52q-94 0 -149 66l-76 -63l-10 13l77 64q-43 64 -27 152q16 82 76 136.5t145 54.5q91 0 146 -61l70 58zM65 218q-15 -79 22 -138l311 258q-48 56 -132 56q-76 0 -131.5 -49
t-69.5 -127zM433 181q16 85 -25 144l-311 -258q48 -61 135 -61q75 0 130.5 47.5t70.5 127.5z" />
    <glyph glyph-name="Scommaaccent" unicode="&#x218;" horiz-adv-x="600" 
d="M287 -13q-88 0 -151.5 34.5t-91.5 96.5l16 10q26 -58 85 -90t141 -32q84 0 147.5 37.5t75.5 101.5q3 19 0 35.5t-13.5 30t-21.5 24.5t-30 20t-31.5 15t-33.5 12t-29.5 8.5t-25.5 6.5q-31 7 -53.5 14t-55 22t-51.5 33t-30 47.5t-3 64.5q16 68 79.5 102t146.5 34
q81 0 140.5 -34t83.5 -88l-16 -11q-24 50 -78 82t-131 32q-79 0 -135.5 -31.5t-69.5 -87.5q-7 -30 2.5 -55.5t26.5 -41t47 -29.5t51.5 -20.5t52.5 -14.5q33 -9 53 -15t54.5 -21t53 -31.5t30.5 -43.5t6 -60q-14 -72 -82.5 -114.5t-158.5 -42.5zM215 -224l-17 6l64 163l20 -6z
" />
    <glyph glyph-name="scommaaccent" unicode="&#x219;" horiz-adv-x="398" 
d="M166 -12q-86 0 -139 60l14 11q49 -54 127 -54q53 0 87.5 23.5t42.5 59.5q8 41 -19.5 65.5t-78.5 44.5q-28 11 -45.5 20t-36 23.5t-25.5 34.5t-2 46q8 44 49.5 67.5t95.5 23.5q82 0 117 -51l-15 -10q-35 44 -103 44q-53 0 -86 -22.5t-39 -55.5q-4 -22 3 -39t25 -29.5
t31.5 -19t36.5 -15.5q12 -5 20 -8t21.5 -9.5t21 -11.5t18.5 -13.5t15.5 -16.5t11 -19.5t5 -23t-2.5 -27.5q-10 -46 -50.5 -72t-99.5 -26zM122 -224l-16 4l64 164l19 -5z" />
    <glyph glyph-name="uni021A" unicode="&#x21a;" horiz-adv-x="593" 
d="M639 600l-3 -19h-261l-103 -581h-21l103 581h-261l3 19h543zM195 -218l64 163l20 -6l-67 -163z" />
    <glyph glyph-name="uni021B" unicode="&#x21b;" horiz-adv-x="394" 
d="M164 373l-41 -230q-12 -66 13 -101.5t82 -35.5q65 0 113 51l12 -11q-52 -58 -129 -58q-64 0 -94 40.5t-17 113.5l41 231h-76l2 18h77l16 91h20l-16 -91h207l-2 -18h-208zM133 -220l64 164l19 -5l-67 -163z" />
    <glyph glyph-name="uni0232" unicode="&#x232;" horiz-adv-x="580" 
d="M538 752l-3 -17h-300l3 17h300zM588 600h21q-26 -156 -104 -242.5t-191 -86.5h-3l-47 -271h-21l47 272q-111 8 -157.5 94t-20.5 234h21q-28 -147 20 -229t161 -82q105 0 176.5 81.5t97.5 229.5z" />
    <glyph glyph-name="uni0233" unicode="&#x233;" horiz-adv-x="518" 
d="M468 552l-3 -17h-300l3 17h300zM409 172l40 228h19l-72 -416q-18 -102 -71.5 -158.5t-138.5 -56.5q-99 0 -144 59l15 12q44 -52 130 -52q75 0 123.5 50.5t65.5 144.5l20 115q-66 -110 -197 -110q-153 0 -120 188l39 224h20l-38 -219q-31 -175 104 -175q73 0 129.5 45.5
t75.5 120.5z" />
    <glyph glyph-name="uni0237" unicode="&#x237;" horiz-adv-x="234" 
d="M33 -220l109 620h20l-109 -620h-20z" />
    <glyph glyph-name="uni0259" unicode="&#x259;" horiz-adv-x="486" 
d="M248 412q95 0 149.5 -66t39.5 -160q-15 -87 -79 -142t-151 -55q-86 0 -132 53t-30 136q0 6 3 13h369q14 84 -34.5 143.5t-135.5 59.5q-84 0 -150 -57l-12 14q74 61 163 61zM207 7q74 0 131.5 45t75.5 121l-350 -1q-12 -72 28.5 -118.5t114.5 -46.5z" />
    <glyph glyph-name="circumflex" unicode="&#x2c6;" horiz-adv-x="383" 
d="M384 495l-14 -12l-106 121l-152 -121l-10 13l165 132z" />
    <glyph glyph-name="caron" unicode="&#x2c7;" horiz-adv-x="382" 
d="M394 627l11 -13l-165 -132l-117 133l14 11l106 -120z" />
    <glyph glyph-name="breve" unicode="&#x2d8;" horiz-adv-x="358" 
d="M142 626q-4 -55 20.5 -87t78.5 -32q50 0 82 31.5t41 87.5h19q-10 -64 -48 -100t-96 -36q-61 0 -90.5 37.5t-23.5 98.5h17z" />
    <glyph glyph-name="dotaccent" unicode="&#x2d9;" horiz-adv-x="145" 
d="M140 548q-22 0 -22 22q0 21 22 21t22 -21q0 -22 -22 -22z" />
    <glyph glyph-name="ring" unicode="&#x2da;" horiz-adv-x="291" 
d="M212 484q-41 0 -67.5 26t-26.5 66t26.5 66t67.5 26t67.5 -26t26.5 -66t-26.5 -66t-67.5 -26zM212 500q33 0 54.5 21.5t21.5 54.5t-21.5 54.5t-54.5 21.5t-54.5 -21.5t-21.5 -54.5t21.5 -54.5t54.5 -21.5z" />
    <glyph glyph-name="ogonek" unicode="&#x2db;" horiz-adv-x="218" 
d="M86 -227q-50 0 -76 26.5t-19 68.5q13 75 110 139l15 -7q-92 -59 -106 -132q-6 -36 16 -57t68 -21l-3 -17h-5z" />
    <glyph glyph-name="tilde" unicode="&#x2dc;" horiz-adv-x="385" 
d="M295 498q-35 0 -73 46q-2 2 -5.5 6t-5.5 6.5t-5.5 6l-6 6t-6.5 5.5t-7.5 4.5t-7.5 3t-8.5 2.5t-9.5 1q-27 0 -45.5 -23.5t-18.5 -60.5h-17q0 44 23.5 72.5t57.5 28.5q36 0 72 -45q13 -15 19 -21.5t18.5 -13.5t26.5 -7q28 0 45.5 23.5t17.5 60.5h18q0 -44 -23.5 -72.5
t-58.5 -28.5z" />
    <glyph glyph-name="hungarumlaut" unicode="&#x2dd;" horiz-adv-x="426" 
d="M140 491l-10 13l174 130l11 -14zM286 491l-11 13l175 130l11 -14z" />
    <glyph glyph-name="gravecomb" unicode="&#x300;" horiz-adv-x="0" 
d="M-23 491l-130 129l14 14l129 -130z" />
    <glyph glyph-name="acutecomb" unicode="&#x301;" horiz-adv-x="0" 
d="M-157 491l-11 13l175 130l11 -14z" />
    <glyph glyph-name="uni0302" unicode="&#x302;" horiz-adv-x="0" 
d="M12 495l-14 -12l-106 121l-152 -121l-10 13l165 132z" />
    <glyph glyph-name="tildecomb" unicode="&#x303;" horiz-adv-x="0" 
d="M-77 498q-35 0 -73 46q-2 2 -5.5 6t-5.5 6.5t-5.5 6l-6 6t-6.5 5.5t-7.5 4.5t-7.5 3t-8.5 2.5t-9.5 1q-27 0 -45.5 -23.5t-18.5 -60.5h-17q0 44 23.5 72.5t57.5 28.5q36 0 72 -45q13 -15 19 -21.5t18.5 -13.5t26.5 -7q28 0 45.5 23.5t17.5 60.5h18q0 -44 -23.5 -72.5
t-58.5 -28.5z" />
    <glyph glyph-name="uni0304" unicode="&#x304;" horiz-adv-x="0" 
d="M30 535h-300l3 17h300z" />
    <glyph glyph-name="uni0306" unicode="&#x306;" horiz-adv-x="0" 
d="M-224 626q-4 -55 20.5 -87t78.5 -32q50 0 82 31.5t41 87.5h19q-10 -64 -48 -100t-96 -36q-61 0 -90.5 37.5t-23.5 98.5h17z" />
    <glyph glyph-name="uni0307" unicode="&#x307;" horiz-adv-x="0" 
d="M-56 548q-22 0 -22 22q0 21 22 21t22 -21q0 -22 -22 -22z" />
    <glyph glyph-name="uni0308" unicode="&#x308;" horiz-adv-x="0" 
d="M-257 548q-22 0 -22 22q0 9 6 15t16 6t16 -6t6 -15q0 -22 -22 -22zM-57 548q-22 0 -22 22q0 9 6 15t16 6t16 -6t6 -15q0 -22 -22 -22z" />
    <glyph glyph-name="uni030A" unicode="&#x30a;" horiz-adv-x="0" 
d="M-101 484q-41 0 -67.5 26t-26.5 66t26.5 66t67.5 26t67.5 -26t26.5 -66t-26.5 -66t-67.5 -26zM-101 500q33 0 54.5 21.5t21.5 54.5t-21.5 54.5t-54.5 21.5t-54.5 -21.5t-21.5 -54.5t21.5 -54.5t54.5 -21.5z" />
    <glyph glyph-name="uni030B" unicode="&#x30b;" horiz-adv-x="0" 
d="M-260 491l-10 13l174 130l11 -14zM-114 491l-11 13l175 130l11 -14z" />
    <glyph glyph-name="uni030C" unicode="&#x30c;" horiz-adv-x="0" 
d="M23 627l11 -13l-165 -132l-117 133l14 11l106 -120z" />
    <glyph glyph-name="uni0312" unicode="&#x312;" horiz-adv-x="0" 
d="M-10 679l16 -6l-74 -192l-19 6z" />
    <glyph glyph-name="uni0326" unicode="&#x326;" horiz-adv-x="0" 
d="M-232 -224l-16 4l64 164l19 -5z" />
    <glyph glyph-name="uni0327" unicode="&#x327;" horiz-adv-x="0" 
d="M-165 -220h-18l24 137h19z" />
    <glyph glyph-name="uni0328" unicode="&#x328;" horiz-adv-x="0" 
d="M-129 -227q-50 0 -76 26.5t-19 68.5q13 75 110 139l15 -7q-92 -59 -106 -132q-6 -36 16 -57t68 -21l-3 -17h-5z" />
    <glyph glyph-name="uni0335" unicode="&#x335;" horiz-adv-x="0" 
d="M-41 191h-281l3 18h282z" />
    <glyph glyph-name="uni0336" unicode="&#x336;" horiz-adv-x="0" 
d="M-60 191h-330l4 18h330z" />
    <glyph glyph-name="uni0337" unicode="&#x337;" horiz-adv-x="0" 
d="M-43 337l-286 -172l-8 14l285 172z" />
    <glyph glyph-name="uni0338" unicode="&#x338;" horiz-adv-x="0" 
d="M70 397l-473 -391l-11 12l473 390z" />
    <glyph glyph-name="uni037E" unicode="&#x37e;" horiz-adv-x="249" 
d="M150 281q-22 0 -22 22q0 21 22 21q21 0 21 -21q0 -10 -6 -16t-15 -6zM34 -159l-17 7l97 255l19 -7z" />
    <glyph glyph-name="tonos" unicode="&#x384;" horiz-adv-x="217" 
d="M155 481l-17 5l65 155l17 -5z" />
    <glyph glyph-name="dieresistonos" unicode="&#x385;" horiz-adv-x="277" 
d="M204 555l-17 5l65 155l17 -5zM121 480q-9 0 -15 6t-6 16q0 20 21 20q22 0 22 -20q0 -22 -22 -22zM255 480q-21 0 -21 22q0 20 21 20t21 -20q0 -10 -6 -16t-15 -6z" />
    <glyph glyph-name="Alphatonos" unicode="&#x386;" horiz-adv-x="632" 
d="M524 0l-51 209h-311l-124 -209h-23l358 600h24l150 -600h-23zM182 600l-70 -200h-18l69 200h19zM173 227h295l-86 352z" />
    <glyph glyph-name="anoteleia" unicode="&#x387;" horiz-adv-x="248" 
d="M156 358q-22 0 -22 22q0 21 22 21q21 0 21 -21q0 -10 -6 -16t-15 -6z" />
    <glyph glyph-name="Epsilontonos" unicode="&#x388;" horiz-adv-x="643" 
d="M116 600h19l-70 -200h-18zM652 581h-397l-47 -264h377l-3 -18h-377l-50 -280h408l-4 -19h-428l106 600h418z" />
    <glyph glyph-name="Etatonos" unicode="&#x389;" horiz-adv-x="757" 
d="M117 600h19l-70 -200h-18zM704 600h21l-106 -600h-21l53 299h-445l-53 -299h-21l106 600h21l-50 -283h445z" />
    <glyph glyph-name="Iotatonos" unicode="&#x38a;" horiz-adv-x="338" 
d="M75 400h-18l69 200h19zM151 0l106 600h21l-106 -600h-21z" />
    <glyph glyph-name="Omicrontonos" unicode="&#x38c;" horiz-adv-x="801" 
d="M424 -13q-149 0 -229.5 97t-55.5 247q21 123 115 203t217 80q152 0 233.5 -97t54.5 -247q-21 -123 -115.5 -203t-219.5 -80zM66 400h-18l69 200h19zM425 6q117 0 205 75t108 191q25 140 -50.5 231.5t-217.5 91.5q-115 0 -203 -75.5t-107 -190.5q-24 -140 51 -231.5
t214 -91.5z" />
    <glyph glyph-name="Upsilontonos" unicode="&#x38e;" horiz-adv-x="688" 
d="M39 400l69 200h19l-70 -200h-18zM704 600h24l-332 -420l-31 -180h-21l31 180h1l-179 420h22l170 -402z" />
    <glyph glyph-name="Omegatonos" unicode="&#x38f;" horiz-adv-x="766" 
d="M744 303q-16 -91 -77 -166t-152 -119l189 1l-3 -19h-237l3 18q99 36 169 114t88 173q23 124 -48 207t-203 83q-119 0 -202 -70.5t-104 -181.5q-19 -100 21.5 -190t129.5 -135l-2 -18h-237l3 19l199 -1q-79 49 -115.5 139.5t-19.5 188.5q21 118 111.5 193t215.5 75
q141 0 218 -89t53 -222zM119 600h19l-70 -200h-18z" />
    <glyph glyph-name="iotadieresistonos" unicode="&#x390;" horiz-adv-x="260" 
d="M182 555l-17 5l65 155l17 -5zM99 480q-9 0 -15 6t-6 16q0 20 21 20q22 0 22 -20q0 -22 -22 -22zM233 480q-21 0 -21 22q0 20 21 20t21 -20q0 -10 -6 -16t-15 -6zM173 -6q-50 0 -72 25.5t-13 72.5l54 308h20l-54 -306q-7 -42 9.5 -61.5t58.5 -19.5z" />
    <glyph glyph-name="Alpha" unicode="&#x391;" horiz-adv-x="632" 
d="M524 0l-51 209h-311l-124 -209h-23l358 600h24l150 -600h-23zM173 227h295l-86 352z" />
    <glyph glyph-name="Beta" unicode="&#x392;" horiz-adv-x="653" 
d="M604 446q-10 -50 -49 -86.5t-94 -50.5q70 -13 104 -56t24 -106q-12 -67 -66.5 -107t-141.5 -40h-304l106 600h254q89 0 134.5 -43.5t32.5 -110.5zM401 316q66 0 118 36.5t64 93.5q12 59 -28 97.5t-122 38.5h-233l-47 -266h248zM570 150q11 67 -35 107.5t-135 40.5h-249
l-50 -280h281q77 0 127 36t61 96z" />
    <glyph glyph-name="Gamma" unicode="&#x393;" horiz-adv-x="518" 
d="M564 600l-3 -19h-369l-103 -581h-21l106 600h390z" />
    <glyph glyph-name="uni0394" unicode="&#x394;" horiz-adv-x="652" 
d="M410 600l157 -600h-552l371 600h24zM50 19h490l-145 563z" />
    <glyph glyph-name="Epsilon" unicode="&#x395;" horiz-adv-x="580" 
d="M589 581h-397l-47 -264h377l-3 -18h-377l-50 -280h408l-4 -19h-428l106 600h418z" />
    <glyph glyph-name="Zeta" unicode="&#x396;" horiz-adv-x="595" 
d="M610 583l-540 -548q-12 -12 -19 -18q22 1 64 1h396l-3 -18h-487l3 16l533 541q12 12 28 26q-30 -1 -75 -1h-380l3 18h481z" />
    <glyph glyph-name="Eta" unicode="&#x397;" horiz-adv-x="693" 
d="M640 600h21l-106 -600h-21l53 299h-445l-53 -299h-21l106 600h21l-50 -283h445z" />
    <glyph glyph-name="Theta" unicode="&#x398;" horiz-adv-x="738" 
d="M409 614q152 0 233.5 -97t54.5 -247q-21 -123 -115.5 -203t-219.5 -80q-149 0 -229.5 97t-55.5 247q21 123 115 203t217 80zM408 595q-115 0 -203 -75.5t-107 -190.5l-3 -19h586q9 126 -66.5 205.5t-206.5 79.5zM363 6q117 0 205 75t108 191l3 20h-586q-9 -126 66 -206
t204 -80z" />
    <glyph glyph-name="Iota" unicode="&#x399;" horiz-adv-x="283" 
d="M96 0l106 600h21l-106 -600h-21z" />
    <glyph glyph-name="Kappa" unicode="&#x39a;" horiz-adv-x="635" 
d="M347 308q110 -23 162 -105t31 -203h-21q24 135 -46 217t-209 82h-122l-53 -299h-21l106 600h21l-50 -283h121q129 0 228.5 80.5t121.5 202.5h21q-19 -109 -98.5 -189t-191.5 -103z" />
    <glyph glyph-name="Lambda" unicode="&#x39b;" horiz-adv-x="632" 
d="M546 0h-22l-140 580l-347 -580h-23l361 600h24z" />
    <glyph glyph-name="Mu" unicode="&#x39c;" horiz-adv-x="826" 
d="M728 600h26l-66 -600h-20l62 572l-329 -492h-18l-155 494l-140 -574h-20l146 600h26l156 -494z" />
    <glyph glyph-name="Nu" unicode="&#x39d;" horiz-adv-x="683" 
d="M630 600h21l-106 -600h-22l-334 571l-101 -571h-20l106 600h22l334 -572z" />
    <glyph glyph-name="Xi" unicode="&#x39e;" horiz-adv-x="630" 
d="M170 581l4 19h424l-3 -19h-425zM119 291l4 18h424l-4 -18h-424zM68 0l3 19h424l-3 -19h-424z" />
    <glyph glyph-name="Omicron" unicode="&#x39f;" horiz-adv-x="738" 
d="M362 -13q-149 0 -229.5 97t-55.5 247q21 123 115 203t217 80q152 0 233.5 -97t54.5 -247q-21 -123 -115.5 -203t-219.5 -80zM363 6q117 0 205 75t108 191q25 140 -50.5 231.5t-217.5 91.5q-115 0 -203 -75.5t-107 -190.5q-24 -140 51 -231.5t214 -91.5z" />
    <glyph glyph-name="Pi" unicode="&#x3a0;" horiz-adv-x="692" 
d="M660 600l-106 -600h-21l103 581h-444l-103 -581h-21l106 600h486z" />
    <glyph glyph-name="Rho" unicode="&#x3a1;" horiz-adv-x="578" 
d="M286 212h-160l-37 -212h-21l106 600h174q112 0 169 -55.5t38 -151.5q-17 -87 -86.5 -134t-182.5 -47zM344 581h-153l-62 -351h159q104 0 168 44.5t79 121.5q16 87 -35.5 136t-155.5 49z" />
    <glyph glyph-name="Sigma" unicode="&#x3a3;" horiz-adv-x="581" 
d="M614 582h-444q-14 -116 56 -190t196 -75h10l-4 -18h-10q-137 -2 -229 -75.5t-120 -205.5h445l-2 -18h-467q22 129 101.5 209.5t201.5 99.5q-106 21 -160.5 101t-35.5 190h466z" />
    <glyph glyph-name="Tau" unicode="&#x3a4;" horiz-adv-x="593" 
d="M639 600l-3 -19h-261l-103 -581h-21l103 581h-261l3 19h543z" />
    <glyph glyph-name="Upsilon" unicode="&#x3a5;" horiz-adv-x="632" 
d="M629 600h24l-332 -420l-31 -180h-21l31 180h1l-179 420h22l170 -402z" />
    <glyph glyph-name="Phi" unicode="&#x3a6;" horiz-adv-x="779" 
d="M470 603q143 -12 219 -106.5t48 -226.5q-25 -120 -123 -196.5t-236 -76.5h-15l-17 -97h-21l17 98q-143 12 -218 107.5t-47 225.5q24 120 122 196.5t236 76.5h14l17 96h21zM97 329q-26 -123 45 -212t204 -100l100 568h-13q-127 0 -219.5 -71t-116.5 -185zM717 272
q26 124 -46 212.5t-205 99.5l-100 -568h13q129 0 221.5 71.5t116.5 184.5z" />
    <glyph glyph-name="Chi" unicode="&#x3a7;" horiz-adv-x="654" 
d="M413 306q86 -26 123 -106.5t15 -199.5h-22q25 136 -27 217.5t-165 81.5q-105 0 -182 -81.5t-100 -217.5h-22q22 125 87.5 207.5t158.5 102.5q-87 24 -124.5 100.5t-15.5 189.5h22q-25 -130 29 -206.5t166 -76.5q104 0 180.5 77.5t98.5 205.5h22q-21 -119 -86 -197
t-158 -97z" />
    <glyph glyph-name="Psi" unicode="&#x3a8;" horiz-adv-x="760" 
d="M739 600h20l-21 -118q-28 -148 -123.5 -233.5t-230.5 -85.5l-29 -163h-21l29 164q-131 7 -199 95t-43 223l22 118h20l-21 -118q-24 -130 39 -211.5t185 -87.5l74 417h21l-74 -418q124 1 214.5 81t115.5 219z" />
    <glyph glyph-name="uni03A9" unicode="&#x3a9;" horiz-adv-x="720" 
d="M679 303q-16 -91 -77 -166t-152 -119l189 1l-3 -19h-237l3 18q99 36 169 114t88 173q23 124 -48 207t-203 83q-119 0 -202 -70.5t-104 -181.5q-19 -100 21.5 -190t129.5 -135l-2 -18h-237l3 19l199 -1q-79 49 -115.5 139.5t-19.5 188.5q21 118 111.5 193t215.5 75
q141 0 218 -89t53 -222z" />
    <glyph glyph-name="Iotadieresis" unicode="&#x3aa;" horiz-adv-x="283" 
d="M136 711q-9 0 -15 6t-6 16q0 21 21 21q22 0 22 -21q0 -22 -22 -22zM336 711q-9 0 -15 6t-6 16q0 21 21 21q22 0 22 -21q0 -22 -22 -22zM96 0l106 600h21l-106 -600h-21z" />
    <glyph glyph-name="Upsilondieresis" unicode="&#x3ab;" horiz-adv-x="632" 
d="M313 711q-9 0 -15 6t-6 16q0 21 21 21q22 0 22 -21q0 -22 -22 -22zM513 711q-9 0 -15 6t-6 16q0 21 21 21q22 0 22 -21q0 -22 -22 -22zM629 600h24l-332 -420l-31 -180h-21l31 180h1l-179 420h22l170 -402z" />
    <glyph glyph-name="alphatonos" unicode="&#x3ac;" horiz-adv-x="551" 
d="M389 636l-65 -155l-17 5l65 155zM417 170q4 -30 8 -49t12 -42t18.5 -35.5t28.5 -21.5t42 -9l-3 -18q-59 0 -84 38.5t-36 110.5q-87 -156 -202 -156q-84 0 -129 68.5t-26 173.5q16 83 66.5 132.5t132.5 49.5q39 0 68 -13t45.5 -30.5t28 -49t16.5 -55t10 -62.5
q24 50 83 198h20q-76 -185 -99 -230zM203 6q110 0 196 167q-14 109 -32 148q-35 73 -121 73q-67 0 -116 -41t-65 -124h1q-19 -102 22.5 -162.5t114.5 -60.5z" />
    <glyph glyph-name="epsilontonos" unicode="&#x3ad;" horiz-adv-x="430" 
d="M343 636l-65 -155l-17 5l65 155zM250 413q48 0 87.5 -17t59.5 -46l-13 -12q-17 26 -53.5 41.5t-80.5 15.5q-54 0 -91 -19.5t-44 -52.5q-9 -50 34 -79t122 -29l-2 -18q-182 0 -202 -91q-11 -49 29 -74.5t107 -25.5q91 0 150 54l11 -14q-65 -58 -161 -58q-75 0 -121 30.5
t-33 89.5q16 82 142 100q-54 13 -79 45.5t-17 73.5q8 38 51 62t104 24z" />
    <glyph glyph-name="etatonos" unicode="&#x3ae;" horiz-adv-x="518" 
d="M381 636l-65 -155l-17 5l65 155zM318 412q71 0 104 -48t19 -131l-80 -453h-20l79 448q14 77 -14.5 121.5t-92.5 44.5q-74 0 -134 -54t-74 -135l-36 -205h-20l70 400h20l-18 -104q31 54 83 85t114 31z" />
    <glyph glyph-name="iotatonos" unicode="&#x3af;" horiz-adv-x="260" 
d="M174 481l-17 5l65 155l17 -5zM173 -6q-50 0 -72 25.5t-13 72.5l54 308h20l-54 -306q-7 -42 9.5 -61.5t58.5 -19.5z" />
    <glyph glyph-name="upsilondieresistonos" unicode="&#x3b0;" 
d="M326 555l-17 5l65 155l17 -5zM243 480q-9 0 -15 6t-6 16q0 20 21 20q22 0 22 -20q0 -22 -22 -22zM377 480q-21 0 -21 22q0 20 21 20t21 -20q0 -10 -6 -16t-15 -6zM415 191l37 209h20l-37 -209q-35 -204 -194 -204q-86 0 -130.5 58t-27.5 155l35 200h20l-35 -200
q-15 -91 23 -142.5t115 -51.5q142 0 174 185z" />
    <glyph glyph-name="alpha" unicode="&#x3b1;" horiz-adv-x="551" 
d="M417 170q4 -30 8 -49t12 -42t18.5 -35.5t28.5 -21.5t42 -9l-3 -18q-59 0 -84 38.5t-36 110.5q-87 -156 -202 -156q-84 0 -129 68.5t-26 173.5q16 83 66.5 132.5t132.5 49.5q39 0 68 -13t45.5 -30.5t28 -49t16.5 -55t10 -62.5q24 50 83 198h20q-76 -185 -99 -230zM203 6
q110 0 196 167q-14 109 -32 148q-35 73 -121 73q-67 0 -116 -41t-65 -124h1q-19 -102 22.5 -162.5t114.5 -60.5z" />
    <glyph glyph-name="beta" unicode="&#x3b2;" horiz-adv-x="497" 
d="M480 524q-13 -59 -56.5 -102.5t-107.5 -57.5q81 -15 116 -70.5t20 -133.5q-16 -80 -71 -126t-137 -46q-67 0 -115 30t-62 82l-57 -320h-19l130 737q14 88 68 140.5t135 52.5q85 0 129 -54.5t27 -131.5zM258 372q75 0 131.5 43t70.5 110q15 70 -22.5 119t-113.5 49
q-73 0 -122.5 -48.5t-61.5 -128.5l-60 -338h1q-16 -72 31 -122t132 -50q74 0 124 41.5t64 115.5q16 88 -31.5 139.5t-143.5 51.5h-16l3 18h14z" />
    <glyph glyph-name="gamma" unicode="&#x3b3;" horiz-adv-x="483" 
d="M463 400h24q-113 -124 -195.5 -281t-102.5 -273l-12 -66h-20l12 67q21 114 -6.5 270.5t-96.5 282.5h22q55 -97 83 -219t25 -231q35 109 106 231t161 219z" />
    <glyph glyph-name="delta" unicode="&#x3b4;" horiz-adv-x="496" 
d="M311 682q-121 0 -135 -84q-12 -69 75 -130l133 -95q39 -29 57.5 -81.5t8.5 -114.5q-14 -81 -74 -135t-142 -54q-98 0 -152 65.5t-37 165.5q14 80 75 131.5t141 51.5q38 0 67 -10l-90 63q-95 68 -81 146q17 99 153 99h185l-4 -17zM431 181q15 88 -30.5 146t-136.5 58
q-74 0 -130.5 -47.5t-68.5 -119.5q-16 -91 31.5 -151t137.5 -60q75 0 130 49t67 125z" />
    <glyph glyph-name="epsilon" unicode="&#x3b5;" horiz-adv-x="430" 
d="M250 413q48 0 87.5 -17t59.5 -46l-13 -12q-17 26 -53.5 41.5t-80.5 15.5q-54 0 -91 -19.5t-44 -52.5q-9 -50 34 -79t122 -29l-2 -18q-182 0 -202 -91q-11 -49 29 -74.5t107 -25.5q91 0 150 54l11 -14q-65 -58 -161 -58q-75 0 -121 30.5t-33 89.5q16 82 142 100
q-54 13 -79 45.5t-17 73.5q8 38 51 62t104 24z" />
    <glyph glyph-name="zeta" unicode="&#x3b6;" horiz-adv-x="451" 
d="M498 683q-120 -48 -257.5 -200t-161.5 -283q-17 -93 20.5 -137.5t133.5 -44.5h140l-24 -138h-20l21 120h-119q-107 0 -148.5 49t-22.5 153q22 127 148.5 273t249.5 208h-280l4 17h319z" />
    <glyph glyph-name="eta" unicode="&#x3b7;" horiz-adv-x="518" 
d="M318 412q71 0 104 -48t19 -131l-80 -453h-20l79 448q14 77 -14.5 121.5t-92.5 44.5q-74 0 -134 -54t-74 -135l-36 -205h-20l70 400h20l-18 -104q31 54 83 85t114 31z" />
    <glyph glyph-name="theta" unicode="&#x3b8;" horiz-adv-x="540" 
d="M356 710q102 0 141 -97.5t11 -266.5q-28 -167 -98.5 -262.5t-171.5 -95.5t-142 94t-12 268q29 170 100.5 265t171.5 95zM490 357q26 159 -9.5 247t-126.5 88t-156 -89t-93 -246h385zM238 6q90 0 155.5 87t93.5 247h-385q-26 -159 9.5 -246.5t126.5 -87.5z" />
    <glyph glyph-name="iota" unicode="&#x3b9;" horiz-adv-x="260" 
d="M173 -6q-50 0 -72 25.5t-13 72.5l54 308h20l-54 -306q-7 -42 9.5 -61.5t58.5 -19.5z" />
    <glyph glyph-name="kappa" unicode="&#x3ba;" horiz-adv-x="490" 
d="M458 400q-13 -73 -68 -124.5t-137 -70.5q77 -17 113 -71t22 -134h-20q16 90 -33.5 142.5t-148.5 52.5h-74l-34 -195h-20l70 400h20l-33 -187h52q106 0 180.5 51.5t91.5 135.5h19z" />
    <glyph glyph-name="lambda" unicode="&#x3bb;" horiz-adv-x="463" 
d="M395 0h-22l-100 387l-252 -387h-23l269 411l-43 167q-29 104 -103 104h-15l2 18h16q88 0 117 -116z" />
    <glyph glyph-name="uni03BC" unicode="&#x3bc;" horiz-adv-x="534" 
d="M415 94q-7 -40 11 -60.5t58 -20.5l-3 -19q-47 0 -70.5 26t-15.5 71l3 14q-57 -106 -168 -106q-57 0 -95 28t-49 79l-57 -326h-20l109 620h20l-36 -202h1q-16 -82 21 -131.5t105 -49.5q69 0 119.5 50.5t64.5 131.5h1l35 201h20z" />
    <glyph glyph-name="nu" unicode="&#x3bd;" horiz-adv-x="462" 
d="M433 400h22l-245 -400h-24l-109 400h21l102 -382z" />
    <glyph glyph-name="xi" unicode="&#x3be;" horiz-adv-x="422" 
d="M374 683q-84 0 -140.5 -34.5t-67.5 -96.5q-13 -74 32.5 -122.5t133.5 -48.5h84l-4 -18h-82q-102 0 -168.5 -41.5t-83.5 -113.5q-18 -79 32.5 -134t145.5 -55h91l-24 -139h-20l21 120h-75q-100 0 -155.5 61t-35.5 149q15 66 67 108.5t134 55.5q-64 19 -94.5 68t-17.5 114
q13 69 73 106.5t154 37.5h113l-3 -17h-110z" />
    <glyph glyph-name="omicron" unicode="&#x3bf;" horiz-adv-x="498" 
d="M231 -12q-95 0 -149 66.5t-36 165.5q16 82 76 136.5t145 54.5q95 0 149 -65.5t36 -166.5q-16 -87 -77 -139t-144 -52zM232 6q75 0 130 47.5t70 127.5q17 92 -31 152t-135 60q-75 0 -130.5 -48.5t-69.5 -126.5q-17 -89 30.5 -150.5t135.5 -61.5z" />
    <glyph glyph-name="pi" unicode="&#x3c0;" horiz-adv-x="540" 
d="M432 373l-49 -269q-8 -48 10 -69.5t67 -21.5l-3 -19q-113 0 -94 107l49 272h-255l-67 -373h-20l67 373h-94l4 18h477l-3 -18h-89z" />
    <glyph glyph-name="rho" unicode="&#x3c1;" horiz-adv-x="535" 
d="M305 412q98 0 150.5 -68t33.5 -165q-16 -82 -76 -136.5t-147 -54.5q-68 0 -116 34t-62 90l-59 -332h-20l74 419q18 101 77.5 157t144.5 56zM470 183q16 90 -31.5 150.5t-133.5 60.5q-81 0 -135.5 -55t-66.5 -139q0 -2 -0.5 -4t-0.5 -4q-10 -88 37.5 -136.5t125.5 -48.5
q79 0 134.5 49t70.5 127z" />
    <glyph glyph-name="uni03C2" unicode="&#x3c2;" horiz-adv-x="427" 
d="M303 -120l21 120h-67q-117 0 -172.5 64t-36.5 165q16 86 75.5 134.5t145.5 48.5q95 0 150 -53l-13 -12q-51 47 -137 47q-78 0 -132 -45t-70 -124q-18 -94 33.5 -150.5t163.5 -56.5h83l-24 -138h-20z" />
    <glyph glyph-name="sigma" unicode="&#x3c3;" horiz-adv-x="517" 
d="M539 391l-3 -18h-183q56 -24 83.5 -78.5t13.5 -124.5q-16 -83 -77.5 -132.5t-143.5 -49.5q-96 0 -150 65.5t-35 157.5q17 79 78 129.5t148 50.5h269zM431 172q17 85 -30.5 143t-133.5 58q-74 0 -130.5 -45t-72.5 -119q-17 -84 31.5 -143.5t135.5 -59.5q74 0 129 45
t71 121z" />
    <glyph glyph-name="tau" unicode="&#x3c4;" horiz-adv-x="428" 
d="M247 373l-44 -242q-12 -66 10 -92t81 -26l-4 -19q-67 0 -93.5 31.5t-13.5 104.5l44 243h-174l4 18h373l-3 -18h-180z" />
    <glyph glyph-name="upsilon" unicode="&#x3c5;" 
d="M415 191l37 209h20l-37 -209q-35 -204 -194 -204q-86 0 -130.5 58t-27.5 155l35 200h20l-35 -200q-15 -91 23 -142.5t115 -51.5q142 0 174 185z" />
    <glyph glyph-name="phi" unicode="&#x3c6;" horiz-adv-x="561" 
d="M327 406q102 -9 156 -72.5t36 -154.5q-17 -83 -86 -134.5t-169 -51.5h-10l-37 -213h-20l38 214q-102 9 -156 72.5t-37 154.5q16 83 85.5 134.5t169.5 51.5h12l50 293h20zM62 218q-16 -82 33.5 -140t142.5 -66l68 378h-9q-91 0 -155.5 -47t-79.5 -125zM499 184
q16 83 -33.5 140t-141.5 65l-67 -378h7q92 0 156.5 47.5t78.5 125.5z" />
    <glyph glyph-name="chi" unicode="&#x3c7;" horiz-adv-x="460" 
d="M446 400l-232 -310l123 -310h-22l-115 293l-219 -293h-22l233 310l-124 310h22l115 -293l218 293h23z" />
    <glyph glyph-name="psi" unicode="&#x3c8;" horiz-adv-x="643" 
d="M576 400h19l-26 -149q-23 -130 -93.5 -194t-177.5 -64h-2l-38 -213h-19l38 214q-101 6 -152.5 73t-31.5 184l25 149h20l-26 -148q-20 -112 27 -173t141 -67l121 688h19l-121 -689q100 0 165 60.5t86 180.5z" />
    <glyph glyph-name="omega" unicode="&#x3c9;" horiz-adv-x="761" 
d="M656 400q54 -92 34 -213q-16 -94 -68 -146.5t-121 -52.5q-56 0 -94.5 33t-42.5 87q-23 -59 -67.5 -89.5t-95.5 -30.5q-72 0 -111 53t-22 149q21 119 106 210h21q-85 -92 -108 -213q-16 -88 18 -134.5t96 -46.5t106.5 44.5t56.5 111.5l27 158h20l-27 -158q-12 -66 21 -111
t96 -45q61 0 107.5 47.5t61.5 135.5q21 119 -34 211h20z" />
    <glyph glyph-name="iotadieresis" unicode="&#x3ca;" horiz-adv-x="260" 
d="M115 548q-9 0 -15 6t-6 16q0 20 21 20q22 0 22 -20q0 -22 -22 -22zM249 548q-21 0 -21 22q0 20 21 20t21 -20q0 -10 -6 -16t-15 -6zM173 -6q-50 0 -72 25.5t-13 72.5l54 308h20l-54 -306q-7 -42 9.5 -61.5t58.5 -19.5z" />
    <glyph glyph-name="upsilondieresis" unicode="&#x3cb;" 
d="M226 548q-22 0 -22 22q0 9 6 15t16 6t16 -6t6 -15q0 -22 -22 -22zM426 548q-22 0 -22 22q0 9 6 15t16 6t16 -6t6 -15q0 -22 -22 -22zM415 191l37 209h20l-37 -209q-35 -204 -194 -204q-86 0 -130.5 58t-27.5 155l35 200h20l-35 -200q-15 -91 23 -142.5t115 -51.5
q142 0 174 185z" />
    <glyph glyph-name="omicrontonos" unicode="&#x3cc;" horiz-adv-x="498" 
d="M296 481l-17 5l65 155l17 -5zM231 -12q-95 0 -149 66.5t-36 165.5q16 82 76 136.5t145 54.5q95 0 149 -65.5t36 -166.5q-16 -87 -77 -139t-144 -52zM232 6q75 0 130 47.5t70 127.5q17 92 -31 152t-135 60q-75 0 -130.5 -48.5t-69.5 -126.5q-17 -89 30.5 -150.5
t135.5 -61.5z" />
    <glyph glyph-name="upsilontonos" unicode="&#x3cd;" 
d="M318 481l-17 5l65 155l17 -5zM415 191l37 209h20l-37 -209q-35 -204 -194 -204q-86 0 -130.5 58t-27.5 155l35 200h20l-35 -200q-15 -91 23 -142.5t115 -51.5q142 0 174 185z" />
    <glyph glyph-name="omegatonos" unicode="&#x3ce;" horiz-adv-x="761" 
d="M503 636l-65 -155l-17 5l65 155zM656 400q54 -92 34 -213q-16 -94 -68 -146.5t-121 -52.5q-56 0 -94.5 33t-42.5 87q-23 -59 -67.5 -89.5t-95.5 -30.5q-72 0 -111 53t-22 149q21 119 106 210h21q-85 -92 -108 -213q-16 -88 18 -134.5t96 -46.5t106.5 44.5t56.5 111.5
l27 158h20l-27 -158q-12 -66 21 -111t96 -45q61 0 107.5 47.5t61.5 135.5q21 119 -34 211h20z" />
    <glyph glyph-name="uni0401" unicode="&#x401;" horiz-adv-x="580" 
d="M293 711q-9 0 -15 6t-6 16q0 21 21 21q22 0 22 -21q0 -22 -22 -22zM493 711q-9 0 -15 6t-6 16q0 21 21 21q22 0 22 -21q0 -22 -22 -22zM590 581h-398l-47 -264h378l-4 -18h-377l-50 -280h408l-3 -19h-429l106 600h419z" />
    <glyph glyph-name="uni0402" unicode="&#x402;" horiz-adv-x="721" 
d="M488 412q92 0 135.5 -61.5t23.5 -159.5q-18 -94 -81 -142.5t-164 -48.5h-33l3 20h31q91 0 149.5 44t74.5 131q17 89 -21.5 143.5t-122.5 54.5q-87 0 -154 -56t-82 -143l-34 -194h-21l103 581h-213l4 19h544l-4 -19h-310l-53 -296q35 59 95 93t130 34z" />
    <glyph glyph-name="uni0403" unicode="&#x403;" horiz-adv-x="518" 
d="M517 798l-218 -98l-7 16l217 98zM564 600l-3 -19h-369l-103 -581h-21l106 600h390z" />
    <glyph glyph-name="uni0404" unicode="&#x404;" horiz-adv-x="630" 
d="M405 595q-113 0 -199 -73t-109 -193q-1 -2 -1 -6t-1 -6h357l-3 -18h-356q-13 -123 59 -208t195 -85q135 0 241 122l14 -13q-112 -128 -258 -128q-137 0 -216 99.5t-51 244.5q23 124 114.5 203.5t213.5 79.5q146 0 237 -126l-15 -13q-84 120 -222 120z" />
    <glyph glyph-name="uni0405" unicode="&#x405;" horiz-adv-x="600" 
d="M287 -13q-88 0 -151.5 34.5t-91.5 96.5l16 10q26 -58 85 -90t141 -32q84 0 147.5 37.5t75.5 101.5q3 19 0 35.5t-13.5 30t-21.5 24.5t-30 20t-31.5 15t-33.5 12t-29.5 8.5t-25.5 6.5q-31 7 -53.5 14t-55 22t-51.5 33t-30 47.5t-3 64.5q16 68 79.5 102t146.5 34
q81 0 140.5 -34t83.5 -88l-16 -11q-24 50 -78 82t-131 32q-79 0 -135.5 -31.5t-69.5 -87.5q-7 -30 2.5 -55.5t26.5 -41t47 -29.5t51.5 -20.5t52.5 -14.5q33 -9 53 -15t54.5 -21t53 -31.5t30.5 -43.5t6 -60q-14 -72 -82.5 -114.5t-158.5 -42.5z" />
    <glyph glyph-name="uni0406" unicode="&#x406;" horiz-adv-x="283" 
d="M96 0l106 600h21l-106 -600h-21z" />
    <glyph glyph-name="uni0407" unicode="&#x407;" horiz-adv-x="283" 
d="M135 711q-9 0 -15 6t-6 16q0 21 21 21q22 0 22 -21q0 -22 -22 -22zM335 711q-9 0 -15 6t-6 16q0 21 21 21q22 0 22 -21q0 -22 -22 -22zM96 0l106 600h21l-106 -600h-21z" />
    <glyph glyph-name="uni0408" unicode="&#x408;" horiz-adv-x="308" 
d="M-104 -139h27q80 0 135.5 51t70.5 138l97 550h21l-97 -550q-17 -97 -79 -152.5t-153 -55.5h-26z" />
    <glyph glyph-name="uni0409" unicode="&#x409;" horiz-adv-x="1031" 
d="M771 388q117 0 168.5 -64.5t32.5 -155.5q-35 -168 -264 -168h-176l60 348q22 116 -22 181.5t-141 65.5q-95 0 -156.5 -63.5t-80.5 -181.5l-35 -201q-29 -154 -152 -154h-25l4 18h23q104 0 129 137l36 201q20 125 87 194t171 69q99 0 149.5 -60t40.5 -166h151zM952 170
q16 81 -30 140.5t-153 59.5h-151q-2 -14 -4 -23l-58 -328h153q212 0 243 151z" />
    <glyph glyph-name="uni040A" unicode="&#x40a;" horiz-adv-x="1003" 
d="M742 337q108 0 164 -56t32 -141q-37 -140 -241 -140h-183l56 319h-425l-56 -319h-21l106 600h21l-46 -263h425l46 263h21l-46 -263h147zM919 143q20 71 -27.5 123.5t-151.5 52.5h-149l-53 -300h159q89 0 146.5 31t75.5 93z" />
    <glyph glyph-name="uni040B" unicode="&#x40b;" horiz-adv-x="721" 
d="M481 412q89 0 130.5 -54t24.5 -149l-37 -209h-21l36 205q16 91 -19.5 139.5t-117.5 48.5q-89 0 -151.5 -54.5t-78.5 -144.5l-34 -194h-21l103 581h-213l4 19h544l-4 -19h-310l-52 -291q33 58 89.5 90t127.5 32z" />
    <glyph glyph-name="uni040C" unicode="&#x40c;" horiz-adv-x="635" 
d="M538 798l-218 -98l-7 16l217 98zM347 308q110 -23 162 -105t31 -203h-21q24 135 -46 217t-209 82h-122l-53 -299h-21l106 600h21l-50 -283h121q129 0 228.5 80.5t121.5 202.5h21q-19 -109 -98.5 -189t-191.5 -103z" />
    <glyph glyph-name="uni040E" unicode="&#x40e;" horiz-adv-x="641" 
d="M404 672q-61 0 -90.5 37.5t-23.5 98.5h17q-4 -55 20.5 -87t78.5 -32q50 0 82 31.5t41 87.5h19q-10 -64 -48 -100t-96 -36zM639 600h23l-377 -597q-44 -70 -91.5 -105.5t-118.5 -35.5h-27l3 19h27q60 0 104.5 32t85.5 97l27 43l-174 547h22l167 -524z" />
    <glyph glyph-name="uni040F" unicode="&#x40f;" horiz-adv-x="673" 
d="M621 600h21l-106 -600h-225l-25 -147h-21l25 147h-222l106 600h21l-103 -581h426z" />
    <glyph glyph-name="uni0410" unicode="&#x410;" horiz-adv-x="632" 
d="M524 0l-51 209h-311l-124 -209h-23l358 600h24l150 -600h-23zM173 227h295l-86 352z" />
    <glyph glyph-name="uni0411" unicode="&#x411;" horiz-adv-x="653" 
d="M626 581h-425l-46 -255h256q92 0 142.5 -48t36.5 -125q-14 -73 -75.5 -113t-161.5 -40h-276l106 600h446zM406 308h-254l-52 -290h255q90 0 147 36t68 101q13 69 -33.5 111t-130.5 42z" />
    <glyph glyph-name="uni0412" unicode="&#x412;" horiz-adv-x="653" 
d="M604 446q-10 -50 -49 -86.5t-94 -50.5q70 -13 104 -56t24 -106q-12 -67 -66.5 -107t-141.5 -40h-304l106 600h254q89 0 134.5 -43.5t32.5 -110.5zM401 316q66 0 118 36.5t64 93.5q12 59 -28 97.5t-122 38.5h-233l-47 -266h248zM570 150q11 67 -35 107.5t-135 40.5h-249
l-50 -280h281q77 0 127 36t61 96z" />
    <glyph glyph-name="uni0413" unicode="&#x413;" horiz-adv-x="518" 
d="M564 600l-3 -19h-369l-103 -581h-21l106 600h390z" />
    <glyph glyph-name="uni0414" unicode="&#x414;" horiz-adv-x="710" 
d="M547 29h91l-2 -10h1l-29 -166h-21l27 157h-585l-27 -157h-21l27 157l3 19h92l54 298q23 139 98.5 206t208.5 67h185zM177 326l-53 -297h402l96 552h-161q-122 -1 -191.5 -63.5t-92.5 -191.5z" />
    <glyph glyph-name="uni0415" unicode="&#x415;" horiz-adv-x="580" 
d="M590 581h-398l-47 -264h378l-4 -18h-377l-50 -280h408l-3 -19h-429l106 600h419z" />
    <glyph glyph-name="uni0416" unicode="&#x416;" horiz-adv-x="879" 
d="M889 600q-20 -113 -104.5 -193t-203.5 -99q110 -21 162 -103t31 -205h-21q24 135 -44 217t-202 82h-44l-53 -299h-21l53 299h-42q-131 0 -231 -84.5t-123 -214.5h-21q21 119 103.5 203t200.5 105q-108 20 -159.5 97.5t-29.5 194.5h21q-25 -127 42 -205t199 -78h43l50 283
h21l-50 -283h42q134 0 235.5 80t124.5 203h21z" />
    <glyph glyph-name="uni0417" unicode="&#x417;" horiz-adv-x="551" 
d="M523 456q-20 -118 -183 -147q170 -27 149 -154q-13 -75 -84 -121t-167 -46q-81 0 -138.5 32.5t-84.5 91.5l17 11q24 -54 76 -85t129 -31q90 0 155 41t77 110t-45.5 105.5t-184.5 36.5l3 18q116 0 183 36.5t78 104.5q11 63 -33 99t-126 36q-150 0 -236 -112l-14 11
q43 56 108 87.5t143 31.5q93 0 142 -42t36 -114z" />
    <glyph glyph-name="uni0418" unicode="&#x418;" horiz-adv-x="683" 
d="M628 600h23l-106 -600h-21l99 568l-533 -568h-22l106 600h20l-101 -571z" />
    <glyph glyph-name="uni0419" unicode="&#x419;" horiz-adv-x="683" 
d="M424 672q-61 0 -90.5 37.5t-23.5 98.5h17q-4 -55 20.5 -87t78.5 -32q50 0 82 31.5t41 87.5h19q-10 -64 -48 -100t-96 -36zM628 600h23l-106 -600h-21l99 568l-533 -568h-22l106 600h20l-101 -571z" />
    <glyph glyph-name="uni041A" unicode="&#x41a;" horiz-adv-x="635" 
d="M347 308q110 -23 162 -105t31 -203h-21q24 135 -46 217t-209 82h-122l-53 -299h-21l106 600h21l-50 -283h121q129 0 228.5 80.5t121.5 202.5h21q-19 -109 -98.5 -189t-191.5 -103z" />
    <glyph glyph-name="uni041B" unicode="&#x41b;" horiz-adv-x="691" 
d="M197 170q-32 -175 -193 -175h-24l3 18h24q141 0 169 158l33 183q41 246 275 246h175l-106 -600h-21l100 581h-151q-107 0 -169.5 -56t-82.5 -172z" />
    <glyph glyph-name="uni041C" unicode="&#x41c;" horiz-adv-x="826" 
d="M728 600h26l-66 -600h-20l62 572l-329 -492h-18l-155 494l-140 -574h-20l146 600h26l156 -494z" />
    <glyph glyph-name="uni041D" unicode="&#x41d;" horiz-adv-x="693" 
d="M640 600h21l-106 -600h-21l53 299h-445l-53 -299h-21l106 600h21l-50 -283h445z" />
    <glyph glyph-name="uni041E" unicode="&#x41e;" horiz-adv-x="738" 
d="M362 -13q-149 0 -229.5 97t-55.5 247q21 123 115 203t217 80q152 0 233.5 -97t54.5 -247q-21 -123 -115.5 -203t-219.5 -80zM363 6q117 0 205 75t108 191q25 140 -50.5 231.5t-217.5 91.5q-115 0 -203 -75.5t-107 -190.5q-24 -140 51 -231.5t214 -91.5z" />
    <glyph glyph-name="uni041F" unicode="&#x41f;" horiz-adv-x="692" 
d="M660 600l-106 -600h-21l103 581h-444l-103 -581h-21l106 600h486z" />
    <glyph glyph-name="uni0420" unicode="&#x420;" horiz-adv-x="578" 
d="M286 212h-160l-37 -212h-21l106 600h174q112 0 169 -55.5t38 -151.5q-17 -87 -86.5 -134t-182.5 -47zM344 581h-153l-62 -351h159q104 0 168 44.5t79 121.5q16 87 -35.5 136t-155.5 49z" />
    <glyph glyph-name="uni0421" unicode="&#x421;" horiz-adv-x="630" 
d="M344 -13q-137 0 -216 99.5t-51 244.5q23 124 114.5 203.5t213.5 79.5q146 0 237 -126l-15 -13q-84 120 -222 120q-113 0 -198.5 -73t-108.5 -193q-26 -133 46 -228t203 -95q135 0 241 122l14 -13q-112 -128 -258 -128z" />
    <glyph glyph-name="uni0422" unicode="&#x422;" horiz-adv-x="593" 
d="M639 600l-3 -19h-261l-103 -581h-21l103 581h-261l3 19h543z" />
    <glyph glyph-name="uni0423" unicode="&#x423;" horiz-adv-x="641" 
d="M639 600h23l-377 -597q-44 -70 -91.5 -105.5t-118.5 -35.5h-27l3 19h27q60 0 104.5 32t85.5 97l27 43l-174 547h22l167 -524z" />
    <glyph glyph-name="uni0424" unicode="&#x424;" horiz-adv-x="779" 
d="M470 603q143 -12 219 -106.5t48 -226.5q-25 -120 -123 -196.5t-236 -76.5h-15l-17 -97h-21l17 98q-143 12 -218 107.5t-47 225.5q24 120 122 196.5t236 76.5h14l17 96h21zM97 329q-26 -123 45 -212t204 -100l100 568h-13q-127 0 -219.5 -71t-116.5 -185zM717 272
q26 124 -46 212.5t-205 99.5l-100 -568h13q129 0 221.5 71.5t116.5 184.5z" />
    <glyph glyph-name="uni0425" unicode="&#x425;" horiz-adv-x="654" 
d="M413 306q86 -26 123 -106.5t15 -199.5h-22q25 136 -27 217.5t-165 81.5q-105 0 -182 -81.5t-100 -217.5h-22q22 125 87.5 207.5t158.5 102.5q-87 24 -124.5 100.5t-15.5 189.5h22q-25 -130 29 -206.5t166 -76.5q104 0 180.5 77.5t98.5 205.5h22q-21 -119 -86 -197
t-158 -97z" />
    <glyph glyph-name="uni0426" unicode="&#x426;" horiz-adv-x="707" 
d="M642 600l-103 -581h89l-3 -19h-1l-25 -147h-21l25 147h-535l106 600h21l-103 -581h426l103 581h21z" />
    <glyph glyph-name="uni0427" unicode="&#x427;" horiz-adv-x="641" 
d="M588 600h21l-106 -600h-20l58 333q-75 -138 -236 -138q-107 0 -155 64.5t-27 180.5l29 160h21l-29 -160q-20 -108 23 -167t140 -59q101 0 168.5 62.5t86.5 172.5z" />
    <glyph glyph-name="uni0428" unicode="&#x428;" horiz-adv-x="1017" 
d="M964 600h21l-106 -600h-811l106 600h21l-103 -581h374l103 581h21l-103 -581h374z" />
    <glyph glyph-name="uni0429" unicode="&#x429;" horiz-adv-x="1050" 
d="M882 19h89v-4l-1 -6l-1 -9h-1l-25 -147h-21l25 147h-879l106 600h21l-103 -581h374l103 581h21l-103 -581h374l103 581h21z" />
    <glyph glyph-name="uni042A" unicode="&#x42a;" horiz-adv-x="677" 
d="M414 388q109 0 165.5 -60t39.5 -153q-30 -175 -268 -175h-184l103 581h-197l4 19h217l-39 -212h159zM599 177q15 84 -35.5 138.5t-150.5 54.5h-160l-63 -351h162q219 0 247 158z" />
    <glyph glyph-name="uni042B" unicode="&#x42b;" horiz-adv-x="814" 
d="M315 388q109 0 165.5 -60t39.5 -153q-30 -175 -269 -175h-183l106 600h21l-39 -212h159zM645 0l106 600h21l-106 -600h-21zM253 19q219 0 247 158q15 84 -35.5 138.5t-150.5 54.5h-160l-63 -351h162z" />
    <glyph glyph-name="uni042C" unicode="&#x42c;" horiz-adv-x="578" 
d="M315 388q109 0 165.5 -60t39.5 -153q-30 -175 -269 -175h-183l106 600h21l-39 -212h159zM253 19q219 0 247 158q15 84 -35.5 138.5t-150.5 54.5h-160l-63 -351h162z" />
    <glyph glyph-name="uni042D" unicode="&#x42d;" horiz-adv-x="630" 
d="M321 613q137 0 216 -99.5t51 -244.5q-23 -124 -114.5 -203.5t-213.5 -79.5q-146 0 -237 126l15 13q84 -120 222 -120q113 0 199 73t109 193q2 8 4 28h-357l3 18h356q6 118 -66 197.5t-190 79.5q-135 0 -241 -122l-14 13q112 128 258 128z" />
    <glyph glyph-name="uni042E" unicode="&#x42e;" horiz-adv-x="985" 
d="M671 614q143 0 221 -100t52 -244q-23 -126 -114 -204.5t-215 -78.5q-133 0 -211.5 89t-64.5 223h-197l-53 -299h-21l106 600h21l-50 -283h196q0 4 2 14q23 127 113.5 205t214.5 78zM923 272q25 137 -48.5 230t-205.5 93q-116 0 -200 -74t-105 -192q-25 -138 48 -230.5
t205 -92.5q118 0 201.5 75t104.5 191z" />
    <glyph glyph-name="uni042F" unicode="&#x42f;" horiz-adv-x="645" 
d="M360 600h253l-106 -600h-21l48 272h-188q-235 0 -282 -272h-21q40 236 219 278q-72 13 -105.5 64.5t-20.5 117.5q14 65 72 102.5t152 37.5zM307 290h230l52 293h-231q-85 0 -137 -34t-64 -94q-14 -69 26.5 -117t123.5 -48z" />
    <glyph glyph-name="uni0430" unicode="&#x430;" horiz-adv-x="523" 
d="M455 400h20l-70 -400h-20l15 88q-29 -47 -75.5 -73.5t-101.5 -26.5q-89 0 -142 67t-35 165q16 82 75 136.5t143 54.5q67 0 112 -35t58 -95zM226 6q73 0 126 49.5t65 125.5q18 92 -24.5 152t-126.5 60q-75 0 -130.5 -48.5t-69.5 -126.5q-16 -87 30 -149.5t130 -62.5z" />
    <glyph glyph-name="uni0431" unicode="&#x431;" horiz-adv-x="490" 
d="M508 631q-148 0 -228.5 -27.5t-127.5 -99t-74 -212.5q89 108 211 108q89 0 136.5 -59t31.5 -154q-16 -90 -77.5 -144.5t-151.5 -54.5q-103 0 -149.5 75.5t-24.5 197.5q15 82 32 139.5t43.5 102.5t59 72t80.5 44.5t104.5 24t136.5 6.5zM288 382q-64 0 -120 -34.5
t-95 -95.5q-24 -113 20.5 -179t136.5 -66q80 0 136.5 50.5t70.5 133.5q14 85 -27 138t-122 53z" />
    <glyph glyph-name="uni0432" unicode="&#x432;" horiz-adv-x="471" 
d="M404 287q-6 -27 -28 -50t-56 -34q46 -11 67 -41.5t15 -66.5q-6 -39 -43 -67t-95 -28h-215l69 395h175q62 0 91 -31.5t20 -76.5zM270 211q44 0 77 22.5t39 54.5q7 38 -16.5 64.5t-77.5 26.5h-157l-30 -168h165zM382 98q7 39 -22.5 68t-90.5 29h-166l-32 -179h194
q49 0 80.5 24t36.5 58z" />
    <glyph glyph-name="uni0433" unicode="&#x433;" horiz-adv-x="370" 
d="M379 391l-3 -18h-241l-66 -373h-20l69 391h261z" />
    <glyph glyph-name="uni0434" unicode="&#x434;" horiz-adv-x="537" 
d="M465 27l-3 -17h-1l-21 -126h-20l21 126h-414l-21 -126h-20l21 126l2 7v2l2 8h71l29 157q17 98 81.5 152.5t163.5 54.5h102l-65 -364h72zM102 27h271l62 346h-81q-90 0 -149 -50.5t-75 -139.5z" />
    <glyph glyph-name="uni0435" unicode="&#x435;" horiz-adv-x="486" 
d="M279 411q86 0 132 -53t30 -136q0 -6 -3 -13h-369q-14 -84 34.5 -143.5t135.5 -59.5q84 0 150 57l12 -14q-74 -61 -163 -61q-95 0 -149.5 66t-39.5 160q15 87 79 142t151 55zM279 393q-74 0 -131.5 -45t-75.5 -121l350 1q12 72 -28.5 118.5t-114.5 46.5z" />
    <glyph glyph-name="uni0436" unicode="&#x436;" horiz-adv-x="669" 
d="M637 400q-13 -75 -66.5 -126.5t-131.5 -68.5q71 -15 106.5 -69.5t21.5 -135.5h-20q15 89 -30.5 142t-128.5 53h-45l-34 -195h-19l34 195h-43q-86 0 -149 -52.5t-80 -142.5h-20q17 87 71.5 140.5t133.5 65.5q-73 17 -110.5 70t-24.5 124h20q-16 -82 36.5 -134.5
t143.5 -52.5h25l33 187h19l-33 -187h23q94 0 163.5 52t84.5 135h20z" />
    <glyph glyph-name="uni0437" unicode="&#x437;" horiz-adv-x="401" 
d="M353 297q-16 -72 -116 -94q51 -12 75.5 -41t15.5 -72q-10 -46 -54 -74t-106 -28q-102 0 -156 68l13 11q49 -61 142 -61q55 0 95 24.5t48 62.5q10 47 -33 74.5t-125 27.5l2 17q78 0 124.5 23t55.5 65q9 40 -21 67.5t-87 27.5q-87 0 -139 -49l-11 12q60 55 150 55
q66 0 101.5 -33.5t25.5 -82.5z" />
    <glyph glyph-name="uni0438" unicode="&#x438;" horiz-adv-x="508" 
d="M438 400h21l-70 -400h-20l65 371l-364 -371h-21l70 400h20l-65 -371z" />
    <glyph glyph-name="uni0439" unicode="&#x439;" horiz-adv-x="508" 
d="M307 490q-61 0 -90.5 37.5t-23.5 98.5h17q-4 -55 20.5 -87t78.5 -32q50 0 82 31.5t41 87.5h19q-10 -64 -48 -100t-96 -36zM438 400h21l-70 -400h-20l65 371l-364 -371h-21l70 400h20l-65 -371z" />
    <glyph glyph-name="uni043A" unicode="&#x43a;" horiz-adv-x="490" 
d="M458 400q-13 -73 -68 -124.5t-137 -70.5q77 -17 113 -71t22 -134h-20q16 90 -33.5 142.5t-148.5 52.5h-74l-34 -195h-20l70 400h20l-33 -187h52q106 0 180.5 51.5t91.5 135.5h19z" />
    <glyph glyph-name="uni043B" unicode="&#x43b;" 
d="M122 115q-21 -120 -129 -120h-14l3 17h14q88 0 106 104l18 99q13 80 68 128t130 48h152l-69 -391h-20l65 373h-130q-67 0 -115.5 -44t-61.5 -115z" />
    <glyph glyph-name="uni043C" unicode="&#x43c;" horiz-adv-x="623" 
d="M524 400h22l-43 -400h-19l41 372l-235 -340h-18l-112 340l-91 -372h-20l97 400h23l115 -347z" />
    <glyph glyph-name="uni043D" unicode="&#x43d;" horiz-adv-x="508" 
d="M439 400h20l-70 -400h-20l33 191h-300l-33 -191h-20l70 400h20l-33 -191h300z" />
    <glyph glyph-name="uni043E" unicode="&#x43e;" horiz-adv-x="498" 
d="M231 -12q-95 0 -149 66.5t-36 165.5q16 82 76 136.5t145 54.5q95 0 149 -65.5t36 -166.5q-16 -87 -77 -139t-144 -52zM232 6q75 0 130 47.5t70 127.5q17 92 -31 152t-135 60q-75 0 -130.5 -48.5t-69.5 -126.5q-17 -89 30.5 -150.5t135.5 -61.5z" />
    <glyph glyph-name="uni043F" unicode="&#x43f;" horiz-adv-x="508" 
d="M458 391l-69 -391h-20l66 373h-300l-66 -373h-20l69 391h340z" />
    <glyph glyph-name="uni0440" unicode="&#x440;" horiz-adv-x="532" 
d="M309 412q89 0 142 -67t35 -165q-16 -82 -75 -136.5t-143 -54.5q-67 0 -111.5 34t-58.5 93l-59 -336h-20l109 620h19l-15 -89q29 47 75.5 74t101.5 27zM466 182q17 86 -29 149t-129 63q-74 0 -127.5 -49.5t-64.5 -125.5q-19 -92 23.5 -152t126.5 -60q76 0 131 48.5
t69 126.5z" />
    <glyph glyph-name="uni0441" unicode="&#x441;" horiz-adv-x="430" 
d="M231 -12q-95 0 -149 66.5t-36 165.5q16 82 76 136.5t145 54.5q90 0 145 -61l-15 -12q-50 55 -131 55q-75 0 -130.5 -48.5t-69.5 -126.5q-17 -89 30.5 -150.5t135.5 -61.5q69 0 125 43l12 -13q-59 -48 -138 -48z" />
    <glyph glyph-name="uni0442" unicode="&#x442;" horiz-adv-x="428" 
d="M435 391l-3 -18h-176l-67 -373h-20l67 373h-178l4 18h373z" />
    <glyph glyph-name="uni0443" unicode="&#x443;" horiz-adv-x="518" 
d="M449 400h19l-72 -416q-18 -102 -71.5 -158.5t-138.5 -56.5q-99 0 -144 59l15 12q44 -52 130 -52q75 0 123.5 50.5t65.5 144.5l20 115q-66 -110 -197 -110q-153 0 -120 188l39 224h20l-38 -219q-31 -175 104 -175q73 0 129.5 45.5t75.5 120.5z" />
    <glyph glyph-name="uni0444" unicode="&#x444;" horiz-adv-x="561" 
d="M328 410q99 -10 152 -73t35 -158q-17 -87 -85 -139t-168 -52h-9l-36 -208h-20l37 209q-102 9 -154 73.5t-34 157.5q17 87 85 139t166 52h12l41 239h20zM65 218q-17 -85 31.5 -144t140.5 -67l69 386h-8q-90 0 -153.5 -47t-79.5 -128zM496 181q17 84 -31 143.5t-141 67.5
l-68 -386h8q91 0 153.5 47.5t78.5 127.5z" />
    <glyph glyph-name="uni0445" unicode="&#x445;" horiz-adv-x="480" 
d="M292 199q54 -17 76 -68.5t6 -130.5h-20q18 91 -14.5 141t-106.5 50q-70 0 -115.5 -49.5t-61.5 -141.5h-20q29 174 153 202q-54 17 -76.5 68t-6.5 130h20q-18 -91 14 -141t107 -50q70 0 115.5 49.5t61.5 141.5h20q-29 -173 -152 -201z" />
    <glyph glyph-name="uni0446" unicode="&#x446;" horiz-adv-x="523" 
d="M387 18h83l-28 -155h-20l24 137h-397l70 400h20l-67 -382h295l67 382h20z" />
    <glyph glyph-name="uni0447" unicode="&#x447;" horiz-adv-x="486" 
d="M417 400h20l-70 -400h-20l40 226q-56 -90 -177 -90q-73 0 -110 35.5t-25 104.5l22 124h19l-21 -119q-11 -64 20 -95.5t98 -31.5q77 0 124.5 38.5t61.5 101.5z" />
    <glyph glyph-name="uni0448" unicode="&#x448;" horiz-adv-x="770" 
d="M701 400h20l-70 -400h-602l70 400h20l-67 -382h275l67 382h20l-67 -382h267z" />
    <glyph glyph-name="uni0449" unicode="&#x449;" horiz-adv-x="789" 
d="M654 18h82l-28 -155h-20l25 137h-664l70 400h20l-67 -382h275l67 382h20l-67 -382h267l67 382h20z" />
    <glyph glyph-name="uni044A" unicode="&#x44a;" horiz-adv-x="492" 
d="M315 233q71 0 101.5 -39t20.5 -94q-9 -50 -45.5 -75t-87.5 -25h-184l67 382h-146l2 18h166l-29 -167h135zM419 103q8 45 -17.5 79t-87.5 34h-137l-35 -198h163q46 0 76.5 22.5t37.5 62.5z" />
    <glyph glyph-name="uni044B" unicode="&#x44b;" horiz-adv-x="603" 
d="M49 0l70 400h19l-29 -167h135q71 0 102 -39t20 -94q-9 -50 -45.5 -75t-87.5 -25h-184zM455 0l70 400h20l-70 -400h-20zM71 18h163q46 0 76.5 22.5t37.5 62.5q8 45 -17.5 79t-87.5 34h-137z" />
    <glyph glyph-name="uni044C" unicode="&#x44c;" horiz-adv-x="421" 
d="M49 0l70 400h19l-29 -167h135q71 0 102 -39t20 -94q-9 -50 -45.5 -75t-87.5 -25h-184zM71 18h163q46 0 76.5 22.5t37.5 62.5q8 45 -17.5 79t-87.5 34h-137z" />
    <glyph glyph-name="uni044D" unicode="&#x44d;" horiz-adv-x="430" 
d="M199 412q95 0 149 -66.5t36 -165.5q-15 -82 -75.5 -136.5t-145.5 -54.5q-90 0 -145 61l15 12q50 -55 131 -55q75 0 130.5 48.5t69.5 126.5q2 10 2 14h-229l3 17h228q4 78 -43.5 129.5t-126.5 51.5q-69 0 -125 -43l-12 13q59 48 138 48z" />
    <glyph glyph-name="uni044E" unicode="&#x44e;" horiz-adv-x="679" 
d="M458 411q90 0 142 -66t33 -166q-16 -87 -74 -139t-137 -52q-82 0 -133 57.5t-45 145.5h-142l-33 -191h-20l70 400h20l-33 -191h139l2 11q14 82 71.5 136.5t139.5 54.5zM613 181q17 92 -28.5 152t-127.5 60q-72 0 -124 -48.5t-66 -126.5q-16 -88 28.5 -150t127.5 -62
q71 0 123 47.5t67 127.5z" />
    <glyph glyph-name="uni044F" unicode="&#x44f;" horiz-adv-x="461" 
d="M228 395h184l-69 -395h-20l31 174h-149q-59 0 -104.5 -48t-59.5 -126h-20q12 70 48.5 117.5t88.5 63.5q-38 10 -59.5 36.5t-20.5 65.5q1 51 41.5 81.5t108.5 30.5zM204 191h153l33 188h-163q-58 0 -93.5 -27t-35.5 -71q-1 -41 28 -65.5t78 -24.5z" />
    <glyph glyph-name="uni0451" unicode="&#x451;" horiz-adv-x="486" 
d="M203 548q-22 0 -22 22q0 9 6 15t16 6t16 -6t6 -15q0 -22 -22 -22zM403 548q-22 0 -22 22q0 9 6 15t16 6t16 -6t6 -15q0 -22 -22 -22zM279 411q86 0 132 -53t30 -136q0 -6 -3 -13h-369q-14 -84 34.5 -143.5t135.5 -59.5q84 0 150 57l12 -14q-74 -61 -163 -61
q-95 0 -149.5 66t-39.5 160q15 87 79 142t151 55zM279 393q-74 0 -131.5 -45t-75.5 -121l350 1q12 72 -28.5 118.5t-114.5 46.5z" />
    <glyph glyph-name="uni0452" unicode="&#x452;" horiz-adv-x="503" 
d="M310 412q82 0 116 -62t14 -171q-19 -101 -76 -209t-133 -192l-15 10q74 84 130 189t74 202q18 102 -11 158.5t-104 56.5q-72 0 -124 -52t-66 -133l-37 -209h-20l91 521h-85l4 17h84l20 112h20l-20 -112h177l-3 -17h-177l-37 -215q29 50 75.5 78t102.5 28z" />
    <glyph glyph-name="uni0453" unicode="&#x453;" horiz-adv-x="370" 
d="M354 620l-175 -129l-11 13l175 130zM379 391l-3 -18h-241l-66 -373h-20l69 391h261z" />
    <glyph glyph-name="uni0454" unicode="&#x454;" horiz-adv-x="430" 
d="M267 411q90 0 145 -61l-15 -12q-50 55 -131 55q-75 0 -130.5 -48.5t-69.5 -126.5q0 -1 -0.5 -2.5t-0.5 -2.5h230l-3 -17h-229q-8 -81 39.5 -135.5t129.5 -54.5q69 0 125 43l12 -13q-59 -48 -138 -48q-95 0 -149 66.5t-36 165.5q16 82 76 136.5t145 54.5z" />
    <glyph glyph-name="uni0455" unicode="&#x455;" horiz-adv-x="398" 
d="M166 -12q-86 0 -139 60l14 11q49 -54 127 -54q53 0 87.5 23.5t42.5 59.5q8 41 -19.5 65.5t-78.5 44.5q-28 11 -45.5 20t-36 23.5t-25.5 34.5t-2 46q8 44 49.5 67.5t95.5 23.5q82 0 117 -51l-15 -10q-35 44 -103 44q-53 0 -86 -22.5t-39 -55.5q-4 -22 3 -39t25 -29.5
t31.5 -19t36.5 -15.5q12 -5 20 -8t21.5 -9.5t21 -11.5t18.5 -13.5t15.5 -16.5t11 -19.5t5 -23t-2.5 -27.5q-10 -46 -50.5 -72t-99.5 -26z" />
    <glyph glyph-name="uni0456" unicode="&#x456;" horiz-adv-x="234" 
d="M181 548q-22 0 -22 22q0 21 22 21t22 -21q0 -22 -22 -22zM72 0l70 400h20l-70 -400h-20z" />
    <glyph glyph-name="uni0457" unicode="&#x457;" horiz-adv-x="234" 
d="M114 548q-9 0 -15 6t-6 16q0 20 21 20q22 0 22 -20q0 -22 -22 -22zM248 548q-21 0 -21 22q0 20 21 20t21 -20q0 -10 -6 -16t-15 -6zM72 0l70 400h20l-70 -400h-20z" />
    <glyph glyph-name="uni0458" unicode="&#x458;" horiz-adv-x="234" 
d="M181 548q-22 0 -22 22q0 21 22 21t22 -21q0 -22 -22 -22zM33 -220l109 620h20l-109 -620h-20z" />
    <glyph glyph-name="uni0459" unicode="&#x459;" horiz-adv-x="696" 
d="M519 233q66 0 99 -38.5t24 -89.5q-9 -45 -47 -75t-98 -30h-126l64 373h-119q-67 0 -115.5 -44t-61.5 -115l-17 -99q-21 -120 -129 -120h-14l3 17h14q88 0 106 104l18 99q13 80 68 128t130 48h142l-28 -158h87zM623 107q7 43 -20.5 76t-86.5 33h-87l-35 -199h105
q52 0 84.5 25.5t39.5 64.5z" />
    <glyph glyph-name="uni045A" unicode="&#x45a;" horiz-adv-x="686" 
d="M509 222q64 0 96.5 -38t24.5 -87q-7 -41 -43 -69t-97 -28h-130l36 205h-291l-36 -205h-20l70 400h20l-31 -177h291l31 177h20l-31 -178h90zM611 98q7 41 -20.5 74t-82.5 33h-92l-33 -188h107q53 0 83.5 23t37.5 58z" />
    <glyph glyph-name="uni045B" unicode="&#x45b;" horiz-adv-x="527" 
d="M327 412q72 0 104.5 -48t18.5 -131l-41 -233h-20l40 228q14 77 -14.5 121.5t-92.5 44.5q-73 0 -133 -54.5t-75 -135.5l-36 -204h-20l91 521h-85l4 17h84l20 112h20l-20 -112h177l-3 -17h-177l-40 -229q32 55 84.5 87.5t113.5 32.5z" />
    <glyph glyph-name="uni045C" unicode="&#x45c;" horiz-adv-x="490" 
d="M413 620l-175 -129l-11 13l175 130zM458 400q-13 -73 -68 -124.5t-137 -70.5q77 -17 113 -71t22 -134h-20q16 90 -33.5 142.5t-148.5 52.5h-74l-34 -195h-20l70 400h20l-33 -187h52q106 0 180.5 51.5t91.5 135.5h19z" />
    <glyph glyph-name="uni045E" unicode="&#x45e;" horiz-adv-x="518" 
d="M307 490q-61 0 -90.5 37.5t-23.5 98.5h17q-4 -55 20.5 -87t78.5 -32q50 0 82 31.5t41 87.5h19q-10 -64 -48 -100t-96 -36zM449 400h19l-72 -416q-18 -102 -71.5 -158.5t-138.5 -56.5q-99 0 -144 59l15 12q44 -52 130 -52q75 0 123.5 50.5t65.5 144.5l20 115
q-66 -110 -197 -110q-153 0 -120 188l39 224h20l-38 -219q-31 -175 104 -175q73 0 129.5 45.5t75.5 120.5z" />
    <glyph glyph-name="uni045F" unicode="&#x45f;" horiz-adv-x="504" 
d="M434 400h20l-70 -400h-157l-24 -137h-20l24 137h-158l70 400h20l-67 -382h295z" />
    <glyph glyph-name="uni0462" unicode="&#x462;" horiz-adv-x="620" 
d="M357 388q109 0 165.5 -60t39.5 -153q-30 -175 -269 -175h-183l102 582h-129l4 18h128l18 100h21l-18 -100h216l-4 -18h-215l-35 -194h159zM541 177q15 84 -35.5 138.5t-150.5 54.5h-159l-63 -351h162q219 0 246 158z" />
    <glyph glyph-name="uni0463" unicode="&#x463;" horiz-adv-x="446" 
d="M269 233q71 0 101.5 -39t20.5 -94q-9 -50 -45.5 -75t-87.5 -25h-184l66 377h-87l4 18h86l45 255h19l-45 -255h177l-3 -18h-177l-25 -144h135zM373 103q8 45 -17.5 79t-87.5 34h-137l-36 -198h163q46 0 77 22.5t38 62.5z" />
    <glyph glyph-name="uni0472" unicode="&#x472;" horiz-adv-x="738" 
d="M409 614q152 0 233.5 -97t54.5 -247q-21 -123 -115.5 -203t-219.5 -80q-149 0 -229.5 97t-55.5 247q21 123 115 203t217 80zM408 595q-115 0 -203 -75.5t-107 -190.5l-3 -19h586q9 126 -66.5 205.5t-206.5 79.5zM363 6q117 0 205 75t108 191l3 20h-586q-9 -126 66 -206
t204 -80z" />
    <glyph glyph-name="uni0473" unicode="&#x473;" horiz-adv-x="498" 
d="M267 411q95 0 149 -65.5t36 -166.5q-16 -87 -77 -139t-144 -52q-95 0 -149 66.5t-36 165.5q16 82 76 136.5t145 54.5zM267 394q-76 0 -132 -49t-70 -127q-1 -3 -1 -8h373q5 81 -43 132.5t-127 51.5zM232 6q75 0 130.5 47.5t70.5 127.5l2 11h-373q-6 -80 41.5 -133
t128.5 -53z" />
    <glyph glyph-name="uni0474" unicode="&#x474;" horiz-adv-x="632" 
d="M524 472q75 140 177 140l-3 -19q-88 0 -156 -127l-250 -466h-24l-147 600h22l139 -580z" />
    <glyph glyph-name="uni0475" unicode="&#x475;" horiz-adv-x="462" 
d="M343 277q39 70 67.5 99t65.5 29l-2 -18q-30 0 -53 -25.5t-59 -90.5l-157 -271h-24l-109 400h22l101 -381z" />
    <glyph glyph-name="uni0490" unicode="&#x490;" horiz-adv-x="518" 
d="M562 700h20l-20 -119h-370l-103 -581h-21l106 600h370z" />
    <glyph glyph-name="uni0491" unicode="&#x491;" horiz-adv-x="370" 
d="M381 520h20l-25 -147h-241l-66 -373h-20l69 391h241z" />
    <glyph glyph-name="uni0492" unicode="&#x492;" horiz-adv-x="518" 
d="M561 581h-369l-47 -264h175l-4 -18h-174l-53 -299h-21l53 299h-86l3 18h86l50 283h390z" />
    <glyph glyph-name="uni0493" unicode="&#x493;" horiz-adv-x="372" 
d="M378 373h-241l-29 -165h119l-3 -18h-119l-34 -190h-20l34 190h-67l3 18h67l32 183h261z" />
    <glyph glyph-name="uni0496" unicode="&#x496;" horiz-adv-x="900" 
d="M841 18v-3h4l-28 -162h-21l25 147h-68q24 135 -44 217t-202 82h-44l-53 -299h-21l53 299h-42q-131 0 -231 -84.5t-123 -214.5h-21q21 119 103.5 203t200.5 105q-108 20 -159.5 97.5t-29.5 194.5h21q-25 -127 42 -205t199 -78h43l50 283h21l-50 -283h42q134 0 235.5 80
t124.5 203h21q-20 -113 -104.5 -193t-203.5 -99q106 -20 158 -96.5t38 -193.5h64z" />
    <glyph glyph-name="uni0497" unicode="&#x497;" horiz-adv-x="689" 
d="M569 18h72l-28 -155h-20l25 137h-71q15 89 -30.5 142t-128.5 53h-45l-34 -195h-19l34 195h-43q-86 0 -149 -52.5t-80 -142.5h-20q17 87 71.5 140.5t133.5 65.5q-73 17 -110.5 70t-24.5 124h20q-16 -82 36.5 -134.5t143.5 -52.5h25l33 187h19l-33 -187h23q94 0 163.5 52
t84.5 135h20q-13 -75 -66.5 -126.5t-131.5 -68.5q67 -15 102.5 -64t27.5 -123z" />
    <glyph glyph-name="uni049A" unicode="&#x49a;" horiz-adv-x="666" 
d="M607 18v-3h4l-28 -162h-21l25 147h-68q24 135 -46 217t-209 82h-122l-53 -299h-21l106 600h21l-50 -283h121q129 0 228.5 80.5t121.5 202.5h21q-19 -109 -98.5 -189t-191.5 -103q106 -22 158.5 -99t37.5 -191h64z" />
    <glyph glyph-name="uni049B" unicode="&#x49b;" horiz-adv-x="512" 
d="M391 18h73l-28 -155h-20l24 137h-72q16 90 -33.5 142.5t-148.5 52.5h-74l-34 -195h-20l70 400h20l-33 -187h52q106 0 180.5 51.5t91.5 135.5h19q-13 -73 -68 -124.5t-137 -70.5q72 -15 108.5 -64.5t29.5 -122.5z" />
    <glyph glyph-name="uni04A2" unicode="&#x4a2;" horiz-adv-x="709" 
d="M626 18v-3h4l-28 -162h-21l25 147h-72l53 299h-445l-53 -299h-21l106 600h21l-50 -283h445l50 283h21l-103 -582h68z" />
    <glyph glyph-name="uni04A3" unicode="&#x4a3;" horiz-adv-x="528" 
d="M392 18h82l-28 -155h-20l25 137h-82l33 191h-300l-33 -191h-20l70 400h20l-33 -191h300l33 191h20z" />
    <glyph glyph-name="uni04AE" unicode="&#x4ae;" horiz-adv-x="677" 
d="M631 600h21l-24 -135q-24 -131 -95.5 -205.5t-184.5 -75.5l-31 -184h-21l31 185q-106 6 -156.5 82t-27.5 203l24 130h21l-24 -135q-22 -122 28 -192t155 -70q103 0 170 69.5t90 194.5z" />
    <glyph glyph-name="uni04AF" unicode="&#x4af;" 
d="M452 400h20l-35 -200q-17 -97 -72.5 -154.5t-133.5 -58.5l-36 -207h-19l36 208q-72 6 -108.5 64t-20.5 148l35 200h20l-35 -201q-16 -87 19.5 -140t107.5 -53q71 0 121.5 53t65.5 141z" />
    <glyph glyph-name="uni04B0" unicode="&#x4b0;" horiz-adv-x="580" 
d="M610 600q-59 -328 -297 -329l-10 -58h174l-2 -17h-175l-35 -196h-21l35 196h-174l2 17h175l10 58q-115 6 -162 89.5t-18 239.5h21q-29 -153 16.5 -232t162.5 -79q222 0 277 311h21z" />
    <glyph glyph-name="uni04B1" unicode="&#x4b1;" 
d="M240 -13h-9l-11 -67h151l-3 -18h-152l-21 -122h-19l21 122h-151l3 18h152l12 69q-74 9 -110 65.5t-20 144.5l35 201h20l-35 -201q-16 -90 22.5 -141.5t115.5 -51.5q142 0 174 185l37 209h20l-37 -209q-35 -204 -195 -204z" />
    <glyph glyph-name="uni04B2" unicode="&#x4b2;" horiz-adv-x="676" 
d="M618 18v-3h4l-28 -162h-21l25 147h-69q25 136 -27 217.5t-165 81.5q-105 0 -182 -81.5t-100 -217.5h-22q22 125 87.5 207.5t158.5 102.5q-87 24 -124.5 100.5t-15.5 189.5h22q-25 -130 29 -206.5t166 -76.5q104 0 180.5 77.5t98.5 205.5h22q-21 -119 -86 -197t-158 -97
q83 -25 120.5 -100.5t20.5 -187.5h64z" />
    <glyph glyph-name="uni04B3" unicode="&#x4b3;" horiz-adv-x="497" 
d="M377 18h73l-28 -155h-20l25 137h-73q18 91 -14.5 141t-106.5 50q-70 0 -115.5 -49.5t-61.5 -141.5h-20q29 174 153 202q-54 17 -76.5 68t-6.5 130h20q-18 -91 14 -141t107 -50q70 0 115.5 49.5t61.5 141.5h20q-29 -173 -152 -201q51 -16 73.5 -62.5t11.5 -118.5z" />
    <glyph glyph-name="uni04B6" unicode="&#x4b6;" horiz-adv-x="657" 
d="M574 18v-3h4l-28 -162h-21l25 147h-71l58 333q-75 -138 -236 -138q-107 0 -155 64.5t-27 180.5l29 160h21l-29 -160q-20 -108 23 -167t140 -59q101 0 168.5 62.5t86.5 172.5l26 151h21l-103 -582h68z" />
    <glyph glyph-name="uni04B7" unicode="&#x4b7;" horiz-adv-x="506" 
d="M370 18h82l-28 -155h-20l25 137h-82l40 226q-56 -90 -177 -90q-73 0 -110 35.5t-25 104.5l22 124h19l-21 -119q-11 -64 20 -95.5t98 -31.5q77 0 124.5 38.5t61.5 101.5l18 106h20z" />
    <glyph glyph-name="uni04BA" unicode="&#x4ba;" horiz-adv-x="674" 
d="M409 514q106 0 154 -62.5t27 -180.5l-47 -271h-21l47 267q19 113 -23 170.5t-142 57.5q-99 0 -175.5 -63.5t-92.5 -164.5l-47 -267h-21l106 600h21l-43 -240q38 72 106.5 113t150.5 41z" />
    <glyph glyph-name="uni04BB" unicode="&#x4bb;" horiz-adv-x="527" 
d="M327 412q72 0 104.5 -48t18.5 -131l-41 -233h-20l40 228q14 77 -14.5 121.5t-92.5 44.5q-73 0 -133 -54.5t-75 -135.5l-36 -204h-20l106 605h20l-55 -314q32 55 85 88t113 33z" />
    <glyph glyph-name="uni04C0" unicode="&#x4c0;" horiz-adv-x="283" 
d="M96 0l106 600h21l-106 -600h-21z" />
    <glyph glyph-name="uni04CF" unicode="&#x4cf;" horiz-adv-x="207" 
d="M58 0l114 650h20l-114 -650h-20z" />
    <glyph glyph-name="uni04D8" unicode="&#x4d8;" horiz-adv-x="710" 
d="M383 614q150 0 230.5 -97t54.5 -247q-21 -123 -115 -203t-219 -80q-131 0 -206.5 89t-56.5 226h581q11 129 -64 211t-206 82q-77 0 -144 -26.5t-113 -73.5l-11 14q49 49 119 77t150 28zM335 6q116 0 204.5 75t108.5 191q0 2 1 6t1 6h-559q-13 -122 56.5 -200t187.5 -78z
" />
    <glyph glyph-name="uni04D9" unicode="&#x4d9;" horiz-adv-x="486" 
d="M248 412q95 0 149.5 -66t39.5 -160q-15 -87 -79 -142t-151 -55q-86 0 -132 53t-30 136q0 6 3 13h369q14 84 -34.5 143.5t-135.5 59.5q-84 0 -150 -57l-12 14q74 61 163 61zM207 7q74 0 131.5 45t75.5 121l-350 -1q-12 -72 28.5 -118.5t114.5 -46.5z" />
    <glyph glyph-name="uni04E2" unicode="&#x4e2;" horiz-adv-x="683" 
d="M590 752l-3 -17h-300l3 17h300zM628 600h23l-106 -600h-21l99 568l-533 -568h-22l106 600h20l-101 -571z" />
    <glyph glyph-name="uni04E3" unicode="&#x4e3;" horiz-adv-x="518" 
d="M172 552h300l-3 -17h-300zM74 29l364 371h21l-70 -400h-20l65 371l-364 -371h-21l70 400h20z" />
    <glyph glyph-name="uni04E8" unicode="&#x4e8;" horiz-adv-x="738" 
d="M409 614q152 0 233.5 -97t54.5 -247q-21 -123 -115.5 -203t-219.5 -80q-149 0 -229.5 97t-55.5 247q21 123 115 203t217 80zM408 595q-115 0 -203 -75.5t-107 -190.5l-3 -19h586q9 126 -66.5 205.5t-206.5 79.5zM363 6q117 0 205 75t108 191l3 20h-586q-9 -126 66 -206
t204 -80z" />
    <glyph glyph-name="uni04E9" unicode="&#x4e9;" horiz-adv-x="498" 
d="M267 411q95 0 149 -65.5t36 -166.5q-16 -87 -77 -139t-144 -52q-95 0 -149 66.5t-36 165.5q16 82 76 136.5t145 54.5zM267 394q-76 0 -132 -49t-70 -127q-1 -3 -1 -8h373q5 81 -43 132.5t-127 51.5zM232 6q75 0 130.5 47.5t70.5 127.5l2 11h-373q-6 -80 41.5 -133
t128.5 -53z" />
    <glyph glyph-name="uni04EE" unicode="&#x4ee;" horiz-adv-x="641" 
d="M570 752l-3 -17h-300l3 17h300zM639 600h23l-377 -597q-44 -70 -91.5 -105.5t-118.5 -35.5h-27l3 19h27q60 0 104.5 32t85.5 97l27 43l-174 547h22l167 -524z" />
    <glyph glyph-name="uni04EF" unicode="&#x4ef;" horiz-adv-x="518" 
d="M171 552h300l-3 -17h-300zM409 172l40 228h19l-72 -416q-18 -102 -71.5 -158.5t-138.5 -56.5q-99 0 -144 59l15 12q44 -52 130 -52q75 0 123.5 50.5t65.5 144.5l20 115q-66 -110 -197 -110q-153 0 -120 188l39 224h20l-38 -219q-31 -175 104 -175q73 0 129.5 45.5
t75.5 120.5z" />
    <glyph glyph-name="uni05B0" unicode="&#x5b0;" horiz-adv-x="0" 
d="M67 -98q-20 0 -20 20q0 19 20 19t20 -19q0 -20 -20 -20zM50 -199q-20 0 -20 20q0 19 20 19t20 -19q0 -20 -20 -20z" />
    <glyph glyph-name="uni05B1" unicode="&#x5b1;" horiz-adv-x="0" 
d="M37 -98q-20 0 -20 20q0 19 20 19t20 -19q0 -20 -20 -20zM160 -98q-20 0 -20 20q0 19 20 19t20 -19q0 -20 -20 -20zM277 -98q-20 0 -20 20q0 19 20 19t20 -19q0 -20 -20 -20zM89 -196q-20 0 -20 20q0 19 20 19t20 -19q0 -20 -20 -20zM259 -199q-20 0 -20 20q0 19 20 19
t20 -19q0 -20 -20 -20z" />
    <glyph glyph-name="uni05B2" unicode="&#x5b2;" horiz-adv-x="0" 
d="M342 -98q-20 0 -20 20q0 19 20 19t20 -19q0 -20 -20 -20zM278 -85h-300l3 17h300zM325 -199q-20 0 -20 20q0 19 20 19t20 -19q0 -20 -20 -20z" />
    <glyph glyph-name="uni05B3" unicode="&#x5b3;" horiz-adv-x="0" 
d="M335 -59q20 0 20 -19q0 -20 -20 -20t-20 20q0 19 20 19zM-22 -85l3 17h300l-3 -17h-141l-25 -132h-17l24 132h-141zM318 -160q20 0 20 -19q0 -20 -20 -20t-20 20q0 19 20 19z" />
    <glyph glyph-name="uni05B4" unicode="&#x5b4;" horiz-adv-x="0" 
d="M72 -99q-20 0 -20 20q0 19 20 19t20 -19q0 -20 -20 -20z" />
    <glyph glyph-name="uni05B5" unicode="&#x5b5;" horiz-adv-x="0" 
d="M72 -99q-20 0 -20 20q0 19 20 19t20 -19q0 -20 -20 -20zM195 -99q-20 0 -20 20q0 19 20 19t20 -19q0 -20 -20 -20z" />
    <glyph glyph-name="uni05B6" unicode="&#x5b6;" horiz-adv-x="0" 
d="M72 -98q-20 0 -20 20q0 19 20 19t20 -19q0 -20 -20 -20zM194 -98q-20 0 -20 20q0 19 20 19t20 -19q0 -20 -20 -20zM124 -196q-20 0 -20 20q0 19 20 19t20 -19q0 -20 -20 -20z" />
    <glyph glyph-name="uni05B7" unicode="&#x5b7;" horiz-adv-x="0" 
d="M278 -85h-300l3 17h300z" />
    <glyph glyph-name="uni05B8" unicode="&#x5b8;" horiz-adv-x="0" 
d="M281 -68l-3 -17h-141l-25 -132h-17l24 132h-141l3 17h300z" />
    <glyph glyph-name="uni05B9" unicode="&#x5b9;" horiz-adv-x="0" 
d="M109 682q-20 0 -20 20q0 19 20 19t20 -19q0 -20 -20 -20z" />
    <glyph glyph-name="uni05BA" unicode="&#x5ba;" horiz-adv-x="0" 
d="M167 689q-20 0 -20 20q0 19 20 19t20 -19q0 -20 -20 -20z" />
    <glyph glyph-name="uni05BB" unicode="&#x5bb;" horiz-adv-x="0" 
d="M53 -71q-20 0 -20 20q0 19 20 19t20 -19q0 -20 -20 -20zM165 -131q-20 0 -20 20q0 19 20 19t20 -19q0 -20 -20 -20zM273 -200q-20 0 -20 20q0 19 20 19t20 -19q0 -20 -20 -20z" />
    <glyph glyph-name="uni05BC" unicode="&#x5bc;" horiz-adv-x="0" 
d="M123 289q-20 0 -20 20q0 19 20 19t20 -19q0 -20 -20 -20z" />
    <glyph glyph-name="uni05BE" unicode="&#x5be;" horiz-adv-x="420" 
d="M421 582h-300l4 18h300z" />
    <glyph glyph-name="uni05BF" unicode="&#x5bf;" horiz-adv-x="0" 
d="M420 687h-300l3 17h300z" />
    <glyph glyph-name="uni05C0" unicode="&#x5c0;" horiz-adv-x="307" 
d="M109 0l144 820h20l-144 -820h-20z" />
    <glyph glyph-name="uni05C1" unicode="&#x5c1;" horiz-adv-x="0" 
d="M163 682q-20 0 -20 20q0 19 20 19t20 -19q0 -20 -20 -20z" />
    <glyph glyph-name="uni05C2" unicode="&#x5c2;" horiz-adv-x="0" 
d="M167 682q-20 0 -20 20q0 19 20 19t20 -19q0 -20 -20 -20z" />
    <glyph glyph-name="uni05C3" unicode="&#x5c3;" horiz-adv-x="236" 
d="M186 562q-22 0 -22 22q0 21 22 21q21 0 21 -21q0 -10 -6 -16t-15 -6zM86 -6q-22 0 -22 22q0 21 22 21q21 0 21 -21q0 -10 -6 -16t-15 -6z" />
    <glyph glyph-name="uni05C7" unicode="&#x5c7;" horiz-adv-x="0" 
d="M281 -68l-3 -17h-141l-25 -132h-17l24 132h-141l3 17h300z" />
    <glyph glyph-name="uni05D0" unicode="&#x5d0;" horiz-adv-x="638" 
d="M599 470q-31 -174 -179 -277l129 -193h-24l-262 393q-140 -99 -168 -263l-23 -130h-21l23 130q32 177 179 278l-128 192h24l261 -391q70 50 111.5 113t57.5 148l23 130h20z" />
    <glyph glyph-name="uni05D1" unicode="&#x5d1;" horiz-adv-x="661" 
d="M453 19h151l-3 -19h-557l3 19h385l58 329q19 108 -22.5 170.5t-142.5 62.5h-178l3 19h181q109 0 154.5 -68t25.5 -180z" />
    <glyph glyph-name="uni05D2" unicode="&#x5d2;" horiz-adv-x="482" 
d="M222 600q94 0 136.5 -62.5t40.5 -190.5l-5 -347h-21l4 238q-132 -1 -204.5 -52.5t-91.5 -155.5l-5 -30h-21l5 30q20 115 98.5 170.5t219.5 57.5l1 85q2 123 -36 180.5t-125 57.5h-63l4 19h63z" />
    <glyph glyph-name="uni05D3" unicode="&#x5d3;" horiz-adv-x="593" 
d="M630 600l-4 -20h-152l-102 -580h-21l102 580h-361l4 20h534z" />
    <glyph glyph-name="uni05D4" unicode="&#x5d4;" horiz-adv-x="701" 
d="M549 0l61 348q19 108 -22.5 170.5t-142.5 62.5h-275l4 19h277q109 0 155 -68t26 -180l-62 -352h-21zM68 0l58 330h21l-58 -330h-21z" />
    <glyph glyph-name="uni05D5" unicode="&#x5d5;" horiz-adv-x="283" 
d="M96 0l106 600h21l-106 -600h-21z" />
    <glyph glyph-name="uni05D6" unicode="&#x5d6;" horiz-adv-x="377" 
d="M106 600h313l-4 -19q-85 0 -130 -44.5t-63 -144.5l-69 -392h-21l69 393q26 152 121 188h-220z" />
    <glyph glyph-name="uni05D7" unicode="&#x5d7;" horiz-adv-x="712" 
d="M68 0l106 600h288q109 0 155 -68t26 -180l-62 -352h-21l61 348q19 108 -22.5 170.5t-142.5 62.5h-265l-102 -581h-21z" />
    <glyph glyph-name="uni05D8" unicode="&#x5d8;" horiz-adv-x="674" 
d="M327 -14q-121 0 -181.5 77.5t-36.5 209.5l58 327h21l-58 -328q-22 -125 32.5 -195.5t167.5 -70.5q109 0 180 70t92 194l14 81q19 106 -22.5 168t-142.5 62h-24l4 19h26q108 0 153.5 -68t26.5 -181l-14 -82q-23 -134 -100 -208.5t-196 -74.5z" />
    <glyph glyph-name="uni05D9" unicode="&#x5d9;" horiz-adv-x="283" 
d="M154 330l48 270h21l-48 -270h-21z" />
    <glyph glyph-name="uni05DA" unicode="&#x5da;" horiz-adv-x="515" 
d="M324 -220l100 569q18 109 -23.5 170.5t-142.5 61.5h-154l4 19h154q108 0 155.5 -66.5t27.5 -181.5l-100 -572h-21z" />
    <glyph glyph-name="uni05DB" unicode="&#x5db;" horiz-adv-x="565" 
d="M26 0l3 20h140q124 0 218.5 71.5t116.5 190.5q24 124 -50.5 211.5t-203.5 87.5h-121l3 19h121q136 0 217 -93t55 -229q-24 -125 -124 -201.5t-234 -76.5h-141z" />
    <glyph glyph-name="uni05DC" unicode="&#x5dc;" horiz-adv-x="551" 
d="M149 600h410l-4 -20q-35 -200 -126.5 -343t-246.5 -241l-12 16q151 95 240 235t124 334h-409l40 239h21z" />
    <glyph glyph-name="uni05DD" unicode="&#x5dd;" horiz-adv-x="722" 
d="M472 600q109 0 155 -68t26 -180l-62 -352h-523l106 600h298zM631 348q19 108 -22.5 170.5t-142.5 62.5h-275l-99 -562h481z" />
    <glyph glyph-name="uni05DE" unicode="&#x5de;" horiz-adv-x="713" 
d="M459 614q110 0 158 -72t27 -190l-62 -352h-256l3 19h235l58 328q19 115 -23 181.5t-145 66.5q-116 0 -202.5 -81.5t-109.5 -212.5l-53 -301h-21l106 600h21l-31 -176q43 89 120 139.5t175 50.5z" />
    <glyph glyph-name="uni05DF" unicode="&#x5df;" horiz-adv-x="283" 
d="M57 -220l145 820h21l-145 -820h-21z" />
    <glyph glyph-name="uni05E0" unicode="&#x5e0;" horiz-adv-x="405" 
d="M169 600q208 0 166 -250l-61 -350h-267l2 19h247l58 330q40 231 -146 231h-20l4 20h17z" />
    <glyph glyph-name="uni05E1" unicode="&#x5e1;" horiz-adv-x="721" 
d="M343 -14q-117 0 -191.5 79.5t-50.5 213.5l57 321h546l-56 -321q-25 -140 -109 -216.5t-196 -76.5zM342 5q102 0 182 71.5t103 202.5l53 302l-505 1l-53 -303q-12 -65 2.5 -118.5t47.5 -86.5t77 -51t93 -18z" />
    <glyph glyph-name="uni05E2" unicode="&#x5e2;" horiz-adv-x="649" 
d="M576 600h21l-14 -204q-26 -207 -123 -301.5t-285 -94.5h-124l1 19h124q78 0 141 17l-201 564h22l199 -557q98 34 152.5 120.5t72.5 232.5z" />
    <glyph glyph-name="uni05E3" unicode="&#x5e3;" horiz-adv-x="647" 
d="M319 600q143 0 208 -84.5t39 -233.5l-89 -502h-21l89 502q25 141 -34.5 220t-189.5 79h-162l-53 -303h195l-4 -18h-215l60 340h177z" />
    <glyph glyph-name="uni05E4" unicode="&#x5e4;" horiz-adv-x="664" 
d="M356 600q144 0 219.5 -91t48.5 -231q-25 -133 -120.5 -205.5t-248.5 -72.5h-189l3 20h188q142 0 232 68t114 192q26 132 -43.5 216.5t-204.5 84.5h-166l-50 -281h206l-3 -18h-226l56 318h184z" />
    <glyph glyph-name="uni05E5" unicode="&#x5e5;" horiz-adv-x="600" 
d="M582 600h21l-15 -80q-26 -151 -91 -242.5t-184 -130.5l-65 -367h-21l65 369l-173 451h23l167 -435q111 37 172 124.5t86 230.5z" />
    <glyph glyph-name="uni05E6" unicode="&#x5e6;" horiz-adv-x="606" 
d="M568 470q-30 -168 -175 -269l117 -182h1l-3 -19h-499l3 19h475l-374 581h24l247 -384q136 98 163 254l23 130h21z" />
    <glyph glyph-name="uni05E7" unicode="&#x5e7;" horiz-adv-x="611" 
d="M242 -4l-12 16q151 95 240 235t124 334h-432l3 19h454l-4 -20q-36 -200 -127.5 -343.5t-245.5 -240.5zM32 -220l95 550h21l-95 -550h-21z" />
    <glyph glyph-name="uni05E8" unicode="&#x5e8;" horiz-adv-x="566" 
d="M414 0l61 348q22 119 -19 176t-147 57h-204l4 19h207q224 0 180 -248l-61 -352h-21z" />
    <glyph glyph-name="uni05E9" unicode="&#x5e9;" horiz-adv-x="778" 
d="M732 600h21l-50 -283q-28 -155 -117 -243t-219 -88q-139 0 -207.5 92t-41.5 243l49 279h21l-50 -280q-27 -151 45 -239q190 63 226 264l45 255h21l-45 -256q-38 -210 -233 -278q63 -61 171 -61q121 0 204 83t110 230z" />
    <glyph glyph-name="uni05EA" unicode="&#x5ea;" horiz-adv-x="696" 
d="M-23 0l3 19h7q70 0 109 37t53 115l77 429h218q109 0 155.5 -68.5t26.5 -181.5l-61 -350h-21l61 349q19 107 -22.5 169.5t-142.5 62.5h-197l-73 -410q-16 -89 -60 -130t-124 -41h-9z" />
    <glyph glyph-name="uni05F0" unicode="&#x5f0;" horiz-adv-x="566" 
d="M96 0l106 600h21l-106 -600h-21zM379 0l106 600h21l-106 -600h-21z" />
    <glyph glyph-name="uni05F1" unicode="&#x5f1;" horiz-adv-x="526" 
d="M154 330l48 270h21l-48 -270h-21zM339 0l106 600h21l-106 -600h-21z" />
    <glyph glyph-name="uni05F2" unicode="&#x5f2;" horiz-adv-x="526" 
d="M154 330l48 270h21l-48 -270h-21zM397 330l48 270h21l-48 -270h-21z" />
    <glyph glyph-name="uni05F3" unicode="&#x5f3;" horiz-adv-x="226" 
d="M120 343l-17 7l97 255l19 -7z" />
    <glyph glyph-name="uni05F4" unicode="&#x5f4;" horiz-adv-x="406" 
d="M120 343l-17 7l97 255l19 -7zM300 343l-17 7l97 255l19 -7z" />
    <glyph glyph-name="uni1E30" unicode="&#x1e30;" horiz-adv-x="635" 
d="M547 798l-218 -98l-7 16l217 98zM347 308q110 -23 162 -105t31 -203h-21q24 135 -46 217t-209 82h-122l-53 -299h-21l106 600h21l-50 -283h121q129 0 228.5 80.5t121.5 202.5h21q-19 -109 -98.5 -189t-191.5 -103z" />
    <glyph glyph-name="uni1E31" unicode="&#x1e31;" horiz-adv-x="489" 
d="M298 779l-175 -129l-11 13l175 130zM459 410q-13 -80 -71.5 -134t-146.5 -71q83 -14 122 -68t24 -137h-20q16 90 -33.5 142.5t-148.5 52.5h-74l-34 -195h-20l105 600h20l-68 -387h52q107 0 182 54.5t91 142.5h20z" />
    <glyph glyph-name="uni1E40" unicode="&#x1e40;" horiz-adv-x="826" 
d="M510 728q-21 0 -21 22q0 21 21 21q22 0 22 -21q0 -22 -22 -22zM728 600h26l-66 -600h-20l62 572l-329 -492h-18l-155 494l-140 -574h-20l146 600h26l156 -494z" />
    </font>
</defs>
</svg>
