<?xml version="1.0" standalone="no"?>
<!DOCTYPE svg PUBLIC "-//W3C//DTD SVG 1.1//EN" "http://www.w3.org/Graphics/SVG/1.1/DTD/svg11.dtd" >
<svg xmlns="http://www.w3.org/2000/svg" xmlns:xlink="http://www.w3.org/1999/xlink" version="1.1">
<metadata>
Created by FontForge 20170731 at Mon Jun 27 15:24:17 2016
 By Aleksey,,,
Created by Christian Thalmann with Glyphs in 2015-2016.
</metadata>
<defs>
<font id="Quinoa-Medium" horiz-adv-x="0" >
  <font-face 
    font-family="Quinoa-Medium"
    font-weight="400"
    font-stretch="normal"
    units-per-em="1000"
    panose-1="0 0 6 0 0 0 0 0 0 0"
    ascent="754"
    descent="-246"
    x-height="400"
    cap-height="600"
    bbox="-599 -475 1369 1023"
    underline-thickness="50"
    underline-position="-150"
    unicode-range="U+0020-FEFC"
  />
<missing-glyph horiz-adv-x="460" 
d="M377 700v-920h-291v920h291zM306 638h-151v-30h59v-34h-60v-30h152v30h-60v34h60v30zM246 520h-92v-96h152v31h-60v65zM214 488v-33h-30v33h30zM306 399h-152v-30h60v-34h-60v-31h92v65h60v30zM306 344h-30v-61h-122v-31h152v92zM306 232h-92v-52h32v21h30v-43h-92v74
h-30v-104h152v104zM306 73h-152v-104h152v104zM276 42v-43h-92v43h92zM306 -53h-152v-30h64l-64 -43v-31h152v31h-93l64 43h29v30z" />
    <glyph glyph-name="uniFDF2" unicode="&#x627;&#xfedf;&#xfee0;&#xfeea;" horiz-adv-x="1303" arabic-form="isolated" 
d="M672 888v-151h-39v151h39zM589 513q-36 0 -58 27t-22 80v45h39v-42q0 -70 42 -70q45 0 45 77v64h36v-36q0 -66 41 -66q45 0 45 75v68h39v-66q0 -117 -80 -117q-33 0 -51 20q-17 -59 -76 -59zM896 148v452h55v-447q0 -153 -136 -153h-548q-112 0 -170 54t-58 145
q0 92 58.5 146.5t158.5 54.5h153v-349h224v449h55v-449h124q84 0 84 97zM1144 600h55v-600h-55v600zM267 51h87v298h-94q-77 0 -121.5 -41t-44.5 -110t42.5 -108t130.5 -39z" />
    <glyph glyph-name="uniFEF5" unicode="&#xfedf;&#xfe82;" horiz-adv-x="512" arabic-form="isolated" 
d="M225 664q0 -28 -6.5 -47t-15 -29t-25.5 -15t-29 -6t-34 -1q-26 0 -37.5 -1.5t-26 -8t-20 -22t-5.5 -41.5h-41q0 32 6.5 54t15.5 33t27 17t31 7t38 1q29 0 43.5 2.5t26 16t11.5 40.5h41zM354 285q49 -18 76 -54t27 -83q0 -71 -55.5 -115.5t-145.5 -44.5t-145.5 44.5
t-55.5 115.5q0 47 27 83t76 54q-46 22 -71.5 65.5t-25.5 100.5v29h55v-29q0 -64 38.5 -102.5t101.5 -38.5t101.5 38.5t38.5 102.5v148h55v-148q0 -57 -25.5 -100.5t-71.5 -65.5zM256 39q66 0 106 30.5t40 80.5t-40 80t-106 30t-106 -30t-40 -80t40 -80.5t106 -30.5z" />
    <glyph glyph-name="uniFEF6" unicode="&#xfee0;&#xfe82;" horiz-adv-x="531" arabic-form="final" 
d="M238 671q0 -28 -6.5 -47t-15 -29t-25.5 -15t-29 -6t-34 -1q-26 0 -37.5 -1.5t-26 -8t-20 -22t-5.5 -41.5h-41q0 32 6.5 54t15.5 33t27 17t31 7t38 1q29 0 43.5 2.5t26 16t11.5 40.5h41zM445 51h96v-51h-475v51h161l-133 429h59l130 -429h107v549h55v-549z" />
    <glyph glyph-name="uniFEF7" unicode="&#xfedf;&#xfe84;" horiz-adv-x="512" arabic-form="isolated" 
d="M55 487l-27 35l65 41q-41 6 -66.5 34.5t-25.5 69.5q0 46 31 75.5t80 29.5q57 0 89 -40l-29 -26q-23 26 -59 26q-29 0 -48.5 -18.5t-19.5 -47.5t20 -48.5t50 -19.5q32 0 60 16l3 2l22 -33zM354 285q49 -18 76 -54t27 -83q0 -71 -55.5 -115.5t-145.5 -44.5t-145.5 44.5
t-55.5 115.5q0 47 27 83t76 54q-46 22 -71.5 65.5t-25.5 100.5v29h55v-29q0 -64 38.5 -102.5t101.5 -38.5t101.5 38.5t38.5 102.5v148h55v-148q0 -57 -25.5 -100.5t-71.5 -65.5zM256 39q66 0 106 30.5t40 80.5t-40 80t-106 30t-106 -30t-40 -80t40 -80.5t106 -30.5z" />
    <glyph glyph-name="uniFEF8" unicode="&#xfee0;&#xfe84;" horiz-adv-x="531" arabic-form="final" 
d="M138 508q-41 6 -66.5 34.5t-25.5 69.5q0 46 31 75.5t80 29.5q57 0 89 -40l-29 -26q-23 26 -59 26q-29 0 -48.5 -18.5t-19.5 -47.5t20 -48.5t50 -19.5q32 0 60 16l3 2l22 -33l-145 -96l-27 35zM436 51h96v-51h-475v51h161l-109 349h59l106 -349h107v549h55v-549z" />
    <glyph glyph-name="uniFEF9" unicode="&#xfedf;&#xfe88;" horiz-adv-x="512" arabic-form="isolated" 
d="M354 285q103 -39 103 -141q0 -72 -54.5 -115t-146.5 -43t-146.5 43t-54.5 115q0 102 103 141q-46 22 -71.5 65.5t-25.5 100.5v149h55v-149q0 -64 38.5 -102.5t101.5 -38.5t101.5 38.5t38.5 102.5v148h55v-148q0 -57 -25.5 -100.5t-71.5 -65.5zM256 37q67 0 106.5 30
t39.5 80q0 52 -40 82.5t-106 30.5t-106 -30.5t-40 -82.5q0 -50 39.5 -80t106.5 -30zM273 -84q-29 0 -48.5 -18t-19.5 -47t20 -48.5t50 -19.5q35 0 63 17l22 -32l-146 -96l-26 35l64 40q-40 6 -65.5 35t-25.5 70q0 46 31 75.5t80 29.5q57 0 89 -40l-29 -27q-22 26 -59 26z
" />
    <glyph glyph-name="uniFEFA" unicode="&#xfee0;&#xfe88;" horiz-adv-x="526" arabic-form="final" 
d="M432 51h95v-51h-475v51h157l-151 499h59l148 -499h112v549h55v-549zM319 -84q-29 0 -48.5 -18t-19.5 -47t20 -48.5t50 -19.5q35 0 63 17l22 -32l-146 -96l-26 35l64 40q-40 6 -65.5 35t-25.5 70q0 46 31 75.5t80 29.5q57 0 89 -40l-29 -27q-22 26 -59 26z" />
    <glyph glyph-name="uniFEFB" unicode="&#xfedf;&#xfe8e;" horiz-adv-x="512" arabic-form="isolated" 
d="M354 285q103 -39 103 -141q0 -72 -54.5 -115t-146.5 -43t-146.5 43t-54.5 115q0 102 103 141q-46 22 -71.5 65.5t-25.5 100.5v149h55v-149q0 -64 38.5 -102.5t101.5 -38.5t101.5 38.5t38.5 102.5v148h55v-148q0 -57 -25.5 -100.5t-71.5 -65.5zM256 37q67 0 106.5 30
t39.5 80q0 52 -40 82.5t-106 30.5t-106 -30.5t-40 -82.5q0 -50 39.5 -80t106.5 -30z" />
    <glyph glyph-name="uniFEFC" unicode="&#xfee0;&#xfe8e;" horiz-adv-x="526" arabic-form="final" 
d="M432 51h95v-51h-475v51h157l-151 499h59l148 -499h112v549h55v-549z" />
    <glyph glyph-name="Iacute_J_acutecomb.liga" unicode="&#xcd;J&#x301;" horiz-adv-x="667" 
d="M469 687l-20 43l200 98l22 -47zM87 678l-20 43l200 98l22 -47zM145 240q0 -92 55 -146t134 -54q80 0 135 53t55 145v362h59v-363q0 -116 -71 -183.5t-178 -67.5t-178.5 68t-71.5 186v10h61v-10zM84 369v231h61v-231h-61z" />
    <glyph glyph-name="Q_U.liga" unicode="QU" horiz-adv-x="1418" 
d="M1044 -172q125 0 252 48l20 -47q-140 -52 -274 -52q-161 0 -307 60t-247 170q-56 -21 -123 -21q-139 0 -228 88t-89 226t89 226t229 88q139 0 228 -88t89 -226q0 -87 -37 -156t-102 -110q91 -98 222.5 -152t277.5 -54zM1275 600h59v-337q0 -124 -73 -200.5t-190 -76.5
q-115 0 -185.5 77t-70.5 204v333h59v-334q0 -103 55 -164.5t145 -61.5t145.5 61.5t55.5 162.5v336zM109 300q0 -114 72 -187t184 -73t184.5 72.5t72.5 187.5t-72 187.5t-185 72.5q-112 0 -184 -73t-72 -187z" />
    <glyph glyph-name="Q_u.liga" unicode="Qu" horiz-adv-x="1243" 
d="M1296 -124l20 -47q-140 -52 -274 -52q-161 0 -307 60t-247 170q-56 -21 -123 -21q-139 0 -228 88t-89 226t89 226t229 88q139 0 228 -88t89 -226q0 -87 -37 -156t-102 -110q91 -98 222.5 -152t277.5 -54q125 0 252 48zM109 300q0 -114 72 -187t184 -73t184.5 72.5
t72.5 187.5t-72 187.5t-185 72.5q-112 0 -184 -73t-72 -187zM954 -12q-73 0 -114 46.5t-41 131.5v234h55v-220q0 -142 113 -142q63 0 105 44t42 112v206h55v-400h-54v69q-55 -81 -161 -81z" />
    <glyph glyph-name="f_adieresis.liga" unicode="f&#xe4;" horiz-adv-x="855" 
d="M169 498v-103h156v-47h-156v-348h-55v348h-80v47h80v94q0 100 58.5 160t144.5 60q83 0 138.5 -52t55.5 -141h-55q0 64 -40 103t-100 39q-64 0 -105.5 -43.5t-41.5 -116.5zM684 518q-18 0 -29 11.5t-11 29.5t11 29t29 11t29.5 -11t11.5 -29t-11.5 -29.5t-29.5 -11.5z
M728 400h54v-400h-54v73q-53 -85 -158 -85q-84 0 -141.5 60.5t-57.5 151.5t57.5 151.5t141.5 60.5q105 0 158 -85v73zM577 38q64 0 109 45.5t45 116.5t-44.5 116.5t-108.5 45.5t-108 -45t-44 -117t44 -117t107 -45z" />
    <glyph glyph-name="f_b.liga" unicode="fb" horiz-adv-x="882" 
d="M648 412q85 0 142 -60t57 -152t-57 -152t-142 -60q-104 0 -157 84v-72h-55v500q0 74 -37 116t-96 42t-96.5 -41.5t-37.5 -113.5v-109h156v-46h-156v-348h-55v348h-80v46h80v99q0 101 53 158t138 57q84 0 135 -56t51 -152v-172q53 84 157 84zM641 38q64 0 108 45t44 117
t-44 117t-109 45q-64 0 -108.5 -45.5t-44.5 -116.5t45 -116.5t109 -45.5z" />
    <glyph glyph-name="f_f.liga" unicode="ff" horiz-adv-x="649" 
d="M624 656q-71 0 -110 -46t-39 -134v-81h150v-47h-150v-348h-55v348h-251v-348h-55v348h-80v47h80v73q0 110 55.5 175t149.5 65q93 0 154 -64q55 64 152 64h28v-52h-29zM420 395v72q0 75 24 129q-47 61 -127 61q-67 0 -107.5 -49t-40.5 -136v-77h251z" />
    <glyph glyph-name="f_f_adieresis.liga" unicode="ff&#xe4;" horiz-adv-x="1166" 
d="M479 498v-103h156v-47h-156v-348h-55v348h-255v-348h-55v348h-80v47h80v73q0 110 55.5 175t149.5 65q96 0 156 -67q59 68 152 68q83 0 138.5 -52t55.5 -141h-55q0 64 -40 103t-100 39q-64 0 -105.5 -43.5t-41.5 -116.5zM424 395v94q0 57 21 105q-45 63 -128 63
q-67 0 -107.5 -49t-40.5 -136v-77h255zM994 518q-18 0 -29 11.5t-11 29.5t11 29t29 11t29.5 -11t11.5 -29t-11.5 -29.5t-29.5 -11.5zM1038 400h54v-400h-54v73q-53 -85 -158 -85q-84 0 -141.5 60.5t-57.5 151.5t57.5 151.5t141.5 60.5q105 0 158 -85v73zM887 38
q64 0 109 45.5t45 116.5t-44.5 116.5t-108.5 45.5t-108 -45t-44 -117t44 -117t107 -45z" />
    <glyph glyph-name="f_f_b.liga" unicode="ffb" horiz-adv-x="1197" 
d="M963 412q85 0 142 -60t57 -152t-57 -152t-142 -60q-104 0 -157 84v-72h-55v500q0 74 -37 116t-96 42t-96.5 -41.5t-37.5 -113.5v-109h156v-46h-156v-348h-55v348h-260v-348h-55v348h-80v47h80v73q0 110 55.5 175t149.5 65q95 0 156 -66q52 66 145 66q84 0 135 -56
t51 -152v-172q53 84 157 84zM169 395h260v98q0 55 17 100q-46 64 -129 64q-67 0 -107.5 -49t-40.5 -136v-77zM956 38q64 0 108 45t44 117t-44 117t-109 45q-64 0 -108.5 -45.5t-44.5 -116.5t45 -116.5t109 -45.5z" />
    <glyph glyph-name="f_f_f.liga" unicode="fff" horiz-adv-x="954" 
d="M930 656q-71 0 -110 -46t-39 -134v-81h150v-47h-150v-348h-55v348h-251v-348h-55v348h-251v-348h-55v348h-80v47h80v73q0 110 55.5 175t149.5 65q96 0 156 -66q57 66 150 66t154 -64q55 64 152 64h28v-52h-29zM420 395v73q0 71 25 127q-47 62 -128 62q-67 0 -107.5 -49
t-40.5 -136v-77h251zM726 395v72q0 75 24 129q-47 61 -127 61q-67 0 -107.5 -49t-40.5 -136v-77h251z" />
    <glyph glyph-name="f_f_f_i.liga" unicode="fffi" horiz-adv-x="1200" 
d="M921 657q-60 0 -97 -39.5t-37 -109.5v-113h156v-47h-156v-348h-55v348h-259v-348h-55v348h-249v-348h-55v348h-80v47h80v73q0 110 55.5 175t149.5 65q95 0 155 -65q54 65 149 65q93 0 154 -64q52 64 144 64q85 0 136.5 -52t51.5 -135h-55q0 61 -36.5 98.5t-96.5 37.5z
M418 395v73q0 73 26 128q-47 61 -127 61q-67 0 -107.5 -49t-40.5 -136v-77h249zM732 395v104q0 53 17 96q-47 62 -128 62q-67 0 -107.5 -49t-40.5 -136v-77h259zM1053 0v400h55v-400h-55z" />
    <glyph glyph-name="f_f_f_j.liga" unicode="fffj" horiz-adv-x="1193" 
d="M943 395v-47h-156v-348h-55v348h-259v-348h-55v348h-249v-348h-55v348h-80v47h80v73q0 110 55.5 175t149.5 65q95 0 155 -65q54 65 149 65q93 0 154 -64q52 64 144 64q85 0 136.5 -52t51.5 -135h-55q0 61 -36.5 98.5t-96.5 37.5t-97 -39.5t-37 -109.5v-113h156zM418 395
v73q0 73 26 128q-47 61 -127 61q-67 0 -107.5 -49t-40.5 -136v-77h249zM732 395v104q0 53 17 96q-47 62 -128 62q-67 0 -107.5 -49t-40.5 -136v-77h259zM1053 3v397h55v-393q0 -109 -52.5 -171t-144.5 -62h-24v53h24q66 0 104 45t38 131z" />
    <glyph glyph-name="f_f_f_l.liga" unicode="fffl" horiz-adv-x="1203" 
d="M928 708q87 0 139.5 -54.5t52.5 -147.5l-1 -506h-55l1 506q0 71 -39 111.5t-100 40.5t-99.5 -40t-38.5 -110v-113h156v-47h-156v-348h-55v348h-260v-348h-55v348h-249v-348h-55v348h-80v47h80v73q0 110 55.5 175t149.5 65q95 0 155 -65q54 65 149 65t155 -65
q54 65 150 65zM418 395v73q0 73 26 128q-47 61 -127 61q-67 0 -107.5 -49t-40.5 -136v-77h249zM733 395v104q0 53 17 95q-47 63 -129 63q-67 0 -107.5 -49t-40.5 -136v-77h260z" />
    <glyph glyph-name="f_f_h.liga" unicode="ffh" horiz-adv-x="1196" 
d="M967 412q73 0 114 -47t41 -134v-231h-55v217q0 70 -29 107.5t-85 37.5q-63 0 -105 -44t-42 -112v-206h-55v500q0 74 -37 116t-96 42t-96.5 -41.5t-37.5 -113.5v-109h156v-46h-156v-348h-55v348h-260v-348h-55v348h-80v47h80v73q0 110 55.5 175t149.5 65q95 0 156 -66
q52 66 145 66q84 0 135 -56t51 -152v-169q57 81 161 81zM169 395h260v98q0 55 17 100q-46 64 -129 64q-67 0 -107.5 -49t-40.5 -136v-77z" />
    <glyph glyph-name="f_f_i.liga" unicode="ffi" horiz-adv-x="893" 
d="M618 657q-60 0 -97 -39.5t-37 -109.5v-113h156v-47h-156v-348h-55v348h-260v-348h-55v348h-80v47h80v73q0 110 55.5 175t149.5 65q95 0 155 -65q51 65 144 65q84 0 136 -52t52 -135h-55q0 61 -36.5 98.5t-96.5 37.5zM429 395v104q0 52 17 95q-47 63 -129 63
q-67 0 -107.5 -49t-40.5 -136v-77h260zM750 0v400h55v-400h-55z" />
    <glyph glyph-name="f_f_j.liga" unicode="ffj" horiz-adv-x="893" 
d="M640 395v-47h-156v-348h-55v348h-260v-348h-55v348h-80v47h80v73q0 110 55.5 175t149.5 65q95 0 155 -65q51 65 144 65q84 0 136 -52t52 -135h-55q0 61 -36.5 98.5t-96.5 37.5t-97 -39.5t-37 -109.5v-113h156zM429 395v104q0 52 17 95q-47 63 -129 63q-67 0 -107.5 -49
t-40.5 -136v-77h260zM750 3v397h55v-393q0 -109 -52.5 -171t-144.5 -62h-24v53h24q66 0 104 45t38 131z" />
    <glyph glyph-name="f_f_k.liga" unicode="ffk" horiz-adv-x="1158" 
d="M942 210q75 -18 115.5 -71t40.5 -139h-55q0 86 -49 135t-130 49h-58v-184h-55v506q0 71 -37.5 111.5t-96.5 40.5t-96 -40t-37 -110v-113h156v-47h-156v-348h-55v348h-260v-348h-55v348h-80v47h80v73q0 110 55.5 175t149.5 65q95 0 155 -65q51 65 145 65q84 0 135.5 -54.5
t51.5 -147.5v-275h38q85 0 142 51.5t57 127.5h55q0 -71 -42 -124.5t-114 -75.5zM429 395v104q0 52 16 95q-45 63 -128 63q-67 0 -107.5 -49t-40.5 -136v-77h260z" />
    <glyph glyph-name="f_f_l.liga" unicode="ffl" horiz-adv-x="900" 
d="M624 708q87 0 139.5 -54.5t52.5 -147.5l-1 -506h-55l1 506q0 71 -39 111.5t-100 40.5t-99.5 -40t-38.5 -110v-113h156v-47h-156v-348h-55v348h-260v-348h-55v348h-80v47h80v73q0 110 55.5 175t149.5 65q95 0 155 -65q54 65 150 65zM429 395v104q0 53 17 95
q-47 63 -129 63q-67 0 -107.5 -49t-40.5 -136v-77h260z" />
    <glyph glyph-name="f_f_odieresis.liga" unicode="ff&#xf6;" horiz-adv-x="1135" 
d="M478 492v-97h156v-47h-156v-348h-55v348h-254v-348h-55v348h-80v47h80v73q0 110 55.5 175t149.5 65q96 0 157 -67q57 68 150 68q83 0 138.5 -52t55.5 -141h-55q0 64 -40 103t-100 39q-64 0 -105.5 -45t-41.5 -121zM423 395v88q0 63 23 111q-47 63 -129 63
q-67 0 -107.5 -49t-40.5 -136v-77h254zM988 518q-18 0 -29 11.5t-11 29.5t11 29t29 11t29.5 -11t11.5 -29t-11.5 -29.5t-29.5 -11.5zM890 412q92 0 151 -59.5t59 -152.5t-59.5 -152.5t-151.5 -59.5t-151 59.5t-59 152.5t59.5 152.5t151.5 59.5zM890 39q68 0 111.5 45.5
t43.5 116.5q0 70 -44 115t-112 45t-111.5 -45t-43.5 -115q0 -71 44 -116.5t112 -45.5z" />
    <glyph glyph-name="f_f_ohungarumlaut.liga" unicode="ff&#x151;" horiz-adv-x="1126" 
d="M479 487v-92h150v-47h-150v-348h-55v348h-255v-348h-55v348h-80v47h80v73q0 110 55.5 175t149.5 65q95 0 155 -66q54 66 152 66q61 0 110 -32l-25 -47q-39 28 -87 28q-68 0 -106.5 -44t-38.5 -126zM424 395v83q0 66 21 116q-45 63 -128 63q-67 0 -107.5 -49t-40.5 -136
v-77h255zM932 607l-154 -128l-31 37l152 130zM947 479l-31 37l152 130l33 -39zM892 412q92 0 151 -59.5t59 -152.5t-59.5 -152.5t-151.5 -59.5t-151 59.5t-59 152.5t59.5 152.5t151.5 59.5zM892 39q68 0 111.5 45.5t43.5 116.5q0 70 -44 115t-112 45t-111.5 -45t-43.5 -115
q0 -71 44 -116.5t112 -45.5z" />
    <glyph glyph-name="f_f_thorn.liga" unicode="ff&#xfe;" horiz-adv-x="1198" 
d="M963 412q85 0 142.5 -60t57.5 -152t-57.5 -152t-142.5 -60q-104 0 -157 84v-292h-54v720q0 74 -37.5 116t-96.5 42t-96.5 -41.5t-37.5 -113.5v-109h156v-46h-156v-348h-55v348h-260v-348h-55v348h-80v47h80v73q0 110 55.5 175t149.5 65q95 0 156 -66q52 66 145 66
q84 0 135 -56t51 -152v-172q53 84 157 84zM169 395h260v98q0 55 17 100q-46 64 -129 64q-67 0 -107.5 -49t-40.5 -136v-77zM956 38q65 0 109 45t44 117t-44 117t-109 45q-64 0 -108.5 -45.5t-44.5 -116.5t44.5 -116.5t108.5 -45.5z" />
    <glyph glyph-name="f_f_t.liga" unicode="fft" horiz-adv-x="997" 
d="M946 82l34 -36q-52 -58 -126 -58q-70 0 -109 42t-39 117v201h-230v-348h-55v348h-252v-348h-55v348h-80v47h80v73q0 110 55.5 175t149.5 65q95 0 155 -65q53 65 146 65q92 0 145 -58l-38 -36q-43 43 -107 43q-66 0 -105 -46t-39 -129v-87h230v94h55v-94h189v-47h-189
v-201q0 -50 24 -78.5t72 -28.5t89 42zM421 395v77q0 70 23 124q-46 61 -127 61q-67 0 -107.5 -49t-40.5 -136v-77h252z" />
    <glyph glyph-name="f_f_udieresis.liga" unicode="ff&#xfc;" horiz-adv-x="1162" 
d="M478 492v-97h156v-47h-156v-348h-55v348h-254v-348h-55v348h-80v47h80v73q0 110 55.5 175t149.5 65q96 0 157 -67q57 68 150 68q83 0 138.5 -52t55.5 -141h-55q0 64 -40 103t-100 39q-64 0 -105.5 -45t-41.5 -121zM423 395v88q0 63 23 111q-47 63 -129 63
q-67 0 -107.5 -49t-40.5 -136v-77h254zM997 518q-18 0 -29 11.5t-11 29.5t11 29t29 11t29.5 -11t11.5 -29t-11.5 -29.5t-29.5 -11.5zM1033 400h55v-400h-54v69q-55 -81 -161 -81q-73 0 -114 46.5t-41 131.5v234h55v-220q0 -142 113 -142q63 0 105 44t42 112v206z" />
    <glyph glyph-name="f_f_uhungarumlaut.liga" unicode="ff&#x171;" horiz-adv-x="1162" 
d="M624 657q-68 0 -106.5 -44t-38.5 -126v-92h150v-47h-150v-348h-55v348h-255v-348h-55v348h-80v47h80v73q0 110 55.5 175t149.5 65q95 0 155 -66q54 66 152 66q61 0 110 -32l-25 -47q-39 28 -87 28zM424 395v83q0 66 21 116q-45 63 -128 63q-67 0 -107.5 -49t-40.5 -136
v-77h255zM957 607l-154 -128l-31 37l152 130zM972 479l-31 37l152 130l33 -39zM1044 194v206h55v-400h-54v69q-55 -81 -161 -81q-73 0 -114 46.5t-41 131.5v234h55v-220q0 -142 113 -142q63 0 105 44t42 112z" />
    <glyph glyph-name="f_h.liga" unicode="fh" horiz-adv-x="880" 
d="M652 412q73 0 114 -47t41 -134v-231h-55v217q0 70 -29 107.5t-85 37.5q-63 0 -105 -44t-42 -112v-206h-55v500q0 74 -37 116t-96 42t-96.5 -41.5t-37.5 -113.5v-109h156v-46h-156v-348h-55v348h-80v46h80v99q0 101 53 158t138 57q84 0 135 -56t51 -152v-169q57 81 161 81
z" />
    <glyph glyph-name="f_i.liga" unicode="fi" horiz-adv-x="583" 
d="M114 0v348h-80v47h80v104q0 96 51.5 152.5t137.5 56.5q85 0 136.5 -52t51.5 -135h-55q0 61 -36.5 98.5t-96.5 37.5t-97 -39.5t-37 -109.5v-113h156v-47h-156v-348h-55zM435 0v400h55v-400h-55z" />
    <glyph glyph-name="f_j.liga" unicode="fj" horiz-adv-x="583" 
d="M114 0v348h-80v47h80v104q0 96 51.5 152.5t137.5 56.5q85 0 136.5 -52t51.5 -135h-55q0 61 -36.5 98.5t-96.5 37.5t-97 -39.5t-37 -109.5v-113h156v-47h-156v-348h-55zM269 -226v53h24q66 0 104 45t38 131v397h55v-393q0 -109 -52.5 -171t-144.5 -62h-24z" />
    <glyph glyph-name="f_k.liga" unicode="fk" horiz-adv-x="843" 
d="M627 210q75 -18 115.5 -71t40.5 -139h-55q0 86 -49 135t-130 49h-58v-184h-55v506q0 71 -37.5 111.5t-96.5 40.5t-96 -40t-37 -110v-113h156v-47h-156v-348h-55v348h-80v47h80v104q0 98 52.5 153.5t137.5 55.5q84 0 135.5 -54.5t51.5 -147.5v-275h38q85 0 142 51.5
t57 127.5h55q0 -71 -42 -124.5t-114 -75.5z" />
    <glyph glyph-name="f_l.liga" unicode="fl" horiz-adv-x="585" 
d="M114 0v348h-80v47h80v104q0 98 54 153.5t141 55.5t139.5 -54.5t52.5 -147.5l-1 -506h-55l1 506q0 71 -39 111.5t-100 40.5t-99.5 -40t-38.5 -110v-113h156v-47h-156v-348h-55z" />
    <glyph glyph-name="f_odieresis.liga" unicode="f&#xf6;" horiz-adv-x="826" 
d="M114 0v348h-80v47h80v88q0 103 58.5 164.5t144.5 61.5q83 0 138.5 -52t55.5 -141h-55q0 64 -40 103t-100 39q-64 0 -105.5 -45t-41.5 -121v-97h156v-47h-156v-348h-55zM679 518q-18 0 -29 11.5t-11 29.5t11 29t29 11t29.5 -11t11.5 -29t-11.5 -29.5t-29.5 -11.5zM580 -12
q-92 0 -151 59.5t-59 152.5t59.5 152.5t151.5 59.5t151 -59.5t59 -152.5t-59.5 -152.5t-151.5 -59.5zM581 39q68 0 111.5 45.5t43.5 116.5q0 70 -44 115t-112 45t-111.5 -45t-43.5 -115q0 -71 44 -116.5t112 -45.5z" />
    <glyph glyph-name="f_ohungarumlaut.liga" unicode="f&#x151;" horiz-adv-x="827" 
d="M169 487v-92h150v-47h-150v-348h-55v348h-80v47h80v83q0 107 54 168.5t148 61.5q61 0 110 -32l-25 -47q-39 28 -87 28q-68 0 -106.5 -44t-38.5 -126zM622 607l-154 -128l-31 37l152 130zM637 479l-31 37l152 130l33 -39zM582 412q92 0 151 -59.5t59 -152.5t-59.5 -152.5
t-151.5 -59.5t-151 59.5t-59 152.5t59.5 152.5t151.5 59.5zM582 39q68 0 111.5 45.5t43.5 116.5q0 70 -44 115t-112 45t-111.5 -45t-43.5 -115q0 -71 44 -116.5t112 -45.5z" />
    <glyph glyph-name="f_thorn.liga" unicode="f&#xfe;" horiz-adv-x="883" 
d="M648 412q85 0 142.5 -60t57.5 -152t-57.5 -152t-142.5 -60q-104 0 -157 84v-292h-54v720q0 74 -37.5 116t-96.5 42t-96.5 -41.5t-37.5 -113.5v-109h156v-46h-156v-348h-55v348h-80v46h80v99q0 101 53 158t138 57q84 0 135 -56t51 -152v-172q53 84 157 84zM641 38
q65 0 109 45t44 117t-44 117t-109 45q-64 0 -108.5 -45.5t-44.5 -116.5t44.5 -116.5t108.5 -45.5z" />
    <glyph glyph-name="f_t.liga" unicode="ft" horiz-adv-x="690" 
d="M639 82l34 -36q-52 -58 -126 -58q-70 0 -109 42t-39 117v201h-230v-348h-55v348h-80v47h80v77q0 110 54 173t145 63q92 0 145 -58l-38 -36q-43 43 -107 43q-66 0 -105 -46t-39 -129v-87h230v94h55v-94h189v-47h-189v-201q0 -50 24 -78.5t72 -28.5t89 42z" />
    <glyph glyph-name="f_udieresis.liga" unicode="f&#xfc;" horiz-adv-x="854" 
d="M169 492v-97h156v-47h-156v-348h-55v348h-80v47h80v88q0 103 58.5 164.5t144.5 61.5q83 0 138.5 -52t55.5 -141h-55q0 64 -40 103t-100 39q-64 0 -105.5 -45t-41.5 -121zM688 518q-18 0 -29 11.5t-11 29.5t11 29t29 11t29.5 -11t11.5 -29t-11.5 -29.5t-29.5 -11.5z
M724 400h55v-400h-54v69q-55 -81 -161 -81q-73 0 -114 46.5t-41 131.5v234h55v-220q0 -142 113 -142q63 0 105 44t42 112v206z" />
    <glyph glyph-name="f_uhungarumlaut.liga" unicode="f&#x171;" horiz-adv-x="863" 
d="M314 657q-68 0 -106.5 -44t-38.5 -126v-92h150v-47h-150v-348h-55v348h-80v47h80v83q0 107 54 168.5t148 61.5q61 0 110 -32l-25 -47q-39 28 -87 28zM647 607l-154 -128l-31 37l152 130zM662 479l-31 37l152 130l33 -39zM734 194v206h55v-400h-54v69q-55 -81 -161 -81
q-73 0 -114 46.5t-41 131.5v234h55v-220q0 -142 113 -142q63 0 105 44t42 112z" />
    <glyph glyph-name="uni00ED02370301.liga" unicode="&#xed;&#x237;&#x301;" horiz-adv-x="517" 
d="M251 607l-154 -128l-31 37l152 130zM520 607l-154 -128l-31 37l152 130zM389 400h54l1 -412q0 -104 -53 -161.5t-146 -57.5q-110 0 -170 70l39 36q49 -54 132 -54q67 0 105 43t38 122v83q-55 -81 -161 -81q-73 0 -114 47.5t-41 133.5v231h55v-217q0 -145 113 -145
q64 0 106 44t42 112v206z" />
    <glyph glyph-name="longs_t.liga" unicode="&#x17f;t" horiz-adv-x="699" 
d="M648 82l34 -36q-54 -58 -127 -58q-70 0 -108.5 42t-38.5 117v206h-90v47h90v102q0 76 -33.5 115.5t-92.5 39.5q-58 0 -92 -39.5t-34 -115.5v-502h-55v493q0 102 49 158.5t133 56.5t132 -53t48 -153v-102h189v-47h-189v-206q0 -50 24 -78.5t71 -28.5q49 0 90 42z" />
    <glyph glyph-name="longs_adieresis.liga" unicode="&#x17f;&#xe4;" horiz-adv-x="797" 
d="M417 516q0 65 -35.5 103.5t-90.5 38.5q-59 0 -97 -44.5t-38 -121.5v-492h-55v483q0 105 54 165.5t136 60.5q78 0 129.5 -51.5t51.5 -141.5h-55zM639 518q-17 0 -28 11.5t-11 29.5t11 29t28 11q19 0 30 -11t11 -29t-11 -29.5t-30 -11.5zM670 400h54v-400h-54v82
q-52 -94 -158 -94q-84 0 -141.5 60.5t-57.5 151.5t57.5 151.5t141.5 60.5q106 0 158 -94v82zM519 38q64 0 108.5 45.5t44.5 116.5t-44 116.5t-108 45.5q-65 0 -109 -45t-44 -117t44 -117t108 -45z" />
    <glyph glyph-name="longs_b.liga" unicode="&#x17f;b" horiz-adv-x="850" 
d="M617 412q84 0 141.5 -60.5t57.5 -151.5t-57.5 -151.5t-141.5 -60.5q-105 0 -158 85v-73h-55v505q0 72 -33.5 112.5t-90.5 40.5q-56 0 -90 -39.5t-34 -113.5v-505h-55v496q0 100 48.5 156t130.5 56t130.5 -54.5t48.5 -148.5v-178q53 85 158 85zM609 38q64 0 108 45t44 117
t-44 117t-109 45q-64 0 -108 -45.5t-44 -116.5t44.5 -116.5t108.5 -45.5z" />
    <glyph glyph-name="longs_h.liga" unicode="&#x17f;h" horiz-adv-x="848" 
d="M620 412q73 0 114 -47t41 -134v-231h-54v217q0 69 -29.5 107t-84.5 38q-64 0 -106 -44t-42 -112v-206h-55v505q0 72 -33.5 112.5t-90.5 40.5q-56 0 -90 -39.5t-34 -113.5v-505h-55v496q0 100 48.5 156t130.5 56t130.5 -54.5t48.5 -148.5v-174q57 81 161 81z" />
    <glyph glyph-name="longs_i.liga" unicode="&#x17f;i" horiz-adv-x="545" 
d="M101 0v500q0 95 48.5 151.5t129.5 56.5q79 0 127 -52t48 -135h-55q0 61 -32.5 98.5t-87.5 37.5t-89 -39.5t-34 -108.5v-509h-55zM398 0v400h55v-400h-55z" />
    <glyph glyph-name="longs_j.liga" unicode="&#x17f;j" horiz-adv-x="545" 
d="M101 0v500q0 95 48.5 151.5t129.5 56.5q79 0 127 -52t48 -135h-55q0 61 -32.5 98.5t-87.5 37.5t-89 -39.5t-34 -108.5v-509h-55zM232 -226v53h24q66 0 104 45t38 131v397h55v-393q0 -109 -52.5 -171t-144.5 -62h-24z" />
    <glyph glyph-name="longs_k.liga" unicode="&#x17f;k" horiz-adv-x="810" 
d="M595 210q75 -18 115.5 -71t40.5 -139h-55q0 86 -48.5 135t-130.5 49h-58v-184h-55v505q0 71 -33.5 111.5t-90.5 40.5q-56 0 -90 -39t-34 -113v-505h-55v496q0 100 48.5 156t130.5 56q81 0 130 -54.5t49 -148.5v-274h38q85 0 142 51.5t57 127.5h55q0 -71 -42 -124.5
t-114 -75.5z" />
    <glyph glyph-name="longs_l.liga" unicode="&#x17f;l" horiz-adv-x="557" 
d="M459 650v-650h-55v650h-81q-78 0 -122.5 -44t-44.5 -127v-479h-55v470q0 112 61 171t165 59h78q54 0 54 -50z" />
    <glyph glyph-name="longs_odieresis.liga" unicode="&#x17f;&#xf6;" horiz-adv-x="773" 
d="M101 0v483q0 105 54 165.5t136 60.5q78 0 129.5 -51.5t51.5 -141.5h-55q0 65 -35.5 103.5t-90.5 38.5q-59 0 -97 -44.5t-38 -121.5v-492h-55zM630 518q-18 0 -29 11.5t-11 29.5t11 29t29 11t29.5 -11t11.5 -29t-11.5 -29.5t-29.5 -11.5zM527 -12q-92 0 -151 59.5
t-59 152.5t59 152.5t151 59.5t151.5 -59.5t59.5 -152.5t-59.5 -152.5t-151.5 -59.5zM527 39q68 0 112 45.5t44 116.5t-43.5 115.5t-112.5 44.5q-68 0 -112 -44.5t-44 -115.5q0 -70 44 -116t112 -46z" />
    <glyph glyph-name="longs_thorn.liga" unicode="&#x17f;&#xfe;" horiz-adv-x="850" 
d="M617 412q84 0 141.5 -60.5t57.5 -151.5t-57.5 -151.5t-141.5 -60.5q-105 0 -158 85v-293h-55v725q0 72 -33.5 112.5t-90.5 40.5q-56 0 -90 -39.5t-34 -113.5v-505h-55v496q0 100 48.5 156t130.5 56t130.5 -54.5t48.5 -148.5v-178q53 85 158 85zM608 38q65 0 109 45
t44 117t-44 117t-108 45t-108.5 -45.5t-44.5 -116.5t44 -116.5t108 -45.5z" />
    <glyph glyph-name="longs_longs.liga" unicode="&#x17f;&#x17f;" horiz-adv-x="608" 
d="M591 708h36v-52h-37q-66 0 -104 -44.5t-38 -129.5v-482h-55v473q0 69 22 122q-46 62 -117 62q-65 0 -102.5 -45.5t-37.5 -129.5v-482h-55v481q0 104 53 165.5t143 61.5q87 0 145 -64q53 64 147 64z" />
    <glyph glyph-name="longs_longs_adieresis.liga" unicode="&#x17f;&#x17f;&#xe4;" horiz-adv-x="1097" 
d="M717 516q0 65 -35.5 103.5t-90.5 38.5q-59 0 -97 -44.5t-38 -121.5v-492h-55v483q0 59 19 106q-46 68 -122 68q-65 0 -102.5 -45.5t-37.5 -129.5v-482h-55v481q0 104 53 165.5t143 61.5q92 0 149 -68q54 69 143 69q78 0 129.5 -51.5t51.5 -141.5h-55zM939 518
q-17 0 -28 11.5t-11 29.5t11 29t28 11q19 0 30 -11t11 -29t-11 -29.5t-30 -11.5zM970 400h54v-400h-54v82q-52 -94 -158 -94q-84 0 -141.5 60.5t-57.5 151.5t57.5 151.5t141.5 60.5q106 0 158 -94v82zM819 38q64 0 108.5 45.5t44.5 116.5t-44 116.5t-108 45.5
q-65 0 -109 -45t-44 -117t44 -117t108 -45z" />
    <glyph glyph-name="longs_longs_b.liga" unicode="&#x17f;&#x17f;b" horiz-adv-x="1152" 
d="M918 412q84 0 141.5 -60.5t57.5 -151.5t-57.5 -151.5t-141.5 -60.5q-105 0 -158 85v-73h-55v505q0 72 -33.5 112.5t-90.5 40.5q-56 0 -90 -39.5t-34 -113.5v-505h-55v496q0 55 15 97q-47 64 -119 64q-65 0 -102.5 -45.5t-37.5 -129.5v-482h-55v481q0 104 53 165.5
t143 61.5q89 0 145 -64q49 64 137 64q82 0 130.5 -54.5t48.5 -148.5v-178q53 85 158 85zM910 38q64 0 108 45t44 117t-44 117t-109 45q-64 0 -108 -45.5t-44 -116.5t44.5 -116.5t108.5 -45.5z" />
    <glyph glyph-name="longs_longs_h.liga" unicode="&#x17f;&#x17f;h" horiz-adv-x="1147" 
d="M919 412q73 0 114 -47t41 -134v-231h-54v217q0 69 -29.5 107t-84.5 38q-64 0 -106 -44t-42 -112v-206h-55v505q0 72 -33.5 112.5t-90.5 40.5q-56 0 -90 -39.5t-34 -113.5v-505h-55v496q0 55 15 97q-47 64 -119 64q-65 0 -102.5 -45.5t-37.5 -129.5v-482h-55v481
q0 104 53 165.5t143 61.5q89 0 145 -64q49 64 137 64q82 0 130.5 -54.5t48.5 -148.5v-174q57 81 161 81z" />
    <glyph glyph-name="longs_longs_i.liga" unicode="&#x17f;&#x17f;i" horiz-adv-x="843" 
d="M751 521h-55q0 61 -32.5 98.5t-87.5 37.5t-89 -39.5t-34 -108.5v-509h-55v500q0 54 16 95q-47 62 -118 62q-65 0 -102.5 -45.5t-37.5 -129.5v-482h-55v481q0 104 53 165.5t143 61.5q89 0 144 -63q49 63 135 63q79 0 127 -52t48 -135zM695 0v400h55v-400h-55z" />
    <glyph glyph-name="longs_longs_j.liga" unicode="&#x17f;&#x17f;j" horiz-adv-x="843" 
d="M696 521q0 61 -32.5 98.5t-87.5 37.5t-89 -39.5t-34 -108.5v-509h-55v500q0 54 16 95q-47 62 -118 62q-65 0 -102.5 -45.5t-37.5 -129.5v-482h-55v481q0 104 53 165.5t143 61.5q89 0 144 -63q49 63 135 63q79 0 127 -52t48 -135h-55zM695 3v397h55v-393
q0 -109 -52.5 -171t-144.5 -62h-24v53h24q66 0 104 45t38 131z" />
    <glyph glyph-name="longs_longs_k.liga" unicode="&#x17f;&#x17f;k" horiz-adv-x="1110" 
d="M894 210q75 -18 115.5 -71t40.5 -139h-55q0 86 -48.5 135t-130.5 49h-58v-184h-55v505q0 71 -33.5 111.5t-90.5 40.5q-56 0 -90 -39t-34 -113v-505h-55v496q0 55 15 97q-47 64 -119 64q-65 0 -102.5 -45.5t-37.5 -129.5v-482h-55v481q0 104 53 165.5t143 61.5
q89 0 145 -64q49 64 137 64q81 0 130 -54.5t49 -148.5v-274h38q85 0 142 51.5t57 127.5h55q0 -71 -42 -124.5t-114 -75.5z" />
    <glyph glyph-name="longs_longs_l.liga" unicode="&#x17f;&#x17f;l" horiz-adv-x="843" 
d="M691 700q54 0 54 -50v-650h-55v650h-81q-78 0 -122.5 -44t-44.5 -127v-479h-55v470q0 74 27 124q-46 63 -118 63q-65 0 -102.5 -45.5t-37.5 -129.5v-482h-55v481q0 104 53 165.5t143 61.5q91 0 149 -69q60 61 167 61h78z" />
    <glyph glyph-name="longs_longs_odieresis.liga" unicode="&#x17f;&#x17f;&#xf6;" horiz-adv-x="1072" 
d="M716 516q0 65 -35.5 103.5t-90.5 38.5q-59 0 -97 -44.5t-38 -121.5v-492h-55v483q0 59 19 107q-47 67 -121 67q-65 0 -102.5 -45.5t-37.5 -129.5v-482h-55v481q0 104 53 165.5t143 61.5q92 0 149 -68q52 69 142 69q78 0 129.5 -51.5t51.5 -141.5h-55zM929 518
q-18 0 -29 11.5t-11 29.5t11 29t29 11t29.5 -11t11.5 -29t-11.5 -29.5t-29.5 -11.5zM826 412q92 0 151.5 -59.5t59.5 -152.5t-59.5 -152.5t-151.5 -59.5t-151 59.5t-59 152.5t59 152.5t151 59.5zM826 39q68 0 112 45.5t44 116.5t-43.5 115.5t-112.5 44.5q-68 0 -112 -44.5
t-44 -115.5q0 -70 44 -116t112 -46z" />
    <glyph glyph-name="longs_longs_thorn.liga" unicode="&#x17f;&#x17f;&#xfe;" horiz-adv-x="1152" 
d="M919 412q84 0 141.5 -60.5t57.5 -151.5t-57.5 -151.5t-141.5 -60.5q-105 0 -158 85v-293h-55v725q0 72 -33.5 112.5t-90.5 40.5q-56 0 -90 -39.5t-34 -113.5v-505h-55v496q0 54 15 96q-47 65 -120 65q-65 0 -102.5 -45.5t-37.5 -129.5v-482h-55v481q0 104 53 165.5
t143 61.5q89 0 146 -65q50 65 137 65q82 0 130.5 -54.5t48.5 -148.5v-178q53 85 158 85zM910 38q65 0 109 45t44 117t-44 117t-108 45t-108.5 -45.5t-44.5 -116.5t44 -116.5t108 -45.5z" />
    <glyph glyph-name="longs_longs_longs.liga" unicode="&#x17f;&#x17f;&#x17f;" horiz-adv-x="898" 
d="M881 708h36v-52h-37q-66 0 -104 -44.5t-38 -129.5v-482h-55v473q0 69 22 122q-46 62 -117 62q-65 0 -102.5 -45.5t-37.5 -129.5v-482h-55v481q0 65 21 113q-46 63 -118 63q-65 0 -102.5 -45.5t-37.5 -129.5v-482h-55v481q0 104 53 165.5t143 61.5q89 0 146 -65
q53 65 146 65q87 0 145 -64q53 64 147 64z" />
    <glyph glyph-name="longs_longs_longs_h.liga" unicode="&#x17f;&#x17f;&#x17f;h" horiz-adv-x="1443" 
d="M1214 412q73 0 114 -47t41 -134v-231h-54v217q0 69 -29.5 107t-84.5 38q-64 0 -106 -44t-42 -112v-206h-55v505q0 72 -33.5 112.5t-90.5 40.5q-56 0 -90 -39.5t-34 -113.5v-505h-55v496q0 52 14 94q-47 67 -121 67q-65 0 -102.5 -45.5t-37.5 -129.5v-482h-55v481
q0 65 21 113q-46 63 -118 63q-65 0 -102.5 -45.5t-37.5 -129.5v-482h-55v481q0 104 53 165.5t143 61.5q89 0 146 -65q53 65 146 65q89 0 147 -66q49 66 138 66q82 0 130.5 -54.5t48.5 -148.5v-174q57 81 161 81z" />
    <glyph glyph-name="longs_longs_longs_i.liga" unicode="&#x17f;&#x17f;&#x17f;i" horiz-adv-x="1137" 
d="M1046 521h-55q0 61 -32.5 98.5t-87.5 37.5t-89 -39.5t-34 -108.5v-509h-55v500q0 54 15 94q-46 63 -118 63q-65 0 -102.5 -45.5t-37.5 -129.5v-482h-55v481q0 63 20 112q-47 64 -119 64q-65 0 -102.5 -45.5t-37.5 -129.5v-482h-55v481q0 104 53 165.5t143 61.5
q89 0 147 -66q53 66 147 66q87 0 145 -63q49 63 135 63q79 0 127 -52t48 -135zM990 0v400h55v-400h-55z" />
    <glyph glyph-name="longs_longs_longs_j.liga" unicode="&#x17f;&#x17f;&#x17f;j" horiz-adv-x="1137" 
d="M991 521q0 61 -32.5 98.5t-87.5 37.5t-89 -39.5t-34 -108.5v-509h-55v500q0 54 15 94q-46 63 -118 63q-65 0 -102.5 -45.5t-37.5 -129.5v-482h-55v481q0 63 20 112q-47 64 -119 64q-65 0 -102.5 -45.5t-37.5 -129.5v-482h-55v481q0 104 53 165.5t143 61.5q89 0 147 -66
q53 66 147 66q87 0 145 -63q49 63 135 63q79 0 127 -52t48 -135h-55zM990 3v397h55v-393q0 -109 -52.5 -171t-144.5 -62h-24v53h24q66 0 104 45t38 131z" />
    <glyph glyph-name="longs_longs_longs_k.liga" unicode="&#x17f;&#x17f;&#x17f;k" horiz-adv-x="1402" 
d="M1187 210q75 -18 115.5 -71t40.5 -139h-55q0 86 -48.5 135t-130.5 49h-58v-184h-55v505q0 71 -33.5 111.5t-90.5 40.5q-56 0 -90 -39t-34 -113v-505h-55v496q0 56 15 98q-45 63 -118 63q-65 0 -102.5 -45.5t-37.5 -129.5v-482h-55v481q0 63 20 112q-47 64 -119 64
q-65 0 -102.5 -45.5t-37.5 -129.5v-482h-55v481q0 104 53 165.5t143 61.5q89 0 147 -66q53 66 147 66q87 0 145 -63q48 63 136 63q81 0 130 -54.5t49 -148.5v-274h38q85 0 142 51.5t57 127.5h55q0 -71 -42 -124.5t-114 -75.5z" />
    <glyph glyph-name="longs_longs_longs_l.liga" unicode="&#x17f;&#x17f;&#x17f;l" horiz-adv-x="1135" 
d="M983 700q54 0 54 -50v-650h-55v650h-81q-78 0 -122.5 -44t-44.5 -127v-479h-55v470q0 74 28 127q-47 60 -116 60q-65 0 -102.5 -45.5t-37.5 -129.5v-482h-55v481q0 62 20 111q-47 65 -120 65q-65 0 -102.5 -45.5t-37.5 -129.5v-482h-55v481q0 104 53 165.5t143 61.5
t148 -66q53 66 147 66q90 0 148 -67q61 59 165 59h78z" />
    <glyph glyph-name="longs_longs_longs_t.liga" unicode="&#x17f;&#x17f;&#x17f;t" horiz-adv-x="1286" 
d="M1236 82l34 -36q-54 -58 -127 -58q-70 0 -108.5 42t-38.5 117v206h-90v47h90v102q0 76 -33.5 115.5t-92.5 39.5q-58 0 -92 -39.5t-34 -115.5v-502h-55v493q0 55 16 101q-46 63 -118 63q-65 0 -102.5 -45.5t-37.5 -129.5v-482h-55v481q0 66 21 114q-46 62 -117 62
q-65 0 -102.5 -45.5t-37.5 -129.5v-482h-55v481q0 104 53 165.5t143 61.5q88 0 146 -64q53 64 145 64q87 0 145 -63q48 63 138 63q84 0 132 -53t48 -153v-102h189v-47h-189v-206q0 -50 24 -78.5t71 -28.5q49 0 90 42z" />
    <glyph glyph-name="longs_longs_t.liga" unicode="&#x17f;&#x17f;t" horiz-adv-x="999" 
d="M948 82l34 -36q-54 -58 -127 -58q-70 0 -108.5 42t-38.5 117v206h-90v47h90v102q0 76 -33.5 115.5t-92.5 39.5q-58 0 -92 -39.5t-34 -115.5v-502h-55v493q0 56 15 98q-46 66 -120 66q-65 0 -102.5 -45.5t-37.5 -129.5v-482h-55v481q0 104 53 165.5t143 61.5q89 0 146 -65
q50 65 140 65q84 0 132 -53t48 -153v-102h189v-47h-189v-206q0 -50 24 -78.5t71 -28.5q49 0 90 42z" />
    <glyph glyph-name="longs_longs_udieresis.liga" unicode="&#x17f;&#x17f;&#xfc;" horiz-adv-x="1093" 
d="M716 516q0 65 -35.5 103.5t-90.5 38.5q-59 0 -97 -44.5t-38 -121.5v-492h-55v483q0 59 19 107q-47 67 -121 67q-65 0 -102.5 -45.5t-37.5 -129.5v-482h-55v481q0 104 53 165.5t143 61.5q92 0 149 -68q52 69 142 69q78 0 129.5 -51.5t51.5 -141.5h-55zM940 518
q-18 0 -29 11.5t-11 29.5t11 29t29 11t29.5 -11t11.5 -29t-11.5 -29.5t-29.5 -11.5zM965 400h55v-400h-55v75q-53 -87 -161 -87q-73 0 -113.5 47t-40.5 134v231h54v-218q0 -144 114 -144q64 0 105.5 44t41.5 113v205z" />
    <glyph glyph-name="longs_udieresis.liga" unicode="&#x17f;&#xfc;" horiz-adv-x="794" 
d="M417 516q0 65 -35.5 103.5t-90.5 38.5q-59 0 -97 -44.5t-38 -121.5v-492h-55v483q0 105 54 165.5t136 60.5q78 0 129.5 -51.5t51.5 -141.5h-55zM641 518q-18 0 -29 11.5t-11 29.5t11 29t29 11t29.5 -11t11.5 -29t-11.5 -29.5t-29.5 -11.5zM666 400h55v-400h-55v75
q-53 -87 -161 -87q-73 0 -113.5 47t-40.5 134v231h54v-218q0 -144 114 -144q64 0 105.5 44t41.5 113v205z" />
    <glyph glyph-name="t_t.liga" unicode="tt" horiz-adv-x="753" 
d="M703 82l34 -36q-54 -58 -127 -58q-70 0 -108.5 42t-38.5 117v201h-305v-201q0 -50 24 -78.5t72 -28.5t89 42l34 -36q-52 -58 -126 -58q-70 0 -109 42t-39 117v201h-74v47h74v94h55v-94h305v94h55v-94h189v-47h-189v-201q0 -50 24 -78.5t71 -28.5q49 0 90 42z" />
    <glyph glyph-name="uni06440671" unicode="&#xfedf;&#xfb51;" horiz-adv-x="512" 
d="M277 622q0 -44 -31.5 -69t-91.5 -25h-143v37h47q47 141 134 141q38 0 61.5 -22.5t23.5 -61.5zM190 667q-53 0 -89 -102h53q81 0 81 54q0 22 -12 35t-33 13zM354 285q49 -18 76 -54t27 -83q0 -71 -55.5 -115.5t-145.5 -44.5t-145.5 44.5t-55.5 115.5q0 47 27 83t76 54
q-46 22 -71.5 65.5t-25.5 100.5v29h55v-29q0 -64 38.5 -102.5t101.5 -38.5t101.5 38.5t38.5 102.5v148h55v-148q0 -57 -25.5 -100.5t-71.5 -65.5zM256 39q66 0 106 30.5t40 80.5t-40 80t-106 30t-106 -30t-40 -80t40 -80.5t106 -30.5z" />
    <glyph glyph-name="uni06440671.fina" unicode="&#xfee0;&#xfb51;" horiz-adv-x="526" 
d="M283 622q0 -44 -31.5 -69t-91.5 -25h-143v37h47q47 141 134 141q38 0 61.5 -22.5t23.5 -61.5zM196 667q-53 0 -89 -102h53q81 0 81 54q0 22 -12 35t-33 13zM436 51h96v-51h-475v51h161l-133 429h59l130 -429h107v549h55v-549z" />
    <glyph glyph-name="uni0644FD3D" unicode="&#xfedf;&#xfd3c;" horiz-adv-x="512" 
d="M235 696l-217 -83l-16 38l217 82zM227 644l16 -36l-217 -83l-16 37zM354 285q49 -18 76 -54t27 -83q0 -71 -55.5 -115.5t-145.5 -44.5t-145.5 44.5t-55.5 115.5q0 47 27 83t76 54q-46 22 -71.5 65.5t-25.5 100.5v29h55v-29q0 -64 38.5 -102.5t101.5 -38.5t101.5 38.5
t38.5 102.5v148h55v-148q0 -57 -25.5 -100.5t-71.5 -65.5zM256 39q66 0 106 30.5t40 80.5t-40 80t-106 30t-106 -30t-40 -80t40 -80.5t106 -30.5z" />
    <glyph glyph-name="uni0644FD3D.fina" unicode="&#xfee0;&#xfd3c;" horiz-adv-x="526" 
d="M231 690l-217 -83l-16 38l217 82zM223 638l16 -36l-217 -83l-16 37zM436 51h96v-51h-475v51h161l-133 429h59l130 -429h107v549h55v-549z" />
    <glyph glyph-name="uni0531055B.liga" unicode="&#x531;&#x55b;" horiz-adv-x="792" 
d="M740 864l-186 -205l-36 30l181 210zM584 252q91 -1 141.5 -55.5t50.5 -150.5v-46h-60v46q0 72 -35.5 112.5t-98.5 40.5h-1q-14 -95 -82.5 -154t-165.5 -59q-109 0 -179 73.5t-70 187.5v353h59v-355q0 -89 53.5 -147t136.5 -58t137 57.5t54 146.5v356h60v-348z" />
    <glyph glyph-name="uni0531055C.liga" unicode="&#x531;&#x55c;" horiz-adv-x="792" 
d="M613 737q-39 0 -60 -22.5t-21 -63.5h-51q0 61 32 95.5t90 34.5h36q39 0 60 22.5t21 63.5h51q0 -62 -32 -96t-90 -34h-36zM584 252q91 -1 141.5 -55.5t50.5 -150.5v-46h-60v46q0 72 -35.5 112.5t-98.5 40.5h-1q-14 -95 -82.5 -154t-165.5 -59q-109 0 -179 73.5t-70 187.5
v353h59v-355q0 -89 53.5 -147t136.5 -58t137 57.5t54 146.5v356h60v-348z" />
    <glyph glyph-name="uni0531055E.liga" unicode="&#x531;&#x55e;" horiz-adv-x="792" 
d="M581 798q-88 -32 -88 -137h-46q0 86 51.5 136t137.5 50q65 0 102 -28t37 -76q0 -41 -25 -64t-69 -23q-47 0 -73.5 26.5t-26.5 74.5v41zM637 807q-9 0 -14 -1v-42q0 -33 15 -51.5t42 -18.5q50 0 50 48q0 28 -24 46.5t-69 18.5zM584 252q91 -1 141.5 -55.5t50.5 -150.5v-46
h-60v46q0 72 -35.5 112.5t-98.5 40.5h-1q-14 -95 -82.5 -154t-165.5 -59q-109 0 -179 73.5t-70 187.5v353h59v-355q0 -89 53.5 -147t136.5 -58t137 57.5t54 146.5v356h60v-348z" />
    <glyph glyph-name="uni0535055B.liga" unicode="&#x535;&#x55b;" horiz-adv-x="622" 
d="M566 864l-186 -205l-36 30l181 210zM574 376h-431v-134q0 -95 53.5 -149t135.5 -54q79 0 130 46.5t51 122.5v32h60v-34q0 -100 -69.5 -160t-172.5 -60q-106 0 -176.5 68t-70.5 188v358h59v-171h431v-53z" />
    <glyph glyph-name="uni0535055C.liga" unicode="&#x535;&#x55c;" horiz-adv-x="622" 
d="M439 737q-39 0 -60 -22.5t-21 -63.5h-51q0 61 32 95.5t90 34.5h36q39 0 60 22.5t21 63.5h51q0 -62 -32 -96t-90 -34h-36zM143 600v-171h431v-53h-431v-134q0 -95 53.5 -149t135.5 -54q79 0 130 46.5t51 122.5v32h60v-34q0 -100 -69.5 -160t-172.5 -60q-106 0 -176.5 68
t-70.5 188v358h59z" />
    <glyph glyph-name="uni0535055E.liga" unicode="&#x535;&#x55e;" horiz-adv-x="622" 
d="M462 847q65 0 102 -28t37 -76q0 -41 -25 -64t-69 -23q-47 0 -73.5 26.5t-26.5 74.5v41q-88 -32 -88 -137h-46q0 86 51.5 136t137.5 50zM506 694q50 0 50 48q0 28 -24 46.5t-69 18.5q-9 0 -14 -1v-42q0 -33 15 -51.5t42 -18.5zM143 600v-171h431v-53h-431v-134
q0 -95 53.5 -149t135.5 -54q79 0 130 46.5t51 122.5v32h60v-34q0 -100 -69.5 -160t-172.5 -60q-106 0 -176.5 68t-70.5 188v358h59z" />
    <glyph glyph-name="uni0537055B.liga" unicode="&#x537;&#x55b;" horiz-adv-x="533" 
d="M485 864l-186 -205l-36 30l181 210zM377 52q70 0 109.5 -38t39.5 -104v-18h-54v17q0 42 -24.5 66.5t-70.5 24.5h-289v600h60v-205h343v-53h-343v-290h229z" />
    <glyph glyph-name="uni0537055C.liga" unicode="&#x537;&#x55c;" horiz-adv-x="533" 
d="M358 737q-39 0 -60 -22.5t-21 -63.5h-51q0 61 32 95.5t90 34.5h36q39 0 60 22.5t21 63.5h51q0 -62 -32 -96t-90 -34h-36zM377 52q70 0 109.5 -38t39.5 -104v-18h-54v17q0 42 -24.5 66.5t-70.5 24.5h-289v600h60v-205h343v-53h-343v-290h229z" />
    <glyph glyph-name="uni0537055E.liga" unicode="&#x537;&#x55e;" horiz-adv-x="533" 
d="M326 798q-88 -32 -88 -137h-46q0 86 51.5 136t137.5 50q65 0 102 -28t37 -76q0 -41 -25 -64t-69 -23q-47 0 -73.5 26.5t-26.5 74.5v41zM382 807q-9 0 -14 -1v-42q0 -33 15 -51.5t42 -18.5q50 0 50 48q0 28 -24 46.5t-69 18.5zM377 52q70 0 109.5 -38t39.5 -104v-18h-54
v17q0 42 -24.5 66.5t-70.5 24.5h-289v600h60v-205h343v-53h-343v-290h229z" />
    <glyph glyph-name="uni0538055B.liga" unicode="&#x538;&#x55b;" horiz-adv-x="664" 
d="M592 864l-186 -205l-36 30l181 210zM141 52h467v-52h-527v332q0 132 69 207t188 75q118 0 187 -75t69 -207v-74h-60v74q0 108 -52 168t-143 60q-92 0 -145 -61t-53 -167v-280z" />
    <glyph glyph-name="uni0538055C.liga" unicode="&#x538;&#x55c;" horiz-adv-x="664" 
d="M465 737q-39 0 -60 -22.5t-21 -63.5h-51q0 61 32 95.5t90 34.5h36q39 0 60 22.5t21 63.5h51q0 -62 -32 -96t-90 -34h-36zM141 332v-280h467v-52h-527v332q0 132 69 207t188 75q118 0 187 -75t69 -207v-74h-60v74q0 108 -52 168t-143 60q-92 0 -145 -61t-53 -167z" />
    <glyph glyph-name="uni0538055E.liga" unicode="&#x538;&#x55e;" horiz-adv-x="664" 
d="M433 798q-88 -32 -88 -137h-46q0 86 51.5 136t137.5 50q65 0 102 -28t37 -76q0 -41 -25 -64t-69 -23q-47 0 -73.5 26.5t-26.5 74.5v41zM489 807q-9 0 -14 -1v-42q0 -33 15 -51.5t42 -18.5q50 0 50 48q0 28 -24 46.5t-69 18.5zM141 332v-280h467v-52h-527v332
q0 132 69 207t188 75q118 0 187 -75t69 -207v-74h-60v74q0 108 -52 168t-143 60q-92 0 -145 -61t-53 -167z" />
    <glyph glyph-name="uni053B055B.liga" unicode="&#x53b;&#x55b;" horiz-adv-x="578" 
d="M515 864l-186 -205l-36 30l181 210zM335 477q92 0 145.5 -59.5t53.5 -161.5v-130h-59v129q0 77 -39.5 122.5t-109.5 45.5q-83 0 -130.5 -57.5t-47.5 -150.5v-215h-60v600h60v-223q62 100 187 100z" />
    <glyph glyph-name="uni053B055C.liga" unicode="&#x53b;&#x55c;" horiz-adv-x="578" 
d="M388 737q-39 0 -60 -22.5t-21 -63.5h-51q0 61 32 95.5t90 34.5h36q39 0 60 22.5t21 63.5h51q0 -62 -32 -96t-90 -34h-36zM335 477q92 0 145.5 -59.5t53.5 -161.5v-130h-59v129q0 77 -39.5 122.5t-109.5 45.5q-83 0 -130.5 -57.5t-47.5 -150.5v-215h-60v600h60v-223
q62 100 187 100z" />
    <glyph glyph-name="uni053B055E.liga" unicode="&#x53b;&#x55e;" horiz-adv-x="578" 
d="M356 798q-88 -32 -88 -137h-46q0 86 51.5 136t137.5 50q65 0 102 -28t37 -76q0 -41 -25 -64t-69 -23q-47 0 -73.5 26.5t-26.5 74.5v41zM412 807q-9 0 -14 -1v-42q0 -33 15 -51.5t42 -18.5q50 0 50 48q0 28 -24 46.5t-69 18.5zM335 477q92 0 145.5 -59.5t53.5 -161.5v-130
h-59v129q0 77 -39.5 122.5t-109.5 45.5q-83 0 -130.5 -57.5t-47.5 -150.5v-215h-60v600h60v-223q62 100 187 100z" />
    <glyph glyph-name="uni0548055B.liga" unicode="&#x548;&#x55b;" horiz-adv-x="697" 
d="M410 659l-36 30l181 210l41 -35zM84 337q0 125 75 201t196 76q117 0 187.5 -77t70.5 -204v-333h-59l-1 335q0 103 -54.5 164t-145.5 61q-94 0 -152 -61t-58 -163v-336h-59v337z" />
    <glyph glyph-name="uni0548055C.liga" unicode="&#x548;&#x55c;" horiz-adv-x="697" 
d="M337 651q0 61 32 95.5t90 34.5h36q39 0 60 22.5t21 63.5h51q0 -62 -32 -96t-90 -34h-36q-39 0 -60 -22.5t-21 -63.5h-51zM84 337q0 125 75 201t196 76q117 0 187.5 -77t70.5 -204v-333h-59l-1 335q0 103 -54.5 164t-145.5 61q-94 0 -152 -61t-58 -163v-336h-59v337z" />
    <glyph glyph-name="uni0548055E.liga" unicode="&#x548;&#x55e;" horiz-adv-x="697" 
d="M437 798q-88 -32 -88 -137h-46q0 86 51.5 136t137.5 50q65 0 102 -28t37 -76q0 -41 -25 -64t-69 -23q-47 0 -73.5 26.5t-26.5 74.5v41zM493 807q-9 0 -14 -1v-42q0 -33 15 -51.5t42 -18.5q50 0 50 48q0 28 -24 46.5t-69 18.5zM355 614q117 0 187.5 -77t70.5 -204v-333
h-59l-1 335q0 103 -54.5 164t-145.5 61q-94 0 -152 -61t-58 -163v-336h-59v337q0 125 75 201t196 76z" />
    <glyph glyph-name="uni0555055B.liga" unicode="&#x555;&#x55b;" horiz-adv-x="731" 
d="M461 659l-36 30l181 210l41 -35zM355 -14q-134 0 -218 87t-84 227q0 139 84.5 226.5t218.5 87.5t218 -87t84 -227t-84 -227t-219 -87zM355 40q107 0 174.5 72t67.5 188t-67.5 188t-174.5 72t-174 -72t-67 -188q0 -115 67 -187.5t174 -72.5z" />
    <glyph glyph-name="uni0555055C.liga" unicode="&#x555;&#x55c;" horiz-adv-x="731" 
d="M388 651q0 61 32 95.5t90 34.5h36q39 0 60 22.5t21 63.5h51q0 -62 -32 -96t-90 -34h-36q-39 0 -60 -22.5t-21 -63.5h-51zM355 -14q-134 0 -218 87t-84 227q0 139 84.5 226.5t218.5 87.5t218 -87t84 -227t-84 -227t-219 -87zM355 40q107 0 174.5 72t67.5 188t-67.5 188
t-174.5 72t-174 -72t-67 -188q0 -115 67 -187.5t174 -72.5z" />
    <glyph glyph-name="uni0555055E.liga" unicode="&#x555;&#x55e;" horiz-adv-x="731" 
d="M543 847q65 0 102 -28t37 -76q0 -41 -25 -64t-69 -23q-47 0 -73.5 26.5t-26.5 74.5v41q-88 -32 -88 -137h-46q0 86 51.5 136t137.5 50zM587 694q50 0 50 48q0 28 -24 46.5t-69 18.5q-9 0 -14 -1v-42q0 -33 15 -51.5t42 -18.5zM356 614q134 0 218 -87t84 -227t-84 -227
t-219 -87q-134 0 -218 87t-84 227q0 139 84.5 226.5t218.5 87.5zM355 40q107 0 174.5 72t67.5 188t-67.5 188t-174.5 72t-174 -72t-67 -188q0 -115 67 -187.5t174 -72.5z" />
    <glyph glyph-name="uni0561055B.liga" unicode="&#x561;&#x55b;" horiz-adv-x="808" 
d="M727 687l-186 -205l-35 30l180 210zM679 400h55v-400h-55v67q-55 -79 -153 -79q-106 0 -137 99q-24 -46 -67.5 -72.5t-99.5 -26.5q-71 0 -110 47.5t-39 133.5v231h55v-217q0 -145 108 -145q60 0 100 44t40 112h1v206h55v-217q0 -145 106 -145q61 0 101 44.5t40 111.5v206
z" />
    <glyph glyph-name="uni0561055C.liga" unicode="&#x561;&#x55c;" horiz-adv-x="808" 
d="M598 556q-37 0 -57 -21.5t-20 -60.5h-48q0 59 30 91.5t85 32.5h30q37 0 57 22t20 61h48q0 -59 -30 -92t-85 -33h-30zM679 194v206h55v-400h-55v67q-55 -79 -153 -79q-106 0 -137 99q-24 -46 -67.5 -72.5t-99.5 -26.5q-71 0 -110 47.5t-39 133.5v231h55v-217
q0 -145 108 -145q60 0 100 44t40 112h1v206h55v-217q0 -145 106 -145q61 0 101 44.5t40 111.5z" />
    <glyph glyph-name="uni0561055E.liga" unicode="&#x561;&#x55e;" horiz-adv-x="808" 
d="M575 619q-68 -33 -68 -136h-44q0 86 43.5 136t116.5 50q55 0 86.5 -28t31.5 -76q0 -41 -21.5 -64t-59.5 -23q-40 0 -62.5 26.5t-22.5 74.5v40zM624 630h-8v-44q0 -70 43 -70q38 0 38 48q0 28 -18.5 47t-54.5 19zM679 194v206h55v-400h-55v67q-55 -79 -153 -79
q-106 0 -137 99q-24 -46 -67.5 -72.5t-99.5 -26.5q-71 0 -110 47.5t-39 133.5v231h55v-217q0 -145 108 -145q60 0 100 44t40 112h1v206h55v-217q0 -145 106 -145q61 0 101 44.5t40 111.5z" />
    <glyph glyph-name="uni0565055B.liga" unicode="&#x565;&#x55b;" horiz-adv-x="517" 
d="M442 687l-186 -205l-35 30l180 210zM463 346h-331v-168q0 -63 35 -101.5t93 -38.5q61 0 100 43.5t39 112.5h51v-194h-51v63q-51 -75 -149 -75q-77 0 -124.5 49.5t-47.5 130.5v532h54v-306h331v-48z" />
    <glyph glyph-name="uni0565055C.liga" unicode="&#x565;&#x55c;" horiz-adv-x="517" 
d="M463 346h-331v-168q0 -63 35 -101.5t93 -38.5q61 0 100 43.5t39 112.5h51v-194h-51v63q-51 -75 -149 -75q-77 0 -124.5 49.5t-47.5 130.5v532h54v-306h331v-48zM313 556q-37 0 -57 -21.5t-20 -60.5h-48q0 59 30 91.5t85 32.5h30q37 0 57 22t20 61h48q0 -59 -30 -92
t-85 -33h-30z" />
    <glyph glyph-name="uni0565055E.liga" unicode="&#x565;&#x55e;" horiz-adv-x="517" 
d="M463 346h-331v-168q0 -63 35 -101.5t93 -38.5q61 0 100 43.5t39 112.5h51v-194h-51v63q-51 -75 -149 -75q-77 0 -124.5 49.5t-47.5 130.5v532h54v-306h331v-48zM290 619q-68 -33 -68 -136h-44q0 86 43.5 136t116.5 50q55 0 86.5 -28t31.5 -76q0 -41 -21.5 -64t-59.5 -23
q-40 0 -62.5 26.5t-22.5 74.5v40zM339 630h-8v-44q0 -70 43 -70q38 0 38 48q0 28 -18.5 47t-54.5 19z" />
    <glyph glyph-name="uni05660575.liga" unicode="&#x566;&#x575;" horiz-adv-x="823" 
d="M446 400v-568h74v-52h-128v293q-53 -85 -158 -85q-84 0 -141.5 60.5t-57.5 151.5t57.5 151.5t141.5 60.5q105 0 158 -85v73h54zM677 400h55v-457q0 -78 -40.5 -120.5t-114.5 -42.5h-6v52h6q100 0 100 106v462zM242 38q64 0 108.5 45.5t44.5 116.5t-45 116.5t-109 45.5
t-108 -45t-44 -117t44 -117t109 -45z" />
    <glyph glyph-name="uni0567055B.liga" unicode="&#x567;&#x55b;" horiz-adv-x="463" 
d="M442 687l-186 -205l-35 30l180 210zM275 52q70 0 107.5 -36.5t37.5 -105.5v-22h-55v22q0 90 -91 90h-195v700h54v-305h274v-49h-274v-294h142z" />
    <glyph glyph-name="uni0567055C.liga" unicode="&#x567;&#x55c;" horiz-adv-x="463" 
d="M275 52q70 0 107.5 -36.5t37.5 -105.5v-22h-55v22q0 90 -91 90h-195v700h54v-305h274v-49h-274v-294h142zM410 681h48q0 -59 -30 -92t-85 -33h-30q-37 0 -57 -21.5t-20 -60.5h-48q0 59 30 91.5t85 32.5h30q37 0 57 22t20 61z" />
    <glyph glyph-name="uni0567055E.liga" unicode="&#x567;&#x55e;" horiz-adv-x="463" 
d="M275 52q70 0 107.5 -36.5t37.5 -105.5v-22h-55v22q0 90 -91 90h-195v700h54v-305h274v-49h-274v-294h142zM338 669q55 0 86.5 -28t31.5 -76q0 -41 -21.5 -64t-59.5 -23q-40 0 -62.5 26.5t-22.5 74.5v40q-68 -33 -68 -136h-44q0 86 43.5 136t116.5 50zM374 516q38 0 38 48
q0 28 -18.5 47t-54.5 19h-8v-44q0 -70 43 -70z" />
    <glyph glyph-name="uni05680575.liga" unicode="&#x568;&#x575;" horiz-adv-x="755" 
d="M283 412q75 0 118 -47.5t43 -127.5v-237h-54v223q0 64 -30.5 101.5t-86.5 37.5q-62 0 -103.5 -44t-41.5 -112v-374h308v-52h-363v620h55v-67q55 79 155 79zM610 400h55v-448q0 -84 -40.5 -128t-117.5 -44h-20v52h19q104 0 104 115v453z" />
    <glyph glyph-name="uni0568055B.liga" unicode="&#x568;&#x55b;" horiz-adv-x="519" 
d="M416 687l-186 -205l-35 30l180 210zM129 -170h341v-50h-396v620h55v-69q57 81 161 81q73 0 114 -47.5t41 -133.5v-231h-55v217q0 70 -29 107.5t-85 37.5q-64 0 -105.5 -44t-41.5 -112v-376z" />
    <glyph glyph-name="uni0568055B0575.liga" unicode="&#x568;&#x55b;&#x575;" horiz-adv-x="755" 
d="M433 687l-186 -205l-35 30l180 210zM283 412q75 0 118 -47.5t43 -127.5v-237h-54v223q0 64 -30.5 101.5t-86.5 37.5q-62 0 -103.5 -44t-41.5 -112v-374h308v-52h-363v620h55v-67q55 79 155 79zM610 400h55v-448q0 -84 -40.5 -128t-117.5 -44h-20v52h19q104 0 104 115v453
z" />
    <glyph glyph-name="uni0568055C.liga" unicode="&#x568;&#x55c;" horiz-adv-x="519" 
d="M287 556q-37 0 -57 -21.5t-20 -60.5h-48q0 59 30 91.5t85 32.5h30q37 0 57 22t20 61h48q0 -59 -30 -92t-85 -33h-30zM129 -170h341v-50h-396v620h55v-69q57 81 161 81q73 0 114 -47.5t41 -133.5v-231h-55v217q0 70 -29 107.5t-85 37.5q-64 0 -105.5 -44t-41.5 -112v-376z
" />
    <glyph glyph-name="uni0568055C0575.liga" unicode="&#x568;&#x55c;&#x575;" horiz-adv-x="755" 
d="M324 598q37 0 57 22t20 61h48q0 -59 -30 -92t-85 -33h-30q-37 0 -57 -21.5t-20 -60.5h-48q0 59 30 91.5t85 32.5h30zM283 412q75 0 118 -47.5t43 -127.5v-237h-54v223q0 64 -30.5 101.5t-86.5 37.5q-62 0 -103.5 -44t-41.5 -112v-374h308v-52h-363v620h55v-67
q55 79 155 79zM610 400h55v-448q0 -84 -40.5 -128t-117.5 -44h-20v52h19q104 0 104 115v453z" />
    <glyph glyph-name="uni0568055E.liga" unicode="&#x568;&#x55e;" horiz-adv-x="519" 
d="M264 619q-68 -33 -68 -136h-44q0 86 43.5 136t116.5 50q55 0 86.5 -28t31.5 -76q0 -41 -21.5 -64t-59.5 -23q-40 0 -62.5 26.5t-22.5 74.5v40zM313 630h-8v-44q0 -70 43 -70q38 0 38 48q0 28 -18.5 47t-54.5 19zM129 -170h341v-50h-396v620h55v-69q57 81 161 81
q73 0 114 -47.5t41 -133.5v-231h-55v217q0 70 -29 107.5t-85 37.5q-64 0 -105.5 -44t-41.5 -112v-376z" />
    <glyph glyph-name="uni0568055E0575.liga" unicode="&#x568;&#x55e;&#x575;" horiz-adv-x="755" 
d="M329 669q55 0 86.5 -28t31.5 -76q0 -41 -21.5 -64t-59.5 -23q-40 0 -62.5 26.5t-22.5 74.5v40q-68 -33 -68 -136h-44q0 86 43.5 136t116.5 50zM365 516q38 0 38 48q0 28 -18.5 47t-54.5 19h-8v-44q0 -70 43 -70zM283 412q75 0 118 -47.5t43 -127.5v-237h-54v223
q0 64 -30.5 101.5t-86.5 37.5q-62 0 -103.5 -44t-41.5 -112v-374h308v-52h-363v620h55v-67q55 79 155 79zM610 400h55v-448q0 -84 -40.5 -128t-117.5 -44h-20v52h19q104 0 104 115v453z" />
    <glyph glyph-name="uni056B055B.liga" unicode="&#x56b;&#x55b;" horiz-adv-x="521" 
d="M432 687l-186 -205l-35 30l180 210zM291 412q74 0 115 -47t41 -134v-231h-55v217q0 145 -114 145q-63 0 -105 -44t-42 -112v-426h-55v920h55v-371q54 83 160 83z" />
    <glyph glyph-name="uni056B055C.liga" unicode="&#x56b;&#x55c;" horiz-adv-x="521" 
d="M291 412q74 0 115 -47t41 -134v-231h-55v217q0 145 -114 145q-63 0 -105 -44t-42 -112v-426h-55v920h55v-371q54 83 160 83zM303 556q-37 0 -57 -21.5t-20 -60.5h-48q0 59 30 91.5t85 32.5h30q37 0 57 22t20 61h48q0 -59 -30 -92t-85 -33h-30z" />
    <glyph glyph-name="uni056B055E.liga" unicode="&#x56b;&#x55e;" horiz-adv-x="521" 
d="M291 412q74 0 115 -47t41 -134v-231h-55v217q0 145 -114 145q-63 0 -105 -44t-42 -112v-426h-55v920h55v-371q54 83 160 83zM280 619q-68 -33 -68 -136h-44q0 86 43.5 136t116.5 50q55 0 86.5 -28t31.5 -76q0 -41 -21.5 -64t-59.5 -23q-40 0 -62.5 26.5t-22.5 74.5v40z
M329 630h-8v-44q0 -70 43 -70q38 0 38 48q0 28 -18.5 47t-54.5 19z" />
    <glyph glyph-name="uni056C0575.liga" unicode="&#x56c;&#x575;" horiz-adv-x="525" 
d="M93 -220v620h55v-568h75v-52h-130zM273 -220v52h6q100 0 100 106v462h55v-458q0 -77 -40.5 -119.5t-114.5 -42.5h-6z" />
    <glyph glyph-name="uni05720575.liga" unicode="&#x572;&#x575;" horiz-adv-x="822" 
d="M445 231v-399h79v-52h-134v437q0 70 -29 107.5t-85 37.5q-64 0 -105.5 -44t-41.5 -112v-206h-55v400h55v-69q57 81 161 81q73 0 114 -47.5t41 -133.5zM676 400h55v-463q0 -75 -39.5 -116t-110.5 -41h-6v52h6q95 0 95 101v467z" />
    <glyph glyph-name="uni05740565055B.liga" unicode="&#x574;&#x565;&#x55b;" horiz-adv-x="1056" 
d="M991 687l-186 -205l-35 30l180 210zM975 200v-6h13v-194h-50v63q-50 -75 -143 -75q-76 0 -122 51t-46 134v475h-66q-56 0 -87 -35t-31 -100v-513h-54v69q-55 -81 -161 -81q-73 0 -114 47.5t-41 133.5v231h55v-217q0 -145 113 -145q63 0 105 44t42 112v314
q0 91 45.5 141.5t126.5 50.5h121v-306h305v-48h-305v-162q0 -65 34 -105.5t90 -40.5q54 0 90.5 38.5t41.5 102.5v15h1v6h37z" />
    <glyph glyph-name="uni05740565055C.liga" unicode="&#x574;&#x565;&#x55c;" horiz-adv-x="1056" 
d="M975 200v-6h13v-194h-50v63q-50 -75 -143 -75q-76 0 -122 51t-46 134v475h-66q-56 0 -87 -35t-31 -100v-513h-54v69q-55 -81 -161 -81q-73 0 -114 47.5t-41 133.5v231h55v-217q0 -145 113 -145q63 0 105 44t42 112v314q0 91 45.5 141.5t126.5 50.5h121v-306h305v-48h-305
v-162q0 -65 34 -105.5t90 -40.5q54 0 90.5 38.5t41.5 102.5v15h1v6h37zM862 556q-37 0 -57 -21.5t-20 -60.5h-48q0 59 30 91.5t85 32.5h30q37 0 57 22t20 61h48q0 -59 -30 -92t-85 -33h-30z" />
    <glyph glyph-name="uni05740565055E.liga" unicode="&#x574;&#x565;&#x55e;" horiz-adv-x="1056" 
d="M975 200v-6h13v-194h-50v63q-50 -75 -143 -75q-76 0 -122 51t-46 134v475h-66q-56 0 -87 -35t-31 -100v-513h-54v69q-55 -81 -161 -81q-73 0 -114 47.5t-41 133.5v231h55v-217q0 -145 113 -145q63 0 105 44t42 112v314q0 91 45.5 141.5t126.5 50.5h121v-306h305v-48h-305
v-162q0 -65 34 -105.5t90 -40.5q54 0 90.5 38.5t41.5 102.5v15h1v6h37zM839 619q-68 -33 -68 -136h-44q0 86 43.5 136t116.5 50q55 0 86.5 -28t31.5 -76q0 -41 -21.5 -64t-59.5 -23q-40 0 -62.5 26.5t-22.5 74.5v40zM888 630h-8v-44q0 -70 43 -70q38 0 38 48q0 28 -18.5 47
t-54.5 19z" />
    <glyph glyph-name="uni05740567.liga" unicode="&#x574;&#x567;" horiz-adv-x="1038" 
d="M841 52q72 0 111.5 -40.5t39.5 -113.5v-10h-55v13q0 48 -24.5 73.5t-71.5 25.5h-211v648h-68q-57 0 -87.5 -35t-30.5 -100v-513h-55v67q-55 -79 -157 -79q-75 0 -116.5 47.5t-41.5 133.5v231h54v-217q0 -70 29 -107.5t85 -37.5q63 0 105 44t42 112v314q0 91 45 141.5
t127 50.5h123v-306h295v-48h-295v-294h157z" />
    <glyph glyph-name="uni05740567055B.liga" unicode="&#x574;&#x567;&#x55b;" horiz-adv-x="1038" 
d="M994 687l-186 -205l-35 30l180 210zM841 52q72 0 111.5 -40.5t39.5 -113.5v-10h-55v13q0 48 -24.5 73.5t-71.5 25.5h-211v648h-68q-57 0 -87.5 -35t-30.5 -100v-513h-55v67q-55 -79 -157 -79q-75 0 -116.5 47.5t-41.5 133.5v231h54v-217q0 -70 29 -107.5t85 -37.5
q63 0 105 44t42 112v314q0 91 45 141.5t127 50.5h123v-306h295v-48h-295v-294h157z" />
    <glyph glyph-name="uni05740567055C.liga" unicode="&#x574;&#x567;&#x55c;" horiz-adv-x="1038" 
d="M841 52q72 0 111.5 -40.5t39.5 -113.5v-10h-55v13q0 48 -24.5 73.5t-71.5 25.5h-211v648h-68q-57 0 -87.5 -35t-30.5 -100v-513h-55v67q-55 -79 -157 -79q-75 0 -116.5 47.5t-41.5 133.5v231h54v-217q0 -70 29 -107.5t85 -37.5q63 0 105 44t42 112v314q0 91 45 141.5
t127 50.5h123v-306h295v-48h-295v-294h157zM865 556q-37 0 -57 -21.5t-20 -60.5h-48q0 59 30 91.5t85 32.5h30q37 0 57 22t20 61h48q0 -59 -30 -92t-85 -33h-30z" />
    <glyph glyph-name="uni05740567055E.liga" unicode="&#x574;&#x567;&#x55e;" horiz-adv-x="1038" 
d="M841 52q72 0 111.5 -40.5t39.5 -113.5v-10h-55v13q0 48 -24.5 73.5t-71.5 25.5h-211v648h-68q-57 0 -87.5 -35t-30.5 -100v-513h-55v67q-55 -79 -157 -79q-75 0 -116.5 47.5t-41.5 133.5v231h54v-217q0 -70 29 -107.5t85 -37.5q63 0 105 44t42 112v314q0 91 45 141.5
t127 50.5h123v-306h295v-48h-295v-294h157zM842 619q-68 -33 -68 -136h-44q0 86 43.5 136t116.5 50q55 0 86.5 -28t31.5 -76q0 -41 -21.5 -64t-59.5 -23q-40 0 -62.5 26.5t-22.5 74.5v40zM891 630h-8v-44q0 -70 43 -70q38 0 38 48q0 28 -18.5 47t-54.5 19z" />
    <glyph glyph-name="uni0574056B055B.liga" unicode="&#x574;&#x56b;&#x55b;" horiz-adv-x="1075" 
d="M999 687l-186 -205l-35 30l180 210zM846 412q73 0 114 -47.5t41 -133.5v-231h-55v217q0 145 -113 145q-64 0 -106 -44t-42 -112v-426h-55v868h-67q-58 0 -88.5 -35.5t-30.5 -100.5v-512h-55v68q-56 -80 -161 -80q-73 0 -113.5 47.5t-40.5 133.5v231h55v-217
q0 -145 113 -145q63 0 105 44t42 112v314q0 91 45.5 141.5t126.5 50.5h124v-368q56 80 161 80z" />
    <glyph glyph-name="uni0574056B055C.liga" unicode="&#x574;&#x56b;&#x55c;" horiz-adv-x="1075" 
d="M846 412q73 0 114 -47.5t41 -133.5v-231h-55v217q0 145 -113 145q-64 0 -106 -44t-42 -112v-426h-55v868h-67q-58 0 -88.5 -35.5t-30.5 -100.5v-512h-55v68q-56 -80 -161 -80q-73 0 -113.5 47.5t-40.5 133.5v231h55v-217q0 -145 113 -145q63 0 105 44t42 112v314
q0 91 45.5 141.5t126.5 50.5h124v-368q56 80 161 80zM870 556q-37 0 -57 -21.5t-20 -60.5h-48q0 59 30 91.5t85 32.5h30q37 0 57 22t20 61h48q0 -59 -30 -92t-85 -33h-30z" />
    <glyph glyph-name="uni0574056B055E.liga" unicode="&#x574;&#x56b;&#x55e;" horiz-adv-x="1075" 
d="M846 412q73 0 114 -47.5t41 -133.5v-231h-55v217q0 145 -113 145q-64 0 -106 -44t-42 -112v-426h-55v868h-67q-58 0 -88.5 -35.5t-30.5 -100.5v-512h-55v68q-56 -80 -161 -80q-73 0 -113.5 47.5t-40.5 133.5v231h55v-217q0 -145 113 -145q63 0 105 44t42 112v314
q0 91 45.5 141.5t126.5 50.5h124v-368q56 80 161 80zM847 619q-68 -33 -68 -136h-44q0 86 43.5 136t116.5 50q55 0 86.5 -28t31.5 -76q0 -41 -21.5 -64t-59.5 -23q-40 0 -62.5 26.5t-22.5 74.5v40zM896 630h-8v-44q0 -70 43 -70q38 0 38 48q0 28 -18.5 47t-54.5 19z" />
    <glyph glyph-name="uni05770575.liga" unicode="&#x577;&#x575;" horiz-adv-x="712" 
d="M412 232q0 -126 -166 -279l-127 -121h256v-52h-319l-14 44l172 167q74 73 107 128.5t33 106.5q0 57 -33.5 95t-92.5 38q-60 0 -97 -38.5t-37 -101.5v-21h-55v26q0 84 52.5 136t137.5 52q83 0 133 -49.5t50 -130.5zM566 400h54v-448q0 -84 -40 -128t-117 -44h-37v52h36
q104 0 104 115v453z" />
    <glyph glyph-name="uni0578055B.liga" unicode="&#x578;&#x55b;" horiz-adv-x="518" 
d="M432 687l-186 -205l-35 30l180 210zM290 412q73 0 114 -47.5t41 -133.5v-231h-55v217q0 70 -29 107.5t-85 37.5q-64 0 -105.5 -44t-41.5 -112v-206h-55v400h55v-69q57 81 161 81z" />
    <glyph glyph-name="uni0578055C.liga" unicode="&#x578;&#x55c;" horiz-adv-x="518" 
d="M303 556q-37 0 -57 -21.5t-20 -60.5h-48q0 59 30 91.5t85 32.5h30q37 0 57 22t20 61h48q0 -59 -30 -92t-85 -33h-30zM290 412q73 0 114 -47.5t41 -133.5v-231h-55v217q0 70 -29 107.5t-85 37.5q-64 0 -105.5 -44t-41.5 -112v-206h-55v400h55v-69q57 81 161 81z" />
    <glyph glyph-name="uni0578055E.liga" unicode="&#x578;&#x55e;" horiz-adv-x="518" 
d="M280 619q-68 -33 -68 -136h-44q0 86 43.5 136t116.5 50q55 0 86.5 -28t31.5 -76q0 -41 -21.5 -64t-59.5 -23q-40 0 -62.5 26.5t-22.5 74.5v40zM329 630h-8v-44q0 -70 43 -70q38 0 38 48q0 28 -18.5 47t-54.5 19zM290 412q73 0 114 -47.5t41 -133.5v-231h-55v217
q0 70 -29 107.5t-85 37.5q-64 0 -105.5 -44t-41.5 -112v-206h-55v400h55v-69q57 81 161 81z" />
    <glyph glyph-name="uni05790575.liga" unicode="&#x579;&#x575;" horiz-adv-x="643" 
d="M312 173l-220 -341h224v-52h-278l-16 45l224 346q-94 11 -144 67t-50 152v20h55v-20q0 -87 52 -132.5t153 -45.5v-39zM497 400h55v-448q0 -84 -40.5 -128t-119.5 -44h-25v51h24q106 0 106 116v453z" />
    <glyph glyph-name="uni057E0575.liga" unicode="&#x57e;&#x575;" horiz-adv-x="826" 
d="M444 700v-868h79v-52h-134v288q-56 -80 -161 -80q-73 0 -114 47.5t-41 133.5v231h55v-217q0 -145 113 -145q64 0 106 43.5t42 112.5v506h55zM680 400h55v-457q0 -78 -40.5 -120.5t-114.5 -42.5h-5v52h5q100 0 100 106v462z" />
    <glyph glyph-name="uni0585055B.liga" unicode="&#x585;&#x55b;" horiz-adv-x="491" 
d="M254 482l-35 30l180 210l41 -35zM245 -12q-92 0 -151 59.5t-59 152.5t59.5 152.5t151.5 59.5t151 -59.5t59 -152.5t-59.5 -152.5t-151.5 -59.5zM246 39q68 0 111.5 45.5t43.5 116.5q0 70 -44 115t-112 45t-111.5 -45t-43.5 -115q0 -71 44 -116.5t112 -45.5z" />
    <glyph glyph-name="uni0585055C.liga" unicode="&#x585;&#x55c;" horiz-adv-x="491" 
d="M186 474q0 59 30 91.5t85 32.5h30q37 0 57 22t20 61h48q0 -59 -30 -92t-85 -33h-30q-37 0 -57 -21.5t-20 -60.5h-48zM245 -12q-92 0 -151 59.5t-59 152.5t59.5 152.5t151.5 59.5t151 -59.5t59 -152.5t-59.5 -152.5t-151.5 -59.5zM246 39q68 0 111.5 45.5t43.5 116.5
q0 70 -44 115t-112 45t-111.5 -45t-43.5 -115q0 -71 44 -116.5t112 -45.5z" />
    <glyph glyph-name="uni0585055E.liga" unicode="&#x585;&#x55e;" horiz-adv-x="491" 
d="M288 619q-68 -33 -68 -136h-44q0 86 43.5 136t116.5 50q55 0 86.5 -28t31.5 -76q0 -41 -21.5 -64t-59.5 -23q-40 0 -62.5 26.5t-22.5 74.5v40zM337 630h-8v-44q0 -70 43 -70q38 0 38 48q0 28 -18.5 47t-54.5 19zM246 412q92 0 151 -59.5t59 -152.5t-59.5 -152.5
t-151.5 -59.5t-151 59.5t-59 152.5t59.5 152.5t151.5 59.5zM246 39q68 0 111.5 45.5t43.5 116.5q0 70 -44 115t-112 45t-111.5 -45t-43.5 -115q0 -71 44 -116.5t112 -45.5z" />
    <glyph glyph-name="uniFB13.liga" unicode="&#x574;&#x576;" horiz-adv-x="1040" 
d="M911 400h55v-400h-55v68q-56 -80 -161 -80q-73 0 -113.5 47.5t-40.5 133.5v267h-152v-436h-55v68q-56 -80 -161 -80q-73 0 -114 47.5t-41 133.5v231h55v-217q0 -145 113 -145q64 0 106 43.5t42 112.5v242h-38q-81 0 -124.5 44.5t-43.5 126.5v23h55v-24q0 -60 29.5 -91
t85.5 -31h36v41q0 83 40 129t112 46h73v-49h-71q-47 0 -73 -30.5t-26 -90.5v-46h206v-301q0 -145 114 -145q63 0 105 44t42 112v206z" />
    <glyph glyph-name="uniFB14.liga" unicode="&#x574;&#x565;" horiz-adv-x="1056" 
d="M975 194h13v-194h-50v63q-50 -75 -143 -75q-76 0 -122 51t-46 134v475h-66q-56 0 -87 -35t-31 -100v-513h-54v69q-55 -81 -161 -81q-73 0 -114 47.5t-41 133.5v231h55v-217q0 -145 113 -145q63 0 105 44t42 112v314q0 91 45.5 141.5t126.5 50.5h121v-306h305v-48h-305
v-162q0 -65 34 -105.5t90 -40.5q54 0 90.5 38.5t41.5 102.5v15h1v6h37v-6z" />
    <glyph glyph-name="uniFB15.liga" unicode="&#x574;&#x56b;" horiz-adv-x="1075" 
d="M846 412q73 0 114 -47.5t41 -133.5v-231h-55v217q0 145 -113 145q-64 0 -106 -44t-42 -112v-426h-55v868h-67q-58 0 -88.5 -35.5t-30.5 -100.5v-512h-55v68q-56 -80 -161 -80q-73 0 -113.5 47.5t-40.5 133.5v231h55v-217q0 -145 113 -145q63 0 105 44t42 112v314
q0 91 45.5 141.5t126.5 50.5h124v-368q56 80 161 80z" />
    <glyph glyph-name="uniFB16.liga" unicode="&#x57e;&#x576;" horiz-adv-x="1039" 
d="M910 400h55v-400h-55v68q-56 -80 -161 -80q-73 0 -114 47.5t-41 133.5v261h-150v-598h140v-52h-195v288q-56 -80 -161 -80q-73 0 -113.5 47.5t-40.5 133.5v231h55v-217q0 -145 113 -145q63 0 105 44t42 112v236h-24q-96 0 -148 48t-52 137v15h55v-15q0 -67 38 -101.5
t109 -34.5h22v221h55v-221h205v-296q0 -145 114 -145q63 0 105 44t42 112v206z" />
    <glyph glyph-name="uniFB17.liga" unicode="&#x574;&#x56d;" horiz-adv-x="1299" 
d="M1171 400h55v-216q0 -92 -47.5 -144.5t-125.5 -52.5q-77 0 -124.5 51.5t-47.5 137.5v168h-196v-564h-55v868h-67q-58 0 -88.5 -35.5t-30.5 -100.5v-512h-55v68q-56 -80 -161 -80q-73 0 -113.5 47.5t-40.5 133.5v231h55v-217q0 -145 113 -145q63 0 105 44t42 112v314
q0 91 45.5 141.5t126.5 50.5h124v-306h250v-208q0 -68 32 -107.5t87 -39.5q54 0 85.5 38t31.5 105v218z" />
    <glyph glyph-name="uni066E.init" unicode="&#x66e;" horiz-adv-x="312" 
d="M-1 0v51h66q84 0 84 97v252h55v-247q0 -153 -136 -153h-69z" />
    <glyph glyph-name="uni066E.medi" unicode="&#x66e;" horiz-adv-x="343" 
d="M203 51h141v-51h-345v51h149v349h55v-349z" />
    <glyph glyph-name="uni066E.fina" unicode="&#x66e;" horiz-adv-x="728" 
d="M588 51h141v-51h-370q-128 0 -209 76.5t-81 223.5v100h54v-103q0 -121 65.5 -183.5t170.5 -62.5h174v349h55v-349z" />
    <glyph glyph-name="uni066F.fina" unicode="&#x66f;" horiz-adv-x="840" 
d="M841 51v-51h-79q-40 -103 -128 -161.5t-197 -58.5q-158 0 -268.5 110t-110.5 290v120h55v-114q0 -162 93.5 -259t232.5 -97q89 0 159 45t106 125h-88q-115 0 -175.5 57.5t-60.5 153.5q0 91 56.5 146t148.5 55q100 0 153 -69t53 -185q0 -58 -12 -107h62zM616 51h106
q13 52 13 106q0 99 -41 151.5t-111 52.5q-66 0 -107 -40.5t-41 -108.5q0 -74 45.5 -117.5t135.5 -43.5z" />
    <glyph glyph-name="uni06A1.init" unicode="&#x6a1;" horiz-adv-x="520" 
d="M260 412q92 0 151.5 -58t59.5 -147q0 -85 -54.5 -146t-156.5 -61h-261v51h131q-81 55 -81 159q0 87 60 144.5t151 57.5zM261 51q69 0 112 43t43 112q0 67 -44 111t-112 44t-112 -43.5t-44 -110.5q0 -68 43 -112t114 -44z" />
    <glyph glyph-name="uni06A1.medi" unicode="&#x6a1;" horiz-adv-x="520" 
d="M390 51h131v-51h-522v51h131q-81 55 -81 159q0 87 60 144.5t151 57.5t151 -57.5t60 -144.5q0 -104 -81 -159zM104 207q0 -68 43 -112t113 -44t113 44t43 112q0 67 -44 110.5t-112 43.5t-112 -43.5t-44 -110.5z" />
    <glyph glyph-name="uni06A1.fina" unicode="&#x6a1;" horiz-adv-x="870" 
d="M740 51h131v-51h-522q-129 0 -204.5 74t-75.5 226v100h54v-103q0 -127 60 -186.5t166 -59.5h131q-81 55 -81 159q0 87 60 144.5t151 57.5t151 -57.5t60 -144.5q0 -104 -81 -159zM454 207q0 -68 43 -112t113 -44t113 44t43 112q0 67 -44 110.5t-112 43.5t-112 -43.5
t-44 -110.5z" />
    <glyph glyph-name="uni06C2.fina" unicode="&#x6c2;" horiz-adv-x="529" 
d="M254 508q-41 6 -66.5 34.5t-25.5 69.5q0 46 31 75.5t80 29.5q57 0 89 -40l-29 -26q-23 26 -59 26q-29 0 -48.5 -18.5t-19.5 -47.5t20 -48.5t50 -19.5q32 0 60 16l3 2l22 -33l-145 -96l-27 35zM409 51h121v-51h-263q-112 0 -170 54t-58 145q0 92 58.5 146.5t158.5 54.5
h153v-349zM267 51h87v298h-94q-77 0 -121.5 -41t-44.5 -110t42.5 -108t130.5 -39z" />
    <glyph glyph-name="uni06C3.fina" unicode="&#x6c3;" horiz-adv-x="582" 
d="M221 491q-17 0 -27.5 10t-10.5 27t10.5 27t27.5 10q16 0 26.5 -10.5t10.5 -26.5t-10.5 -26.5t-26.5 -10.5zM360 491q-17 0 -27.5 10t-10.5 27t10.5 27t27.5 10q16 0 26.5 -10.5t10.5 -26.5t-10.5 -26.5t-26.5 -10.5zM566 51h17v-51h-20q-85 0 -131.5 47t-46.5 135v167
h-46q-109 0 -173 -81t-64 -218v-50h-57v50q0 162 79 256t215 94h101v-218q0 -61 33.5 -96t92.5 -35z" />
    <glyph glyph-name="uniFB51" unicode="&#x671;" horiz-adv-x="273" arabic-form="final" 
d="M266 629q0 -44 -31.5 -69t-91.5 -25h-143v37h47q47 141 134 141q38 0 61.5 -22.5t23.5 -61.5zM179 674q-53 0 -89 -102h53q81 0 81 54q0 22 -12 35t-33 13zM243 51h31v-51h-34q-136 0 -136 153v338h55v-343q0 -97 84 -97z" />
    <glyph glyph-name="uniFB57" unicode="&#x67e;" horiz-adv-x="728" arabic-form="final" 
d="M588 51h141v-51h-370q-128 0 -209 76.5t-81 223.5v100h54v-103q0 -121 65.5 -183.5t170.5 -62.5h174v349h55v-349zM285 -67q16 0 26.5 -10.5t10.5 -26.5t-10.5 -26.5t-26.5 -10.5q-17 0 -27.5 10t-10.5 27t10.5 27t27.5 10zM424 -67q16 0 26.5 -10.5t10.5 -26.5
t-10.5 -26.5t-26.5 -10.5q-17 0 -27.5 10t-10.5 27t10.5 27t27.5 10zM354 -186q16 0 26.5 -10.5t10.5 -26.5t-10.5 -26.5t-26.5 -10.5q-17 0 -27.5 10t-10.5 27t10.5 27t27.5 10z" />
    <glyph glyph-name="uniFB58" unicode="&#x67e;" horiz-adv-x="312" arabic-form="initial" 
d="M-1 0v51h66q84 0 84 97v252h55v-247q0 -153 -136 -153h-69zM61 -67q16 0 26.5 -10.5t10.5 -26.5t-10.5 -26.5t-26.5 -10.5q-17 0 -27.5 10t-10.5 27t10.5 27t27.5 10zM200 -67q16 0 26.5 -10.5t10.5 -26.5t-10.5 -26.5t-26.5 -10.5q-17 0 -27.5 10t-10.5 27t10.5 27
t27.5 10zM130 -186q16 0 26.5 -10.5t10.5 -26.5t-10.5 -26.5t-26.5 -10.5q-17 0 -27.5 10t-10.5 27t10.5 27t27.5 10z" />
    <glyph glyph-name="uniFB59" unicode="&#x67e;" horiz-adv-x="343" arabic-form="medial" 
d="M203 51h141v-51h-345v51h149v349h55v-349zM56 -67q16 0 26.5 -10.5t10.5 -26.5t-10.5 -26.5t-26.5 -10.5q-17 0 -27.5 10t-10.5 27t10.5 27t27.5 10zM195 -67q16 0 26.5 -10.5t10.5 -26.5t-10.5 -26.5t-26.5 -10.5q-17 0 -27.5 10t-10.5 27t10.5 27t27.5 10zM125 -186
q16 0 26.5 -10.5t10.5 -26.5t-10.5 -26.5t-26.5 -10.5q-17 0 -27.5 10t-10.5 27t10.5 27t27.5 10z" />
    <glyph glyph-name="uniFB67" unicode="&#x679;" horiz-adv-x="728" arabic-form="final" 
d="M473 566q0 -44 -29 -72t-75 -28h-125v271h41v-139q37 57 101 57q39 0 63 -24.5t24 -64.5zM382 616q-38 0 -67.5 -32.5t-29.5 -78.5h84q28 2 45 18t17 42q0 23 -13 37t-36 14zM588 51h141v-51h-370q-128 0 -209 76.5t-81 223.5v100h54v-103q0 -121 65.5 -183.5
t170.5 -62.5h174v349h55v-349z" />
    <glyph glyph-name="uniFB68" unicode="&#x679;" horiz-adv-x="312" arabic-form="initial" 
d="M218 655q39 0 63 -24.5t24 -64.5q0 -44 -29 -72t-75 -28h-125v271h41v-139q37 57 101 57zM201 505q28 2 45 18t17 42q0 23 -13 37t-36 14q-38 0 -67.5 -32.5t-29.5 -78.5h84zM149 148v252h55v-247q0 -153 -136 -153h-69v51h66q84 0 84 97z" />
    <glyph glyph-name="uniFB69" unicode="&#x679;" horiz-adv-x="343" arabic-form="medial" 
d="M306 566q0 -44 -29 -72t-75 -28h-125v271h41v-139q37 57 101 57q39 0 63 -24.5t24 -64.5zM215 616q-38 0 -67.5 -32.5t-29.5 -78.5h84q28 2 45 18t17 42q0 23 -13 37t-36 14zM203 51h141v-51h-345v51h149v349h55v-349z" />
    <glyph glyph-name="uniFB6B" unicode="&#x6a4;" horiz-adv-x="870" arabic-form="final" 
d="M604 620q-17 0 -27.5 10t-10.5 27t10.5 27t27.5 10q16 0 26.5 -10.5t10.5 -26.5t-10.5 -26.5t-26.5 -10.5zM530 491q-17 0 -27.5 10t-10.5 27t10.5 27t27.5 10q16 0 26.5 -10.5t10.5 -26.5t-10.5 -26.5t-26.5 -10.5zM680 491q-17 0 -27.5 10t-10.5 27t10.5 27t27.5 10
q16 0 26.5 -10.5t10.5 -26.5t-10.5 -26.5t-26.5 -10.5zM740 51h131v-51h-522q-129 0 -204.5 74t-75.5 226v100h54v-103q0 -127 60 -186.5t166 -59.5h131q-81 55 -81 159q0 87 60 144.5t151 57.5t151 -57.5t60 -144.5q0 -104 -81 -159zM454 207q0 -68 43 -112t113 -44t113 44
t43 112q0 67 -44 110.5t-112 43.5t-112 -43.5t-44 -110.5z" />
    <glyph glyph-name="uniFB6C" unicode="&#x6a4;" horiz-adv-x="520" arabic-form="initial" 
d="M259 620q-17 0 -27.5 10t-10.5 27t10.5 27t27.5 10q16 0 26.5 -10.5t10.5 -26.5t-10.5 -26.5t-26.5 -10.5zM185 491q-17 0 -27.5 10t-10.5 27t10.5 27t27.5 10q16 0 26.5 -10.5t10.5 -26.5t-10.5 -26.5t-26.5 -10.5zM335 491q-17 0 -27.5 10t-10.5 27t10.5 27t27.5 10
q16 0 26.5 -10.5t10.5 -26.5t-10.5 -26.5t-26.5 -10.5zM260 412q92 0 151.5 -58t59.5 -147q0 -85 -54.5 -146t-156.5 -61h-261v51h131q-81 55 -81 159q0 87 60 144.5t151 57.5zM261 51q69 0 112 43t43 112q0 67 -44 111t-112 44t-112 -43.5t-44 -110.5q0 -68 43 -112
t114 -44z" />
    <glyph glyph-name="uniFB6D" unicode="&#x6a4;" horiz-adv-x="520" arabic-form="medial" 
d="M259 620q-17 0 -27.5 10t-10.5 27t10.5 27t27.5 10q16 0 26.5 -10.5t10.5 -26.5t-10.5 -26.5t-26.5 -10.5zM185 491q-17 0 -27.5 10t-10.5 27t10.5 27t27.5 10q16 0 26.5 -10.5t10.5 -26.5t-10.5 -26.5t-26.5 -10.5zM335 491q-17 0 -27.5 10t-10.5 27t10.5 27t27.5 10
q16 0 26.5 -10.5t10.5 -26.5t-10.5 -26.5t-26.5 -10.5zM390 51h131v-51h-522v51h131q-81 55 -81 159q0 87 60 144.5t151 57.5t151 -57.5t60 -144.5q0 -104 -81 -159zM104 207q0 -68 43 -112t113 -44t113 44t43 112q0 67 -44 110.5t-112 43.5t-112 -43.5t-44 -110.5z" />
    <glyph glyph-name="uniFB7B" unicode="&#x686;" horiz-adv-x="612" arabic-form="final" 
d="M585 51h28v-51h-28q-66 0 -104.5 35t-43.5 98h-169q-80 0 -129 -41t-49 -109t48.5 -110t127.5 -42h210v-51h-211q-103 0 -166 55.5t-63 147.5q0 90 63.5 144.5t168.5 54.5h168q0 81 -45 124t-131 43h-188v51h188q109 0 169 -57.5t60 -160.5v-34q0 -46 25 -71.5t71 -25.5z
M257 54q13 0 21.5 -8.5t8.5 -21.5q0 -14 -8 -22.5t-22 -8.5q-31 0 -31 31q0 13 8.5 21.5t22.5 8.5zM375 -7q-31 0 -31 31q0 13 8.5 21.5t22.5 8.5q13 0 21.5 -8.5t8.5 -21.5q0 -14 -8 -22.5t-22 -8.5zM315 -101q-14 0 -22.5 8.5t-8.5 21.5t8.5 21.5t22.5 8.5t22.5 -8.5
t8.5 -21.5t-8.5 -21.5t-22.5 -8.5z" />
    <glyph glyph-name="uniFB7C" unicode="&#x686;" horiz-adv-x="606" arabic-form="initial" 
d="M187 400q355 0 355 -349v-51h-543v51h486q0 298 -298 298h-141v51h141zM205 -67q16 0 26.5 -10.5t10.5 -26.5t-10.5 -26.5t-26.5 -10.5q-17 0 -27.5 10t-10.5 27t10.5 27t27.5 10zM344 -67q16 0 26.5 -10.5t10.5 -26.5t-10.5 -26.5t-26.5 -10.5q-17 0 -27.5 10t-10.5 27
t10.5 27t27.5 10zM274 -186q16 0 26.5 -10.5t10.5 -26.5t-10.5 -26.5t-26.5 -10.5q-17 0 -27.5 10t-10.5 27t10.5 27t27.5 10z" />
    <glyph glyph-name="uniFB7D" unicode="&#x686;" horiz-adv-x="606" arabic-form="medial" 
d="M542 51h65v-51h-608v51h488q-4 152 -77 225t-223 73h-141v51h141q177 0 264 -85.5t91 -263.5zM208 -67q16 0 26.5 -10.5t10.5 -26.5t-10.5 -26.5t-26.5 -10.5q-17 0 -27.5 10t-10.5 27t10.5 27t27.5 10zM347 -67q16 0 26.5 -10.5t10.5 -26.5t-10.5 -26.5t-26.5 -10.5
q-17 0 -27.5 10t-10.5 27t10.5 27t27.5 10zM277 -186q16 0 26.5 -10.5t10.5 -26.5t-10.5 -26.5t-26.5 -10.5q-17 0 -27.5 10t-10.5 27t10.5 27t27.5 10z" />
    <glyph glyph-name="uniFB89" unicode="&#x688;" horiz-adv-x="426" arabic-form="final" 
d="M326 566q0 -44 -29 -72t-75 -28h-125v271h41v-139q37 57 101 57q39 0 63 -24.5t24 -64.5zM235 616q-38 0 -67.5 -32.5t-29.5 -78.5h84q28 2 45 18t17 42q0 23 -13 37t-36 14zM346 51h81v-51h-396v51h261v120q0 86 -44.5 132t-131.5 46h-76v51h79q110 0 168.5 -59
t58.5 -164v-126z" />
    <glyph glyph-name="uniFB8B" unicode="&#x698;" horiz-adv-x="319" arabic-form="final" 
d="M152 620q-17 0 -27.5 10t-10.5 27t10.5 27t27.5 10q16 0 26.5 -10.5t10.5 -26.5t-10.5 -26.5t-26.5 -10.5zM78 491q-17 0 -27.5 10t-10.5 27t10.5 27t27.5 10q16 0 26.5 -10.5t10.5 -26.5t-10.5 -26.5t-26.5 -10.5zM228 491q-17 0 -27.5 10t-10.5 27t10.5 27t27.5 10
q16 0 26.5 -10.5t10.5 -26.5t-10.5 -26.5t-26.5 -10.5zM320 51v-51h-140q-1 -104 -53.5 -162t-142.5 -58h-21v52h20q67 0 104.5 44t37.5 127v397h55v-349h140z" />
    <glyph glyph-name="uniFB8D" unicode="&#x691;" horiz-adv-x="319" arabic-form="final" 
d="M283 566q0 -44 -29 -72t-75 -28h-125v271h41v-139q37 57 101 57q39 0 63 -24.5t24 -64.5zM192 616q-38 0 -67.5 -32.5t-29.5 -78.5h84q28 2 45 18t17 42q0 23 -13 37t-36 14zM320 51v-51h-140q-1 -104 -53.5 -162t-142.5 -58h-21v52h20q67 0 104.5 44t37.5 127v397h55
v-349h140z" />
    <glyph glyph-name="uniFB8F" unicode="&#x6a9;" horiz-adv-x="731" arabic-form="final" 
d="M651 51h81v-51h-494q-92 0 -146 48t-54 142v20h55v-23q0 -67 38.5 -101.5t106.5 -34.5h359v77q0 94 -49.5 148t-131.5 54h-133l-19 43l285 278l35 -38l-243 -234h79q105 0 168 -66.5t63 -178.5v-83z" />
    <glyph glyph-name="uniFB90" unicode="&#x6a9;" horiz-adv-x="427" arabic-form="initial" 
d="M185 379q94 0 150.5 -51.5t56.5 -136.5q0 -87 -57.5 -139t-161.5 -52h-174v51h174q80 0 122.5 37t42.5 103q0 63 -42.5 101t-114.5 38h-134l-19 43l285 278l35 -38l-243 -234h80z" />
    <glyph glyph-name="uniFB91" unicode="&#x6a9;" horiz-adv-x="472" arabic-form="medial" 
d="M393 51h80v-51h-474v51h339v77q0 94 -49 148t-132 54h-110l-19 43l285 278l35 -38l-243 -234h56q105 0 168.5 -66.5t63.5 -178.5v-83z" />
    <glyph glyph-name="uniFB93" unicode="&#x6af;" horiz-adv-x="731" arabic-form="final" 
d="M463 637l-218 -217l-19 35l212 210zM651 51h81v-51h-494q-92 0 -146 48t-54 142v20h55v-23q0 -67 38.5 -101.5t106.5 -34.5h359v77q0 94 -49.5 148t-131.5 54h-133l-19 43l285 278l35 -38l-243 -234h79q105 0 168 -66.5t63 -178.5v-83z" />
    <glyph glyph-name="uniFB94" unicode="&#x6af;" horiz-adv-x="427" arabic-form="initial" 
d="M229 637l-218 -217l-19 35l212 210zM185 379q94 0 150.5 -51.5t56.5 -136.5q0 -87 -57.5 -139t-161.5 -52h-174v51h174q80 0 122.5 37t42.5 103q0 63 -42.5 101t-114.5 38h-134l-19 43l285 278l35 -38l-243 -234h80z" />
    <glyph glyph-name="uniFB95" unicode="&#x6af;" horiz-adv-x="472" arabic-form="medial" 
d="M229 637l-218 -217l-19 35l212 210zM393 51h80v-51h-474v51h339v77q0 94 -49 148t-132 54h-110l-19 43l285 278l35 -38l-243 -234h56q105 0 168.5 -66.5t63.5 -178.5v-83z" />
    <glyph glyph-name="uniFB9F" unicode="&#x6ba;" horiz-adv-x="732" arabic-form="final" 
d="M733 51v-51h-171q-72 -120 -226 -120q-54 0 -100.5 17t-86.5 53t-63 101.5t-23 152.5v196h55v-199q0 -72 18.5 -126t50 -84t69 -44.5t80.5 -14.5t80 13.5t69 43t50.5 84t18.5 128.5v199h55v-196q0 -84 -23 -153h147z" />
    <glyph glyph-name="uniFBA7" unicode="&#x6c1;" horiz-adv-x="582" arabic-form="final" 
d="M566 51h17v-51h-20q-85 0 -131.5 47t-46.5 135v167h-46q-109 0 -173 -81t-64 -218v-50h-57v50q0 162 79 256t215 94h101v-218q0 -61 33.5 -96t92.5 -35z" />
    <glyph glyph-name="uniFBA8" unicode="&#x6c1;" horiz-adv-x="312" arabic-form="initial" 
d="M-1 0v51h66q84 0 84 97v252h55v-247q0 -153 -136 -153h-69zM131 -228l-45 9l32 165l53 -10z" />
    <glyph glyph-name="uniFBA9" unicode="&#x6c1;" horiz-adv-x="389" arabic-form="medial" 
d="M368 51h22v-51h-19q-177 0 -177 -198v-22h-53v220h-142v51h142v169h53v-265q48 96 174 96z" />
    <glyph glyph-name="uniFBAB" unicode="&#x6be;" horiz-adv-x="763" arabic-form="final" 
d="M693 51h71v-51h-695v51q0 178 78 269.5t229 91.5q156 0 236.5 -91.5t80.5 -269.5zM352 364q-227 -14 -227 -313h227v313zM402 51h235q0 298 -235 313v-313z" />
    <glyph glyph-name="uniFBAC" unicode="&#x6be;" horiz-adv-x="763" arabic-form="initial" 
d="M387 412q151 0 229 -91.5t78 -269.5v-51h-695v51h71q0 178 80.5 269.5t236.5 91.5zM411 51h227q0 299 -227 313v-313zM361 364q-235 -15 -235 -313h235v313z" />
    <glyph glyph-name="uniFBAD" unicode="&#x6be;" horiz-adv-x="774" arabic-form="medial" 
d="M694 51h81v-51h-776v51h71q0 178 80.5 269.5t236.5 91.5q151 0 229 -91.5t78 -269.5zM411 51h227q0 299 -227 313v-313zM361 364q-235 -15 -235 -313h235v313z" />
    <glyph glyph-name="uniFBAF" unicode="&#x6d2;" horiz-adv-x="568" arabic-form="final" 
d="M186 0q-46 0 -73.5 -24t-27.5 -60q0 -37 27.5 -61t73.5 -24h313v-51h-313q-72 0 -114.5 39t-42.5 97t42.5 96.5t114.5 38.5h383v-51h-383z" />
    <glyph glyph-name="uniFBB1" unicode="&#x6d3;" horiz-adv-x="568" arabic-form="final" 
d="M140 169q-41 6 -66.5 34.5t-25.5 69.5q0 46 31 75.5t80 29.5q57 0 89 -40l-29 -26q-23 26 -59 26q-29 0 -48.5 -18.5t-19.5 -47.5t20 -48.5t50 -19.5q32 0 60 16l3 2l22 -33l-145 -96l-27 35zM186 0q-46 0 -73.5 -24t-27.5 -60q0 -37 27.5 -61t73.5 -24h313v-51h-313
q-72 0 -114.5 39t-42.5 97t42.5 96.5t114.5 38.5h383v-51h-383z" />
    <glyph glyph-name="uniFBFD" unicode="&#x6cc;" horiz-adv-x="685" arabic-form="final" 
d="M686 51v-51h-31q-13 -101 -97 -160.5t-197 -59.5q-139 0 -224.5 87.5t-85.5 227.5v85h55v-76q0 -120 71.5 -196.5t185.5 -76.5q93 0 158.5 48t79.5 126q-76 14 -120.5 69.5t-44.5 139.5h55q0 -74 44.5 -118.5t115.5 -44.5h35z" />
    <glyph glyph-name="uniFBFE" unicode="&#x6cc;" horiz-adv-x="312" arabic-form="initial" 
d="M-1 0v51h66q84 0 84 97v252h55v-247q0 -153 -136 -153h-69zM53 -141q-17 0 -27.5 10t-10.5 27t10.5 27t27.5 10q16 0 26.5 -10.5t10.5 -26.5t-10.5 -26.5t-26.5 -10.5zM192 -141q-17 0 -27.5 10t-10.5 27t10.5 27t27.5 10q16 0 26.5 -10.5t10.5 -26.5t-10.5 -26.5
t-26.5 -10.5z" />
    <glyph glyph-name="uniFBFF" unicode="&#x6cc;" horiz-adv-x="343" arabic-form="medial" 
d="M203 51h141v-51h-345v51h149v349h55v-349zM56 -67q16 0 26.5 -10.5t10.5 -26.5t-10.5 -26.5t-26.5 -10.5q-17 0 -27.5 10t-10.5 27t10.5 27t27.5 10zM195 -67q16 0 26.5 -10.5t10.5 -26.5t-10.5 -26.5t-26.5 -10.5q-17 0 -27.5 10t-10.5 27t10.5 27t27.5 10z" />
    <glyph glyph-name="uniFC32" unicode="&#xfc32;" horiz-adv-x="730" arabic-form="isolated" 
d="M371 617q-17 0 -27.5 10t-10.5 27t10.5 27t27.5 10q16 0 26.5 -10.5t10.5 -26.5t-10.5 -26.5t-26.5 -10.5zM569 285q58 -13 91.5 -56t33.5 -98q0 -68 -48.5 -114t-129.5 -46h-286q-90 0 -145 47.5t-55 142.5v20h55v-23q0 -68 39 -102t106 -34h286q55 0 89.5 31.5
t34.5 78.5q0 39 -24 68.5t-65 37.5q-26 -46 -73.5 -73t-107.5 -27q-90 0 -148 57t-58 145t58 145t148 57t148 -57t58 -145q0 -31 -7 -55zM370 189q66 0 108.5 42.5t42.5 108.5q0 67 -42.5 109t-108.5 42q-67 0 -109 -42t-42 -109q0 -66 42 -108.5t109 -42.5zM306 -126
q16 0 26.5 -10.5t10.5 -26.5t-10.5 -26.5t-26.5 -10.5q-17 0 -27.5 10t-10.5 27t10.5 27t27.5 10zM445 -126q16 0 26.5 -10.5t10.5 -26.5t-10.5 -26.5t-26.5 -10.5q-17 0 -27.5 10t-10.5 27t10.5 27t27.5 10z" />
    <glyph glyph-name="uniFD3C" unicode="&#xfd3c;" horiz-adv-x="273" arabic-form="final" 
d="M11 655l217 82l16 -37l-217 -83zM19 566l217 82l16 -36l-217 -83zM240 0q-136 0 -136 153v338h55v-343q0 -97 84 -97h31v-51h-34z" />
    <glyph glyph-name="uniFD3D" unicode="&#xfd3d;" horiz-adv-x="263" arabic-form="isolated" 
d="M11 655l217 82l16 -37l-217 -83zM19 566l217 82l16 -36l-217 -83zM104 0v491h55v-491h-55z" />
    <glyph glyph-name="uniFE82" unicode="&#x622;" horiz-adv-x="273" arabic-form="final" 
d="M12 505q0 32 6.5 54t15.5 33t27 17t31 7t38 1q29 0 43.5 2.5t26 16t11.5 40.5h41q0 -28 -6.5 -47t-15 -29t-25.5 -15t-29 -6t-34 -1q-26 0 -37.5 -1.5t-26 -8t-20 -22t-5.5 -41.5h-41zM240 0q-136 0 -136 153v338h55v-343q0 -97 84 -97h31v-51h-34z" />
    <glyph glyph-name="uniFE84" unicode="&#x623;" horiz-adv-x="273" arabic-form="final" 
d="M206 652l22 -33l-145 -96l-27 35l65 41q-41 6 -66.5 34.5t-25.5 69.5q0 46 31 75.5t80 29.5q57 0 89 -40l-29 -26q-23 26 -59 26q-29 0 -48.5 -18.5t-19.5 -47.5t20 -48.5t50 -19.5q32 0 60 16zM243 51h31v-51h-34q-136 0 -136 153v338h55v-343q0 -97 84 -97z" />
    <glyph glyph-name="uniFE86" unicode="&#x624;" horiz-adv-x="529" arabic-form="final" 
d="M241 514q-41 6 -66.5 34.5t-25.5 69.5q0 46 31 75.5t80 29.5q57 0 89 -40l-29 -26q-23 26 -59 26q-29 0 -48.5 -18.5t-19.5 -47.5t20 -48.5t50 -19.5q32 0 60 16l3 2l22 -33l-145 -96l-27 35zM530 51v-51h-92q-35 -103 -114.5 -161.5t-189.5 -58.5h-15v50h8
q92 0 157.5 45.5t97.5 124.5h-92q-127 0 -185 56t-58 152q0 91 56.5 147.5t148.5 56.5q95 0 152 -69.5t57 -194.5q0 -52 -9 -97h78zM295 51h103q10 50 10 95q0 102 -43 159t-114 57q-67 0 -109 -43.5t-42 -111.5q0 -156 195 -156z" />
    <glyph glyph-name="uniFE88" unicode="&#x625;" horiz-adv-x="273" arabic-form="final" 
d="M243 51h31v-51h-34q-136 0 -136 153v447h55v-452q0 -97 84 -97zM178 -79q-29 0 -48.5 -18t-19.5 -47t20 -48.5t50 -19.5q35 0 63 17l22 -32l-146 -96l-26 35l64 40q-40 6 -65.5 35t-25.5 70q0 46 31 75.5t80 29.5q57 0 89 -40l-29 -27q-22 26 -59 26z" />
    <glyph glyph-name="uniFE8A" unicode="&#x626;" horiz-adv-x="685" arabic-form="final" 
d="M159 341l22 -33l-145 -96l-27 35l65 41q-41 6 -66.5 34.5t-25.5 69.5q0 46 31 75.5t80 29.5q57 0 89 -40l-29 -26q-23 26 -59 26q-29 0 -48.5 -18.5t-19.5 -47.5t20 -48.5t50 -19.5q32 0 60 16zM686 51v-51h-31q-13 -101 -97 -160.5t-197 -59.5q-139 0 -224.5 87.5
t-85.5 227.5v85h55v-76q0 -120 71.5 -196.5t185.5 -76.5q93 0 158.5 48t79.5 126q-76 14 -120.5 69.5t-44.5 139.5h55q0 -74 44.5 -118.5t115.5 -44.5h35z" />
    <glyph glyph-name="uniFE8B" unicode="&#x626;" horiz-adv-x="312" arabic-form="initial" 
d="M246 559l3 2l22 -33l-145 -96l-27 35l65 41q-41 6 -66.5 34.5t-25.5 69.5q0 46 31 75.5t80 29.5q57 0 89 -40l-29 -26q-23 26 -59 26q-29 0 -48.5 -18.5t-19.5 -47.5t20 -48.5t50 -19.5q32 0 60 16zM149 148v252h55v-247q0 -153 -136 -153h-69v51h66q84 0 84 97z" />
    <glyph glyph-name="uniFE8C" unicode="&#x626;" horiz-adv-x="343" arabic-form="medial" 
d="M165 508q-41 6 -66.5 34.5t-25.5 69.5q0 46 31 75.5t80 29.5q57 0 89 -40l-29 -26q-23 26 -59 26q-29 0 -48.5 -18.5t-19.5 -47.5t20 -48.5t50 -19.5q32 0 60 16l3 2l22 -33l-145 -96l-27 35zM203 51h141v-51h-345v51h149v349h55v-349z" />
    <glyph glyph-name="uniFE8E" unicode="&#x627;" horiz-adv-x="273" arabic-form="final" 
d="M240 0q-136 0 -136 153v447h55v-452q0 -97 84 -97h31v-51h-34z" />
    <glyph glyph-name="uniFE90" unicode="&#x628;" horiz-adv-x="728" arabic-form="final" 
d="M588 51h141v-51h-370q-128 0 -209 76.5t-81 223.5v100h54v-103q0 -121 65.5 -183.5t170.5 -62.5h174v349h55v-349zM355 -73q16 0 26.5 -10.5t10.5 -26.5t-10.5 -26.5t-26.5 -10.5q-17 0 -27.5 10t-10.5 27t10.5 27t27.5 10z" />
    <glyph glyph-name="uniFE91" unicode="&#x628;" horiz-adv-x="312" arabic-form="initial" 
d="M-1 0v51h66q84 0 84 97v252h55v-247q0 -153 -136 -153h-69zM131 -147q-17 0 -27.5 10t-10.5 27t10.5 27t27.5 10q16 0 26.5 -10.5t10.5 -26.5t-10.5 -26.5t-26.5 -10.5z" />
    <glyph glyph-name="uniFE92" unicode="&#x628;" horiz-adv-x="343" arabic-form="medial" 
d="M203 51h141v-51h-345v51h149v349h55v-349zM126 -73q16 0 26.5 -10.5t10.5 -26.5t-10.5 -26.5t-26.5 -10.5q-17 0 -27.5 10t-10.5 27t10.5 27t27.5 10z" />
    <glyph glyph-name="uniFE94" unicode="&#x629;" horiz-adv-x="529" arabic-form="final" 
d="M197 491q-17 0 -27.5 10t-10.5 27t10.5 27t27.5 10q16 0 26.5 -10.5t10.5 -26.5t-10.5 -26.5t-26.5 -10.5zM336 491q-17 0 -27.5 10t-10.5 27t10.5 27t27.5 10q16 0 26.5 -10.5t10.5 -26.5t-10.5 -26.5t-26.5 -10.5zM409 51h121v-51h-263q-112 0 -170 54t-58 145
q0 92 58.5 146.5t158.5 54.5h153v-349zM267 51h87v298h-94q-77 0 -121.5 -41t-44.5 -110t42.5 -108t130.5 -39z" />
    <glyph glyph-name="uniFE96" unicode="&#x62a;" horiz-adv-x="728" arabic-form="final" 
d="M275 491q-17 0 -27.5 10t-10.5 27t10.5 27t27.5 10q16 0 26.5 -10.5t10.5 -26.5t-10.5 -26.5t-26.5 -10.5zM414 491q-17 0 -27.5 10t-10.5 27t10.5 27t27.5 10q16 0 26.5 -10.5t10.5 -26.5t-10.5 -26.5t-26.5 -10.5zM588 51h141v-51h-370q-128 0 -209 76.5t-81 223.5v100
h54v-103q0 -121 65.5 -183.5t170.5 -62.5h174v349h55v-349z" />
    <glyph glyph-name="uniFE97" unicode="&#x62a;" horiz-adv-x="312" arabic-form="initial" 
d="M107 491q-17 0 -27.5 10t-10.5 27t10.5 27t27.5 10q16 0 26.5 -10.5t10.5 -26.5t-10.5 -26.5t-26.5 -10.5zM246 491q-17 0 -27.5 10t-10.5 27t10.5 27t27.5 10q16 0 26.5 -10.5t10.5 -26.5t-10.5 -26.5t-26.5 -10.5zM-1 0v51h66q84 0 84 97v252h55v-247q0 -153 -136 -153
h-69z" />
    <glyph glyph-name="uniFE98" unicode="&#x62a;" horiz-adv-x="343" arabic-form="medial" 
d="M108 491q-17 0 -27.5 10t-10.5 27t10.5 27t27.5 10q16 0 26.5 -10.5t10.5 -26.5t-10.5 -26.5t-26.5 -10.5zM247 491q-17 0 -27.5 10t-10.5 27t10.5 27t27.5 10q16 0 26.5 -10.5t10.5 -26.5t-10.5 -26.5t-26.5 -10.5zM203 51h141v-51h-345v51h149v349h55v-349z" />
    <glyph glyph-name="uniFE9A" unicode="&#x62b;" horiz-adv-x="728" arabic-form="final" 
d="M342 620q-17 0 -27.5 10t-10.5 27t10.5 27t27.5 10q16 0 26.5 -10.5t10.5 -26.5t-10.5 -26.5t-26.5 -10.5zM268 491q-17 0 -27.5 10t-10.5 27t10.5 27t27.5 10q16 0 26.5 -10.5t10.5 -26.5t-10.5 -26.5t-26.5 -10.5zM418 491q-17 0 -27.5 10t-10.5 27t10.5 27t27.5 10
q16 0 26.5 -10.5t10.5 -26.5t-10.5 -26.5t-26.5 -10.5zM588 51h141v-51h-370q-128 0 -209 76.5t-81 223.5v100h54v-103q0 -121 65.5 -183.5t170.5 -62.5h174v349h55v-349z" />
    <glyph glyph-name="uniFE9B" unicode="&#x62b;" horiz-adv-x="312" arabic-form="initial" 
d="M174 620q-17 0 -27.5 10t-10.5 27t10.5 27t27.5 10q16 0 26.5 -10.5t10.5 -26.5t-10.5 -26.5t-26.5 -10.5zM100 491q-17 0 -27.5 10t-10.5 27t10.5 27t27.5 10q16 0 26.5 -10.5t10.5 -26.5t-10.5 -26.5t-26.5 -10.5zM250 491q-17 0 -27.5 10t-10.5 27t10.5 27t27.5 10
q16 0 26.5 -10.5t10.5 -26.5t-10.5 -26.5t-26.5 -10.5zM-1 0v51h66q84 0 84 97v252h55v-247q0 -153 -136 -153h-69z" />
    <glyph glyph-name="uniFE9C" unicode="&#x62b;" horiz-adv-x="343" arabic-form="medial" 
d="M175 620q-17 0 -27.5 10t-10.5 27t10.5 27t27.5 10q16 0 26.5 -10.5t10.5 -26.5t-10.5 -26.5t-26.5 -10.5zM101 491q-17 0 -27.5 10t-10.5 27t10.5 27t27.5 10q16 0 26.5 -10.5t10.5 -26.5t-10.5 -26.5t-26.5 -10.5zM251 491q-17 0 -27.5 10t-10.5 27t10.5 27t27.5 10
q16 0 26.5 -10.5t10.5 -26.5t-10.5 -26.5t-26.5 -10.5zM203 51h141v-51h-345v51h149v349h55v-349z" />
    <glyph glyph-name="uniFE9E" unicode="&#x62c;" horiz-adv-x="612" arabic-form="final" 
d="M585 51h28v-51h-28q-66 0 -104.5 35t-43.5 98h-169q-80 0 -129 -41t-49 -109t48.5 -110t127.5 -42h210v-51h-211q-103 0 -166 55.5t-63 147.5q0 90 63.5 144.5t168.5 54.5h168q0 81 -45 124t-131 43h-188v51h188q109 0 169 -57.5t60 -160.5v-34q0 -46 25 -71.5t71 -25.5z
M277 -14q0 17 10.5 27t27.5 10q16 0 26.5 -10.5t10.5 -26.5t-10.5 -26.5t-26.5 -10.5q-17 0 -27.5 10t-10.5 27z" />
    <glyph glyph-name="uniFE9F" unicode="&#x62c;" horiz-adv-x="606" arabic-form="initial" 
d="M187 400q355 0 355 -349v-51h-543v51h486q0 298 -298 298h-141v51h141zM275 -73q16 0 26.5 -10.5t10.5 -26.5t-10.5 -26.5t-26.5 -10.5q-17 0 -27.5 10t-10.5 27t10.5 27t27.5 10z" />
    <glyph glyph-name="uniFEA0" unicode="&#x62c;" horiz-adv-x="606" arabic-form="medial" 
d="M542 51h65v-51h-608v51h488q-4 152 -77 225t-223 73h-141v51h141q177 0 264 -85.5t91 -263.5zM278 -73q16 0 26.5 -10.5t10.5 -26.5t-10.5 -26.5t-26.5 -10.5q-17 0 -27.5 10t-10.5 27t10.5 27t27.5 10z" />
    <glyph glyph-name="uniFEA2" unicode="&#x62d;" horiz-adv-x="612" arabic-form="final" 
d="M585 51h28v-51h-28q-66 0 -104.5 35t-43.5 98h-169q-80 0 -129 -41t-49 -109t48.5 -110t127.5 -42h210v-51h-211q-103 0 -166 55.5t-63 147.5q0 90 63.5 144.5t168.5 54.5h168q0 81 -45 124t-131 43h-188v51h188q109 0 169 -57.5t60 -160.5v-34q0 -46 25 -71.5t71 -25.5z
" />
    <glyph glyph-name="uniFEA3" unicode="&#x62d;" horiz-adv-x="606" arabic-form="initial" 
d="M187 400q355 0 355 -349v-51h-543v51h486q0 298 -298 298h-141v51h141z" />
    <glyph glyph-name="uniFEA4" unicode="&#x62d;" horiz-adv-x="606" arabic-form="medial" 
d="M542 51h65v-51h-608v51h488q-4 152 -77 225t-223 73h-141v51h141q177 0 264 -85.5t91 -263.5z" />
    <glyph glyph-name="uniFEA6" unicode="&#x62e;" horiz-adv-x="612" arabic-form="final" 
d="M274 506q-17 0 -27.5 10t-10.5 27t10.5 27t27.5 10q16 0 26.5 -10.5t10.5 -26.5t-10.5 -26.5t-26.5 -10.5zM585 51h28v-51h-28q-66 0 -104.5 35t-43.5 98h-169q-80 0 -129 -41t-49 -109t48.5 -110t127.5 -42h210v-51h-211q-103 0 -166 55.5t-63 147.5q0 90 63.5 144.5
t168.5 54.5h168q0 81 -45 124t-131 43h-188v51h188q109 0 169 -57.5t60 -160.5v-34q0 -46 25 -71.5t71 -25.5z" />
    <glyph glyph-name="uniFEA7" unicode="&#x62e;" horiz-adv-x="606" arabic-form="initial" 
d="M279 486q-17 0 -27.5 10t-10.5 27t10.5 27t27.5 10q16 0 26.5 -10.5t10.5 -26.5t-10.5 -26.5t-26.5 -10.5zM187 400q355 0 355 -349v-51h-543v51h486q0 298 -298 298h-141v51h141z" />
    <glyph glyph-name="uniFEA8" unicode="&#x62e;" horiz-adv-x="606" arabic-form="medial" 
d="M277 486q-17 0 -27.5 10t-10.5 27t10.5 27t27.5 10q16 0 26.5 -10.5t10.5 -26.5t-10.5 -26.5t-26.5 -10.5zM542 51h65v-51h-608v51h488q-4 152 -77 225t-223 73h-141v51h141q177 0 264 -85.5t91 -263.5z" />
    <glyph glyph-name="uniFEAA" unicode="&#x62f;" horiz-adv-x="426" arabic-form="final" 
d="M346 51h81v-51h-396v51h261v120q0 86 -44.5 132t-131.5 46h-76v51h79q110 0 168.5 -59t58.5 -164v-126z" />
    <glyph glyph-name="uniFEAC" unicode="&#x630;" horiz-adv-x="426" arabic-form="final" 
d="M197 486q-17 0 -27.5 10t-10.5 27t10.5 27t27.5 10q16 0 26.5 -10.5t10.5 -26.5t-10.5 -26.5t-26.5 -10.5zM346 51h81v-51h-396v51h261v120q0 86 -44.5 132t-131.5 46h-76v51h79q110 0 168.5 -59t58.5 -164v-126z" />
    <glyph glyph-name="uniFEAE" unicode="&#x631;" horiz-adv-x="319" arabic-form="final" 
d="M320 51v-51h-140q-1 -104 -53.5 -162t-142.5 -58h-21v52h20q67 0 104.5 44t37.5 127v397h55v-349h140z" />
    <glyph glyph-name="uniFEB0" unicode="&#x632;" horiz-adv-x="319" arabic-form="final" 
d="M154 486q-17 0 -27.5 10t-10.5 27t10.5 27t27.5 10q16 0 26.5 -10.5t10.5 -26.5t-10.5 -26.5t-26.5 -10.5zM320 51v-51h-140q-1 -104 -53.5 -162t-142.5 -58h-21v52h20q67 0 104.5 44t37.5 127v397h55v-349h140z" />
    <glyph glyph-name="uniFEB2" unicode="&#x633;" horiz-adv-x="1228" arabic-form="final" 
d="M1092 51h137v-51h-672q-16 -103 -81 -161.5t-167 -58.5q-119 0 -189.5 74.5t-70.5 200.5v45h54v-48q0 -101 56.5 -160.5t149.5 -59.5t145.5 61.5t52.5 168.5v238h55v-235v-14h211v299h55v-299h209v349h55v-349z" />
    <glyph glyph-name="uniFEB3" unicode="&#x633;" horiz-adv-x="817" arabic-form="initial" 
d="M674 400h55v-247q0 -153 -136 -153h-594v51h144v249h55v-249h211v299h55v-299h125q85 0 85 97v252z" />
    <glyph glyph-name="uniFEB4" unicode="&#x633;" horiz-adv-x="864" arabic-form="medial" 
d="M729 51h136v-51h-866v51h144v249h55v-249h211v299h55v-299h210v349h55v-349z" />
    <glyph glyph-name="uniFEB6" unicode="&#x634;" horiz-adv-x="1228" arabic-form="final" 
d="M800 570q-17 0 -27.5 10t-10.5 27t10.5 27t27.5 10q16 0 26.5 -10.5t10.5 -26.5t-10.5 -26.5t-26.5 -10.5zM726 441q-17 0 -27.5 10t-10.5 27t10.5 27t27.5 10q16 0 26.5 -10.5t10.5 -26.5t-10.5 -26.5t-26.5 -10.5zM876 441q-17 0 -27.5 10t-10.5 27t10.5 27t27.5 10
q16 0 26.5 -10.5t10.5 -26.5t-10.5 -26.5t-26.5 -10.5zM1092 51h137v-51h-672q-16 -103 -81 -161.5t-167 -58.5q-119 0 -189.5 74.5t-70.5 200.5v45h54v-48q0 -101 56.5 -160.5t149.5 -59.5t145.5 61.5t52.5 168.5v238h55v-235v-14h211v299h55v-299h209v349h55v-349z" />
    <glyph glyph-name="uniFEB7" unicode="&#x634;" horiz-adv-x="817" arabic-form="initial" 
d="M437 570q-17 0 -27.5 10t-10.5 27t10.5 27t27.5 10q16 0 26.5 -10.5t10.5 -26.5t-10.5 -26.5t-26.5 -10.5zM363 441q-17 0 -27.5 10t-10.5 27t10.5 27t27.5 10q16 0 26.5 -10.5t10.5 -26.5t-10.5 -26.5t-26.5 -10.5zM513 441q-17 0 -27.5 10t-10.5 27t10.5 27t27.5 10
q16 0 26.5 -10.5t10.5 -26.5t-10.5 -26.5t-26.5 -10.5zM674 400h55v-247q0 -153 -136 -153h-594v51h144v249h55v-249h211v299h55v-299h125q85 0 85 97v252z" />
    <glyph glyph-name="uniFEB8" unicode="&#x634;" horiz-adv-x="864" arabic-form="medial" 
d="M436 575q-17 0 -27.5 10t-10.5 27t10.5 27t27.5 10q16 0 26.5 -10.5t10.5 -26.5t-10.5 -26.5t-26.5 -10.5zM362 446q-17 0 -27.5 10t-10.5 27t10.5 27t27.5 10q16 0 26.5 -10.5t10.5 -26.5t-10.5 -26.5t-26.5 -10.5zM512 446q-17 0 -27.5 10t-10.5 27t10.5 27t27.5 10
q16 0 26.5 -10.5t10.5 -26.5t-10.5 -26.5t-26.5 -10.5zM729 51h136v-51h-866v51h144v249h55v-249h211v299h55v-299h210v349h55v-349z" />
    <glyph glyph-name="uniFEBA" unicode="&#x635;" horiz-adv-x="1142" arabic-form="final" 
d="M1000 51h143v-51h-582q-10 -102 -76.5 -161t-175.5 -59q-119 0 -189.5 71t-70.5 193v56h54v-59q0 -96 56.5 -152.5t149.5 -56.5q95 0 149 55.5t54 151.5v361h50v-217q45 104 132 166.5t188 62.5q97 0 151.5 -54.5t54.5 -140.5q0 -113 -88 -166zM879 361q-110 0 -203 -90
t-111 -220h279q97 0 143 43.5t46 115.5q0 68 -40 109.5t-114 41.5z" />
    <glyph glyph-name="uniFEBB" unicode="&#x635;" horiz-adv-x="727" arabic-form="initial" 
d="M479 412q96 0 151.5 -54.5t55.5 -145.5q0 -97 -64 -154.5t-180 -57.5h-443v51h111v349h51v-217q44 104 130.5 166.5t187.5 62.5zM442 51q91 0 140 42.5t49 116.5q0 69 -41 110t-114 41q-108 0 -201 -90t-111 -220h278z" />
    <glyph glyph-name="uniFEBC" unicode="&#x635;" horiz-adv-x="754" arabic-form="medial" 
d="M612 51h143v-51h-756v51h125v349h50v-217q45 104 132 166.5t188 62.5q98 0 152 -54.5t54 -140.5q0 -113 -88 -166zM491 361q-109 0 -202.5 -90t-111.5 -220h279q97 0 143 43.5t46 115.5q0 68 -40 109.5t-114 41.5z" />
    <glyph glyph-name="uniFEBE" unicode="&#x636;" horiz-adv-x="1142" arabic-form="final" 
d="M695 486q-17 0 -27.5 10t-10.5 27t10.5 27t27.5 10q16 0 26.5 -10.5t10.5 -26.5t-10.5 -26.5t-26.5 -10.5zM1000 51h143v-51h-582q-10 -102 -76.5 -161t-175.5 -59q-119 0 -189.5 71t-70.5 193v56h54v-59q0 -96 56.5 -152.5t149.5 -56.5q95 0 149 55.5t54 151.5v361h50
v-217q45 104 132 166.5t188 62.5q97 0 151.5 -54.5t54.5 -140.5q0 -113 -88 -166zM879 361q-110 0 -203 -90t-111 -220h279q97 0 143 43.5t46 115.5q0 68 -40 109.5t-114 41.5z" />
    <glyph glyph-name="uniFEBF" unicode="&#x636;" horiz-adv-x="727" arabic-form="initial" 
d="M330 486q-17 0 -27.5 10t-10.5 27t10.5 27t27.5 10q16 0 26.5 -10.5t10.5 -26.5t-10.5 -26.5t-26.5 -10.5zM479 412q96 0 151.5 -54.5t55.5 -145.5q0 -97 -64 -154.5t-180 -57.5h-443v51h111v349h51v-217q44 104 130.5 166.5t187.5 62.5zM442 51q91 0 140 42.5t49 116.5
q0 69 -41 110t-114 41q-108 0 -201 -90t-111 -220h278z" />
    <glyph glyph-name="uniFEC0" unicode="&#x636;" horiz-adv-x="754" arabic-form="medial" 
d="M326 486q-17 0 -27.5 10t-10.5 27t10.5 27t27.5 10q16 0 26.5 -10.5t10.5 -26.5t-10.5 -26.5t-26.5 -10.5zM612 51h143v-51h-756v51h125v349h50v-217q45 104 132 166.5t188 62.5q98 0 152 -54.5t54 -140.5q0 -113 -88 -166zM491 361q-109 0 -202.5 -90t-111.5 -220h279
q97 0 143 43.5t46 115.5q0 68 -40 109.5t-114 41.5z" />
    <glyph glyph-name="uniFEC2" unicode="&#x637;" horiz-adv-x="768" arabic-form="final" 
d="M626 51h143v-51h-761v51h130v549h50v-417q45 104 131.5 166.5t187.5 62.5q98 0 152.5 -54.5t54.5 -140.5q0 -113 -88 -166zM505 361q-110 0 -203 -90t-111 -220h278q97 0 143.5 43.5t46.5 115.5q0 68 -40 109.5t-114 41.5z" />
    <glyph glyph-name="uniFEC3" unicode="&#x637;" horiz-adv-x="727" arabic-form="initial" 
d="M479 412q96 0 151.5 -54.5t55.5 -145.5q0 -97 -64 -154.5t-180 -57.5h-443v51h111v549h51v-417q44 104 130.5 166.5t187.5 62.5zM442 51q91 0 140 42.5t49 116.5q0 69 -41 110t-114 41q-108 0 -201 -90t-111 -220h278z" />
    <glyph glyph-name="uniFEC4" unicode="&#x637;" horiz-adv-x="740" arabic-form="medial" 
d="M598 51h143v-51h-742v51h111v549h51v-417q45 104 131.5 166.5t187.5 62.5q98 0 152 -54.5t54 -140.5q0 -113 -88 -166zM477 361q-109 0 -202 -90t-111 -220h278q97 0 143 43.5t46 115.5q0 68 -39.5 109.5t-114.5 41.5z" />
    <glyph glyph-name="uniFEC6" unicode="&#x638;" horiz-adv-x="768" arabic-form="final" 
d="M626 51h143v-51h-761v51h130v549h50v-417q45 104 131.5 166.5t187.5 62.5q98 0 152.5 -54.5t54.5 -140.5q0 -113 -88 -166zM344 486q-17 0 -27.5 10t-10.5 27t10.5 27t27.5 10q16 0 26.5 -10.5t10.5 -26.5t-10.5 -26.5t-26.5 -10.5zM505 361q-110 0 -203 -90t-111 -220
h278q97 0 143.5 43.5t46.5 115.5q0 68 -40 109.5t-114 41.5z" />
    <glyph glyph-name="uniFEC7" unicode="&#x638;" horiz-adv-x="727" arabic-form="initial" 
d="M479 412q96 0 151.5 -54.5t55.5 -145.5q0 -97 -64 -154.5t-180 -57.5h-443v51h111v549h51v-417q44 104 130.5 166.5t187.5 62.5zM317 486q-17 0 -27.5 10t-10.5 27t10.5 27t27.5 10q16 0 26.5 -10.5t10.5 -26.5t-10.5 -26.5t-26.5 -10.5zM442 51q91 0 140 42.5t49 116.5
q0 69 -41 110t-114 41q-108 0 -201 -90t-111 -220h278z" />
    <glyph glyph-name="uniFEC8" unicode="&#x638;" horiz-adv-x="740" arabic-form="medial" 
d="M598 51h143v-51h-742v51h111v549h51v-417q45 104 131.5 166.5t187.5 62.5q98 0 152 -54.5t54 -140.5q0 -113 -88 -166zM317 486q-17 0 -27.5 10t-10.5 27t10.5 27t27.5 10q16 0 26.5 -10.5t10.5 -26.5t-10.5 -26.5t-26.5 -10.5zM477 361q-109 0 -202 -90t-111 -220h278
q97 0 143 43.5t46 115.5q0 68 -39.5 109.5t-114.5 41.5z" />
    <glyph glyph-name="uniFECA" unicode="&#x639;" horiz-adv-x="510" arabic-form="final" 
d="M420 51h91v-51h-91q-95 0 -173 40q-7 -4 -27.5 -16.5t-27 -17t-22 -15.5t-21 -17.5t-13.5 -17t-11 -21t-3 -22.5q0 -39 31 -60.5t90 -21.5h160v-51h-160q-88 0 -131 35.5t-43 93.5q0 28 10 51.5t31 43.5t39 33t50 32q-72 53 -112 139t-40 192h404q0 -213 -154 -328
q54 -21 123 -21zM106 354q15 -176 139 -256q132 85 148 256h-287z" />
    <glyph glyph-name="uniFECB" unicode="&#x639;" horiz-adv-x="467" arabic-form="initial" 
d="M270 412q101 0 168 -78l-35 -34q-56 62 -133 62q-68 0 -112 -44t-44 -111q0 -69 47 -112.5t122 -43.5h96v-51h-380v51h137q-76 55 -76 158q0 87 59 145t151 58z" />
    <glyph glyph-name="uniFECC" unicode="&#x639;" horiz-adv-x="522" arabic-form="medial" 
d="M432 51h91v-51h-91q-93 0 -171 39q-78 -39 -171 -39h-91v51h91q65 0 119 20q-71 53 -110.5 138t-39.5 191h404q0 -106 -39.5 -191t-110.5 -138q54 -20 119 -20zM118 354q7 -87 44 -153.5t99 -104.5q129 79 144 258h-287z" />
    <glyph glyph-name="uniFECE" unicode="&#x63a;" horiz-adv-x="510" arabic-form="final" 
d="M241 495q-17 0 -27.5 10t-10.5 27t10.5 27t27.5 10q16 0 26.5 -10.5t10.5 -26.5t-10.5 -26.5t-26.5 -10.5zM420 51h91v-51h-91q-95 0 -173 40q-7 -4 -27.5 -16.5t-27 -17t-22 -15.5t-21 -17.5t-13.5 -17t-11 -21t-3 -22.5q0 -39 31 -60.5t90 -21.5h160v-51h-160
q-88 0 -131 35.5t-43 93.5q0 28 10 51.5t31 43.5t39 33t50 32q-72 53 -112 139t-40 192h404q0 -213 -154 -328q54 -21 123 -21zM106 354q15 -176 139 -256q132 85 148 256h-287z" />
    <glyph glyph-name="uniFECF" unicode="&#x63a;" horiz-adv-x="467" arabic-form="initial" 
d="M273 496q-17 0 -27.5 10t-10.5 27t10.5 27t27.5 10q16 0 26.5 -10.5t10.5 -26.5t-10.5 -26.5t-26.5 -10.5zM270 412q101 0 168 -78l-35 -34q-56 62 -133 62q-68 0 -112 -44t-44 -111q0 -69 47 -112.5t122 -43.5h96v-51h-380v51h137q-76 55 -76 158q0 87 59 145t151 58z
" />
    <glyph glyph-name="uniFED0" unicode="&#x63a;" horiz-adv-x="522" arabic-form="medial" 
d="M262 495q-17 0 -27.5 10t-10.5 27t10.5 27t27.5 10q16 0 26.5 -10.5t10.5 -26.5t-10.5 -26.5t-26.5 -10.5zM432 51h91v-51h-91q-93 0 -171 39q-78 -39 -171 -39h-91v51h91q65 0 119 20q-71 53 -110.5 138t-39.5 191h404q0 -106 -39.5 -191t-110.5 -138q54 -20 119 -20z
M118 354q7 -87 44 -153.5t99 -104.5q129 79 144 258h-287z" />
    <glyph glyph-name="uniFED2" unicode="&#x641;" horiz-adv-x="870" arabic-form="final" 
d="M606 486q-17 0 -27.5 10t-10.5 27t10.5 27t27.5 10q16 0 26.5 -10.5t10.5 -26.5t-10.5 -26.5t-26.5 -10.5zM740 51h131v-51h-522q-129 0 -204.5 74t-75.5 226v100h54v-103q0 -127 60 -186.5t166 -59.5h131q-81 55 -81 159q0 87 60 144.5t151 57.5t151 -57.5t60 -144.5
q0 -104 -81 -159zM454 207q0 -68 43 -112t113 -44t113 44t43 112q0 67 -44 110.5t-112 43.5t-112 -43.5t-44 -110.5z" />
    <glyph glyph-name="uniFED3" unicode="&#x641;" horiz-adv-x="520" arabic-form="initial" 
d="M261 486q-17 0 -27.5 10t-10.5 27t10.5 27t27.5 10q16 0 26.5 -10.5t10.5 -26.5t-10.5 -26.5t-26.5 -10.5zM260 412q92 0 151.5 -58t59.5 -147q0 -85 -54.5 -146t-156.5 -61h-261v51h131q-81 55 -81 159q0 87 60 144.5t151 57.5zM261 51q69 0 112 43t43 112q0 67 -44 111
t-112 44t-112 -43.5t-44 -110.5q0 -68 43 -112t114 -44z" />
    <glyph glyph-name="uniFED4" unicode="&#x641;" horiz-adv-x="520" arabic-form="medial" 
d="M261 486q-17 0 -27.5 10t-10.5 27t10.5 27t27.5 10q16 0 26.5 -10.5t10.5 -26.5t-10.5 -26.5t-26.5 -10.5zM390 51h131v-51h-522v51h131q-81 55 -81 159q0 87 60 144.5t151 57.5t151 -57.5t60 -144.5q0 -104 -81 -159zM104 207q0 -68 43 -112t113 -44t113 44t43 112
q0 67 -44 110.5t-112 43.5t-112 -43.5t-44 -110.5z" />
    <glyph glyph-name="uniFED6" unicode="&#x642;" horiz-adv-x="840" arabic-form="final" 
d="M496 491q-17 0 -27.5 10t-10.5 27t10.5 27t27.5 10q16 0 26.5 -10.5t10.5 -26.5t-10.5 -26.5t-26.5 -10.5zM635 491q-17 0 -27.5 10t-10.5 27t10.5 27t27.5 10q16 0 26.5 -10.5t10.5 -26.5t-10.5 -26.5t-26.5 -10.5zM841 51v-51h-79q-40 -103 -128 -161.5t-197 -58.5
q-158 0 -268.5 110t-110.5 290v120h55v-114q0 -162 93.5 -259t232.5 -97q89 0 159 45t106 125h-88q-115 0 -175.5 57.5t-60.5 153.5q0 91 56.5 146t148.5 55q100 0 153 -69t53 -185q0 -58 -12 -107h62zM616 51h106q13 52 13 106q0 99 -41 151.5t-111 52.5q-66 0 -107 -40.5
t-41 -108.5q0 -74 45.5 -117.5t135.5 -43.5z" />
    <glyph glyph-name="uniFED7" unicode="&#x642;" horiz-adv-x="520" arabic-form="initial" 
d="M192 491q-17 0 -27.5 10t-10.5 27t10.5 27t27.5 10q16 0 26.5 -10.5t10.5 -26.5t-10.5 -26.5t-26.5 -10.5zM331 491q-17 0 -27.5 10t-10.5 27t10.5 27t27.5 10q16 0 26.5 -10.5t10.5 -26.5t-10.5 -26.5t-26.5 -10.5zM260 412q92 0 151.5 -58t59.5 -147q0 -85 -54.5 -146
t-156.5 -61h-261v51h131q-81 55 -81 159q0 87 60 144.5t151 57.5zM261 51q69 0 112 43t43 112q0 67 -44 111t-112 44t-112 -43.5t-44 -110.5q0 -68 43 -112t114 -44z" />
    <glyph glyph-name="uniFED8" unicode="&#x642;" horiz-adv-x="520" arabic-form="medial" 
d="M192 491q-17 0 -27.5 10t-10.5 27t10.5 27t27.5 10q16 0 26.5 -10.5t10.5 -26.5t-10.5 -26.5t-26.5 -10.5zM331 491q-17 0 -27.5 10t-10.5 27t10.5 27t27.5 10q16 0 26.5 -10.5t10.5 -26.5t-10.5 -26.5t-26.5 -10.5zM390 51h131v-51h-522v51h131q-81 55 -81 159
q0 87 60 144.5t151 57.5t151 -57.5t60 -144.5q0 -104 -81 -159zM104 207q0 -68 43 -112t113 -44t113 44t43 112q0 67 -44 110.5t-112 43.5t-112 -43.5t-44 -110.5z" />
    <glyph glyph-name="uniFEDA" unicode="&#x643;" horiz-adv-x="718" arabic-form="final" 
d="M588 51h131v-51h-361q-128 0 -209 76.5t-81 223.5v100h55v-103q0 -121 65 -183.5t170 -62.5h176v549h54v-549zM442 301q0 -39 -29 -64.5t-75 -25.5h-79v32h78q31 0 51 16.5t20 42.5q0 28 -21.5 45.5t-54.5 17.5h-59l-14 27l134 115l22 -27l-105 -85l25 1q47 0 77 -26
t30 -69z" />
    <glyph glyph-name="uniFEDB" unicode="&#x643;" horiz-adv-x="427" arabic-form="initial" 
d="M185 379q94 0 150.5 -51.5t56.5 -136.5q0 -87 -57.5 -139t-161.5 -52h-174v51h174q80 0 122.5 37t42.5 103q0 63 -42.5 101t-114.5 38h-134l-19 43l285 278l35 -38l-243 -234h80z" />
    <glyph glyph-name="uniFEDC" unicode="&#x643;" horiz-adv-x="472" arabic-form="medial" 
d="M393 51h80v-51h-474v51h339v77q0 94 -49 148t-132 54h-110l-19 43l285 278l35 -38l-243 -234h56q105 0 168.5 -66.5t63.5 -178.5v-83z" />
    <glyph glyph-name="uniFEDE" unicode="&#x644;" horiz-adv-x="687" arabic-form="final" 
d="M688 51v-51h-112q-18 -104 -83.5 -162t-164.5 -58q-116 0 -187.5 75.5t-71.5 199.5v45h54v-48q0 -98 57.5 -159t147.5 -61q91 0 145 64t54 175v529h55v-526q0 -15 -1 -23h107z" />
    <glyph glyph-name="uniFEDF" unicode="&#x644;" horiz-adv-x="248" arabic-form="initial" 
d="M-1 0v51h21q84 0 84 97v452h55v-447q0 -153 -136 -153h-24z" />
    <glyph glyph-name="uniFEE0" unicode="&#x644;" horiz-adv-x="263" arabic-form="medial" 
d="M159 51h105v-51h-265v51h105v549h55v-549z" />
    <glyph glyph-name="uniFEE2" unicode="&#x645;" horiz-adv-x="676" arabic-form="final" 
d="M677 51v-51h-73q-26 -52 -75.5 -82t-113.5 -30q-86 0 -144 53t-65 138q-111 -7 -111 -140v-209h-55v216q0 88 45 135t122 50q10 81 67 131t141 50q92 0 151.5 -59.5t59.5 -152.5q0 -22 -5 -49h56zM415 -61q68 0 112 45.5t44 116.5t-43.5 115.5t-112.5 44.5
q-68 0 -111.5 -44.5t-43.5 -115.5t44 -116.5t111 -45.5z" />
    <glyph glyph-name="uniFEE3" unicode="&#x645;" horiz-adv-x="520" arabic-form="initial" 
d="M260 312q92 0 151 -59.5t59 -152.5t-59 -152.5t-151 -59.5q-64 0 -113 30t-75 82h-73v51h56q-5 27 -5 49q0 93 59 152.5t151 59.5zM260 -61q67 0 111 45.5t44 116.5t-43.5 115.5t-111.5 44.5t-111.5 -44.5t-43.5 -115.5t44 -116.5t111 -45.5z" />
    <glyph glyph-name="uniFEE4" unicode="&#x645;" horiz-adv-x="520" arabic-form="medial" 
d="M521 51v-51h-73q-26 -52 -75 -82t-113 -30t-113 30t-75 82h-73v51h56q-5 27 -5 49q0 93 59 152.5t151 59.5t151 -59.5t59 -152.5q0 -22 -5 -49h56zM260 -61q67 0 111 45.5t44 116.5t-43.5 115.5t-111.5 44.5t-111.5 -44.5t-43.5 -115.5t44 -116.5t111 -45.5z" />
    <glyph glyph-name="uniFEE6" unicode="&#x646;" horiz-adv-x="732" arabic-form="final" 
d="M339 486q-17 0 -27.5 10t-10.5 27t10.5 27t27.5 10q16 0 26.5 -10.5t10.5 -26.5t-10.5 -26.5t-26.5 -10.5zM733 51v-51h-171q-72 -120 -226 -120q-54 0 -100.5 17t-86.5 53t-63 101.5t-23 152.5v196h55v-199q0 -72 18.5 -126t50 -84t69 -44.5t80.5 -14.5t80 13.5t69 43
t50.5 84t18.5 128.5v199h55v-196q0 -84 -23 -153h147z" />
    <glyph glyph-name="uniFEE7" unicode="&#x646;" horiz-adv-x="312" arabic-form="initial" 
d="M176 486q-17 0 -27.5 10t-10.5 27t10.5 27t27.5 10q16 0 26.5 -10.5t10.5 -26.5t-10.5 -26.5t-26.5 -10.5zM-1 0v51h66q84 0 84 97v252h55v-247q0 -153 -136 -153h-69z" />
    <glyph glyph-name="uniFEE8" unicode="&#x646;" horiz-adv-x="343" arabic-form="medial" 
d="M177 486q-17 0 -27.5 10t-10.5 27t10.5 27t27.5 10q16 0 26.5 -10.5t10.5 -26.5t-10.5 -26.5t-26.5 -10.5zM203 51h141v-51h-345v51h149v349h55v-349z" />
    <glyph glyph-name="uniFEEA" unicode="&#x647;" horiz-adv-x="529" arabic-form="final" 
d="M409 51h121v-51h-263q-112 0 -170 54t-58 145q0 92 58.5 146.5t158.5 54.5h153v-349zM267 51h87v298h-94q-77 0 -121.5 -41t-44.5 -110t42.5 -108t130.5 -39z" />
    <glyph glyph-name="uniFEEB" unicode="&#x647;" horiz-adv-x="763" arabic-form="initial" 
d="M387 412q151 0 229 -91.5t78 -269.5v-51h-695v51h71q0 178 80.5 269.5t236.5 91.5zM411 51h227q0 299 -227 313v-313zM361 364q-235 -15 -235 -313h235v313z" />
    <glyph glyph-name="uniFEEC" unicode="&#x647;" horiz-adv-x="774" arabic-form="medial" 
d="M694 51h81v-51h-776v51h71q0 178 80.5 269.5t236.5 91.5q151 0 229 -91.5t78 -269.5zM411 51h227q0 299 -227 313v-313zM361 364q-235 -15 -235 -313h235v313z" />
    <glyph glyph-name="uniFEEE" unicode="&#x648;" horiz-adv-x="529" arabic-form="final" 
d="M530 51v-51h-92q-35 -103 -114.5 -161.5t-189.5 -58.5h-15v50h8q92 0 157.5 45.5t97.5 124.5h-92q-127 0 -185 56t-58 152q0 91 56.5 147.5t148.5 56.5q95 0 152 -69.5t57 -194.5q0 -52 -9 -97h78zM295 51h103q10 50 10 95q0 102 -43 159t-114 57q-67 0 -109 -43.5
t-42 -111.5q0 -156 195 -156z" />
    <glyph glyph-name="uniFEF0" unicode="&#x649;" horiz-adv-x="685" arabic-form="final" 
d="M686 51v-51h-31q-13 -101 -97 -160.5t-197 -59.5q-139 0 -224.5 87.5t-85.5 227.5v85h55v-76q0 -120 71.5 -196.5t185.5 -76.5q93 0 158.5 48t79.5 126q-76 14 -120.5 69.5t-44.5 139.5h55q0 -74 44.5 -118.5t115.5 -44.5h35z" />
    <glyph glyph-name="uniFEF2" unicode="&#x64a;" horiz-adv-x="685" arabic-form="final" 
d="M686 51v-51h-31q-13 -101 -97 -160.5t-197 -59.5q-139 0 -224.5 87.5t-85.5 227.5v85h55v-76q0 -120 71.5 -196.5t185.5 -76.5q93 0 158.5 48t79.5 126q-76 14 -120.5 69.5t-44.5 139.5h55q0 -74 44.5 -118.5t115.5 -44.5h35zM292 -287q16 0 26.5 -10.5t10.5 -26.5
t-10.5 -26.5t-26.5 -10.5q-17 0 -27.5 10t-10.5 27t10.5 27t27.5 10zM431 -287q16 0 26.5 -10.5t10.5 -26.5t-10.5 -26.5t-26.5 -10.5q-17 0 -27.5 10t-10.5 27t10.5 27t27.5 10z" />
    <glyph glyph-name="uniFEF3" unicode="&#x64a;" horiz-adv-x="312" arabic-form="initial" 
d="M-1 0v51h66q84 0 84 97v252h55v-247q0 -153 -136 -153h-69zM53 -141q-17 0 -27.5 10t-10.5 27t10.5 27t27.5 10q16 0 26.5 -10.5t10.5 -26.5t-10.5 -26.5t-26.5 -10.5zM192 -141q-17 0 -27.5 10t-10.5 27t10.5 27t27.5 10q16 0 26.5 -10.5t10.5 -26.5t-10.5 -26.5
t-26.5 -10.5z" />
    <glyph glyph-name="uniFEF4" unicode="&#x64a;" horiz-adv-x="343" arabic-form="medial" 
d="M203 51h141v-51h-345v51h149v349h55v-349zM56 -67q16 0 26.5 -10.5t10.5 -26.5t-10.5 -26.5t-26.5 -10.5q-17 0 -27.5 10t-10.5 27t10.5 27t27.5 10zM195 -67q16 0 26.5 -10.5t10.5 -26.5t-10.5 -26.5t-26.5 -10.5q-17 0 -27.5 10t-10.5 27t10.5 27t27.5 10z" />
    <glyph glyph-name=".notdef" horiz-adv-x="460" 
d="M377 700v-920h-291v920h291zM306 638h-151v-30h59v-34h-60v-30h152v30h-60v34h60v30zM246 520h-92v-96h152v31h-60v65zM214 488v-33h-30v33h30zM306 399h-152v-30h60v-34h-60v-31h92v65h60v30zM306 344h-30v-61h-122v-31h152v92zM306 232h-92v-52h32v21h30v-43h-92v74
h-30v-104h152v104zM306 73h-152v-104h152v104zM276 42v-43h-92v43h92zM306 -53h-152v-30h64l-64 -43v-31h152v31h-93l64 43h29v30z" />
    <glyph glyph-name=".null" 
 />
    <glyph glyph-name="nonmarkingreturn" horiz-adv-x="333" 
 />
    <glyph glyph-name="space" unicode=" " horiz-adv-x="250" 
 />
    <glyph glyph-name="exclam" unicode="!" horiz-adv-x="256" 
d="M99 270v430h59v-430h-59zM129 -9q-19 0 -30 11.5t-11 28.5q0 18 11 29t30 11q17 0 28.5 -11t11.5 -29q0 -17 -11.5 -28.5t-28.5 -11.5z" />
    <glyph glyph-name="quotedbl" unicode="&#x22;" horiz-adv-x="420" 
d="M143 324h-46l-4 276h54zM323 324h-46l-4 276h54z" />
    <glyph glyph-name="numbersign" unicode="#" horiz-adv-x="660" 
d="M610 344h-117l-35 -195h152v-45h-160l-36 -206l-49 8l35 198h-197l-36 -206l-49 8l35 198h-103v45h111l34 195h-145v45h153l38 215l49 -8l-36 -207h196l38 215l49 -8l-36 -207h109v-45zM408 149l34 195h-196l-35 -195h197z" />
    <glyph glyph-name="dollar" unicode="$" horiz-adv-x="600" 
d="M543 162q0 -75 -58 -122t-149 -52l-2 -108h-48l-2 108q-73 5 -136 38t-97 88l41 31q36 -51 96 -78.5t127 -27.5q76 0 123.5 33t47.5 84q0 23 -11.5 41.5t-26 30t-44 22t-49.5 15.5t-58 14q-45 10 -68.5 16t-59 20t-53.5 29.5t-32 41.5t-14 60q0 77 62 121.5t154 45.5
l1 102h48l2 -105q134 -18 199 -115l-40 -34q-31 46 -87.5 73.5t-121.5 27.5q-69 0 -114 -30t-45 -81q0 -23 11 -40.5t25 -28.5t43 -21.5t49 -15.5t58 -14q36 -8 56 -13t51.5 -15t49 -21.5t36.5 -28t27.5 -39.5t8.5 -52z" />
    <glyph glyph-name="percent" unicode="%" horiz-adv-x="736" 
d="M188 323q-65 0 -106.5 40.5t-41.5 103.5q0 64 41.5 104.5t106.5 40.5t106.5 -40.5t41.5 -104.5q0 -63 -41.5 -103.5t-106.5 -40.5zM135 -9l-35 31l505 585l34 -31zM188 370q43 0 71 27.5t28 70.5t-28 70.5t-71 27.5t-71 -27.5t-28 -70.5t28 -70.5t71 -27.5zM548 -12
q-65 0 -106.5 40.5t-41.5 104.5q0 63 41.5 103.5t106.5 40.5t106.5 -40.5t41.5 -103.5q0 -64 -41.5 -104.5t-106.5 -40.5zM548 35q43 0 71 27.5t28 70.5t-28 70.5t-71 27.5t-71 -27.5t-28 -70.5t28 -70.5t71 -27.5z" />
    <glyph glyph-name="ampersand" unicode="&#x26;" horiz-adv-x="576" 
d="M547 30l-35 -42l-107 89q-78 -91 -181 -91q-72 0 -122.5 46.5t-50.5 116.5q0 99 112 175q-45 68 -45 129q0 69 50 115t126 46q87 0 142 -53l-27 -43q-44 44 -112 44q-53 0 -87 -32t-34 -84q0 -50 48.5 -116t175.5 -177q42 79 42 184h51q0 -123 -57 -216zM231 39
q80 0 138 69q-123 106 -180 179q-83 -55 -83 -132q0 -52 35 -84t90 -32z" />
    <glyph glyph-name="quotesingle" unicode="'" horiz-adv-x="236" 
d="M143 324h-46l-4 276h54z" />
    <glyph glyph-name="parenleft" unicode="(" horiz-adv-x="344" 
d="M271 -223q-99 77 -153 201t-54 265q0 142 54 266t153 201l29 -42q-85 -73 -131 -185.5t-46 -239.5q0 -128 46.5 -239.5t132.5 -184.5z" />
    <glyph glyph-name="parenright" unicode=")" horiz-adv-x="344" 
d="M73 -223l-29 42q85 74 131.5 186t46.5 239t-47 239t-133 185l31 42q99 -77 153 -201t54 -266t-54 -265.5t-153 -200.5z" />
    <glyph glyph-name="asterisk" unicode="*" horiz-adv-x="531" 
d="M480 461h-187l68 -174l-48 -19l-61 178l-148 -122l-32 40l151 115l-162 100l26 42l161 -106l46 181l50 -14l-54 -178l188 8z" />
    <glyph glyph-name="plus" unicode="+" horiz-adv-x="520" 
d="M490 274v-50h-205v-205h-50v205h-205v50h205v205h50v-205h205z" />
    <glyph glyph-name="comma" unicode="," horiz-adv-x="236" 
d="M100 -156l-45 9l49 262l54 -10z" />
    <glyph glyph-name="hyphen" unicode="-" horiz-adv-x="420" 
d="M360 224h-300v50h300v-50z" />
    <glyph glyph-name="period" unicode="." horiz-adv-x="236" 
d="M119 -9q-19 0 -30 11.5t-11 28.5q0 18 11 29t30 11q17 0 28.5 -11t11.5 -29q0 -17 -11.5 -28.5t-28.5 -11.5z" />
    <glyph glyph-name="slash" unicode="/" horiz-adv-x="362" 
d="M48 -104l213 808l52 -10l-214 -808z" />
    <glyph glyph-name="zero" unicode="0" horiz-adv-x="602" 
d="M301 -12q-115 0 -188.5 73.5t-73.5 188.5t73.5 188.5t188.5 73.5t188.5 -73.5t73.5 -188.5t-73.5 -188.5t-188.5 -73.5zM301 42q89 0 147 58.5t58 149.5q0 92 -57.5 150.5t-147.5 58.5t-147.5 -58.5t-57.5 -150.5q0 -91 58 -149.5t147 -58.5z" />
    <glyph glyph-name="one" unicode="1" horiz-adv-x="333" 
d="M151 0v395q0 32 -8 42t-38 10h-64v53h73q56 0 75.5 -21t19.5 -79v-400h-58z" />
    <glyph glyph-name="two" unicode="2" horiz-adv-x="465" 
d="M116 48h303v-48h-382v43l184 155q59 49 85.5 86.5t26.5 78.5q0 46 -30.5 73.5t-79.5 27.5q-43 0 -80.5 -22t-60.5 -60l-36 32q30 46 78.5 72.5t103.5 26.5q69 0 115.5 -40t46.5 -107q0 -50 -32 -99t-108 -110z" />
    <glyph glyph-name="three" unicode="3" horiz-adv-x="481" 
d="M287 212q71 -15 108.5 -53.5t37.5 -96.5q0 -79 -63.5 -126.5t-158.5 -47.5q-105 0 -183 47l25 42q63 -37 157 -37q74 0 121 33t47 89q0 123 -240 123v47q220 0 220 120q0 51 -37.5 80.5t-97.5 29.5q-93 0 -160 -45l-25 37q79 58 190 58q81 0 134 -42.5t53 -112.5
q0 -53 -33 -91t-95 -54z" />
    <glyph glyph-name="four" unicode="4" horiz-adv-x="530" 
d="M489 84v-48h-95v-136h-53v136h-306v41l302 423h57v-416h95zM98 84h243v339z" />
    <glyph glyph-name="five" unicode="5" horiz-adv-x="478" 
d="M218 -112q-101 0 -171 52l26 42q58 -45 143 -45q71 0 115 39t44 105q0 132 -201 132h-85v287h315v-51h-260v-187h30q255 0 255 -177q0 -92 -59 -144.5t-152 -52.5z" />
    <glyph glyph-name="six" unicode="6" horiz-adv-x="520" 
d="M281 400q88 0 143.5 -58t55.5 -148q0 -91 -58.5 -148.5t-153.5 -57.5q-104 0 -166 71.5t-62 195.5q0 153 93.5 249t246.5 96h15v-50h-8q-120 0 -196.5 -63t-96.5 -176q32 41 82 65t105 24zM268 38q71 0 115 43.5t44 113.5q0 69 -44 113t-114 44q-61 0 -110 -33t-65 -87
q0 -86 48 -140t126 -54z" />
    <glyph glyph-name="seven" unicode="7" horiz-adv-x="460" 
d="M22 500h395v-44l-261 -565l-52 24l250 534h-332v51z" />
    <glyph glyph-name="eight" unicode="8" horiz-adv-x="526" 
d="M361 313q58 -19 91 -59.5t33 -93.5q0 -77 -60 -124.5t-162 -47.5t-162 47.5t-60 124.5q0 53 33 93.5t91 59.5q-94 41 -94 132q0 69 53 113t139 44t139 -44t53 -113q0 -91 -94 -132zM125 447q0 -50 38.5 -81t99.5 -31q62 0 100.5 31t38.5 81q0 49 -38.5 78.5t-100.5 29.5
t-100 -29.5t-38 -78.5zM263 36q77 0 123 34.5t46 91.5t-47 92t-122 35t-121.5 -35t-46.5 -92t45.5 -91.5t122.5 -34.5z" />
    <glyph glyph-name="nine" unicode="9" horiz-adv-x="520" 
d="M254 512q102 0 164 -71.5t62 -195.5q0 -153 -93.5 -249t-246.5 -96h-15v50h8q120 0 197 63t97 177q-33 -42 -83.5 -66t-106.5 -24q-87 0 -142 58t-55 148q0 91 58.5 148.5t155.5 57.5zM249 148q62 0 111.5 33t65.5 87q0 86 -48 140t-125 54q-71 0 -115.5 -43.5
t-44.5 -112.5q0 -70 43.5 -114t112.5 -44z" />
    <glyph glyph-name="colon" unicode=":" horiz-adv-x="236" 
d="M119 294q-19 0 -30 11t-11 29t11 29t30 11q17 0 28.5 -11t11.5 -29q0 -17 -11.5 -28.5t-28.5 -11.5zM119 -9q-19 0 -30 11.5t-11 28.5q0 18 11 29t30 11q17 0 28.5 -11t11.5 -29q0 -17 -11.5 -28.5t-28.5 -11.5z" />
    <glyph glyph-name="semicolon" unicode=";" horiz-adv-x="249" 
d="M132 294q-18 0 -29.5 11t-11.5 29t11 29t30 11q17 0 28.5 -11t11.5 -29q0 -17 -11.5 -28.5t-28.5 -11.5zM110 -156l-45 9l49 262l54 -10z" />
    <glyph glyph-name="less" unicode="&#x3c;" horiz-adv-x="515" 
d="M445 425l-329 -174l329 -175l-24 -46l-364 200v41l364 200z" />
    <glyph glyph-name="equal" unicode="=" horiz-adv-x="520" 
d="M490 324h-460v50h460v-50zM490 124h-460v50h460v-50z" />
    <glyph glyph-name="greater" unicode="&#x3e;" horiz-adv-x="515" 
d="M94 469l364 -200v-41l-364 -200l-24 46l329 174l-329 175z" />
    <glyph glyph-name="question" unicode="?" horiz-adv-x="420" 
d="M238 270h-59v16q0 34 13 64t27 46.5t38 40.5q22 23 33.5 36.5t22 36.5t10.5 47q0 47 -32 77t-85 30q-92 0 -145 -81l-36 30q33 49 82 74t103 25q72 0 121 -40.5t49 -112.5q0 -31 -12 -58.5t-24.5 -42t-39.5 -42.5q-36 -36 -51 -65t-15 -81zM209 -9q-19 0 -30 11.5
t-11 28.5q0 18 11 29t30 11q17 0 28.5 -11t11.5 -29q0 -17 -11.5 -28.5t-28.5 -11.5z" />
    <glyph glyph-name="at" unicode="@" horiz-adv-x="1025" 
d="M522 701q190 0 316 -122.5t126 -309.5q0 -116 -44.5 -180t-113.5 -64q-47 0 -83.5 26.5t-50.5 73.5q-24 -46 -67.5 -73t-97.5 -27q-84 0 -142.5 61t-58.5 151t58.5 151t143.5 61q102 0 157 -85v73h50v-253q0 -52 26 -81.5t67 -29.5q51 0 79 50.5t28 138.5q0 171 -112 281
t-281 110q-175 0 -291 -116t-116 -291q0 -180 121.5 -299.5t302.5 -119.5q116 0 217 48l15 -47q-108 -49 -233 -49q-202 0 -337 132.5t-135 333.5q0 196 130 326t326 130zM513 75q64 0 109 46.5t45 117.5q0 70 -45 115t-108 45q-64 0 -108.5 -45.5t-44.5 -116.5t44 -116.5
t108 -45.5z" />
    <glyph glyph-name="A" unicode="A" horiz-adv-x="632" 
d="M530 0l-76 192h-276l-75 -192h-64l242 600h68l244 -600h-63zM199 244h235l-118 299z" />
    <glyph glyph-name="B" unicode="B" horiz-adv-x="649" 
d="M474 309q61 -17 95 -55.5t34 -88.5q0 -73 -56.5 -119t-165.5 -46h-281v600h262q104 0 154.5 -43.5t50.5 -109.5q0 -46 -24.5 -82.5t-68.5 -55.5zM159 550v-221h215q64 0 99.5 31t35.5 83q0 48 -37 77.5t-112 29.5h-201zM369 50q87 0 130.5 32t43.5 85t-44 83t-121 30
h-219v-230h210z" />
    <glyph glyph-name="C" unicode="C" horiz-adv-x="630" 
d="M604 111q-99 -125 -253 -125q-130 0 -216.5 88.5t-86.5 224.5q0 138 87.5 226.5t222.5 88.5q151 0 240 -117l-40 -33q-75 96 -201 96q-109 0 -178.5 -72.5t-69.5 -187.5q0 -112 69 -185.5t175 -74.5q129 0 212 103z" />
    <glyph glyph-name="D" unicode="D" horiz-adv-x="670" 
d="M284 600q85 0 151.5 -25.5t106 -68.5t59.5 -95.5t20 -110.5t-20 -110.5t-59.5 -95.5t-106 -68.5t-151.5 -25.5h-193v600h193zM276 54q72 0 128 21t89.5 56.5t50 78.5t16.5 90q0 102 -72 174t-211 72h-127v-492h126z" />
    <glyph glyph-name="E" unicode="E" horiz-adv-x="580" 
d="M150 52h382v-52h-441v600h431v-52h-372v-214h352v-52h-352v-230z" />
    <glyph glyph-name="F" unicode="F" horiz-adv-x="560" 
d="M524 548h-374v-224h345v-52h-345v-272h-59v600h433v-52z" />
    <glyph glyph-name="G" unicode="G" horiz-adv-x="731" 
d="M681 327q2 -9 2 -26q0 -139 -82.5 -227t-228.5 -88q-141 0 -232.5 87.5t-91.5 222.5q0 142 91 230.5t236 88.5q139 0 237 -89l-38 -43q-84 78 -198 78q-118 0 -192 -73t-74 -190q0 -113 75 -185.5t191 -72.5q108 0 175.5 64.5t75.5 170.5h-264v52h318z" />
    <glyph glyph-name="H" unicode="H" horiz-adv-x="693" 
d="M543 600h59v-600h-59v282h-393v-282h-59v600h59v-266h393v266z" />
    <glyph glyph-name="I" unicode="I" horiz-adv-x="283" 
d="M112 0v600h59v-600h-59z" />
    <glyph glyph-name="J" unicode="J" horiz-adv-x="308" 
d="M-44 -105h35q70 0 108 40t38 116v549h59v-541q0 -104 -54.5 -160.5t-152.5 -56.5h-33v53z" />
    <glyph glyph-name="K" unicode="K" horiz-adv-x="635" 
d="M364 310q106 -25 162.5 -103t56.5 -207h-60q0 134 -72 208t-195 74h-106v-282h-59v600h59v-266h104q110 0 184.5 76t74.5 190h60q0 -105 -56.5 -182.5t-152.5 -107.5z" />
    <glyph glyph-name="L" unicode="L" horiz-adv-x="532" 
d="M150 52h361v-52h-420v600h59v-548z" />
    <glyph glyph-name="M" unicode="M" horiz-adv-x="826" 
d="M735 0h-57l-36 528l-207 -448h-45l-207 451l-36 -531h-56l40 600h76l206 -444l206 444h76z" />
    <glyph glyph-name="N" unicode="N" horiz-adv-x="682" 
d="M535 600h56v-600h-66l-379 524v-524h-55v600h65l379 -522v522z" />
    <glyph glyph-name="O" unicode="O" horiz-adv-x="731" 
d="M365 -14q-139 0 -228 88t-89 226t89 226t229 88q139 0 228 -88t89 -226t-89 -226t-229 -88zM365 40q112 0 184.5 72.5t72.5 187.5t-72 187.5t-185 72.5q-112 0 -184 -73t-72 -187t72 -187t184 -73z" />
    <glyph glyph-name="P" unicode="P" horiz-adv-x="578" 
d="M283 196h-133v-196h-59v600h186q117 0 184.5 -54.5t67.5 -148.5q0 -93 -66 -147t-180 -54zM274 547h-124v-299h133q88 0 137.5 39.5t49.5 108.5q0 70 -52 110.5t-144 40.5z" />
    <glyph glyph-name="Q" unicode="Q" horiz-adv-x="731" 
d="M683 300q0 -82 -33.5 -149t-94.5 -109l106 -101l-40 -41l-118 113q-65 -27 -138 -27q-139 0 -228 88t-89 226t89 226t229 88q139 0 228 -88t89 -226zM109 300q0 -114 72 -187t184 -73t184.5 72.5t72.5 187.5t-72 187.5t-185 72.5q-112 0 -184 -73t-72 -187z" />
    <glyph glyph-name="R" unicode="R" horiz-adv-x="654" 
d="M434 273q152 -57 152 -273h-59q0 257 -235 257h-133v-257h-59v600h261q99 0 153 -48.5t54 -120.5q0 -57 -35.5 -100t-98.5 -58zM159 305h200q69 0 109.5 34.5t40.5 88.5q0 52 -39 87.5t-111 35.5h-200v-246z" />
    <glyph glyph-name="S" unicode="S" horiz-adv-x="596" 
d="M313 -13q-82 0 -153 33.5t-109 93.5l41 31q36 -51 96 -78.5t127 -27.5q76 0 123.5 33t47.5 84q0 23 -11.5 41.5t-26 30t-44 22t-49.5 15.5t-58 14q-45 10 -68.5 16t-59 20t-53.5 29.5t-32 41.5t-14 60q0 78 63 122.5t157 44.5q76 0 142 -31t104 -87l-40 -34
q-31 46 -87.5 73.5t-121.5 27.5q-69 0 -114 -30t-45 -81q0 -23 11 -40.5t25 -28.5t43 -21.5t49 -15.5t58 -14q36 -8 56 -13t51.5 -15t49 -21.5t36.5 -28t27.5 -39.5t8.5 -52q0 -80 -65 -127.5t-165 -47.5z" />
    <glyph glyph-name="T" unicode="T" horiz-adv-x="593" 
d="M568 600v-52h-242v-548h-59v548h-242v52h543z" />
    <glyph glyph-name="U" unicode="U" horiz-adv-x="687" 
d="M603 263q0 -124 -73 -200.5t-190 -76.5q-115 0 -185.5 77t-70.5 204v333h59v-334q0 -103 55 -164.5t145 -61.5t145.5 61.5t55.5 162.5v336h59v-337z" />
    <glyph glyph-name="V" unicode="V" horiz-adv-x="632" 
d="M529 600h63l-245 -600h-64l-244 600h64l213 -540z" />
    <glyph glyph-name="W" unicode="W" horiz-adv-x="926" 
d="M812 600h61l-177 -600h-66l-170 521l-168 -521h-67l-173 600h62l149 -525l171 525h57l173 -529z" />
    <glyph glyph-name="X" unicode="X" horiz-adv-x="674" 
d="M604 559q-1 -94 -42.5 -159.5t-117.5 -93.5q76 -28 118 -94.5t42 -160.5v-51h-64v51q0 104 -55 166t-148 62t-148 -62t-55 -166v-51h-63v51q0 94 42 160.5t117 94.5q-75 28 -116.5 93.5t-42.5 159.5v41h63v-41q1 -104 56 -165t147 -61t147.5 61.5t55.5 164.5v41h64v-41z
" />
    <glyph glyph-name="Y" unicode="Y" horiz-adv-x="581" 
d="M486 600h61v-65q-1 -120 -61.5 -193.5t-166.5 -83.5v-258h-59v258q-105 10 -165.5 84t-60.5 194v64h60v-64q1 -103 54 -164t142 -61q90 0 143 60.5t53 163.5v65z" />
    <glyph glyph-name="Z" unicode="Z" horiz-adv-x="595" 
d="M155 80q-21 -25 -29 -32q42 3 83 3h337v-51h-490v44l389 472q20 23 33 36q-49 -3 -97 -3h-321v51h486v-47z" />
    <glyph glyph-name="bracketleft" unicode="[" horiz-adv-x="340" 
d="M297 653h-129v-826h129v-47h-184v920h184v-47z" />
    <glyph glyph-name="backslash" unicode="\" horiz-adv-x="362" 
d="M261 -114l-213 808l52 10l213 -808z" />
    <glyph glyph-name="bracketright" unicode="]" horiz-adv-x="340" 
d="M227 700v-920h-184v47h129v826h-129v47h184z" />
    <glyph glyph-name="asciicircum" unicode="^" horiz-adv-x="422" 
d="M401 434l-36 -32l-154 150l-159 -150l-31 32l190 180z" />
    <glyph glyph-name="underscore" unicode="_" horiz-adv-x="520" 
d="M490 -51h-460v46h460v-46z" />
    <glyph glyph-name="grave" unicode="`" horiz-adv-x="285" 
d="M231 479l-154 128l33 39l152 -130z" />
    <glyph glyph-name="a" unicode="a" horiz-adv-x="520" 
d="M392 400h54v-400h-54v73q-53 -85 -158 -85q-84 0 -141.5 60.5t-57.5 151.5t57.5 151.5t141.5 60.5q105 0 158 -85v73zM241 38q64 0 109 45.5t45 116.5t-44.5 116.5t-108.5 45.5t-108 -45t-44 -117t44 -117t107 -45z" />
    <glyph glyph-name="b" unicode="b" horiz-adv-x="523" 
d="M289 412q85 0 142 -60t57 -152t-57 -152t-142 -60q-105 0 -158 86v-74h-55v700h55v-374q53 86 158 86zM282 38q64 0 108 45t44 117t-44.5 117t-108.5 45t-108.5 -45.5t-44.5 -116.5t45 -116.5t109 -45.5z" />
    <glyph glyph-name="c" unicode="c" horiz-adv-x="426" 
d="M363 315q-49 46 -118 46q-68 0 -112 -44.5t-44 -117.5q0 -71 45.5 -115.5t112.5 -44.5q71 0 120 48l35 -33q-63 -66 -157 -66q-91 0 -150.5 59.5t-59.5 152.5t59 152.5t152 59.5q92 0 152 -63z" />
    <glyph glyph-name="d" unicode="d" horiz-adv-x="525" 
d="M392 700h54v-700h-54v73q-53 -85 -158 -85q-84 0 -141.5 60.5t-57.5 151.5t57.5 151.5t141.5 60.5q105 0 158 -85v373zM241 38q64 0 109 45.5t45 116.5t-44.5 116.5t-108.5 45.5q-65 0 -109 -45t-44 -117t44 -117t108 -45z" />
    <glyph glyph-name="e" unicode="e" horiz-adv-x="479" 
d="M437 221q0 -20 -2 -30l-342 -1q5 -68 48.5 -112t116.5 -44q79 0 137 53l32 -34q-67 -65 -171 -65q-96 0 -156 60t-60 153t58 152t151 59q85 0 136.5 -51t51.5 -140zM249 366q-60 0 -102 -35t-52 -95l290 1q-5 61 -42 95t-94 34z" />
    <glyph glyph-name="f" unicode="f" horiz-adv-x="343" 
d="M318 656q-71 0 -110 -46t-39 -134v-81h150v-47h-150v-348h-55v348h-80v47h80v72q0 114 54 177.5t151 63.5h28v-52h-29z" />
    <glyph glyph-name="g" unicode="g" horiz-adv-x="520" 
d="M391 400h55v-413q0 -103 -56.5 -160.5t-155.5 -57.5q-117 0 -179 65l32 37q58 -52 148 -52q75 0 115.5 44t40.5 124v84q-54 -83 -157 -83q-84 0 -141.5 60.5t-57.5 151.5t57.5 151.5t141.5 60.5q103 0 157 -83v71zM241 38q64 0 109 45.5t45 116.5t-44.5 116.5
t-108.5 45.5q-65 0 -109 -45t-44 -117t44 -117t108 -45z" />
    <glyph glyph-name="h" unicode="h" horiz-adv-x="521" 
d="M291 412q75 0 116 -47t41 -134v-231h-55v217q0 145 -114 145q-64 0 -105.5 -44t-41.5 -112v-206h-55v700h55v-371q54 83 159 83z" />
    <glyph glyph-name="i" unicode="i" horiz-adv-x="238" 
d="M119 525q-19 0 -30 11.5t-11 28.5t11 28.5t30 11.5q18 0 29 -11.5t11 -28.5t-11 -28.5t-29 -11.5zM91 0v400h55v-400h-55z" />
    <glyph glyph-name="j" unicode="j" horiz-adv-x="238" 
d="M119 525q-19 0 -30 11.5t-11 28.5t11 28.5t30 11.5q18 0 29 -11.5t11 -28.5t-11 -28.5t-29 -11.5zM91 -220v620h55v-620h-55z" />
    <glyph glyph-name="k" unicode="k" horiz-adv-x="483" 
d="M277 210q147 -40 147 -210h-55q0 87 -49 135.5t-130 48.5h-59v-184h-55v700h55v-469h39q85 0 142 51.5t57 127.5h55q0 -69 -39.5 -122.5t-107.5 -77.5z" />
    <glyph glyph-name="l" unicode="l" horiz-adv-x="221" 
d="M83 0v700h55v-700h-55z" />
    <glyph glyph-name="m" unicode="m" horiz-adv-x="808" 
d="M586 412q71 0 110 -47.5t39 -133.5v-231h-55v217q0 145 -108 145q-60 0 -100 -44t-40 -112h-1v-206h-55v217q0 145 -106 145q-61 0 -101 -44.5t-40 -111.5v-206h-55v400h55v-67q55 79 153 79q106 0 137 -99q24 46 67.5 72.5t99.5 26.5z" />
    <glyph glyph-name="n" unicode="n" horiz-adv-x="518" 
d="M290 412q73 0 114 -47.5t41 -133.5v-231h-55v217q0 70 -29 107.5t-85 37.5q-64 0 -105.5 -44t-41.5 -112v-206h-55v400h55v-69q57 81 161 81z" />
    <glyph glyph-name="o" unicode="o" horiz-adv-x="491" 
d="M245 -12q-92 0 -151 59.5t-59 152.5t59.5 152.5t151.5 59.5t151 -59.5t59 -152.5t-59.5 -152.5t-151.5 -59.5zM246 39q68 0 111.5 45.5t43.5 116.5q0 70 -44 115t-112 45t-111.5 -45t-43.5 -115q0 -71 44 -116.5t112 -45.5z" />
    <glyph glyph-name="p" unicode="p" horiz-adv-x="520" 
d="M286 412q85 0 142 -60t57 -152t-57 -152t-142 -60q-105 0 -158 86v-294h-55v620h55v-74q53 86 158 86zM278 38q64 0 108 45t44 117t-43.5 117t-107.5 45t-109 -45.5t-45 -116.5t44.5 -116.5t108.5 -45.5z" />
    <glyph glyph-name="q" unicode="q" horiz-adv-x="520" 
d="M392 400h54v-620h-54v293q-53 -85 -158 -85q-84 0 -141.5 60.5t-57.5 151.5t57.5 151.5t141.5 60.5q105 0 158 -85v73zM242 38q64 0 108.5 45.5t44.5 116.5t-45 116.5t-109 45.5t-108 -45t-44 -117t44 -117t109 -45z" />
    <glyph glyph-name="r" unicode="r" horiz-adv-x="356" 
d="M129 294q58 112 202 112v-55h-12q-85 0 -137.5 -51.5t-52.5 -142.5v-157h-55v400h55v-106z" />
    <glyph glyph-name="s" unicode="s" horiz-adv-x="398" 
d="M199 -12q-94 0 -155 66l37 32q56 -53 123 -53q43 0 68 21t25 51q0 14 -7 25.5t-14 18.5t-25 13.5t-26 9t-31 8.5q-31 8 -49 14.5t-41 20t-34 34t-11 48.5q0 53 39.5 84.5t100.5 31.5q90 0 138 -60l-37 -30q-40 44 -100 44q-41 0 -64.5 -20t-23.5 -49q0 -13 6.5 -24
t13.5 -17t24 -13t26 -9.5t31 -8.5q31 -8 50 -15t41 -20t32.5 -33t10.5 -48q0 -54 -39.5 -88t-108.5 -34z" />
    <glyph glyph-name="t" unicode="t" horiz-adv-x="394" 
d="M343 82l34 -36q-52 -58 -126 -58q-70 0 -109 42t-39 117v201h-74v47h74v94h55v-94h189v-47h-189v-201q0 -50 24 -78.5t72 -28.5t89 42z" />
    <glyph glyph-name="u" unicode="u" horiz-adv-x="517" 
d="M388 400h55v-400h-54v69q-55 -81 -161 -81q-73 0 -114 46.5t-41 131.5v234h55v-220q0 -142 113 -142q63 0 105 44t42 112v206z" />
    <glyph glyph-name="v" unicode="v" horiz-adv-x="462" 
d="M372 400h60l-170 -400h-60l-172 400h60l142 -347z" />
    <glyph glyph-name="w" unicode="w" horiz-adv-x="752" 
d="M662 400h60l-153 -400h-61l-132 345l-132 -345h-61l-153 400h60l124 -344l130 344h64l130 -344z" />
    <glyph glyph-name="x" unicode="x" horiz-adv-x="480" 
d="M326 201q93 -40 93 -166v-35h-55v35q0 68 -33.5 104.5t-90.5 36.5t-90.5 -36.5t-33.5 -104.5v-35h-55v35q0 126 93 166q-92 40 -92 166v33h55v-33q0 -68 33 -104t90 -36t90 36t33 104v33h55v-33q0 -126 -92 -166z" />
    <glyph glyph-name="y" unicode="y" horiz-adv-x="517" 
d="M443 400l1 -412q0 -104 -53 -161.5t-146 -57.5q-110 0 -170 70l39 36q49 -54 132 -54q67 0 105 43t38 122v83q-55 -81 -161 -81q-73 0 -114 47.5t-41 133.5v231h55v-217q0 -145 113 -145q64 0 106 44t42 112v206h54z" />
    <glyph glyph-name="z" unicode="z" horiz-adv-x="437" 
d="M159 95q-29 -32 -50 -51q30 2 90 2h196v-46h-351v41l233 262q25 28 52 53q-30 -2 -91 -2h-191v46h348v-40z" />
    <glyph glyph-name="braceleft" unicode="{" horiz-adv-x="396" 
d="M224 -173h129v-47h-184v442h-129v46h129v432h184v-47h-129v-826z" />
    <glyph glyph-name="bar" unicode="|" horiz-adv-x="307" 
d="M126 -220v920h55v-920h-55z" />
    <glyph glyph-name="braceright" unicode="}" horiz-adv-x="396" 
d="M356 258v-46h-129v-432h-184v47h129v826h-129v47h184v-442h129z" />
    <glyph glyph-name="asciitilde" unicode="~" horiz-adv-x="488" 
d="M340 172q-23 0 -45 10.5t-33.5 20.5t-30.5 30q-17 17 -26 25.5t-24.5 16.5t-30.5 8q-34 0 -56.5 -28.5t-22.5 -74.5h-45q0 67 35 107.5t87 40.5q23 0 44.5 -10t33 -20t30.5 -30q17 -17 26 -25.5t24.5 -16.5t31.5 -8q35 0 57 28.5t22 73.5h45q0 -65 -34.5 -106.5
t-87.5 -41.5z" />
    <glyph glyph-name="exclamdown" unicode="&#xa1;" horiz-adv-x="256" 
d="M128 551q18 0 29.5 -11.5t11.5 -28.5q0 -18 -11 -29t-30 -11q-17 0 -28.5 11t-11.5 29q0 17 11.5 28.5t28.5 11.5zM158 272v-430h-59v430h59z" />
    <glyph glyph-name="cent" unicode="&#xa2;" horiz-adv-x="426" 
d="M402 104q-54 -57 -132 -65l-2 -128h-48l-1 128q-81 9 -132.5 67t-51.5 144t51 144t134 67l1 127h48l2 -127q77 -9 127 -62l-35 -34q-49 46 -118 46q-68 0 -112 -44.5t-44 -117.5q0 -71 45.5 -115.5t112.5 -44.5q71 0 120 48z" />
    <glyph glyph-name="sterling" unicode="&#xa3;" horiz-adv-x="573" 
d="M172 244v-193h335v-51h-392v244h-82v46h82v105q0 98 55 157.5t143 59.5t142.5 -59t54.5 -153h-55q0 73 -39 117t-103 44q-63 0 -102 -45t-39 -121v-105h179v-46h-179z" />
    <glyph glyph-name="currency" unicode="&#xa4;" horiz-adv-x="610" 
d="M136 446l-88 126l39 28l92 -125zM473 446l-42 29l91 125l40 -28zM305 38q-92 0 -151.5 59.5t-59.5 152.5t59.5 152.5t151.5 59.5t151.5 -59.5t59.5 -152.5t-59.5 -152.5t-151.5 -59.5zM305 89q68 0 112 45.5t44 115.5q0 71 -44 116t-112 45t-112 -45t-44 -116
q0 -70 44 -115.5t112 -45.5zM87 -99l-39 28l88 126l43 -29zM522 -99l-91 125l42 29l89 -126z" />
    <glyph glyph-name="yen" unicode="&#xa5;" horiz-adv-x="580" 
d="M547 600q0 -157 -58 -242t-171 -95v-94h139v-48h-139v-121h-60v121h-141v48h141v95q-110 11 -167 96t-57 240h61q0 -142 49.5 -215t145.5 -73q97 0 146.5 73t49.5 215h61z" />
    <glyph glyph-name="brokenbar" unicode="&#xa6;" horiz-adv-x="307" 
d="M126 320v380h55v-380h-55zM126 -220v380h55v-380h-55z" />
    <glyph glyph-name="section" unicode="&#xa7;" horiz-adv-x="522" 
d="M352 55q87 -54 87 -134q0 -68 -51.5 -109.5t-128.5 -41.5q-131 0 -191 97l40 32q50 -80 150 -80q57 0 91 26.5t34 70.5q0 16 -4 30.5t-16.5 28t-20 22t-30 21t-30 17t-36.5 18.5t-34 17q-35 18 -58 32.5t-50 37.5t-40.5 53.5t-13.5 66.5q0 55 32 97.5t87 67.5
q-86 56 -86 134q0 67 51.5 109t129.5 42q130 0 190 -97l-40 -32q-50 80 -150 80q-57 0 -91 -26.5t-34 -70.5q0 -16 4 -30.5t16.5 -28t20 -22t30 -21t30 -17t36.5 -18.5t34 -17q36 -18 59 -32.5t49.5 -37.5t40 -53t13.5 -66q0 -111 -120 -166zM105 270q0 -58 42 -94.5
t122 -75.5l45 -23q104 43 104 134q0 30 -12.5 55.5t-39.5 46.5t-50.5 34.5t-62.5 32.5l-47 24q-49 -21 -75 -56t-26 -78z" />
    <glyph glyph-name="dieresis" unicode="&#xa8;" horiz-adv-x="381" 
d="M90 518q-18 0 -29.5 11.5t-11.5 29.5t11.5 29t29.5 11q19 0 30.5 -11t11.5 -29t-11.5 -29.5t-30.5 -11.5zM290 518q-18 0 -29.5 11.5t-11.5 29.5t11.5 29t29.5 11q19 0 30.5 -11t11.5 -29t-11.5 -29.5t-30.5 -11.5z" />
    <glyph glyph-name="copyright" unicode="&#xa9;" horiz-adv-x="1040" 
d="M524 -221q-195 0 -329.5 133.5t-134.5 328.5q0 194 133 327t327 133t327 -133.5t133 -328.5q0 -127 -60 -232.5t-165 -166.5t-231 -61zM524 -173q172 0 289.5 120t117.5 293q0 175 -119 294t-292 119t-291.5 -119t-118.5 -292q0 -174 120 -294.5t294 -120.5zM535 18
q-94 0 -158.5 63.5t-64.5 159.5q0 95 64.5 158.5t159.5 63.5t158 -65l-40 -38q-45 47 -115 47q-73 0 -120.5 -46t-47.5 -121q0 -74 47.5 -120t121.5 -46q68 0 116 48l40 -36q-63 -68 -161 -68z" />
    <glyph glyph-name="ordfeminine" unicode="&#xaa;" horiz-adv-x="400" 
d="M184 376q-63 0 -105.5 46t-42.5 116t42.5 116t105.5 46q79 0 120 -62v53h48v-306h-48v53q-41 -62 -120 -62zM196 656q-47 0 -79.5 -33t-32.5 -85t32 -85t79 -33q46 0 78.5 33t32.5 85q0 51 -32.5 84.5t-77.5 33.5zM46 274h310v-49h-310v49z" />
    <glyph glyph-name="guillemotleft" unicode="&#xab;" horiz-adv-x="529" 
d="M221 409l32 -35l-130 -125l130 -125l-32 -35l-164 160zM463 374l-130 -125l130 -125l-32 -35l-164 160l164 160z" />
    <glyph glyph-name="logicalnot" unicode="&#xac;" horiz-adv-x="560" 
d="M446 101v122q0 46 -52 46h-354v52h359q54 0 77.5 -21.5t23.5 -71.5v-127h-54z" />
    <glyph glyph-name="registered" unicode="&#xae;" horiz-adv-x="1040" 
d="M520 701q194 0 327 -133.5t133 -328.5q0 -127 -60 -232.5t-165 -166.5t-231 -61q-195 0 -329.5 133.5t-134.5 328.5q0 194 133 327t327 133zM524 -173q172 0 289.5 120t117.5 293q0 175 -119 294t-292 119t-291.5 -119t-118.5 -292q0 -174 120 -294.5t294 -120.5z
M605 225q118 -47 118 -210h-52q0 95 -45.5 144t-126.5 49h-84v-193h-51v462h184q78 0 120.5 -36.5t42.5 -93.5q0 -44 -28 -76.5t-78 -45.5zM415 254h112q61 0 95.5 25t34.5 66q0 39 -29.5 62.5t-81.5 23.5h-131v-177z" />
    <glyph glyph-name="macron" unicode="&#xaf;" horiz-adv-x="400" 
d="M350 524h-300v46h300v-46z" />
    <glyph glyph-name="degree" unicode="&#xb0;" horiz-adv-x="376" 
d="M188 312q-65 0 -106.5 42t-41.5 108t41.5 108t106.5 42t106.5 -42t41.5 -108t-41.5 -108t-106.5 -42zM188 359q43 0 71 29t28 74q0 46 -28 75t-71 29t-71 -29t-28 -75q0 -45 28 -74t71 -29z" />
    <glyph glyph-name="plusminus" unicode="&#xb1;" horiz-adv-x="520" 
d="M285 394h205v-50h-205v-205h-50v205h-205v50h205v205h50v-205zM30 4v50h460v-50h-460z" />
    <glyph glyph-name="uni00B2" unicode="&#xb2;" horiz-adv-x="272" 
d="M97 420h148v-40h-214v31q102 101 132 137t30 64q0 23 -16 37t-42 14q-48 0 -80 -43l-28 26q42 60 111 60q44 0 72 -23.5t28 -64.5q0 -37 -29 -77t-112 -121z" />
    <glyph glyph-name="uni00B3" unicode="&#xb3;" horiz-adv-x="279" 
d="M169 545q77 -19 77 -78q0 -41 -35.5 -67t-84.5 -26q-63 0 -103 32l18 34q33 -26 79 -26q35 0 58 16t23 41q0 53 -114 53v37q104 0 104 55q0 24 -18.5 37.5t-47.5 13.5q-46 0 -76 -28l-20 31q38 36 105 36q43 0 73.5 -23t30.5 -60q0 -27 -18 -47.5t-51 -30.5z" />
    <glyph glyph-name="acute" unicode="&#xb4;" horiz-adv-x="285" 
d="M81 479l-31 37l152 130l33 -39z" />
    <glyph glyph-name="paragraph" unicode="&#xb6;" horiz-adv-x="767" 
d="M445 600h78v-600h-78q-91 0 -164.5 25.5t-118 68.5t-68 95.5t-23.5 110.5q0 122 97.5 211t276.5 89zM601 600h58v-820h-58v820z" />
    <glyph glyph-name="periodcentered" unicode="&#xb7;" horiz-adv-x="236" 
d="M119 209q-19 0 -30 11.5t-11 28.5q0 18 11 29t30 11q17 0 28.5 -11t11.5 -29q0 -17 -11.5 -28.5t-28.5 -11.5z" />
    <glyph glyph-name="cedilla" unicode="&#xb8;" horiz-adv-x="151" 
d="M99 -220h-48l-1 144h51z" />
    <glyph glyph-name="uni00B9" unicode="&#xb9;" horiz-adv-x="243" 
d="M111 380v222q0 32 -8 42t-38 10h-30v46h39q52 0 69.5 -21t17.5 -79v-220h-50z" />
    <glyph glyph-name="ordmasculine" unicode="&#xba;" horiz-adv-x="390" 
d="M195 376q-71 0 -116 45.5t-45 116.5t45 116.5t116 45.5t116 -45.5t45 -116.5t-45 -116.5t-116 -45.5zM195 421q49 0 81 33t32 85q0 51 -32 83.5t-81 32.5t-81 -32.5t-32 -83.5q0 -52 32 -85t81 -33zM45 224v50h300v-50h-300z" />
    <glyph glyph-name="guillemotright" unicode="&#xbb;" horiz-adv-x="529" 
d="M66 370l32 35l164 -160l-164 -160l-32 35l130 125zM308 405l164 -160l-164 -160l-32 35l130 125l-130 125z" />
    <glyph glyph-name="onequarter" unicode="&#xbc;" horiz-adv-x="697" 
d="M506 625l37 -28l-424 -624l-38 27zM111 502q0 32 -8 42t-38 10h-30v46h39q52 0 69.5 -21t17.5 -79v-220h-50v222zM681 106v-37h-61l1 -71h-44l1 71h-161v32l142 219h61v-214h61zM578 281l-111 -175h111v175z" />
    <glyph glyph-name="onehalf" unicode="&#xbd;" horiz-adv-x="659" 
d="M506 625l37 -28l-424 -624l-38 27zM111 502q0 32 -8 42t-38 10h-30v46h39q52 0 69.5 -21t17.5 -79v-220h-50v222zM484 40h148v-40h-214v31q102 101 132 137t30 64q0 23 -16 37t-42 14q-48 0 -80 -43l-28 26q42 60 111 60q44 0 72 -23.5t28 -64.5q0 -37 -29 -77t-112 -121
z" />
    <glyph glyph-name="threequarters" unicode="&#xbe;" horiz-adv-x="733" 
d="M542 625l37 -28l-424 -624l-38 27zM120 314q35 0 58 16t23 41q0 53 -114 53v37q104 0 104 55q0 24 -18.5 37.5t-47.5 13.5q-46 0 -76 -28l-20 31q38 36 105 36q43 0 73.5 -23t30.5 -60q0 -27 -18 -47.5t-51 -30.5q77 -19 77 -78q0 -41 -35.5 -67t-84.5 -26q-63 0 -103 32
l18 34q33 -26 79 -26zM717 106v-37h-61l1 -71h-44l1 71h-161v32l142 219h61v-214h61zM614 281l-111 -175h111v175z" />
    <glyph glyph-name="questiondown" unicode="&#xbf;" horiz-adv-x="420" 
d="M211 559q19 0 30 -11.5t11 -28.5q0 -18 -11 -29t-30 -11q-17 0 -28.5 11t-11.5 29q0 17 11.5 28.5t28.5 11.5zM182 280h59v-16q0 -34 -13 -64t-27 -46.5t-38 -40.5q-22 -23 -33.5 -36.5t-22 -36.5t-10.5 -47q0 -47 32 -77t85 -30q92 0 145 81l36 -30q-33 -49 -82 -74
t-103 -25q-72 0 -121 40.5t-49 112.5q0 31 12 58.5t24.5 42t39.5 42.5q36 36 51 65t15 81z" />
    <glyph glyph-name="Agrave" unicode="&#xc0;" horiz-adv-x="632" 
d="M413 730l-20 -43l-202 94l22 47zM530 0l-76 192h-276l-75 -192h-64l242 600h68l244 -600h-63zM199 244h235l-118 299z" />
    <glyph glyph-name="Aacute" unicode="&#xc1;" horiz-adv-x="632" 
d="M442 781l-202 -94l-20 43l200 98zM530 0l-76 192h-276l-75 -192h-64l242 600h68l244 -600h-63zM199 244h235l-118 299z" />
    <glyph glyph-name="Acircumflex" unicode="&#xc2;" horiz-adv-x="632" 
d="M316 782l-114 -106l-31 32l146 137l145 -137l-37 -32zM530 0l-76 192h-276l-75 -192h-64l242 600h68l244 -600h-63zM199 244h235l-118 299z" />
    <glyph glyph-name="Atilde" unicode="&#xc3;" horiz-adv-x="632" 
d="M256 765q-21 0 -35.5 -19t-14.5 -48h-42q0 50 26 80.5t63 30.5q36 0 72 -40q30 -34 51 -34q22 0 36 19t14 48h42q0 -50 -26 -80.5t-63 -30.5q-39 0 -74 41q-1 1 -5 6t-5.5 6.5l-6 6t-7 6t-7 4t-9 3.5t-9.5 1zM530 0l-76 192h-276l-75 -192h-64l242 600h68l244 -600h-63z
M199 244h235l-118 299z" />
    <glyph glyph-name="Adieresis" unicode="&#xc4;" horiz-adv-x="632" 
d="M215 700q-18 0 -29 11.5t-11 29.5t11 29t29 11t29.5 -11t11.5 -29t-11.5 -29.5t-29.5 -11.5zM415 700q-18 0 -29 11.5t-11 29.5t11 29t29 11t29.5 -11t11.5 -29t-11.5 -29.5t-29.5 -11.5zM530 0l-76 192h-276l-75 -192h-64l242 600h68l244 -600h-63zM199 244h235
l-118 299z" />
    <glyph glyph-name="Aring" unicode="&#xc5;" horiz-adv-x="632" 
d="M317 673q-47 0 -77.5 29t-30.5 74t30.5 74t77.5 29t77.5 -29t30.5 -74t-30.5 -74t-77.5 -29zM317 839q-28 0 -45.5 -17.5t-17.5 -45.5t17.5 -45.5t45.5 -17.5t45.5 17.5t17.5 45.5t-17.5 45.5t-45.5 17.5zM530 0l-76 192h-276l-75 -192h-64l242 600h68l244 -600h-63z
M199 244h235l-118 299z" />
    <glyph glyph-name="AE" unicode="&#xc6;" horiz-adv-x="849" 
d="M539 52h262v-52h-314l-39 192h-260l-104 -192h-65l329 600h443v-52h-364l48 -214h296v-52h-284zM216 244h221l-60 296z" />
    <glyph glyph-name="Ccedilla" unicode="&#xc7;" horiz-adv-x="630" 
d="M604 111q-99 -125 -253 -125q-130 0 -216.5 88.5t-86.5 224.5q0 138 87.5 226.5t222.5 88.5q151 0 240 -117l-40 -33q-75 96 -201 96q-109 0 -178.5 -72.5t-69.5 -187.5q0 -112 69 -185.5t175 -74.5q129 0 212 103zM384 -220h-48l-1 144h51z" />
    <glyph glyph-name="Egrave" unicode="&#xc8;" horiz-adv-x="580" 
d="M409 730l-20 -43l-202 94l22 47zM150 52h382v-52h-441v600h431v-52h-372v-214h352v-52h-352v-230z" />
    <glyph glyph-name="Eacute" unicode="&#xc9;" horiz-adv-x="580" 
d="M439 781l-202 -94l-20 43l200 98zM150 52h382v-52h-441v600h431v-52h-372v-214h352v-52h-352v-230z" />
    <glyph glyph-name="Ecircumflex" unicode="&#xca;" horiz-adv-x="580" 
d="M313 782l-114 -106l-31 32l146 137l145 -137l-37 -32zM150 52h382v-52h-441v600h431v-52h-372v-214h352v-52h-352v-230z" />
    <glyph glyph-name="Edieresis" unicode="&#xcb;" horiz-adv-x="580" 
d="M212 700q-18 0 -29 11.5t-11 29.5t11 29t29 11t29.5 -11t11.5 -29t-11.5 -29.5t-29.5 -11.5zM412 700q-18 0 -29 11.5t-11 29.5t11 29t29 11t29.5 -11t11.5 -29t-11.5 -29.5t-29.5 -11.5zM150 52h382v-52h-441v600h431v-52h-372v-214h352v-52h-352v-230z" />
    <glyph glyph-name="Igrave" unicode="&#xcc;" horiz-adv-x="283" 
d="M218 687l-202 94l22 47l200 -98zM112 0v600h59v-600h-59z" />
    <glyph glyph-name="Iacute" unicode="&#xcd;" horiz-adv-x="283" 
d="M65 687l-20 43l200 98l22 -47zM112 0v600h59v-600h-59z" />
    <glyph glyph-name="Icircumflex" unicode="&#xce;" horiz-adv-x="283" 
d="M142 845l145 -137l-37 -32l-109 106l-114 -106l-31 32zM112 0v600h59v-600h-59z" />
    <glyph glyph-name="Idieresis" unicode="&#xcf;" horiz-adv-x="283" 
d="M40 700q-18 0 -29 11.5t-11 29.5t11 29t29 11t29.5 -11t11.5 -29t-11.5 -29.5t-29.5 -11.5zM240 700q-18 0 -29 11.5t-11 29.5t11 29t29 11t29.5 -11t11.5 -29t-11.5 -29.5t-29.5 -11.5zM112 0v600h59v-600h-59z" />
    <glyph glyph-name="Eth" unicode="&#xd0;" horiz-adv-x="670" 
d="M284 600q85 0 151.5 -25.5t106 -68.5t59.5 -95.5t20 -110.5t-20 -110.5t-59.5 -95.5t-106 -68.5t-151.5 -25.5h-193v277h-80v45h80v278h193zM276 54q72 0 128 21t89.5 56.5t50 78.5t16.5 90q0 102 -72 174t-211 72h-127v-224h151v-45h-151v-223h126z" />
    <glyph glyph-name="Ntilde" unicode="&#xd1;" horiz-adv-x="682" 
d="M283 765q-21 0 -35.5 -19t-14.5 -48h-42q0 50 26 80.5t63 30.5q36 0 72 -40q30 -34 51 -34q22 0 36 19t14 48h42q0 -50 -26 -80.5t-63 -30.5q-39 0 -74 41q-1 1 -5 6t-5.5 6.5l-6 6t-7 6t-7 4t-9 3.5t-9.5 1zM535 600h56v-600h-66l-379 524v-524h-55v600h65l379 -522v522
z" />
    <glyph glyph-name="Ograve" unicode="&#xd2;" horiz-adv-x="731" 
d="M445 687l-202 94l22 47l200 -98zM365 -14q-139 0 -228 88t-89 226t89 226t229 88q139 0 228 -88t89 -226t-89 -226t-229 -88zM365 40q112 0 184.5 72.5t72.5 187.5t-72 187.5t-185 72.5q-112 0 -184 -73t-72 -187t72 -187t184 -73z" />
    <glyph glyph-name="Oacute" unicode="&#xd3;" horiz-adv-x="731" 
d="M292 687l-20 43l200 98l22 -47zM365 -14q-139 0 -228 88t-89 226t89 226t229 88q139 0 228 -88t89 -226t-89 -226t-229 -88zM365 40q112 0 184.5 72.5t72.5 187.5t-72 187.5t-185 72.5q-112 0 -184 -73t-72 -187t72 -187t184 -73z" />
    <glyph glyph-name="Ocircumflex" unicode="&#xd4;" horiz-adv-x="731" 
d="M368 782l-114 -106l-31 32l146 137l145 -137l-37 -32zM366 614q139 0 228 -88t89 -226t-89 -226t-229 -88q-139 0 -228 88t-89 226t89 226t229 88zM365 40q112 0 184.5 72.5t72.5 187.5t-72 187.5t-185 72.5q-112 0 -184 -73t-72 -187t72 -187t184 -73z" />
    <glyph glyph-name="Otilde" unicode="&#xd5;" horiz-adv-x="731" 
d="M431 691q-39 0 -74 41q-1 1 -5 6t-5.5 6.5l-6 6t-7 6t-7 4t-9 3.5t-9.5 1q-21 0 -35.5 -19t-14.5 -48h-42q0 50 26 80.5t63 30.5q36 0 72 -40q30 -34 51 -34q22 0 36 19t14 48h42q0 -50 -26 -80.5t-63 -30.5zM365 -14q-139 0 -228 88t-89 226t89 226t229 88
q139 0 228 -88t89 -226t-89 -226t-229 -88zM365 40q112 0 184.5 72.5t72.5 187.5t-72 187.5t-185 72.5q-112 0 -184 -73t-72 -187t72 -187t184 -73z" />
    <glyph glyph-name="Odieresis" unicode="&#xd6;" horiz-adv-x="731" 
d="M267 700q-18 0 -29 11.5t-11 29.5t11 29t29 11t29.5 -11t11.5 -29t-11.5 -29.5t-29.5 -11.5zM467 700q-18 0 -29 11.5t-11 29.5t11 29t29 11t29.5 -11t11.5 -29t-11.5 -29.5t-29.5 -11.5zM365 -14q-139 0 -228 88t-89 226t89 226t229 88q139 0 228 -88t89 -226t-89 -226
t-229 -88zM365 40q112 0 184.5 72.5t72.5 187.5t-72 187.5t-185 72.5q-112 0 -184 -73t-72 -187t72 -187t184 -73z" />
    <glyph glyph-name="multiply" unicode="&#xd7;" horiz-adv-x="520" 
d="M460 415l-165 -165l165 -165l-35 -35l-165 165l-165 -165l-35 34l166 166l-166 165l35 35l166 -165l164 164z" />
    <glyph glyph-name="Oslash" unicode="&#xd8;" horiz-adv-x="731" 
d="M611 508q72 -85 72 -208q0 -138 -89 -226t-229 -88q-125 0 -212 73l-72 -71l-36 35l73 72q-70 84 -70 205q0 138 89 226t228 88q125 0 210 -71l70 68l35 -35zM106 301q0 -97 53 -166l377 370q-70 59 -171 59q-113 0 -186 -73.5t-73 -189.5zM365 37q113 0 186.5 74
t73.5 190q0 98 -54 168l-378 -371q70 -61 172 -61z" />
    <glyph glyph-name="Ugrave" unicode="&#xd9;" horiz-adv-x="687" 
d="M421 687l-202 94l22 47l200 -98zM603 263q0 -124 -73 -200.5t-190 -76.5q-115 0 -185.5 77t-70.5 204v333h59v-334q0 -103 55 -164.5t145 -61.5t145.5 61.5t55.5 162.5v336h59v-337z" />
    <glyph glyph-name="Uacute" unicode="&#xda;" horiz-adv-x="687" 
d="M268 687l-20 43l200 98l22 -47zM603 258q0 -118 -74 -195t-187 -77q-112 0 -185 78t-73 198v338h59v-340q0 -96 57 -158t143 -62q87 0 144 62t57 157v341h59v-342z" />
    <glyph glyph-name="Ucircumflex" unicode="&#xdb;" horiz-adv-x="687" 
d="M344 782l-114 -106l-31 32l146 137l145 -137l-37 -32zM544 600h59v-342q0 -118 -74 -195t-187 -77q-112 0 -185 78t-73 198v338h59v-340q0 -96 57 -158t143 -62q87 0 144 62t57 157v341z" />
    <glyph glyph-name="Udieresis" unicode="&#xdc;" horiz-adv-x="687" 
d="M243 700q-18 0 -29 11.5t-11 29.5t11 29t29 11t29.5 -11t11.5 -29t-11.5 -29.5t-29.5 -11.5zM443 700q-18 0 -29 11.5t-11 29.5t11 29t29 11t29.5 -11t11.5 -29t-11.5 -29.5t-29.5 -11.5zM603 258q0 -118 -74 -195t-187 -77q-112 0 -185 78t-73 198v338h59v-340
q0 -96 57 -158t143 -62q87 0 144 62t57 157v341h59v-342z" />
    <glyph glyph-name="Yacute" unicode="&#xdd;" horiz-adv-x="581" 
d="M416 781l-202 -94l-20 43l200 98zM486 600h61v-65q-1 -120 -61.5 -193.5t-166.5 -83.5v-258h-59v258q-105 10 -165.5 84t-60.5 194v64h60v-64q1 -103 54 -164t142 -61q90 0 143 60.5t53 163.5v65z" />
    <glyph glyph-name="Thorn" unicode="&#xde;" horiz-adv-x="568" 
d="M91 -5v610h58l1 -103h132q113 0 180 -55t67 -149q0 -92 -65 -146t-176 -54h-138v-103h-59zM150 150h138q84 0 133 39.5t49 107.5q0 71 -51 112t-140 40h-129v-299z" />
    <glyph glyph-name="germandbls" unicode="&#xdf;" horiz-adv-x="584" 
d="M386 -12q-85 0 -133 56l33 39q42 -44 102 -44q42 0 69 26t27 68q0 25 -12.5 45.5t-26 31.5t-41.5 28q-30 19 -44.5 30t-28.5 34t-14 52q0 37 38 100q42 65 42 105q0 43 -29.5 70.5t-80.5 27.5q-66 0 -106 -50t-40 -141v-466h-55v457q0 116 55.5 183.5t145.5 67.5
q72 0 118.5 -41t46.5 -105q0 -48 -45 -122q-34 -55 -34 -80q0 -19 11.5 -36t23 -26t35.5 -25q30 -20 46.5 -33t32.5 -41t16 -62q0 -61 -40.5 -105t-111.5 -44z" />
    <glyph glyph-name="agrave" unicode="&#xe0;" horiz-adv-x="520" 
d="M351 516l-31 -37l-154 128l33 39zM392 400h54v-400h-54v73q-53 -85 -158 -85q-84 0 -141.5 60.5t-57.5 151.5t57.5 151.5t141.5 60.5q105 0 158 -85v73zM241 38q64 0 109 45.5t45 116.5t-44.5 116.5t-108.5 45.5t-108 -45t-44 -117t44 -117t107 -45z" />
    <glyph glyph-name="aacute" unicode="&#xe1;" horiz-adv-x="520" 
d="M368 607l-154 -128l-31 37l152 130zM392 400h54v-400h-54v73q-53 -85 -158 -85q-84 0 -141.5 60.5t-57.5 151.5t57.5 151.5t141.5 60.5q105 0 158 -85v73zM241 38q64 0 109 45.5t45 116.5t-44.5 116.5t-108.5 45.5t-108 -45t-44 -117t44 -117t107 -45z" />
    <glyph glyph-name="acircumflex" unicode="&#xe2;" horiz-adv-x="520" 
d="M267 582l-114 -106l-31 32l146 137l145 -137l-37 -32zM392 400h54v-400h-54v73q-53 -85 -158 -85q-84 0 -141.5 60.5t-57.5 151.5t57.5 151.5t141.5 60.5q105 0 158 -85v73zM241 38q64 0 109 45.5t45 116.5t-44.5 116.5t-108.5 45.5t-108 -45t-44 -117t44 -117t107 -45z
" />
    <glyph glyph-name="atilde" unicode="&#xe3;" horiz-adv-x="520" 
d="M207 565q-21 0 -35.5 -19t-14.5 -48h-42q0 50 26 80.5t63 30.5q36 0 72 -40q30 -34 51 -34q22 0 36 19t14 48h42q0 -50 -26 -80.5t-63 -30.5q-39 0 -74 41q-1 1 -5 6t-5.5 6.5l-6 6t-7 6t-7 4t-9 3.5t-9.5 1zM392 400h54v-400h-54v73q-53 -85 -158 -85q-84 0 -141.5 60.5
t-57.5 151.5t57.5 151.5t141.5 60.5q105 0 158 -85v73zM241 38q64 0 109 45.5t45 116.5t-44.5 116.5t-108.5 45.5t-108 -45t-44 -117t44 -117t107 -45z" />
    <glyph glyph-name="adieresis" unicode="&#xe4;" horiz-adv-x="520" 
d="M167 524q-18 0 -29 11.5t-11 29.5t11 29t29 11t29.5 -11t11.5 -29t-11.5 -29.5t-29.5 -11.5zM367 524q-18 0 -29 11.5t-11 29.5t11 29t29 11t29.5 -11t11.5 -29t-11.5 -29.5t-29.5 -11.5zM392 400h54v-400h-54v73q-53 -85 -158 -85q-84 0 -141.5 60.5t-57.5 151.5
t57.5 151.5t141.5 60.5q105 0 158 -85v73zM241 38q64 0 109 45.5t45 116.5t-44.5 116.5t-108.5 45.5t-108 -45t-44 -117t44 -117t107 -45z" />
    <glyph glyph-name="aring" unicode="&#xe5;" horiz-adv-x="520" 
d="M268 473q-47 0 -77.5 29t-30.5 74t30.5 74t77.5 29t77.5 -29t30.5 -74t-30.5 -74t-77.5 -29zM268 639q-28 0 -45.5 -17.5t-17.5 -45.5t17.5 -45.5t45.5 -17.5t45.5 17.5t17.5 45.5t-17.5 45.5t-45.5 17.5zM392 400h54v-400h-54v73q-53 -85 -158 -85q-84 0 -141.5 60.5
t-57.5 151.5t57.5 151.5t141.5 60.5q105 0 158 -85v73zM241 38q64 0 109 45.5t45 116.5t-44.5 116.5t-108.5 45.5t-108 -45t-44 -117t44 -117t107 -45z" />
    <glyph glyph-name="ae" unicode="&#xe6;" horiz-adv-x="792" 
d="M750 221q0 -21 -2 -30l-325 -1q4 -67 47.5 -110.5t114.5 -43.5q70 0 123 51l32 -34q-63 -65 -161 -65q-109 0 -160 90v-78h-46v76q-51 -88 -155 -88q-85 0 -142.5 60t-57.5 152t57.5 152t142.5 60q104 0 155 -88v76h46v-79q52 91 159 91q78 0 125 -51t47 -140zM571 366
q-56 0 -96 -35t-49 -95h273q-4 62 -38.5 96t-89.5 34zM224 38q63 0 106 45.5t43 116.5t-43 116.5t-105 45.5q-63 0 -107.5 -45t-44.5 -117t44 -117t107 -45z" />
    <glyph glyph-name="ccedilla" unicode="&#xe7;" horiz-adv-x="426" 
d="M363 315q-49 46 -118 46q-68 0 -112 -44.5t-44 -117.5q0 -71 45.5 -115.5t112.5 -44.5q71 0 120 48l35 -33q-63 -66 -157 -66q-91 0 -150.5 59.5t-59.5 152.5t59 152.5t152 59.5q92 0 152 -63zM267 -220h-48l-1 144h51z" />
    <glyph glyph-name="egrave" unicode="&#xe8;" horiz-adv-x="479" 
d="M335 516l-31 -37l-154 128l33 39zM437 221q0 -20 -2 -30l-342 -1q5 -68 48.5 -112t116.5 -44q79 0 137 53l32 -34q-67 -65 -171 -65q-96 0 -156 60t-60 153t58 152t151 59q85 0 136.5 -51t51.5 -140zM249 366q-60 0 -102 -35t-52 -95l290 1q-5 61 -42 95t-94 34z" />
    <glyph glyph-name="eacute" unicode="&#xe9;" horiz-adv-x="479" 
d="M352 607l-154 -128l-31 37l152 130zM437 221q0 -20 -2 -30l-342 -1q5 -68 48.5 -112t116.5 -44q79 0 137 53l32 -34q-67 -65 -171 -65q-96 0 -156 60t-60 153t58 152t151 59q85 0 136.5 -51t51.5 -140zM249 366q-60 0 -102 -35t-52 -95l290 1q-5 61 -42 95t-94 34z" />
    <glyph glyph-name="ecircumflex" unicode="&#xea;" horiz-adv-x="479" 
d="M251 582l-114 -106l-31 32l146 137l145 -137l-37 -32zM437 221q0 -20 -2 -30l-342 -1q5 -68 48.5 -112t116.5 -44q79 0 137 53l32 -34q-67 -65 -171 -65q-96 0 -156 60t-60 153t58 152t151 59q85 0 136.5 -51t51.5 -140zM249 366q-60 0 -102 -35t-52 -95l290 1
q-5 61 -42 95t-94 34z" />
    <glyph glyph-name="edieresis" unicode="&#xeb;" horiz-adv-x="479" 
d="M151 524q-18 0 -29 11.5t-11 29.5t11 29t29 11t29.5 -11t11.5 -29t-11.5 -29.5t-29.5 -11.5zM351 524q-18 0 -29 11.5t-11 29.5t11 29t29 11t29.5 -11t11.5 -29t-11.5 -29.5t-29.5 -11.5zM437 221q0 -20 -2 -30l-342 -1q5 -68 48.5 -112t116.5 -44q79 0 137 53l32 -34
q-67 -65 -171 -65q-96 0 -156 60t-60 153t58 152t151 59q85 0 136.5 -51t51.5 -140zM249 366q-60 0 -102 -35t-52 -95l290 1q-5 61 -42 95t-94 34z" />
    <glyph glyph-name="igrave" unicode="&#xec;" horiz-adv-x="238" 
d="M172 479l-154 128l33 39l152 -130zM91 0v400h55v-400h-55z" />
    <glyph glyph-name="iacute" unicode="&#xed;" horiz-adv-x="238" 
d="M66 479l-31 37l152 130l33 -39zM91 0v400h55v-400h-55z" />
    <glyph glyph-name="icircumflex" unicode="&#xee;" horiz-adv-x="238" 
d="M120 642l124 -136l-37 -33l-88 102l-93 -102l-31 33zM91 0v400h55v-400h-55z" />
    <glyph glyph-name="idieresis" unicode="&#xef;" horiz-adv-x="238" 
d="M45 528q-16 0 -26.5 10.5t-10.5 26.5q0 17 10 27t27 10t27.5 -10t10.5 -27q0 -16 -10.5 -26.5t-27.5 -10.5zM193 528q-17 0 -27.5 10.5t-10.5 26.5q0 17 10.5 27t27.5 10t27 -10t10 -27q0 -16 -10.5 -26.5t-26.5 -10.5zM91 0v400h55v-400h-55z" />
    <glyph glyph-name="eth" unicode="&#xf0;" horiz-adv-x="491" 
d="M290 600q75 -69 120.5 -162t45.5 -186q0 -127 -57.5 -195.5t-154.5 -68.5q-92 0 -150.5 59.5t-58.5 151.5q0 89 55.5 145t140.5 56q97 0 169 -80q-14 69 -54.5 134.5t-96.5 115.5l-138 -98l-28 36l128 92q-69 49 -140 59l7 48q91 -13 175 -77l106 75l28 -36zM244 39
q72 0 114.5 52t42.5 141q-18 56 -63 89.5t-101 33.5q-65 0 -106.5 -43.5t-41.5 -111.5q0 -71 43.5 -116t111.5 -45z" />
    <glyph glyph-name="ntilde" unicode="&#xf1;" horiz-adv-x="518" 
d="M199 565q-21 0 -35.5 -19t-14.5 -48h-42q0 50 26 80.5t63 30.5q36 0 72 -40q30 -34 51 -34q22 0 36 19t14 48h42q0 -50 -26 -80.5t-63 -30.5q-39 0 -74 41q-1 1 -5 6t-5.5 6.5l-6 6t-7 6t-7 4t-9 3.5t-9.5 1zM290 412q73 0 114 -47.5t41 -133.5v-231h-55v217
q0 70 -29 107.5t-85 37.5q-64 0 -105.5 -44t-41.5 -112v-206h-55v400h55v-69q57 81 161 81z" />
    <glyph glyph-name="ograve" unicode="&#xf2;" horiz-adv-x="491" 
d="M301 479l-154 128l33 39l152 -130zM245 -12q-92 0 -151 59.5t-59 152.5t59.5 152.5t151.5 59.5t151 -59.5t59 -152.5t-59.5 -152.5t-151.5 -59.5zM246 39q68 0 111.5 45.5t43.5 116.5q0 70 -44 115t-112 45t-111.5 -45t-43.5 -115q0 -71 44 -116.5t112 -45.5z" />
    <glyph glyph-name="oacute" unicode="&#xf3;" horiz-adv-x="491" 
d="M195 479l-31 37l152 130l33 -39zM245 -12q-92 0 -151 59.5t-59 152.5t59.5 152.5t151.5 59.5t151 -59.5t59 -152.5t-59.5 -152.5t-151.5 -59.5zM246 39q68 0 111.5 45.5t43.5 116.5q0 70 -44 115t-112 45t-111.5 -45t-43.5 -115q0 -71 44 -116.5t112 -45.5z" />
    <glyph glyph-name="ocircumflex" unicode="&#xf4;" horiz-adv-x="491" 
d="M248 582l-114 -106l-31 32l146 137l145 -137l-37 -32zM246 412q92 0 151 -59.5t59 -152.5t-59.5 -152.5t-151.5 -59.5t-151 59.5t-59 152.5t59.5 152.5t151.5 59.5zM246 39q68 0 111.5 45.5t43.5 116.5q0 70 -44 115t-112 45t-111.5 -45t-43.5 -115q0 -71 44 -116.5
t112 -45.5z" />
    <glyph glyph-name="otilde" unicode="&#xf5;" horiz-adv-x="491" 
d="M311 491q-39 0 -74 41q-1 1 -5 6t-5.5 6.5l-6 6t-7 6t-7 4t-9 3.5t-9.5 1q-21 0 -35.5 -19t-14.5 -48h-42q0 50 26 80.5t63 30.5q36 0 72 -40q30 -34 51 -34q22 0 36 19t14 48h42q0 -50 -26 -80.5t-63 -30.5zM245 -12q-92 0 -151 59.5t-59 152.5t59.5 152.5t151.5 59.5
t151 -59.5t59 -152.5t-59.5 -152.5t-151.5 -59.5zM246 39q68 0 111.5 45.5t43.5 116.5q0 70 -44 115t-112 45t-111.5 -45t-43.5 -115q0 -71 44 -116.5t112 -45.5z" />
    <glyph glyph-name="odieresis" unicode="&#xf6;" horiz-adv-x="491" 
d="M148 524q-18 0 -29 11.5t-11 29.5t11 29t29 11t29.5 -11t11.5 -29t-11.5 -29.5t-29.5 -11.5zM348 524q-18 0 -29 11.5t-11 29.5t11 29t29 11t29.5 -11t11.5 -29t-11.5 -29.5t-29.5 -11.5zM245 -12q-92 0 -151 59.5t-59 152.5t59.5 152.5t151.5 59.5t151 -59.5t59 -152.5
t-59.5 -152.5t-151.5 -59.5zM246 39q68 0 111.5 45.5t43.5 116.5q0 70 -44 115t-112 45t-111.5 -45t-43.5 -115q0 -71 44 -116.5t112 -45.5z" />
    <glyph glyph-name="divide" unicode="&#xf7;" horiz-adv-x="520" 
d="M263 421q-19 0 -30 11.5t-11 28.5q0 18 11 29t30 11q17 0 28.5 -11t11.5 -29q0 -17 -11.5 -28.5t-28.5 -11.5zM490 225h-460v50h460v-50zM263 -8q-19 0 -30 11t-11 29t11 29t30 11q17 0 28.5 -11t11.5 -29q0 -17 -11.5 -28.5t-28.5 -11.5z" />
    <glyph glyph-name="oslash" unicode="&#xf8;" horiz-adv-x="491" 
d="M463 382l-50 -48q43 -57 43 -134q0 -93 -59.5 -152.5t-151.5 -59.5q-80 0 -138 48l-52 -50l-33 31l54 52q-41 55 -41 131q0 93 59 152.5t151 59.5q80 0 137 -46l49 48zM85 201q0 -54 27 -97l235 228q-42 34 -102 34q-70 0 -115 -46t-45 -119zM406 201q0 56 -28 98
l-236 -228q42 -36 103 -36q71 0 116 46.5t45 119.5z" />
    <glyph glyph-name="ugrave" unicode="&#xf9;" horiz-adv-x="517" 
d="M347 516l-31 -37l-154 128l33 39zM388 400h55v-400h-54v69q-55 -81 -161 -81q-73 0 -114 46.5t-41 131.5v234h55v-220q0 -142 113 -142q63 0 105 44t42 112v206z" />
    <glyph glyph-name="uacute" unicode="&#xfa;" horiz-adv-x="517" 
d="M364 607l-154 -128l-31 37l152 130zM388 400h55v-400h-54v69q-55 -81 -161 -81q-73 0 -114 46.5t-41 131.5v234h55v-220q0 -142 113 -142q63 0 105 44t42 112v206z" />
    <glyph glyph-name="ucircumflex" unicode="&#xfb;" horiz-adv-x="517" 
d="M263 582l-114 -106l-31 32l146 137l145 -137l-37 -32zM388 400h55v-400h-54v69q-55 -81 -161 -81q-73 0 -114 46.5t-41 131.5v234h55v-220q0 -142 113 -142q63 0 105 44t42 112v206z" />
    <glyph glyph-name="udieresis" unicode="&#xfc;" horiz-adv-x="517" 
d="M163 524q-18 0 -29 11.5t-11 29.5t11 29t29 11t29.5 -11t11.5 -29t-11.5 -29.5t-29.5 -11.5zM363 524q-18 0 -29 11.5t-11 29.5t11 29t29 11t29.5 -11t11.5 -29t-11.5 -29.5t-29.5 -11.5zM388 400h55v-400h-54v69q-55 -81 -161 -81q-73 0 -114 46.5t-41 131.5v234h55
v-220q0 -142 113 -142q63 0 105 44t42 112v206z" />
    <glyph glyph-name="yacute" unicode="&#xfd;" horiz-adv-x="517" 
d="M364 607l-154 -128l-31 37l152 130zM443 400l1 -412q0 -104 -53 -161.5t-146 -57.5q-110 0 -170 70l39 36q49 -54 132 -54q67 0 105 43t38 122v83q-55 -81 -161 -81q-73 0 -114 47.5t-41 133.5v231h55v-217q0 -145 113 -145q64 0 106 44t42 112v206h54z" />
    <glyph glyph-name="thorn" unicode="&#xfe;" horiz-adv-x="523" 
d="M289 412q85 0 142 -60t57 -152t-57 -152t-142 -60q-105 0 -158 86v-294h-55v920h55v-374q53 86 158 86zM281 38q64 0 108.5 45t44.5 117t-44 117t-108 45t-109 -45.5t-45 -116.5t44.5 -116.5t108.5 -45.5z" />
    <glyph glyph-name="ydieresis" unicode="&#xff;" horiz-adv-x="517" 
d="M163 524q-18 0 -29 11.5t-11 29.5t11 29t29 11t29.5 -11t11.5 -29t-11.5 -29.5t-29.5 -11.5zM363 524q-18 0 -29 11.5t-11 29.5t11 29t29 11t29.5 -11t11.5 -29t-11.5 -29.5t-29.5 -11.5zM443 400l1 -412q0 -104 -53 -161.5t-146 -57.5q-110 0 -170 70l39 36
q49 -54 132 -54q67 0 105 43t38 122v83q-55 -81 -161 -81q-73 0 -114 47.5t-41 133.5v231h55v-217q0 -145 113 -145q64 0 106 44t42 112v206h54z" />
    <glyph glyph-name="Amacron" unicode="&#x100;" horiz-adv-x="632" 
d="M466 770v-46h-300v46h300zM530 0l-76 192h-276l-75 -192h-64l242 600h68l244 -600h-63zM199 244h235l-118 299z" />
    <glyph glyph-name="amacron" unicode="&#x101;" horiz-adv-x="520" 
d="M417 570v-46h-300v46h300zM392 400h54v-400h-54v73q-53 -85 -158 -85q-84 0 -141.5 60.5t-57.5 151.5t57.5 151.5t141.5 60.5q105 0 158 -85v73zM241 38q64 0 109 45.5t45 116.5t-44.5 116.5t-108.5 45.5t-108 -45t-44 -117t44 -117t107 -45z" />
    <glyph glyph-name="Abreve" unicode="&#x102;" horiz-adv-x="632" 
d="M316 683q-59 0 -98.5 41t-39.5 102h50q0 -43 25 -70.5t64 -27.5t63.5 27.5t24.5 70.5h49q0 -61 -39.5 -102t-98.5 -41zM530 0l-76 192h-276l-75 -192h-64l242 600h68l244 -600h-63zM199 244h235l-118 299z" />
    <glyph glyph-name="abreve" unicode="&#x103;" horiz-adv-x="520" 
d="M267 483q-59 0 -98.5 41t-39.5 102h50q0 -43 25 -70.5t64 -27.5t63.5 27.5t24.5 70.5h49q0 -61 -39.5 -102t-98.5 -41zM392 400h54v-400h-54v73q-53 -85 -158 -85q-84 0 -141.5 60.5t-57.5 151.5t57.5 151.5t141.5 60.5q105 0 158 -85v73zM241 38q64 0 109 45.5t45 116.5
t-44.5 116.5t-108.5 45.5t-108 -45t-44 -117t44 -117t107 -45z" />
    <glyph glyph-name="Aogonek" unicode="&#x104;" horiz-adv-x="632" 
d="M523 -115q0 -31 22 -48.5t63 -17.5v-46h-13q-60 0 -94.5 30t-34.5 76q0 68 62 127l-74 186h-276l-75 -192h-64l242 600h68l244 -600q-70 -54 -70 -115zM199 244h235l-118 299z" />
    <glyph glyph-name="aogonek" unicode="&#x105;" horiz-adv-x="520" 
d="M378 -114q0 -31 21.5 -49t61.5 -18v-46h-13q-57 0 -89 29t-32 75q0 68 65 125v71q-53 -85 -158 -85q-84 0 -141.5 60.5t-57.5 151.5t57.5 151.5t141.5 60.5q105 0 158 -85v73h54v-400q-68 -53 -68 -114zM241 38q64 0 109 45.5t45 116.5t-44.5 116.5t-108.5 45.5t-108 -45
t-44 -117t44 -117t107 -45z" />
    <glyph glyph-name="Cacute" unicode="&#x106;" horiz-adv-x="630" 
d="M282 687l-20 43l200 98l22 -47zM604 111q-99 -125 -253 -125q-130 0 -216.5 88.5t-86.5 224.5q0 138 87.5 226.5t222.5 88.5q151 0 240 -117l-40 -33q-75 96 -201 96q-109 0 -178.5 -72.5t-69.5 -187.5q0 -112 69 -185.5t175 -74.5q129 0 212 103z" />
    <glyph glyph-name="cacute" unicode="&#x107;" horiz-adv-x="426" 
d="M188 479l-31 37l152 130l33 -39zM363 315q-49 46 -118 46q-68 0 -112 -44.5t-44 -117.5q0 -71 45.5 -115.5t112.5 -44.5q71 0 120 48l35 -33q-63 -66 -157 -66q-91 0 -150.5 59.5t-59.5 152.5t59 152.5t152 59.5q92 0 152 -63z" />
    <glyph glyph-name="Ccircumflex" unicode="&#x108;" horiz-adv-x="630" 
d="M358 782l-114 -106l-31 32l146 137l145 -137l-37 -32zM565 143l39 -32q-99 -125 -253 -125q-130 0 -216.5 88.5t-86.5 224.5q0 138 87.5 226.5t222.5 88.5q151 0 240 -117l-40 -33q-75 96 -201 96q-109 0 -178.5 -72.5t-69.5 -187.5q0 -112 69 -185.5t175 -74.5
q129 0 212 103z" />
    <glyph glyph-name="ccircumflex" unicode="&#x109;" horiz-adv-x="426" 
d="M241 582l-114 -106l-31 32l146 137l145 -137l-37 -32zM367 87l35 -33q-63 -66 -157 -66q-91 0 -150.5 59.5t-59.5 152.5t59 152.5t152 59.5q92 0 152 -63l-35 -34q-49 46 -118 46q-68 0 -112 -44.5t-44 -117.5q0 -71 45.5 -115.5t112.5 -44.5q71 0 120 48z" />
    <glyph glyph-name="Cdotaccent" unicode="&#x10a;" horiz-adv-x="630" 
d="M358 716q-19 0 -30 11.5t-11 29.5t11 29t30 11q18 0 29 -11t11 -29t-11 -29.5t-29 -11.5zM604 111q-99 -125 -253 -125q-130 0 -216.5 88.5t-86.5 224.5q0 138 87.5 226.5t222.5 88.5q151 0 240 -117l-40 -33q-75 96 -201 96q-109 0 -178.5 -72.5t-69.5 -187.5
q0 -112 69 -185.5t175 -74.5q129 0 212 103z" />
    <glyph glyph-name="cdotaccent" unicode="&#x10b;" horiz-adv-x="426" 
d="M241 525q-19 0 -30 11.5t-11 28.5t11 28.5t30 11.5q18 0 29 -11.5t11 -28.5t-11 -28.5t-29 -11.5zM363 315q-49 46 -118 46q-68 0 -112 -44.5t-44 -117.5q0 -71 45.5 -115.5t112.5 -44.5q71 0 120 48l35 -33q-63 -66 -157 -66q-91 0 -150.5 59.5t-59.5 152.5t59 152.5
t152 59.5q92 0 152 -63z" />
    <glyph glyph-name="Ccaron" unicode="&#x10c;" horiz-adv-x="630" 
d="M504 810l-146 -137l-145 137l36 32l109 -106l114 106zM565 143l39 -32q-99 -125 -253 -125q-130 0 -216.5 88.5t-86.5 224.5q0 138 87.5 226.5t222.5 88.5q151 0 240 -117l-40 -33q-75 96 -201 96q-109 0 -178.5 -72.5t-69.5 -187.5q0 -112 69 -185.5t175 -74.5
q129 0 212 103z" />
    <glyph glyph-name="ccaron" unicode="&#x10d;" horiz-adv-x="426" 
d="M387 610l-146 -137l-145 137l36 32l109 -106l114 106zM367 87l35 -33q-63 -66 -157 -66q-91 0 -150.5 59.5t-59.5 152.5t59 152.5t152 59.5q92 0 152 -63l-35 -34q-49 46 -118 46q-68 0 -112 -44.5t-44 -117.5q0 -71 45.5 -115.5t112.5 -44.5q71 0 120 48z" />
    <glyph glyph-name="Dcaron" unicode="&#x10e;" horiz-adv-x="670" 
d="M433 810l-146 -137l-145 137l36 32l109 -106l114 106zM284 600q85 0 151.5 -25.5t106 -68.5t59.5 -95.5t20 -110.5t-20 -110.5t-59.5 -95.5t-106 -68.5t-151.5 -25.5h-193v600h193zM276 54q72 0 128 21t89.5 56.5t50 78.5t16.5 90q0 102 -72 174t-211 72h-127v-492h126z
" />
    <glyph glyph-name="dcaron" unicode="&#x10f;" horiz-adv-x="525" 
d="M392 327v373h54v-700h-54v73q-53 -85 -158 -85q-84 0 -141.5 60.5t-57.5 151.5t57.5 151.5t141.5 60.5q105 0 158 -85zM561 700l1 -202l-45 -23l-1 225h45zM241 38q64 0 109 45.5t45 116.5t-44.5 116.5t-108.5 45.5q-65 0 -109 -45t-44 -117t44 -117t108 -45z" />
    <glyph glyph-name="Dcroat" unicode="&#x110;" horiz-adv-x="670" 
d="M284 600q85 0 151.5 -25.5t106 -68.5t59.5 -95.5t20 -110.5t-20 -110.5t-59.5 -95.5t-106 -68.5t-151.5 -25.5h-193v277h-80v45h80v278h193zM276 54q72 0 128 21t89.5 56.5t50 78.5t16.5 90q0 102 -72 174t-211 72h-127v-224h151v-45h-151v-223h126z" />
    <glyph glyph-name="dcroat" unicode="&#x111;" horiz-adv-x="525" 
d="M527 554v-45h-81v-509h-54v73q-53 -85 -158 -85q-84 0 -141.5 60.5t-57.5 151.5t57.5 151.5t141.5 60.5q105 0 158 -85v182h-155v45h155v146h54v-146h81zM241 38q64 0 109 45.5t45 116.5t-44.5 116.5t-108.5 45.5q-65 0 -109 -45t-44 -117t44 -117t108 -45z" />
    <glyph glyph-name="Emacron" unicode="&#x112;" horiz-adv-x="580" 
d="M463 770v-46h-300v46h300zM150 52h382v-52h-441v600h431v-52h-372v-214h352v-52h-352v-230z" />
    <glyph glyph-name="emacron" unicode="&#x113;" horiz-adv-x="479" 
d="M401 570v-46h-300v46h300zM437 221q0 -20 -2 -30l-342 -1q5 -68 48.5 -112t116.5 -44q79 0 137 53l32 -34q-67 -65 -171 -65q-96 0 -156 60t-60 153t58 152t151 59q85 0 136.5 -51t51.5 -140zM249 366q-60 0 -102 -35t-52 -95l290 1q-5 61 -42 95t-94 34z" />
    <glyph glyph-name="Ebreve" unicode="&#x114;" horiz-adv-x="580" 
d="M313 683q-59 0 -98.5 41t-39.5 102h50q0 -43 25 -70.5t64 -27.5t63.5 27.5t24.5 70.5h49q0 -61 -39.5 -102t-98.5 -41zM150 52h382v-52h-441v600h431v-52h-372v-214h352v-52h-352v-230z" />
    <glyph glyph-name="ebreve" unicode="&#x115;" horiz-adv-x="479" 
d="M251 483q-59 0 -98.5 41t-39.5 102h50q0 -43 25 -70.5t64 -27.5t63.5 27.5t24.5 70.5h49q0 -61 -39.5 -102t-98.5 -41zM437 221q0 -20 -2 -30l-342 -1q5 -68 48.5 -112t116.5 -44q79 0 137 53l32 -34q-67 -65 -171 -65q-96 0 -156 60t-60 153t58 152t151 59
q85 0 136.5 -51t51.5 -140zM249 366q-60 0 -102 -35t-52 -95l290 1q-5 61 -42 95t-94 34z" />
    <glyph glyph-name="Edotaccent" unicode="&#x116;" horiz-adv-x="580" 
d="M313 716q-19 0 -30 11.5t-11 29.5t11 29t30 11q18 0 29 -11t11 -29t-11 -29.5t-29 -11.5zM150 52h382v-52h-441v600h431v-52h-372v-214h352v-52h-352v-230z" />
    <glyph glyph-name="edotaccent" unicode="&#x117;" horiz-adv-x="479" 
d="M251 525q-19 0 -30 11.5t-11 28.5t11 28.5t30 11.5q18 0 29 -11.5t11 -28.5t-11 -28.5t-29 -11.5zM437 221q0 -20 -2 -30l-342 -1q5 -68 48.5 -112t116.5 -44q79 0 137 53l32 -34q-67 -65 -171 -65q-96 0 -156 60t-60 153t58 152t151 59q85 0 136.5 -51t51.5 -140z
M249 366q-60 0 -102 -35t-52 -95l290 1q-5 61 -42 95t-94 34z" />
    <glyph glyph-name="Eogonek" unicode="&#x118;" horiz-adv-x="580" 
d="M464 -114q0 -31 21.5 -49t61.5 -18v-46h-13q-59 0 -92.5 29t-33.5 75q0 66 60 123h-377v600h431v-52h-372v-214h352v-52h-352v-230h382v-52q-68 -53 -68 -114z" />
    <glyph glyph-name="eogonek" unicode="&#x119;" horiz-adv-x="479" 
d="M358 -101q0 -34 22 -52.5t62 -18.5v-46h-13q-58 0 -90 29.5t-32 79.5q0 52 31 110q-38 -13 -82 -13q-96 0 -156 60t-60 153t58 152t151 59q85 0 136.5 -51t51.5 -140q0 -20 -2 -30l-342 -1q5 -68 48.5 -112t116.5 -44q79 0 137 53l32 -34l-4 -4q-65 -85 -65 -150z
M249 366q-60 0 -102 -35t-52 -95l290 1q-5 61 -42 95t-94 34z" />
    <glyph glyph-name="Ecaron" unicode="&#x11a;" horiz-adv-x="580" 
d="M459 810l-146 -137l-145 137l36 32l109 -106l114 106zM150 52h382v-52h-441v600h431v-52h-372v-214h352v-52h-352v-230z" />
    <glyph glyph-name="ecaron" unicode="&#x11b;" horiz-adv-x="479" 
d="M397 610l-146 -137l-145 137l36 32l109 -106l114 106zM437 221q0 -20 -2 -30l-342 -1q5 -68 48.5 -112t116.5 -44q79 0 137 53l32 -34q-67 -65 -171 -65q-96 0 -156 60t-60 153t58 152t151 59q85 0 136.5 -51t51.5 -140zM249 366q-60 0 -102 -35t-52 -95l290 1
q-5 61 -42 95t-94 34z" />
    <glyph glyph-name="Gcircumflex" unicode="&#x11c;" horiz-adv-x="731" 
d="M371 782l-114 -106l-31 32l146 137l145 -137l-37 -32zM681 327q2 -9 2 -26q0 -139 -82.5 -227t-228.5 -88q-141 0 -232.5 87.5t-91.5 222.5q0 142 91 230.5t236 88.5q139 0 237 -89l-38 -43q-84 78 -198 78q-118 0 -192 -73t-74 -190q0 -113 75 -185.5t191 -72.5
q108 0 175.5 64.5t75.5 170.5h-264v52h318z" />
    <glyph glyph-name="gcircumflex" unicode="&#x11d;" horiz-adv-x="520" 
d="M256 582l-114 -106l-31 32l146 137l145 -137l-37 -32zM391 400h55v-413q0 -103 -56.5 -160.5t-155.5 -57.5q-117 0 -179 65l32 37q58 -52 148 -52q75 0 115.5 44t40.5 124v84q-54 -83 -157 -83q-84 0 -141.5 60.5t-57.5 151.5t57.5 151.5t141.5 60.5q103 0 157 -83v71z
M241 38q64 0 109 45.5t45 116.5t-44.5 116.5t-108.5 45.5q-65 0 -109 -45t-44 -117t44 -117t108 -45z" />
    <glyph glyph-name="Gbreve" unicode="&#x11e;" horiz-adv-x="731" 
d="M371 683q-59 0 -98.5 41t-39.5 102h50q0 -43 25 -70.5t64 -27.5t63.5 27.5t24.5 70.5h49q0 -61 -39.5 -102t-98.5 -41zM681 327q2 -9 2 -26q0 -139 -82.5 -227t-228.5 -88q-141 0 -232.5 87.5t-91.5 222.5q0 142 91 230.5t236 88.5q139 0 237 -89l-38 -43q-84 78 -198 78
q-118 0 -192 -73t-74 -190q0 -113 75 -185.5t191 -72.5q108 0 175.5 64.5t75.5 170.5h-264v52h318z" />
    <glyph glyph-name="gbreve" unicode="&#x11f;" horiz-adv-x="520" 
d="M256 483q-59 0 -98.5 41t-39.5 102h50q0 -43 25 -70.5t64 -27.5t63.5 27.5t24.5 70.5h49q0 -61 -39.5 -102t-98.5 -41zM391 400h55v-413q0 -103 -56.5 -160.5t-155.5 -57.5q-117 0 -179 65l32 37q58 -52 148 -52q75 0 115.5 44t40.5 124v84q-54 -83 -157 -83
q-84 0 -141.5 60.5t-57.5 151.5t57.5 151.5t141.5 60.5q103 0 157 -83v71zM241 38q64 0 109 45.5t45 116.5t-44.5 116.5t-108.5 45.5q-65 0 -109 -45t-44 -117t44 -117t108 -45z" />
    <glyph glyph-name="Gdotaccent" unicode="&#x120;" horiz-adv-x="731" 
d="M371 716q-19 0 -30 11.5t-11 29.5t11 29t30 11q18 0 29 -11t11 -29t-11 -29.5t-29 -11.5zM681 327q2 -9 2 -26q0 -139 -82.5 -227t-228.5 -88q-141 0 -232.5 87.5t-91.5 222.5q0 142 91 230.5t236 88.5q139 0 237 -89l-38 -43q-84 78 -198 78q-118 0 -192 -73t-74 -190
q0 -113 75 -185.5t191 -72.5q108 0 175.5 64.5t75.5 170.5h-264v52h318z" />
    <glyph glyph-name="gdotaccent" unicode="&#x121;" horiz-adv-x="520" 
d="M256 525q-18 0 -29.5 11.5t-11.5 28.5t11.5 28.5t29.5 11.5t29 -11.5t11 -28.5t-11 -28.5t-29 -11.5zM391 400h55v-413q0 -103 -56.5 -160.5t-155.5 -57.5q-117 0 -179 65l32 37q58 -52 148 -52q75 0 115.5 44t40.5 124v84q-54 -83 -157 -83q-84 0 -141.5 60.5
t-57.5 151.5t57.5 151.5t141.5 60.5q103 0 157 -83v71zM241 38q64 0 109 45.5t45 116.5t-44.5 116.5t-108.5 45.5q-65 0 -109 -45t-44 -117t44 -117t108 -45z" />
    <glyph glyph-name="Gcommaaccent" unicode="&#x122;" horiz-adv-x="731" 
d="M681 327q2 -9 2 -26q0 -139 -82.5 -227t-228.5 -88q-141 0 -232.5 87.5t-91.5 222.5q0 142 91 230.5t236 88.5q139 0 237 -89l-38 -43q-84 78 -198 78q-118 0 -192 -73t-74 -190q0 -113 75 -185.5t191 -72.5q108 0 175.5 64.5t75.5 170.5h-264v52h318zM326 -217l33 163
l57 -11l-39 -161z" />
    <glyph glyph-name="gcommaaccent" unicode="&#x123;" horiz-adv-x="520" 
d="M305 671l-38 -193l-53 10l46 191zM391 400h55v-413q0 -103 -56.5 -160.5t-155.5 -57.5q-117 0 -179 65l32 37q58 -52 148 -52q75 0 115.5 44t40.5 124v84q-54 -83 -157 -83q-84 0 -141.5 60.5t-57.5 151.5t57.5 151.5t141.5 60.5q103 0 157 -83v71zM241 38q64 0 109 45.5
t45 116.5t-44.5 116.5t-108.5 45.5q-65 0 -109 -45t-44 -117t44 -117t108 -45z" />
    <glyph glyph-name="Hcircumflex" unicode="&#x124;" horiz-adv-x="693" 
d="M340 782l-114 -106l-31 32l146 137l145 -137l-37 -32zM543 600h59v-600h-59v282h-393v-282h-59v600h59v-266h393v266z" />
    <glyph glyph-name="hcircumflex" unicode="&#x125;" horiz-adv-x="518" 
d="M225 654l-109 106l-114 -106l-31 32l146 137l145 -137zM290 412q73 0 114 -47.5t41 -133.5v-231h-55v218q0 69 -29 106.5t-85 37.5q-63 0 -105 -44t-42 -113v-205h-55v630h55v-307q25 42 67 65.5t94 23.5z" />
    <glyph glyph-name="Hbar" unicode="&#x126;" horiz-adv-x="693" 
d="M543 600h59v-600h-59v169h-393v-169h-59v600h59v-159h393v159zM150 218h393v173h-393v-173z" />
    <glyph glyph-name="hbar" unicode="&#x127;" horiz-adv-x="521" 
d="M291 412q75 0 116 -47t41 -134v-231h-55v217q0 145 -114 145q-64 0 -105.5 -44t-41.5 -112v-206h-55v510h-79v45h79v145h55v-145h156v-45h-156v-181q54 83 159 83z" />
    <glyph glyph-name="Itilde" unicode="&#x128;" horiz-adv-x="283" 
d="M204 691q-39 0 -74 41q-1 1 -5 6t-5.5 6.5l-6 6t-7 6t-7 4t-9 3.5t-9.5 1q-21 0 -35.5 -19t-14.5 -48h-42q0 50 26 80.5t63 30.5q36 0 72 -40q30 -34 51 -34q22 0 36 19t14 48h42q0 -50 -26 -80.5t-63 -30.5zM112 0v600h59v-600h-59z" />
    <glyph glyph-name="itilde" unicode="&#x129;" horiz-adv-x="238" 
d="M182 491q-39 0 -74 41q-1 1 -5 6t-5.5 6.5l-6 6t-7 6t-7 4t-9 3.5t-9.5 1q-21 0 -35.5 -19t-14.5 -48h-42q0 50 26 80.5t63 30.5q36 0 72 -40q30 -34 51 -34q22 0 36 19t14 48h42q0 -50 -26 -80.5t-63 -30.5zM91 0v400h55v-400h-55z" />
    <glyph glyph-name="Imacron" unicode="&#x12a;" horiz-adv-x="283" 
d="M251 724h-220v46h220v-46zM112 0v600h59v-600h-59z" />
    <glyph glyph-name="imacron" unicode="&#x12b;" horiz-adv-x="238" 
d="M229 524h-220v46h220v-46zM91 0v400h55v-400h-55z" />
    <glyph glyph-name="Ibreve" unicode="&#x12c;" horiz-adv-x="283" 
d="M53 826q0 -43 25 -70.5t64 -27.5t63.5 27.5t24.5 70.5h49q0 -61 -39.5 -102t-98.5 -41t-98.5 41t-39.5 102h50zM112 0v600h59v-600h-59z" />
    <glyph glyph-name="ibreve" unicode="&#x12d;" horiz-adv-x="238" 
d="M57 603q0 -34 17 -54t46 -20q28 0 44.5 20t16.5 54v29h46v-29q0 -53 -30 -85.5t-78 -32.5t-78 32.5t-30 85.5v29h46v-29zM91 0v400h55v-400h-55z" />
    <glyph glyph-name="Iogonek" unicode="&#x12e;" horiz-adv-x="283" 
d="M103 -114q0 -31 21.5 -49t61.5 -18v-46h-13q-59 0 -92.5 29t-33.5 75q0 68 65 128v595h59v-600q-68 -53 -68 -114z" />
    <glyph glyph-name="iogonek" unicode="&#x12f;" horiz-adv-x="238" 
d="M119 525q-19 0 -30 11.5t-11 28.5t11 28.5t30 11.5q18 0 29 -11.5t11 -28.5t-11 -28.5t-29 -11.5zM99 -104q0 -36 21.5 -56.5t61.5 -20.5v-46h-13q-57 0 -89.5 32t-32.5 83q0 59 44 114v398h55v-400q-47 -49 -47 -104z" />
    <glyph glyph-name="Idotaccent" unicode="&#x130;" horiz-adv-x="283" 
d="M141 716q-19 0 -30 11.5t-11 29.5t11 29t30 11q18 0 29 -11t11 -29t-11 -29.5t-29 -11.5zM112 0v600h59v-600h-59z" />
    <glyph glyph-name="dotlessi" unicode="&#x131;" horiz-adv-x="238" 
d="M91 0v400h55v-400h-55z" />
    <glyph glyph-name="IJ" unicode="&#x132;" horiz-adv-x="667" 
d="M145 240q0 -92 55 -146t134 -54q80 0 135 53t55 145v362h59v-363q0 -116 -71 -183.5t-178 -67.5t-178.5 68t-71.5 186v10h61v-10zM84 369v231h61v-231h-61z" />
    <glyph glyph-name="ij" unicode="&#x133;" horiz-adv-x="517" 
d="M107 525q-19 0 -30 11.5t-11 28.5t11 28.5t30 11.5q18 0 29 -11.5t11 -28.5t-11 -28.5t-29 -11.5zM415 525q-19 0 -30 11.5t-11 28.5t11 28.5t30 11.5q18 0 29 -11.5t11 -28.5t-11 -28.5t-29 -11.5zM389 400h54l1 -412q0 -104 -53 -161.5t-146 -57.5q-110 0 -170 70
l39 36q49 -54 132 -54q67 0 105 43t38 122v83q-55 -81 -161 -81q-73 0 -114 47.5t-41 133.5v231h55v-217q0 -145 113 -145q64 0 106 44t42 112v206z" />
    <glyph glyph-name="Jcircumflex" unicode="&#x134;" horiz-adv-x="308" 
d="M168 845l145 -137l-37 -32l-109 106l-114 -106l-31 32zM137 51v549h59v-541q0 -104 -54.5 -160.5t-152.5 -56.5h-33v53h35q70 0 108 40t38 116z" />
    <glyph glyph-name="jcircumflex" unicode="&#x135;" horiz-adv-x="238" 
d="M120 642l124 -136l-37 -33l-88 102l-93 -102l-31 33zM91 -220v620h55v-620h-55z" />
    <glyph glyph-name="Kcommaaccent" unicode="&#x136;" horiz-adv-x="635" 
d="M364 310q106 -25 162.5 -103t56.5 -207h-60q0 134 -72 208t-195 74h-106v-282h-59v600h59v-266h104q110 0 184.5 76t74.5 190h60q0 -105 -56.5 -182.5t-152.5 -107.5zM281 -217l33 163l57 -11l-39 -161z" />
    <glyph glyph-name="kcommaaccent" unicode="&#x137;" horiz-adv-x="483" 
d="M277 210q147 -40 147 -210h-55q0 87 -49 135.5t-130 48.5h-59v-184h-55v700h55v-469h39q85 0 142 51.5t57 127.5h55q0 -69 -39.5 -122.5t-107.5 -77.5zM199 -219l32 165l53 -10l-40 -164z" />
    <glyph glyph-name="Lacute" unicode="&#x139;" horiz-adv-x="532" 
d="M225 828l22 -47l-202 -94l-20 43zM150 52h361v-52h-420v600h59v-548z" />
    <glyph glyph-name="lacute" unicode="&#x13a;" horiz-adv-x="212" 
d="M36 677l-20 43l200 98l22 -47zM79 0v615h55v-615h-55z" />
    <glyph glyph-name="Lcommaaccent" unicode="&#x13b;" horiz-adv-x="532" 
d="M150 52h361v-52h-420v600h59v-548zM235 -217l33 163l57 -11l-39 -161z" />
    <glyph glyph-name="lcommaaccent" unicode="&#x13c;" horiz-adv-x="221" 
d="M83 0v700h55v-700h-55zM109 -228l-45 9l32 165l53 -10z" />
    <glyph glyph-name="Lcaron" unicode="&#x13d;" horiz-adv-x="532" 
d="M150 52h361v-52h-420v600h59v-548zM451 361l-50 -27l-1 266h50z" />
    <glyph glyph-name="lcaron" unicode="&#x13e;" horiz-adv-x="221" 
d="M83 0v700h55v-700h-55zM254 699l1 -202l-45 -23l-1 225h45z" />
    <glyph glyph-name="Ldot" unicode="&#x13f;" horiz-adv-x="532" 
d="M150 52h361v-52h-420v600h59v-548zM414 261q-18 0 -29.5 11.5t-11.5 28.5q0 18 11 29t30 11q17 0 28.5 -11t11.5 -29q0 -17 -11.5 -28.5t-28.5 -11.5z" />
    <glyph glyph-name="ldot" unicode="&#x140;" horiz-adv-x="244" 
d="M83 0v700h55v-700h-55zM234 306q-18 0 -29.5 11t-11.5 29t11 29t30 11q17 0 28.5 -11t11.5 -29q0 -17 -11.5 -28.5t-28.5 -11.5z" />
    <glyph glyph-name="Lslash" unicode="&#x141;" horiz-adv-x="533" 
d="M160 52h361v-52h-420v230l-65 -36l-23 42l88 49v315h59v-283l169 94l25 -42l-194 -107v-210z" />
    <glyph glyph-name="lslash" unicode="&#x142;" horiz-adv-x="242" 
d="M267 414l-114 -77v-337h-55v300l-87 -58l-26 37l113 76v345h55v-308l88 59z" />
    <glyph glyph-name="Nacute" unicode="&#x143;" horiz-adv-x="682" 
d="M469 781l-202 -94l-20 43l200 98zM535 600h56v-600h-66l-379 524v-524h-55v600h65l379 -522v522z" />
    <glyph glyph-name="nacute" unicode="&#x144;" horiz-adv-x="518" 
d="M360 607l-154 -128l-31 37l152 130zM290 412q73 0 114 -47.5t41 -133.5v-231h-55v217q0 70 -29 107.5t-85 37.5q-64 0 -105.5 -44t-41.5 -112v-206h-55v400h55v-69q57 81 161 81z" />
    <glyph glyph-name="Ncommaaccent" unicode="&#x145;" horiz-adv-x="682" 
d="M535 600h56v-600h-66l-379 524v-524h-55v600h65l379 -522v522zM295 -217l33 163l57 -11l-39 -161z" />
    <glyph glyph-name="ncommaaccent" unicode="&#x146;" horiz-adv-x="518" 
d="M290 412q73 0 114 -47.5t41 -133.5v-231h-55v217q0 70 -29 107.5t-85 37.5q-64 0 -105.5 -44t-41.5 -112v-206h-55v400h55v-69q57 81 161 81zM215 -219l32 165l53 -10l-40 -164z" />
    <glyph glyph-name="Ncaron" unicode="&#x147;" horiz-adv-x="682" 
d="M489 810l-146 -137l-145 137l36 32l109 -106l114 106zM535 600h56v-600h-66l-379 524v-524h-55v600h65l379 -522v522z" />
    <glyph glyph-name="ncaron" unicode="&#x148;" horiz-adv-x="518" 
d="M405 610l-146 -137l-145 137l36 32l109 -106l114 106zM290 412q73 0 114 -47.5t41 -133.5v-231h-55v217q0 70 -29 107.5t-85 37.5q-64 0 -105.5 -44t-41.5 -112v-206h-55v400h55v-69q57 81 161 81z" />
    <glyph glyph-name="Eng" unicode="&#x14a;" horiz-adv-x="704" 
d="M394 614q109 0 167.5 -69.5t58.5 -195.5v-290q0 -104 -54.5 -160.5t-152.5 -56.5h-33v52h35q70 0 108 40.5t38 116.5v275q0 234 -181 234q-106 0 -168 -74t-62 -185v-301h-59v600h59v-129q36 68 99 105.5t145 37.5z" />
    <glyph glyph-name="eng" unicode="&#x14b;" horiz-adv-x="518" 
d="M287 412q73 0 115.5 -47.5t42.5 -127.5v-235q0 -106 -52.5 -167t-144.5 -61h-39v52h38q67 0 105 45t38 129v223q0 64 -30.5 101.5t-86.5 37.5t-97 -38t-47 -99v-225h-55v400h55v-67q56 79 158 79z" />
    <glyph glyph-name="Omacron" unicode="&#x14c;" horiz-adv-x="731" 
d="M518 724h-300v46h300v-46zM365 -14q-139 0 -228 88t-89 226t89 226t229 88q139 0 228 -88t89 -226t-89 -226t-229 -88zM365 40q112 0 184.5 72.5t72.5 187.5t-72 187.5t-185 72.5q-112 0 -184 -73t-72 -187t72 -187t184 -73z" />
    <glyph glyph-name="omacron" unicode="&#x14d;" horiz-adv-x="491" 
d="M398 524h-300v46h300v-46zM245 -12q-92 0 -151 59.5t-59 152.5t59.5 152.5t151.5 59.5t151 -59.5t59 -152.5t-59.5 -152.5t-151.5 -59.5zM246 39q68 0 111.5 45.5t43.5 116.5q0 70 -44 115t-112 45t-111.5 -45t-43.5 -115q0 -71 44 -116.5t112 -45.5z" />
    <glyph glyph-name="Obreve" unicode="&#x14e;" horiz-adv-x="731" 
d="M280 826q0 -43 25 -70.5t64 -27.5t63.5 27.5t24.5 70.5h49q0 -61 -39.5 -102t-98.5 -41t-98.5 41t-39.5 102h50zM365 -14q-139 0 -228 88t-89 226t89 226t229 88q139 0 228 -88t89 -226t-89 -226t-229 -88zM365 40q112 0 184.5 72.5t72.5 187.5t-72 187.5t-185 72.5
q-112 0 -184 -73t-72 -187t72 -187t184 -73z" />
    <glyph glyph-name="obreve" unicode="&#x14f;" horiz-adv-x="491" 
d="M160 626q0 -43 25 -70.5t64 -27.5t63.5 27.5t24.5 70.5h49q0 -61 -39.5 -102t-98.5 -41t-98.5 41t-39.5 102h50zM245 -12q-92 0 -151 59.5t-59 152.5t59.5 152.5t151.5 59.5t151 -59.5t59 -152.5t-59.5 -152.5t-151.5 -59.5zM246 39q68 0 111.5 45.5t43.5 116.5
q0 70 -44 115t-112 45t-111.5 -45t-43.5 -115q0 -71 44 -116.5t112 -45.5z" />
    <glyph glyph-name="Ohungarumlaut" unicode="&#x150;" horiz-adv-x="731" 
d="M204 687l-20 43l200 98l22 -47zM411 687l-20 43l200 98l22 -47zM365 -14q-139 0 -228 88t-89 226t89 226t229 88q139 0 228 -88t89 -226t-89 -226t-229 -88zM365 40q112 0 184.5 72.5t72.5 187.5t-72 187.5t-185 72.5q-112 0 -184 -73t-72 -187t72 -187t184 -73z" />
    <glyph glyph-name="ohungarumlaut" unicode="&#x151;" horiz-adv-x="491" 
d="M132 479l-31 37l152 130l33 -39zM301 479l-31 37l152 130l33 -39zM245 -12q-92 0 -151 59.5t-59 152.5t59.5 152.5t151.5 59.5t151 -59.5t59 -152.5t-59.5 -152.5t-151.5 -59.5zM246 39q68 0 111.5 45.5t43.5 116.5q0 70 -44 115t-112 45t-111.5 -45t-43.5 -115
q0 -71 44 -116.5t112 -45.5z" />
    <glyph glyph-name="OE" unicode="&#x152;" horiz-adv-x="980" 
d="M932 52v-52h-482q-45 -14 -95 -14q-133 0 -220 88.5t-87 225.5t87 225.5t220 88.5q50 0 95 -14h472v-52h-376q94 -78 106 -214h250v-52h-249q-8 -146 -107 -230h386zM109 301q0 -114 70.5 -188t178.5 -74q106 0 173.5 73.5t67.5 188.5t-67.5 187.5t-173.5 72.5
q-108 0 -178.5 -73t-70.5 -187z" />
    <glyph glyph-name="oe" unicode="&#x153;" horiz-adv-x="822" 
d="M779 221q0 -20 -2 -30l-332 -1q5 -68 50.5 -111t115.5 -43q73 0 128 50l30 -33q-62 -65 -163 -65q-64 0 -113.5 31.5t-73.5 85.5q-23 -55 -70.5 -86t-109.5 -31q-88 0 -146 59.5t-58 152.5t58 152.5t146 59.5q62 0 109.5 -31t70.5 -85q23 54 70 85t110 31q82 0 131 -51
t49 -140zM595 366q-58 0 -98 -35.5t-50 -94.5l281 1q-5 61 -41 95t-92 34zM243 38q65 0 108.5 45t43.5 118t-43.5 117t-108.5 44t-109.5 -44t-44.5 -117t44.5 -118t109.5 -45z" />
    <glyph glyph-name="Racute" unicode="&#x154;" horiz-adv-x="654" 
d="M447 781l-202 -94l-20 43l200 98zM434 273q152 -57 152 -273h-59q0 257 -235 257h-133v-257h-59v600h261q99 0 153 -48.5t54 -120.5q0 -57 -35.5 -100t-98.5 -58zM159 305h200q69 0 109.5 34.5t40.5 88.5q0 52 -39 87.5t-111 35.5h-200v-246z" />
    <glyph glyph-name="racute" unicode="&#x155;" horiz-adv-x="356" 
d="M291 607l-154 -128l-31 37l152 130zM129 294q58 112 202 112v-55h-12q-85 0 -137.5 -51.5t-52.5 -142.5v-157h-55v400h55v-106z" />
    <glyph glyph-name="Rcommaaccent" unicode="&#x156;" horiz-adv-x="654" 
d="M434 273q152 -57 152 -273h-59q0 257 -235 257h-133v-257h-59v600h261q99 0 153 -48.5t54 -120.5q0 -57 -35.5 -100t-98.5 -58zM159 305h200q69 0 109.5 34.5t40.5 88.5q0 52 -39 87.5t-111 35.5h-200v-246zM285 -217l33 163l57 -11l-39 -161z" />
    <glyph glyph-name="rcommaaccent" unicode="&#x157;" horiz-adv-x="356" 
d="M129 294q58 112 202 112v-55h-12q-85 0 -137.5 -51.5t-52.5 -142.5v-157h-55v400h55v-106zM133 -219l32 165l53 -10l-40 -164z" />
    <glyph glyph-name="Rcaron" unicode="&#x158;" horiz-adv-x="654" 
d="M467 810l-146 -137l-145 137l36 32l109 -106l114 106zM434 273q152 -57 152 -273h-59q0 257 -235 257h-133v-257h-59v600h261q99 0 153 -48.5t54 -120.5q0 -57 -35.5 -100t-98.5 -58zM159 305h200q69 0 109.5 34.5t40.5 88.5q0 52 -39 87.5t-111 35.5h-200v-246z" />
    <glyph glyph-name="rcaron" unicode="&#x159;" horiz-adv-x="356" 
d="M336 610l-146 -137l-145 137l36 32l109 -106l114 106zM129 294q58 112 202 112v-55h-12q-85 0 -137.5 -51.5t-52.5 -142.5v-157h-55v400h55v-106z" />
    <glyph glyph-name="Sacute" unicode="&#x15a;" horiz-adv-x="596" 
d="M232 687l-20 43l200 98l22 -47zM313 -13q-82 0 -153 33.5t-109 93.5l41 31q36 -51 96 -78.5t127 -27.5q76 0 123.5 33t47.5 84q0 23 -11.5 41.5t-26 30t-44 22t-49.5 15.5t-58 14q-45 10 -68.5 16t-59 20t-53.5 29.5t-32 41.5t-14 60q0 78 63 122.5t157 44.5
q76 0 142 -31t104 -87l-40 -34q-31 46 -87.5 73.5t-121.5 27.5q-69 0 -114 -30t-45 -81q0 -23 11 -40.5t25 -28.5t43 -21.5t49 -15.5t58 -14q36 -8 56 -13t51.5 -15t49 -21.5t36.5 -28t27.5 -39.5t8.5 -52q0 -80 -65 -127.5t-165 -47.5z" />
    <glyph glyph-name="sacute" unicode="&#x15b;" horiz-adv-x="398" 
d="M150 479l-31 37l152 130l33 -39zM199 -12q-94 0 -155 66l37 32q56 -53 123 -53q43 0 68 21t25 51q0 14 -7 25.5t-14 18.5t-25 13.5t-26 9t-31 8.5q-31 8 -49 14.5t-41 20t-34 34t-11 48.5q0 53 39.5 84.5t100.5 31.5q90 0 138 -60l-37 -30q-40 44 -100 44
q-41 0 -64.5 -20t-23.5 -49q0 -13 6.5 -24t13.5 -17t24 -13t26 -9.5t31 -8.5q31 -8 50 -15t41 -20t32.5 -33t10.5 -48q0 -54 -39.5 -88t-108.5 -34z" />
    <glyph glyph-name="Scircumflex" unicode="&#x15c;" horiz-adv-x="596" 
d="M308 782l-114 -106l-31 32l146 137l145 -137l-37 -32zM314 331q36 -8 56 -13t51.5 -15t49 -21.5t36.5 -28t27.5 -39.5t8.5 -52q0 -80 -65 -127.5t-165 -47.5q-82 0 -153 33.5t-109 93.5l41 31q36 -51 96 -78.5t127 -27.5q76 0 123.5 33t47.5 84q0 23 -11.5 41.5t-26 30
t-44 22t-49.5 15.5t-58 14q-45 10 -68.5 16t-59 20t-53.5 29.5t-32 41.5t-14 60q0 78 63 122.5t157 44.5q76 0 142 -31t104 -87l-40 -34q-31 46 -87.5 73.5t-121.5 27.5q-69 0 -114 -30t-45 -81q0 -23 11 -40.5t25 -28.5t43 -21.5t49 -15.5t58 -14z" />
    <glyph glyph-name="scircumflex" unicode="&#x15d;" horiz-adv-x="398" 
d="M203 575l-93 -102l-31 33l125 136l124 -136l-37 -33zM213 226q31 -8 50 -15t41 -20t32.5 -33t10.5 -48q0 -54 -39.5 -88t-108.5 -34q-94 0 -155 66l37 32q56 -53 123 -53q43 0 68 21t25 51q0 14 -7 25.5t-14 18.5t-25 13.5t-26 9t-31 8.5q-31 8 -49 14.5t-41 20t-34 34
t-11 48.5q0 53 39.5 84.5t100.5 31.5q90 0 138 -60l-37 -30q-40 44 -100 44q-41 0 -64.5 -20t-23.5 -49q0 -13 6.5 -24t13.5 -17t24 -13t26 -9.5t31 -8.5z" />
    <glyph glyph-name="Scedilla" unicode="&#x15e;" horiz-adv-x="596" 
d="M313 -13q-82 0 -153 33.5t-109 93.5l41 31q36 -51 96 -78.5t127 -27.5q76 0 123.5 33t47.5 84q0 23 -11.5 41.5t-26 30t-44 22t-49.5 15.5t-58 14q-45 10 -68.5 16t-59 20t-53.5 29.5t-32 41.5t-14 60q0 78 63 122.5t157 44.5q76 0 142 -31t104 -87l-40 -34
q-31 46 -87.5 73.5t-121.5 27.5q-69 0 -114 -30t-45 -81q0 -23 11 -40.5t25 -28.5t43 -21.5t49 -15.5t58 -14q36 -8 56 -13t51.5 -15t49 -21.5t36.5 -28t27.5 -39.5t8.5 -52q0 -80 -65 -127.5t-165 -47.5zM337 -220h-48l-1 144h51z" />
    <glyph glyph-name="scedilla" unicode="&#x15f;" horiz-adv-x="398" 
d="M199 -12q-94 0 -155 66l37 32q56 -53 123 -53q43 0 68 21t25 51q0 14 -7 25.5t-14 18.5t-25 13.5t-26 9t-31 8.5q-31 8 -49 14.5t-41 20t-34 34t-11 48.5q0 53 39.5 84.5t100.5 31.5q90 0 138 -60l-37 -30q-40 44 -100 44q-41 0 -64.5 -20t-23.5 -49q0 -13 6.5 -24
t13.5 -17t24 -13t26 -9.5t31 -8.5q31 -8 50 -15t41 -20t32.5 -33t10.5 -48q0 -54 -39.5 -88t-108.5 -34zM227 -220h-48l-1 144h51z" />
    <glyph glyph-name="Scaron" unicode="&#x160;" horiz-adv-x="596" 
d="M454 810l-146 -137l-145 137l36 32l109 -106l114 106zM314 331q36 -8 56 -13t51.5 -15t49 -21.5t36.5 -28t27.5 -39.5t8.5 -52q0 -80 -65 -127.5t-165 -47.5q-82 0 -153 33.5t-109 93.5l41 31q36 -51 96 -78.5t127 -27.5q76 0 123.5 33t47.5 84q0 23 -11.5 41.5t-26 30
t-44 22t-49.5 15.5t-58 14q-45 10 -68.5 16t-59 20t-53.5 29.5t-32 41.5t-14 60q0 78 63 122.5t157 44.5q76 0 142 -31t104 -87l-40 -34q-31 46 -87.5 73.5t-121.5 27.5q-69 0 -114 -30t-45 -81q0 -23 11 -40.5t25 -28.5t43 -21.5t49 -15.5t58 -14z" />
    <glyph glyph-name="scaron" unicode="&#x161;" horiz-adv-x="398" 
d="M328 610l-125 -137l-124 137l36 32l89 -103l92 103zM213 226q31 -8 50 -15t41 -20t32.5 -33t10.5 -48q0 -54 -39.5 -88t-108.5 -34q-94 0 -155 66l37 32q56 -53 123 -53q43 0 68 21t25 51q0 14 -7 25.5t-14 18.5t-25 13.5t-26 9t-31 8.5q-31 8 -49 14.5t-41 20t-34 34
t-11 48.5q0 53 39.5 84.5t100.5 31.5q90 0 138 -60l-37 -30q-40 44 -100 44q-41 0 -64.5 -20t-23.5 -49q0 -13 6.5 -24t13.5 -17t24 -13t26 -9.5t31 -8.5z" />
    <glyph glyph-name="uni0162" unicode="&#x162;" horiz-adv-x="593" 
d="M568 600v-52h-242v-548h-59v548h-242v52h543zM273 -220l-1 144h51l-2 -144h-48z" />
    <glyph glyph-name="uni0163" unicode="&#x163;" horiz-adv-x="394" 
d="M343 82l34 -36q-52 -58 -126 -58q-70 0 -109 42t-39 117v201h-74v47h74v94h55v-94h189v-47h-189v-201q0 -50 24 -78.5t72 -28.5t89 42zM210 -220l-1 144h51l-2 -144h-48z" />
    <glyph glyph-name="Tcaron" unicode="&#x164;" horiz-adv-x="593" 
d="M443 810l-146 -137l-145 137l36 32l109 -106l114 106zM568 600v-52h-242v-548h-59v548h-242v52h543z" />
    <glyph glyph-name="tcaron" unicode="&#x165;" horiz-adv-x="394" 
d="M302 498l-45 -23l-1 225h45zM343 82l34 -36q-52 -58 -126 -58q-70 0 -109 42t-39 117v201h-74v47h74v94h55v-94h189v-47h-189v-201q0 -50 24 -78.5t72 -28.5t89 42z" />
    <glyph glyph-name="Tbar" unicode="&#x166;" horiz-adv-x="593" 
d="M568 548h-242v-226h116v-45h-116v-277h-59v277h-115v45h115v226h-242v52h543v-52z" />
    <glyph glyph-name="tbar" unicode="&#x167;" horiz-adv-x="394" 
d="M343 82l34 -36q-52 -58 -126 -58q-70 0 -109 42t-39 117v36h-69v45h69v120h-74v47h74v94h55v-94h189v-47h-189v-120h166v-45h-166v-36q0 -50 24 -78.5t72 -28.5t89 42z" />
    <glyph glyph-name="Utilde" unicode="&#x168;" horiz-adv-x="687" 
d="M407 691q-39 0 -74 41q-1 1 -5 6t-5.5 6.5l-6 6t-7 6t-7 4t-9 3.5t-9.5 1q-21 0 -35.5 -19t-14.5 -48h-42q0 50 26 80.5t63 30.5q36 0 72 -40q30 -34 51 -34q22 0 36 19t14 48h42q0 -50 -26 -80.5t-63 -30.5zM603 263q0 -124 -73 -200.5t-190 -76.5q-115 0 -185.5 77
t-70.5 204v333h59v-334q0 -103 55 -164.5t145 -61.5t145.5 61.5t55.5 162.5v336h59v-337z" />
    <glyph glyph-name="utilde" unicode="&#x169;" horiz-adv-x="517" 
d="M203 565q-21 0 -35.5 -19t-14.5 -48h-42q0 50 26 80.5t63 30.5q36 0 72 -40q30 -34 51 -34q22 0 36 19t14 48h42q0 -50 -26 -80.5t-63 -30.5q-39 0 -74 41q-1 1 -5 6t-5.5 6.5l-6 6t-7 6t-7 4t-9 3.5t-9.5 1zM388 400h55v-400h-54v69q-55 -81 -161 -81q-73 0 -114 46.5
t-41 131.5v234h55v-220q0 -142 113 -142q63 0 105 44t42 112v206z" />
    <glyph glyph-name="Umacron" unicode="&#x16a;" horiz-adv-x="687" 
d="M494 724h-300v46h300v-46zM603 258q0 -118 -74 -195t-187 -77q-112 0 -185 78t-73 198v338h59v-340q0 -96 57 -158t143 -62q87 0 144 62t57 157v341h59v-342z" />
    <glyph glyph-name="umacron" unicode="&#x16b;" horiz-adv-x="517" 
d="M413 570v-46h-300v46h300zM388 400h55v-400h-54v69q-55 -81 -161 -81q-73 0 -114 46.5t-41 131.5v234h55v-220q0 -142 113 -142q63 0 105 44t42 112v206z" />
    <glyph glyph-name="Ubreve" unicode="&#x16c;" horiz-adv-x="687" 
d="M256 826q0 -43 25 -70.5t64 -27.5t63.5 27.5t24.5 70.5h49q0 -61 -39.5 -102t-98.5 -41t-98.5 41t-39.5 102h50zM603 263q0 -124 -73 -200.5t-190 -76.5q-115 0 -185.5 77t-70.5 204v333h59v-334q0 -103 55 -164.5t145 -61.5t145.5 61.5t55.5 162.5v336h59v-337z" />
    <glyph glyph-name="ubreve" unicode="&#x16d;" horiz-adv-x="517" 
d="M263 483q-59 0 -98.5 41t-39.5 102h50q0 -43 25 -70.5t64 -27.5t63.5 27.5t24.5 70.5h49q0 -61 -39.5 -102t-98.5 -41zM388 400h55v-400h-54v69q-55 -81 -161 -81q-73 0 -114 46.5t-41 131.5v234h55v-220q0 -142 113 -142q63 0 105 44t42 112v206z" />
    <glyph glyph-name="Uring" unicode="&#x16e;" horiz-adv-x="687" 
d="M345 673q-47 0 -77.5 29t-30.5 74t30.5 74t77.5 29t77.5 -29t30.5 -74t-30.5 -74t-77.5 -29zM345 713q28 0 45.5 17.5t17.5 45.5t-17.5 45.5t-45.5 17.5t-45.5 -17.5t-17.5 -45.5t17.5 -45.5t45.5 -17.5zM603 258q0 -118 -74 -195t-187 -77q-112 0 -185 78t-73 198v338
h59v-340q0 -96 57 -158t143 -62q87 0 144 62t57 157v341h59v-342z" />
    <glyph glyph-name="uring" unicode="&#x16f;" horiz-adv-x="517" 
d="M264 473q-47 0 -77.5 29t-30.5 74t30.5 74t77.5 29t77.5 -29t30.5 -74t-30.5 -74t-77.5 -29zM264 639q-28 0 -45.5 -17.5t-17.5 -45.5t17.5 -45.5t45.5 -17.5t45.5 17.5t17.5 45.5t-17.5 45.5t-45.5 17.5zM388 400h55v-400h-54v69q-55 -81 -161 -81q-73 0 -114 46.5
t-41 131.5v234h55v-220q0 -142 113 -142q63 0 105 44t42 112v206z" />
    <glyph glyph-name="Uhungarumlaut" unicode="&#x170;" horiz-adv-x="687" 
d="M179 687l-20 43l200 98l22 -47zM387 687l-20 43l200 98l22 -47zM603 263q0 -124 -73 -200.5t-190 -76.5q-115 0 -185.5 77t-70.5 204v333h59v-334q0 -103 55 -164.5t145 -61.5t145.5 61.5t55.5 162.5v336h59v-337z" />
    <glyph glyph-name="uhungarumlaut" unicode="&#x171;" horiz-adv-x="517" 
d="M301 607l-154 -128l-31 37l152 130zM316 479l-31 37l152 130l33 -39zM388 194v206h55v-400h-54v69q-55 -81 -161 -81q-73 0 -114 46.5t-41 131.5v234h55v-220q0 -142 113 -142q63 0 105 44t42 112z" />
    <glyph glyph-name="Uogonek" unicode="&#x172;" horiz-adv-x="687" 
d="M544 600h59v-342q0 -95 -49 -165t-131 -95q-65 -53 -65 -112q0 -31 21.5 -49t61.5 -18v-46h-13q-59 0 -92.5 29t-33.5 75q0 57 47 109h-7q-112 0 -185 78t-73 198v338h59v-340q0 -96 57 -158t143 -62q87 0 144 62t57 157v341z" />
    <glyph glyph-name="uogonek" unicode="&#x173;" horiz-adv-x="517" 
d="M394 -108q0 -31 21.5 -49t61.5 -18v-46h-13q-57 0 -89 29t-32 75q0 61 56 117h-10v69q-55 -81 -161 -81q-73 0 -114 46.5t-41 131.5v234h55v-220q0 -142 113 -142q63 0 105 44t42 112v206h55v-393l19 -1q-68 -53 -68 -114z" />
    <glyph glyph-name="Wcircumflex" unicode="&#x174;" horiz-adv-x="926" 
d="M462 782l-114 -106l-31 32l146 137l145 -137l-37 -32zM812 600h61l-177 -600h-66l-170 521l-168 -521h-67l-173 600h62l149 -525l171 525h57l173 -529z" />
    <glyph glyph-name="wcircumflex" unicode="&#x175;" horiz-adv-x="752" 
d="M373 582l-114 -106l-31 32l146 137l145 -137l-37 -32zM662 400h60l-153 -400h-61l-132 345l-132 -345h-61l-153 400h60l124 -344l130 344h64l130 -344z" />
    <glyph glyph-name="Ycircumflex" unicode="&#x176;" horiz-adv-x="581" 
d="M290 782l-114 -106l-31 32l146 137l145 -137l-37 -32zM486 600h61v-65q-1 -120 -61.5 -193.5t-166.5 -83.5v-258h-59v258q-105 10 -165.5 84t-60.5 194v64h60v-64q1 -103 54 -164t142 -61q90 0 143 60.5t53 163.5v65z" />
    <glyph glyph-name="ycircumflex" unicode="&#x177;" horiz-adv-x="517" 
d="M263 582l-114 -106l-31 32l146 137l145 -137l-37 -32zM443 400l1 -412q0 -104 -53 -161.5t-146 -57.5q-110 0 -170 70l39 36q49 -54 132 -54q67 0 105 43t38 122v83q-55 -81 -161 -81q-73 0 -114 47.5t-41 133.5v231h55v-217q0 -145 113 -145q64 0 106 44t42 112v206h54z
" />
    <glyph glyph-name="Ydieresis" unicode="&#x178;" horiz-adv-x="581" 
d="M189 700q-18 0 -29 11.5t-11 29.5t11 29t29 11t29.5 -11t11.5 -29t-11.5 -29.5t-29.5 -11.5zM389 700q-18 0 -29 11.5t-11 29.5t11 29t29 11t29.5 -11t11.5 -29t-11.5 -29.5t-29.5 -11.5zM486 600h61v-65q-1 -120 -61.5 -193.5t-166.5 -83.5v-258h-59v258
q-105 10 -165.5 84t-60.5 194v64h60v-64q1 -103 54 -164t142 -61q90 0 143 60.5t53 163.5v65z" />
    <glyph glyph-name="Zacute" unicode="&#x179;" horiz-adv-x="595" 
d="M437 781l-202 -94l-20 43l200 98zM155 80q-21 -25 -29 -32q42 3 83 3h337v-51h-490v44l389 472q20 23 33 36q-49 -3 -97 -3h-321v51h486v-47z" />
    <glyph glyph-name="zacute" unicode="&#x17a;" horiz-adv-x="437" 
d="M324 607l-154 -128l-31 37l152 130zM159 95q-29 -32 -50 -51q30 2 90 2h196v-46h-351v41l233 262q25 28 52 53q-30 -2 -91 -2h-191v46h348v-40z" />
    <glyph glyph-name="Zdotaccent" unicode="&#x17b;" horiz-adv-x="595" 
d="M311 716q-19 0 -30 11.5t-11 29.5t11 29t30 11q18 0 29 -11t11 -29t-11 -29.5t-29 -11.5zM155 80q-21 -25 -29 -32q42 3 83 3h337v-51h-490v44l389 472q20 23 33 36q-49 -3 -97 -3h-321v51h486v-47z" />
    <glyph glyph-name="zdotaccent" unicode="&#x17c;" horiz-adv-x="437" 
d="M223 525q-19 0 -30 11.5t-11 28.5t11 28.5t30 11.5q18 0 29 -11.5t11 -28.5t-11 -28.5t-29 -11.5zM159 95q-29 -32 -50 -51q30 2 90 2h196v-46h-351v41l233 262q25 28 52 53q-30 -2 -91 -2h-191v46h348v-40z" />
    <glyph glyph-name="Zcaron" unicode="&#x17d;" horiz-adv-x="595" 
d="M457 810l-146 -137l-145 137l36 32l109 -106l114 106zM155 80q-21 -25 -29 -32q42 3 83 3h337v-51h-490v44l389 472q20 23 33 36q-49 -3 -97 -3h-321v51h486v-47z" />
    <glyph glyph-name="zcaron" unicode="&#x17e;" horiz-adv-x="437" 
d="M369 610l-146 -137l-145 137l36 32l109 -106l114 106zM159 95q-29 -32 -50 -51q30 2 90 2h196v-46h-351v41l233 262q25 28 52 53q-30 -2 -91 -2h-191v46h348v-40z" />
    <glyph glyph-name="longs" unicode="&#x17f;" horiz-adv-x="316" 
d="M101 0v473q0 111 52.5 173t145.5 62h36v-52h-37q-66 0 -104 -44.5t-38 -129.5v-482h-55z" />
    <glyph glyph-name="uni018F" unicode="&#x18f;" horiz-adv-x="710" 
d="M351 614q140 0 225.5 -86.5t85.5 -225.5q0 -141 -88 -228.5t-226 -87.5q-136 0 -218 85t-82 223q0 16 2 24h551q-5 109 -73 175t-178 66q-132 0 -227 -99l-38 39q113 115 266 115zM348 39q104 0 172 62t79 165h-490q8 -103 72 -165t167 -62z" />
    <glyph glyph-name="uni01CD" unicode="&#x1cd;" horiz-adv-x="632" 
d="M462 810l-146 -137l-145 137l36 32l109 -106l114 106zM530 0l-76 192h-276l-75 -192h-64l242 600h68l244 -600h-63zM199 244h235l-118 299z" />
    <glyph glyph-name="uni01CE" unicode="&#x1ce;" horiz-adv-x="520" 
d="M413 610l-146 -137l-145 137l36 32l109 -106l114 106zM392 400h54v-400h-54v73q-53 -85 -158 -85q-84 0 -141.5 60.5t-57.5 151.5t57.5 151.5t141.5 60.5q105 0 158 -85v73zM241 38q64 0 109 45.5t45 116.5t-44.5 116.5t-108.5 45.5t-108 -45t-44 -117t44 -117t107 -45z
" />
    <glyph glyph-name="uni01CF" unicode="&#x1cf;" horiz-adv-x="283" 
d="M287 810l-146 -137l-145 137l36 32l109 -106l114 106zM112 0v600h59v-600h-59z" />
    <glyph glyph-name="uni01D0" unicode="&#x1d0;" horiz-adv-x="238" 
d="M244 610l-125 -137l-124 137l36 32l89 -103l92 103zM91 0v400h55v-400h-55z" />
    <glyph glyph-name="uni01D1" unicode="&#x1d1;" horiz-adv-x="731" 
d="M514 810l-146 -137l-145 137l36 32l109 -106l114 106zM366 614q139 0 228 -88t89 -226t-89 -226t-229 -88q-139 0 -228 88t-89 226t89 226t229 88zM365 40q112 0 184.5 72.5t72.5 187.5t-72 187.5t-185 72.5q-112 0 -184 -73t-72 -187t72 -187t184 -73z" />
    <glyph glyph-name="uni01D2" unicode="&#x1d2;" horiz-adv-x="491" 
d="M394 610l-146 -137l-145 137l36 32l109 -106l114 106zM246 412q92 0 151 -59.5t59 -152.5t-59.5 -152.5t-151.5 -59.5t-151 59.5t-59 152.5t59.5 152.5t151.5 59.5zM246 39q68 0 111.5 45.5t43.5 116.5q0 70 -44 115t-112 45t-111.5 -45t-43.5 -115q0 -71 44 -116.5
t112 -45.5z" />
    <glyph glyph-name="uni01D3" unicode="&#x1d3;" horiz-adv-x="687" 
d="M490 810l-146 -137l-145 137l36 32l109 -106l114 106zM544 600h59v-337q0 -124 -73 -200.5t-190 -76.5q-115 0 -185.5 77t-70.5 204v333h59v-334q0 -103 55 -164.5t145 -61.5t145.5 61.5t55.5 162.5v336z" />
    <glyph glyph-name="uni01D4" unicode="&#x1d4;" horiz-adv-x="517" 
d="M409 610l-146 -137l-145 137l36 32l109 -106l114 106zM388 400h55v-400h-54v69q-55 -81 -161 -81q-73 0 -114 46.5t-41 131.5v234h55v-220q0 -142 113 -142q63 0 105 44t42 112v206z" />
    <glyph glyph-name="uni01D5" unicode="&#x1d5;" horiz-adv-x="687" 
d="M494 867h-300v45h300v-45zM244 697q-18 0 -29.5 11.5t-11.5 29.5t11.5 29t29.5 11t29 -11t11 -29t-11 -29.5t-29 -11.5zM444 697q-18 0 -29.5 11.5t-11.5 29.5t11.5 29t29.5 11t29 -11t11 -29t-11 -29.5t-29 -11.5zM603 258q0 -118 -74 -195t-187 -77q-112 0 -185 78
t-73 198v338h59v-340q0 -96 57 -158t143 -62q87 0 144 62t57 157v341h59v-342z" />
    <glyph glyph-name="uni01D6" unicode="&#x1d6;" horiz-adv-x="517" 
d="M413 712v-45h-300v45h300zM122 538q0 18 11.5 29t29.5 11t29 -11t11 -29t-11 -29.5t-29 -11.5t-29.5 11.5t-11.5 29.5zM322 538q0 18 11.5 29t29.5 11t29 -11t11 -29t-11 -29.5t-29 -11.5t-29.5 11.5t-11.5 29.5zM388 400h55v-400h-54v69q-55 -81 -161 -81
q-73 0 -114 46.5t-41 131.5v234h55v-220q0 -142 113 -142q63 0 105 44t42 112v206z" />
    <glyph glyph-name="uni01D7" unicode="&#x1d7;" horiz-adv-x="687" 
d="M262 830l-20 44l200 97l22 -47zM243 697q-18 0 -29 11.5t-11 29.5t11 29t29 11t29.5 -11t11.5 -29t-11.5 -29.5t-29.5 -11.5zM443 697q-18 0 -29 11.5t-11 29.5t11 29t29 11t29.5 -11t11.5 -29t-11.5 -29.5t-29.5 -11.5zM603 258q0 -118 -74 -195t-187 -77
q-112 0 -185 78t-73 198v338h59v-340q0 -96 57 -158t143 -62q87 0 144 62t57 157v341h59v-342z" />
    <glyph glyph-name="uni01D8" unicode="&#x1d8;" horiz-adv-x="517" 
d="M383 724l-202 -94l-20 44l200 97zM162 497q-18 0 -29 11.5t-11 29.5t11 29t29 11t29.5 -11t11.5 -29t-11.5 -29.5t-29.5 -11.5zM322 538q0 18 11 29t29 11t29.5 -11t11.5 -29t-11.5 -29.5t-29.5 -11.5t-29 11.5t-11 29.5zM388 400h55v-400h-54v69q-55 -81 -161 -81
q-73 0 -114 46.5t-41 131.5v234h55v-220q0 -142 113 -142q63 0 105 44t42 112v206z" />
    <glyph glyph-name="uni01D9" unicode="&#x1d9;" horiz-adv-x="687" 
d="M489 956l-146 -136l-145 136l36 33l109 -107l114 107zM203 738q0 18 11 29t29 11t29.5 -11t11.5 -29t-11.5 -29.5t-29.5 -11.5t-29 11.5t-11 29.5zM403 738q0 18 11 29t29 11t29.5 -11t11.5 -29t-11.5 -29.5t-29.5 -11.5t-29 11.5t-11 29.5zM544 600h59v-342
q0 -118 -74 -195t-187 -77q-112 0 -185 78t-73 198v338h59v-340q0 -96 57 -158t143 -62q87 0 144 62t57 157v341z" />
    <glyph glyph-name="uni01DA" unicode="&#x1da;" horiz-adv-x="517" 
d="M408 756l-146 -136l-145 136l36 33l109 -107l114 107zM122 538q0 18 11 29t29 11t29.5 -11t11.5 -29t-11.5 -29.5t-29.5 -11.5t-29 11.5t-11 29.5zM322 538q0 18 11 29t29 11t29.5 -11t11.5 -29t-11.5 -29.5t-29.5 -11.5t-29 11.5t-11 29.5zM388 400h55v-400h-54v69
q-55 -81 -161 -81q-73 0 -114 46.5t-41 131.5v234h55v-220q0 -142 113 -142q63 0 105 44t42 112v206z" />
    <glyph glyph-name="uni01DB" unicode="&#x1db;" horiz-adv-x="687" 
d="M425 830l-202 94l22 47l200 -97zM244 697q-18 0 -29.5 11.5t-11.5 29.5t11.5 29t29.5 11t29 -11t11 -29t-11 -29.5t-29 -11.5zM444 697q-18 0 -29.5 11.5t-11.5 29.5t11.5 29t29.5 11t29 -11t11 -29t-11 -29.5t-29 -11.5zM603 258q0 -118 -74 -195t-187 -77
q-112 0 -185 78t-73 198v338h59v-340q0 -96 57 -158t143 -62q87 0 144 62t57 157v341h59v-342z" />
    <glyph glyph-name="uni01DC" unicode="&#x1dc;" horiz-adv-x="517" 
d="M364 674l-20 -44l-202 94l22 47zM163 497q-18 0 -29.5 11.5t-11.5 29.5t11.5 29t29.5 11t29 -11t11 -29t-11 -29.5t-29 -11.5zM322 538q0 18 11.5 29t29.5 11t29 -11t11 -29t-11 -29.5t-29 -11.5t-29.5 11.5t-11.5 29.5zM388 400h55v-400h-54v69q-55 -81 -161 -81
q-73 0 -114 46.5t-41 131.5v234h55v-220q0 -142 113 -142q63 0 105 44t42 112v206z" />
    <glyph glyph-name="uni01E2" unicode="&#x1e2;" horiz-adv-x="849" 
d="M655 770v-46h-300v46h300zM539 52h262v-52h-314l-39 192h-260l-104 -192h-65l329 600h443v-52h-364l48 -214h296v-52h-284zM216 244h221l-60 296z" />
    <glyph glyph-name="uni01E3" unicode="&#x1e3;" horiz-adv-x="792" 
d="M547 570v-46h-300v46h300zM750 221q0 -21 -2 -30l-325 -1q4 -67 47.5 -110.5t114.5 -43.5q70 0 123 51l32 -34q-63 -65 -161 -65q-109 0 -160 90v-78h-46v76q-51 -88 -155 -88q-85 0 -142.5 60t-57.5 152t57.5 152t142.5 60q104 0 155 -88v76h46v-79q52 91 159 91
q78 0 125 -51t47 -140zM571 366q-56 0 -96 -35t-49 -95h273q-4 62 -38.5 96t-89.5 34zM224 38q63 0 106 45.5t43 116.5t-43 116.5t-105 45.5q-63 0 -107.5 -45t-44.5 -117t44 -117t107 -45z" />
    <glyph glyph-name="Gcaron" unicode="&#x1e6;" horiz-adv-x="731" 
d="M517 810l-146 -137l-145 137l36 32l109 -106l114 106zM681 327q2 -9 2 -26q0 -139 -82.5 -227t-228.5 -88q-141 0 -232.5 87.5t-91.5 222.5q0 142 91 230.5t236 88.5q139 0 237 -89l-38 -43q-84 78 -198 78q-118 0 -192 -73t-74 -190q0 -113 75 -185.5t191 -72.5
q108 0 175.5 64.5t75.5 170.5h-264v52h318z" />
    <glyph glyph-name="gcaron" unicode="&#x1e7;" horiz-adv-x="520" 
d="M402 610l-146 -137l-145 137l36 32l109 -106l114 106zM391 400h55v-413q0 -103 -56.5 -160.5t-155.5 -57.5q-117 0 -179 65l32 37q58 -52 148 -52q75 0 115.5 44t40.5 124v84q-54 -83 -157 -83q-84 0 -141.5 60.5t-57.5 151.5t57.5 151.5t141.5 60.5q103 0 157 -83v71z
M241 38q64 0 109 45.5t45 116.5t-44.5 116.5t-108.5 45.5q-65 0 -109 -45t-44 -117t44 -117t108 -45z" />
    <glyph glyph-name="uni01E8" unicode="&#x1e8;" horiz-adv-x="635" 
d="M464 810l-146 -137l-145 137l36 32l109 -106l114 106zM364 310q106 -25 162.5 -103t56.5 -207h-60q0 134 -72 208t-195 74h-106v-282h-59v600h59v-266h104q110 0 184.5 76t74.5 190h60q0 -105 -56.5 -182.5t-152.5 -107.5z" />
    <glyph glyph-name="uni01E9" unicode="&#x1e9;" horiz-adv-x="480" 
d="M248 810l-146 -137l-145 137l36 32l109 -106l114 106zM264 210q75 -18 115.5 -71t40.5 -139h-54q0 86 -49 135t-130 49h-59v-184h-55v620h55v-389h39q85 0 142 51.5t57 127.5h54q0 -71 -42 -124.5t-114 -75.5z" />
    <glyph glyph-name="uni01EA" unicode="&#x1ea;" horiz-adv-x="731" 
d="M457 -3q-65 -51 -65 -111q0 -31 21.5 -49t61.5 -18v-46h-13q-59 0 -92.5 29t-33.5 75q0 57 47 109h-18q-139 0 -228 88t-89 226t89 226t229 88q139 0 228 -88t89 -226q0 -113 -61.5 -194.5t-164.5 -108.5zM109 300q0 -114 72 -187t184 -73t184.5 72.5t72.5 187.5
t-72 187.5t-185 72.5q-112 0 -184 -73t-72 -187z" />
    <glyph glyph-name="uni01EB" unicode="&#x1eb;" horiz-adv-x="491" 
d="M322 1q-57 -51 -57 -105q0 -31 21.5 -49t61.5 -18v-46h-13q-57 0 -89 29t-32 75q0 53 42 101h-11q-92 0 -151 59.5t-59 152.5t59.5 152.5t151.5 59.5t151 -59.5t59 -152.5q0 -71 -36.5 -124.5t-97.5 -74.5zM90 201q0 -71 44 -116.5t112 -45.5t111.5 45.5t43.5 116.5
q0 70 -44 115t-112 45t-111.5 -45t-43.5 -115z" />
    <glyph glyph-name="AEacute" unicode="&#x1fc;" horiz-adv-x="849" 
d="M631 781l-202 -94l-20 43l200 98zM539 52h262v-52h-314l-39 192h-260l-104 -192h-65l329 600h443v-52h-364l48 -214h296v-52h-284zM216 244h221l-60 296z" />
    <glyph glyph-name="aeacute" unicode="&#x1fd;" horiz-adv-x="792" 
d="M498 607l-154 -128l-31 37l152 130zM750 221q0 -21 -2 -30l-325 -1q4 -67 47.5 -110.5t114.5 -43.5q70 0 123 51l32 -34q-63 -65 -161 -65q-109 0 -160 90v-78h-46v76q-51 -88 -155 -88q-85 0 -142.5 60t-57.5 152t57.5 152t142.5 60q104 0 155 -88v76h46v-79
q52 91 159 91q78 0 125 -51t47 -140zM571 366q-56 0 -96 -35t-49 -95h273q-4 62 -38.5 96t-89.5 34zM224 38q63 0 106 45.5t43 116.5t-43 116.5t-105 45.5q-63 0 -107.5 -45t-44.5 -117t44 -117t107 -45z" />
    <glyph glyph-name="Oslashacute" unicode="&#x1fe;" horiz-adv-x="731" 
d="M491 781l-202 -94l-20 43l200 98zM611 508q72 -85 72 -208q0 -138 -89 -226t-229 -88q-125 0 -212 73l-72 -71l-36 35l73 72q-70 84 -70 205q0 138 89 226t228 88q125 0 210 -71l70 68l35 -35zM106 301q0 -97 53 -166l377 370q-70 59 -171 59q-113 0 -186 -73.5
t-73 -189.5zM365 37q113 0 186.5 74t73.5 190q0 98 -54 168l-378 -371q70 -61 172 -61z" />
    <glyph glyph-name="oslashacute" unicode="&#x1ff;" horiz-adv-x="491" 
d="M348 607l-154 -128l-31 37l152 130zM463 382l-50 -48q43 -57 43 -134q0 -93 -59.5 -152.5t-151.5 -59.5q-80 0 -138 48l-52 -50l-33 31l54 52q-41 55 -41 131q0 93 59 152.5t151 59.5q80 0 137 -46l49 48zM85 201q0 -54 27 -97l235 228q-42 34 -102 34q-70 0 -115 -46
t-45 -119zM406 201q0 56 -28 98l-236 -228q42 -36 103 -36q71 0 116 46.5t45 119.5z" />
    <glyph glyph-name="Scommaaccent" unicode="&#x218;" horiz-adv-x="596" 
d="M313 -13q-82 0 -153 33.5t-109 93.5l41 31q36 -51 96 -78.5t127 -27.5q76 0 123.5 33t47.5 84q0 23 -11.5 41.5t-26 30t-44 22t-49.5 15.5t-58 14q-45 10 -68.5 16t-59 20t-53.5 29.5t-32 41.5t-14 60q0 78 63 122.5t157 44.5q76 0 142 -31t104 -87l-40 -34
q-31 46 -87.5 73.5t-121.5 27.5q-69 0 -114 -30t-45 -81q0 -23 11 -40.5t25 -28.5t43 -21.5t49 -15.5t58 -14q36 -8 56 -13t51.5 -15t49 -21.5t36.5 -28t27.5 -39.5t8.5 -52q0 -80 -65 -127.5t-165 -47.5zM317 -226l-51 9l33 163l57 -11z" />
    </font>
</defs>
</svg>
