<?xml version="1.0" standalone="no"?>
<!DOCTYPE svg PUBLIC "-//W3C//DTD SVG 1.1//EN" "http://www.w3.org/Graphics/SVG/1.1/DTD/svg11.dtd" >
<svg xmlns="http://www.w3.org/2000/svg" xmlns:xlink="http://www.w3.org/1999/xlink" version="1.1">
<metadata>
Created by FontForge 20170731 at Mon Jun 27 15:25:52 2016
 By Aleksey,,,
Created by Christian Thalmann with Glyphs in 2015-2016.
</metadata>
<defs>
<font id="Quinoa-ThinItalic" horiz-adv-x="687" >
  <font-face 
    font-family="Quinoa-ThinItalic"
    font-weight="400"
    font-style="italic"
    font-stretch="normal"
    units-per-em="1000"
    panose-1="0 0 3 0 0 0 0 0 0 0"
    ascent="754"
    descent="-246"
    x-height="400"
    cap-height="600"
    bbox="-412 -231 1399 951"
    underline-thickness="50"
    underline-position="-150"
    slope="-10"
    unicode-range="U+0020-FB4F"
  />
<missing-glyph horiz-adv-x="460" 
d="M377 700v-920h-291v920h291zM306 638h-151v-30h59v-34h-60v-30h152v30h-60v34h60v30zM246 520h-92v-96h152v31h-60v65zM214 488v-33h-30v33h30zM306 399h-152v-30h60v-34h-60v-31h92v65h60v30zM306 344h-30v-61h-122v-31h152v92zM306 232h-92v-52h32v21h30v-43h-92v74
h-30v-104h152v104zM306 73h-152v-104h152v104zM276 42v-43h-92v43h92zM306 -53h-152v-30h64l-64 -43v-31h152v31h-93l64 43h29v30z" />
    <glyph glyph-name="Iacute_J_acutecomb.liga" unicode="&#xcd;J&#x301;" horiz-adv-x="667" 
d="M543 703l-4 9l217 98l5 -9zM128 694l-4 9l217 98l5 -9zM116 229q-17 -98 38.5 -165.5t152.5 -67.5q96 0 166 64t89 168l66 372h11l-66 -372q-20 -109 -92.5 -175.5t-172.5 -66.5q-103 0 -161.5 70.5t-41.5 172.5l2 12h11zM126 349l44 251h11l-44 -251h-11z" />
    <glyph glyph-name="Q_U.liga" unicode="QU" horiz-adv-x="1427" 
d="M1043 -210q118 0 258 50l5 -9q-137 -51 -262 -51q-162 0 -310 63.5t-227 175.5q-67 -32 -144 -32q-149 0 -229.5 97t-55.5 247q21 123 115 203t217 80q152 0 233 -97t54 -247q-13 -81 -61 -145.5t-119 -100.5q78 -111 224 -172.5t302 -61.5zM89 330q-25 -145 52.5 -239
t221.5 -94q121 0 212 77.5t111 196.5q26 145 -52 239t-224 94q-119 0 -210 -77.5t-111 -196.5zM1388 600h11l-59 -332q-24 -134 -96 -208t-185 -74q-118 0 -174.5 79t-29.5 227l57 308h11l-58 -312q-26 -140 27.5 -216t165.5 -76q109 0 179 71.5t93 201.5z" />
    <glyph glyph-name="Q_u.liga" unicode="Qu" horiz-adv-x="1253" 
d="M1301 -160l5 -9q-137 -51 -262 -51q-162 0 -310 63.5t-227 175.5q-67 -32 -144 -32q-149 0 -229.5 97t-55.5 247q21 123 115 203t217 80q152 0 233 -97t54 -247q-13 -81 -61 -145.5t-119 -100.5q78 -111 224 -172.5t302 -61.5q118 0 258 50zM89 330q-25 -145 52.5 -239
t221.5 -94q121 0 212 77.5t111 196.5q26 145 -52 239t-224 94q-119 0 -210 -77.5t-111 -196.5zM938 -12q-72 0 -104.5 48t-18.5 131l41 233h11l-40 -229q-14 -80 15.5 -126.5t96.5 -46.5q75 0 136.5 56t77.5 136l37 210h11l-70 -400h-11l22 127q-29 -62 -84.5 -100.5
t-119.5 -38.5z" />
    <glyph glyph-name="f_adieresis.liga" unicode="f&#xe4;" horiz-adv-x="826" 
d="M354 390l-1 -10h-178l-67 -380h-11l67 380h-88l1 10h88l19 107q18 100 73.5 155.5t139.5 55.5q82 0 126 -50.5t29 -129.5h-11q14 74 -26 122t-118 48q-79 0 -132 -53t-70 -148l-19 -107h178zM740 534q-17 0 -17 17q0 16 17 16t17 -16q0 -17 -17 -17zM764 400h11l-70 -400
h-11l18 104q-27 -53 -76 -84.5t-108 -31.5q-89 0 -142.5 66.5t-35.5 165.5q16 82 75.5 136.5t143.5 54.5q72 0 117.5 -40.5t53.5 -107.5zM526 -2q77 0 132 51.5t67 131.5q20 96 -24 158t-131 62q-79 0 -136.5 -50.5t-72.5 -131.5q-17 -90 31 -155.5t134 -65.5z" />
    <glyph glyph-name="f_b.liga" unicode="fb" horiz-adv-x="901" 
d="M675 412q89 0 142.5 -66.5t35.5 -165.5q-16 -82 -75.5 -136.5t-143.5 -54.5q-72 0 -117.5 40.5t-53.5 108.5l-24 -138h-11l89 507q16 89 -19.5 140t-111.5 51q-74 0 -123.5 -51t-65.5 -140l-21 -117h178l-1 -10h-178l-67 -380h-11l67 380h-88l1 10h88l21 117
q17 93 70 147t132 54t117.5 -54.5t22.5 -146.5l-37 -212q27 54 76 85.5t108 31.5zM842 181q17 90 -31 155.5t-134 65.5q-77 0 -132 -51.5t-67 -131.5q-20 -96 24 -158t131 -62q79 0 136.5 50.5t72.5 131.5z" />
    <glyph glyph-name="f_f.liga" unicode="ff" horiz-adv-x="652" 
d="M729 708h19l-2 -10h-19q-95 0 -150.5 -56.5t-76.5 -174.5l-14 -77h169l-1 -10h-169l-67 -380h-11l67 380h-301l-67 -380h-11l67 380h-87l2 10h87l15 87q19 109 79 170t143 61q102 0 148 -82q61 82 180 82zM489 467q17 94 54 149q-46 82 -143 82q-80 0 -136 -59.5
t-74 -161.5l-15 -87h300z" />
    <glyph glyph-name="f_f_adieresis.liga" unicode="ff&#xe4;" horiz-adv-x="1141" 
d="M669 390l-1 -10h-178l-67 -380h-11l67 380h-306l-67 -380h-11l67 380h-87l2 10h87l15 87q19 109 79 170t143 61q101 0 149 -83q58 83 162 83q82 0 126 -50.5t29 -129.5h-11q14 74 -26 122t-118 48q-79 0 -132 -53t-70 -148l-19 -107h178zM480 390l19 107q12 70 44 119
q-45 82 -143 82q-80 0 -136 -59.5t-74 -161.5l-15 -87h305zM1055 534q-17 0 -17 17q0 16 17 16t17 -16q0 -17 -17 -17zM1079 400h11l-70 -400h-11l18 104q-27 -53 -76 -84.5t-108 -31.5q-89 0 -142.5 66.5t-35.5 165.5q16 82 75.5 136.5t143.5 54.5q72 0 117.5 -40.5
t53.5 -107.5zM841 -2q77 0 132 51.5t67 131.5q20 96 -24 158t-131 62q-79 0 -136.5 -50.5t-72.5 -131.5q-17 -90 31 -155.5t134 -65.5z" />
    <glyph glyph-name="f_f_b.liga" unicode="ffb" horiz-adv-x="1216" 
d="M990 412q89 0 142.5 -66.5t35.5 -165.5q-16 -82 -75.5 -136.5t-143.5 -54.5q-72 0 -117.5 40.5t-53.5 108.5l-24 -138h-11l89 507q16 89 -19.5 140t-111.5 51q-74 0 -123.5 -51t-65.5 -140l-21 -117h178l-1 -10h-178l-67 -380h-11l67 380h-306l-67 -380h-11l67 380h-87
l2 10h87l15 87q19 109 79 170t143 61q100 0 148 -81q56 81 154 81q79 0 117.5 -54.5t22.5 -146.5l-37 -212q27 54 76 85.5t108 31.5zM501 507q12 63 41 111q-46 80 -142 80q-80 0 -136 -59.5t-74 -161.5l-15 -87h305zM1157 181q17 90 -31 155.5t-134 65.5q-77 0 -132 -51.5
t-67 -131.5q-20 -96 24 -158t131 -62q79 0 136.5 50.5t72.5 131.5z" />
    <glyph glyph-name="f_f_f.liga" unicode="fff" horiz-adv-x="963" 
d="M1040 708h19l-2 -10h-19q-95 0 -150.5 -56.5t-76.5 -174.5l-14 -77h169l-1 -10h-169l-67 -380h-11l67 380h-301l-67 -380h-11l67 380h-300l-67 -380h-11l67 380h-87l2 10h87l15 87q19 109 79 170t143 61q103 0 149 -83q63 83 162 83q102 0 148 -82q61 82 180 82zM475 390
l15 87q15 84 53 138q-20 37 -57 60t-86 23q-80 0 -136 -59.5t-74 -161.5l-15 -87h300zM800 467q17 94 54 149q-46 82 -143 82q-80 0 -136 -59.5t-74 -161.5l-15 -87h300z" />
    <glyph glyph-name="f_f_f_i.liga" unicode="fffi" horiz-adv-x="1207" 
d="M1011 708q79 0 119 -49.5t24 -130.5h-10q14 79 -23 124.5t-112 45.5t-124.5 -50.5t-65.5 -140.5l-21 -117h178l-1 -10h-178l-67 -380h-11l67 380h-306l-67 -380h-11l67 380h-296l-67 -380h-11l67 380h-87l2 10h87l15 87q19 109 79 170t143 61q101 0 147 -80q63 80 160 80
q101 0 147 -80q56 80 156 80zM471 390l15 87q15 85 56 141q-46 80 -142 80q-80 0 -136 -59.5t-74 -161.5l-15 -87h296zM808 507q13 69 41 111q-46 80 -142 80q-80 0 -136 -59.5t-74 -161.5l-15 -87h305zM1050 0l70 400h11l-70 -400h-11z" />
    <glyph glyph-name="f_f_f_j.liga" unicode="fffj" horiz-adv-x="1207" 
d="M1011 708q79 0 119 -49.5t24 -130.5h-10q14 79 -23 124.5t-112 45.5t-124.5 -50.5t-65.5 -140.5l-21 -117h178l-1 -10h-178l-67 -380h-11l67 380h-306l-67 -380h-11l67 380h-296l-67 -380h-11l67 380h-87l2 10h87l15 87q19 109 79 170t143 61q101 0 147 -80q63 80 160 80
q101 0 147 -80q56 80 156 80zM471 390l15 87q15 85 56 141q-46 80 -142 80q-80 0 -136 -59.5t-74 -161.5l-15 -87h296zM808 507q13 69 41 111q-46 80 -142 80q-80 0 -136 -59.5t-74 -161.5l-15 -87h305zM1051 10l69 390h11l-69 -390q-20 -117 -75 -173.5t-149 -56.5h-13
l2 10h13q88 0 140 54t71 166z" />
    <glyph glyph-name="f_f_f_l.liga" unicode="fffl" horiz-adv-x="1192" 
d="M1010 708q79 0 117.5 -54.5t22.5 -146.5l-89 -507h-11l89 507q16 89 -19.5 140t-111.5 51q-74 0 -123.5 -51t-65.5 -140l-21 -117h178l-1 -10h-178l-67 -380h-11l67 380h-306l-67 -380h-11l67 380h-296l-67 -380h-11l67 380h-87l2 10h87l15 87q19 109 79 170t143 61
q101 0 147 -80q63 80 160 80q100 0 148 -81q56 81 154 81zM471 390l15 87q15 85 56 141q-46 80 -142 80q-80 0 -136 -59.5t-74 -161.5l-15 -87h296zM808 507q12 63 41 111q-46 80 -142 80q-80 0 -136 -59.5t-74 -161.5l-15 -87h305z" />
    <glyph glyph-name="f_f_h.liga" unicode="ffh" horiz-adv-x="1209" 
d="M1006 412q72 0 104.5 -48t18.5 -131l-41 -233h-11l40 229q14 80 -15.5 126.5t-96.5 46.5q-76 0 -138 -56.5t-77 -140.5l-36 -205h-11l89 507q16 89 -19.5 140t-111.5 51q-74 0 -123.5 -51t-65.5 -140l-21 -117h178l-1 -10h-178l-67 -380h-11l67 380h-306l-67 -380h-11
l67 380h-87l2 10h87l15 87q19 109 79 170t143 61q100 0 148 -81q56 81 154 81q79 0 117.5 -54.5t22.5 -146.5l-41 -234q30 63 85 101t119 38zM501 507q12 63 41 111q-46 80 -142 80q-80 0 -136 -59.5t-74 -161.5l-15 -87h305z" />
    <glyph glyph-name="f_f_i.liga" unicode="ffi" horiz-adv-x="900" 
d="M704 708q79 0 119 -49.5t24 -130.5h-10q14 79 -23 124.5t-112 45.5t-124.5 -50.5t-65.5 -140.5l-21 -117h178l-1 -10h-178l-67 -380h-11l67 380h-306l-67 -380h-11l67 380h-87l2 10h87l15 87q19 109 79 170t143 61q101 0 147 -80q56 80 156 80zM501 507q13 69 41 111
q-46 80 -142 80q-80 0 -136 -59.5t-74 -161.5l-15 -87h305zM743 0l70 400h11l-70 -400h-11z" />
    <glyph glyph-name="f_f_j.liga" unicode="ffj" horiz-adv-x="900" 
d="M704 708q79 0 119 -49.5t24 -130.5h-10q14 79 -23 124.5t-112 45.5t-124.5 -50.5t-65.5 -140.5l-21 -117h178l-1 -10h-178l-67 -380h-11l67 380h-306l-67 -380h-11l67 380h-87l2 10h87l15 87q19 109 79 170t143 61q101 0 147 -80q56 80 156 80zM501 507q13 69 41 111
q-46 80 -142 80q-80 0 -136 -59.5t-74 -161.5l-15 -87h305zM744 10l69 390h11l-69 -390q-20 -117 -75 -173.5t-149 -56.5h-13l2 10h13q88 0 140 54t71 166z" />
    <glyph glyph-name="f_f_k.liga" unicode="ffk" horiz-adv-x="1171" 
d="M1139 410q-14 -81 -75.5 -136t-153.5 -70q87 -11 129.5 -66t27.5 -138h-11q16 91 -36 144.5t-156 53.5h-75l-35 -198h-11l89 507q16 89 -19.5 140t-111.5 51q-74 0 -123.5 -51t-65.5 -140l-21 -117h178l-1 -10h-178l-67 -380h-11l67 380h-306l-67 -380h-11l67 380h-87
l2 10h87l15 87q19 109 79 170t143 61q100 0 148 -81q56 81 154 81q79 0 117.5 -54.5t22.5 -146.5l-52 -299h54q112 0 189 55t94 147h11zM501 507q12 63 41 111q-46 80 -142 80q-80 0 -136 -59.5t-74 -161.5l-15 -87h305z" />
    <glyph glyph-name="f_f_l.liga" unicode="ffl" horiz-adv-x="885" 
d="M703 708q79 0 117.5 -54.5t22.5 -146.5l-89 -507h-11l89 507q16 89 -19.5 140t-111.5 51q-74 0 -123.5 -51t-65.5 -140l-21 -117h178l-1 -10h-178l-67 -380h-11l67 380h-306l-67 -380h-11l67 380h-87l2 10h87l15 87q19 109 79 170t143 61q100 0 148 -81q56 81 154 81z
M501 507q12 63 41 111q-46 80 -142 80q-80 0 -136 -59.5t-74 -161.5l-15 -87h305z" />
    <glyph glyph-name="f_f_odieresis.liga" unicode="ff&#xf6;" horiz-adv-x="1115" 
d="M669 390l-1 -10h-178l-67 -380h-11l67 380h-306l-67 -380h-11l67 380h-87l2 10h87l15 87q19 109 79 170t143 61q101 0 149 -83q58 83 162 83q82 0 126 -50.5t29 -129.5h-11q14 74 -26 122t-118 48q-79 0 -132 -53t-70 -148l-19 -107h178zM480 390l19 107q12 70 44 119
q-45 82 -143 82q-80 0 -136 -59.5t-74 -161.5l-15 -87h305zM1055 534q-17 0 -17 17q0 16 17 16t17 -16q0 -17 -17 -17zM883 411q95 0 148.5 -66t35.5 -166q-16 -87 -77 -139t-143 -52q-94 0 -148 66.5t-36 165.5q15 82 75 136.5t145 54.5zM1056 180q18 96 -32.5 158.5
t-140.5 62.5q-79 0 -136.5 -50.5t-72.5 -131.5q-17 -92 32.5 -156.5t140.5 -64.5q78 0 135.5 49.5t73.5 132.5z" />
    <glyph glyph-name="f_f_ohungarumlaut.liga" unicode="ff&#x151;" horiz-adv-x="1125" 
d="M500 477l-15 -87h168l-1 -10h-169l-67 -380h-11l67 380h-299l-67 -380h-11l67 380h-87l2 10h87l15 87q19 109 79 170t143 61q101 0 147 -81q62 81 172 81q58 0 99 -33l-8 -8q-39 31 -92 31q-89 0 -144.5 -56t-74.5 -165zM474 390l15 87q15 86 53 141q-46 80 -142 80
q-80 0 -136 -59.5t-74 -161.5l-15 -87h299zM823 494l-6 7l175 130l6 -8zM963 494l-6 7l175 130l6 -8zM893 411q95 0 148.5 -66t35.5 -166q-16 -87 -77 -139t-143 -52q-94 0 -148 66.5t-36 165.5q15 82 75 136.5t145 54.5zM1066 180q18 96 -32.5 158.5t-140.5 62.5
q-79 0 -136.5 -50.5t-72.5 -131.5q-17 -92 32.5 -156.5t140.5 -64.5q78 0 135.5 49.5t73.5 132.5z" />
    <glyph glyph-name="f_f_thorn.liga" unicode="ff&#xfe;" horiz-adv-x="1206" 
d="M990 412q89 0 142.5 -66.5t35.5 -165.5q-16 -82 -75.5 -136.5t-143.5 -54.5q-73 0 -118 41t-53 109l-64 -359h-11l129 727q16 89 -19.5 140t-111.5 51q-74 0 -123.5 -51t-65.5 -140l-21 -117h178l-1 -10h-178l-67 -380h-11l67 380h-306l-67 -380h-11l67 380h-87l2 10h87
l15 87q19 109 79 170t143 61q100 0 148 -81q56 81 154 81q79 0 117.5 -54.5t22.5 -146.5l-37 -212q27 54 76 85.5t108 31.5zM501 507q12 63 41 111q-46 80 -142 80q-80 0 -136 -59.5t-74 -161.5l-15 -87h305zM1157 181q17 90 -31 155.5t-134 65.5q-77 0 -132 -51.5
t-67 -131.5q-20 -96 24 -158t131 -62q79 0 136.5 50.5t72.5 131.5z" />
    <glyph glyph-name="f_f_t.liga" unicode="fft" horiz-adv-x="995" 
d="M759 380l-42 -240q-12 -69 13.5 -105.5t85.5 -36.5q69 0 118 53l8 -5q-51 -58 -128 -58q-63 0 -92 40t-16 112l42 240h-268l-67 -380h-11l67 380h-296l-67 -380h-11l67 380h-87l2 10h87l15 87q19 109 79 170t143 61q100 0 148 -81q64 81 164 81q83 0 129 -59l-8 -7
q-46 56 -121 56q-82 0 -140 -59t-76 -162l-15 -87h268l16 90h11l-16 -90h212l-1 -10h-213zM471 390l15 87q15 85 56 141q-46 80 -142 80q-80 0 -136 -59.5t-74 -161.5l-15 -87h296z" />
    <glyph glyph-name="f_f_udieresis.liga" unicode="ff&#xfc;" horiz-adv-x="1169" 
d="M712 698q-79 0 -132 -53t-70 -148l-19 -107h178l-1 -10h-178l-67 -380h-11l67 380h-306l-67 -380h-11l67 380h-87l2 10h87l15 87q19 109 79 170t143 61q101 0 149 -83q58 83 162 83q82 0 126 -50.5t29 -129.5h-11q14 74 -26 122t-118 48zM480 390l19 107q12 70 44 119
q-45 82 -143 82q-80 0 -136 -59.5t-74 -161.5l-15 -87h305zM1055 534q-17 0 -17 17q0 16 17 16t17 -16q0 -17 -17 -17zM1106 400h11l-70 -400h-11l22 128q-30 -62 -85.5 -101t-118.5 -39q-72 0 -104.5 48t-18.5 131l41 233h11l-40 -229q-14 -80 15.5 -126.5t96.5 -46.5
q75 0 136.5 56t77.5 136z" />
    <glyph glyph-name="f_f_uhungarumlaut.liga" unicode="ff&#x171;" horiz-adv-x="1153" 
d="M500 477l-15 -87h168l-1 -10h-169l-67 -380h-11l67 380h-299l-67 -380h-11l67 380h-87l2 10h87l15 87q19 109 79 170t143 61q101 0 147 -81q62 81 172 81q58 0 99 -33l-8 -8q-39 31 -92 31q-89 0 -144.5 -56t-74.5 -165zM474 390l15 87q15 86 53 141q-46 80 -142 80
q-80 0 -136 -59.5t-74 -161.5l-15 -87h299zM1017 623l-175 -129l-6 7l175 130zM982 494l-6 7l175 130l6 -8zM1053 190l37 210h11l-70 -400h-11l22 127q-29 -62 -84.5 -100.5t-119.5 -38.5q-72 0 -104.5 48t-18.5 131l41 233h11l-40 -229q-14 -80 15.5 -126.5t96.5 -46.5
q75 0 136.5 56t77.5 136z" />
    <glyph glyph-name="f_h.liga" unicode="fh" horiz-adv-x="894" 
d="M691 412q72 0 104.5 -48t18.5 -131l-41 -233h-11l40 229q14 80 -15.5 126.5t-96.5 46.5q-76 0 -138 -56.5t-77 -140.5l-36 -205h-11l89 507q16 89 -19.5 140t-111.5 51q-74 0 -123.5 -51t-65.5 -140l-21 -117h178l-1 -10h-178l-67 -380h-11l67 380h-88l1 10h88l21 117
q17 93 70 147t132 54t117.5 -54.5t22.5 -146.5l-41 -234q30 63 85 101t119 38z" />
    <glyph glyph-name="f_i.liga" unicode="fi" horiz-adv-x="585" 
d="M97 0l67 380h-88l1 10h88l21 117q17 94 70 147.5t133 53.5q79 0 119 -49.5t24 -130.5h-10q14 79 -23 124.5t-112 45.5t-124.5 -50.5t-65.5 -140.5l-21 -117h178l-1 -10h-178l-67 -380h-11zM428 0l70 400h11l-70 -400h-11z" />
    <glyph glyph-name="f_j.liga" unicode="fj" horiz-adv-x="585" 
d="M97 0l67 380h-88l1 10h88l21 117q17 94 70 147.5t133 53.5q79 0 119 -49.5t24 -130.5h-10q14 79 -23 124.5t-112 45.5t-124.5 -50.5t-65.5 -140.5l-21 -117h178l-1 -10h-178l-67 -380h-11zM203 -220l2 10h13q88 0 140 54t71 166l69 390h11l-69 -390q-20 -117 -75 -173.5
t-149 -56.5h-13z" />
    <glyph glyph-name="f_k.liga" unicode="fk" horiz-adv-x="856" 
d="M824 410q-14 -81 -75.5 -136t-153.5 -70q87 -11 129.5 -66t27.5 -138h-11q16 91 -36 144.5t-156 53.5h-75l-35 -198h-11l89 507q16 89 -19.5 140t-111.5 51q-74 0 -123.5 -51t-65.5 -140l-21 -117h178l-1 -10h-178l-67 -380h-11l67 380h-88l1 10h88l21 117q17 93 70 147
t132 54t117.5 -54.5t22.5 -146.5l-52 -299h54q112 0 189 55t94 147h11z" />
    <glyph glyph-name="f_l.liga" unicode="fl" horiz-adv-x="570" 
d="M97 0l67 380h-88l1 10h88l21 117q17 93 70 147t132 54t117.5 -54.5t22.5 -146.5l-89 -507h-11l89 507q16 89 -19.5 140t-111.5 51q-74 0 -123.5 -51t-65.5 -140l-21 -117h178l-1 -10h-178l-67 -380h-11z" />
    <glyph glyph-name="f_odieresis.liga" unicode="f&#xf6;" horiz-adv-x="800" 
d="M97 0l67 380h-88l1 10h88l19 107q18 100 73.5 155.5t139.5 55.5q82 0 126 -50.5t29 -129.5h-11q14 74 -26 122t-118 48q-79 0 -132 -53t-70 -148l-19 -107h178l-1 -10h-178l-67 -380h-11zM740 534q-17 0 -17 17q0 16 17 16t17 -16q0 -17 -17 -17zM532 -12
q-94 0 -148 66.5t-36 165.5q15 82 75 136.5t145 54.5q95 0 148.5 -66t35.5 -166q-16 -87 -77 -139t-143 -52zM532 -2q78 0 135.5 49.5t73.5 132.5q18 96 -32.5 158.5t-140.5 62.5q-79 0 -136.5 -50.5t-72.5 -131.5q-17 -92 32.5 -156.5t140.5 -64.5z" />
    <glyph glyph-name="f_ohungarumlaut.liga" unicode="f&#x151;" horiz-adv-x="816" 
d="M191 477l-15 -87h168l-1 -10h-169l-67 -380h-11l67 380h-87l1 10h88l15 87q19 113 78 172t153 59q58 0 99 -33l-8 -8q-39 31 -92 31q-89 0 -144.5 -56t-74.5 -165zM514 494l-6 7l175 130l6 -8zM654 494l-6 7l175 130l6 -8zM584 411q95 0 148.5 -66t35.5 -166
q-16 -87 -77 -139t-143 -52q-94 0 -148 66.5t-36 165.5q15 82 75 136.5t145 54.5zM757 180q18 96 -32.5 158.5t-140.5 62.5q-79 0 -136.5 -50.5t-72.5 -131.5q-17 -92 32.5 -156.5t140.5 -64.5q78 0 135.5 49.5t73.5 132.5z" />
    <glyph glyph-name="f_thorn.liga" unicode="f&#xfe;" horiz-adv-x="891" 
d="M675 412q89 0 142.5 -66.5t35.5 -165.5q-16 -82 -75.5 -136.5t-143.5 -54.5q-73 0 -118 41t-53 109l-64 -359h-11l129 727q16 89 -19.5 140t-111.5 51q-74 0 -123.5 -51t-65.5 -140l-21 -117h178l-1 -10h-178l-67 -380h-11l67 380h-88l1 10h88l21 117q17 93 70 147
t132 54t117.5 -54.5t22.5 -146.5l-37 -212q27 54 76 85.5t108 31.5zM842 181q17 90 -31 155.5t-134 65.5q-77 0 -132 -51.5t-67 -131.5q-20 -96 24 -158t131 -62q79 0 136.5 50.5t72.5 131.5z" />
    <glyph glyph-name="f_t.liga" unicode="ft" horiz-adv-x="690" 
d="M454 380l-42 -240q-12 -69 13.5 -105.5t85.5 -36.5q69 0 118 53l8 -5q-51 -58 -128 -58q-63 0 -92 40t-16 112l42 240h-268l-67 -380h-11l67 380h-88l1 10h89l15 87q19 108 80 169.5t147 61.5q83 0 129 -59l-8 -7q-45 56 -121 56q-82 0 -140 -59t-76 -162l-15 -87h268
l16 90h11l-16 -90h212l-1 -10h-213z" />
    <glyph glyph-name="f_udieresis.liga" unicode="f&#xfc;" horiz-adv-x="854" 
d="M397 698q-79 0 -132 -53t-70 -148l-19 -107h178l-1 -10h-178l-67 -380h-11l67 380h-88l1 10h88l19 107q18 100 73.5 155.5t139.5 55.5q82 0 126 -50.5t29 -129.5h-11q14 74 -26 122t-118 48zM740 534q-17 0 -17 17q0 16 17 16t17 -16q0 -17 -17 -17zM791 400h11l-70 -400
h-11l22 128q-30 -62 -85.5 -101t-118.5 -39q-72 0 -104.5 48t-18.5 131l41 233h11l-40 -229q-14 -80 15.5 -126.5t96.5 -46.5q75 0 136.5 56t77.5 136z" />
    <glyph glyph-name="f_uhungarumlaut.liga" unicode="f&#x171;" horiz-adv-x="844" 
d="M191 477l-15 -87h168l-1 -10h-169l-67 -380h-11l67 380h-87l1 10h88l15 87q19 113 78 172t153 59q58 0 99 -33l-8 -8q-39 31 -92 31q-89 0 -144.5 -56t-74.5 -165zM708 623l-175 -129l-6 7l175 130zM673 494l-6 7l175 130l6 -8zM744 190l37 210h11l-70 -400h-11l22 127
q-29 -62 -84.5 -100.5t-119.5 -38.5q-72 0 -104.5 48t-18.5 131l41 233h11l-40 -229q-14 -80 15.5 -126.5t96.5 -46.5q75 0 136.5 56t77.5 136z" />
    <glyph glyph-name="uni00ED02370301.liga" unicode="&#xed;&#x237;&#x301;" horiz-adv-x="518" 
d="M286 623l-175 -129l-6 7l175 130zM571 623l-175 -129l-6 7l175 130zM414 166l41 234h11l-73 -418q-18 -101 -70.5 -157t-136.5 -56q-95 0 -141 57l8 7q46 -54 134 -54q78 0 128 52.5t67 150.5l24 135q-29 -60 -83 -94.5t-121 -34.5q-153 0 -120 189l39 223h11l-38 -219
q-32 -183 108 -183q76 0 134 46t78 122z" />
    <glyph glyph-name="longs_t.liga" unicode="&#x17f;t" horiz-adv-x="705" 
d="M470 380l-43 -240q-12 -69 13.5 -105.5t85.5 -36.5q69 0 118 53l8 -5q-51 -58 -128 -58q-63 0 -92 40t-16 112l43 240h-98l1 10h98l21 117q17 95 -15.5 143t-104.5 48q-147 0 -180 -191l-89 -507h-11l89 507q17 97 66 149t126 52t112.5 -51.5t17.5 -149.5l-21 -117h211
l-1 -10h-211z" />
    <glyph glyph-name="longs_adieresis.liga" unicode="&#x17f;&#xe4;" horiz-adv-x="796" 
d="M485 528q16 80 -18 125t-102 45q-75 0 -122 -55t-64 -146l-87 -497h-11l87 497q18 97 69 154t129 57q73 0 110 -48.5t20 -131.5h-11zM680 534q-17 0 -17 17q0 16 17 16t17 -16q0 -17 -17 -17zM734 400h11l-70 -400h-11l18 104q-27 -53 -76 -84.5t-108 -31.5
q-89 0 -142.5 66.5t-35.5 165.5q16 82 75.5 136.5t143.5 54.5q72 0 117.5 -40.5t53.5 -107.5zM496 -2q77 0 132 51.5t67 131.5q20 96 -24 158t-131 62q-79 0 -136.5 -50.5t-72.5 -131.5q-17 -90 31 -155.5t134 -65.5z" />
    <glyph glyph-name="longs_b.liga" unicode="&#x17f;b" horiz-adv-x="865" 
d="M639 412q89 0 142.5 -66.5t35.5 -165.5q-16 -82 -75.5 -136.5t-143.5 -54.5q-72 0 -117.5 40.5t-53.5 108.5l-24 -138h-11l90 512q15 86 -18.5 136t-103.5 50t-116.5 -51t-62.5 -140l-89 -507h-11l89 507q17 95 67.5 148t123.5 53q75 0 111.5 -54t20.5 -142l-38 -217
q27 54 76 85.5t108 31.5zM806 181q17 90 -31 155.5t-134 65.5q-77 0 -132 -51.5t-67 -131.5q-20 -96 24 -158t131 -62q79 0 136.5 50.5t72.5 131.5z" />
    <glyph glyph-name="longs_h.liga" unicode="&#x17f;h" horiz-adv-x="858" 
d="M657 412q153 0 119 -189l-39 -223h-11l38 219q33 183 -107 183q-81 0 -141.5 -54t-75.5 -138l-37 -210h-11l89 507q17 93 -14 142t-101 49q-71 0 -119.5 -48.5t-65.5 -142.5l-89 -507h-11l89 507q18 98 70 149.5t127 51.5q76 0 109.5 -51.5t15.5 -149.5l-40 -228
q29 61 83.5 97t121.5 36z" />
    <glyph glyph-name="longs_i.liga" unicode="&#x17f;i" horiz-adv-x="549" 
d="M81 0l89 507q17 96 67.5 148.5t125.5 52.5q73 0 110.5 -49t22.5 -131h-10q13 79 -21.5 124.5t-103.5 45.5q-72 0 -118 -50.5t-62 -140.5l-89 -507h-11zM392 0l70 400h11l-70 -400h-11z" />
    <glyph glyph-name="longs_j.liga" unicode="&#x17f;j" horiz-adv-x="550" 
d="M81 0l89 507q17 96 67.5 148.5t125.5 52.5q73 0 110.5 -49t22.5 -131h-10q13 79 -21.5 124.5t-103.5 45.5q-72 0 -118 -50.5t-62 -140.5l-89 -507h-11zM168 -220l2 10h13q88 0 140 54t71 166l69 390h11l-69 -390q-20 -117 -75 -173.5t-149 -56.5h-13z" />
    <glyph glyph-name="longs_k.liga" unicode="&#x17f;k" horiz-adv-x="821" 
d="M789 410q-14 -81 -75.5 -136t-153.5 -70q87 -11 129.5 -66t27.5 -138h-11q16 91 -36 144.5t-156 53.5h-76l-35 -198h-11l89 507q17 93 -14 142t-101 49q-71 0 -119.5 -48.5t-65.5 -142.5l-89 -507h-11l89 507q18 98 70 149.5t127 51.5q76 0 109.5 -51.5t15.5 -149.5
l-52 -299h55q112 0 189 55t94 147h11z" />
    <glyph glyph-name="longs_l.liga" unicode="&#x17f;l" horiz-adv-x="554" 
d="M524 690l-121 -690h-11l121 690h-79q-113 0 -176.5 -54t-82.5 -166l-83 -470h-11l83 470q20 117 87 173.5t185 56.5h82q9 0 6 -10z" />
    <glyph glyph-name="longs_odieresis.liga" unicode="&#x17f;&#xf6;" horiz-adv-x="770" 
d="M81 0l87 497q18 103 68.5 157t129.5 54q73 0 110 -48.5t20 -131.5h-11q16 80 -18 125t-102 45q-151 0 -186 -201l-87 -497h-11zM680 534q-17 0 -17 17q0 16 17 16t17 -16q0 -17 -17 -17zM502 -12q-94 0 -148 66.5t-36 165.5q15 82 75 136.5t145 54.5q95 0 148.5 -66
t35.5 -166q-16 -87 -77 -139t-143 -52zM502 -2q78 0 135.5 49.5t73.5 132.5q18 96 -32.5 158.5t-140.5 62.5q-79 0 -136.5 -50.5t-72.5 -131.5q-17 -92 32.5 -156.5t140.5 -64.5z" />
    <glyph glyph-name="longs_thorn.liga" unicode="&#x17f;&#xfe;" horiz-adv-x="855" 
d="M639 412q89 0 142.5 -66.5t35.5 -165.5q-16 -82 -75.5 -136.5t-143.5 -54.5q-72 0 -117.5 40.5t-53.5 108.5l-63 -358h-11l129 732q15 86 -18.5 136t-103.5 50t-116.5 -51t-62.5 -140l-89 -507h-11l89 507q17 95 67.5 148t123.5 53q75 0 111.5 -54t20.5 -142l-38 -217
q27 54 76 85.5t108 31.5zM806 181q17 90 -31 155.5t-134 65.5q-77 0 -132 -51.5t-67 -131.5q-20 -96 24 -158t131 -62q79 0 136.5 50.5t72.5 131.5z" />
    <glyph glyph-name="longs_longs.liga" unicode="&#x17f;&#x17f;" horiz-adv-x="606" 
d="M680 708h33l-2 -10h-33q-89 0 -141 -54t-71 -166l-84 -478h-11l84 478q15 91 52 144q-40 76 -132 76q-79 0 -129.5 -56t-69.5 -165l-84 -477h-11l84 477q19 111 72.5 171t137.5 60q97 0 138 -77q56 77 167 77z" />
    <glyph glyph-name="longs_longs_adieresis.liga" unicode="&#x17f;&#x17f;&#xe4;" horiz-adv-x="1086" 
d="M775 528q16 80 -18 125t-102 45q-75 0 -122 -55t-64 -146l-87 -497h-11l87 497q14 75 48 127q-39 74 -131 74q-79 0 -129.5 -56t-69.5 -165l-84 -477h-11l84 477q19 111 72.5 171t137.5 60q96 0 137 -75q56 75 144 75q73 0 110 -48.5t20 -131.5h-11zM970 534
q-17 0 -17 17q0 16 17 16t17 -16q0 -17 -17 -17zM1024 400h11l-70 -400h-11l18 104q-27 -53 -76 -84.5t-108 -31.5q-89 0 -142.5 66.5t-35.5 165.5q16 82 75.5 136.5t143.5 54.5q72 0 117.5 -40.5t53.5 -107.5zM786 -2q77 0 132 51.5t67 131.5q20 96 -24 158t-131 62
q-79 0 -136.5 -50.5t-72.5 -131.5q-17 -90 31 -155.5t134 -65.5z" />
    <glyph glyph-name="longs_longs_b.liga" unicode="&#x17f;&#x17f;b" horiz-adv-x="1157" 
d="M931 412q89 0 142.5 -66.5t35.5 -165.5q-16 -82 -75.5 -136.5t-143.5 -54.5q-72 0 -117.5 40.5t-53.5 108.5l-24 -138h-11l90 512q15 86 -18.5 136t-103.5 50t-116.5 -51t-62.5 -140l-89 -507h-11l89 507q12 69 43 117q-38 74 -130 74q-79 0 -129.5 -56t-69.5 -165
l-84 -477h-11l84 477q19 111 72.5 171t137.5 60q96 0 137 -75q52 75 141 75q75 0 111.5 -54t20.5 -142l-38 -217q27 54 76 85.5t108 31.5zM1098 181q17 90 -31 155.5t-134 65.5q-77 0 -132 -51.5t-67 -131.5q-20 -96 24 -158t131 -62q79 0 136.5 50.5t72.5 131.5z" />
    <glyph glyph-name="longs_longs_h.liga" unicode="&#x17f;&#x17f;h" horiz-adv-x="1151" 
d="M950 412q153 0 119 -189l-39 -223h-11l38 219q33 183 -107 183q-81 0 -141.5 -54t-75.5 -138l-37 -210h-11l89 507q17 93 -14 142t-101 49q-71 0 -119.5 -48.5t-65.5 -142.5l-89 -507h-11l89 507q11 67 43 116q-38 75 -131 75q-79 0 -129.5 -56t-69.5 -165l-84 -477h-11
l84 477q19 111 72.5 171t137.5 60q98 0 137 -76q55 76 148 76q76 0 109.5 -51.5t15.5 -149.5l-40 -228q29 61 83.5 97t121.5 36z" />
    <glyph glyph-name="longs_longs_i.liga" unicode="&#x17f;&#x17f;i" horiz-adv-x="842" 
d="M656 708q73 0 110.5 -49t22.5 -131h-10q13 79 -21.5 124.5t-103.5 45.5q-72 0 -118 -50.5t-62 -140.5l-89 -507h-11l89 507q12 68 43 117q-39 74 -131 74q-79 0 -129.5 -56t-69.5 -165l-84 -477h-11l84 477q19 111 72.5 171t137.5 60q96 0 137 -75q54 75 144 75zM685 0
l70 400h11l-70 -400h-11z" />
    <glyph glyph-name="longs_longs_j.liga" unicode="&#x17f;&#x17f;j" horiz-adv-x="843" 
d="M656 708q73 0 110.5 -49t22.5 -131h-10q13 79 -21.5 124.5t-103.5 45.5q-72 0 -118 -50.5t-62 -140.5l-89 -507h-11l89 507q12 68 43 117q-39 74 -131 74q-79 0 -129.5 -56t-69.5 -165l-84 -477h-11l84 477q19 111 72.5 171t137.5 60q96 0 137 -75q54 75 144 75zM687 10
l69 390h11l-69 -390q-20 -117 -75 -173.5t-149 -56.5h-13l2 10h13q88 0 140 54t71 166z" />
    <glyph glyph-name="longs_longs_k.liga" unicode="&#x17f;&#x17f;k" horiz-adv-x="1121" 
d="M1079 410q-14 -81 -75.5 -136t-153.5 -70q87 -11 129.5 -66t27.5 -138h-11q16 91 -36 144.5t-156 53.5h-76l-35 -198h-11l89 507q17 93 -14 142t-101 49q-71 0 -119.5 -48.5t-65.5 -142.5l-89 -507h-11l89 507q14 73 45 119q-39 72 -130 72q-79 0 -129.5 -56t-69.5 -165
l-84 -477h-11l84 477q19 111 72.5 171t137.5 60q95 0 136 -73q55 73 146 73q76 0 109.5 -51.5t15.5 -149.5l-52 -299h55q112 0 189 55t94 147h11z" />
    <glyph glyph-name="longs_longs_l.liga" unicode="&#x17f;&#x17f;l" horiz-adv-x="834" 
d="M798 700q9 0 6 -10l-121 -690h-11l121 690h-79q-113 0 -176.5 -54t-82.5 -166l-83 -470h-11l83 470q16 94 63 150q-38 78 -132 78q-79 0 -129.5 -56t-69.5 -165l-84 -477h-11l84 477q19 111 72.5 171t137.5 60q98 0 140 -80q67 72 201 72h82z" />
    <glyph glyph-name="longs_longs_odieresis.liga" unicode="&#x17f;&#x17f;&#xf6;" horiz-adv-x="1061" 
d="M776 528q16 80 -18 125t-102 45q-151 0 -186 -201l-87 -497h-11l87 497q13 77 46 128q-40 73 -130 73q-79 0 -129.5 -56t-69.5 -165l-84 -477h-11l84 477q19 111 72.5 171t137.5 60q95 0 136 -74q54 74 146 74q73 0 110 -48.5t20 -131.5h-11zM971 534q-17 0 -17 17
q0 16 17 16t17 -16q0 -17 -17 -17zM829 411q95 0 148.5 -66t35.5 -166q-16 -87 -77 -139t-143 -52q-94 0 -148 66.5t-36 165.5q15 82 75 136.5t145 54.5zM1002 180q18 96 -32.5 158.5t-140.5 62.5q-79 0 -136.5 -50.5t-72.5 -131.5q-17 -92 32.5 -156.5t140.5 -64.5
q78 0 135.5 49.5t73.5 132.5z" />
    <glyph glyph-name="longs_longs_thorn.liga" unicode="&#x17f;&#x17f;&#xfe;" horiz-adv-x="1150" 
d="M934 412q89 0 142.5 -66.5t35.5 -165.5q-16 -82 -75.5 -136.5t-143.5 -54.5q-72 0 -117.5 40.5t-53.5 108.5l-63 -358h-11l129 732q15 86 -18.5 136t-103.5 50t-116.5 -51t-62.5 -140l-89 -507h-11l89 507q12 70 42 114q-38 77 -132 77q-79 0 -129.5 -56t-69.5 -165
l-84 -477h-11l84 477q19 111 72.5 171t137.5 60q97 0 138 -77q54 77 143 77q75 0 111.5 -54t20.5 -142l-38 -217q27 54 76 85.5t108 31.5zM1101 181q17 90 -31 155.5t-134 65.5q-77 0 -132 -51.5t-67 -131.5q-20 -96 24 -158t131 -62q79 0 136.5 50.5t72.5 131.5z" />
    <glyph glyph-name="longs_longs_longs.liga" unicode="&#x17f;&#x17f;&#x17f;" horiz-adv-x="891" 
d="M965 708h33l-2 -10h-33q-89 0 -141 -54t-71 -166l-84 -478h-11l84 478q15 91 52 144q-40 76 -132 76q-79 0 -129.5 -56t-69.5 -165l-84 -477h-11l84 477q15 90 55 149q-39 72 -130 72q-79 0 -129.5 -56t-69.5 -165l-84 -477h-11l84 477q19 111 72.5 171t137.5 60
q96 0 136 -74q55 74 149 74q97 0 138 -77q56 77 167 77z" />
    <glyph glyph-name="longs_longs_longs_h.liga" unicode="&#x17f;&#x17f;&#x17f;h" horiz-adv-x="1447" 
d="M1240 412q153 0 119 -189l-39 -223h-11l38 219q33 183 -107 183q-81 0 -141.5 -54t-75.5 -138l-37 -210h-11l89 507q17 93 -14 142t-101 49q-71 0 -119.5 -48.5t-65.5 -142.5l-89 -507h-11l89 507q11 67 43 116q-38 75 -131 75q-79 0 -129.5 -56t-69.5 -165l-84 -477h-11
l84 477q16 90 52 144q-38 77 -132 77q-79 0 -129.5 -56t-69.5 -165l-84 -477h-11l84 477q19 111 72.5 171t137.5 60q99 0 138 -77q57 77 152 77q98 0 137 -76q55 76 148 76q76 0 109.5 -51.5t15.5 -149.5l-40 -228q29 61 83.5 97t121.5 36z" />
    <glyph glyph-name="longs_longs_longs_i.liga" unicode="&#x17f;&#x17f;&#x17f;i" horiz-adv-x="1134" 
d="M948 708q73 0 110.5 -49t22.5 -131h-10q13 79 -21.5 124.5t-103.5 45.5q-72 0 -118 -50.5t-62 -140.5l-89 -507h-11l89 507q12 68 42 115q-40 76 -132 76q-79 0 -129.5 -56t-69.5 -165l-84 -477h-11l84 477q16 90 52 144q-38 77 -132 77q-79 0 -129.5 -56t-69.5 -165
l-84 -477h-11l84 477q19 111 72.5 171t137.5 60q99 0 138 -77q57 77 152 77q97 0 138 -77q54 77 145 77zM977 0l70 400h11l-70 -400h-11z" />
    <glyph glyph-name="longs_longs_longs_j.liga" unicode="&#x17f;&#x17f;&#x17f;j" horiz-adv-x="1135" 
d="M948 708q73 0 110.5 -49t22.5 -131h-10q13 79 -21.5 124.5t-103.5 45.5q-72 0 -118 -50.5t-62 -140.5l-89 -507h-11l89 507q12 68 42 115q-40 76 -132 76q-79 0 -129.5 -56t-69.5 -165l-84 -477h-11l84 477q16 90 52 144q-38 77 -132 77q-79 0 -129.5 -56t-69.5 -165
l-84 -477h-11l84 477q19 111 72.5 171t137.5 60q99 0 138 -77q57 77 152 77q97 0 138 -77q54 77 145 77zM979 10l69 390h11l-69 -390q-20 -117 -75 -173.5t-149 -56.5h-13l2 10h13q88 0 140 54t71 166z" />
    <glyph glyph-name="longs_longs_longs_k.liga" unicode="&#x17f;&#x17f;&#x17f;k" horiz-adv-x="1406" 
d="M1374 410q-14 -81 -75.5 -136t-153.5 -70q87 -11 129.5 -66t27.5 -138h-11q16 91 -36 144.5t-156 53.5h-76l-35 -198h-11l89 507q17 93 -14 142t-101 49q-71 0 -119.5 -48.5t-65.5 -142.5l-89 -507h-11l89 507q11 66 42 114q-38 77 -132 77q-79 0 -129.5 -56t-69.5 -165
l-84 -477h-11l84 477q16 90 52 144q-38 77 -132 77q-79 0 -129.5 -56t-69.5 -165l-84 -477h-11l84 477q19 111 72.5 171t137.5 60q99 0 138 -77q57 77 152 77q99 0 138 -77q56 77 149 77q76 0 109.5 -51.5t15.5 -149.5l-52 -299h55q112 0 189 55t94 147h11z" />
    <glyph glyph-name="longs_longs_longs_l.liga" unicode="&#x17f;&#x17f;&#x17f;l" horiz-adv-x="1119" 
d="M1083 700q9 0 6 -10l-121 -690h-11l121 690h-79q-113 0 -176.5 -54t-82.5 -166l-83 -470h-11l83 470q17 99 67 154q-39 74 -131 74q-79 0 -129.5 -56t-69.5 -165l-84 -477h-11l84 477q16 90 52 144q-38 77 -132 77q-79 0 -129.5 -56t-69.5 -165l-84 -477h-11l84 477
q19 111 72.5 171t137.5 60q99 0 138 -77q57 77 152 77q97 0 138 -77q68 69 198 69h82z" />
    <glyph glyph-name="longs_longs_longs_t.liga" unicode="&#x17f;&#x17f;&#x17f;t" horiz-adv-x="1287" 
d="M1052 380l-43 -240q-12 -69 13.5 -105.5t85.5 -36.5q69 0 118 53l8 -5q-51 -58 -128 -58q-63 0 -92 40t-16 112l43 240h-98l1 10h98l21 117q17 95 -15.5 143t-104.5 48q-147 0 -180 -191l-89 -507h-11l89 507q12 69 41 117q-38 74 -130 74q-79 0 -129.5 -56t-69.5 -165
l-84 -477h-11l84 477q15 88 53 146q-38 75 -131 75q-79 0 -129.5 -56t-69.5 -165l-84 -477h-11l84 477q19 111 72.5 171t137.5 60q97 0 137 -76q57 76 151 76q96 0 137 -74q51 74 144 74q77 0 112.5 -51.5t17.5 -149.5l-21 -117h211l-1 -10h-211z" />
    <glyph glyph-name="longs_longs_t.liga" unicode="&#x17f;&#x17f;t" horiz-adv-x="1005" 
d="M770 380l-43 -240q-12 -69 13.5 -105.5t85.5 -36.5q69 0 118 53l8 -5q-51 -58 -128 -58q-63 0 -92 40t-16 112l43 240h-98l1 10h98l21 117q17 95 -15.5 143t-104.5 48q-147 0 -180 -191l-89 -507h-11l89 507q12 67 39 113l-1 -1q-38 79 -133 79q-79 0 -129.5 -56
t-69.5 -165l-84 -477h-11l84 477q19 111 72.5 171t137.5 60q99 0 139 -79q53 79 148 79q77 0 112.5 -51.5t17.5 -149.5l-21 -117h211l-1 -10h-211z" />
    <glyph glyph-name="longs_longs_udieresis.liga" unicode="&#x17f;&#x17f;&#xfc;" horiz-adv-x="1078" 
d="M775 528q16 80 -18 125t-102 45q-75 0 -122 -55t-64 -146l-87 -497h-11l87 497q14 75 48 127q-39 74 -131 74q-79 0 -129.5 -56t-69.5 -165l-84 -477h-11l84 477q19 111 72.5 171t137.5 60q96 0 137 -75q56 75 144 75q73 0 110 -48.5t20 -131.5h-11zM980 534
q-17 0 -17 17q0 16 17 16t17 -16q0 -17 -17 -17zM1015 400h11l-70 -400h-11l20 118q-29 -61 -82.5 -95.5t-120.5 -34.5q-153 0 -120 189l39 223h11l-38 -219q-32 -183 108 -183q81 0 141 53t75 139z" />
    <glyph glyph-name="longs_udieresis.liga" unicode="&#x17f;&#xfc;" horiz-adv-x="788" 
d="M485 528q16 80 -18 125t-102 45q-75 0 -122 -55t-64 -146l-87 -497h-11l87 497q18 97 69 154t129 57q73 0 110 -48.5t20 -131.5h-11zM690 534q-17 0 -17 17q0 16 17 16t17 -16q0 -17 -17 -17zM725 400h11l-70 -400h-11l20 118q-29 -61 -82.5 -95.5t-120.5 -34.5
q-153 0 -120 189l39 223h11l-38 -219q-32 -183 108 -183q81 0 141 53t75 139z" />
    <glyph glyph-name="t_t.liga" unicode="tt" horiz-adv-x="758" 
d="M522 380l-42 -240q-12 -69 13.5 -105.5t85.5 -36.5q69 0 118 53l8 -5q-51 -58 -128 -58q-63 0 -92 40t-16 112l42 240h-353l-42 -240q-12 -69 13.5 -105.5t85.5 -36.5q69 0 118 53l8 -5q-51 -58 -128 -58q-63 0 -92 40t-16 112l42 240h-76l1 10h77l16 90h11l-16 -90h353
l16 90h11l-16 -90h211l-1 -10h-212z" />
    <glyph glyph-name=".notdef" horiz-adv-x="460" 
d="M377 700v-920h-291v920h291zM306 638h-151v-30h59v-34h-60v-30h152v30h-60v34h60v30zM246 520h-92v-96h152v31h-60v65zM214 488v-33h-30v33h30zM306 399h-152v-30h60v-34h-60v-31h92v65h60v30zM306 344h-30v-61h-122v-31h152v92zM306 232h-92v-52h32v21h30v-43h-92v74
h-30v-104h152v104zM306 73h-152v-104h152v104zM276 42v-43h-92v43h92zM306 -53h-152v-30h64l-64 -43v-31h152v31h-93l64 43h29v30z" />
    <glyph glyph-name=".null" horiz-adv-x="0" 
 />
    <glyph glyph-name="nonmarkingreturn" horiz-adv-x="333" 
 />
    <glyph glyph-name="space" unicode=" " horiz-adv-x="250" 
 />
    <glyph glyph-name="exclam" unicode="!" horiz-adv-x="256" 
d="M135 270l76 430h11l-76 -430h-11zM95 -5q-17 0 -17 17q0 16 17 16t17 -16q0 -17 -17 -17z" />
    <glyph glyph-name="quotedbl" unicode="&#x22;" horiz-adv-x="416" 
d="M143 324h-11l50 276h11zM323 324h-11l50 276h11z" />
    <glyph glyph-name="numbersign" unicode="#" horiz-adv-x="660" 
d="M638 361h-136l-81 -230h176l-2 -10h-178l-78 -223l-11 1l78 222h-233l-78 -223l-11 1l78 222h-127l2 10h129l81 230h-169l2 10h171l82 233l10 -1l-82 -232h234l82 233l10 -1l-82 -232h135zM410 131l81 230h-233l-81 -230h233z" />
    <glyph glyph-name="dollar" unicode="$" horiz-adv-x="600" 
d="M387 613q70 -7 120.5 -40t71.5 -81l-9 -6q-25 52 -79.5 85t-134.5 33q-82 0 -140.5 -33t-72.5 -92q-9 -39 5 -69t49.5 -49.5t62.5 -29t69 -20.5q33 -9 53 -15t54 -21t52.5 -31t31 -42.5t6.5 -58.5q-13 -71 -81 -113.5t-158 -42.5h-12l-19 -107h-10l19 108q-80 4 -137 38
t-83 92l9 6q26 -60 86 -93.5t145 -33.5q87 0 153 40t78 107q5 31 -8.5 57t-32.5 41t-53.5 29t-51.5 18.5t-45 11.5q-30 8 -51.5 14t-54.5 21.5t-52.5 33t-30.5 46.5t-3 64q16 67 78.5 100.5t145.5 33.5q14 0 21 -1l17 102h10z" />
    <glyph glyph-name="percent" unicode="%" horiz-adv-x="736" 
d="M216 332q-68 0 -103 43.5t-20 110.5q13 58 56.5 92t102.5 34q67 0 102 -43.5t21 -109.5q-13 -59 -56 -93t-103 -34zM77 -8l-8 6l631 608l7 -7zM217 342q54 0 94 31t53 86q14 62 -17.5 102.5t-94.5 40.5q-55 0 -95.5 -31.5t-52.5 -84.5q-14 -62 17.5 -103t95.5 -41z
M517 -12q-68 0 -103.5 43.5t-19.5 110.5q13 58 56.5 92t102.5 34q67 0 102 -43.5t21 -109.5q-13 -59 -56 -93t-103 -34zM518 -2q54 0 94 31t53 86q14 62 -17.5 102.5t-94.5 40.5q-55 0 -95.5 -31.5t-52.5 -84.5q-14 -62 17.5 -103t95.5 -41z" />
    <glyph glyph-name="ampersand" unicode="&#x26;" horiz-adv-x="576" 
d="M508 337q-25 -153 -109 -252l91 -87l-7 -7l-90 86q-81 -91 -183 -91q-75 0 -126 45t-36 120q19 92 146 167q-36 74 -26 138q11 71 63.5 114.5t130.5 43.5q86 0 128 -51l-9 -7q-41 48 -118 48q-73 0 -124 -40.5t-61 -108.5q-11 -70 36.5 -151.5t178.5 -212.5
q81 98 105 246h10zM209 -4q99 0 177 88q-140 139 -187 225q-123 -69 -141 -159q-13 -67 33 -110.5t118 -43.5z" />
    <glyph glyph-name="quotesingle" unicode="'" horiz-adv-x="236" 
d="M143 324h-11l50 276h11z" />
    <glyph glyph-name="parenleft" unicode="(" horiz-adv-x="344" 
d="M207 -220q-91 94 -124 224t-9 266q25 139 103 257.5t195 182.5l6 -8q-116 -64 -192.5 -180t-100.5 -253q-23 -134 9 -261.5t121 -220.5z" />
    <glyph glyph-name="parenright" unicode=")" horiz-adv-x="344" 
d="M-12 -220l-6 8q116 64 192.5 180t100.5 253q23 134 -9 261.5t-121 220.5l8 7q91 -94 124 -224t9 -266q-25 -139 -103 -257.5t-195 -182.5z" />
    <glyph glyph-name="asterisk" unicode="*" horiz-adv-x="531" 
d="M525 488v-11h-212l70 -200l-10 -3l-69 199l-170 -134l-6 9l169 132l-182 116l6 8l183 -116l56 202l10 -3l-57 -201z" />
    <glyph glyph-name="plus" unicode="+" horiz-adv-x="520" 
d="M490 254v-10h-225v-225h-10v225h-225v10h225v225h10v-225h225z" />
    <glyph glyph-name="comma" unicode="," horiz-adv-x="236" 
d="M20 -158l-10 4l98 253l10 -4z" />
    <glyph glyph-name="hyphen" unicode="-" horiz-adv-x="420" 
d="M367 244h-300l2 10h300z" />
    <glyph glyph-name="period" unicode="." horiz-adv-x="236" 
d="M85 -5q-17 0 -17 17q0 16 17 16t17 -16q0 -17 -17 -17z" />
    <glyph glyph-name="slash" unicode="/" horiz-adv-x="362" 
d="M-26 -111l399 815l10 -5l-400 -815z" />
    <glyph glyph-name="zero" unicode="0" horiz-adv-x="602" 
d="M285 -12q-122 0 -186.5 82.5t-41.5 205.5q20 108 95.5 172.5t181.5 64.5q121 0 186 -82t42 -206q-21 -110 -96.5 -173.5t-180.5 -63.5zM285 -2q101 0 174 61.5t93 166.5q23 118 -39 197.5t-180 79.5q-102 0 -174 -62.5t-92 -165.5q-23 -117 38.5 -197t179.5 -80z" />
    <glyph glyph-name="one" unicode="1" horiz-adv-x="333" 
d="M136 0l71 400q12 53 1 72t-64 19h-47l1 9h47q58 0 70.5 -20t2.5 -80l-71 -400h-11z" />
    <glyph glyph-name="two" unicode="2" horiz-adv-x="465" 
d="M416 373q-9 -54 -54 -106.5t-132 -114.5l-199 -142h359l-2 -10h-380l1 7l213 152q86 62 130.5 113t52.5 103q9 60 -27.5 94t-99.5 34q-55 0 -102 -27.5t-72 -71.5l-9 5q24 44 73.5 74t110.5 30q68 0 108 -37.5t29 -102.5z" />
    <glyph glyph-name="three" unicode="3" horiz-adv-x="481" 
d="M437 360q-21 -127 -204 -151q96 -10 137.5 -49.5t30.5 -107.5q-13 -75 -76.5 -119.5t-158.5 -44.5q-110 0 -185 47l7 8q71 -45 178 -45q92 0 153 43.5t72 112.5q12 75 -47.5 112.5t-187.5 37.5l2 10q122 0 189 39.5t79 109.5q11 65 -32 102t-125 37q-102 0 -182 -56l-5 8
q83 58 187 58q85 0 132.5 -40.5t35.5 -111.5z" />
    <glyph glyph-name="four" unicode="4" horiz-adv-x="530" 
d="M465 60l-2 -10h-117l-27 -150h-11l26 150h-321l1 8l396 442h15l-78 -440h118zM29 60h307l75 426z" />
    <glyph glyph-name="five" unicode="5" horiz-adv-x="478" 
d="M185 -112q-51 0 -98.5 15.5t-75.5 41.5l7 8q28 -26 75 -40.5t94 -14.5q78 0 133 46t69 122q16 88 -39 129.5t-183 41.5h-61l46 263h302l-1 -10h-291l-43 -243h50q134 0 190.5 -44.5t39.5 -138.5q-14 -80 -73 -128t-141 -48z" />
    <glyph glyph-name="six" unicode="6" horiz-adv-x="520" 
d="M295 370q92 0 142.5 -52t35.5 -142q-13 -80 -73.5 -134t-152.5 -54q-104 0 -158.5 77t-34.5 195q27 154 137.5 247t266.5 93h8l-1 -10h-9q-147 0 -252.5 -86t-135.5 -230q38 42 99 69t128 27zM462 178q14 85 -32 133.5t-134 48.5q-66 0 -129 -27.5t-102 -74.5
q-20 -113 32 -186.5t152 -73.5q84 0 141.5 50t71.5 130z" />
    <glyph glyph-name="seven" unicode="7" horiz-adv-x="460" 
d="M86 500h386l-1 -10l-379 -594l-9 5l376 589h-374z" />
    <glyph glyph-name="eight" unicode="8" horiz-adv-x="526" 
d="M494 442q-11 -53 -54 -87.5t-107 -42.5q75 -14 113 -59.5t25 -110.5q-13 -69 -76.5 -111.5t-158.5 -42.5q-104 0 -158 50.5t-39 125.5q12 62 65.5 103t133.5 48q-61 15 -93 58t-22 98q11 60 66.5 95.5t134.5 35.5q89 0 136.5 -45.5t33.5 -114.5zM293 318q75 0 126.5 33.5
t63.5 92.5q13 64 -32 106t-128 42q-79 0 -130 -35t-60 -88q-11 -61 35 -106t125 -45zM460 144q14 72 -38.5 118t-149.5 46q-90 0 -150 -40.5t-72 -105.5q-14 -71 37.5 -117.5t149.5 -46.5q87 0 148.5 39t74.5 107z" />
    <glyph glyph-name="nine" unicode="9" horiz-adv-x="520" 
d="M291 512q104 0 158.5 -77t34.5 -195q-27 -154 -137.5 -247t-266.5 -93h-8l1 10h9q147 0 252.5 86t135.5 230q-38 -42 -99 -69t-128 -27q-92 0 -142.5 52t-35.5 142q13 80 73.5 134t152.5 54zM242 140q66 0 129 27.5t102 74.5q20 113 -32 186.5t-152 73.5
q-84 0 -141.5 -50t-71.5 -130q-14 -85 32 -133.5t134 -48.5z" />
    <glyph glyph-name="colon" unicode=":" horiz-adv-x="237" 
d="M136 282q-17 0 -17 17q0 16 17 16t17 -16q0 -17 -17 -17zM85 -5q-17 0 -17 17q0 16 17 16t17 -16q0 -17 -17 -17z" />
    <glyph glyph-name="semicolon" unicode=";" horiz-adv-x="249" 
d="M149 282q-17 0 -17 17q0 16 17 16t17 -16q0 -17 -17 -17zM30 -158l-10 4l98 253l10 -4z" />
    <glyph glyph-name="less" unicode="&#x3c;" horiz-adv-x="515" 
d="M425 454l-364 -203l364 -203l-5 -9l-373 208v8l373 208z" />
    <glyph glyph-name="equal" unicode="=" horiz-adv-x="520" 
d="M499 344h-460v10h460v-10zM499 144h-460v10h460v-10z" />
    <glyph glyph-name="greater" unicode="&#x3e;" horiz-adv-x="515" 
d="M95 460l373 -208v-8l-373 -208l-5 9l364 203l-364 203z" />
    <glyph glyph-name="question" unicode="?" horiz-adv-x="420" 
d="M226 270h-11v1q9 51 32.5 81.5t76.5 72.5q33 26 49 40t33 39.5t22 53.5q12 64 -28.5 104t-113.5 40q-104 0 -177 -99l-8 5q76 104 183 104q73 0 121 -41t33 -116q-8 -42 -31.5 -69.5t-75.5 -68.5t-74 -69.5t-31 -77.5zM180 -5q-17 0 -17 17q0 16 17 16t17 -16
q0 -17 -17 -17z" />
    <glyph glyph-name="at" unicode="@" horiz-adv-x="1025" 
d="M566 701q69 0 129 -14.5t104 -40.5t79.5 -61.5t56 -77t34 -88t12.5 -94.5t-8 -95q-16 -85 -61.5 -145t-119.5 -60q-56 0 -79.5 38.5t-13.5 107.5q-31 -65 -91 -105.5t-127 -40.5q-86 0 -134 61.5t-32 151.5q16 89 85 150t154 61q69 0 115 -40t54 -105l23 133h11l-46 -260
q-12 -69 9.5 -105.5t72.5 -36.5q67 0 110 57t59 138q13 52 8 106.5t-19 105.5t-48 96.5t-79 79.5t-111.5 53.5t-146.5 19.5q-104 0 -190.5 -33t-144 -89t-94 -122.5t-50.5 -140.5q-20 -102 3 -197t80 -165.5t150 -112.5t206 -42q136 0 240 48l5 -9q-106 -49 -247 -49
q-117 0 -212 44t-152.5 116.5t-80.5 168.5t-3 198q15 80 53.5 149.5t98.5 125t147 88t191 32.5zM480 35q82 0 149 59.5t82 145.5q15 84 -30.5 141.5t-125.5 57.5q-82 0 -148 -58.5t-81 -144.5q-15 -85 29.5 -143t124.5 -58z" />
    <glyph glyph-name="A" unicode="A" horiz-adv-x="632" 
d="M532 0l-54 213h-320l-128 -213h-12l360 600h14l152 -600h-12zM164 223h312l-92 366z" />
    <glyph glyph-name="B" unicode="B" horiz-adv-x="654" 
d="M602 448q-11 -53 -52.5 -90.5t-99.5 -48.5q75 -11 112 -54t26 -109q-11 -67 -65.5 -106.5t-140.5 -39.5h-302l106 600h252q87 0 132.5 -42.5t31.5 -109.5zM403 313q68 0 121.5 38t66.5 97q13 62 -28.5 102t-126.5 40h-241l-49 -277h257zM578 148q12 71 -36 113t-140 42
h-257l-52 -293h291q80 0 131.5 38t62.5 100z" />
    <glyph glyph-name="C" unicode="C" horiz-adv-x="630" 
d="M344 -13q-137 0 -215.5 100t-50.5 244q23 124 114.5 203.5t212.5 79.5q147 0 236 -127l-8 -6q-85 123 -227 123q-116 0 -204.5 -75.5t-112.5 -198.5q-27 -137 47.5 -235t209.5 -98q138 0 247 126l8 -7q-111 -129 -257 -129z" />
    <glyph glyph-name="D" unicode="D" horiz-adv-x="669" 
d="M342 600q149 0 229 -88t58 -225q-24 -135 -123 -211t-260 -76h-175l106 600h165zM248 10q155 0 250.5 73.5t119.5 205.5q22 132 -55.5 216.5t-222.5 84.5h-154l-102 -580h164z" />
    <glyph glyph-name="E" unicode="E" horiz-adv-x="580" 
d="M590 590h-404l-49 -277h384l-1 -10h-384l-52 -293h414l-2 -10h-425l106 600h415z" />
    <glyph glyph-name="F" unicode="F" horiz-adv-x="560" 
d="M594 590h-408l-50 -287h381l-2 -10h-381l-52 -293h-11l106 600h419z" />
    <glyph glyph-name="G" unicode="G" horiz-adv-x="739" 
d="M380 307h321v-7q-18 -140 -112.5 -226.5t-228.5 -86.5q-148 0 -228.5 100t-53.5 244q24 128 118.5 205.5t225.5 77.5q147 0 231 -87l-9 -7q-81 84 -223 84q-125 0 -216.5 -74.5t-115.5 -199.5q-26 -140 51.5 -236.5t220.5 -96.5q130 0 220.5 83t107.5 217h-311z" />
    <glyph glyph-name="H" unicode="H" horiz-adv-x="693" 
d="M647 600h11l-106 -600h-11l54 303h-459l-54 -303h-11l106 600h11l-51 -287h459z" />
    <glyph glyph-name="I" unicode="I" horiz-adv-x="283" 
d="M101 0l106 600h11l-106 -600h-11z" />
    <glyph glyph-name="J" unicode="J" horiz-adv-x="308" 
d="M-106 -148h26q83 0 140.5 53t73.5 144l97 551h11l-97 -552q-16 -96 -77.5 -151t-151.5 -55h-24z" />
    <glyph glyph-name="K" unicode="K" horiz-adv-x="635" 
d="M328 308q118 -19 175 -101.5t35 -206.5h-11q25 136 -48 219.5t-217 83.5h-126l-54 -303h-11l106 600h11l-51 -287h126q135 0 236.5 81t124.5 206h11q-19 -112 -103.5 -192t-203.5 -100z" />
    <glyph glyph-name="L" unicode="L" horiz-adv-x="523" 
d="M84 10h384l-2 -10h-395l106 600h11z" />
    <glyph glyph-name="M" unicode="M" horiz-adv-x="826" 
d="M738 600h13l-66 -600h-11l64 582l-341 -502h-10l-163 505l-142 -585h-11l146 600h13l163 -507z" />
    <glyph glyph-name="N" unicode="N" horiz-adv-x="683" 
d="M637 600h11l-106 -600h-11l-346 584l-103 -584h-11l106 600h11l346 -584z" />
    <glyph glyph-name="O" unicode="O" horiz-adv-x="740" 
d="M363 -13q-149 0 -229.5 97t-55.5 247q21 123 115 203t217 80q152 0 233 -97t54 -247q-20 -123 -114.5 -203t-219.5 -80zM363 -3q121 0 212 77.5t111 196.5q26 145 -52 239t-224 94q-119 0 -210 -77.5t-111 -196.5q-25 -145 52.5 -239t221.5 -94z" />
    <glyph glyph-name="P" unicode="P" horiz-adv-x="578" 
d="M286 216h-166l-38 -216h-11l106 600h171q111 0 167.5 -54.5t37.5 -150.5q-17 -86 -86 -132.5t-181 -46.5zM346 590h-160l-64 -364h166q108 0 174 46t81 126q17 91 -36.5 141.5t-160.5 50.5z" />
    <glyph glyph-name="Q" unicode="Q" horiz-adv-x="740" 
d="M697 270q-13 -82 -62 -147t-121 -101l105 -120l-8 -7l-106 123q-68 -31 -142 -31q-149 0 -229.5 97t-55.5 247q21 123 115 203t217 80q152 0 233 -97t54 -247zM363 -3q121 0 212 77.5t111 196.5q26 145 -52 239t-224 94q-119 0 -210 -77.5t-111 -196.5
q-25 -145 52.5 -239t221.5 -94z" />
    <glyph glyph-name="R" unicode="R" horiz-adv-x="654" 
d="M436 600q88 0 133.5 -44t32.5 -117q-12 -66 -63.5 -109.5t-127.5 -51.5q171 -40 127 -278h-11q25 136 -22.5 206t-163.5 70h-201l-49 -276h-11l106 600h250zM591 440q12 69 -31 110t-126 41h-239l-53 -305h237q83 0 141.5 42.5t70.5 111.5z" />
    <glyph glyph-name="S" unicode="S" horiz-adv-x="600" 
d="M287 -13q-88 0 -151.5 34.5t-90.5 96.5l9 6q26 -60 86 -93.5t145 -33.5q87 0 153 40t78 107q5 31 -8.5 57t-32.5 41t-53.5 29t-51.5 18.5t-45 11.5q-30 8 -51.5 14t-54.5 21.5t-52.5 33t-30.5 46.5t-3 64q16 67 78.5 100.5t145.5 33.5q81 0 139.5 -34.5t82.5 -87.5l-9 -6
q-25 52 -79.5 85t-134.5 33q-82 0 -140.5 -33t-72.5 -92q-9 -39 5 -69t49.5 -49.5t62.5 -29t69 -20.5q33 -9 53 -15t54 -21t52.5 -31t31 -42.5t6.5 -58.5q-13 -71 -81 -113.5t-158 -42.5z" />
    <glyph glyph-name="T" unicode="T" horiz-adv-x="593" 
d="M639 600l-2 -10h-266l-104 -590h-11l104 590h-266l2 10h543z" />
    <glyph glyph-name="U" unicode="U" 
d="M319 -14q-118 0 -174.5 79t-29.5 227l57 308h11l-58 -312q-26 -140 27.5 -216t165.5 -76q109 0 179 71.5t93 201.5l58 331h11l-59 -332q-24 -134 -96 -208t-185 -74z" />
    <glyph glyph-name="V" unicode="V" horiz-adv-x="632" 
d="M638 600h12l-363 -600h-14l-149 600h11l147 -590z" />
    <glyph glyph-name="W" unicode="W" horiz-adv-x="926" 
d="M907 604h13l-288 -604h-16l-84 589l-294 -589h-17l-73 604h12l71 -595l294 591h16l84 -591z" />
    <glyph glyph-name="X" unicode="X" horiz-adv-x="654" 
d="M393 306q95 -20 137 -101.5t19 -204.5h-11q26 137 -29 220t-172 83q-108 0 -188 -83t-103 -220h-11q22 129 93.5 212t170.5 97q-96 19 -138.5 97t-19.5 194h11q-25 -131 31 -209t173 -78q108 0 187 79.5t101 207.5h11q-21 -122 -92 -201t-170 -93z" />
    <glyph glyph-name="Y" unicode="Y" horiz-adv-x="580" 
d="M596 600h11q-25 -154 -102.5 -240.5t-190.5 -86.5h-7l-48 -273h-11l48 274q-113 6 -161 92t-21 234h11q-28 -149 22 -233t167 -84q108 0 182 83.5t100 233.5z" />
    <glyph glyph-name="Z" unicode="Z" horiz-adv-x="595" 
d="M611 591l-558 -567l-14 -14h59h411l-2 -10h-486l2 9l549 558q9 9 25 23h-70h-395l2 10h479z" />
    <glyph glyph-name="bracketleft" unicode="[" horiz-adv-x="320" 
d="M364 690h-151l-159 -900h151l-2 -10h-162l161 910l2 10h162z" />
    <glyph glyph-name="backslash" unicode="\" horiz-adv-x="362" 
d="M230 -114l-113 815l11 3l113 -815z" />
    <glyph glyph-name="bracketright" unicode="]" horiz-adv-x="320" 
d="M293 700l-161 -910l-2 -10h-162l2 10h151l159 900h-151l2 10h162z" />
    <glyph glyph-name="asciicircum" unicode="^" horiz-adv-x="422" 
d="M434 443l-9 -7l-143 163l-203 -164l-7 8l211 171z" />
    <glyph glyph-name="underscore" unicode="_" horiz-adv-x="520" 
d="M451 -20h-460l1 10h460z" />
    <glyph glyph-name="grave" unicode="`" horiz-adv-x="259" 
d="M255 494l-130 129l8 8l129 -130z" />
    <glyph glyph-name="a" unicode="a" horiz-adv-x="524" 
d="M462 400h11l-70 -400h-11l18 104q-27 -53 -76 -84.5t-108 -31.5q-89 0 -142.5 66.5t-35.5 165.5q16 82 75.5 136.5t143.5 54.5q72 0 117.5 -40.5t53.5 -107.5zM226 -2q75 0 130 51.5t67 131.5q20 96 -24 158t-131 62q-79 0 -136.5 -50.5t-72.5 -131.5
q-17 -90 31.5 -155.5t135.5 -65.5z" />
    <glyph glyph-name="b" unicode="b" horiz-adv-x="534" 
d="M308 412q89 0 142.5 -66.5t35.5 -165.5q-16 -82 -75.5 -136.5t-143.5 -54.5q-72 0 -117.5 40.5t-53.5 107.5l-24 -137h-11l123 700h11l-71 -404q27 53 76 84.5t108 31.5zM475 181q17 90 -31 155.5t-134 65.5q-77 0 -132 -51.5t-67 -131.5q-20 -96 24 -158t131 -62
q79 0 136.5 50.5t72.5 131.5z" />
    <glyph glyph-name="c" unicode="c" horiz-adv-x="431" 
d="M232 -12q-94 0 -148 66.5t-36 165.5q15 82 75 136.5t145 54.5q89 0 143 -59l-8 -7q-51 56 -135 56q-79 0 -136.5 -50.5t-72.5 -131.5q-17 -92 32.5 -156.5t140.5 -64.5q73 0 128 43l7 -7q-58 -46 -135 -46z" />
    <glyph glyph-name="d" unicode="d" horiz-adv-x="534" 
d="M515 700h11l-123 -700h-11l18 104q-27 -53 -76 -84.5t-108 -31.5q-89 0 -142.5 66.5t-35.5 165.5q16 82 75.5 136.5t143.5 54.5q72 0 117.5 -40.5t53.5 -107.5zM224 -2q77 0 132 51.5t67 131.5q20 96 -24 158t-131 62q-79 0 -136.5 -50.5t-72.5 -131.5q-17 -90 31 -155.5
t134 -65.5z" />
    <glyph glyph-name="e" unicode="e" horiz-adv-x="488" 
d="M281 411q85 0 130.5 -52.5t29.5 -134.5q0 -3 -2 -9l-377 -1q-15 -89 35 -152.5t142 -63.5q86 0 155 59l7 -8q-74 -61 -163 -61q-95 0 -148.5 66t-38.5 160q14 87 78.5 142t151.5 55zM431 225q13 77 -28.5 126.5t-120.5 49.5q-80 0 -141 -48.5t-77 -128.5z" />
    <glyph glyph-name="f" unicode="f" horiz-adv-x="341" 
d="M418 708h19l-2 -10h-19q-95 0 -150.5 -56.5t-76.5 -174.5l-14 -77h169l-1 -10h-169l-67 -380h-11l67 380h-87l1 10h87l14 77q22 123 80.5 182t159.5 59z" />
    <glyph glyph-name="g" unicode="g" horiz-adv-x="524" 
d="M462 400h11l-73 -418q-18 -102 -78.5 -157.5t-151.5 -55.5q-92 0 -141 49l8 7q46 -46 134 -46t144.5 53t73.5 150l21 123q-27 -54 -76 -85.5t-108 -31.5q-89 0 -142.5 66.5t-35.5 165.5q16 82 75.5 136.5t143.5 54.5q72 0 117.5 -40.5t53.5 -108.5zM224 -2q77 0 132 51.5
t67 131.5q20 96 -24 158t-131 62q-79 0 -136.5 -50.5t-72.5 -131.5q-17 -90 31 -155.5t134 -65.5z" />
    <glyph glyph-name="h" unicode="h" horiz-adv-x="527" 
d="M324 412q72 0 104.5 -48t18.5 -131l-41 -233h-11l40 229q14 80 -15.5 126.5t-96.5 46.5q-75 0 -136.5 -55.5t-77.5 -138.5l-37 -208h-11l123 700h11l-75 -427q30 62 85 100.5t119 38.5z" />
    <glyph glyph-name="i" unicode="i" horiz-adv-x="233" 
d="M180 554q-17 0 -17 17q0 16 17 16t17 -16q0 -17 -17 -17zM76 0l70 400h11l-70 -400h-11z" />
    <glyph glyph-name="j" unicode="j" horiz-adv-x="233" 
d="M180 554q-17 0 -17 17q0 16 17 16t17 -16q0 -17 -17 -17zM37 -220l109 620h11l-109 -620h-11z" />
    <glyph glyph-name="k" unicode="k" horiz-adv-x="490" 
d="M458 410q-14 -80 -73.5 -134.5t-149.5 -71.5q84 -13 124.5 -67.5t26.5 -136.5h-11q16 91 -36 144.5t-156 53.5h-76l-35 -198h-11l123 700h11l-86 -492h55q112 0 189 55t94 147h11z" />
    <glyph glyph-name="l" unicode="l" horiz-adv-x="203" 
d="M61 0l123 700h11l-123 -700h-11z" />
    <glyph glyph-name="m" unicode="m" horiz-adv-x="808" 
d="M609 412q75 0 105 -49t14 -130l-41 -233h-11l40 229q15 80 -12 126.5t-96 46.5q-72 0 -125 -50t-71 -140l-37 -212h-11l40 229q14 80 -11 126.5t-90 46.5q-71 0 -128.5 -52t-74.5 -140l-37 -210h-11l70 400h11l-21 -120q29 62 81 97t111 35q61 0 90 -37t26 -101
q27 66 76.5 102t112.5 36z" />
    <glyph glyph-name="n" unicode="n" horiz-adv-x="518" 
d="M315 412q72 0 104.5 -48t18.5 -131l-41 -233h-11l40 229q14 80 -15.5 126.5t-96.5 46.5q-75 0 -136.5 -55t-77.5 -137l-37 -210h-11l70 400h11l-22 -125q30 62 84.5 99.5t119.5 37.5z" />
    <glyph glyph-name="o" unicode="o" horiz-adv-x="500" 
d="M232 -12q-94 0 -148 66.5t-36 165.5q15 82 75 136.5t145 54.5q95 0 148.5 -66t35.5 -166q-16 -87 -77 -139t-143 -52zM232 -2q78 0 135.5 49.5t73.5 132.5q18 96 -32.5 158.5t-140.5 62.5q-79 0 -136.5 -50.5t-72.5 -131.5q-17 -92 32.5 -156.5t140.5 -64.5z" />
    <glyph glyph-name="p" unicode="p" horiz-adv-x="534" 
d="M308 412q89 0 142.5 -66.5t35.5 -165.5q-16 -82 -75.5 -136.5t-143.5 -54.5q-72 0 -117.5 40.5t-53.5 107.5l-63 -357h-11l109 620h11l-18 -104q27 53 76 84.5t108 31.5zM475 181q17 90 -31 155.5t-134 65.5q-77 0 -132 -51.5t-67 -131.5q-20 -96 24 -158t131 -62
q79 0 136.5 50.5t72.5 131.5z" />
    <glyph glyph-name="q" unicode="q" horiz-adv-x="524" 
d="M462 400h11l-109 -620h-11l57 324q-27 -53 -76 -84.5t-108 -31.5q-89 0 -142.5 66.5t-35.5 165.5q16 82 75.5 136.5t143.5 54.5q72 0 117.5 -40.5t53.5 -107.5zM224 -2q77 0 132 51.5t67 131.5q20 96 -24 158t-131 62q-79 0 -136.5 -50.5t-72.5 -131.5q-17 -90 31 -155.5
t134 -65.5z" />
    <glyph glyph-name="r" unicode="r" horiz-adv-x="356" 
d="M104 237q35 80 103.5 123t159.5 43l-1 -10h-1q-107 0 -179 -60.5t-94 -169.5l-29 -163h-11l70 400h11z" />
    <glyph glyph-name="s" unicode="s" horiz-adv-x="398" 
d="M165 -12q-83 0 -136 58l8 7q49 -55 129 -55q56 0 92.5 25t44.5 63q9 43 -20 69t-82 47q-59 23 -87.5 49t-19.5 72q8 43 49 66.5t94 23.5q79 0 113 -48l-8 -6q-37 44 -106 44q-56 0 -91 -24t-41 -58q-4 -23 3 -41t26.5 -31.5t33 -20t37.5 -16.5q27 -11 42.5 -19
t36.5 -23.5t28.5 -37t1.5 -48.5q-10 -44 -50 -70t-98 -26z" />
    <glyph glyph-name="t" unicode="t" horiz-adv-x="394" 
d="M158 380l-42 -240q-12 -69 13.5 -105.5t85.5 -36.5q69 0 118 53l8 -5q-51 -58 -128 -58q-63 0 -92 40t-16 112l42 240h-76l1 10h77l16 90h11l-16 -90h212l-1 -10h-213z" />
    <glyph glyph-name="u" unicode="u" horiz-adv-x="518" 
d="M455 400h11l-70 -400h-11l22 127q-29 -62 -84.5 -100.5t-119.5 -38.5q-72 0 -104.5 48t-18.5 131l41 233h11l-40 -229q-14 -80 15.5 -126.5t96.5 -46.5q75 0 136.5 56t77.5 136z" />
    <glyph glyph-name="v" unicode="v" horiz-adv-x="462" 
d="M440 400h12l-247 -400h-14l-111 400h11l108 -392z" />
    <glyph glyph-name="w" unicode="w" horiz-adv-x="752" 
d="M730 400h12l-230 -400h-14l-88 389l-226 -389h-14l-90 400h11l87 -391l226 391h14l88 -391z" />
    <glyph glyph-name="x" unicode="x" horiz-adv-x="480" 
d="M280 199q59 -15 83.5 -66t8.5 -133h-11q18 93 -16 144t-112 51q-73 0 -120 -50t-64 -145h-11q30 180 162 201q-59 15 -83.5 66t-8.5 133h11q-18 -93 16 -144t112 -51q73 0 120 50t64 145h11q-30 -180 -162 -201z" />
    <glyph glyph-name="y" unicode="y" horiz-adv-x="518" 
d="M455 400h11l-73 -418q-18 -101 -70.5 -157t-136.5 -56q-95 0 -141 57l8 7q46 -54 134 -54q78 0 128 52.5t67 150.5l24 135q-29 -60 -83 -94.5t-121 -34.5q-153 0 -120 189l39 223h11l-38 -219q-32 -183 108 -183q76 0 134 46t78 122z" />
    <glyph glyph-name="z" unicode="z" horiz-adv-x="440" 
d="M433 392l-362 -340l-46 -42h67h273l-1 -10h-355l1 9l357 335l50 46h-67h-269l1 10h352z" />
    <glyph glyph-name="braceleft" unicode="{" horiz-adv-x="393" 
d="M439 690h-151l-159 -900h151l-2 -10h-162l82 460h-153l2 10h152l78 440l2 10h162z" />
    <glyph glyph-name="bar" unicode="|" horiz-adv-x="307" 
d="M56 -220l163 920h11l-163 -920h-11z" />
    <glyph glyph-name="braceright" unicode="}" horiz-adv-x="393" 
d="M360 230h-152l-78 -440l-2 -10h-162l2 10h151l159 900h-151l2 10h162l-81 -460h152z" />
    <glyph glyph-name="asciitilde" unicode="~" horiz-adv-x="488" 
d="M360 181q-23 0 -45 11t-34 22.5t-32 32.5q-21 22 -31.5 32t-30.5 20.5t-41 10.5q-43 0 -71.5 -33.5t-28.5 -87.5h-11q0 56 31.5 93.5t79.5 37.5q23 0 45 -11t34 -22.5t32 -32.5t31.5 -31.5t31.5 -21t41 -10.5q43 0 71 33.5t28 86.5h11q0 -57 -31.5 -93.5t-79.5 -36.5z
" />
    <glyph glyph-name="exclamdown" unicode="&#xa1;" horiz-adv-x="257" 
d="M187 547q17 0 17 -17q0 -16 -17 -16t-17 16q0 17 17 17zM147 272l-76 -430h-11l76 430h11z" />
    <glyph glyph-name="cent" unicode="&#xa2;" horiz-adv-x="431" 
d="M302 459q71 -7 117 -57l-8 -7q-51 56 -135 56q-79 0 -136.5 -50.5t-72.5 -131.5q-17 -92 32.5 -156.5t140.5 -64.5q73 0 128 43l7 -7q-58 -46 -135 -46h-13l-23 -128h-10l23 129q-84 9 -130.5 74t-30.5 157q15 82 75 136.5t145 54.5q11 0 16 -1l24 133h10z" />
    <glyph glyph-name="sterling" unicode="&#xa3;" horiz-adv-x="573" 
d="M379 612q88 0 134 -59.5t27 -152.5h-11q19 90 -24.5 146t-126.5 56q-80 0 -135.5 -55t-71.5 -147l-24 -135h197l-2 -10h-196l-43 -245h365l-2 -10h-376l45 255h-93l2 10h92l24 135q16 94 74.5 153t144.5 59z" />
    <glyph glyph-name="currency" unicode="&#xa4;" horiz-adv-x="610" 
d="M196 460l-68 125l9 6l69 -125zM501 458l-9 6l113 125l8 -6zM295 38q-94 0 -148 66.5t-36 165.5q15 82 75 136.5t145 54.5q95 0 148.5 -66t35.5 -166q-16 -87 -77 -139t-143 -52zM295 48q78 0 135.5 49.5t73.5 132.5q18 96 -32.5 158.5t-140.5 62.5q-79 0 -136.5 -50.5
t-72.5 -131.5q-17 -92 32.5 -156.5t140.5 -64.5zM20 -88l-8 6l112 125l9 -6zM487 -91l-69 125l10 6l68 -125z" />
    <glyph glyph-name="yen" unicode="&#xa5;" horiz-adv-x="580" 
d="M314 273h-7l-22 -123h163l-2 -10h-162l-25 -140h-11l25 140h-167l2 10h166l22 124q-113 6 -161 92t-21 234h11q-28 -149 22 -233t167 -84q108 0 182 83.5t100 233.5h11q-25 -154 -102.5 -240.5t-190.5 -86.5z" />
    <glyph glyph-name="brokenbar" unicode="&#xa6;" horiz-adv-x="307" 
d="M152 320l67 380h11l-67 -380h-11zM56 -220l67 380h11l-67 -380h-11z" />
    <glyph glyph-name="section" unicode="&#xa7;" horiz-adv-x="522" 
d="M348 710q134 0 178 -97l-9 -7q-42 94 -169 94q-72 0 -119 -34.5t-56 -90.5q-4 -25 2 -46.5t16 -36t33 -31.5t37.5 -25.5t45.5 -24.5q18 -10 26.5 -14t25 -14t25 -16t22 -16.5t20.5 -19t16.5 -20.5t13.5 -24t7.5 -27t3 -31.5t-3.5 -34.5q-17 -94 -154 -159q77 -55 65 -131
q-10 -60 -59.5 -97t-125.5 -37q-134 0 -178 97l9 7q42 -94 169 -94q72 0 119 34.5t56 90.5q4 25 -2 46.5t-16 36t-33 31.5t-37.5 25.5t-45.5 24.5q-18 10 -26.5 14t-25 14t-25 16t-22 16.5t-20.5 19t-16.5 20.5t-13.5 24t-7.5 27t-3 31.5t3.5 34.5q17 94 154 159
q-77 55 -65 131q10 60 59.5 97t125.5 37zM452 197q3 17 3.5 32t-3 29t-7.5 25t-13 22.5t-15.5 20t-19.5 18t-21 15.5t-24 15.5t-24.5 14l-25.5 13.5q-44 24 -64 37q-136 -65 -153 -156q-3 -17 -3.5 -32t3 -29t7.5 -25t13 -22.5t15.5 -20t19.5 -18t21 -15.5t24 -15.5
t24.5 -14l25.5 -13.5q44 -24 64 -37q136 65 153 156z" />
    <glyph glyph-name="dieresis" unicode="&#xa8;" horiz-adv-x="334" 
d="M127 534q-18 0 -15 18q3 15 19 15q18 0 15 -17q-4 -16 -19 -16zM327 534q-18 0 -15 18q3 15 19 15q18 0 15 -17q-4 -16 -19 -16z" />
    <glyph glyph-name="copyright" unicode="&#xa9;" horiz-adv-x="1040" 
d="M493 -221q-208 0 -328 141t-84 355q31 186 166.5 306t325.5 120q210 0 322.5 -143.5t75.5 -356.5q-33 -188 -162.5 -305t-315.5 -117zM493 -211q182 0 308.5 114.5t158.5 297.5q37 211 -74 350.5t-314 139.5q-183 0 -315.5 -116t-164.5 -300q-24 -136 21 -248t145.5 -175
t234.5 -63zM520 14q-99 0 -158 69.5t-39 172.5q16 84 79.5 142.5t152.5 58.5q95 0 151 -69l-8 -7q-53 66 -142 66q-82 0 -144 -54t-78 -138q-18 -97 34.5 -164t149.5 -67q79 0 137 53l7 -7q-61 -56 -142 -56z" />
    <glyph glyph-name="ordfeminine" unicode="&#xaa;" horiz-adv-x="400" 
d="M422 691h9l-53 -306h-10l13 78q-20 -40 -57 -63.5t-82 -23.5q-68 0 -109 51t-27 126q12 63 57.5 105t110.5 42q54 0 88.5 -30t41.5 -81zM241 386q59 0 100.5 38.5t50.5 98.5q15 73 -18 120t-100 47q-58 0 -101.5 -38t-55.5 -100q-13 -67 23 -116.5t101 -49.5zM56 244
l2 10h310l-2 -10h-310z" />
    <glyph glyph-name="guillemotleft" unicode="&#xab;" horiz-adv-x="529" 
d="M270 400l7 -9l-178 -143l126 -142l-8 -8l-133 151zM487 391l-178 -143l126 -142l-8 -8l-133 151l186 151z" />
    <glyph glyph-name="logicalnot" unicode="&#xac;" horiz-adv-x="560" 
d="M490 105v105q0 41 -22 60.5t-68 19.5h-360v10h360q52 0 76 -21.5t24 -68.5v-105h-10z" />
    <glyph glyph-name="registered" unicode="&#xae;" horiz-adv-x="1040" 
d="M573 701q210 0 322.5 -143.5t75.5 -356.5q-33 -188 -162.5 -305t-315.5 -117q-208 0 -328 141t-84 355q31 186 166.5 306t325.5 120zM960 201q37 211 -74 350.5t-314 139.5q-183 0 -315.5 -116t-164.5 -300q-24 -136 21 -248t145.5 -175t234.5 -63q182 0 308.5 114.5
t158.5 297.5zM597 477q71 0 105 -37t20 -95q-22 -97 -148 -112q135 -33 103 -218h-11q38 215 -156 215h-124l-38 -215h-11l81 462h179zM712 347q12 54 -19 87t-98 33h-168l-40 -227h138q162 0 187 107z" />
    <glyph glyph-name="macron" unicode="&#xaf;" horiz-adv-x="401" 
d="M410 538h-300l2 10h300z" />
    <glyph glyph-name="degree" unicode="&#xb0;" horiz-adv-x="376" 
d="M216 312q-68 0 -103 46.5t-20 117.5q13 63 56.5 99.5t102.5 36.5q67 0 102 -46t21 -117q-13 -63 -56 -100t-103 -37zM217 322q54 0 94 34t53 93q14 66 -17.5 109.5t-94.5 43.5q-55 0 -95.5 -34.5t-52.5 -91.5q-14 -66 17.5 -110t95.5 -44z" />
    <glyph glyph-name="plusminus" unicode="&#xb1;" horiz-adv-x="520" 
d="M265 374h225v-10h-225v-225h-10v225h-225v10h225v225h10v-225zM30 24v10h460v-10h-460z" />
    <glyph glyph-name="uni00B2" unicode="&#xb2;" horiz-adv-x="272" 
d="M304 613q-8 -34 -47.5 -74.5t-169.5 -148.5h190l-2 -10h-208l2 8q135 112 176.5 153t48.5 74q9 39 -13 60t-62 21q-26 0 -53.5 -14.5t-44.5 -40.5l-8 5q42 60 106 60q48 0 71.5 -26t13.5 -67z" />
    <glyph glyph-name="uni00B3" unicode="&#xb3;" horiz-adv-x="279" 
d="M305 614q-15 -55 -90 -72q85 -18 70 -90q-8 -37 -38 -57.5t-76 -20.5q-69 0 -106 37l9 7q32 -34 97 -34q89 0 103 69q8 41 -22.5 62.5t-92.5 21.5l2 10q56 0 90.5 19t42.5 51q9 35 -12.5 57t-63.5 22q-60 0 -95 -38l-6 7q39 41 101 41q50 0 73.5 -28.5t13.5 -63.5z" />
    <glyph glyph-name="acute" unicode="&#xb4;" horiz-adv-x="259" 
d="M109 494l-6 7l175 130l6 -8z" />
    <glyph glyph-name="paragraph" unicode="&#xb6;" horiz-adv-x="767" 
d="M407 0q-167 0 -250.5 85t-57.5 226q25 136 134.5 212.5t279.5 76.5h36l-106 -600h-36zM479 -220l145 820h11l-145 -820h-11zM558 -220l145 820h11l-145 -820h-11zM409 10h25l102 580h-25q-164 0 -270.5 -74.5t-130.5 -206.5q-25 -137 56.5 -218t242.5 -81z" />
    <glyph glyph-name="periodcentered" unicode="&#xb7;" horiz-adv-x="236" 
d="M125 233q-17 0 -17 17q0 16 17 16t17 -16q0 -17 -17 -17z" />
    <glyph glyph-name="cedilla" unicode="&#xb8;" horiz-adv-x="110" 
d="M-14 -220h-10l24 135h10z" />
    <glyph glyph-name="uni00B9" unicode="&#xb9;" horiz-adv-x="243" 
d="M163 380l39 220q12 55 1.5 73t-64.5 18h-10l2 9h10q58 0 70.5 -20t1.5 -80l-39 -220h-11z" />
    <glyph glyph-name="ordmasculine" unicode="&#xba;" horiz-adv-x="390" 
d="M236 376q-74 0 -112 50t-21 127q15 68 61.5 107.5t109.5 39.5q73 0 110.5 -50t22.5 -126q-13 -68 -60 -108t-111 -40zM237 386q58 0 102 37t57 101q15 72 -19 119t-103 47q-59 0 -102.5 -37.5t-57.5 -99.5q-16 -72 18.5 -119.5t104.5 -47.5zM53 244l2 10h300l-2 -10h-300
z" />
    <glyph glyph-name="guillemotright" unicode="&#xbb;" horiz-adv-x="529" 
d="M58 388l8 8l133 -151l-186 -151l-7 9l178 143zM276 396l133 -151l-186 -151l-7 9l178 143l-126 142z" />
    <glyph glyph-name="onequarter" unicode="&#xbc;" horiz-adv-x="688" 
d="M586 625l8 -6l-533 -646l-8 6zM183 500q12 55 1.5 73t-64.5 18h-10l2 9h10q58 0 70.5 -20t1.5 -80l-39 -220h-11zM650 92l-2 -10h-71l-14 -82h-11l14 82h-174l1 9l212 229h15l-40 -228h70zM607 307l-199 -215h161z" />
    <glyph glyph-name="onehalf" unicode="&#xbd;" horiz-adv-x="650" 
d="M586 625l8 -6l-533 -646l-8 6zM183 500q12 55 1.5 73t-64.5 18h-10l2 9h10q58 0 70.5 -20t1.5 -80l-39 -220h-11zM616 233q-8 -34 -47.5 -74.5t-169.5 -148.5h190l-2 -10h-208l2 8q135 112 176.5 153t48.5 74q9 39 -13 60t-62 21q-26 0 -53.5 -14.5t-44.5 -40.5l-8 5
q42 60 106 60q48 0 71.5 -26t13.5 -67z" />
    <glyph glyph-name="threequarters" unicode="&#xbe;" horiz-adv-x="724" 
d="M622 625l8 -6l-533 -646l-8 6zM266 352q-8 -37 -38 -57.5t-76 -20.5q-69 0 -106 37l9 7q32 -34 97 -34q90 0 103 69q8 41 -22.5 62.5t-92.5 21.5l2 10q56 0 90.5 19t42.5 51q9 35 -12.5 57t-63.5 22q-60 0 -95 -38l-6 7q39 41 101 41q50 0 73.5 -28.5t13.5 -63.5
q-15 -55 -90 -72q85 -18 70 -90zM686 92l-2 -10h-71l-14 -82h-11l14 82h-174l1 9l212 229h15l-40 -228h70zM643 307l-199 -215h161z" />
    <glyph glyph-name="questiondown" unicode="&#xbf;" horiz-adv-x="420" 
d="M267 555q17 0 17 -17q0 -16 -17 -16t-17 16q0 17 17 17zM221 280h11v-1q-9 -51 -32.5 -81.5t-76.5 -72.5q-33 -26 -49 -40t-33 -39.5t-22 -53.5q-12 -64 28.5 -104t113.5 -40q104 0 177 99l8 -5q-76 -104 -183 -104q-73 0 -121 41t-33 116q8 42 31.5 69.5t75.5 68.5
t74 69.5t31 77.5z" />
    <glyph glyph-name="Agrave" unicode="&#xc0;" horiz-adv-x="632" 
d="M506 712l-5 -8l-203 97l5 9zM532 0l-54 213h-320l-128 -213h-12l360 600h14l152 -600h-12zM164 223h312l-92 366z" />
    <glyph glyph-name="Aacute" unicode="&#xc1;" horiz-adv-x="632" 
d="M533 801l-218 -98l-4 9l217 98zM532 0l-54 213h-320l-128 -213h-12l360 600h14l152 -600h-12zM164 223h312l-92 366z" />
    <glyph glyph-name="Acircumflex" unicode="&#xc2;" horiz-adv-x="632" 
d="M424 810l-157 -126l-6 8l165 132l116 -132l-8 -7zM532 0l-54 213h-320l-128 -213h-12l360 600h14l152 -600h-12zM164 223h312l-92 366z" />
    <glyph glyph-name="Atilde" unicode="&#xc3;" horiz-adv-x="632" 
d="M340 790q-28 0 -47.5 -25t-19.5 -63h-11q0 42 23 70t56 28t72 -46q36 -44 67 -44q29 0 48 25t19 63h11q0 -43 -22.5 -70.5t-56.5 -27.5q-35 0 -74 47q-11 14 -18 21.5t-20 14.5t-27 7zM378 600h14l152 -600h-12l-54 213h-320l-128 -213h-12zM164 223h312l-92 366z" />
    <glyph glyph-name="Adieresis" unicode="&#xc4;" horiz-adv-x="632" 
d="M307 714q-17 0 -17 17q0 16 17 16t17 -16q0 -17 -17 -17zM507 714q-17 0 -17 17q0 16 17 16t17 -16q0 -17 -17 -17zM532 0l-54 213h-320l-128 -213h-12l360 600h14l152 -600h-12zM164 223h312l-92 366z" />
    <glyph glyph-name="Aring" unicode="&#xc5;" horiz-adv-x="632" 
d="M405 687q-40 0 -65 25t-25 64t25 64t65 25t65 -25t25 -64t-25 -64t-65 -25zM405 855q-35 0 -57 -22.5t-22 -56.5t22 -56.5t57 -22.5t57 22.5t22 56.5t-22 56.5t-57 22.5zM532 0l-54 213h-320l-128 -213h-12l360 600h14l152 -600h-12zM164 223h312l-92 366z" />
    <glyph glyph-name="AE" unicode="&#xc6;" horiz-adv-x="854" 
d="M865 590h-391l4 -277h318l-2 -10h-316l5 -293h289l-1 -10h-299l-3 213h-294l-163 -213h-14l460 600h409zM183 223h286l-6 367z" />
    <glyph glyph-name="Ccedilla" unicode="&#xc7;" horiz-adv-x="630" 
d="M344 -13q-137 0 -215.5 100t-50.5 244q23 124 114.5 203.5t212.5 79.5q147 0 236 -127l-8 -6q-85 123 -227 123q-116 0 -204.5 -75.5t-112.5 -198.5q-27 -137 47.5 -235t209.5 -98q138 0 247 126l8 -7q-111 -129 -257 -129zM296 -220h-10l24 135h10z" />
    <glyph glyph-name="Egrave" unicode="&#xc8;" horiz-adv-x="580" 
d="M509 712l-5 -8l-203 97l5 9zM590 590h-404l-49 -277h384l-1 -10h-384l-52 -293h414l-2 -10h-425l106 600h415z" />
    <glyph glyph-name="Eacute" unicode="&#xc9;" horiz-adv-x="580" 
d="M536 801l-218 -98l-4 9l217 98zM590 590h-404l-49 -277h384l-1 -10h-384l-52 -293h414l-2 -10h-425l106 600h415z" />
    <glyph glyph-name="Ecircumflex" unicode="&#xca;" horiz-adv-x="580" 
d="M427 810l-157 -126l-6 8l165 132l116 -132l-8 -7zM590 590h-404l-49 -277h384l-1 -10h-384l-52 -293h414l-2 -10h-425l106 600h415z" />
    <glyph glyph-name="Edieresis" unicode="&#xcb;" horiz-adv-x="580" 
d="M310 714q-17 0 -17 17q0 16 17 16t17 -16q0 -17 -17 -17zM510 714q-17 0 -17 17q0 16 17 16t17 -16q0 -17 -17 -17zM590 590h-404l-49 -277h384l-1 -10h-384l-52 -293h414l-2 -10h-425l106 600h415z" />
    <glyph glyph-name="Igrave" unicode="&#xcc;" horiz-adv-x="283" 
d="M329 704l-203 97l5 9l203 -98zM101 0l106 600h11l-106 -600h-11z" />
    <glyph glyph-name="Iacute" unicode="&#xcd;" horiz-adv-x="283" 
d="M143 703l-4 9l217 98l5 -9zM101 0l106 600h11l-106 -600h-11z" />
    <glyph glyph-name="Icircumflex" unicode="&#xce;" horiz-adv-x="283" 
d="M370 692l-8 -7l-110 125l-157 -126l-6 8l165 132zM101 0l106 600h11l-106 -600h-11z" />
    <glyph glyph-name="Idieresis" unicode="&#xcf;" horiz-adv-x="283" 
d="M135 714q-17 0 -17 17q0 16 17 16t17 -16q0 -17 -17 -17zM335 714q-17 0 -17 17q0 16 17 16t17 -16q0 -17 -17 -17zM101 0l106 600h11l-106 -600h-11z" />
    <glyph glyph-name="Eth" unicode="&#xd0;" horiz-adv-x="669" 
d="M342 600q149 0 229 -88t58 -225q-24 -135 -123 -211t-260 -76h-175l52 295h-90l2 10h90l52 295h165zM618 289q22 132 -55.5 216.5t-222.5 84.5h-154l-50 -285h179l-2 -10h-179l-50 -285h164q155 0 250.5 73.5t119.5 205.5z" />
    <glyph glyph-name="Ntilde" unicode="&#xd1;" horiz-adv-x="683" 
d="M369 790q-28 0 -47.5 -25t-19.5 -63h-11q0 42 23 70t56 28t72 -46q36 -44 67 -44q29 0 48 25t19 63h11q0 -43 -22.5 -70.5t-56.5 -27.5q-35 0 -74 47q-11 14 -18 21.5t-20 14.5t-27 7zM637 600h11l-106 -600h-11l-346 584l-103 -584h-11l106 600h11l346 -584z" />
    <glyph glyph-name="Ograve" unicode="&#xd2;" horiz-adv-x="740" 
d="M548 694l-203 97l5 9l203 -98zM363 -13q-149 0 -229.5 97t-55.5 247q21 123 115 203t217 80q152 0 233 -97t54 -247q-20 -123 -114.5 -203t-219.5 -80zM363 -3q121 0 212 77.5t111 196.5q26 145 -52 239t-224 94q-119 0 -210 -77.5t-111 -196.5q-25 -145 52.5 -239
t221.5 -94z" />
    <glyph glyph-name="Oacute" unicode="&#xd3;" horiz-adv-x="740" 
d="M362 693l-4 9l217 98l5 -9zM363 -13q-149 0 -229.5 97t-55.5 247q21 123 115 203t217 80q152 0 233 -97t54 -247q-20 -123 -114.5 -203t-219.5 -80zM363 -3q121 0 212 77.5t111 196.5q26 145 -52 239t-224 94q-119 0 -210 -77.5t-111 -196.5q-25 -145 52.5 -239
t221.5 -94z" />
    <glyph glyph-name="Ocircumflex" unicode="&#xd4;" horiz-adv-x="740" 
d="M471 800l-157 -126l-6 8l165 132l116 -132l-8 -7zM410 614q152 0 233 -97t54 -247q-20 -123 -114.5 -203t-219.5 -80q-149 0 -229.5 97t-55.5 247q21 123 115 203t217 80zM686 271q26 145 -52 239t-224 94q-119 0 -210 -77.5t-111 -196.5q-25 -145 52.5 -239t221.5 -94
q121 0 212 77.5t111 196.5z" />
    <glyph glyph-name="Otilde" unicode="&#xd5;" horiz-adv-x="740" 
d="M526 690q-35 0 -74 47q-11 14 -18 21.5t-20 14.5t-27 7q-28 0 -47.5 -25t-19.5 -63h-11q0 42 23 70t56 28t72 -46q36 -44 67 -44q29 0 48 25t19 63h11q0 -43 -22.5 -70.5t-56.5 -27.5zM363 -13q-149 0 -229.5 97t-55.5 247q21 123 115 203t217 80q152 0 233 -97t54 -247
q-20 -123 -114.5 -203t-219.5 -80zM363 -3q121 0 212 77.5t111 196.5q26 145 -52 239t-224 94q-119 0 -210 -77.5t-111 -196.5q-25 -145 52.5 -239t221.5 -94z" />
    <glyph glyph-name="Odieresis" unicode="&#xd6;" horiz-adv-x="740" 
d="M354 704q-17 0 -17 17q0 16 17 16t17 -16q0 -17 -17 -17zM554 704q-17 0 -17 17q0 16 17 16t17 -16q0 -17 -17 -17zM363 -13q-149 0 -229.5 97t-55.5 247q21 123 115 203t217 80q152 0 233 -97t54 -247q-20 -123 -114.5 -203t-219.5 -80zM363 -3q121 0 212 77.5
t111 196.5q26 145 -52 239t-224 94q-119 0 -210 -77.5t-111 -196.5q-25 -145 52.5 -239t221.5 -94z" />
    <glyph glyph-name="multiply" unicode="&#xd7;" horiz-adv-x="520" 
d="M456 428l-178 -178l178 -179l-7 -7l-178 179l-180 -180l-7 7l180 180l-180 179l7 7l180 -179l178 178z" />
    <glyph glyph-name="Oslash" unicode="&#xd8;" horiz-adv-x="740" 
d="M727 600l-101 -85q80 -96 53 -245q-20 -123 -114.5 -203t-219.5 -80q-150 0 -231 98l-109 -92l-6 7l110 92q-73 96 -49 239q21 123 115 203t217 80q147 0 228 -92l101 85zM71 330q-24 -137 46 -231l495 416q-78 89 -220 89q-119 0 -210 -77.5t-111 -196.5zM668 271
q26 144 -50 237l-495 -416q76 -95 222 -95q121 0 212 77.5t111 196.5z" />
    <glyph glyph-name="Ugrave" unicode="&#xd9;" 
d="M532 704l-203 97l5 9l203 -98zM319 -14q-118 0 -174.5 79t-29.5 227l57 308h11l-58 -312q-26 -140 27.5 -216t165.5 -76q109 0 179 71.5t93 201.5l58 331h11l-59 -332q-24 -134 -96 -208t-185 -74z" />
    <glyph glyph-name="Uacute" unicode="&#xda;" 
d="M346 703l-4 9l217 98l5 -9zM324 -14q-119 0 -178 79.5t-31 226.5l57 308h11l-58 -312q-28 -139 29 -215.5t171 -76.5q107 0 174.5 70t90.5 203l58 331h11l-59 -332q-23 -135 -92.5 -208.5t-183.5 -73.5z" />
    <glyph glyph-name="Ucircumflex" unicode="&#xdb;" 
d="M455 810l-157 -126l-6 8l165 132l116 -132l-8 -7zM648 600h11l-59 -332q-23 -135 -92.5 -208.5t-183.5 -73.5q-119 0 -178 79.5t-31 226.5l57 308h11l-58 -312q-28 -139 29 -215.5t171 -76.5q107 0 174.5 70t90.5 203z" />
    <glyph glyph-name="Udieresis" unicode="&#xdc;" 
d="M338 714q-17 0 -17 17q0 16 17 16t17 -16q0 -17 -17 -17zM538 714q-17 0 -17 17q0 16 17 16t17 -16q0 -17 -17 -17zM324 -14q-119 0 -178 79.5t-31 226.5l57 308h11l-58 -312q-28 -139 29 -215.5t171 -76.5q107 0 174.5 70t90.5 203l58 331h11l-59 -332
q-23 -135 -92.5 -208.5t-183.5 -73.5z" />
    <glyph glyph-name="Yacute" unicode="&#xdd;" horiz-adv-x="580" 
d="M510 801l-218 -98l-4 9l217 98zM596 600h11q-25 -154 -102.5 -240.5t-190.5 -86.5h-7l-48 -273h-11l48 274q-113 6 -161 92t-21 234h11q-28 -149 22 -233t167 -84q108 0 182 83.5t100 233.5z" />
    <glyph glyph-name="Thorn" unicode="&#xde;" horiz-adv-x="578" 
d="M71 0l106 600h11l-19 -108h160q114 0 169 -54t39 -151q-15 -84 -86.5 -131.5t-183.5 -47.5h-166l-19 -108h-11zM103 118h166q107 0 176 45.5t82 126.5q15 91 -37.5 141.5t-162.5 50.5h-160z" />
    <glyph glyph-name="germandbls" unicode="&#xdf;" horiz-adv-x="584" 
d="M347 -12q-81 0 -122 56l9 8q36 -54 111 -54q59 0 102 37t53 92q4 24 0.5 42.5t-16 34.5t-22 25t-28.5 23q-24 18 -36 29.5t-21.5 33t-4.5 47.5q3 17 13 36.5t17 29t26 34.5q54 67 62 113q10 54 -23.5 88.5t-94.5 34.5q-81 0 -138 -63t-77 -178l-80 -457h-11l80 457
q21 120 81.5 185.5t145.5 65.5q67 0 103 -38t25 -97q-10 -49 -65 -118q-48 -61 -54 -95q-5 -32 10 -53t49 -47q27 -21 40.5 -34t24.5 -40t5 -59q-10 -55 -54 -97t-110 -42z" />
    <glyph glyph-name="agrave" unicode="&#xe0;" horiz-adv-x="524" 
d="M381 501l-7 -7l-130 129l8 8zM462 400h11l-70 -400h-11l18 104q-27 -53 -76 -84.5t-108 -31.5q-89 0 -142.5 66.5t-35.5 165.5q16 82 75.5 136.5t143.5 54.5q72 0 117.5 -40.5t53.5 -107.5zM226 -2q75 0 130 51.5t67 131.5q20 96 -24 158t-131 62q-79 0 -136.5 -50.5
t-72.5 -131.5q-17 -90 31.5 -155.5t135.5 -65.5z" />
    <glyph glyph-name="aacute" unicode="&#xe1;" horiz-adv-x="524" 
d="M421 623l-175 -129l-6 7l175 130zM462 400h11l-70 -400h-11l18 104q-27 -53 -76 -84.5t-108 -31.5q-89 0 -142.5 66.5t-35.5 165.5q16 82 75.5 136.5t143.5 54.5q72 0 117.5 -40.5t53.5 -107.5zM226 -2q75 0 130 51.5t67 131.5q20 96 -24 158t-131 62q-79 0 -136.5 -50.5
t-72.5 -131.5q-17 -90 31.5 -155.5t135.5 -65.5z" />
    <glyph glyph-name="acircumflex" unicode="&#xe2;" horiz-adv-x="524" 
d="M332 610l-157 -126l-6 8l165 132l116 -132l-8 -7zM462 400h11l-70 -400h-11l18 104q-27 -53 -76 -84.5t-108 -31.5q-89 0 -142.5 66.5t-35.5 165.5q16 82 75.5 136.5t143.5 54.5q72 0 117.5 -40.5t53.5 -107.5zM226 -2q75 0 130 51.5t67 131.5q20 96 -24 158t-131 62
q-79 0 -136.5 -50.5t-72.5 -131.5q-17 -90 31.5 -155.5t135.5 -65.5z" />
    <glyph glyph-name="atilde" unicode="&#xe3;" horiz-adv-x="524" 
d="M248 590q-28 0 -47.5 -25t-19.5 -63h-11q0 42 23 70t56 28t72 -46q36 -44 67 -44q29 0 48 25t19 63h11q0 -43 -22.5 -70.5t-56.5 -27.5q-35 0 -74 47q-11 14 -18 21.5t-20 14.5t-27 7zM462 400h11l-70 -400h-11l18 104q-27 -53 -76 -84.5t-108 -31.5q-89 0 -142.5 66.5
t-35.5 165.5q16 82 75.5 136.5t143.5 54.5q72 0 117.5 -40.5t53.5 -107.5zM226 -2q75 0 130 51.5t67 131.5q20 96 -24 158t-131 62q-79 0 -136.5 -50.5t-72.5 -131.5q-17 -90 31.5 -155.5t135.5 -65.5z" />
    <glyph glyph-name="adieresis" unicode="&#xe4;" horiz-adv-x="524" 
d="M222 554q-17 0 -17 17q0 16 17 16t17 -16q0 -17 -17 -17zM422 554q-17 0 -17 17q0 16 17 16t17 -16q0 -17 -17 -17zM462 400h11l-70 -400h-11l18 104q-27 -53 -76 -84.5t-108 -31.5q-89 0 -142.5 66.5t-35.5 165.5q16 82 75.5 136.5t143.5 54.5q72 0 117.5 -40.5
t53.5 -107.5zM226 -2q75 0 130 51.5t67 131.5q20 96 -24 158t-131 62q-79 0 -136.5 -50.5t-72.5 -131.5q-17 -90 31.5 -155.5t135.5 -65.5z" />
    <glyph glyph-name="aring" unicode="&#xe5;" horiz-adv-x="524" 
d="M313 487q-40 0 -65 25t-25 64t25 64t65 25t65 -25t25 -64t-25 -64t-65 -25zM313 655q-35 0 -57 -22.5t-22 -56.5t22 -56.5t57 -22.5t57 22.5t22 56.5t-22 56.5t-57 22.5zM462 400h11l-70 -400h-11l18 104q-27 -53 -76 -84.5t-108 -31.5q-89 0 -142.5 66.5t-35.5 165.5
q16 82 75.5 136.5t143.5 54.5q72 0 117.5 -40.5t53.5 -107.5zM226 -2q75 0 130 51.5t67 131.5q20 96 -24 158t-131 62q-79 0 -136.5 -50.5t-72.5 -131.5q-17 -90 31.5 -155.5t135.5 -65.5z" />
    <glyph glyph-name="ae" unicode="&#xe6;" horiz-adv-x="823" 
d="M635 411q75 0 115 -52.5t26 -134.5q0 -3 -2 -9l-342 -1l-3 -15q-14 -83 31.5 -142t127.5 -59q78 0 141 54l7 -8q-69 -56 -149 -56q-70 0 -116 42.5t-53 109.5l-25 -140h-11l19 111q-26 -56 -73 -89.5t-106 -33.5q-87 0 -139.5 66.5t-34.5 165.5q16 82 74.5 136.5
t142.5 54.5q69 0 112.5 -39.5t51.5 -105.5l23 134h11l-21 -123q27 62 78.5 98t114.5 36zM220 -2q76 0 129 54t68 139q17 91 -25 150.5t-128 59.5q-78 0 -134.5 -50.5t-70.5 -131.5q-16 -90 30 -155.5t131 -65.5zM766 225q12 77 -25 126.5t-105 49.5q-73 0 -128 -48t-74 -129
z" />
    <glyph glyph-name="ccedilla" unicode="&#xe7;" horiz-adv-x="431" 
d="M232 -12q-94 0 -148 66.5t-36 165.5q15 82 75 136.5t145 54.5q89 0 143 -59l-8 -7q-51 56 -135 56q-79 0 -136.5 -50.5t-72.5 -131.5q-17 -92 32.5 -156.5t140.5 -64.5q73 0 128 43l7 -7q-58 -46 -135 -46zM177 -220h-10l24 135h10z" />
    <glyph glyph-name="egrave" unicode="&#xe8;" horiz-adv-x="488" 
d="M379 501l-7 -7l-130 129l8 8zM281 411q85 0 130.5 -52.5t29.5 -134.5q0 -3 -2 -9l-377 -1q-15 -89 35 -152.5t142 -63.5q86 0 155 59l7 -8q-74 -61 -163 -61q-95 0 -148.5 66t-38.5 160q14 87 78.5 142t151.5 55zM431 225q13 77 -28.5 126.5t-120.5 49.5
q-80 0 -141 -48.5t-77 -128.5z" />
    <glyph glyph-name="eacute" unicode="&#xe9;" horiz-adv-x="488" 
d="M419 623l-175 -129l-6 7l175 130zM281 411q85 0 130.5 -52.5t29.5 -134.5q0 -3 -2 -9l-377 -1q-15 -89 35 -152.5t142 -63.5q86 0 155 59l7 -8q-74 -61 -163 -61q-95 0 -148.5 66t-38.5 160q14 87 78.5 142t151.5 55zM431 225q13 77 -28.5 126.5t-120.5 49.5
q-80 0 -141 -48.5t-77 -128.5z" />
    <glyph glyph-name="ecircumflex" unicode="&#xea;" horiz-adv-x="488" 
d="M330 610l-157 -126l-6 8l165 132l116 -132l-8 -7zM281 411q85 0 130.5 -52.5t29.5 -134.5q0 -3 -2 -9l-377 -1q-15 -89 35 -152.5t142 -63.5q86 0 155 59l7 -8q-74 -61 -163 -61q-95 0 -148.5 66t-38.5 160q14 87 78.5 142t151.5 55zM431 225q13 77 -28.5 126.5
t-120.5 49.5q-80 0 -141 -48.5t-77 -128.5z" />
    <glyph glyph-name="edieresis" unicode="&#xeb;" horiz-adv-x="488" 
d="M220 554q-17 0 -17 17q0 16 17 16t17 -16q0 -17 -17 -17zM420 554q-17 0 -17 17q0 16 17 16t17 -16q0 -17 -17 -17zM281 411q85 0 130.5 -52.5t29.5 -134.5q0 -3 -2 -9l-377 -1q-15 -89 35 -152.5t142 -63.5q86 0 155 59l7 -8q-74 -61 -163 -61q-95 0 -148.5 66
t-38.5 160q14 87 78.5 142t151.5 55zM431 225q13 77 -28.5 126.5t-120.5 49.5q-80 0 -141 -48.5t-77 -128.5z" />
    <glyph glyph-name="igrave" unicode="&#xec;" horiz-adv-x="233" 
d="M232 494l-130 129l8 8l129 -130zM76 0l70 400h11l-70 -400h-11z" />
    <glyph glyph-name="iacute" unicode="&#xed;" horiz-adv-x="233" 
d="M104 494l-6 7l175 130l6 -8zM76 0l70 400h11l-70 -400h-11z" />
    <glyph glyph-name="icircumflex" unicode="&#xee;" horiz-adv-x="233" 
d="M277 491l-8 -6l-80 123l-126 -124l-7 7l135 132zM76 0l70 400h11l-70 -400h-11z" />
    <glyph glyph-name="idieresis" unicode="&#xef;" horiz-adv-x="233" 
d="M115 554q-17 0 -17 17q0 16 17 16t17 -16q0 -17 -17 -17zM245 554q-17 0 -17 17q0 16 17 16t17 -16q0 -17 -17 -17zM76 0l70 400h11l-70 -400h-11z" />
    <glyph glyph-name="eth" unicode="&#xf0;" horiz-adv-x="490" 
d="M474 683l-128 -80q64 -69 95 -163t15 -185q-22 -126 -82 -196.5t-151 -70.5q-100 0 -147 70t-28 162q16 80 74 130t137 50q63 0 113.5 -32t75.5 -88q10 84 -21 169t-91 148l-166 -105l-5 9l164 103q-76 76 -166 88l3 10q96 -14 173 -92l129 82zM224 -2q87 0 144.5 69
t76.5 192q-23 61 -73 96t-113 35q-75 0 -129.5 -47t-70.5 -125q-18 -91 27 -155.5t138 -64.5z" />
    <glyph glyph-name="ntilde" unicode="&#xf1;" horiz-adv-x="518" 
d="M247 590q-28 0 -47.5 -25t-19.5 -63h-11q0 42 23 70t56 28t72 -46q36 -44 67 -44q29 0 48 25t19 63h11q0 -43 -22.5 -70.5t-56.5 -27.5q-35 0 -74 47q-11 14 -18 21.5t-20 14.5t-27 7zM315 412q72 0 104.5 -48t18.5 -131l-41 -233h-11l40 229q14 80 -15.5 126.5
t-96.5 46.5q-75 0 -136.5 -55t-77.5 -137l-37 -210h-11l70 400h11l-22 -125q30 62 84.5 99.5t119.5 37.5z" />
    <glyph glyph-name="ograve" unicode="&#xf2;" horiz-adv-x="500" 
d="M367 494l-130 129l8 8l129 -130zM232 -12q-94 0 -148 66.5t-36 165.5q15 82 75 136.5t145 54.5q95 0 148.5 -66t35.5 -166q-16 -87 -77 -139t-143 -52zM232 -2q78 0 135.5 49.5t73.5 132.5q18 96 -32.5 158.5t-140.5 62.5q-79 0 -136.5 -50.5t-72.5 -131.5
q-17 -92 32.5 -156.5t140.5 -64.5z" />
    <glyph glyph-name="oacute" unicode="&#xf3;" horiz-adv-x="500" 
d="M239 494l-6 7l175 130l6 -8zM232 -12q-94 0 -148 66.5t-36 165.5q15 82 75 136.5t145 54.5q95 0 148.5 -66t35.5 -166q-16 -87 -77 -139t-143 -52zM232 -2q78 0 135.5 49.5t73.5 132.5q18 96 -32.5 158.5t-140.5 62.5q-79 0 -136.5 -50.5t-72.5 -131.5
q-17 -92 32.5 -156.5t140.5 -64.5z" />
    <glyph glyph-name="ocircumflex" unicode="&#xf4;" horiz-adv-x="500" 
d="M325 610l-157 -126l-6 8l165 132l116 -132l-8 -7zM268 411q95 0 148.5 -66t35.5 -166q-16 -87 -77 -139t-143 -52q-94 0 -148 66.5t-36 165.5q15 82 75 136.5t145 54.5zM441 180q18 96 -32.5 158.5t-140.5 62.5q-79 0 -136.5 -50.5t-72.5 -131.5q-17 -92 32.5 -156.5
t140.5 -64.5q78 0 135.5 49.5t73.5 132.5z" />
    <glyph glyph-name="otilde" unicode="&#xf5;" horiz-adv-x="500" 
d="M380 500q-35 0 -74 47q-11 14 -18 21.5t-20 14.5t-27 7q-28 0 -47.5 -25t-19.5 -63h-11q0 42 23 70t56 28t72 -46q36 -44 67 -44q29 0 48 25t19 63h11q0 -43 -22.5 -70.5t-56.5 -27.5zM232 -12q-94 0 -148 66.5t-36 165.5q15 82 75 136.5t145 54.5q95 0 148.5 -66
t35.5 -166q-16 -87 -77 -139t-143 -52zM232 -2q78 0 135.5 49.5t73.5 132.5q18 96 -32.5 158.5t-140.5 62.5q-79 0 -136.5 -50.5t-72.5 -131.5q-17 -92 32.5 -156.5t140.5 -64.5z" />
    <glyph glyph-name="odieresis" unicode="&#xf6;" horiz-adv-x="500" 
d="M215 554q-17 0 -17 17q0 16 17 16t17 -16q0 -17 -17 -17zM415 554q-17 0 -17 17q0 16 17 16t17 -16q0 -17 -17 -17zM232 -12q-94 0 -148 66.5t-36 165.5q15 82 75 136.5t145 54.5q95 0 148.5 -66t35.5 -166q-16 -87 -77 -139t-143 -52zM232 -2q78 0 135.5 49.5
t73.5 132.5q18 96 -32.5 158.5t-140.5 62.5q-79 0 -136.5 -50.5t-72.5 -131.5q-17 -92 32.5 -156.5t140.5 -64.5z" />
    <glyph glyph-name="divide" unicode="&#xf7;" horiz-adv-x="520" 
d="M272 458q-17 0 -17 17q0 16 17 16t17 -16q0 -17 -17 -17zM499 245h-460v10h460v-10zM272 -4q-17 0 -17 17q0 16 17 16t17 -16q0 -17 -17 -17z" />
    <glyph glyph-name="oslash" unicode="&#xf8;" horiz-adv-x="500" 
d="M493 400l-72 -60q48 -66 31 -161q-16 -87 -77 -139t-143 -52q-97 0 -151 70l-78 -65l-6 7l79 66q-44 65 -28 154q15 82 75 136.5t145 54.5q93 0 147 -64l72 60zM59 219q-17 -85 25 -147l323 268q-50 61 -139 61q-79 0 -136.5 -50.5t-72.5 -131.5zM441 180q17 92 -29 153
l-323 -268q51 -67 143 -67q78 0 135.5 49.5t73.5 132.5z" />
    <glyph glyph-name="ugrave" unicode="&#xf9;" horiz-adv-x="518" 
d="M383 501l-7 -7l-130 129l8 8zM455 400h11l-70 -400h-11l22 127q-29 -62 -84.5 -100.5t-119.5 -38.5q-72 0 -104.5 48t-18.5 131l41 233h11l-40 -229q-14 -80 15.5 -126.5t96.5 -46.5q75 0 136.5 56t77.5 136z" />
    <glyph glyph-name="uacute" unicode="&#xfa;" horiz-adv-x="518" 
d="M423 623l-175 -129l-6 7l175 130zM455 400h11l-70 -400h-11l22 127q-29 -62 -84.5 -100.5t-119.5 -38.5q-72 0 -104.5 48t-18.5 131l41 233h11l-40 -229q-14 -80 15.5 -126.5t96.5 -46.5q75 0 136.5 56t77.5 136z" />
    <glyph glyph-name="ucircumflex" unicode="&#xfb;" horiz-adv-x="518" 
d="M334 610l-157 -126l-6 8l165 132l116 -132l-8 -7zM455 400h11l-70 -400h-11l22 127q-29 -62 -84.5 -100.5t-119.5 -38.5q-72 0 -104.5 48t-18.5 131l41 233h11l-40 -229q-14 -80 15.5 -126.5t96.5 -46.5q75 0 136.5 56t77.5 136z" />
    <glyph glyph-name="udieresis" unicode="&#xfc;" horiz-adv-x="518" 
d="M224 554q-17 0 -17 17q0 16 17 16t17 -16q0 -17 -17 -17zM424 554q-17 0 -17 17q0 16 17 16t17 -16q0 -17 -17 -17zM455 400h11l-70 -400h-11l22 127q-29 -62 -84.5 -100.5t-119.5 -38.5q-72 0 -104.5 48t-18.5 131l41 233h11l-40 -229q-14 -80 15.5 -126.5t96.5 -46.5
q75 0 136.5 56t77.5 136z" />
    <glyph glyph-name="yacute" unicode="&#xfd;" horiz-adv-x="518" 
d="M416 623l-175 -129l-6 7l175 130zM455 400h11l-73 -418q-18 -101 -70.5 -157t-136.5 -56q-95 0 -141 57l8 7q46 -54 134 -54q78 0 128 52.5t67 150.5l24 135q-29 -60 -83 -94.5t-121 -34.5q-153 0 -120 189l39 223h11l-38 -219q-32 -183 108 -183q76 0 134 46t78 122z
" />
    <glyph glyph-name="thorn" unicode="&#xfe;" horiz-adv-x="524" 
d="M308 412q89 0 142.5 -66.5t35.5 -165.5q-16 -82 -75.5 -136.5t-143.5 -54.5q-72 0 -117.5 40.5t-53.5 107.5l-63 -357h-11l162 920h11l-71 -404q27 53 76 84.5t108 31.5zM475 181q17 90 -31 155.5t-134 65.5q-77 0 -132 -51.5t-67 -131.5q-20 -96 24 -158t131 -62
q79 0 136.5 50.5t72.5 131.5z" />
    <glyph glyph-name="ydieresis" unicode="&#xff;" horiz-adv-x="518" 
d="M217 554q-17 0 -17 17q0 16 17 16t17 -16q0 -17 -17 -17zM417 554q-17 0 -17 17q0 16 17 16t17 -16q0 -17 -17 -17zM455 400h11l-73 -418q-18 -101 -70.5 -157t-136.5 -56q-95 0 -141 57l8 7q46 -54 134 -54q78 0 128 52.5t67 150.5l24 135q-29 -60 -83 -94.5t-121 -34.5
q-153 0 -120 189l39 223h11l-38 -219q-32 -183 108 -183q76 0 134 46t78 122z" />
    <glyph glyph-name="Amacron" unicode="&#x100;" horiz-adv-x="632" 
d="M260 748h300l-2 -10h-300zM378 600h14l152 -600h-12l-54 213h-320l-128 -213h-12zM164 223h312l-92 366z" />
    <glyph glyph-name="amacron" unicode="&#x101;" horiz-adv-x="524" 
d="M468 548l-2 -10h-300l2 10h300zM462 400h11l-70 -400h-11l18 104q-27 -53 -76 -84.5t-108 -31.5q-89 0 -142.5 66.5t-35.5 165.5q16 82 75.5 136.5t143.5 54.5q72 0 117.5 -40.5t53.5 -107.5zM226 -2q75 0 130 51.5t67 131.5q20 96 -24 158t-131 62q-79 0 -136.5 -50.5
t-72.5 -131.5q-17 -90 31.5 -155.5t135.5 -65.5z" />
    <glyph glyph-name="Abreve" unicode="&#x102;" horiz-adv-x="632" 
d="M398 692q-60 0 -88.5 37t-23.5 97h10q-4 -57 21.5 -90.5t82.5 -33.5q53 0 86.5 33t42.5 91h11q-10 -63 -47 -98.5t-95 -35.5zM532 0l-54 213h-320l-128 -213h-12l360 600h14l152 -600h-12zM164 223h312l-92 366z" />
    <glyph glyph-name="abreve" unicode="&#x103;" horiz-adv-x="524" 
d="M306 492q-60 0 -88.5 37t-23.5 97h10q-4 -57 21.5 -90.5t82.5 -33.5q53 0 86.5 33t42.5 91h11q-10 -63 -47 -98.5t-95 -35.5zM462 400h11l-70 -400h-11l18 104q-27 -53 -76 -84.5t-108 -31.5q-89 0 -142.5 66.5t-35.5 165.5q16 82 75.5 136.5t143.5 54.5
q72 0 117.5 -40.5t53.5 -107.5zM226 -2q75 0 130 51.5t67 131.5q20 96 -24 158t-131 62q-79 0 -136.5 -50.5t-72.5 -131.5q-17 -90 31.5 -155.5t135.5 -65.5z" />
    <glyph glyph-name="Aogonek" unicode="&#x104;" horiz-adv-x="632" 
d="M434 -135q-7 -40 15.5 -61t71.5 -21l-2 -10h-4q-49 0 -74.5 25.5t-17.5 66.5q16 78 108 139l-53 209h-320l-128 -213h-12l360 600h14l152 -600q-95 -56 -110 -135zM164 223h312l-92 366z" />
    <glyph glyph-name="aogonek" unicode="&#x105;" horiz-adv-x="524" 
d="M403 0q-96 -58 -110 -135q-7 -38 16.5 -60t70.5 -22l-2 -10h-4q-48 0 -73.5 25.5t-18.5 66.5q14 77 111 139l17 100q-27 -53 -76 -84.5t-108 -31.5q-89 0 -142.5 66.5t-35.5 165.5q16 82 75.5 136.5t143.5 54.5q72 0 117.5 -40.5t53.5 -107.5l24 137h11zM226 -2
q75 0 130 51.5t67 131.5q20 96 -24 158t-131 62q-79 0 -136.5 -50.5t-72.5 -131.5q-17 -90 31.5 -155.5t135.5 -65.5z" />
    <glyph glyph-name="Cacute" unicode="&#x106;" horiz-adv-x="630" 
d="M338 703l-4 9l217 98l5 -9zM344 -13q-137 0 -215.5 100t-50.5 244q23 124 114.5 203.5t212.5 79.5q147 0 236 -127l-8 -6q-85 123 -227 123q-116 0 -204.5 -75.5t-112.5 -198.5q-27 -137 47.5 -235t209.5 -98q138 0 247 126l8 -7q-111 -129 -257 -129z" />
    <glyph glyph-name="cacute" unicode="&#x107;" horiz-adv-x="431" 
d="M235 494l-6 7l175 130l6 -8zM232 -12q-94 0 -148 66.5t-36 165.5q15 82 75 136.5t145 54.5q89 0 143 -59l-8 -7q-51 56 -135 56q-79 0 -136.5 -50.5t-72.5 -131.5q-17 -92 32.5 -156.5t140.5 -64.5q73 0 128 43l7 -7q-58 -46 -135 -46z" />
    <glyph glyph-name="Ccircumflex" unicode="&#x108;" horiz-adv-x="630" 
d="M447 810l-157 -126l-6 8l165 132l116 -132l-8 -7zM406 604q-116 0 -204.5 -75.5t-112.5 -198.5q-27 -137 47.5 -235t209.5 -98q138 0 247 126l8 -7q-111 -129 -257 -129q-137 0 -215.5 100t-50.5 244q23 124 114.5 203.5t212.5 79.5q147 0 236 -127l-8 -6
q-85 123 -227 123z" />
    <glyph glyph-name="ccircumflex" unicode="&#x109;" horiz-adv-x="431" 
d="M323 624l116 -132l-8 -7l-110 125l-157 -126l-6 8zM268 411q89 0 143 -59l-8 -7q-51 56 -135 56q-79 0 -136.5 -50.5t-72.5 -131.5q-17 -92 32.5 -156.5t140.5 -64.5q73 0 128 43l7 -7q-58 -46 -135 -46q-94 0 -148 66.5t-36 165.5q15 82 75 136.5t145 54.5z" />
    <glyph glyph-name="Cdotaccent" unicode="&#x10a;" horiz-adv-x="630" 
d="M433 731q-17 0 -17 17q0 16 17 16t17 -16q0 -17 -17 -17zM344 -13q-137 0 -215.5 100t-50.5 244q23 124 114.5 203.5t212.5 79.5q147 0 236 -127l-8 -6q-85 123 -227 123q-116 0 -204.5 -75.5t-112.5 -198.5q-27 -137 47.5 -235t209.5 -98q138 0 247 126l8 -7
q-111 -129 -257 -129z" />
    <glyph glyph-name="cdotaccent" unicode="&#x10b;" horiz-adv-x="431" 
d="M311 554q-17 0 -17 17q0 16 17 16t17 -16q0 -17 -17 -17zM232 -12q-94 0 -148 66.5t-36 165.5q15 82 75 136.5t145 54.5q89 0 143 -59l-8 -7q-51 56 -135 56q-79 0 -136.5 -50.5t-72.5 -131.5q-17 -92 32.5 -156.5t140.5 -64.5q73 0 128 43l7 -7q-58 -46 -135 -46z" />
    <glyph glyph-name="Ccaron" unicode="&#x10c;" horiz-adv-x="630" 
d="M583 816l-165 -132l-116 132l8 7l110 -125l157 126zM406 604q-116 0 -204.5 -75.5t-112.5 -198.5q-27 -137 47.5 -235t209.5 -98q138 0 247 126l8 -7q-111 -129 -257 -129q-137 0 -215.5 100t-50.5 244q23 124 114.5 203.5t212.5 79.5q147 0 236 -127l-8 -6
q-85 123 -227 123z" />
    <glyph glyph-name="ccaron" unicode="&#x10d;" horiz-adv-x="431" 
d="M457 616l-165 -132l-116 132l8 7l110 -125l157 126zM268 411q89 0 143 -59l-8 -7q-51 56 -135 56q-79 0 -136.5 -50.5t-72.5 -131.5q-17 -92 32.5 -156.5t140.5 -64.5q73 0 128 43l7 -7q-58 -46 -135 -46q-94 0 -148 66.5t-36 165.5q15 82 75 136.5t145 54.5z" />
    <glyph glyph-name="Dcaron" unicode="&#x10e;" horiz-adv-x="669" 
d="M545 816l-165 -132l-116 132l8 7l110 -125l157 126zM342 600q149 0 229 -88t58 -225q-24 -135 -123 -211t-260 -76h-175l106 600h165zM618 289q22 132 -55.5 216.5t-222.5 84.5h-154l-102 -580h164q155 0 250.5 73.5t119.5 205.5z" />
    <glyph glyph-name="dcaron" unicode="&#x10f;" horiz-adv-x="534" 
d="M438 263l77 437h11l-123 -700h-11l18 104q-27 -53 -76 -84.5t-108 -31.5q-89 0 -142.5 66.5t-35.5 165.5q16 82 75.5 136.5t143.5 54.5q72 0 117.5 -40.5t53.5 -107.5zM616 700h10l-36 -211l-11 -5zM224 -2q77 0 132 51.5t67 131.5q20 96 -24 158t-131 62
q-79 0 -136.5 -50.5t-72.5 -131.5q-17 -90 31 -155.5t134 -65.5z" />
    <glyph glyph-name="Dcroat" unicode="&#x110;" horiz-adv-x="669" 
d="M342 600q149 0 229 -88t58 -225q-24 -135 -123 -211t-260 -76h-175l52 295h-90l2 10h90l52 295h165zM618 289q22 132 -55.5 216.5t-222.5 84.5h-154l-50 -285h179l-2 -10h-179l-50 -285h164q155 0 250.5 73.5t119.5 205.5z" />
    <glyph glyph-name="dcroat" unicode="&#x111;" horiz-adv-x="534" 
d="M579 535l-2 -10h-82l-92 -525h-11l18 104q-27 -53 -76 -84.5t-108 -31.5q-89 0 -142.5 66.5t-35.5 165.5q16 82 75.5 136.5t143.5 54.5q72 0 117.5 -40.5t53.5 -107.5l46 262h-187l2 10h187l29 165h11l-29 -165h82zM224 -2q77 0 132 51.5t67 131.5q20 96 -24 158t-131 62
q-79 0 -136.5 -50.5t-72.5 -131.5q-17 -90 31 -155.5t134 -65.5z" />
    <glyph glyph-name="Emacron" unicode="&#x112;" horiz-adv-x="580" 
d="M563 748l-2 -10h-300l2 10h300zM590 590h-404l-49 -277h384l-1 -10h-384l-52 -293h414l-2 -10h-425l106 600h415z" />
    <glyph glyph-name="emacron" unicode="&#x113;" horiz-adv-x="488" 
d="M166 548h300l-2 -10h-300zM281 411q85 0 130.5 -52.5t29.5 -134.5q0 -3 -2 -9l-377 -1q-15 -89 35 -152.5t142 -63.5q86 0 155 59l7 -8q-74 -61 -163 -61q-95 0 -148.5 66t-38.5 160q14 87 78.5 142t151.5 55zM431 225q13 77 -28.5 126.5t-120.5 49.5q-80 0 -141 -48.5
t-77 -128.5z" />
    <glyph glyph-name="Ebreve" unicode="&#x114;" horiz-adv-x="580" 
d="M401 692q-60 0 -88.5 37t-23.5 97h10q-4 -57 21.5 -90.5t82.5 -33.5q53 0 86.5 33t42.5 91h11q-10 -63 -47 -98.5t-95 -35.5zM590 590h-404l-49 -277h384l-1 -10h-384l-52 -293h414l-2 -10h-425l106 600h415z" />
    <glyph glyph-name="ebreve" unicode="&#x115;" horiz-adv-x="488" 
d="M304 492q-60 0 -88.5 37t-23.5 97h10q-4 -57 21.5 -90.5t82.5 -33.5q53 0 86.5 33t42.5 91h11q-10 -63 -47 -98.5t-95 -35.5zM281 411q85 0 130.5 -52.5t29.5 -134.5q0 -3 -2 -9l-377 -1q-15 -89 35 -152.5t142 -63.5q86 0 155 59l7 -8q-74 -61 -163 -61q-95 0 -148.5 66
t-38.5 160q14 87 78.5 142t151.5 55zM431 225q13 77 -28.5 126.5t-120.5 49.5q-80 0 -141 -48.5t-77 -128.5z" />
    <glyph glyph-name="Edotaccent" unicode="&#x116;" horiz-adv-x="580" 
d="M413 731q-17 0 -17 17q0 16 17 16t17 -16q0 -17 -17 -17zM590 590h-404l-49 -277h384l-1 -10h-384l-52 -293h414l-2 -10h-425l106 600h415z" />
    <glyph glyph-name="edotaccent" unicode="&#x117;" horiz-adv-x="488" 
d="M320 554q-17 0 -17 17q0 16 17 16t17 -16q0 -17 -17 -17zM281 411q85 0 130.5 -52.5t29.5 -134.5q0 -3 -2 -9l-377 -1q-15 -89 35 -152.5t142 -63.5q86 0 155 59l7 -8q-74 -61 -163 -61q-95 0 -148.5 66t-38.5 160q14 87 78.5 142t151.5 55zM431 225q13 77 -28.5 126.5
t-120.5 49.5q-80 0 -141 -48.5t-77 -128.5z" />
    <glyph glyph-name="Eogonek" unicode="&#x118;" horiz-adv-x="580" 
d="M590 590h-404l-49 -277h384l-1 -10h-384l-52 -293h414l-2 -10q-95 -56 -110 -135q-7 -40 15.5 -61t71.5 -21l-2 -10h-4q-49 0 -74.5 25.5t-17.5 66.5q14 75 102 135h-406l106 600h415z" />
    <glyph glyph-name="eogonek" unicode="&#x119;" horiz-adv-x="488" 
d="M281 411q85 0 130.5 -52.5t29.5 -134.5q0 -3 -2 -9l-377 -1q-15 -89 35 -152.5t142 -63.5q86 0 155 59l7 -8q-100 -100 -113 -171q-7 -41 15.5 -63t70.5 -22l-2 -10h-4q-51 0 -75 25t-16 71q13 61 88 145q-59 -36 -127 -36q-95 0 -148.5 66t-38.5 160q14 87 78.5 142
t151.5 55zM431 225q13 77 -28.5 126.5t-120.5 49.5q-80 0 -141 -48.5t-77 -128.5z" />
    <glyph glyph-name="Ecaron" unicode="&#x11a;" horiz-adv-x="580" 
d="M563 816l-165 -132l-116 132l8 7l110 -125l157 126zM590 590h-404l-49 -277h384l-1 -10h-384l-52 -293h414l-2 -10h-425l106 600h415z" />
    <glyph glyph-name="ecaron" unicode="&#x11b;" horiz-adv-x="488" 
d="M466 616l-165 -132l-116 132l8 7l110 -125l157 126zM281 411q85 0 130.5 -52.5t29.5 -134.5q0 -3 -2 -9l-377 -1q-15 -89 35 -152.5t142 -63.5q86 0 155 59l7 -8q-74 -61 -163 -61q-95 0 -148.5 66t-38.5 160q14 87 78.5 142t151.5 55zM431 225q13 77 -28.5 126.5
t-120.5 49.5q-80 0 -141 -48.5t-77 -128.5z" />
    <glyph glyph-name="Gcircumflex" unicode="&#x11c;" horiz-adv-x="739" 
d="M471 810l-157 -126l-6 8l165 132l116 -132l-8 -7zM380 307h321v-7q-18 -140 -112.5 -226.5t-228.5 -86.5q-148 0 -228.5 100t-53.5 244q24 128 118.5 205.5t225.5 77.5q147 0 231 -87l-9 -7q-81 84 -223 84q-125 0 -216.5 -74.5t-115.5 -199.5q-26 -140 51.5 -236.5
t220.5 -96.5q130 0 220.5 83t107.5 217h-311z" />
    <glyph glyph-name="gcircumflex" unicode="&#x11d;" horiz-adv-x="524" 
d="M330 610l-157 -126l-6 8l165 132l116 -132l-8 -7zM462 400h11l-73 -418q-18 -102 -78.5 -157.5t-151.5 -55.5q-92 0 -141 49l8 7q46 -46 134 -46t144.5 53t73.5 150l21 123q-27 -54 -76 -85.5t-108 -31.5q-89 0 -142.5 66.5t-35.5 165.5q16 82 75.5 136.5t143.5 54.5
q72 0 117.5 -40.5t53.5 -108.5zM224 -2q77 0 132 51.5t67 131.5q20 96 -24 158t-131 62q-79 0 -136.5 -50.5t-72.5 -131.5q-17 -90 31 -155.5t134 -65.5z" />
    <glyph glyph-name="Gbreve" unicode="&#x11e;" horiz-adv-x="739" 
d="M445 692q-60 0 -88.5 37t-23.5 97h10q-4 -57 21.5 -90.5t82.5 -33.5q53 0 86.5 33t42.5 91h11q-10 -63 -47 -98.5t-95 -35.5zM380 307h321v-7q-18 -140 -112.5 -226.5t-228.5 -86.5q-148 0 -228.5 100t-53.5 244q24 128 118.5 205.5t225.5 77.5q147 0 231 -87l-9 -7
q-81 84 -223 84q-125 0 -216.5 -74.5t-115.5 -199.5q-26 -140 51.5 -236.5t220.5 -96.5q130 0 220.5 83t107.5 217h-311z" />
    <glyph glyph-name="gbreve" unicode="&#x11f;" horiz-adv-x="524" 
d="M304 492q-60 0 -88.5 37t-23.5 97h10q-4 -57 21.5 -90.5t82.5 -33.5q53 0 86.5 33t42.5 91h11q-10 -63 -47 -98.5t-95 -35.5zM462 400h11l-73 -418q-18 -102 -78.5 -157.5t-151.5 -55.5q-92 0 -141 49l8 7q46 -46 134 -46t144.5 53t73.5 150l21 123q-27 -54 -76 -85.5
t-108 -31.5q-89 0 -142.5 66.5t-35.5 165.5q16 82 75.5 136.5t143.5 54.5q72 0 117.5 -40.5t53.5 -108.5zM224 -2q77 0 132 51.5t67 131.5q20 96 -24 158t-131 62q-79 0 -136.5 -50.5t-72.5 -131.5q-17 -90 31 -155.5t134 -65.5z" />
    <glyph glyph-name="Gdotaccent" unicode="&#x120;" horiz-adv-x="739" 
d="M457 731q-17 0 -17 17q0 16 17 16t17 -16q0 -17 -17 -17zM380 307h321v-7q-18 -140 -112.5 -226.5t-228.5 -86.5q-148 0 -228.5 100t-53.5 244q24 128 118.5 205.5t225.5 77.5q147 0 231 -87l-9 -7q-81 84 -223 84q-125 0 -216.5 -74.5t-115.5 -199.5
q-26 -140 51.5 -236.5t220.5 -96.5q130 0 220.5 83t107.5 217h-311z" />
    <glyph glyph-name="gdotaccent" unicode="&#x121;" horiz-adv-x="524" 
d="M320 554q-17 0 -17 17q0 16 17 16t17 -16q0 -17 -17 -17zM462 400h11l-73 -418q-18 -102 -78.5 -157.5t-151.5 -55.5q-92 0 -141 49l8 7q46 -46 134 -46t144.5 53t73.5 150l21 123q-27 -54 -76 -85.5t-108 -31.5q-89 0 -142.5 66.5t-35.5 165.5q16 82 75.5 136.5
t143.5 54.5q72 0 117.5 -40.5t53.5 -108.5zM224 -2q77 0 132 51.5t67 131.5q20 96 -24 158t-131 62q-79 0 -136.5 -50.5t-72.5 -131.5q-17 -90 31 -155.5t134 -65.5z" />
    <glyph glyph-name="Gcommaaccent" unicode="&#x122;" horiz-adv-x="739" 
d="M380 307h321v-7q-18 -140 -112.5 -226.5t-228.5 -86.5q-148 0 -228.5 100t-53.5 244q24 128 118.5 205.5t225.5 77.5q147 0 231 -87l-9 -7q-81 84 -223 84q-125 0 -216.5 -74.5t-115.5 -199.5q-26 -140 51.5 -236.5t220.5 -96.5q130 0 220.5 83t107.5 217h-311zM302 -220
l65 163l11 -3l-66 -163z" />
    <glyph glyph-name="gcommaaccent" unicode="&#x123;" horiz-adv-x="524" 
d="M365 674l-76 -192l-10 4l77 192zM462 400h11l-73 -418q-18 -102 -78.5 -157.5t-151.5 -55.5q-92 0 -141 49l8 7q46 -46 134 -46t144.5 53t73.5 150l21 123q-27 -54 -76 -85.5t-108 -31.5q-89 0 -142.5 66.5t-35.5 165.5q16 82 75.5 136.5t143.5 54.5q72 0 117.5 -40.5
t53.5 -108.5zM224 -2q77 0 132 51.5t67 131.5q20 96 -24 158t-131 62q-79 0 -136.5 -50.5t-72.5 -131.5q-17 -90 31 -155.5t134 -65.5z" />
    <glyph glyph-name="Hcircumflex" unicode="&#x124;" horiz-adv-x="693" 
d="M458 810l-157 -126l-6 8l165 132l116 -132l-8 -7zM647 600h11l-106 -600h-11l54 303h-459l-54 -303h-11l106 600h11l-51 -287h459z" />
    <glyph glyph-name="hcircumflex" unicode="&#x125;" horiz-adv-x="518" 
d="M304 644l-110 125l-157 -126l-6 8l165 132l116 -132zM324 412q72 0 104.5 -48t18.5 -131l-41 -233h-11l40 229q14 80 -15.5 126.5t-96.5 46.5q-76 0 -138 -56.5t-77 -140.5l-36 -205h-11l105 600h11l-57 -327q30 63 85 101t119 38z" />
    <glyph glyph-name="Hbar" unicode="&#x126;" horiz-adv-x="693" 
d="M647 600h11l-106 -600h-11l33 187h-459l-33 -187h-11l106 600h11l-32 -183h459zM117 197h459l37 210h-459z" />
    <glyph glyph-name="hbar" unicode="&#x127;" horiz-adv-x="527" 
d="M324 412q72 0 104.5 -48t18.5 -131l-41 -233h-11l40 229q14 80 -15.5 126.5t-96.5 46.5q-75 0 -136.5 -55.5t-77.5 -138.5l-37 -208h-11l92 525h-87l2 10h87l29 165h11l-29 -165h182l-2 -10h-182l-44 -252q30 62 85 100.5t119 38.5z" />
    <glyph glyph-name="Itilde" unicode="&#x128;" horiz-adv-x="283" 
d="M307 700q-35 0 -74 47q-11 14 -18 21.5t-20 14.5t-27 7q-28 0 -47.5 -25t-19.5 -63h-11q0 42 23 70t56 28t72 -46q36 -44 67 -44q29 0 48 25t19 63h11q0 -43 -22.5 -70.5t-56.5 -27.5zM101 0l106 600h11l-106 -600h-11z" />
    <glyph glyph-name="itilde" unicode="&#x129;" horiz-adv-x="233" 
d="M245 500q-35 0 -74 47q-11 14 -18 21.5t-20 14.5t-27 7q-28 0 -47.5 -25t-19.5 -63h-11q0 42 23 70t56 28t72 -46q36 -44 67 -44q29 0 48 25t19 63h11q0 -43 -22.5 -70.5t-56.5 -27.5zM76 0l70 400h11l-70 -400h-11z" />
    <glyph glyph-name="Imacron" unicode="&#x12a;" horiz-adv-x="283" 
d="M346 738h-220l2 10h220zM101 0l106 600h11l-106 -600h-11z" />
    <glyph glyph-name="imacron" unicode="&#x12b;" horiz-adv-x="233" 
d="M284 538h-220l2 10h220zM76 0l70 400h11l-70 -400h-11z" />
    <glyph glyph-name="Ibreve" unicode="&#x12c;" horiz-adv-x="283" 
d="M124 826q-4 -57 21.5 -90.5t82.5 -33.5q53 0 86.5 33t42.5 91h11q-10 -63 -47 -98.5t-95 -35.5q-60 0 -88.5 37t-23.5 97h10zM101 0l106 600h11l-106 -600h-11z" />
    <glyph glyph-name="ibreve" unicode="&#x12d;" horiz-adv-x="233" 
d="M103 626q-12 -59 9 -91.5t63 -32.5q39 0 65 34.5t35 89.5h11q-11 -64 -40 -99t-73 -35q-46 0 -69.5 36t-11.5 98h11zM76 0l70 400h11l-70 -400h-11z" />
    <glyph glyph-name="Iogonek" unicode="&#x12e;" horiz-adv-x="283" 
d="M112 0q-95 -56 -110 -135q-7 -40 15.5 -61t71.5 -21l-2 -10h-4q-49 0 -74.5 25.5t-17.5 66.5q16 80 111 141l105 594h11z" />
    <glyph glyph-name="iogonek" unicode="&#x12f;" horiz-adv-x="233" 
d="M180 587q17 0 17 -16q0 -17 -17 -17t-17 17q0 16 17 16zM87 0q-56 -47 -69 -116q-8 -47 14 -74t69 -27l-1 -10h-4q-51 0 -74.5 30t-14.5 81q12 66 70 119l69 397h11z" />
    <glyph glyph-name="Idotaccent" unicode="&#x130;" horiz-adv-x="283" 
d="M238 731q-17 0 -17 17q0 16 17 16t17 -16q0 -17 -17 -17zM101 0l106 600h11l-106 -600h-11z" />
    <glyph glyph-name="dotlessi" unicode="&#x131;" horiz-adv-x="233" 
d="M76 0l70 400h11l-70 -400h-11z" />
    <glyph glyph-name="IJ" unicode="&#x132;" horiz-adv-x="667" 
d="M116 229q-17 -98 38.5 -165.5t152.5 -67.5q96 0 166 64t89 168l66 372h11l-66 -372q-20 -109 -92.5 -175.5t-172.5 -66.5q-103 0 -161.5 70.5t-41.5 172.5l2 12h11zM126 349l44 251h11l-44 -251h-11z" />
    <glyph glyph-name="ij" unicode="&#x133;" horiz-adv-x="518" 
d="M158 554q-17 0 -17 17q0 16 17 16t17 -16q0 -17 -17 -17zM483 587q17 0 17 -16q0 -17 -17 -17t-17 17q0 16 17 16zM414 166l41 234h11l-73 -418q-18 -101 -70.5 -157t-136.5 -56q-95 0 -141 57l8 7q46 -54 134 -54q78 0 128 52.5t67 150.5l24 135q-29 -60 -83 -94.5
t-121 -34.5q-153 0 -120 189l39 223h11l-38 -219q-32 -183 108 -183q76 0 134 46t78 122z" />
    <glyph glyph-name="Jcircumflex" unicode="&#x134;" horiz-adv-x="308" 
d="M395 692l-8 -7l-110 125l-157 -126l-6 8l165 132zM134 49l97 551h11l-97 -552q-16 -96 -77.5 -151t-151.5 -55h-24l2 10h26q83 0 140.5 53t73.5 144z" />
    <glyph glyph-name="jcircumflex" unicode="&#x135;" horiz-adv-x="233" 
d="M277 491l-8 -6l-80 123l-126 -124l-7 7l135 132zM37 -220l109 620h11l-109 -620h-11z" />
    <glyph glyph-name="Kcommaaccent" unicode="&#x136;" horiz-adv-x="635" 
d="M328 308q118 -19 175 -101.5t35 -206.5h-11q25 136 -48 219.5t-217 83.5h-126l-54 -303h-11l106 600h11l-51 -287h126q135 0 236.5 81t124.5 206h11q-19 -112 -103.5 -192t-203.5 -100zM230 -220l65 163l11 -3l-66 -163z" />
    <glyph glyph-name="kcommaaccent" unicode="&#x137;" horiz-adv-x="490" 
d="M458 410q-14 -80 -73.5 -134.5t-149.5 -71.5q84 -13 124.5 -67.5t26.5 -136.5h-11q16 91 -36 144.5t-156 53.5h-76l-35 -198h-11l123 700h11l-86 -492h55q112 0 189 55t94 147h11zM150 -221l65 163l11 -2l-66 -163z" />
    <glyph glyph-name="Lacute" unicode="&#x139;" horiz-adv-x="523" 
d="M331 801l-218 -98l-4 9l217 98zM84 10h384l-2 -10h-395l106 600h11z" />
    <glyph glyph-name="lacute" unicode="&#x13a;" horiz-adv-x="223" 
d="M116 665l-4 9l217 98l5 -9zM71 0l105 600h11l-105 -600h-11z" />
    <glyph glyph-name="Lcommaaccent" unicode="&#x13b;" horiz-adv-x="523" 
d="M84 10h384l-2 -10h-395l106 600h11zM206 -220l65 163l11 -3l-66 -163z" />
    <glyph glyph-name="lcommaaccent" unicode="&#x13c;" horiz-adv-x="203" 
d="M61 0l123 700h11l-123 -700h-11zM7 -223l-10 2l65 163l11 -2z" />
    <glyph glyph-name="Lcaron" unicode="&#x13d;" horiz-adv-x="523" 
d="M188 600l-104 -590h384l-2 -10h-395l106 600h11zM490 600l-43 -251l-11 -5l44 256h10z" />
    <glyph glyph-name="lcaron" unicode="&#x13e;" horiz-adv-x="203" 
d="M61 0l123 700h11l-123 -700h-11zM295 699l-36 -211l-11 -5l37 216h10z" />
    <glyph glyph-name="Ldot" unicode="&#x13f;" horiz-adv-x="523" 
d="M84 10h384l-2 -10h-395l106 600h11zM413 285q-17 0 -17 17q0 16 17 16t17 -16q0 -17 -17 -17z" />
    <glyph glyph-name="ldot" unicode="&#x140;" horiz-adv-x="203" 
d="M61 0l123 700h11l-123 -700h-11zM224 316q-17 0 -17 17q0 16 17 16t17 -16q0 -17 -17 -17z" />
    <glyph glyph-name="Lslash" unicode="&#x141;" horiz-adv-x="533" 
d="M94 10h384l-2 -10h-395l47 266l-122 -61l-3 9l127 64l57 322h11l-56 -316l194 98l5 -9l-201 -101z" />
    <glyph glyph-name="lslash" unicode="&#x142;" horiz-adv-x="223" 
d="M283 428l-141 -85l-60 -343h-11l59 336l-133 -80l-5 8l140 84l62 352h11l-60 -344l133 80z" />
    <glyph glyph-name="Nacute" unicode="&#x143;" horiz-adv-x="683" 
d="M562 801l-218 -98l-4 9l217 98zM637 600h11l-106 -600h-11l-346 584l-103 -584h-11l106 600h11l346 -584z" />
    <glyph glyph-name="nacute" unicode="&#x144;" horiz-adv-x="518" 
d="M420 623l-175 -129l-6 7l175 130zM315 412q72 0 104.5 -48t18.5 -131l-41 -233h-11l40 229q14 80 -15.5 126.5t-96.5 46.5q-75 0 -136.5 -55t-77.5 -137l-37 -210h-11l70 400h11l-22 -125q30 62 84.5 99.5t119.5 37.5z" />
    <glyph glyph-name="Ncommaaccent" unicode="&#x145;" horiz-adv-x="683" 
d="M637 600h11l-106 -600h-11l-346 584l-103 -584h-11l106 600h11l346 -584zM244 -220l65 163l11 -3l-66 -163z" />
    <glyph glyph-name="ncommaaccent" unicode="&#x146;" horiz-adv-x="518" 
d="M315 412q72 0 104.5 -48t18.5 -131l-41 -233h-11l40 229q14 80 -15.5 126.5t-96.5 46.5q-75 0 -136.5 -55t-77.5 -137l-37 -210h-11l70 400h11l-22 -125q30 62 84.5 99.5t119.5 37.5zM159 -221l65 163l11 -2l-66 -163z" />
    <glyph glyph-name="Ncaron" unicode="&#x147;" horiz-adv-x="683" 
d="M589 816l-165 -132l-116 132l8 7l110 -125l157 126zM637 600h11l-106 -600h-11l-346 584l-103 -584h-11l106 600h11l346 -584z" />
    <glyph glyph-name="ncaron" unicode="&#x148;" horiz-adv-x="518" 
d="M467 616l-165 -132l-116 132l8 7l110 -125l157 126zM315 412q72 0 104.5 -48t18.5 -131l-41 -233h-11l40 229q14 80 -15.5 126.5t-96.5 46.5q-75 0 -136.5 -55t-77.5 -137l-37 -210h-11l70 400h11l-22 -125q30 62 84.5 99.5t119.5 37.5z" />
    <glyph glyph-name="Eng" unicode="&#x14a;" horiz-adv-x="704" 
d="M456 614q110 0 152.5 -74t18.5 -210l-49 -282q-37 -206 -229 -206h-24l2 10h26q178 0 214 197l49 281q24 132 -15.5 203t-144.5 71q-121 0 -209.5 -87t-111.5 -216l-53 -301h-11l106 600h11l-36 -207q42 103 123.5 162t180.5 59z" />
    <glyph glyph-name="eng" unicode="&#x14b;" horiz-adv-x="518" 
d="M312 412q75 0 107.5 -48t18.5 -131l-40 -223q-19 -111 -78 -170.5t-146 -59.5h-9l2 10h9q82 0 137 57t74 163l39 219q14 80 -15.5 126.5t-98.5 46.5q-77 0 -137 -53.5t-75 -138.5l-37 -210h-11l70 400h11l-21 -120q29 61 82.5 96.5t117.5 35.5z" />
    <glyph glyph-name="Omacron" unicode="&#x14c;" horiz-adv-x="740" 
d="M605 728h-300l2 10h300zM363 -13q-149 0 -229.5 97t-55.5 247q21 123 115 203t217 80q152 0 233 -97t54 -247q-20 -123 -114.5 -203t-219.5 -80zM363 -3q121 0 212 77.5t111 196.5q26 145 -52 239t-224 94q-119 0 -210 -77.5t-111 -196.5q-25 -145 52.5 -239t221.5 -94z
" />
    <glyph glyph-name="omacron" unicode="&#x14d;" horiz-adv-x="500" 
d="M459 538h-300l2 10h300zM232 -12q-94 0 -148 66.5t-36 165.5q15 82 75 136.5t145 54.5q95 0 148.5 -66t35.5 -166q-16 -87 -77 -139t-143 -52zM232 -2q78 0 135.5 49.5t73.5 132.5q18 96 -32.5 158.5t-140.5 62.5q-79 0 -136.5 -50.5t-72.5 -131.5q-17 -92 32.5 -156.5
t140.5 -64.5z" />
    <glyph glyph-name="Obreve" unicode="&#x14e;" horiz-adv-x="740" 
d="M343 816q-4 -57 21.5 -90.5t82.5 -33.5q53 0 86.5 33t42.5 91h11q-10 -63 -47 -98.5t-95 -35.5q-60 0 -88.5 37t-23.5 97h10zM363 -13q-149 0 -229.5 97t-55.5 247q21 123 115 203t217 80q152 0 233 -97t54 -247q-20 -123 -114.5 -203t-219.5 -80zM363 -3q121 0 212 77.5
t111 196.5q26 145 -52 239t-224 94q-119 0 -210 -77.5t-111 -196.5q-25 -145 52.5 -239t221.5 -94z" />
    <glyph glyph-name="obreve" unicode="&#x14f;" horiz-adv-x="500" 
d="M197 626q-4 -57 21.5 -90.5t82.5 -33.5q53 0 86.5 33t42.5 91h11q-10 -63 -47 -98.5t-95 -35.5q-60 0 -88.5 37t-23.5 97h10zM232 -12q-94 0 -148 66.5t-36 165.5q15 82 75 136.5t145 54.5q95 0 148.5 -66t35.5 -166q-16 -87 -77 -139t-143 -52zM232 -2q78 0 135.5 49.5
t73.5 132.5q18 96 -32.5 158.5t-140.5 62.5q-79 0 -136.5 -50.5t-72.5 -131.5q-17 -92 32.5 -156.5t140.5 -64.5z" />
    <glyph glyph-name="Ohungarumlaut" unicode="&#x150;" horiz-adv-x="740" 
d="M307 693l-4 9l217 98l5 -9zM477 693l-4 9l217 98l5 -9zM363 -13q-149 0 -229.5 97t-55.5 247q21 123 115 203t217 80q152 0 233 -97t54 -247q-20 -123 -114.5 -203t-219.5 -80zM363 -3q121 0 212 77.5t111 196.5q26 145 -52 239t-224 94q-119 0 -210 -77.5t-111 -196.5
q-25 -145 52.5 -239t221.5 -94z" />
    <glyph glyph-name="ohungarumlaut" unicode="&#x151;" horiz-adv-x="500" 
d="M198 494l-6 7l175 130l6 -8zM338 494l-6 7l175 130l6 -8zM232 -12q-94 0 -148 66.5t-36 165.5q15 82 75 136.5t145 54.5q95 0 148.5 -66t35.5 -166q-16 -87 -77 -139t-143 -52zM232 -2q78 0 135.5 49.5t73.5 132.5q18 96 -32.5 158.5t-140.5 62.5q-79 0 -136.5 -50.5
t-72.5 -131.5q-17 -92 32.5 -156.5t140.5 -64.5z" />
    <glyph glyph-name="OE" unicode="&#x152;" horiz-adv-x="980" 
d="M992 600l-2 -10h-465q74 -33 113.5 -106.5t33.5 -170.5h249l-1 -10h-249q-2 -22 -4 -33q-13 -90 -65.5 -159t-130.5 -101h427l-2 -10h-454q-47 -13 -92 -13q-139 0 -218 97.5t-54 246.5q21 123 113.5 203t215.5 80q48 0 92 -14h493zM656 271q23 143 -47.5 238t-201.5 95
q-118 0 -207.5 -76.5t-110.5 -197.5q-24 -145 52 -239t210 -94q119 0 203 76.5t102 197.5z" />
    <glyph glyph-name="oe" unicode="&#x153;" horiz-adv-x="848" 
d="M660 412q78 0 117.5 -49t23.5 -139q0 -3 -2 -9l-356 -1l-3 -15q-16 -88 26 -144.5t124 -56.5q97 0 168 63l7 -8q-75 -65 -174 -65q-74 0 -118.5 43t-47.5 115q-28 -72 -86.5 -115t-129.5 -43q-88 0 -134.5 60t-30.5 153q16 92 83.5 151.5t153.5 59.5q72 0 116 -43
t47 -114q28 71 86.5 114t129.5 43zM208 -2q82 0 143.5 57t77.5 146q16 88 -25.5 144.5t-121.5 56.5q-83 0 -147 -56.5t-80 -145.5q-16 -87 28 -144.5t125 -57.5zM791 225q14 84 -22.5 130.5t-108.5 46.5q-75 0 -134 -49t-80 -129z" />
    <glyph glyph-name="Racute" unicode="&#x154;" horiz-adv-x="654" 
d="M535 801l-218 -98l-4 9l217 98zM436 600q88 0 133.5 -44t32.5 -117q-12 -66 -63.5 -109.5t-127.5 -51.5q171 -40 127 -278h-11q25 136 -22.5 206t-163.5 70h-201l-49 -276h-11l106 600h250zM591 440q12 69 -31 110t-126 41h-239l-53 -305h237q83 0 141.5 42.5t70.5 111.5
z" />
    <glyph glyph-name="racute" unicode="&#x155;" horiz-adv-x="356" 
d="M364 623l-175 -129l-6 7l175 130zM104 237q35 80 103.5 123t159.5 43l-1 -10h-1q-107 0 -179 -60.5t-94 -169.5l-29 -163h-11l70 400h11z" />
    <glyph glyph-name="Rcommaaccent" unicode="&#x156;" horiz-adv-x="654" 
d="M436 600q88 0 133.5 -44t32.5 -117q-12 -66 -63.5 -109.5t-127.5 -51.5q171 -40 127 -278h-11q25 136 -22.5 206t-163.5 70h-201l-49 -276h-11l106 600h250zM591 440q12 69 -31 110t-126 41h-239l-53 -305h237q83 0 141.5 42.5t70.5 111.5zM234 -220l65 163l11 -3
l-66 -163z" />
    <glyph glyph-name="rcommaaccent" unicode="&#x157;" horiz-adv-x="356" 
d="M104 237q35 80 103.5 123t159.5 43l-1 -10h-1q-107 0 -179 -60.5t-94 -169.5l-29 -163h-11l70 400h11zM78 -221l65 163l11 -2l-66 -163z" />
    <glyph glyph-name="Rcaron" unicode="&#x158;" horiz-adv-x="654" 
d="M562 816l-165 -132l-116 132l8 7l110 -125l157 126zM436 600q88 0 133.5 -44t32.5 -117q-12 -66 -63.5 -109.5t-127.5 -51.5q171 -40 127 -278h-11q25 136 -22.5 206t-163.5 70h-201l-49 -276h-11l106 600h250zM591 440q12 69 -31 110t-126 41h-239l-53 -305h237
q83 0 141.5 42.5t70.5 111.5z" />
    <glyph glyph-name="rcaron" unicode="&#x159;" horiz-adv-x="356" 
d="M411 616l-165 -132l-116 132l8 7l110 -125l157 126zM104 237q35 80 103.5 123t159.5 43l-1 -10h-1q-107 0 -179 -60.5t-94 -169.5l-29 -163h-11l70 400h11z" />
    <glyph glyph-name="Sacute" unicode="&#x15a;" horiz-adv-x="600" 
d="M302 703l-4 9l217 98l5 -9zM287 -13q-88 0 -151.5 34.5t-90.5 96.5l9 6q26 -60 86 -93.5t145 -33.5q87 0 153 40t78 107q5 31 -8.5 57t-32.5 41t-53.5 29t-51.5 18.5t-45 11.5q-30 8 -51.5 14t-54.5 21.5t-52.5 33t-30.5 46.5t-3 64q16 67 78.5 100.5t145.5 33.5
q81 0 139.5 -34.5t82.5 -87.5l-9 -6q-25 52 -79.5 85t-134.5 33q-82 0 -140.5 -33t-72.5 -92q-9 -39 5 -69t49.5 -49.5t62.5 -29t69 -20.5q33 -9 53 -15t54 -21t52.5 -31t31 -42.5t6.5 -58.5q-13 -71 -81 -113.5t-158 -42.5z" />
    <glyph glyph-name="sacute" unicode="&#x15b;" horiz-adv-x="398" 
d="M191 494l-6 7l175 130l6 -8zM165 -12q-83 0 -136 58l8 7q49 -55 129 -55q56 0 92.5 25t44.5 63q9 43 -20 69t-82 47q-59 23 -87.5 49t-19.5 72q8 43 49 66.5t94 23.5q79 0 113 -48l-8 -6q-37 44 -106 44q-56 0 -91 -24t-41 -58q-4 -23 3 -41t26.5 -31.5t33 -20
t37.5 -16.5q27 -11 42.5 -19t36.5 -23.5t28.5 -37t1.5 -48.5q-10 -44 -50 -70t-98 -26z" />
    <glyph glyph-name="Scircumflex" unicode="&#x15c;" horiz-adv-x="600" 
d="M411 810l-157 -126l-6 8l165 132l116 -132l-8 -7zM357 614q81 0 139.5 -34.5t82.5 -87.5l-9 -6q-25 52 -79.5 85t-134.5 33q-82 0 -140.5 -33t-72.5 -92q-9 -39 5 -69t49.5 -49.5t62.5 -29t69 -20.5q33 -9 53 -15t54 -21t52.5 -31t31 -42.5t6.5 -58.5q-13 -71 -81 -113.5
t-158 -42.5q-88 0 -151.5 34.5t-90.5 96.5l9 6q26 -60 86 -93.5t145 -33.5q87 0 153 40t78 107q5 31 -8.5 57t-32.5 41t-53.5 29t-51.5 18.5t-45 11.5q-30 8 -51.5 14t-54.5 21.5t-52.5 33t-30.5 46.5t-3 64q16 67 78.5 100.5t145.5 33.5z" />
    <glyph glyph-name="scircumflex" unicode="&#x15d;" horiz-adv-x="398" 
d="M278 623l86 -132l-8 -6l-80 123l-126 -124l-7 7zM237 413q79 0 113 -48l-8 -6q-37 44 -106 44q-56 0 -91 -24t-41 -58q-4 -23 3 -41t26.5 -31.5t33 -20t37.5 -16.5q27 -11 42.5 -19t36.5 -23.5t28.5 -37t1.5 -48.5q-10 -44 -50 -70t-98 -26q-83 0 -136 58l8 7
q49 -55 129 -55q56 0 92.5 25t44.5 63q9 43 -20 69t-82 47q-59 23 -87.5 49t-19.5 72q8 43 49 66.5t94 23.5z" />
    <glyph glyph-name="Scedilla" unicode="&#x15e;" horiz-adv-x="600" 
d="M287 -13q-88 0 -151.5 34.5t-90.5 96.5l9 6q26 -60 86 -93.5t145 -33.5q87 0 153 40t78 107q5 31 -8.5 57t-32.5 41t-53.5 29t-51.5 18.5t-45 11.5q-30 8 -51.5 14t-54.5 21.5t-52.5 33t-30.5 46.5t-3 64q16 67 78.5 100.5t145.5 33.5q81 0 139.5 -34.5t82.5 -87.5l-9 -6
q-25 52 -79.5 85t-134.5 33q-82 0 -140.5 -33t-72.5 -92q-9 -39 5 -69t49.5 -49.5t62.5 -29t69 -20.5q33 -9 53 -15t54 -21t52.5 -31t31 -42.5t6.5 -58.5q-13 -71 -81 -113.5t-158 -42.5zM231 -220h-10l24 135h10z" />
    <glyph glyph-name="scedilla" unicode="&#x15f;" horiz-adv-x="398" 
d="M165 -12q-83 0 -136 58l8 7q49 -55 129 -55q56 0 92.5 25t44.5 63q9 43 -20 69t-82 47q-59 23 -87.5 49t-19.5 72q8 43 49 66.5t94 23.5q79 0 113 -48l-8 -6q-37 44 -106 44q-56 0 -91 -24t-41 -58q-4 -23 3 -41t26.5 -31.5t33 -20t37.5 -16.5q27 -11 42.5 -19
t36.5 -23.5t28.5 -37t1.5 -48.5q-10 -44 -50 -70t-98 -26zM141 -220h-10l24 135h10z" />
    <glyph glyph-name="Scaron" unicode="&#x160;" horiz-adv-x="600" 
d="M547 816l-165 -132l-116 132l8 7l110 -125l157 126zM357 614q81 0 139.5 -34.5t82.5 -87.5l-9 -6q-25 52 -79.5 85t-134.5 33q-82 0 -140.5 -33t-72.5 -92q-9 -39 5 -69t49.5 -49.5t62.5 -29t69 -20.5q33 -9 53 -15t54 -21t52.5 -31t31 -42.5t6.5 -58.5
q-13 -71 -81 -113.5t-158 -42.5q-88 0 -151.5 34.5t-90.5 96.5l9 6q26 -60 86 -93.5t145 -33.5q87 0 153 40t78 107q5 31 -8.5 57t-32.5 41t-53.5 29t-51.5 18.5t-45 11.5q-30 8 -51.5 14t-54.5 21.5t-52.5 33t-30.5 46.5t-3 64q16 67 78.5 100.5t145.5 33.5z" />
    <glyph glyph-name="scaron" unicode="&#x161;" horiz-adv-x="398" 
d="M386 616l-135 -132l-86 132l8 6l80 -123l126 124zM237 413q79 0 113 -48l-8 -6q-37 44 -106 44q-56 0 -91 -24t-41 -58q-4 -23 3 -41t26.5 -31.5t33 -20t37.5 -16.5q27 -11 42.5 -19t36.5 -23.5t28.5 -37t1.5 -48.5q-10 -44 -50 -70t-98 -26q-83 0 -136 58l8 7
q49 -55 129 -55q56 0 92.5 25t44.5 63q9 43 -20 69t-82 47q-59 23 -87.5 49t-19.5 72q8 43 49 66.5t94 23.5z" />
    <glyph glyph-name="uni0162" unicode="&#x162;" horiz-adv-x="593" 
d="M639 600l-2 -10h-266l-104 -590h-11l104 590h-266l2 10h543zM218 -220l24 135h10l-24 -135h-10z" />
    <glyph glyph-name="uni0163" unicode="&#x163;" horiz-adv-x="394" 
d="M158 380l-42 -240q-12 -69 13.5 -105.5t85.5 -36.5q69 0 118 53l8 -5q-51 -58 -128 -58q-63 0 -92 40t-16 112l42 240h-76l1 10h77l16 90h11l-16 -90h212l-1 -10h-213zM157 -220l24 135h10l-24 -135h-10z" />
    <glyph glyph-name="Tcaron" unicode="&#x164;" horiz-adv-x="593" 
d="M544 816l-165 -132l-116 132l8 7l110 -125l157 126zM639 600l-2 -10h-266l-104 -590h-11l104 590h-266l2 10h543z" />
    <glyph glyph-name="tcaron" unicode="&#x165;" horiz-adv-x="394" 
d="M327 700l-36 -211l-11 -5l37 216h10zM158 380l-42 -240q-12 -69 13.5 -105.5t85.5 -36.5q69 0 118 53l8 -5q-51 -58 -128 -58q-63 0 -92 40t-16 112l42 240h-76l1 10h77l16 90h11l-16 -90h212l-1 -10h-213z" />
    <glyph glyph-name="Tbar" unicode="&#x166;" horiz-adv-x="593" 
d="M637 590h-266l-50 -285h135l-2 -10h-135l-52 -295h-11l52 295h-134l2 10h134l50 285h-266l2 10h543z" />
    <glyph glyph-name="tbar" unicode="&#x167;" horiz-adv-x="394" 
d="M371 380h-213l-29 -169h201l-2 -10h-201l-11 -61q-12 -69 13.5 -105.5t85.5 -36.5q69 0 118 53l8 -5q-51 -58 -128 -58q-63 0 -92 40t-16 112l11 61h-68l2 10h68l29 169h-76l1 10h77l16 90h11l-16 -90h212z" />
    <glyph glyph-name="Utilde" unicode="&#x168;" 
d="M510 700q-35 0 -74 47q-11 14 -18 21.5t-20 14.5t-27 7q-28 0 -47.5 -25t-19.5 -63h-11q0 42 23 70t56 28t72 -46q36 -44 67 -44q29 0 48 25t19 63h11q0 -43 -22.5 -70.5t-56.5 -27.5zM319 -14q-118 0 -174.5 79t-29.5 227l57 308h11l-58 -312q-26 -140 27.5 -216
t165.5 -76q109 0 179 71.5t93 201.5l58 331h11l-59 -332q-24 -134 -96 -208t-185 -74z" />
    <glyph glyph-name="utilde" unicode="&#x169;" horiz-adv-x="518" 
d="M250 590q-28 0 -47.5 -25t-19.5 -63h-11q0 42 23 70t56 28t72 -46q36 -44 67 -44q29 0 48 25t19 63h11q0 -43 -22.5 -70.5t-56.5 -27.5q-35 0 -74 47q-11 14 -18 21.5t-20 14.5t-27 7zM418 190l37 210h11l-70 -400h-11l22 127q-29 -62 -84.5 -100.5t-119.5 -38.5
q-72 0 -104.5 48t-18.5 131l41 233h11l-40 -229q-14 -80 15.5 -126.5t96.5 -46.5q75 0 136.5 56t77.5 136z" />
    <glyph glyph-name="Umacron" unicode="&#x16a;" 
d="M589 738h-300l2 10h300zM324 -14q-119 0 -178 79.5t-31 226.5l57 308h11l-58 -312q-28 -139 29 -215.5t171 -76.5q107 0 174.5 70t90.5 203l58 331h11l-59 -332q-23 -135 -92.5 -208.5t-183.5 -73.5z" />
    <glyph glyph-name="umacron" unicode="&#x16b;" horiz-adv-x="518" 
d="M170 548h300l-2 -10h-300zM418 190l37 210h11l-70 -400h-11l22 127q-29 -62 -84.5 -100.5t-119.5 -38.5q-72 0 -104.5 48t-18.5 131l41 233h11l-40 -229q-14 -80 15.5 -126.5t96.5 -46.5q75 0 136.5 56t77.5 136z" />
    <glyph glyph-name="Ubreve" unicode="&#x16c;" 
d="M327 826q-4 -57 21.5 -90.5t82.5 -33.5q53 0 86.5 33t42.5 91h11q-10 -63 -47 -98.5t-95 -35.5q-60 0 -88.5 37t-23.5 97h10zM319 -14q-118 0 -174.5 79t-29.5 227l57 308h11l-58 -312q-26 -140 27.5 -216t165.5 -76q109 0 179 71.5t93 201.5l58 331h11l-59 -332
q-24 -134 -96 -208t-185 -74z" />
    <glyph glyph-name="ubreve" unicode="&#x16d;" horiz-adv-x="518" 
d="M308 492q-60 0 -88.5 37t-23.5 97h10q-4 -57 21.5 -90.5t82.5 -33.5q53 0 86.5 33t42.5 91h11q-10 -63 -47 -98.5t-95 -35.5zM455 400h11l-70 -400h-11l22 127q-29 -62 -84.5 -100.5t-119.5 -38.5q-72 0 -104.5 48t-18.5 131l41 233h11l-40 -229q-14 -80 15.5 -126.5
t96.5 -46.5q75 0 136.5 56t77.5 136z" />
    <glyph glyph-name="Uring" unicode="&#x16e;" 
d="M436 687q-40 0 -65 25t-25 64t25 64t65 25t65 -25t25 -64t-25 -64t-65 -25zM436 697q34 0 56.5 22.5t22.5 56.5t-22.5 56.5t-56.5 22.5t-56.5 -22.5t-22.5 -56.5t22.5 -56.5t56.5 -22.5zM324 -14q-119 0 -178 79.5t-31 226.5l57 308h11l-58 -312q-28 -139 29 -215.5
t171 -76.5q107 0 174.5 70t90.5 203l58 331h11l-59 -332q-23 -135 -92.5 -208.5t-183.5 -73.5z" />
    <glyph glyph-name="uring" unicode="&#x16f;" horiz-adv-x="518" 
d="M315 487q-40 0 -65 25t-25 64t25 64t65 25t65 -25t25 -64t-25 -64t-65 -25zM315 655q-35 0 -57 -22.5t-22 -56.5t22 -56.5t57 -22.5t57 22.5t22 56.5t-22 56.5t-57 22.5zM455 400h11l-70 -400h-11l22 127q-29 -62 -84.5 -100.5t-119.5 -38.5q-72 0 -104.5 48t-18.5 131
l41 233h11l-40 -229q-14 -80 15.5 -126.5t96.5 -46.5q75 0 136.5 56t77.5 136z" />
    <glyph glyph-name="Uhungarumlaut" unicode="&#x170;" 
d="M291 703l-4 9l217 98l5 -9zM461 703l-4 9l217 98l5 -9zM319 -14q-118 0 -174.5 79t-29.5 227l57 308h11l-58 -312q-26 -140 27.5 -216t165.5 -76q109 0 179 71.5t93 201.5l58 331h11l-59 -332q-24 -134 -96 -208t-185 -74z" />
    <glyph glyph-name="uhungarumlaut" unicode="&#x171;" horiz-adv-x="518" 
d="M382 623l-175 -129l-6 7l175 130zM347 494l-6 7l175 130l6 -8zM418 190l37 210h11l-70 -400h-11l22 127q-29 -62 -84.5 -100.5t-119.5 -38.5q-72 0 -104.5 48t-18.5 131l41 233h11l-40 -229q-14 -80 15.5 -126.5t96.5 -46.5q75 0 136.5 56t77.5 136z" />
    <glyph glyph-name="Uogonek" unicode="&#x172;" 
d="M648 600h11l-59 -332q-38 -218 -186 -268q-95 -56 -110 -135q-7 -40 15.5 -61t71.5 -21l-2 -10h-4q-49 0 -74.5 25.5t-17.5 66.5q14 70 90 127q-27 -6 -59 -6q-119 0 -178 79.5t-31 226.5l57 308h11l-58 -312q-28 -139 29 -215.5t171 -76.5q107 0 174.5 70t90.5 203z" />
    <glyph glyph-name="uogonek" unicode="&#x173;" horiz-adv-x="518" 
d="M396 0q-96 -58 -110 -135q-7 -38 16.5 -60t70.5 -22l-2 -10h-4q-48 0 -73.5 25.5t-18.5 66.5q14 77 111 139l21 123q-29 -62 -84.5 -100.5t-119.5 -38.5q-72 0 -104.5 48t-18.5 131l41 233h11l-40 -229q-14 -80 15.5 -126.5t96.5 -46.5q75 0 136.5 56t77.5 136l37 210h11
z" />
    <glyph glyph-name="Wcircumflex" unicode="&#x174;" horiz-adv-x="926" 
d="M574 810l-157 -126l-6 8l165 132l116 -132l-8 -7zM907 604h13l-288 -604h-16l-84 589l-294 -589h-17l-73 604h12l71 -595l294 591h16l84 -591z" />
    <glyph glyph-name="wcircumflex" unicode="&#x175;" horiz-adv-x="752" 
d="M445 610l-157 -126l-6 8l165 132l116 -132l-8 -7zM730 400h12l-230 -400h-14l-88 389l-226 -389h-14l-90 400h11l87 -391l226 391h14l88 -391z" />
    <glyph glyph-name="Ycircumflex" unicode="&#x176;" horiz-adv-x="580" 
d="M401 810l-157 -126l-6 8l165 132l116 -132l-8 -7zM596 600h11q-25 -154 -102.5 -240.5t-190.5 -86.5h-7l-48 -273h-11l48 274q-113 6 -161 92t-21 234h11q-28 -149 22 -233t167 -84q108 0 182 83.5t100 233.5z" />
    <glyph glyph-name="ycircumflex" unicode="&#x177;" horiz-adv-x="518" 
d="M327 610l-157 -126l-6 8l165 132l116 -132l-8 -7zM455 400h11l-73 -418q-18 -101 -70.5 -157t-136.5 -56q-95 0 -141 57l8 7q46 -54 134 -54q78 0 128 52.5t67 150.5l24 135q-29 -60 -83 -94.5t-121 -34.5q-153 0 -120 189l39 223h11l-38 -219q-32 -183 108 -183
q76 0 134 46t78 122z" />
    <glyph glyph-name="Ydieresis" unicode="&#x178;" horiz-adv-x="580" 
d="M284 714q-17 0 -17 17q0 16 17 16t17 -16q0 -17 -17 -17zM484 714q-17 0 -17 17q0 16 17 16t17 -16q0 -17 -17 -17zM596 600h11q-25 -154 -102.5 -240.5t-190.5 -86.5h-7l-48 -273h-11l48 274q-113 6 -161 92t-21 234h11q-28 -149 22 -233t167 -84q108 0 182 83.5
t100 233.5z" />
    <glyph glyph-name="Zacute" unicode="&#x179;" horiz-adv-x="595" 
d="M514 801l-218 -98l-4 9l217 98zM611 591l-558 -567l-14 -14h59h411l-2 -10h-486l2 9l549 558q9 9 25 23h-70h-395l2 10h479z" />
    <glyph glyph-name="zacute" unicode="&#x17a;" horiz-adv-x="440" 
d="M389 623l-175 -129l-6 7l175 130zM433 392l-362 -340l-46 -42h67h273l-1 -10h-355l1 9l357 335l50 46h-67h-269l1 10h352z" />
    <glyph glyph-name="Zdotaccent" unicode="&#x17b;" horiz-adv-x="595" 
d="M391 731q-17 0 -17 17q0 16 17 16t17 -16q0 -17 -17 -17zM611 591l-558 -567l-14 -14h59h411l-2 -10h-486l2 9l549 558q9 9 25 23h-70h-395l2 10h479z" />
    <glyph glyph-name="zdotaccent" unicode="&#x17c;" horiz-adv-x="440" 
d="M290 554q-17 0 -17 17q0 16 17 16t17 -16q0 -17 -17 -17zM433 392l-362 -340l-46 -42h67h273l-1 -10h-355l1 9l357 335l50 46h-67h-269l1 10h352z" />
    <glyph glyph-name="Zcaron" unicode="&#x17d;" horiz-adv-x="595" 
d="M541 816l-165 -132l-116 132l8 7l110 -125l157 126zM611 591l-558 -567l-14 -14h59h411l-2 -10h-486l2 9l549 558q9 9 25 23h-70h-395l2 10h479z" />
    <glyph glyph-name="zcaron" unicode="&#x17e;" horiz-adv-x="440" 
d="M436 616l-165 -132l-116 132l8 7l110 -125l157 126zM81 390l1 10h352l-1 -8l-362 -340l-46 -42h67h273l-1 -10h-355l1 9l357 335l50 46h-67h-269z" />
    <glyph glyph-name="longs" unicode="&#x17f;" horiz-adv-x="316" 
d="M81 0l84 478q20 117 75.5 173.5t149.5 56.5h33l-2 -10h-33q-89 0 -141 -54t-71 -166l-84 -478h-11z" />
    <glyph glyph-name="uni018F" unicode="&#x18f;" horiz-adv-x="710" 
d="M382 614q149 0 229.5 -97t55.5 -247q-21 -123 -115 -203t-217 -80q-130 0 -206 88.5t-57 222.5h588q14 135 -63.5 220.5t-214.5 85.5q-79 0 -147.5 -28t-115.5 -77l-7 7q49 51 119.5 79.5t150.5 28.5zM335 -3q119 0 210 77.5t111 196.5l3 17h-576q-16 -126 57 -208.5
t195 -82.5z" />
    <glyph glyph-name="uni01CD" unicode="&#x1cd;" horiz-adv-x="632" 
d="M560 816l-165 -132l-116 132l8 7l110 -125l157 126zM378 600h14l152 -600h-12l-54 213h-320l-128 -213h-12zM164 223h312l-92 366z" />
    <glyph glyph-name="uni01CE" unicode="&#x1ce;" horiz-adv-x="524" 
d="M468 616l-165 -132l-116 132l8 7l110 -125l157 126zM462 400h11l-70 -400h-11l18 104q-27 -53 -76 -84.5t-108 -31.5q-89 0 -142.5 66.5t-35.5 165.5q16 82 75.5 136.5t143.5 54.5q72 0 117.5 -40.5t53.5 -107.5zM226 -2q75 0 130 51.5t67 131.5q20 96 -24 158t-131 62
q-79 0 -136.5 -50.5t-72.5 -131.5q-17 -90 31.5 -155.5t135.5 -65.5z" />
    <glyph glyph-name="uni01CF" unicode="&#x1cf;" horiz-adv-x="283" 
d="M382 824l6 -8l-165 -132l-116 132l8 7l110 -125zM101 0l106 600h11l-106 -600h-11z" />
    <glyph glyph-name="uni01D0" unicode="&#x1d0;" horiz-adv-x="233" 
d="M292 623l7 -7l-135 -132l-86 132l8 6l80 -123zM76 0l70 400h11l-70 -400h-11z" />
    <glyph glyph-name="uni01D1" unicode="&#x1d1;" horiz-adv-x="740" 
d="M607 806l-165 -132l-116 132l8 7l110 -125l157 126zM410 614q152 0 233 -97t54 -247q-20 -123 -114.5 -203t-219.5 -80q-149 0 -229.5 97t-55.5 247q21 123 115 203t217 80zM686 271q26 145 -52 239t-224 94q-119 0 -210 -77.5t-111 -196.5q-25 -145 52.5 -239t221.5 -94
q121 0 212 77.5t111 196.5z" />
    <glyph glyph-name="uni01D2" unicode="&#x1d2;" horiz-adv-x="500" 
d="M461 616l-165 -132l-116 132l8 7l110 -125l157 126zM268 411q95 0 148.5 -66t35.5 -166q-16 -87 -77 -139t-143 -52q-94 0 -148 66.5t-36 165.5q15 82 75 136.5t145 54.5zM441 180q18 96 -32.5 158.5t-140.5 62.5q-79 0 -136.5 -50.5t-72.5 -131.5q-17 -92 32.5 -156.5
t140.5 -64.5q78 0 135.5 49.5t73.5 132.5z" />
    <glyph glyph-name="uni01D3" unicode="&#x1d3;" 
d="M591 816l-165 -132l-116 132l8 7l110 -125l157 126zM648 600h11l-59 -332q-24 -134 -96 -208t-185 -74q-118 0 -174.5 79t-29.5 227l57 308h11l-58 -312q-26 -140 27.5 -216t165.5 -76q109 0 179 71.5t93 201.5z" />
    <glyph glyph-name="uni01D4" unicode="&#x1d4;" horiz-adv-x="518" 
d="M470 616l-165 -132l-116 132l8 7l110 -125l157 126zM418 190l37 210h11l-70 -400h-11l22 127q-29 -62 -84.5 -100.5t-119.5 -38.5q-72 0 -104.5 48t-18.5 131l41 233h11l-40 -229q-14 -80 15.5 -126.5t96.5 -46.5q75 0 136.5 56t77.5 136z" />
    <glyph glyph-name="uni01D5" unicode="&#x1d5;" 
d="M607 858h-300l2 10h300zM334 721q-17 0 -17 17q0 16 17 16t17 -16q0 -17 -17 -17zM534 721q-17 0 -17 17q0 16 17 16t17 -16q0 -17 -17 -17zM324 -14q-119 0 -178 79.5t-31 226.5l57 308h11l-58 -312q-28 -139 29 -215.5t171 -76.5q107 0 174.5 70t90.5 203l58 331h11
l-59 -332q-23 -135 -92.5 -208.5t-183.5 -73.5z" />
    <glyph glyph-name="uni01D6" unicode="&#x1d6;" horiz-adv-x="518" 
d="M188 668h300l-2 -10h-300zM230 538q0 -17 -17 -17t-17 17q0 16 17 16t17 -16zM430 538q0 -17 -17 -17t-17 17q0 16 17 16t17 -16zM418 190l37 210h11l-70 -400h-11l22 127q-29 -62 -84.5 -100.5t-119.5 -38.5q-72 0 -104.5 48t-18.5 131l41 233h11l-40 -229
q-14 -80 15.5 -126.5t96.5 -46.5q75 0 136.5 56t77.5 136z" />
    <glyph glyph-name="uni01D7" unicode="&#x1d7;" 
d="M343 823l-4 9l217 98l5 -9zM333 721q-17 0 -17 17q0 16 17 16t17 -16q0 -17 -17 -17zM533 721q-17 0 -17 17q0 16 17 16t17 -16q0 -17 -17 -17zM324 -14q-119 0 -178 79.5t-31 226.5l57 308h11l-58 -312q-28 -139 29 -215.5t171 -76.5q107 0 174.5 70t90.5 203l58 331h11
l-59 -332q-23 -135 -92.5 -208.5t-183.5 -73.5z" />
    <glyph glyph-name="uni01D8" unicode="&#x1d8;" horiz-adv-x="518" 
d="M440 721l-218 -98l-4 9l217 98zM212 521q-17 0 -17 17q0 16 17 16t17 -16q0 -17 -17 -17zM395 538q0 16 17 16t17 -16q0 -17 -17 -17t-17 17zM455 400h11l-70 -400h-11l22 127q-29 -62 -84.5 -100.5t-119.5 -38.5q-72 0 -104.5 48t-18.5 131l41 233h11l-40 -229
q-14 -80 15.5 -126.5t96.5 -46.5q75 0 136.5 56t77.5 136z" />
    <glyph glyph-name="uni01D9" unicode="&#x1d9;" 
d="M613 943l-165 -132l-116 132l8 7l110 -125l157 126zM334 721q-17 0 -17 17q0 16 17 16t17 -16q0 -17 -17 -17zM517 738q0 16 17 16t17 -16q0 -17 -17 -17t-17 17zM648 600h11l-59 -332q-23 -135 -92.5 -208.5t-183.5 -73.5q-119 0 -178 79.5t-31 226.5l57 308h11
l-58 -312q-28 -139 29 -215.5t171 -76.5q107 0 174.5 70t90.5 203z" />
    <glyph glyph-name="uni01DA" unicode="&#x1da;" horiz-adv-x="518" 
d="M492 743l-165 -132l-116 132l8 7l110 -125l157 126zM213 521q-17 0 -17 17q0 16 17 16t17 -16q0 -17 -17 -17zM396 538q0 16 17 16t17 -16q0 -17 -17 -17t-17 17zM418 190l37 210h11l-70 -400h-11l22 127q-29 -62 -84.5 -100.5t-119.5 -38.5q-72 0 -104.5 48t-18.5 131
l41 233h11l-40 -229q-14 -80 15.5 -126.5t96.5 -46.5q75 0 136.5 56t77.5 136z" />
    <glyph glyph-name="uni01DB" unicode="&#x1db;" 
d="M549 804l-203 97l5 9l203 -98zM334 721q-17 0 -17 17q0 16 17 16t17 -16q0 -17 -17 -17zM534 721q-17 0 -17 17q0 16 17 16t17 -16q0 -17 -17 -17zM324 -14q-119 0 -178 79.5t-31 226.5l57 308h11l-58 -312q-28 -139 29 -215.5t171 -76.5q107 0 174.5 70t90.5 203l58 331
h11l-59 -332q-23 -135 -92.5 -208.5t-183.5 -73.5z" />
    <glyph glyph-name="uni01DC" unicode="&#x1dc;" horiz-adv-x="518" 
d="M433 612l-5 -8l-203 97l5 9zM213 521q-17 0 -17 17q0 16 17 16t17 -16q0 -17 -17 -17zM413 554q17 0 17 -16q0 -17 -17 -17t-17 17q0 16 17 16zM455 400h11l-70 -400h-11l22 127q-29 -62 -84.5 -100.5t-119.5 -38.5q-72 0 -104.5 48t-18.5 131l41 233h11l-40 -229
q-14 -80 15.5 -126.5t96.5 -46.5q75 0 136.5 56t77.5 136z" />
    <glyph glyph-name="uni01E2" unicode="&#x1e2;" horiz-adv-x="854" 
d="M781 748l-2 -10h-300l2 10h300zM865 590h-391l4 -277h318l-2 -10h-316l5 -293h289l-1 -10h-299l-3 213h-294l-163 -213h-14l460 600h409zM183 223h286l-6 367z" />
    <glyph glyph-name="uni01E3" unicode="&#x1e3;" horiz-adv-x="823" 
d="M638 548l-2 -10h-300l2 10h300zM635 411q75 0 115 -52.5t26 -134.5q0 -3 -2 -9l-342 -1l-3 -15q-14 -83 31.5 -142t127.5 -59q78 0 141 54l7 -8q-69 -56 -149 -56q-70 0 -116 42.5t-53 109.5l-25 -140h-11l19 111q-26 -56 -73 -89.5t-106 -33.5q-87 0 -139.5 66.5
t-34.5 165.5q16 82 74.5 136.5t142.5 54.5q69 0 112.5 -39.5t51.5 -105.5l23 134h11l-21 -123q27 62 78.5 98t114.5 36zM220 -2q76 0 129 54t68 139q17 91 -25 150.5t-128 59.5q-78 0 -134.5 -50.5t-70.5 -131.5q-16 -90 30 -155.5t131 -65.5zM766 225q12 77 -25 126.5
t-105 49.5q-73 0 -128 -48t-74 -129z" />
    <glyph glyph-name="Gcaron" unicode="&#x1e6;" horiz-adv-x="739" 
d="M607 816l-165 -132l-116 132l8 7l110 -125l157 126zM380 307h321v-7q-18 -140 -112.5 -226.5t-228.5 -86.5q-148 0 -228.5 100t-53.5 244q24 128 118.5 205.5t225.5 77.5q147 0 231 -87l-9 -7q-81 84 -223 84q-125 0 -216.5 -74.5t-115.5 -199.5q-26 -140 51.5 -236.5
t220.5 -96.5q130 0 220.5 83t107.5 217h-311z" />
    <glyph glyph-name="gcaron" unicode="&#x1e7;" horiz-adv-x="524" 
d="M466 616l-165 -132l-116 132l8 7l110 -125l157 126zM462 400h11l-73 -418q-18 -102 -78.5 -157.5t-151.5 -55.5q-92 0 -141 49l8 7q46 -46 134 -46t144.5 53t73.5 150l21 123q-27 -54 -76 -85.5t-108 -31.5q-89 0 -142.5 66.5t-35.5 165.5q16 82 75.5 136.5t143.5 54.5
q72 0 117.5 -40.5t53.5 -108.5zM224 -2q77 0 132 51.5t67 131.5q20 96 -24 158t-131 62q-79 0 -136.5 -50.5t-72.5 -131.5q-17 -90 31 -155.5t134 -65.5z" />
    <glyph glyph-name="uni01E8" unicode="&#x1e8;" horiz-adv-x="635" 
d="M575 816l-165 -132l-116 132l8 7l110 -125l157 126zM328 308q118 -19 175 -101.5t35 -206.5h-11q25 136 -48 219.5t-217 83.5h-126l-54 -303h-11l106 600h11l-51 -287h126q135 0 236.5 81t124.5 206h11q-19 -112 -103.5 -192t-203.5 -100z" />
    <glyph glyph-name="uni01E9" unicode="&#x1e9;" horiz-adv-x="490" 
d="M343 794l-165 -132l-116 132l8 7l110 -125l157 126zM458 410q-14 -81 -75.5 -136t-153.5 -70q87 -11 129.5 -66t27.5 -138h-11q16 91 -36 144.5t-156 53.5h-76l-35 -198h-11l105 600h11l-69 -392h56q112 0 189 55t94 147h11z" />
    <glyph glyph-name="uni01EA" unicode="&#x1ea;" horiz-adv-x="740" 
d="M410 614q152 0 233 -97t54 -247q-16 -98 -82 -170.5t-159 -99.5q-95 -56 -110 -135q-7 -40 15.5 -61t71.5 -21l-2 -10h-4q-49 0 -74.5 25.5t-17.5 66.5q14 71 92 128q-31 -6 -64 -6q-149 0 -229.5 97t-55.5 247q21 123 115 203t217 80zM686 271q26 145 -52 239t-224 94
q-119 0 -210 -77.5t-111 -196.5q-25 -145 52.5 -239t221.5 -94q121 0 212 77.5t111 196.5z" />
    <glyph glyph-name="uni01EB" unicode="&#x1eb;" horiz-adv-x="500" 
d="M268 411q95 0 148.5 -66t35.5 -166q-11 -60 -45 -104.5t-83 -66.5q-92 -58 -106 -133q-7 -38 16.5 -60t70.5 -22l-2 -10h-4q-48 0 -73.5 25.5t-18.5 66.5q10 64 85 121q-30 -8 -60 -8q-94 0 -148 66.5t-36 165.5q15 82 75 136.5t145 54.5zM441 180q18 96 -32.5 158.5
t-140.5 62.5q-79 0 -136.5 -50.5t-72.5 -131.5q-17 -92 32.5 -156.5t140.5 -64.5q78 0 135.5 49.5t73.5 132.5z" />
    <glyph glyph-name="AEacute" unicode="&#x1fc;" horiz-adv-x="854" 
d="M754 801l-218 -98l-4 9l217 98zM865 590h-391l4 -277h318l-2 -10h-316l5 -293h289l-1 -10h-299l-3 213h-294l-163 -213h-14l460 600h409zM183 223h286l-6 367z" />
    <glyph glyph-name="aeacute" unicode="&#x1fd;" horiz-adv-x="823" 
d="M591 623l-175 -129l-6 7l175 130zM635 411q75 0 115 -52.5t26 -134.5q0 -3 -2 -9l-342 -1l-3 -15q-14 -83 31.5 -142t127.5 -59q78 0 141 54l7 -8q-69 -56 -149 -56q-70 0 -116 42.5t-53 109.5l-25 -140h-11l19 111q-26 -56 -73 -89.5t-106 -33.5q-87 0 -139.5 66.5
t-34.5 165.5q16 82 74.5 136.5t142.5 54.5q69 0 112.5 -39.5t51.5 -105.5l23 134h11l-21 -123q27 62 78.5 98t114.5 36zM220 -2q76 0 129 54t68 139q17 91 -25 150.5t-128 59.5q-78 0 -134.5 -50.5t-70.5 -131.5q-16 -90 30 -155.5t131 -65.5zM766 225q12 77 -25 126.5
t-105 49.5q-73 0 -128 -48t-74 -129z" />
    <glyph glyph-name="Oslashacute" unicode="&#x1fe;" horiz-adv-x="740" 
d="M590 801l-218 -98l-4 9l217 98zM727 600l-101 -85q80 -96 53 -245q-20 -123 -114.5 -203t-219.5 -80q-150 0 -231 98l-109 -92l-6 7l110 92q-73 96 -49 239q21 123 115 203t217 80q147 0 228 -92l101 85zM71 330q-24 -137 46 -231l495 416q-78 89 -220 89
q-119 0 -210 -77.5t-111 -196.5zM668 271q26 144 -50 237l-495 -416q76 -95 222 -95q121 0 212 77.5t111 196.5z" />
    <glyph glyph-name="oslashacute" unicode="&#x1ff;" horiz-adv-x="500" 
d="M414 623l-175 -129l-6 7l175 130zM493 400l-72 -60q48 -66 31 -161q-16 -87 -77 -139t-143 -52q-97 0 -151 70l-78 -65l-6 7l79 66q-44 65 -28 154q15 82 75 136.5t145 54.5q93 0 147 -64l72 60zM59 219q-17 -85 25 -147l323 268q-50 61 -139 61q-79 0 -136.5 -50.5
t-72.5 -131.5zM441 180q17 92 -29 153l-323 -268q51 -67 143 -67q78 0 135.5 49.5t73.5 132.5z" />
    <glyph glyph-name="Scommaaccent" unicode="&#x218;" horiz-adv-x="600" 
d="M287 -13q-88 0 -151.5 34.5t-90.5 96.5l9 6q26 -60 86 -93.5t145 -33.5q87 0 153 40t78 107q5 31 -8.5 57t-32.5 41t-53.5 29t-51.5 18.5t-45 11.5q-30 8 -51.5 14t-54.5 21.5t-52.5 33t-30.5 46.5t-3 64q16 67 78.5 100.5t145.5 33.5q81 0 139.5 -34.5t82.5 -87.5l-9 -6
q-25 52 -79.5 85t-134.5 33q-82 0 -140.5 -33t-72.5 -92q-9 -39 5 -69t49.5 -49.5t62.5 -29t69 -20.5q33 -9 53 -15t54 -21t52.5 -31t31 -42.5t6.5 -58.5q-13 -71 -81 -113.5t-158 -42.5zM212 -223l-10 3l65 163l11 -3z" />
    <glyph glyph-name="scommaaccent" unicode="&#x219;" horiz-adv-x="398" 
d="M165 -12q-83 0 -136 58l8 7q49 -55 129 -55q56 0 92.5 25t44.5 63q9 43 -20 69t-82 47q-59 23 -87.5 49t-19.5 72q8 43 49 66.5t94 23.5q79 0 113 -48l-8 -6q-37 44 -106 44q-56 0 -91 -24t-41 -58q-4 -23 3 -41t26.5 -31.5t33 -20t37.5 -16.5q27 -11 42.5 -19
t36.5 -23.5t28.5 -37t1.5 -48.5q-10 -44 -50 -70t-98 -26zM120 -223l-10 2l65 163l11 -2z" />
    <glyph glyph-name="uni021A" unicode="&#x21a;" horiz-adv-x="593" 
d="M639 600l-2 -10h-266l-104 -590h-11l104 590h-266l2 10h543zM199 -220l65 163l11 -3l-66 -163z" />
    <glyph glyph-name="uni021B" unicode="&#x21b;" horiz-adv-x="394" 
d="M158 380l-42 -240q-12 -69 13.5 -105.5t85.5 -36.5q69 0 118 53l8 -5q-51 -58 -128 -58q-63 0 -92 40t-16 112l42 240h-76l1 10h77l16 90h11l-16 -90h212l-1 -10h-213zM136 -221l65 163l11 -2l-66 -163z" />
    <glyph glyph-name="uni0232" unicode="&#x232;" horiz-adv-x="580" 
d="M537 748l-2 -10h-300l2 10h300zM596 600h11q-25 -154 -102.5 -240.5t-190.5 -86.5h-7l-48 -273h-11l48 274q-113 6 -161 92t-21 234h11q-28 -149 22 -233t167 -84q108 0 182 83.5t100 233.5z" />
    <glyph glyph-name="uni0233" unicode="&#x233;" horiz-adv-x="518" 
d="M463 548l-2 -10h-300l2 10h300zM455 400h11l-73 -418q-18 -101 -70.5 -157t-136.5 -56q-95 0 -141 57l8 7q46 -54 134 -54q78 0 128 52.5t67 150.5l24 135q-29 -60 -83 -94.5t-121 -34.5q-153 0 -120 189l39 223h11l-38 -219q-32 -183 108 -183q76 0 134 46t78 122z" />
    <glyph glyph-name="uni0237" unicode="&#x237;" horiz-adv-x="233" 
d="M37 -220l109 620h11l-109 -620h-11z" />
    <glyph glyph-name="uni0259" unicode="&#x259;" horiz-adv-x="488" 
d="M250 412q95 0 148.5 -66t38.5 -160q-14 -87 -78.5 -142t-151.5 -55q-85 0 -130.5 52.5t-29.5 134.5q0 3 2 9l377 1q15 89 -35 152.5t-142 63.5q-86 0 -155 -59l-7 8q74 61 163 61zM206 -1q80 0 141 48.5t77 128.5l-367 -1q-13 -77 28.5 -126.5t120.5 -49.5z" />
    <glyph glyph-name="circumflex" unicode="&#x2c6;" horiz-adv-x="381" 
d="M382 492l-8 -7l-110 125l-157 -126l-6 8l165 132z" />
    <glyph glyph-name="caron" unicode="&#x2c7;" horiz-adv-x="381" 
d="M398 624l6 -8l-165 -132l-116 132l8 7l110 -125z" />
    <glyph glyph-name="breve" unicode="&#x2d8;" horiz-adv-x="354" 
d="M135 626q-4 -57 21.5 -90.5t82.5 -33.5q53 0 86.5 33t42.5 91h11q-10 -63 -47 -98.5t-95 -35.5q-60 0 -88.5 37t-23.5 97h10z" />
    <glyph glyph-name="dotaccent" unicode="&#x2d9;" horiz-adv-x="135" 
d="M133 554q-17 0 -17 17q0 16 17 16t17 -16q0 -17 -17 -17z" />
    <glyph glyph-name="ring" unicode="&#x2da;" horiz-adv-x="283" 
d="M208 487q-40 0 -65 25t-25 64t25 64t65 25t65 -25t25 -64t-25 -64t-65 -25zM208 497q34 0 56.5 22.5t22.5 56.5t-22.5 56.5t-56.5 22.5t-56.5 -22.5t-22.5 -56.5t22.5 -56.5t56.5 -22.5z" />
    <glyph glyph-name="ogonek" unicode="&#x2db;" horiz-adv-x="213" 
d="M83 -227q-48 0 -73.5 25.5t-18.5 66.5q13 78 115 142l6 -7q-96 -58 -110 -135q-7 -38 16.5 -60t70.5 -22l-2 -10h-4z" />
    <glyph glyph-name="tilde" unicode="&#x2dc;" horiz-adv-x="383" 
d="M322 500q-35 0 -74 47q-11 14 -18 21.5t-20 14.5t-27 7q-28 0 -47.5 -25t-19.5 -63h-11q0 42 23 70t56 28t72 -46q36 -44 67 -44q29 0 48 25t19 63h11q0 -43 -22.5 -70.5t-56.5 -27.5z" />
    <glyph glyph-name="hungarumlaut" unicode="&#x2dd;" horiz-adv-x="420" 
d="M139 494l-6 7l175 130l6 -8zM279 494l-6 7l175 130l6 -8z" />
    <glyph glyph-name="gravecomb" unicode="&#x300;" horiz-adv-x="0" 
d="M-22 494l-130 129l8 8l129 -130z" />
    <glyph glyph-name="acutecomb" unicode="&#x301;" horiz-adv-x="0" 
d="M-160 494l-6 7l175 130l6 -8z" />
    <glyph glyph-name="uni0302" unicode="&#x302;" horiz-adv-x="0" 
d="M11 492l-8 -7l-110 125l-157 -126l-6 8l165 132z" />
    <glyph glyph-name="tildecomb" unicode="&#x303;" horiz-adv-x="0" 
d="M-49 500q-35 0 -74 47q-11 14 -18 21.5t-20 14.5t-27 7q-28 0 -47.5 -25t-19.5 -63h-11q0 42 23 70t56 28t72 -46q36 -44 67 -44q29 0 48 25t19 63h11q0 -43 -22.5 -70.5t-56.5 -27.5z" />
    <glyph glyph-name="uni0304" unicode="&#x304;" horiz-adv-x="0" 
d="M30 538h-300l2 10h300z" />
    <glyph glyph-name="uni0306" unicode="&#x306;" horiz-adv-x="0" 
d="M-230 626q-4 -57 21.5 -90.5t82.5 -33.5q53 0 86.5 33t42.5 91h11q-10 -63 -47 -98.5t-95 -35.5q-60 0 -88.5 37t-23.5 97h10z" />
    <glyph glyph-name="uni0307" unicode="&#x307;" horiz-adv-x="0" 
d="M-56 554q-17 0 -17 17q0 16 17 16t17 -16q0 -17 -17 -17z" />
    <glyph glyph-name="uni0308" unicode="&#x308;" horiz-adv-x="0" 
d="M-257 554q-17 0 -17 17q0 16 17 16t17 -16q0 -17 -17 -17zM-57 554q-17 0 -17 17q0 16 17 16t17 -16q0 -17 -17 -17z" />
    <glyph glyph-name="uni030A" unicode="&#x30a;" horiz-adv-x="0" 
d="M-102 487q-40 0 -65 25t-25 64t25 64t65 25t65 -25t25 -64t-25 -64t-65 -25zM-102 497q34 0 56.5 22.5t22.5 56.5t-22.5 56.5t-56.5 22.5t-56.5 -22.5t-22.5 -56.5t22.5 -56.5t56.5 -22.5z" />
    <glyph glyph-name="uni030B" unicode="&#x30b;" horiz-adv-x="0" 
d="M-257 494l-6 7l175 130l6 -8zM-117 494l-6 7l175 130l6 -8z" />
    <glyph glyph-name="uni030C" unicode="&#x30c;" horiz-adv-x="0" 
d="M28 624l6 -8l-165 -132l-116 132l8 7l110 -125z" />
    <glyph glyph-name="uni0312" unicode="&#x312;" horiz-adv-x="0" 
d="M-5 678l9 -4l-76 -192l-10 4z" />
    <glyph glyph-name="uni0326" unicode="&#x326;" horiz-adv-x="0" 
d="M-235 -223l-10 2l65 163l11 -2z" />
    <glyph glyph-name="uni0327" unicode="&#x327;" horiz-adv-x="0" 
d="M-169 -220h-10l24 135h10z" />
    <glyph glyph-name="uni0328" unicode="&#x328;" horiz-adv-x="0" 
d="M-128 -227q-48 0 -73.5 25.5t-18.5 66.5q13 78 115 142l6 -7q-96 -58 -110 -135q-7 -38 16.5 -60t70.5 -22l-2 -10h-4z" />
    <glyph glyph-name="uni0335" unicode="&#x335;" horiz-adv-x="0" 
d="M-41 195h-280l2 10h280z" />
    <glyph glyph-name="uni0336" unicode="&#x336;" horiz-adv-x="0" 
d="M-59 195h-330l2 10h330z" />
    <glyph glyph-name="uni0337" unicode="&#x337;" horiz-adv-x="0" 
d="M-45 340l-286 -172l-5 8l286 172z" />
    <glyph glyph-name="uni0338" unicode="&#x338;" horiz-adv-x="0" 
d="M69 400l-474 -391l-7 6l474 391z" />
    <glyph glyph-name="uni037E" unicode="&#x37e;" horiz-adv-x="249" 
d="M149 282q-17 0 -17 17q0 16 17 16t17 -16q0 -17 -17 -17zM30 -158l-10 4l98 253l10 -4z" />
    <glyph glyph-name="tonos" unicode="&#x384;" horiz-adv-x="211" 
d="M150 483l-10 3l64 153l10 -3z" />
    <glyph glyph-name="dieresistonos" unicode="&#x385;" horiz-adv-x="272" 
d="M199 552l-10 3l64 153l10 -3zM121 484q-17 0 -17 17q0 16 17 16t17 -16q0 -17 -17 -17zM251 484q-17 0 -17 17q0 16 17 16t17 -16q0 -17 -17 -17z" />
    <glyph glyph-name="Alphatonos" unicode="&#x386;" horiz-adv-x="632" 
d="M532 0l-54 213h-320l-128 -213h-12l360 600h14l152 -600h-12zM180 600l-70 -200h-10l69 200h11zM164 223h312l-92 366z" />
    <glyph glyph-name="anoteleia" unicode="&#x387;" horiz-adv-x="246" 
d="M155 367q-17 0 -17 17q0 16 17 16t17 -16q0 -17 -17 -17z" />
    <glyph glyph-name="Epsilontonos" unicode="&#x388;" horiz-adv-x="639" 
d="M119 600h11l-70 -200h-10zM649 590h-404l-49 -277h384l-1 -10h-384l-52 -293h414l-2 -10h-425l106 600h415z" />
    <glyph glyph-name="Etatonos" unicode="&#x389;" horiz-adv-x="752" 
d="M119 600h11l-70 -200h-10zM706 600h11l-106 -600h-11l54 303h-459l-54 -303h-11l106 600h11l-51 -287h459z" />
    <glyph glyph-name="Iotatonos" unicode="&#x38a;" horiz-adv-x="332" 
d="M70 400h-10l69 200h11zM150 0l106 600h11l-106 -600h-11z" />
    <glyph glyph-name="Omicrontonos" unicode="&#x38c;" horiz-adv-x="799" 
d="M422 -13q-149 0 -229.5 97t-55.5 247q21 123 115 203t217 80q152 0 233 -97t54 -247q-20 -123 -114.5 -203t-219.5 -80zM422 -3q121 0 212 77.5t111 196.5q26 145 -52 239t-224 94q-119 0 -210 -77.5t-111 -196.5q-25 -145 52.5 -239t221.5 -94zM60 400h-10l69 200h11z
" />
    <glyph glyph-name="Upsilontonos" unicode="&#x38e;" horiz-adv-x="681" 
d="M40 400l69 200h11l-70 -200h-10zM706 600h13l-334 -420l-31 -180h-11l31 180l-181 420h12l176 -409z" />
    <glyph glyph-name="Omegatonos" unicode="&#x38f;" horiz-adv-x="760" 
d="M738 303q-17 -94 -84 -172.5t-167 -120.5h210l-1 -10h-235l1 10q103 38 175.5 117.5t90.5 177.5q24 129 -50.5 214t-209.5 85q-122 0 -208 -73t-107 -187q-19 -102 23 -195.5t134 -138.5l-1 -10h-235l1 10h213q-85 47 -125 141t-21 195q21 117 111.5 192.5t214.5 75.5
q140 0 217.5 -89.5t52.5 -221.5zM120 600h11l-70 -200h-10z" />
    <glyph glyph-name="iotadieresistonos" unicode="&#x390;" horiz-adv-x="258" 
d="M180 552l-10 3l64 153l10 -3zM102 484q-17 0 -17 17q0 16 17 16t17 -16q0 -17 -17 -17zM232 484q-17 0 -17 17q0 16 17 16t17 -16q0 -17 -17 -17zM169 -5q-95 0 -78 92l55 313h11l-55 -312q-15 -83 69 -83z" />
    <glyph glyph-name="Alpha" unicode="&#x391;" horiz-adv-x="632" 
d="M532 0l-54 213h-320l-128 -213h-12l360 600h14l152 -600h-12zM164 223h312l-92 366z" />
    <glyph glyph-name="Beta" unicode="&#x392;" horiz-adv-x="654" 
d="M602 448q-11 -53 -52.5 -90.5t-99.5 -48.5q75 -11 112 -54t26 -109q-11 -67 -65.5 -106.5t-140.5 -39.5h-302l106 600h252q87 0 132.5 -42.5t31.5 -109.5zM403 313q68 0 121.5 38t66.5 97q13 62 -28.5 102t-126.5 40h-241l-49 -277h257zM578 148q12 71 -36 113t-140 42
h-257l-52 -293h291q80 0 131.5 38t62.5 100z" />
    <glyph glyph-name="Gamma" unicode="&#x393;" horiz-adv-x="518" 
d="M564 600l-2 -10h-376l-104 -590h-11l106 600h387z" />
    <glyph glyph-name="uni0394" unicode="&#x394;" horiz-adv-x="652" 
d="M405 600l159 -600h-546l373 600h14zM36 10h514l-154 580z" />
    <glyph glyph-name="Epsilon" unicode="&#x395;" horiz-adv-x="580" 
d="M590 590h-404l-49 -277h384l-1 -10h-384l-52 -293h414l-2 -10h-425l106 600h415z" />
    <glyph glyph-name="Zeta" unicode="&#x396;" horiz-adv-x="595" 
d="M611 591l-558 -567l-14 -14h59h411l-2 -10h-486l2 9l549 558q9 9 25 23h-70h-395l2 10h479z" />
    <glyph glyph-name="Eta" unicode="&#x397;" horiz-adv-x="693" 
d="M647 600h11l-106 -600h-11l54 303h-459l-54 -303h-11l106 600h11l-51 -287h459z" />
    <glyph glyph-name="Theta" unicode="&#x398;" horiz-adv-x="740" 
d="M410 614q152 0 233 -97t54 -247q-20 -123 -114.5 -203t-219.5 -80q-149 0 -229.5 97t-55.5 247q21 123 115 203t217 80zM410 604q-119 0 -210 -77.5t-111 -196.5q-3 -24 -3 -25h605q12 132 -66 215.5t-215 83.5zM363 -3q121 0 212 77.5t111 196.5q0 4 2 12t2 12h-605
q-11 -132 66 -215t212 -83z" />
    <glyph glyph-name="Iota" unicode="&#x399;" horiz-adv-x="283" 
d="M101 0l106 600h11l-106 -600h-11z" />
    <glyph glyph-name="Kappa" unicode="&#x39a;" horiz-adv-x="635" 
d="M328 308q118 -19 175 -101.5t35 -206.5h-11q25 136 -48 219.5t-217 83.5h-126l-54 -303h-11l106 600h11l-51 -287h126q135 0 236.5 81t124.5 206h11q-19 -112 -103.5 -192t-203.5 -100z" />
    <glyph glyph-name="Lambda" unicode="&#x39b;" horiz-adv-x="632" 
d="M543 0h-11l-147 590l-356 -590h-12l363 600h14z" />
    <glyph glyph-name="Mu" unicode="&#x39c;" horiz-adv-x="826" 
d="M738 600h13l-66 -600h-11l64 582l-341 -502h-10l-163 505l-142 -585h-11l146 600h13l163 -507z" />
    <glyph glyph-name="Nu" unicode="&#x39d;" horiz-adv-x="683" 
d="M637 600h11l-106 -600h-11l-346 584l-103 -584h-11l106 600h11l346 -584z" />
    <glyph glyph-name="Xi" unicode="&#x39e;" horiz-adv-x="630" 
d="M175 590l2 10h418l-2 -10h-418zM123 295l2 10h418l-2 -10h-418zM71 0l1 10h418l-1 -10h-418z" />
    <glyph glyph-name="Omicron" unicode="&#x39f;" horiz-adv-x="740" 
d="M363 -13q-149 0 -229.5 97t-55.5 247q21 123 115 203t217 80q152 0 233 -97t54 -247q-20 -123 -114.5 -203t-219.5 -80zM363 -3q121 0 212 77.5t111 196.5q26 145 -52 239t-224 94q-119 0 -210 -77.5t-111 -196.5q-25 -145 52.5 -239t221.5 -94z" />
    <glyph glyph-name="Pi" unicode="&#x3a0;" horiz-adv-x="693" 
d="M658 600l-106 -600h-11l104 590h-459l-104 -590h-11l106 600h481z" />
    <glyph glyph-name="Rho" unicode="&#x3a1;" horiz-adv-x="578" 
d="M286 216h-166l-38 -216h-11l106 600h171q111 0 167.5 -54.5t37.5 -150.5q-17 -86 -86 -132.5t-181 -46.5zM346 590h-160l-64 -364h166q108 0 174 46t81 126q17 91 -36.5 141.5t-160.5 50.5z" />
    <glyph glyph-name="Sigma" unicode="&#x3a3;" horiz-adv-x="580" 
d="M616 590h-453q-18 -121 56 -199t205 -78h11l-2 -10h-11q-144 0 -239 -77.5t-122 -215.5h452l-1 -10h-464q23 133 105.5 213t210.5 95q-113 18 -171.5 98.5t-38.5 193.5h464z" />
    <glyph glyph-name="Tau" unicode="&#x3a4;" horiz-adv-x="593" 
d="M639 600l-2 -10h-266l-104 -590h-11l104 590h-266l2 10h543z" />
    <glyph glyph-name="Upsilon" unicode="&#x3a5;" horiz-adv-x="632" 
d="M637 600h13l-334 -420l-31 -180h-11l31 180l-181 420h12l176 -409z" />
    <glyph glyph-name="Phi" unicode="&#x3a6;" horiz-adv-x="781" 
d="M466 603q145 -10 222.5 -105.5t49.5 -227.5q-25 -120 -123.5 -196.5t-235.5 -76.5h-20l-17 -97h-11l17 98q-144 10 -220.5 106t-49.5 227q24 120 122 196.5t236 76.5h19l17 96h11zM89 330q-26 -128 47.5 -220t213.5 -102l103 586h-18q-131 0 -226.5 -73t-119.5 -191z
M727 271q27 129 -48.5 220.5t-214.5 101.5l-103 -586h18q133 0 228.5 74t119.5 190z" />
    <glyph glyph-name="Chi" unicode="&#x3a7;" horiz-adv-x="654" 
d="M393 306q95 -20 137 -101.5t19 -204.5h-11q26 137 -29 220t-172 83q-108 0 -188 -83t-103 -220h-11q22 129 93.5 212t170.5 97q-96 19 -138.5 97t-19.5 194h11q-25 -131 31 -209t173 -78q108 0 187 79.5t101 207.5h11q-21 -122 -92 -201t-170 -93z" />
    <glyph glyph-name="Psi" unicode="&#x3a8;" horiz-adv-x="760" 
d="M745 600h11l-22 -120q-27 -146 -122.5 -230t-228.5 -84h-4l-29 -166h-11l29 166q-132 5 -200.5 92.5t-43.5 221.5l22 120h11l-22 -120q-24 -132 42 -215.5t193 -88.5l75 424h11l-75 -424h4q126 0 219 81.5t119 222.5z" />
    <glyph glyph-name="uni03A9" unicode="&#x3a9;" horiz-adv-x="720" 
d="M678 303q-17 -94 -84 -172.5t-167 -120.5h210l-1 -10h-235l1 10q103 38 175.5 117.5t90.5 177.5q24 129 -50.5 214t-209.5 85q-122 0 -208 -73t-107 -187q-19 -102 23 -195.5t134 -138.5l-1 -10h-235l1 10h213q-85 47 -125 141t-21 195q21 117 111.5 192.5t214.5 75.5
q140 0 217.5 -89.5t52.5 -221.5z" />
    <glyph glyph-name="Iotadieresis" unicode="&#x3aa;" horiz-adv-x="283" 
d="M136 714q-17 0 -17 17q0 16 17 16t17 -16q0 -17 -17 -17zM336 714q-17 0 -17 17q0 16 17 16t17 -16q0 -17 -17 -17zM101 0l106 600h11l-106 -600h-11z" />
    <glyph glyph-name="Upsilondieresis" unicode="&#x3ab;" horiz-adv-x="632" 
d="M313 714q-17 0 -17 17q0 16 17 16t17 -16q0 -17 -17 -17zM513 714q-17 0 -17 17q0 16 17 16t17 -16q0 -17 -17 -17zM637 600h13l-334 -420l-31 -180h-11l31 180l-181 420h12l176 -409z" />
    <glyph glyph-name="alphatonos" unicode="&#x3ac;" horiz-adv-x="553" 
d="M386 636l-64 -153l-10 3l64 153zM417 170q5 -40 10.5 -64t17 -50t32.5 -38.5t52 -12.5l-2 -10q-42 0 -67.5 24t-34.5 54.5t-16 81.5q-91 -167 -208 -167q-83 0 -127 68.5t-25 173.5q16 82 66.5 132t131.5 50q33 0 59 -8t43 -27t28 -35.5t18.5 -48t10.5 -50.5t8 -55
q15 30 29.5 64t34.5 83.5t26 64.5h11q-69 -174 -98 -230zM202 -2q115 0 204 174q-14 110 -31 149q-35 81 -127 81q-70 0 -121 -43t-67 -129q-19 -106 23.5 -169t118.5 -63z" />
    <glyph glyph-name="epsilontonos" unicode="&#x3ad;" horiz-adv-x="431" 
d="M340 636l-64 -153l-10 3l64 153zM251 413q48 0 87 -17.5t58 -45.5l-9 -7q-18 27 -54.5 43t-82.5 16q-56 0 -95 -20.5t-47 -55.5q-10 -53 34.5 -84t126.5 -31l-2 -10q-186 0 -207 -96q-11 -52 30.5 -79.5t111.5 -27.5q93 0 154 55l6 -8q-66 -57 -160 -57
q-74 0 -119.5 30.5t-32.5 88.5q17 84 149 100q-57 12 -83.5 45t-18.5 76q8 37 50.5 61t103.5 24z" />
    <glyph glyph-name="etatonos" unicode="&#x3ae;" horiz-adv-x="518" 
d="M377 636l-64 -153l-10 3l64 153zM315 412q72 0 104.5 -48t18.5 -131l-80 -453h-11l79 449q14 80 -15.5 126.5t-96.5 46.5q-75 0 -136.5 -55t-77.5 -137l-37 -210h-11l70 400h11l-22 -125q30 62 84.5 99.5t119.5 37.5z" />
    <glyph glyph-name="iotatonos" unicode="&#x3af;" horiz-adv-x="258" 
d="M171 483l-10 3l64 153l10 -3zM169 -5q-95 0 -78 92l55 313h11l-55 -312q-15 -83 69 -83z" />
    <glyph glyph-name="upsilondieresistonos" unicode="&#x3b0;" horiz-adv-x="521" 
d="M324 552l-10 3l64 153l10 -3zM246 484q-17 0 -17 17q0 16 17 16t17 -16q0 -17 -17 -17zM376 484q-17 0 -17 17q0 16 17 16t17 -16q0 -17 -17 -17zM422 190l37 210h11l-37 -210q-35 -203 -192 -203q-86 0 -129 58t-26 155l35 200h11l-35 -200q-16 -94 23.5 -148.5
t120.5 -54.5q147 0 181 193z" />
    <glyph glyph-name="alpha" unicode="&#x3b1;" horiz-adv-x="553" 
d="M417 170q5 -40 10.5 -64t17 -50t32.5 -38.5t52 -12.5l-2 -10q-42 0 -67.5 24t-34.5 54.5t-16 81.5q-91 -167 -208 -167q-83 0 -127 68.5t-25 173.5q16 82 66.5 132t131.5 50q33 0 59 -8t43 -27t28 -35.5t18.5 -48t10.5 -50.5t8 -55q15 30 29.5 64t34.5 83.5t26 64.5h11
q-69 -174 -98 -230zM202 -2q115 0 204 174q-14 110 -31 149q-35 81 -127 81q-70 0 -121 -43t-67 -129q-19 -106 23.5 -169t118.5 -63z" />
    <glyph glyph-name="beta" unicode="&#x3b2;" horiz-adv-x="494" 
d="M476 525q-13 -61 -59 -105t-113 -57q85 -13 122 -69t22 -136q-16 -79 -70.5 -124.5t-135.5 -45.5q-71 0 -120.5 34t-59.5 91l-59 -333h-11l130 738q14 87 67.5 139.5t134.5 52.5q84 0 126.5 -54.5t25.5 -130.5zM256 367q78 0 136 44.5t73 114.5q16 73 -23.5 123.5
t-117.5 50.5q-76 0 -127 -50t-64 -133l-62 -354q-10 -71 39.5 -118t132.5 -47q76 0 127.5 42.5t66.5 119.5q17 90 -32.5 143.5t-149.5 53.5h-15l1 10h15z" />
    <glyph glyph-name="gamma" unicode="&#x3b3;" horiz-adv-x="483" 
d="M473 400h12q-113 -123 -196 -280t-104 -270l-12 -70h-11l12 70q20 112 -8 269t-98 281h12q61 -105 89.5 -239t21.5 -249q32 114 108 248.5t174 239.5z" />
    <glyph glyph-name="delta" unicode="&#x3b4;" horiz-adv-x="498" 
d="M312 690q-127 0 -142 -89q-11 -72 78 -134l136 -96q39 -28 57.5 -80.5t8.5 -113.5q-14 -81 -74 -135t-142 -54q-98 0 -151 65t-36 165q13 79 75 131.5t142 52.5q44 0 82 -15l-106 73q-94 65 -80 143q17 97 152 97h183l-2 -10h-181zM440 180q15 92 -32.5 152t-142.5 60
q-76 0 -135 -49.5t-72 -124.5q-17 -95 33 -157.5t143 -62.5q78 0 135.5 51.5t70.5 130.5z" />
    <glyph glyph-name="epsilon" unicode="&#x3b5;" horiz-adv-x="431" 
d="M251 413q48 0 87 -17.5t58 -45.5l-9 -7q-18 27 -54.5 43t-82.5 16q-56 0 -95 -20.5t-47 -55.5q-10 -53 34.5 -84t126.5 -31l-2 -10q-186 0 -207 -96q-11 -52 30.5 -79.5t111.5 -27.5q93 0 154 55l6 -8q-66 -57 -160 -57q-74 0 -119.5 30.5t-32.5 88.5q17 84 149 100
q-57 12 -83.5 45t-18.5 76q8 37 50.5 61t103.5 24z" />
    <glyph glyph-name="zeta" unicode="&#x3b6;" horiz-adv-x="450" 
d="M499 690q-76 -29 -169 -109t-168.5 -187t-91.5 -197q-17 -96 21.5 -141.5t138.5 -45.5h140l-22 -130h-11l21 120h-129q-106 0 -146.5 48.5t-22.5 150.5q23 132 156.5 283t257.5 208h-292l2 10h317z" />
    <glyph glyph-name="eta" unicode="&#x3b7;" horiz-adv-x="518" 
d="M315 412q72 0 104.5 -48t18.5 -131l-80 -453h-11l79 449q14 80 -15.5 126.5t-96.5 46.5q-75 0 -136.5 -55t-77.5 -137l-37 -210h-11l70 400h11l-22 -125q30 62 84.5 99.5t119.5 37.5z" />
    <glyph glyph-name="theta" unicode="&#x3b8;" horiz-adv-x="540" 
d="M357 710q100 0 139 -97.5t11 -265.5q-28 -167 -98.5 -263t-171.5 -96q-99 0 -140 94t-12 267q29 170 100.5 265.5t171.5 95.5zM497 353q26 164 -10.5 255.5t-131.5 91.5q-94 0 -161.5 -92t-96.5 -255h400zM237 -2q94 0 161.5 90t96.5 255h-400q-26 -165 11 -255t131 -90z
" />
    <glyph glyph-name="iota" unicode="&#x3b9;" horiz-adv-x="258" 
d="M169 -5q-95 0 -78 92l55 313h11l-55 -312q-15 -83 69 -83z" />
    <glyph glyph-name="kappa" unicode="&#x3ba;" horiz-adv-x="490" 
d="M456 400q-13 -76 -72.5 -128t-148.5 -68q84 -14 124.5 -68t26.5 -136h-11q16 91 -36 144.5t-156 53.5h-76l-35 -198h-11l70 400h11l-34 -192h56q111 0 187.5 52.5t93.5 139.5h11z" />
    <glyph glyph-name="lambda" unicode="&#x3bb;" horiz-adv-x="462" 
d="M392 0h-12l-105 398l-262 -398h-13l272 411l-46 173q-29 106 -105 106h-14l1 10h15q82 0 112 -112z" />
    <glyph glyph-name="uni03BC" unicode="&#x3bc;" horiz-adv-x="533" 
d="M411 88q-14 -83 69 -83l-1 -10q-43 0 -64.5 24.5t-14.5 66.5l7 36q-27 -58 -73.5 -90t-105.5 -32q-60 0 -99 32.5t-46 90.5l-60 -343h-11l109 620h11l-35 -200q-17 -87 21.5 -138.5t109.5 -51.5q72 0 125 52.5t67 137.5l35 200h11z" />
    <glyph glyph-name="nu" unicode="&#x3bd;" horiz-adv-x="462" 
d="M440 400h12l-247 -400h-14l-111 400h11l108 -392z" />
    <glyph glyph-name="xi" unicode="&#x3be;" horiz-adv-x="418" 
d="M370 690q-86 0 -143 -35t-68 -100q-13 -77 33 -127.5t135 -50.5h86l-2 -10h-86q-102 0 -170 -42.5t-85 -116.5q-19 -82 33 -140t147 -58h92l-22 -130h-11l21 120h-81q-100 0 -155 61.5t-35 148.5q16 67 71.5 110t143.5 53q-71 14 -105 64.5t-21 119.5q13 68 72 105.5
t150 37.5h116l-2 -10h-114z" />
    <glyph glyph-name="omicron" unicode="&#x3bf;" horiz-adv-x="500" 
d="M232 -12q-94 0 -148 66.5t-36 165.5q15 82 75 136.5t145 54.5q95 0 148.5 -66t35.5 -166q-16 -87 -77 -139t-143 -52zM232 -2q78 0 135.5 49.5t73.5 132.5q18 96 -32.5 158.5t-140.5 62.5q-79 0 -136.5 -50.5t-72.5 -131.5q-17 -92 32.5 -156.5t140.5 -64.5z" />
    <glyph glyph-name="pi" unicode="&#x3c0;" horiz-adv-x="540" 
d="M430 380l-51 -282q-8 -48 10 -70.5t68 -22.5l-2 -10q-104 0 -87 102l51 283h-269l-67 -380h-11l67 380h-94l2 10h474l-2 -10h-89z" />
    <glyph glyph-name="rho" unicode="&#x3c1;" horiz-adv-x="538" 
d="M308 412q97 0 149 -68t33 -165q-16 -83 -76 -137t-147 -54q-76 0 -126.5 42t-54.5 109l-63 -359h-11l74 420q18 101 77.5 156.5t144.5 55.5zM479 182q18 93 -31 156.5t-140 63.5q-85 0 -142 -57t-69 -145q-14 -96 36 -149t133 -53q82 0 140 51.5t73 132.5z" />
    <glyph glyph-name="uni03C2" unicode="&#x3c2;" horiz-adv-x="428" 
d="M312 -120l21 120h-73q-119 0 -174 63.5t-36 164.5q16 86 75.5 135t145.5 49q94 0 147 -50l-7 -7q-53 47 -140 47q-82 0 -138 -47t-72 -129q-18 -97 34.5 -156.5t167.5 -59.5h82l-22 -130h-11z" />
    <glyph glyph-name="sigma" unicode="&#x3c3;" horiz-adv-x="518" 
d="M540 390l-2 -10h-201q63 -20 95.5 -78t17.5 -133q-16 -83 -77.5 -132t-142.5 -49q-95 0 -149 65t-35 157q16 79 77 129.5t148 50.5h269zM439 170q18 89 -31 149.5t-139 60.5q-78 0 -137 -46.5t-75 -124.5q-18 -88 32.5 -149.5t141.5 -61.5q77 0 134.5 46.5t73.5 125.5z
" />
    <glyph glyph-name="tau" unicode="&#x3c4;" horiz-adv-x="428" 
d="M243 380l-45 -252q-12 -69 10 -96t82 -27l-2 -10q-64 0 -88.5 30.5t-12.5 101.5l45 253h-177l2 10h373l-2 -10h-185z" />
    <glyph glyph-name="upsilon" unicode="&#x3c5;" horiz-adv-x="521" 
d="M422 190l37 210h11l-37 -210q-35 -203 -192 -203q-86 0 -129 58t-26 155l35 200h11l-35 -200q-16 -94 23.5 -148.5t120.5 -54.5q147 0 181 193z" />
    <glyph glyph-name="phi" unicode="&#x3c6;" horiz-adv-x="560" 
d="M323 406q101 -8 156 -72t37 -155q-17 -82 -86 -134t-167 -52h-14l-37 -213h-11l37 214q-101 8 -156.5 71.5t-37.5 155.5q16 82 85 134t168 52h15l51 293h11zM55 220q-17 -86 35.5 -147.5t149.5 -68.5l70 393h-13q-93 0 -159.5 -48.5t-82.5 -128.5zM505 182
q18 87 -34.5 146.5t-149.5 67.5l-70 -393h12q93 0 159.5 49.5t82.5 129.5z" />
    <glyph glyph-name="chi" unicode="&#x3c7;" horiz-adv-x="460" 
d="M442 400l-234 -310l125 -310h-12l-121 301l-226 -301h-13l235 310l-126 310h12l122 -301l225 301h13z" />
    <glyph glyph-name="psi" unicode="&#x3c8;" horiz-adv-x="644" 
d="M582 400h11l-26 -150q-23 -128 -93.5 -192.5t-175.5 -64.5h-6l-38 -213h-11l38 213q-101 6 -153.5 73t-32.5 184l26 150h11l-26 -149q-20 -114 29.5 -178.5t146.5 -69.5l123 697h11l-123 -697h6q101 0 168.5 63t88.5 185z" />
    <glyph glyph-name="omega" unicode="&#x3c9;" horiz-adv-x="761" 
d="M655 400q53 -91 33 -214q-16 -94 -67.5 -146t-119.5 -52q-58 0 -97 36.5t-38 93.5q-22 -64 -67.5 -97t-99.5 -33q-70 0 -108.5 52t-21.5 148q22 121 107 212h12q-85 -92 -108 -214q-16 -91 19.5 -139.5t99.5 -48.5t110.5 46t58.5 116l28 160h11l-28 -160
q-12 -68 22.5 -115t99.5 -47q64 0 112.5 49.5t63.5 139.5q20 121 -34 213h12z" />
    <glyph glyph-name="iotadieresis" unicode="&#x3ca;" horiz-adv-x="258" 
d="M117 554q-17 0 -17 17q0 16 17 16t17 -16q0 -17 -17 -17zM247 554q-17 0 -17 17q0 16 17 16t17 -16q0 -17 -17 -17zM169 -5q-95 0 -78 92l55 313h11l-55 -312q-15 -83 69 -83z" />
    <glyph glyph-name="upsilondieresis" unicode="&#x3cb;" horiz-adv-x="521" 
d="M226 554q-17 0 -17 17q0 16 17 16t17 -16q0 -17 -17 -17zM426 554q-17 0 -17 17q0 16 17 16t17 -16q0 -17 -17 -17zM422 190l37 210h11l-37 -210q-35 -203 -192 -203q-86 0 -129 58t-26 155l35 200h11l-35 -200q-16 -94 23.5 -148.5t120.5 -54.5q147 0 181 193z" />
    <glyph glyph-name="omicrontonos" unicode="&#x3cc;" horiz-adv-x="500" 
d="M294 483l-10 3l64 153l10 -3zM232 -12q-94 0 -148 66.5t-36 165.5q15 82 75 136.5t145 54.5q95 0 148.5 -66t35.5 -166q-16 -87 -77 -139t-143 -52zM232 -2q78 0 135.5 49.5t73.5 132.5q18 96 -32.5 158.5t-140.5 62.5q-79 0 -136.5 -50.5t-72.5 -131.5
q-17 -92 32.5 -156.5t140.5 -64.5z" />
    <glyph glyph-name="upsilontonos" unicode="&#x3cd;" horiz-adv-x="521" 
d="M315 483l-10 3l64 153l10 -3zM422 190l37 210h11l-37 -210q-35 -203 -192 -203q-86 0 -129 58t-26 155l35 200h11l-35 -200q-16 -94 23.5 -148.5t120.5 -54.5q147 0 181 193z" />
    <glyph glyph-name="omegatonos" unicode="&#x3ce;" horiz-adv-x="761" 
d="M499 636l-64 -153l-10 3l64 153zM655 400q53 -91 33 -214q-16 -94 -67.5 -146t-119.5 -52q-58 0 -97 36.5t-38 93.5q-22 -64 -67.5 -97t-99.5 -33q-70 0 -108.5 52t-21.5 148q22 121 107 212h12q-85 -92 -108 -214q-16 -91 19.5 -139.5t99.5 -48.5t110.5 46t58.5 116
l28 160h11l-28 -160q-12 -68 22.5 -115t99.5 -47q64 0 112.5 49.5t63.5 139.5q20 121 -34 213h12z" />
    <glyph glyph-name="uni0401" unicode="&#x401;" horiz-adv-x="580" 
d="M294 714q-17 0 -17 17q0 16 17 16t17 -16q0 -17 -17 -17zM494 714q-17 0 -17 17q0 16 17 16t17 -16q0 -17 -17 -17zM591 590h-405l-49 -277h385l-2 -10h-384l-52 -293h414l-1 -10h-426l106 600h416z" />
    <glyph glyph-name="uni0402" unicode="&#x402;" horiz-adv-x="719" 
d="M485 414q91 0 134.5 -62t23.5 -159q-19 -94 -82 -143.5t-165 -49.5h-31l1 10h31q96 0 157 46.5t79 138.5q18 94 -22.5 151.5t-127.5 57.5q-88 0 -157 -57.5t-84 -145.5l-35 -201h-11l104 590h-216l2 10h543l-2 -10h-316l-57 -322q32 67 94.5 106.5t136.5 39.5z" />
    <glyph glyph-name="uni0403" unicode="&#x403;" horiz-adv-x="518" 
d="M519 801l-218 -98l-4 9l217 98zM564 600l-2 -10h-376l-104 -590h-11l106 600h387z" />
    <glyph glyph-name="uni0404" unicode="&#x404;" horiz-adv-x="630" 
d="M406 604q-116 0 -204.5 -75.5t-112.5 -198.5l-3 -17h365l-2 -10h-364q-15 -128 59 -217t202 -89q138 0 247 126l8 -7q-111 -129 -257 -129q-137 0 -215.5 100t-50.5 244q23 124 114.5 203.5t212.5 79.5q147 0 236 -127l-8 -6q-85 123 -227 123z" />
    <glyph glyph-name="uni0405" unicode="&#x405;" horiz-adv-x="600" 
d="M287 -13q-88 0 -151.5 34.5t-90.5 96.5l9 6q26 -60 86 -93.5t145 -33.5q87 0 153 40t78 107q5 31 -8.5 57t-32.5 41t-53.5 29t-51.5 18.5t-45 11.5q-30 8 -51.5 14t-54.5 21.5t-52.5 33t-30.5 46.5t-3 64q16 67 78.5 100.5t145.5 33.5q81 0 139.5 -34.5t82.5 -87.5l-9 -6
q-25 52 -79.5 85t-134.5 33q-82 0 -140.5 -33t-72.5 -92q-9 -39 5 -69t49.5 -49.5t62.5 -29t69 -20.5q33 -9 53 -15t54 -21t52.5 -31t31 -42.5t6.5 -58.5q-13 -71 -81 -113.5t-158 -42.5z" />
    <glyph glyph-name="uni0406" unicode="&#x406;" horiz-adv-x="283" 
d="M101 0l106 600h11l-106 -600h-11z" />
    <glyph glyph-name="uni0407" unicode="&#x407;" horiz-adv-x="283" 
d="M135 714q-17 0 -17 17q0 16 17 16t17 -16q0 -17 -17 -17zM335 714q-17 0 -17 17q0 16 17 16t17 -16q0 -17 -17 -17zM101 0l106 600h11l-106 -600h-11z" />
    <glyph glyph-name="uni0408" unicode="&#x408;" horiz-adv-x="308" 
d="M-106 -148h26q83 0 140.5 53t73.5 144l97 551h11l-97 -552q-16 -96 -77.5 -151t-151.5 -55h-24z" />
    <glyph glyph-name="uni0409" unicode="&#x409;" horiz-adv-x="1034" 
d="M773 384q117 0 168 -64.5t32 -154.5q-34 -165 -263 -165h-172l60 348q23 119 -23 187.5t-147 68.5q-97 0 -160.5 -65t-83.5 -188l-36 -204q-28 -152 -145 -152h-23l2 10h23q106 0 132 142l36 205q20 125 86.5 193.5t169.5 68.5q99 0 149 -61t38 -169h157zM962 166
q17 84 -30.5 146t-159.5 62h-158q-2 -18 -4 -26l-59 -338h160q219 0 251 156z" />
    <glyph glyph-name="uni040A" unicode="&#x40a;" horiz-adv-x="1006" 
d="M744 332q108 0 163.5 -55.5t31.5 -139.5q-39 -137 -238 -137h-180l57 322h-439l-57 -322h-11l106 600h11l-47 -268h439l47 268h11l-47 -268h153zM929 138q22 74 -27.5 129t-158.5 55h-154l-55 -312h167q90 0 150 32.5t78 95.5z" />
    <glyph glyph-name="uni040B" unicode="&#x40b;" horiz-adv-x="719" 
d="M478 414q89 0 130 -54t24 -150l-37 -210h-11l37 210q16 92 -22 143t-122 51q-90 0 -154.5 -56t-80.5 -147l-35 -201h-11l104 590h-216l2 10h543l-2 -10h-316l-56 -317q30 65 89 103t134 38z" />
    <glyph glyph-name="uni040C" unicode="&#x40c;" horiz-adv-x="635" 
d="M538 801l-218 -98l-4 9l217 98zM328 308q118 -19 175 -101.5t35 -206.5h-11q25 136 -48 219.5t-217 83.5h-126l-54 -303h-11l106 600h11l-51 -287h126q135 0 236.5 81t124.5 206h11q-19 -112 -103.5 -192t-203.5 -100z" />
    <glyph glyph-name="uni040E" unicode="&#x40e;" horiz-adv-x="641" 
d="M404 674q-60 0 -88.5 37t-23.5 97h10q-4 -57 21.5 -90.5t82.5 -33.5q53 0 86.5 33t42.5 91h11q-10 -63 -47 -98.5t-95 -35.5zM647 600h12l-380 -599q-43 -68 -90 -103.5t-116 -35.5h-25l2 10h25q61 0 106 32.5t87 98.5l32 50l-176 547h11l172 -535z" />
    <glyph glyph-name="uni040F" unicode="&#x40f;" horiz-adv-x="673" 
d="M627 600h11l-106 -600h-226l-25 -148h-11l25 148h-224l106 600h11l-104 -590h439z" />
    <glyph glyph-name="uni0410" unicode="&#x410;" horiz-adv-x="632" 
d="M532 0l-54 213h-320l-128 -213h-12l360 600h14l152 -600h-12zM164 223h312l-92 366z" />
    <glyph glyph-name="uni0411" unicode="&#x411;" horiz-adv-x="654" 
d="M627 590h-432l-47 -267h262q91 0 142 -47.5t37 -123.5q-13 -73 -75.5 -112.5t-161.5 -39.5h-272l106 600h443zM408 313h-262l-54 -303h261q94 0 153.5 37.5t71.5 105.5q13 73 -35 116.5t-135 43.5z" />
    <glyph glyph-name="uni0412" unicode="&#x412;" horiz-adv-x="654" 
d="M602 448q-11 -53 -52.5 -90.5t-99.5 -48.5q75 -11 112 -54t26 -109q-11 -67 -65.5 -106.5t-140.5 -39.5h-302l106 600h252q87 0 132.5 -42.5t31.5 -109.5zM403 313q68 0 121.5 38t66.5 97q13 62 -28.5 102t-126.5 40h-241l-49 -277h257zM578 148q12 71 -36 113t-140 42
h-257l-52 -293h291q80 0 131.5 38t62.5 100z" />
    <glyph glyph-name="uni0413" unicode="&#x413;" horiz-adv-x="518" 
d="M564 600l-2 -10h-376l-104 -590h-11l106 600h387z" />
    <glyph glyph-name="uni0414" unicode="&#x414;" horiz-adv-x="710" 
d="M646 600l-103 -580h93l-1 -5l-28 -163h-11l27 158h-603l-27 -158h-11l27 158l2 10h93l54 302q24 142 99.5 210t209.5 68h179zM115 20h417l99 570h-166q-128 -1 -200.5 -66.5t-95.5 -201.5z" />
    <glyph glyph-name="uni0415" unicode="&#x415;" horiz-adv-x="580" 
d="M591 590h-405l-49 -277h385l-2 -10h-384l-52 -293h414l-1 -10h-426l106 600h416z" />
    <glyph glyph-name="uni0416" unicode="&#x416;" horiz-adv-x="878" 
d="M887 600q-20 -113 -107.5 -193t-209.5 -99q112 -20 166.5 -102.5t33.5 -205.5h-11q24 136 -46 219.5t-209 83.5h-46l-54 -303h-11l54 303h-45q-135 0 -237.5 -85.5t-126.5 -217.5h-11q21 120 106 204.5t205 103.5q-110 18 -164 97t-32 195h11q-25 -129 44.5 -208
t205.5 -79h45l51 287h11l-51 -287h46q139 0 243.5 81t127.5 206h11z" />
    <glyph glyph-name="uni0417" unicode="&#x417;" horiz-adv-x="551" 
d="M521 457q-22 -125 -203 -148q95 -10 137.5 -49.5t31.5 -105.5q-13 -75 -83.5 -120.5t-166.5 -45.5q-163 0 -221 123l10 6q23 -55 76.5 -87t132.5 -32q94 0 161 43t80 115q13 71 -47 109.5t-189 38.5l2 10q119 0 187.5 37.5t81.5 108.5q12 66 -34 104t-131 38
q-155 0 -241 -113l-8 5q41 56 106.5 87t142.5 31q92 0 140 -41.5t35 -113.5z" />
    <glyph glyph-name="uni0418" unicode="&#x418;" horiz-adv-x="683" 
d="M637 600h11l-106 -600h-11l102 580l-551 -580h-11l106 600h11l-103 -582z" />
    <glyph glyph-name="uni0419" unicode="&#x419;" horiz-adv-x="683" 
d="M424 674q-60 0 -88.5 37t-23.5 97h10q-4 -57 21.5 -90.5t82.5 -33.5q53 0 86.5 33t42.5 91h11q-10 -63 -47 -98.5t-95 -35.5zM637 600h11l-106 -600h-11l102 580l-551 -580h-11l106 600h11l-103 -582z" />
    <glyph glyph-name="uni041A" unicode="&#x41a;" horiz-adv-x="635" 
d="M328 308q118 -19 175 -101.5t35 -206.5h-11q25 136 -48 219.5t-217 83.5h-126l-54 -303h-11l106 600h11l-51 -287h126q135 0 236.5 81t124.5 206h11q-19 -112 -103.5 -192t-203.5 -100z" />
    <glyph glyph-name="uni041B" unicode="&#x41b;" horiz-adv-x="690" 
d="M191 167q-31 -172 -188 -172h-23l2 10h23q146 0 175 162l33 185q22 127 89 187.5t185 60.5h168l-106 -600h-11l102 590h-155q-112 0 -176 -58.5t-85 -180.5z" />
    <glyph glyph-name="uni041C" unicode="&#x41c;" horiz-adv-x="826" 
d="M738 600h13l-66 -600h-11l64 582l-341 -502h-10l-163 505l-142 -585h-11l146 600h13l163 -507z" />
    <glyph glyph-name="uni041D" unicode="&#x41d;" horiz-adv-x="693" 
d="M647 600h11l-106 -600h-11l54 303h-459l-54 -303h-11l106 600h11l-51 -287h459z" />
    <glyph glyph-name="uni041E" unicode="&#x41e;" horiz-adv-x="740" 
d="M363 -13q-149 0 -229.5 97t-55.5 247q21 123 115 203t217 80q152 0 233 -97t54 -247q-20 -123 -114.5 -203t-219.5 -80zM363 -3q121 0 212 77.5t111 196.5q26 145 -52 239t-224 94q-119 0 -210 -77.5t-111 -196.5q-25 -145 52.5 -239t221.5 -94z" />
    <glyph glyph-name="uni041F" unicode="&#x41f;" horiz-adv-x="693" 
d="M658 600l-106 -600h-11l104 590h-459l-104 -590h-11l106 600h481z" />
    <glyph glyph-name="uni0420" unicode="&#x420;" horiz-adv-x="578" 
d="M286 216h-166l-38 -216h-11l106 600h171q111 0 167.5 -54.5t37.5 -150.5q-17 -86 -86 -132.5t-181 -46.5zM346 590h-160l-64 -364h166q108 0 174 46t81 126q17 91 -36.5 141.5t-160.5 50.5z" />
    <glyph glyph-name="uni0421" unicode="&#x421;" horiz-adv-x="630" 
d="M344 -13q-137 0 -215.5 100t-50.5 244q23 124 114.5 203.5t212.5 79.5q147 0 236 -127l-8 -6q-85 123 -227 123q-116 0 -204.5 -75.5t-112.5 -198.5q-27 -137 47.5 -235t209.5 -98q138 0 247 126l8 -7q-111 -129 -257 -129z" />
    <glyph glyph-name="uni0422" unicode="&#x422;" horiz-adv-x="593" 
d="M639 600l-2 -10h-266l-104 -590h-11l104 590h-266l2 10h543z" />
    <glyph glyph-name="uni0423" unicode="&#x423;" horiz-adv-x="641" 
d="M647 600h12l-380 -599q-43 -68 -90 -103.5t-116 -35.5h-25l2 10h25q61 0 106 32.5t87 98.5l32 50l-176 547h11l172 -535z" />
    <glyph glyph-name="uni0424" unicode="&#x424;" horiz-adv-x="781" 
d="M466 603q145 -10 222.5 -105.5t49.5 -227.5q-25 -120 -123.5 -196.5t-235.5 -76.5h-20l-17 -97h-11l17 98q-144 10 -220.5 106t-49.5 227q24 120 122 196.5t236 76.5h19l17 96h11zM89 330q-26 -128 47.5 -220t213.5 -102l103 586h-18q-131 0 -226.5 -73t-119.5 -191z
M727 271q27 129 -48.5 220.5t-214.5 101.5l-103 -586h18q133 0 228.5 74t119.5 190z" />
    <glyph glyph-name="uni0425" unicode="&#x425;" horiz-adv-x="654" 
d="M393 306q95 -20 137 -101.5t19 -204.5h-11q26 137 -29 220t-172 83q-108 0 -188 -83t-103 -220h-11q22 129 93.5 212t170.5 97q-96 19 -138.5 97t-19.5 194h11q-25 -131 31 -209t173 -78q108 0 187 79.5t101 207.5h11q-21 -122 -92 -201t-170 -93z" />
    <glyph glyph-name="uni0426" unicode="&#x426;" horiz-adv-x="705" 
d="M534 10h89l-1 -10h-1l-25 -148h-11l25 148h-539l106 600h11l-104 -590h439l104 590h11z" />
    <glyph glyph-name="uni0427" unicode="&#x427;" horiz-adv-x="641" 
d="M595 600h11l-106 -600h-11l63 359q-33 -77 -96 -120t-150 -43q-107 0 -154 64.5t-26 179.5l29 160h11l-29 -160q-20 -111 24 -172.5t145 -61.5q104 0 173.5 64.5t88.5 178.5z" />
    <glyph glyph-name="uni0428" unicode="&#x428;" horiz-adv-x="1017" 
d="M971 600h11l-106 -600h-805l106 600h11l-104 -590h386l104 590h11l-104 -590h386z" />
    <glyph glyph-name="uni0429" unicode="&#x429;" horiz-adv-x="1049" 
d="M878 10h89l-1 -10h-1l-25 -148h-11l25 148h-883l106 600h11l-104 -590h386l104 590h11l-104 -590h386l104 590h11z" />
    <glyph glyph-name="uni042A" unicode="&#x42a;" horiz-adv-x="678" 
d="M415 384q108 0 163.5 -59.5t39.5 -151.5q-30 -173 -266 -173h-181l104 590h-200l2 10h211l-39 -216h166zM607 174q15 87 -38 143.5t-155 56.5h-166l-65 -364h170q226 0 254 164z" />
    <glyph glyph-name="uni042B" unicode="&#x42b;" horiz-adv-x="811" 
d="M315 384q108 0 163.5 -59.5t39.5 -151.5q-30 -173 -266 -173h-181l106 600h11l-39 -216h166zM649 0l106 600h11l-106 -600h-11zM253 10q226 0 254 164q15 87 -38 143.5t-155 56.5h-166l-65 -364h170z" />
    <glyph glyph-name="uni042C" unicode="&#x42c;" horiz-adv-x="578" 
d="M315 384q108 0 163.5 -59.5t39.5 -151.5q-30 -173 -266 -173h-181l106 600h11l-39 -216h166zM253 10q226 0 254 164q15 87 -38 143.5t-155 56.5h-166l-65 -364h170z" />
    <glyph glyph-name="uni042D" unicode="&#x42d;" horiz-adv-x="630" 
d="M321 613q137 0 215.5 -100t50.5 -244q-23 -124 -114.5 -203.5t-212.5 -79.5q-147 0 -236 127l8 6q85 -123 227 -123q116 0 204.5 75.5t112.5 198.5q4 22 5 33h-365l2 10h364q8 123 -65.5 206.5t-197.5 83.5q-138 0 -247 -126l-8 7q111 129 257 129z" />
    <glyph glyph-name="uni042E" unicode="&#x42e;" horiz-adv-x="985" 
d="M670 614q143 0 221.5 -100.5t51.5 -243.5q-23 -126 -113.5 -204.5t-214.5 -78.5q-134 0 -212 90t-64 226h-203l-54 -303h-11l106 600h11l-51 -287h203l3 18q23 126 113 204.5t214 78.5zM932 271q25 141 -50.5 237t-212.5 96q-120 0 -206.5 -76t-108.5 -198
q-25 -142 50.5 -237.5t211.5 -95.5q121 0 208 77.5t108 196.5z" />
    <glyph glyph-name="uni042F" unicode="&#x42f;" horiz-adv-x="645" 
d="M360 600h250l-106 -600h-11l48 276h-201q-235 0 -283 -276h-11q42 245 231 280q-79 8 -116 60t-23 121q14 65 71.5 102t150.5 37zM306 286h237l54 305h-239q-88 0 -142 -35t-67 -98q-15 -71 28 -121.5t129 -50.5z" />
    <glyph glyph-name="uni0430" unicode="&#x430;" horiz-adv-x="524" 
d="M462 400h11l-70 -400h-11l18 104q-27 -53 -76 -84.5t-108 -31.5q-89 0 -142.5 66.5t-35.5 165.5q16 82 75.5 136.5t143.5 54.5q72 0 117.5 -40.5t53.5 -107.5zM226 -2q75 0 130 51.5t67 131.5q20 96 -24 158t-131 62q-79 0 -136.5 -50.5t-72.5 -131.5
q-17 -90 31.5 -155.5t135.5 -65.5z" />
    <glyph glyph-name="uni0431" unicode="&#x431;" horiz-adv-x="490" 
d="M509 640q-115 0 -186.5 -14.5t-123.5 -56.5t-80.5 -109t-49.5 -180q92 120 220 120q89 0 136 -59t31 -153q-16 -90 -78 -145t-150 -55q-100 0 -148 72t-26 197q22 124 51 197t83 119t127.5 61.5t194.5 15.5zM290 390q-66 0 -124 -35t-101 -98q-24 -119 22 -189t142 -70
q83 0 142 52.5t74 139.5q15 89 -28 144.5t-127 55.5z" />
    <glyph glyph-name="uni0432" unicode="&#x432;" horiz-adv-x="471" 
d="M402 287q-6 -28 -31 -51.5t-64 -32.5q53 -9 76.5 -40.5t16.5 -67.5q-6 -39 -43 -67t-93 -28h-212l69 395h172q60 0 89 -31.5t20 -76.5zM270 208q46 0 81 23.5t41 57.5q7 39 -18 67.5t-82 28.5h-161l-32 -177h171zM389 96q7 41 -24 71.5t-96 30.5h-171l-34 -188h201
q52 0 85 25t39 61z" />
    <glyph glyph-name="uni0433" unicode="&#x433;" horiz-adv-x="370" 
d="M379 390l-2 -10h-247l-67 -380h-11l69 390h258z" />
    <glyph glyph-name="uni0434" unicode="&#x434;" horiz-adv-x="537" 
d="M389 20h73l-1 -5l-23 -133h-11l22 128h-429l-22 -128h-11l22 128l2 10h73l29 162q17 98 82 153t165 55h95zM95 20h283l64 360h-84q-94 0 -155.5 -52.5t-78.5 -145.5z" />
    <glyph glyph-name="uni0435" unicode="&#x435;" horiz-adv-x="488" 
d="M281 411q85 0 130.5 -52.5t29.5 -134.5q0 -3 -2 -9l-377 -1q-15 -89 35 -152.5t142 -63.5q86 0 155 59l7 -8q-74 -61 -163 -61q-95 0 -148.5 66t-38.5 160q14 87 78.5 142t151.5 55zM431 225q13 77 -28.5 126.5t-120.5 49.5q-80 0 -141 -48.5t-77 -128.5z" />
    <glyph glyph-name="uni0436" unicode="&#x436;" horiz-adv-x="667" 
d="M633 400q-13 -76 -68.5 -128t-135.5 -68q72 -14 109.5 -69t24.5 -135h-11q15 89 -33 143.5t-134 54.5h-46l-35 -198h-11l35 198h-46q-90 0 -154.5 -53.5t-82.5 -144.5h-11q17 86 73 140t138 65q-76 15 -115 68.5t-26 126.5h11q-16 -84 38.5 -138t149.5 -54h26l34 192h11
l-34 -192h26q98 0 169 53t87 139h11z" />
    <glyph glyph-name="uni0437" unicode="&#x437;" horiz-adv-x="401" 
d="M350 298q-18 -76 -128 -95q57 -11 85 -40t18 -73q-10 -45 -53 -73.5t-104 -28.5q-101 0 -154 67l8 6q50 -63 145 -63q57 0 98 26t50 67q10 49 -33.5 78t-126.5 29l1 10q78 0 126 24t58 69q9 43 -21.5 72.5t-91.5 29.5q-87 0 -140 -50l-7 7q58 53 147 53q65 0 99.5 -33
t23.5 -82z" />
    <glyph glyph-name="uni0438" unicode="&#x438;" horiz-adv-x="508" 
d="M445 400h11l-70 -400h-11l67 382l-379 -382h-11l70 400h11l-67 -382z" />
    <glyph glyph-name="uni0439" unicode="&#x439;" horiz-adv-x="508" 
d="M307 492q-60 0 -88.5 37t-23.5 97h10q-4 -57 21.5 -90.5t82.5 -33.5q53 0 86.5 33t42.5 91h11q-10 -63 -47 -98.5t-95 -35.5zM445 400h11l-70 -400h-11l67 382l-379 -382h-11l70 400h11l-67 -382z" />
    <glyph glyph-name="uni043A" unicode="&#x43a;" horiz-adv-x="490" 
d="M456 400q-13 -76 -72.5 -128t-148.5 -68q84 -14 124.5 -68t26.5 -136h-11q16 91 -36 144.5t-156 53.5h-76l-35 -198h-11l70 400h11l-34 -192h56q111 0 187.5 52.5t93.5 139.5h11z" />
    <glyph glyph-name="uni043B" unicode="&#x43b;" horiz-adv-x="520" 
d="M114 112q-20 -117 -121 -117h-13l2 10h13q90 0 108 107l19 103q13 79 67.5 127t128.5 48h149l-69 -390h-11l67 380h-137q-69 0 -120 -46t-65 -120z" />
    <glyph glyph-name="uni043C" unicode="&#x43c;" horiz-adv-x="622" 
d="M531 400h12l-43 -400h-11l41 381l-244 -349h-11l-119 350l-93 -382h-11l97 400h12l121 -357z" />
    <glyph glyph-name="uni043D" unicode="&#x43d;" horiz-adv-x="508" 
d="M445 400h11l-70 -400h-11l34 195h-312l-34 -195h-11l70 400h11l-34 -195h312z" />
    <glyph glyph-name="uni043E" unicode="&#x43e;" horiz-adv-x="500" 
d="M232 -12q-94 0 -148 66.5t-36 165.5q15 82 75 136.5t145 54.5q95 0 148.5 -66t35.5 -166q-16 -87 -77 -139t-143 -52zM232 -2q78 0 135.5 49.5t73.5 132.5q18 96 -32.5 158.5t-140.5 62.5q-79 0 -136.5 -50.5t-72.5 -131.5q-17 -92 32.5 -156.5t140.5 -64.5z" />
    <glyph glyph-name="uni043F" unicode="&#x43f;" horiz-adv-x="508" 
d="M455 390l-69 -390h-11l67 380h-312l-67 -380h-11l69 390h334z" />
    <glyph glyph-name="uni0440" unicode="&#x440;" horiz-adv-x="534" 
d="M308 412q89 0 142.5 -66.5t35.5 -165.5q-16 -82 -75.5 -136.5t-143.5 -54.5q-72 0 -117.5 40.5t-53.5 107.5l-63 -357h-11l109 620h11l-18 -104q27 53 76 84.5t108 31.5zM475 181q17 90 -31 155.5t-134 65.5q-77 0 -132 -51.5t-67 -131.5q-20 -96 24 -158t131 -62
q79 0 136.5 50.5t72.5 131.5z" />
    <glyph glyph-name="uni0441" unicode="&#x441;" horiz-adv-x="431" 
d="M232 -12q-94 0 -148 66.5t-36 165.5q15 82 75 136.5t145 54.5q89 0 143 -59l-8 -7q-51 56 -135 56q-79 0 -136.5 -50.5t-72.5 -131.5q-17 -92 32.5 -156.5t140.5 -64.5q73 0 128 43l7 -7q-58 -46 -135 -46z" />
    <glyph glyph-name="uni0442" unicode="&#x442;" horiz-adv-x="428" 
d="M435 390l-2 -10h-181l-67 -380h-11l67 380h-181l2 10h373z" />
    <glyph glyph-name="uni0443" unicode="&#x443;" horiz-adv-x="518" 
d="M455 400h11l-73 -418q-18 -101 -70.5 -157t-136.5 -56q-95 0 -141 57l8 7q46 -54 134 -54q78 0 128 52.5t67 150.5l24 135q-29 -60 -83 -94.5t-121 -34.5q-153 0 -120 189l39 223h11l-38 -219q-32 -183 108 -183q76 0 134 46t78 122z" />
    <glyph glyph-name="uni0444" unicode="&#x444;" horiz-adv-x="560" 
d="M323 410q99 -8 153 -72t36 -159q-17 -87 -84.5 -139t-165.5 -52h-14l-36 -208h-11l37 209q-102 7 -155.5 72.5t-34.5 158.5q17 87 84.5 139t164.5 52h15l42 239h11zM58 219q-19 -90 33 -151t148 -69l72 402h-12q-93 0 -158.5 -49t-82.5 -133zM502 180q18 88 -32.5 150.5
t-147.5 69.5l-72 -402h13q93 0 157.5 49.5t81.5 132.5z" />
    <glyph glyph-name="uni0445" unicode="&#x445;" horiz-adv-x="480" 
d="M280 199q59 -15 83.5 -66t8.5 -133h-11q18 93 -16 144t-112 51q-73 0 -120 -50t-64 -145h-11q30 180 162 201q-59 15 -83.5 66t-8.5 133h11q-18 -93 16 -144t112 -51q73 0 120 50t64 145h11q-30 -180 -162 -201z" />
    <glyph glyph-name="uni0446" unicode="&#x446;" horiz-adv-x="522" 
d="M384 10h83l-27 -148h-11l25 138h-402l70 400h11l-68 -390h308l68 390h11z" />
    <glyph glyph-name="uni0447" unicode="&#x447;" horiz-adv-x="486" 
d="M423 400h11l-70 -400h-11l41 237q-53 -99 -183 -99q-73 0 -109 35t-24 104l21 123h11l-21 -119q-23 -133 123 -133q81 0 130.5 40.5t62.5 106.5z" />
    <glyph glyph-name="uni0448" unicode="&#x448;" horiz-adv-x="769" 
d="M706 400h11l-70 -400h-595l70 400h11l-68 -390h285l68 390h11l-68 -390h277z" />
    <glyph glyph-name="uni0449" unicode="&#x449;" horiz-adv-x="787" 
d="M649 10h83l-27 -148h-11l25 138h-667l70 400h11l-68 -390h285l68 390h11l-68 -390h277l68 390h11z" />
    <glyph glyph-name="uni044A" unicode="&#x44a;" horiz-adv-x="491" 
d="M314 228q70 0 100 -38t20 -93q-9 -49 -45 -73t-85 -24h-182l68 390h-148l1 10h160l-30 -172h141zM424 99q9 48 -18 83.5t-92 35.5h-143l-37 -208h171q47 0 79.5 23.5t39.5 65.5z" />
    <glyph glyph-name="uni044B" unicode="&#x44b;" horiz-adv-x="599" 
d="M52 0l70 400h11l-30 -172h141q70 0 100 -38t20 -93q-9 -49 -45 -73t-85 -24h-182zM457 0l70 400h11l-70 -400h-11zM64 10h171q47 0 79.5 23.5t39.5 65.5q9 48 -18 83.5t-92 35.5h-143z" />
    <glyph glyph-name="uni044C" unicode="&#x44c;" horiz-adv-x="421" 
d="M52 0l70 400h11l-30 -172h141q70 0 100 -38t20 -93q-9 -49 -45 -73t-85 -24h-182zM64 10h171q47 0 79.5 23.5t39.5 65.5q9 48 -18 83.5t-92 35.5h-143z" />
    <glyph glyph-name="uni044D" unicode="&#x44d;" horiz-adv-x="431" 
d="M199 412q94 0 148 -66.5t36 -165.5q-15 -82 -75 -136.5t-145 -54.5q-89 0 -143 59l8 7q51 -56 135 -56q79 0 136.5 50.5t72.5 131.5l3 19h-237l2 10h236q5 82 -44 137t-133 55q-73 0 -128 -43l-7 7q58 46 135 46z" />
    <glyph glyph-name="uni044E" unicode="&#x44e;" horiz-adv-x="680" 
d="M458 411q90 0 141.5 -66t32.5 -166q-16 -87 -74 -139t-136 -52q-83 0 -133.5 58.5t-43.5 148.5h-148l-34 -195h-11l70 400h11l-34 -195h147q0 5 2 15q14 82 71.5 136.5t138.5 54.5zM621 180q18 95 -30 158t-133 63q-75 0 -130 -50.5t-69 -131.5q-17 -92 30 -156.5
t133 -64.5q74 0 128.5 49.5t70.5 132.5z" />
    <glyph glyph-name="uni044F" unicode="&#x44f;" horiz-adv-x="461" 
d="M228 395h181l-69 -395h-11l31 178h-158q-61 0 -107.5 -49t-60.5 -129h-11q12 72 51 120.5t93 61.5q-40 8 -63.5 34.5t-23.5 65.5q0 51 40.5 82t107.5 31zM202 188h160l35 197h-170q-61 0 -98.5 -28t-37.5 -75q0 -43 30.5 -68.5t80.5 -25.5z" />
    <glyph glyph-name="uni0451" unicode="&#x451;" horiz-adv-x="488" 
d="M204 554q-17 0 -17 17q0 16 17 16t17 -16q0 -17 -17 -17zM404 554q-17 0 -17 17q0 16 17 16t17 -16q0 -17 -17 -17zM281 411q85 0 130.5 -52.5t29.5 -134.5q0 -3 -2 -9l-377 -1q-15 -89 35 -152.5t142 -63.5q86 0 155 59l7 -8q-74 -61 -163 -61q-95 0 -148.5 66
t-38.5 160q14 87 78.5 142t151.5 55zM431 225q13 77 -28.5 126.5t-120.5 49.5q-80 0 -141 -48.5t-77 -128.5z" />
    <glyph glyph-name="uni0452" unicode="&#x452;" horiz-adv-x="502" 
d="M308 412q82 0 115.5 -61.5t13.5 -170.5q-19 -102 -76 -210.5t-132 -191.5l-8 6q75 85 131 191.5t74 204.5q20 106 -11 164t-109 58q-75 0 -129 -53.5t-68 -138.5l-37 -210h-11l92 525h-87l2 10h87l20 115h11l-20 -115h182l-2 -10h-182l-42 -239q27 59 75.5 92.5
t110.5 33.5z" />
    <glyph glyph-name="uni0453" unicode="&#x453;" horiz-adv-x="370" 
d="M349 623l-175 -129l-6 7l175 130zM379 390l-2 -10h-247l-67 -380h-11l69 390h258z" />
    <glyph glyph-name="uni0454" unicode="&#x454;" horiz-adv-x="431" 
d="M268 411q89 0 143 -59l-8 -7q-51 56 -135 56q-79 0 -136.5 -50.5t-72.5 -131.5q-1 -1 -1 -4t-1 -5h238l-2 -10h-237q-9 -86 40 -144t136 -58q73 0 128 43l7 -7q-58 -46 -135 -46q-94 0 -148 66.5t-36 165.5q15 82 75 136.5t145 54.5z" />
    <glyph glyph-name="uni0455" unicode="&#x455;" horiz-adv-x="398" 
d="M165 -12q-83 0 -136 58l8 7q49 -55 129 -55q56 0 92.5 25t44.5 63q9 43 -20 69t-82 47q-59 23 -87.5 49t-19.5 72q8 43 49 66.5t94 23.5q79 0 113 -48l-8 -6q-37 44 -106 44q-56 0 -91 -24t-41 -58q-4 -23 3 -41t26.5 -31.5t33 -20t37.5 -16.5q27 -11 42.5 -19
t36.5 -23.5t28.5 -37t1.5 -48.5q-10 -44 -50 -70t-98 -26z" />
    <glyph glyph-name="uni0456" unicode="&#x456;" horiz-adv-x="233" 
d="M180 554q-17 0 -17 17q0 16 17 16t17 -16q0 -17 -17 -17zM76 0l70 400h11l-70 -400h-11z" />
    <glyph glyph-name="uni0457" unicode="&#x457;" horiz-adv-x="233" 
d="M115 554q-17 0 -17 17q0 16 17 16t17 -16q0 -17 -17 -17zM245 554q-17 0 -17 17q0 16 17 16t17 -16q0 -17 -17 -17zM76 0l70 400h11l-70 -400h-11z" />
    <glyph glyph-name="uni0458" unicode="&#x458;" horiz-adv-x="233" 
d="M180 554q-17 0 -17 17q0 16 17 16t17 -16q0 -17 -17 -17zM37 -220l109 620h11l-109 -620h-11z" />
    <glyph glyph-name="uni0459" unicode="&#x459;" horiz-adv-x="696" 
d="M519 228q66 0 98 -37.5t23 -87.5q-8 -44 -45 -73.5t-96 -29.5h-122l66 380h-126q-69 0 -120 -46t-65 -120l-18 -102q-20 -117 -121 -117h-13l2 10h13q90 0 108 107l19 103q13 79 67.5 127t128.5 48h139l-29 -162h91zM629 104q8 44 -21 79t-91 35h-90l-37 -208h110
q54 0 88 27t41 67z" />
    <glyph glyph-name="uni045A" unicode="&#x45a;" horiz-adv-x="686" 
d="M509 218q63 0 95 -37.5t24 -85.5q-7 -41 -42.5 -68t-95.5 -27h-125l36 208h-302l-36 -208h-11l70 400h11l-32 -182h302l32 182h11l-32 -182h95zM617 95q8 43 -21.5 78t-86.5 35h-97l-34 -198h112q56 0 88 24.5t39 60.5z" />
    <glyph glyph-name="uni045B" unicode="&#x45b;" horiz-adv-x="527" 
d="M324 412q72 0 104.5 -48t18.5 -131l-41 -233h-11l40 229q14 80 -15.5 126.5t-96.5 46.5q-76 0 -138 -56.5t-77 -140.5l-36 -205h-11l92 525h-87l2 10h87l20 115h11l-20 -115h182l-2 -10h-182l-44 -252q30 63 85 101t119 38z" />
    <glyph glyph-name="uni045C" unicode="&#x45c;" horiz-adv-x="490" 
d="M409 623l-175 -129l-6 7l175 130zM456 400q-13 -76 -72.5 -128t-148.5 -68q84 -14 124.5 -68t26.5 -136h-11q16 91 -36 144.5t-156 53.5h-76l-35 -198h-11l70 400h11l-34 -192h56q111 0 187.5 52.5t93.5 139.5h11z" />
    <glyph glyph-name="uni045E" unicode="&#x45e;" horiz-adv-x="518" 
d="M307 492q-60 0 -88.5 37t-23.5 97h10q-4 -57 21.5 -90.5t82.5 -33.5q53 0 86.5 33t42.5 91h11q-10 -63 -47 -98.5t-95 -35.5zM455 400h11l-73 -418q-18 -101 -70.5 -157t-136.5 -56q-95 0 -141 57l8 7q46 -54 134 -54q78 0 128 52.5t67 150.5l24 135q-29 -60 -83 -94.5
t-121 -34.5q-153 0 -120 189l39 223h11l-38 -219q-32 -183 108 -183q76 0 134 46t78 122z" />
    <glyph glyph-name="uni045F" unicode="&#x45f;" horiz-adv-x="504" 
d="M441 400h11l-70 -400h-159l-25 -138h-11l25 138h-160l70 400h11l-68 -390h308z" />
    <glyph glyph-name="uni0462" unicode="&#x462;" horiz-adv-x="618" 
d="M355 384q108 0 163.5 -59.5t39.5 -151.5q-30 -173 -266 -173h-181l104 590h-131l2 10h130l18 100h11l-18 -100h222l-2 -10h-221l-37 -206h166zM547 174q15 87 -38 143.5t-155 56.5h-166l-65 -364h170q226 0 254 164z" />
    <glyph glyph-name="uni0463" unicode="&#x463;" horiz-adv-x="446" 
d="M269 228q70 0 100 -38t20 -93q-9 -49 -45 -73t-85 -24h-182l67 380h-88l2 10h87l46 260h11l-46 -260h182l-2 -10h-181l-27 -152h141zM379 99q9 48 -18 83.5t-92 35.5h-143l-37 -208h171q47 0 79.5 23.5t39.5 65.5z" />
    <glyph glyph-name="uni0472" unicode="&#x472;" horiz-adv-x="740" 
d="M410 614q152 0 233 -97t54 -247q-20 -123 -114.5 -203t-219.5 -80q-149 0 -229.5 97t-55.5 247q21 123 115 203t217 80zM410 604q-119 0 -210 -77.5t-111 -196.5q-3 -24 -3 -25h605q12 132 -66 215.5t-215 83.5zM363 -3q121 0 212 77.5t111 196.5q0 4 2 12t2 12h-605
q-11 -132 66 -215t212 -83z" />
    <glyph glyph-name="uni0473" unicode="&#x473;" horiz-adv-x="500" 
d="M268 411q95 0 148.5 -66t35.5 -166q-16 -87 -77 -139t-143 -52q-94 0 -148 66.5t-36 165.5q15 82 75 136.5t145 54.5zM268 401q-79 0 -136.5 -50.5t-72.5 -131.5q-2 -8 -2 -13h388q7 86 -43.5 140.5t-133.5 54.5zM232 -2q78 0 135.5 49.5t73.5 132.5q2 10 2 16h-387
q-8 -84 41.5 -141t134.5 -57z" />
    <glyph glyph-name="uni0474" unicode="&#x474;" horiz-adv-x="632" 
d="M529 471q76 141 175 141l-2 -10q-91 0 -163 -134l-252 -468h-14l-149 600h11l145 -590z" />
    <glyph glyph-name="uni0475" unicode="&#x475;" horiz-adv-x="462" 
d="M348 275q41 72 67.5 101t60.5 29l-2 -10q-29 0 -52.5 -26.5t-62.5 -95.5l-159 -273h-14l-111 400h12l107 -391z" />
    <glyph glyph-name="uni0490" unicode="&#x490;" horiz-adv-x="518" 
d="M571 700h11l-19 -110h-377l-104 -590h-11l106 600h377z" />
    <glyph glyph-name="uni0491" unicode="&#x491;" horiz-adv-x="370" 
d="M390 520h11l-24 -140h-247l-67 -380h-11l69 390h247z" />
    <glyph glyph-name="uni0492" unicode="&#x492;" horiz-adv-x="518" 
d="M562 590h-376l-49 -277h182l-2 -10h-181l-54 -303h-11l54 303h-88l2 10h87l51 287h387z" />
    <glyph glyph-name="uni0493" unicode="&#x493;" horiz-adv-x="370" 
d="M377 380h-247l-31 -174h122l-2 -10h-121l-35 -196h-11l35 196h-68l2 10h67l33 184h258z" />
    <glyph glyph-name="uni0496" unicode="&#x496;" horiz-adv-x="897" 
d="M841 10l-27 -158h-11l25 148h-69q24 136 -46 219.5t-209 83.5h-46l-54 -303h-11l54 303h-45q-135 0 -237.5 -85.5t-126.5 -217.5h-11q21 120 106 204.5t205 103.5q-110 18 -164 97t-32 195h11q-25 -129 44.5 -208t205.5 -79h45l51 287h11l-51 -287h46q139 0 243.5 81
t127.5 206h11q-20 -113 -107.5 -193t-209.5 -99q110 -19 164.5 -99t37.5 -199h69z" />
    <glyph glyph-name="uni0497" unicode="&#x497;" horiz-adv-x="686" 
d="M564 10h72l-27 -148h-11l25 138h-71q15 89 -33 143.5t-134 54.5h-46l-35 -198h-11l35 198h-46q-90 0 -154.5 -53.5t-82.5 -144.5h-11q17 86 73 140t138 65q-76 15 -115 68.5t-26 126.5h11q-16 -84 38.5 -138t149.5 -54h26l34 192h11l-34 -192h26q98 0 169 53t87 139h11
q-13 -76 -68.5 -128t-135.5 -68q70 -13 107.5 -65t27.5 -129z" />
    <glyph glyph-name="uni049A" unicode="&#x49a;" horiz-adv-x="665" 
d="M609 10l-27 -158h-11l25 148h-69q25 136 -48 219.5t-217 83.5h-126l-54 -303h-11l106 600h11l-51 -287h126q135 0 236.5 81t124.5 206h11q-19 -112 -103.5 -192t-203.5 -100q115 -18 172.5 -98t39.5 -200h69z" />
    <glyph glyph-name="uni049B" unicode="&#x49b;" horiz-adv-x="510" 
d="M388 10h72l-27 -148h-11l25 138h-72q16 91 -36 144.5t-156 53.5h-76l-35 -198h-11l70 400h11l-34 -192h56q111 0 187.5 52.5t93.5 139.5h11q-13 -76 -72.5 -128t-148.5 -68q81 -13 122 -64.5t31 -129.5z" />
    <glyph glyph-name="uni04A2" unicode="&#x4a2;" horiz-adv-x="706" 
d="M624 10l-27 -158h-11l25 148h-70l54 303h-459l-54 -303h-11l106 600h11l-51 -287h459l51 287h11l-104 -590h70z" />
    <glyph glyph-name="uni04A3" unicode="&#x4a3;" horiz-adv-x="527" 
d="M388 10h83l-27 -148h-11l25 138h-83l34 195h-312l-34 -195h-11l70 400h11l-34 -195h312l34 195h11z" />
    <glyph glyph-name="uni04AE" unicode="&#x4ae;" horiz-adv-x="677" 
d="M638 600h11l-24 -132q-24 -132 -95 -207t-184 -75h-2l-32 -186h-11l32 186q-108 5 -159 80.5t-27 205.5l23 128h11l-23 -132q-22 -127 29 -199.5t159 -72.5q107 0 175.5 72t92.5 201z" />
    <glyph glyph-name="uni04AF" unicode="&#x4af;" horiz-adv-x="521" 
d="M459 400h11l-35 -200q-17 -96 -72 -154.5t-134 -58.5h-2l-36 -207h-10l36 207q-74 5 -110.5 63.5t-20.5 149.5l35 200h11l-35 -200q-16 -91 20.5 -147t111.5 -56q74 0 126.5 55.5t68.5 147.5z" />
    <glyph glyph-name="uni04B0" unicode="&#x4b0;" horiz-adv-x="580" 
d="M310 273h-2l-11 -60h180l-1 -10h-180l-36 -203h-11l36 203h-179l1 10h179l11 60q-117 5 -165 88t-18 239h11q-29 -155 18 -236t168 -81q230 0 286 317h11q-58 -327 -298 -327z" />
    <glyph glyph-name="uni04B1" unicode="&#x4b1;" horiz-adv-x="521" 
d="M241 -13h-14l-12 -71h155l-2 -10h-155l-22 -126h-10l22 126h-155l2 10h155l13 72q-76 8 -112 64.5t-20 147.5l35 200h11l-35 -200q-16 -94 23.5 -148.5t120.5 -54.5q147 0 181 193l37 210h11l-37 -210q-35 -203 -192 -203z" />
    <glyph glyph-name="uni04B2" unicode="&#x4b2;" horiz-adv-x="677" 
d="M621 10l-27 -158h-11l25 148h-70q26 137 -29 220t-172 83q-108 0 -188 -83t-103 -220h-11q22 129 93.5 212t170.5 97q-96 19 -138.5 97t-19.5 194h11q-25 -131 31 -209t173 -78q108 0 187 79.5t101 207.5h11q-21 -122 -92 -201t-170 -93q92 -19 134.5 -98t23.5 -198h70z
" />
    <glyph glyph-name="uni04B3" unicode="&#x4b3;" horiz-adv-x="495" 
d="M374 10h72l-27 -148h-11l25 138h-72q18 93 -16 144t-112 51q-73 0 -120 -50t-64 -145h-11q30 180 162 201q-59 15 -83.5 66t-8.5 133h11q-18 -93 16 -144t112 -51q73 0 120 50t64 145h11q-30 -180 -162 -201q57 -14 82 -62.5t12 -126.5z" />
    <glyph glyph-name="uni04B6" unicode="&#x4b6;" horiz-adv-x="654" 
d="M572 10l-27 -158h-11l25 148h-70l63 359q-33 -77 -96 -120t-150 -43q-107 0 -154 64.5t-26 179.5l29 160h11l-29 -160q-20 -111 24 -172.5t145 -61.5q104 0 173.5 64.5t88.5 178.5l27 151h11l-104 -590h70z" />
    <glyph glyph-name="uni04B7" unicode="&#x4b7;" horiz-adv-x="505" 
d="M366 10h83l-27 -148h-11l25 138h-83l41 237q-53 -99 -183 -99q-73 0 -109 35t-24 104l21 123h11l-21 -119q-23 -133 123 -133q81 0 130.5 40.5t62.5 106.5l18 105h11z" />
    <glyph glyph-name="uni04BA" unicode="&#x4ba;" horiz-adv-x="674" 
d="M407 514q105 0 153 -62t27 -182l-47 -270h-11l47 270q20 115 -24.5 174.5t-146.5 59.5q-100 0 -179.5 -65.5t-95.5 -167.5l-48 -271h-11l106 600h11l-45 -253q36 77 107 122t157 45z" />
    <glyph glyph-name="uni04BB" unicode="&#x4bb;" horiz-adv-x="527" 
d="M324 412q72 0 104.5 -48t18.5 -131l-41 -233h-11l40 229q14 80 -15.5 126.5t-96.5 46.5q-76 0 -138 -56.5t-77 -140.5l-36 -205h-11l105 600h11l-57 -327q30 63 85 101t119 38z" />
    <glyph glyph-name="uni04C0" unicode="&#x4c0;" horiz-adv-x="283" 
d="M101 0l106 600h11l-106 -600h-11z" />
    <glyph glyph-name="uni04CF" unicode="&#x4cf;" horiz-adv-x="203" 
d="M61 0l114 650h11l-114 -650h-11z" />
    <glyph glyph-name="uni04D8" unicode="&#x4d8;" horiz-adv-x="710" 
d="M382 614q149 0 229.5 -97t55.5 -247q-21 -123 -115 -203t-217 -80q-130 0 -206 88.5t-57 222.5h588q14 135 -63.5 220.5t-214.5 85.5q-79 0 -147.5 -28t-115.5 -77l-7 7q49 51 119.5 79.5t150.5 28.5zM335 -3q119 0 210 77.5t111 196.5l3 17h-576q-16 -126 57 -208.5
t195 -82.5z" />
    <glyph glyph-name="uni04D9" unicode="&#x4d9;" horiz-adv-x="488" 
d="M250 412q95 0 148.5 -66t38.5 -160q-14 -87 -78.5 -142t-151.5 -55q-85 0 -130.5 52.5t-29.5 134.5q0 3 2 9l377 1q15 89 -35 152.5t-142 63.5q-86 0 -155 -59l-7 8q74 61 163 61zM206 -1q80 0 141 48.5t77 128.5l-367 -1q-13 -77 28.5 -126.5t120.5 -49.5z" />
    <glyph glyph-name="uni04E2" unicode="&#x4e2;" horiz-adv-x="683" 
d="M589 748l-2 -10h-300l2 10h300zM637 600h11l-106 -600h-11l102 580l-551 -580h-11l106 600h11l-103 -582z" />
    <glyph glyph-name="uni04E3" unicode="&#x4e3;" horiz-adv-x="518" 
d="M171 548h300l-2 -10h-300zM66 18l379 382h11l-70 -400h-11l67 382l-379 -382h-11l70 400h11z" />
    <glyph glyph-name="uni04E8" unicode="&#x4e8;" horiz-adv-x="740" 
d="M410 614q152 0 233 -97t54 -247q-20 -123 -114.5 -203t-219.5 -80q-149 0 -229.5 97t-55.5 247q21 123 115 203t217 80zM410 604q-119 0 -210 -77.5t-111 -196.5q-3 -24 -3 -25h605q12 132 -66 215.5t-215 83.5zM363 -3q121 0 212 77.5t111 196.5q0 4 2 12t2 12h-605
q-11 -132 66 -215t212 -83z" />
    <glyph glyph-name="uni04E9" unicode="&#x4e9;" horiz-adv-x="500" 
d="M268 411q95 0 148.5 -66t35.5 -166q-16 -87 -77 -139t-143 -52q-94 0 -148 66.5t-36 165.5q15 82 75 136.5t145 54.5zM268 401q-79 0 -136.5 -50.5t-72.5 -131.5q-2 -8 -2 -13h388q7 86 -43.5 140.5t-133.5 54.5zM232 -2q78 0 135.5 49.5t73.5 132.5q2 10 2 16h-387
q-8 -84 41.5 -141t134.5 -57z" />
    <glyph glyph-name="uni04EE" unicode="&#x4ee;" horiz-adv-x="641" 
d="M569 748l-2 -10h-300l2 10h300zM647 600h12l-380 -599q-43 -68 -90 -103.5t-116 -35.5h-25l2 10h25q61 0 106 32.5t87 98.5l32 50l-176 547h11l172 -535z" />
    <glyph glyph-name="uni04EF" unicode="&#x4ef;" horiz-adv-x="518" 
d="M170 548h300l-2 -10h-300zM414 166l41 234h11l-73 -418q-18 -101 -70.5 -157t-136.5 -56q-95 0 -141 57l8 7q46 -54 134 -54q78 0 128 52.5t67 150.5l24 135q-29 -60 -83 -94.5t-121 -34.5q-153 0 -120 189l39 223h11l-38 -219q-32 -183 108 -183q76 0 134 46t78 122z
" />
    <glyph glyph-name="uni05B0" unicode="&#x5b0;" horiz-adv-x="0" 
d="M66 -97q-17 0 -17 17q0 16 17 16t17 -16q0 -17 -17 -17zM49 -196q-17 0 -17 17q0 16 17 16t17 -16q0 -17 -17 -17z" />
    <glyph glyph-name="uni05B1" unicode="&#x5b1;" horiz-adv-x="0" 
d="M32 -97q-17 0 -17 17q0 16 17 16t17 -16q0 -17 -17 -17zM152 -97q-17 0 -17 17q0 16 17 16t17 -16q0 -17 -17 -17zM266 -97q-17 0 -17 17q0 16 17 16t17 -16q0 -17 -17 -17zM83 -193q-17 0 -17 17q0 16 17 16t17 -16q0 -17 -17 -17zM249 -196q-17 0 -17 17q0 16 17 16
t17 -16q0 -17 -17 -17z" />
    <glyph glyph-name="uni05B2" unicode="&#x5b2;" horiz-adv-x="0" 
d="M340 -97q-17 0 -17 17q0 16 17 16t17 -16q0 -17 -17 -17zM278 -81h-300l2 10h300zM323 -196q-17 0 -17 17q0 16 17 16t17 -16q0 -17 -17 -17z" />
    <glyph glyph-name="uni05B3" unicode="&#x5b3;" horiz-adv-x="0" 
d="M332 -64q17 0 17 -16q0 -17 -17 -17t-17 17q0 16 17 16zM-22 -81l2 10h300l-2 -10h-144l-25 -135h-11l25 135h-145zM315 -163q17 0 17 -16q0 -17 -17 -17t-17 17q0 16 17 16z" />
    <glyph glyph-name="uni05B4" unicode="&#x5b4;" horiz-adv-x="0" 
d="M72 -97q-17 0 -17 17q0 16 17 16t17 -16q0 -17 -17 -17z" />
    <glyph glyph-name="uni05B5" unicode="&#x5b5;" horiz-adv-x="0" 
d="M72 -97q-17 0 -17 17q0 16 17 16t17 -16q0 -17 -17 -17zM192 -97q-17 0 -17 17q0 16 17 16t17 -16q0 -17 -17 -17z" />
    <glyph glyph-name="uni05B6" unicode="&#x5b6;" horiz-adv-x="0" 
d="M72 -97q-17 0 -17 17q0 16 17 16t17 -16q0 -17 -17 -17zM192 -97q-17 0 -17 17q0 16 17 16t17 -16q0 -17 -17 -17zM123 -193q-17 0 -17 17q0 16 17 16t17 -16q0 -17 -17 -17z" />
    <glyph glyph-name="uni05B7" unicode="&#x5b7;" horiz-adv-x="0" 
d="M278 -81h-300l2 10h300z" />
    <glyph glyph-name="uni05B8" unicode="&#x5b8;" horiz-adv-x="0" 
d="M280 -71l-2 -10h-144l-25 -135h-11l25 135h-145l2 10h300z" />
    <glyph glyph-name="uni05B9" unicode="&#x5b9;" horiz-adv-x="0" 
d="M102 685q-17 0 -17 17q0 16 17 16t17 -16q0 -17 -17 -17z" />
    <glyph glyph-name="uni05BA" unicode="&#x5ba;" horiz-adv-x="0" 
d="M162 692q-17 0 -17 17q0 16 17 16t17 -16q0 -17 -17 -17z" />
    <glyph glyph-name="uni05BB" unicode="&#x5bb;" horiz-adv-x="0" 
d="M52 -67q-17 0 -17 17q0 16 17 16t17 -16q0 -17 -17 -17zM163 -127q-17 0 -17 17q0 16 17 16t17 -16q0 -17 -17 -17zM270 -197q-17 0 -17 17q0 16 17 16t17 -16q0 -17 -17 -17z" />
    <glyph glyph-name="uni05BC" unicode="&#x5bc;" horiz-adv-x="0" 
d="M122 293q-17 0 -17 17q0 16 17 16t17 -16q0 -17 -17 -17z" />
    <glyph glyph-name="uni05BE" unicode="&#x5be;" horiz-adv-x="420" 
d="M423 590h-300l2 10h300z" />
    <glyph glyph-name="uni05BF" unicode="&#x5bf;" horiz-adv-x="0" 
d="M420 688h-300l2 10h300z" />
    <glyph glyph-name="uni05C0" unicode="&#x5c0;" horiz-adv-x="307" 
d="M113 0l144 820h11l-144 -820h-11z" />
    <glyph glyph-name="uni05C1" unicode="&#x5c1;" horiz-adv-x="0" 
d="M162 685q-17 0 -17 17q0 16 17 16t17 -16q0 -17 -17 -17z" />
    <glyph glyph-name="uni05C2" unicode="&#x5c2;" horiz-adv-x="0" 
d="M162 685q-17 0 -17 17q0 16 17 16t17 -16q0 -17 -17 -17z" />
    <glyph glyph-name="uni05C3" unicode="&#x5c3;" horiz-adv-x="236" 
d="M186 571q-17 0 -17 17q0 16 17 16t17 -16q0 -17 -17 -17zM85 -5q-17 0 -17 17q0 16 17 16t17 -16q0 -17 -17 -17z" />
    <glyph glyph-name="uni05C7" unicode="&#x5c7;" horiz-adv-x="0" 
d="M280 -71l-2 -10h-144l-25 -135h-11l25 135h-145l2 10h300z" />
    <glyph glyph-name="uni05D0" unicode="&#x5d0;" horiz-adv-x="637" 
d="M596 470q-31 -175 -180 -278l131 -192h-13l-273 401q-144 -102 -173 -271l-23 -130h-11l23 130q32 177 178 280l-129 190h13l272 -400q143 102 174 270l23 130h11z" />
    <glyph glyph-name="uni05D1" unicode="&#x5d1;" horiz-adv-x="665" 
d="M452 10h154l-1 -10h-559l1 10h394l59 340q19 111 -24 175.5t-147 64.5h-179l2 10h180q108 0 153.5 -68.5t25.5 -181.5z" />
    <glyph glyph-name="uni05D2" unicode="&#x5d2;" horiz-adv-x="480" 
d="M220 600q94 0 136 -62.5t40 -192.5l-6 -345h-11l4 245q-138 -1 -213.5 -53.5t-95.5 -161.5l-5 -30h-11l5 30q20 114 98.5 169t221.5 56l2 90q2 126 -37 185.5t-128 59.5h-64l2 10h62z" />
    <glyph glyph-name="uni05D3" unicode="&#x5d3;" horiz-adv-x="593" 
d="M629 600l-2 -10h-156l-104 -590h-11l104 590h-366l2 10h533z" />
    <glyph glyph-name="uni05D4" unicode="&#x5d4;" horiz-adv-x="704" 
d="M559 0l61 350q20 110 -23 175t-148 65h-274l2 10h275q108 0 153.5 -68.5t25.5 -181.5l-61 -350h-11zM71 0l58 330h11l-58 -330h-11z" />
    <glyph glyph-name="uni05D5" unicode="&#x5d5;" horiz-adv-x="283" 
d="M101 0l106 600h11l-106 -600h-11z" />
    <glyph glyph-name="uni05D6" unicode="&#x5d6;" horiz-adv-x="375" 
d="M106 600h310l-2 -10q-87 0 -132.5 -44t-64.5 -146l-70 -400h-11l70 400q15 84 47 129t87 61h-236z" />
    <glyph glyph-name="uni05D7" unicode="&#x5d7;" horiz-adv-x="714" 
d="M71 0l106 600h285q108 0 153.5 -68.5t25.5 -181.5l-61 -350h-11l61 350q19 111 -24 175.5t-147 64.5h-273l-104 -590h-11z" />
    <glyph glyph-name="uni05D8" unicode="&#x5d8;" horiz-adv-x="673" 
d="M327 -14q-121 0 -180 76.5t-35 209.5l58 328h11l-58 -328q-23 -130 33.5 -203t172.5 -73q112 0 184.5 72t95.5 201l14 81q19 110 -24 175t-147 65h-24l2 10h25q108 0 153 -68.5t26 -181.5l-14 -82q-23 -134 -99 -208t-194 -74z" />
    <glyph glyph-name="uni05D9" unicode="&#x5d9;" horiz-adv-x="283" 
d="M159 330l48 270h11l-48 -270h-11z" />
    <glyph glyph-name="uni05DA" unicode="&#x5da;" horiz-adv-x="514" 
d="M330 -220l100 570q19 111 -24.5 175.5t-146.5 64.5h-154l2 10h152q108 0 155 -67t27 -183l-100 -570h-11z" />
    <glyph glyph-name="uni05DB" unicode="&#x5db;" horiz-adv-x="567" 
d="M27 0l1 10h140q128 0 225.5 74.5t121.5 196.5q25 129 -52.5 219t-211.5 90h-120l2 10h120q136 0 217.5 -93t55.5 -228q-24 -125 -124.5 -202t-234.5 -77h-140z" />
    <glyph glyph-name="uni05DC" unicode="&#x5dc;" horiz-adv-x="551" 
d="M142 600h415l-2 -10q-37 -207 -130 -352t-250 -241l-5 9q155 95 246.5 238.5t127.5 345.5h-415l38 230h11z" />
    <glyph glyph-name="uni05DD" unicode="&#x5dd;" horiz-adv-x="724" 
d="M472 600q108 0 153.5 -68.5t25.5 -181.5l-61 -350h-519l106 600h295zM640 350q19 111 -24 175.5t-147 64.5h-283l-102 -580h497z" />
    <glyph glyph-name="uni05DE" unicode="&#x5de;" horiz-adv-x="714" 
d="M458 614q110 0 157 -72.5t26 -191.5l-61 -350h-254l1 10h244l59 340q20 117 -24 185.5t-150 68.5q-119 0 -208 -84t-113 -219l-53 -301h-11l106 600h11l-38 -210q41 104 122 164t186 60z" />
    <glyph glyph-name="uni05DF" unicode="&#x5df;" horiz-adv-x="283" 
d="M62 -220l145 820h11l-145 -820h-11z" />
    <glyph glyph-name="uni05E0" unicode="&#x5e0;" horiz-adv-x="404" 
d="M168 600q207 0 163 -250l-61 -350h-264l1 10h254l59 340q42 240 -151 240h-19l2 10h16z" />
    <glyph glyph-name="uni05E1" unicode="&#x5e1;" horiz-adv-x="725" 
d="M344 -14q-53 0 -101 19t-83.5 54.5t-51 92t-3.5 125.5l57 323h543l-57 -323q-25 -139 -109.5 -215t-194.5 -76zM343 -4q105 0 187.5 73t106.5 208l55 313l-521 1l-55 -314q-23 -131 48 -206t179 -75z" />
    <glyph glyph-name="uni05E2" unicode="&#x5e2;" horiz-adv-x="649" 
d="M615 600h11l-25 -140q-44 -247 -159.5 -353.5t-339.5 -106.5h-64l1 10h64q122 0 205 30l-159 560h11l157 -557q112 42 177 143t96 274z" />
    <glyph glyph-name="uni05E3" unicode="&#x5e3;" horiz-adv-x="649" 
d="M319 600q141 0 206 -85.5t39 -234.5l-88 -500h-11l88 500q26 146 -36 228t-197 82h-167l-56 -318h205l-2 -10h-216l60 338h175z" />
    <glyph glyph-name="uni05E4" unicode="&#x5e4;" horiz-adv-x="665" 
d="M359 600q142 0 217 -90.5t48 -230.5q-26 -133 -122 -206t-249 -73h-185l1 10h185q148 0 241 70.5t118 198.5q26 136 -45.5 223.5t-210.5 87.5h-174l-52 -295h215l-2 -10h-226l56 315h185z" />
    <glyph glyph-name="uni05E5" unicode="&#x5e5;" horiz-adv-x="600" 
d="M590 600h11l-15 -80q-26 -151 -91 -242t-184 -128l-66 -370h-11l66 370h-1l-175 450h12l172 -440q115 36 178 125t89 235z" />
    <glyph glyph-name="uni05E6" unicode="&#x5e6;" horiz-adv-x="607" 
d="M566 470q-31 -172 -175 -275l119 -185l-1 -10h-499l1 10h487l-382 590h13l256 -397q141 104 170 267l23 130h11z" />
    <glyph glyph-name="uni05E7" unicode="&#x5e7;" horiz-adv-x="609" 
d="M233 -3l-5 9q155 95 246.5 238.5t127.5 345.5h-437l2 10h448l-2 -10q-37 -207 -130 -352t-250 -241zM34 -220l95 550h11l-95 -550h-11z" />
    <glyph glyph-name="uni05E8" unicode="&#x5e8;" horiz-adv-x="564" 
d="M419 0l61 350q22 122 -19.5 181t-151.5 59h-204l2 10h205q222 0 179 -250l-61 -350h-11z" />
    <glyph glyph-name="uni05E9" unicode="&#x5e9;" horiz-adv-x="777" 
d="M738 600h11l-50 -282q-28 -157 -115.5 -244.5t-217.5 -87.5q-137 0 -204.5 92t-40.5 244l49 278h11l-49 -278q-28 -160 47 -250q197 63 234 269l46 259h11l-46 -259q-38 -213 -237 -277q63 -68 180 -68q124 0 208.5 85.5t112.5 237.5z" />
    <glyph glyph-name="uni05EA" unicode="&#x5ea;" horiz-adv-x="694" 
d="M-24 0l1 10h6q71 0 112 38.5t55 118.5l77 433h215q108 0 153 -68.5t26 -181.5l-61 -350h-11l61 350q19 110 -24 175t-147 65h-203l-75 -423q-16 -87 -59 -127t-120 -40h-6z" />
    <glyph glyph-name="uni05F0" unicode="&#x5f0;" horiz-adv-x="566" 
d="M101 0l106 600h11l-106 -600h-11zM384 0l106 600h11l-106 -600h-11z" />
    <glyph glyph-name="uni05F1" unicode="&#x5f1;" horiz-adv-x="526" 
d="M159 330l48 270h11l-48 -270h-11zM344 0l106 600h11l-106 -600h-11z" />
    <glyph glyph-name="uni05F2" unicode="&#x5f2;" horiz-adv-x="526" 
d="M159 330l48 270h11l-48 -270h-11zM402 330l48 270h11l-48 -270h-11z" />
    <glyph glyph-name="uni05F3" unicode="&#x5f3;" horiz-adv-x="226" 
d="M116 347l-10 4l98 253l10 -4z" />
    <glyph glyph-name="uni05F4" unicode="&#x5f4;" horiz-adv-x="406" 
d="M116 347l-10 4l98 253l10 -4zM296 347l-10 4l98 253l10 -4z" />
    <glyph glyph-name="uni1E30" unicode="&#x1e30;" horiz-adv-x="635" 
d="M548 801l-218 -98l-4 9l217 98zM328 308q118 -19 175 -101.5t35 -206.5h-11q25 136 -48 219.5t-217 83.5h-126l-54 -303h-11l106 600h11l-51 -287h126q135 0 236.5 81t124.5 206h11q-19 -112 -103.5 -192t-203.5 -100z" />
    <glyph glyph-name="uni1E31" unicode="&#x1e31;" horiz-adv-x="490" 
d="M293 780l-175 -129l-6 7l175 130zM458 410q-14 -81 -75.5 -136t-153.5 -70q87 -11 129.5 -66t27.5 -138h-11q16 91 -36 144.5t-156 53.5h-76l-35 -198h-11l105 600h11l-69 -392h56q112 0 189 55t94 147h11z" />
    <glyph glyph-name="uni1E40" unicode="&#x1e40;" horiz-adv-x="826" 
d="M510 731q-17 0 -17 17q0 16 17 16t17 -16q0 -17 -17 -17zM738 600h13l-66 -600h-11l64 582l-341 -502h-10l-163 505l-142 -585h-11l146 600h13l163 -507z" />
    <glyph glyph-name="uni1E41" unicode="&#x1e41;" horiz-adv-x="808" 
d="M469 554q-17 0 -17 17q0 16 17 16t17 -16q0 -17 -17 -17zM609 412q75 0 105 -49t14 -130l-41 -233h-11l40 229q15 80 -12 126.5t-96 46.5q-72 0 -125 -50t-71 -140l-37 -212h-11l40 229q14 80 -11 126.5t-90 46.5q-71 0 -128.5 -52t-74.5 -140l-37 -210h-11l70 400h11
l-21 -120q29 62 81 97t111 35q61 0 90 -37t26 -101q27 66 76.5 102t112.5 36z" />
    <glyph glyph-name="Wgrave" unicode="&#x1e80;" horiz-adv-x="926" 
d="M656 712l-5 -8l-203 97l5 9zM907 604h13l-288 -604h-16l-84 589l-294 -589h-17l-73 604h12l71 -595l294 591h16l84 -591z" />
    <glyph glyph-name="wgrave" unicode="&#x1e81;" horiz-adv-x="752" 
d="M494 501l-7 -7l-130 129l8 8zM730 400h12l-230 -400h-14l-88 389l-226 -389h-14l-90 400h11l87 -391l226 391h14l88 -391z" />
    <glyph glyph-name="Wacute" unicode="&#x1e82;" horiz-adv-x="926" 
d="M683 801l-218 -98l-4 9l217 98zM907 604h13l-288 -604h-16l-84 589l-294 -589h-17l-73 604h12l71 -595l294 591h16l84 -591z" />
    <glyph glyph-name="wacute" unicode="&#x1e83;" horiz-adv-x="752" 
d="M534 623l-175 -129l-6 7l175 130zM730 400h12l-230 -400h-14l-88 389l-226 -389h-14l-90 400h11l87 -391l226 391h14l88 -391z" />
    <glyph glyph-name="Wdieresis" unicode="&#x1e84;" horiz-adv-x="926" 
d="M457 714q-17 0 -17 17q0 16 17 16t17 -16q0 -17 -17 -17zM657 714q-17 0 -17 17q0 16 17 16t17 -16q0 -17 -17 -17zM907 604h13l-288 -604h-16l-84 589l-294 -589h-17l-73 604h12l71 -595l294 591h16l84 -591z" />
    <glyph glyph-name="wdieresis" unicode="&#x1e85;" horiz-adv-x="752" 
d="M335 554q-17 0 -17 17q0 16 17 16t17 -16q0 -17 -17 -17zM535 554q-17 0 -17 17q0 16 17 16t17 -16q0 -17 -17 -17zM730 400h12l-230 -400h-14l-88 389l-226 -389h-14l-90 400h11l87 -391l226 391h14l88 -391z" />
    <glyph glyph-name="uni1E9E" unicode="&#x1e9e;" horiz-adv-x="710" 
d="M518 335q72 -24 105 -71t22 -110q-11 -71 -66.5 -118.5t-133.5 -47.5q-103 0 -173 68l8 7q68 -65 165 -65q73 0 124.5 43t64.5 113q23 127 -132 177l164 213q-37 27 -94.5 44.5t-118.5 17.5q-264 0 -311 -265l-60 -341h-11l60 341q49 275 323 275q68 0 129 -20.5
t96 -48.5z" />
    <glyph glyph-name="uni1EBC" unicode="&#x1ebc;" horiz-adv-x="580" 
d="M343 790q-28 0 -47.5 -25t-19.5 -63h-11q0 42 23 70t56 28t72 -46q36 -44 67 -44q29 0 48 25t19 63h11q0 -43 -22.5 -70.5t-56.5 -27.5q-35 0 -74 47q-11 14 -18 21.5t-20 14.5t-27 7zM590 590h-404l-49 -277h384l-1 -10h-384l-52 -293h414l-2 -10h-425l106 600h415z" />
    </font>
</defs>
</svg>
