<?xml version="1.0" standalone="no"?>
<!DOCTYPE svg PUBLIC "-//W3C//DTD SVG 1.1//EN" "http://www.w3.org/Graphics/SVG/1.1/DTD/svg11.dtd" >
<svg xmlns="http://www.w3.org/2000/svg" xmlns:xlink="http://www.w3.org/1999/xlink" version="1.1">
<metadata>
Created by FontForge 20170731 at Mon Jun 27 15:20:25 2016
 By Aleksey,,,
Created by Christian Thalmann with Glyphs in 2015-2016.
</metadata>
<defs>
<font id="Quinoa-BoldItalic" horiz-adv-x="687" >
  <font-face 
    font-family="Quinoa-BoldItalic"
    font-weight="400"
    font-style="italic"
    font-stretch="normal"
    units-per-em="1000"
    panose-1="0 0 8 0 0 0 0 0 0 0"
    ascent="753"
    descent="-247"
    x-height="400"
    cap-height="600"
    bbox="-543 -233 1412 1030"
    underline-thickness="50"
    underline-position="-150"
    slope="-10"
    unicode-range="U+0020-FB4F"
  />
<missing-glyph horiz-adv-x="460" 
d="M377 700v-920h-291v920h291zM306 638h-151v-30h59v-34h-60v-30h152v30h-60v34h60v30zM246 520h-92v-96h152v31h-60v65zM214 488v-33h-30v33h30zM306 399h-152v-30h60v-34h-60v-31h92v65h60v30zM306 344h-30v-61h-122v-31h152v92zM306 232h-92v-52h32v21h30v-43h-92v74
h-30v-104h152v104zM306 73h-152v-104h152v104zM276 42v-43h-92v43h92zM306 -53h-152v-30h64l-64 -43v-31h152v31h-93l64 43h29v30z" />
    <glyph glyph-name="Iacute_J_acutecomb.liga" unicode="&#xcd;J&#x301;" horiz-adv-x="667" 
d="M551 673l-38 79l214 97l40 -85zM137 664l-38 79l214 97l40 -85zM198 249q-12 -72 25.5 -115t103.5 -43q65 0 110 42.5t58 115.5l59 351h117l-62 -360q-20 -119 -97.5 -186.5t-192.5 -67.5q-126 0 -194.5 75.5t-47.5 189.5l3 16h121zM99 383l38 217h121l-38 -217h-121z
" />
    <glyph glyph-name="Q_U.liga" unicode="QU" horiz-adv-x="1407" 
d="M1026 -122q159 0 253 45l37 -92q-128 -51 -311 -51q-378 0 -598 210q-24 -4 -55 -4q-152 0 -233.5 97.5t-55.5 247.5q22 124 117.5 204t220.5 80q154 0 236 -97.5t55 -247.5q-28 -157 -166 -238q190 -154 500 -154zM1295 600h117l-61 -346q-22 -126 -104.5 -197
t-203.5 -71q-131 0 -198.5 82t-43.5 218l56 314h117l-57 -326q-15 -84 22 -133.5t110 -49.5q70 0 121 47t65 125zM181 321q-16 -100 35 -164.5t146 -64.5q79 0 138.5 53t73.5 135q17 100 -34 164.5t-147 64.5q-78 0 -138.5 -53t-73.5 -135z" />
    <glyph glyph-name="Q_u.liga" unicode="Qu" horiz-adv-x="1231" 
d="M1316 -169q-128 -51 -311 -51q-378 0 -598 210q-24 -4 -55 -4q-152 0 -233.5 97.5t-55.5 247.5q22 124 117.5 204t220.5 80q154 0 236 -97.5t55 -247.5q-28 -157 -166 -238q190 -154 500 -154q159 0 253 45zM181 321q-16 -100 35 -164.5t146 -64.5q79 0 138.5 53
t73.5 135q17 100 -34 164.5t-147 64.5q-78 0 -138.5 -53t-73.5 -135zM889 -12q-68 0 -102.5 48.5t-19.5 127.5l41 236h106l-39 -220q-15 -94 58 -94q45 0 83 31.5t49 78.5l36 204h107l-70 -400h-107l9 54q-69 -66 -151 -66z" />
    <glyph glyph-name="f_adieresis.liga" unicode="f&#xe4;" horiz-adv-x="850" 
d="M235 400h130l-16 -90h-130l-54 -310h-107l54 310h-70l16 90h70l13 71q21 116 93 177.5t163 61.5q89 0 148.5 -55.5t41.5 -152.5h-104q8 51 -21 80t-73 29q-48 0 -88 -34.5t-51 -93.5zM747 500q-31 0 -49.5 19t-18.5 48q0 30 19 49t49 19t49 -19.5t19 -48.5t-19 -48
t-49 -19zM723 400h104l-70 -400h-104l7 42q-57 -52 -128 -52q-64 0 -107 35t-57 87.5t-4 110.5q14 78 68.5 133t136.5 55q97 0 144 -75zM565 87q47 0 82 27t43 72q10 53 -22 90t-86 37q-46 0 -76.5 -29.5t-38.5 -72.5q-8 -49 17.5 -86.5t80.5 -37.5z" />
    <glyph glyph-name="f_b.liga" unicode="fb" horiz-adv-x="861" 
d="M665 410q64 0 107 -35t57 -87.5t4 -110.5q-14 -78 -68.5 -133t-136.5 -55q-94 0 -142 71l-9 -60h-107l87 496q11 56 -14.5 85t-67.5 29t-77 -30t-46 -87l-17 -93h130l-16 -90h-130l-54 -310h-107l54 310h-70l16 90h70l15 81q21 112 85.5 169.5t153.5 57.5q94 0 146.5 -60
t34.5 -160l-22 -127q54 49 124 49zM730 189q8 49 -17.5 86.5t-80.5 37.5q-47 0 -82 -27t-43 -72q-10 -53 22 -90t86 -37q46 0 76.5 29.5t38.5 72.5z" />
    <glyph glyph-name="f_f.liga" unicode="ff" horiz-adv-x="657" 
d="M705 708h43l-18 -102h-37q-111 0 -132 -123l-15 -83h130l-16 -90h-129l-55 -310h-107l55 310h-205l-55 -310h-107l54 310h-69l16 90h69l11 61q20 114 87.5 180.5t166.5 66.5q91 0 148 -53q60 53 165 53zM439 400l13 71q9 55 27 95q-32 43 -92 43q-53 0 -91 -37t-50 -109
l-11 -63h204z" />
    <glyph glyph-name="f_f_adieresis.liga" unicode="ff&#xe4;" horiz-adv-x="1165" 
d="M550 400h130l-16 -90h-130l-54 -310h-107l54 310h-208l-55 -310h-107l54 310h-69l16 90h69l11 61q20 114 87.5 180.5t166.5 66.5q98 0 156 -61q70 63 164 63q89 0 148.5 -55.5t41.5 -152.5h-104q8 51 -21 80t-73 29q-48 0 -88 -34.5t-51 -93.5zM1062 500q-30 0 -49 19
t-19 48q0 30 19 49t49 19t49 -19.5t19 -48.5t-19 -48t-49 -19zM443 400l13 71q9 50 28 88q-30 50 -97 50q-53 0 -91 -37t-50 -109l-11 -63h208zM1038 400h104l-70 -400h-104l7 42q-57 -52 -128 -52q-64 0 -107 35t-57 87.5t-4 110.5q14 78 68.5 133t136.5 55q45 0 83 -19
t61 -56zM880 87q47 0 82 27t43 72q10 53 -22 90t-86 37q-46 0 -76.5 -29.5t-38.5 -72.5q-8 -49 17.5 -86.5t80.5 -37.5z" />
    <glyph glyph-name="f_f_b.liga" unicode="ffb" horiz-adv-x="1176" 
d="M980 410q64 0 107 -35t57 -87.5t4 -110.5q-14 -78 -68.5 -133t-136.5 -55q-94 0 -142 71l-9 -60h-107l87 496q11 56 -14.5 85t-67.5 29t-77 -30t-46 -87l-17 -93h130l-16 -90h-130l-54 -310h-107l54 310h-208l-55 -310h-107l54 310h-69l16 90h69l11 61q20 114 87.5 180.5
t166.5 66.5q94 0 152 -57q63 57 153 57q94 0 146.5 -60t34.5 -160l-22 -127q54 49 124 49zM443 400l15 81q9 46 24 80q-30 48 -95 48q-53 0 -91 -37t-50 -109l-11 -63h208zM1045 189q8 49 -17.5 86.5t-80.5 37.5q-47 0 -82 -27t-43 -72q-10 -53 22 -90t86 -37
q46 0 76.5 29.5t38.5 72.5z" />
    <glyph glyph-name="f_f_f.liga" unicode="fff" horiz-adv-x="968" 
d="M1016 708h43l-18 -102h-37q-112 0 -132 -123l-15 -83h130l-16 -90h-129l-55 -310h-107l55 310h-205l-55 -310h-107l54 310h-203l-55 -310h-107l54 310h-69l16 90h69l11 61q20 114 87.5 180.5t166.5 66.5q95 0 153 -58q67 58 158 58t148 -53q60 53 165 53zM438 400l11 61
q9 56 32 102q-30 46 -94 46q-53 0 -91 -37t-50 -109l-11 -63h203zM750 400l13 71q9 55 27 95q-32 43 -92 43q-53 0 -91 -37t-50 -109l-11 -63h204z" />
    <glyph glyph-name="f_f_f_i.liga" unicode="fffi" horiz-adv-x="1202" 
d="M1003 708q92 0 147 -56t39 -140h-105q8 43 -17 70t-69 27q-45 0 -80 -29.5t-44 -86.5l-17 -93h130l-16 -90h-130l-54 -310h-107l54 310h-208l-55 -310h-107l54 310h-199l-55 -310h-107l54 310h-69l16 90h69l11 61q20 114 87.5 180.5t166.5 66.5q94 0 151 -57
q65 57 156 57q94 0 151 -57q63 57 153 57zM434 400l11 61q11 60 34 105q-32 43 -92 43q-53 0 -91 -37t-50 -109l-11 -63h199zM750 400l15 81q7 43 23 81q-30 47 -94 47q-53 0 -91 -37t-50 -109l-11 -63h208zM991 0l70 400h107l-70 -400h-107z" />
    <glyph glyph-name="f_f_f_j.liga" unicode="fffj" horiz-adv-x="1202" 
d="M1003 708q92 0 147 -56t39 -140h-105q8 43 -17 70t-69 27q-45 0 -80 -29.5t-44 -86.5l-17 -93h130l-16 -90h-130l-54 -310h-107l54 310h-208l-55 -310h-107l54 310h-199l-55 -310h-107l54 310h-69l16 90h69l11 61q20 114 87.5 180.5t166.5 66.5q94 0 151 -57
q65 57 156 57q94 0 151 -57q63 57 153 57zM434 400l11 61q11 60 34 105q-32 43 -92 43q-53 0 -91 -37t-50 -109l-11 -63h199zM750 400l15 81q7 43 23 81q-30 47 -94 47q-53 0 -91 -37t-50 -109l-11 -63h208zM990 -2l71 402h107l-70 -400q-21 -118 -82 -175t-167 -57h-43
l18 102h33q111 0 133 128z" />
    <glyph glyph-name="f_f_f_l.liga" unicode="fffl" horiz-adv-x="1192" 
d="M1004 708q94 0 146.5 -60t34.5 -160l-86 -488h-107l87 496q10 57 -15 85.5t-67 28.5t-77 -30t-46 -87l-17 -93h130l-16 -90h-130l-54 -310h-107l54 310h-208l-55 -310h-107l54 310h-199l-55 -310h-107l54 310h-69l16 90h69l11 61q20 114 87.5 180.5t166.5 66.5
q94 0 151 -57q65 57 156 57q94 0 152 -57q63 57 153 57zM434 400l11 61q11 60 34 105q-32 43 -92 43q-53 0 -91 -37t-50 -109l-11 -63h199zM750 400l15 81q9 46 24 80q-30 48 -95 48q-53 0 -91 -37t-50 -109l-11 -63h208z" />
    <glyph glyph-name="f_f_h.liga" unicode="ffh" horiz-adv-x="1180" 
d="M1006 412q68 0 102.5 -48.5t19.5 -127.5l-41 -236h-106l39 220q15 94 -58 94q-44 0 -82.5 -30.5t-51.5 -76.5l-36 -207h-107l87 496q10 57 -15 85.5t-67 28.5t-77 -30t-46 -87l-17 -93h130l-16 -90h-130l-54 -310h-107l54 310h-208l-55 -310h-107l54 310h-69l16 90h69
l11 61q20 114 87.5 180.5t166.5 66.5q94 0 152 -57q63 57 153 57q94 0 146.5 -60t34.5 -160l-25 -142q71 66 153 66zM443 400l15 81q9 46 24 80q-30 48 -95 48q-53 0 -91 -37t-50 -109l-11 -63h208z" />
    <glyph glyph-name="f_f_i.liga" unicode="ffi" horiz-adv-x="895" 
d="M696 708q92 0 147 -56t39 -140h-105q8 43 -17 70t-69 27q-45 0 -80 -29.5t-44 -86.5l-17 -93h130l-16 -90h-130l-54 -310h-107l54 310h-208l-55 -310h-107l54 310h-69l16 90h69l11 61q20 114 87.5 180.5t166.5 66.5q94 0 151 -57q63 57 153 57zM443 400l15 81q7 43 23 81
q-30 47 -94 47q-53 0 -91 -37t-50 -109l-11 -63h208zM684 0l70 400h107l-70 -400h-107z" />
    <glyph glyph-name="f_f_j.liga" unicode="ffj" horiz-adv-x="895" 
d="M696 708q92 0 147 -56t39 -140h-105q8 43 -17 70t-69 27q-45 0 -80 -29.5t-44 -86.5l-17 -93h130l-16 -90h-130l-54 -310h-107l54 310h-208l-55 -310h-107l54 310h-69l16 90h69l11 61q20 114 87.5 180.5t166.5 66.5q94 0 151 -57q63 57 153 57zM443 400l15 81q7 43 23 81
q-30 47 -94 47q-53 0 -91 -37t-50 -109l-11 -63h208zM683 -2l71 402h107l-70 -400q-21 -118 -82 -175t-167 -57h-43l18 102h33q111 0 133 128z" />
    <glyph glyph-name="f_f_k.liga" unicode="ffk" horiz-adv-x="1142" 
d="M972 214q116 -50 85 -214h-105q14 83 -11 125.5t-78 42.5h-41l-30 -168h-107l87 496q10 57 -15 85.5t-67 28.5t-77 -30t-46 -87l-17 -93h130l-16 -90h-130l-54 -310h-107l54 310h-208l-55 -310h-107l54 310h-69l16 90h69l11 61q20 114 87.5 180.5t166.5 66.5
q94 0 152 -57q63 57 153 57q94 0 146.5 -60t34.5 -160l-41 -230h14q56 0 108.5 45t65.5 105h104q-12 -66 -54 -117.5t-103 -76.5zM443 400l15 81q9 46 24 80q-30 48 -95 48q-53 0 -91 -37t-50 -109l-11 -63h208z" />
    <glyph glyph-name="f_f_l.liga" unicode="ffl" horiz-adv-x="895" 
d="M697 708q94 0 146.5 -60t34.5 -160l-86 -488h-107l87 496q10 57 -15 85.5t-67 28.5t-77 -30t-46 -87l-17 -93h130l-16 -90h-130l-54 -310h-107l54 310h-208l-55 -310h-107l54 310h-69l16 90h69l11 61q20 114 87.5 180.5t166.5 66.5q94 0 152 -57q63 57 153 57zM443 400
l15 81q9 46 24 80q-30 48 -95 48q-53 0 -91 -37t-50 -109l-11 -63h208z" />
    <glyph glyph-name="f_f_odieresis.liga" unicode="ff&#xf6;" horiz-adv-x="1131" 
d="M550 400h130l-16 -90h-130l-54 -310h-107l54 310h-208l-55 -310h-107l54 310h-69l16 90h69l11 61q20 114 87.5 180.5t166.5 66.5q98 0 156 -61q70 63 164 63q89 0 148.5 -55.5t41.5 -152.5h-104q8 51 -21 80t-73 29q-48 0 -88 -34.5t-51 -93.5zM1062 635q30 0 49 -19.5
t19 -48.5t-19 -48t-49 -19t-49 19t-19 48q0 30 19 49t49 19zM443 400l13 71q9 50 28 88q-30 50 -97 50q-53 0 -91 -37t-50 -109l-11 -63h208zM910 412q101 0 156.5 -67t36.5 -166q-16 -86 -80 -138.5t-152 -52.5q-101 0 -156 66t-36 166q17 88 80.5 140t150.5 52zM1000 190
q10 54 -18 88.5t-80 34.5q-47 0 -79 -29.5t-40 -72.5q-10 -52 18 -87.5t81 -35.5q45 0 77 27.5t41 74.5z" />
    <glyph glyph-name="f_f_ohungarumlaut.liga" unicode="ff&#x151;" horiz-adv-x="1131" 
d="M680 400l-16 -90h-129l-55 -310h-107l55 310h-209l-55 -310h-107l54 310h-69l16 90h69l11 61q20 114 87.5 180.5t166.5 66.5q94 0 152 -57q63 57 162 57q68 0 118 -33l-60 -88q-23 22 -64 22q-112 0 -135 -126l-15 -83h130zM818 464l-53 69l171 131l58 -74zM1018 464
l-53 69l171 131l58 -74zM443 400l13 71q9 49 26 90q-30 48 -95 48q-53 0 -91 -37t-50 -109l-11 -63h208zM910 412q101 0 156.5 -67t36.5 -166q-16 -86 -80 -138.5t-152 -52.5q-101 0 -156 66t-36 166q17 88 80.5 140t150.5 52zM1000 190q10 54 -18 88.5t-80 34.5
q-47 0 -79 -29.5t-40 -72.5q-10 -52 18 -87.5t81 -35.5q45 0 77 27.5t41 74.5z" />
    <glyph glyph-name="f_f_thorn.liga" unicode="ff&#xfe;" horiz-adv-x="1177" 
d="M980 410q64 0 107 -35t57 -87.5t4 -110.5q-14 -78 -68.5 -133t-136.5 -55q-94 0 -142 71l-47 -280h-107l125 716q10 57 -15 85.5t-67 28.5t-77 -30t-46 -87l-17 -93h130l-16 -90h-130l-54 -310h-107l54 310h-208l-55 -310h-107l54 310h-69l16 90h69l11 61
q20 114 87.5 180.5t166.5 66.5q94 0 152 -57q63 57 153 57q94 0 146.5 -60t34.5 -160l-22 -127q54 49 124 49zM443 400l15 81q9 46 24 80q-30 48 -95 48q-53 0 -91 -37t-50 -109l-11 -63h208zM1045 189q8 49 -17.5 86.5t-80.5 37.5q-47 0 -82 -27t-43 -72q-10 -53 22 -90
t86 -37q46 0 76.5 29.5t38.5 72.5z" />
    <glyph glyph-name="f_f_t.liga" unicode="fft" horiz-adv-x="1005" 
d="M825 310l-25 -142q-7 -37 8.5 -58.5t48.5 -21.5q34 0 67 23l52 -68q-58 -55 -142 -55q-76 0 -116.5 45t-25.5 126l27 151h-184l-55 -310h-107l55 310h-209l-55 -310h-107l54 310h-69l16 90h69l11 61q20 114 87.5 180.5t166.5 66.5q95 0 153 -58q63 58 155 58
q46 0 87.5 -17.5t64.5 -49.5l-82 -65q-26 33 -76 33q-49 0 -83.5 -32t-45.5 -94l-15 -83h184l18 100h107l-18 -100h163l-16 -90h-163zM443 400l13 71q9 48 26 89q-29 49 -95 49q-53 0 -91 -37t-50 -109l-11 -63h208z" />
    <glyph glyph-name="f_f_udieresis.liga" unicode="ff&#xfc;" horiz-adv-x="1167" 
d="M565 483l-15 -83h130l-16 -90h-130l-54 -310h-107l54 310h-208l-55 -310h-107l54 310h-69l16 90h69l11 61q20 114 87.5 180.5t166.5 66.5q98 0 156 -61q70 63 164 63q89 0 148.5 -55.5t41.5 -152.5h-104q8 51 -21 80t-73 29q-48 0 -88 -34.5t-51 -93.5zM1062 500
q-30 0 -49 19t-19 48q0 30 19 49t49 19t49 -19.5t19 -48.5t-19 -48t-49 -19zM443 400l13 71q9 50 28 88q-30 50 -97 50q-53 0 -91 -37t-50 -109l-11 -63h208zM1037 400h107l-70 -400h-107l9 54q-69 -66 -151 -66q-68 0 -102.5 48.5t-19.5 127.5l41 236h106l-39 -220
q-15 -94 58 -94q45 0 83 31.5t49 78.5z" />
    <glyph glyph-name="f_f_uhungarumlaut.liga" unicode="ff&#x171;" horiz-adv-x="1177" 
d="M700 609q-112 0 -135 -126l-15 -83h130l-16 -90h-129l-55 -310h-107l55 310h-209l-55 -310h-107l54 310h-69l16 90h69l11 61q20 114 87.5 180.5t166.5 66.5q94 0 152 -57q63 57 162 57q68 0 118 -33l-60 -88q-23 22 -64 22zM849 464l-53 69l171 131l58 -74zM1049 464
l-53 69l171 131l58 -74zM443 400l13 71q9 49 26 90q-30 48 -95 48q-53 0 -91 -37t-50 -109l-11 -63h208zM1011 196l36 204h107l-70 -400h-107l9 54q-69 -66 -151 -66q-68 0 -102.5 48.5t-19.5 127.5l41 236h106l-39 -220q-15 -94 58 -94q45 0 83 31.5t49 78.5z" />
    <glyph glyph-name="f_h.liga" unicode="fh" horiz-adv-x="865" 
d="M691 412q68 0 102.5 -48.5t19.5 -127.5l-41 -236h-106l39 220q15 94 -58 94q-44 0 -82.5 -30.5t-51.5 -76.5l-36 -207h-107l87 496q10 57 -15 85.5t-67 28.5t-77 -30t-46 -87l-17 -93h130l-16 -90h-130l-54 -310h-107l54 310h-70l16 90h70l15 81q21 112 85.5 169.5
t153.5 57.5q94 0 146.5 -60t34.5 -160l-25 -142q71 66 153 66z" />
    <glyph glyph-name="f_i.liga" unicode="fi" horiz-adv-x="580" 
d="M58 0l54 310h-70l16 90h70l15 81q18 106 81.5 166.5t156.5 60.5q92 0 147 -56t39 -140h-105q8 43 -17 70t-69 27q-45 0 -80 -29.5t-44 -86.5l-17 -93h130l-16 -90h-130l-54 -310h-107zM369 0l70 400h107l-70 -400h-107z" />
    <glyph glyph-name="f_j.liga" unicode="fj" horiz-adv-x="580" 
d="M58 0l54 310h-70l16 90h70l15 81q18 106 81.5 166.5t156.5 60.5q92 0 147 -56t39 -140h-105q8 43 -17 70t-69 27q-45 0 -80 -29.5t-44 -86.5l-17 -93h130l-16 -90h-130l-54 -310h-107zM184 -232l18 102h33q111 0 133 128l71 402h107l-70 -400q-21 -118 -82 -175t-167 -57
h-43z" />
    <glyph glyph-name="f_k.liga" unicode="fk" horiz-adv-x="827" 
d="M657 214q116 -50 85 -214h-105q14 83 -11 125.5t-78 42.5h-41l-30 -168h-107l87 496q10 57 -15 85.5t-67 28.5t-77 -30t-46 -87l-17 -93h130l-16 -90h-130l-54 -310h-107l54 310h-70l16 90h70l15 81q21 112 85.5 169.5t153.5 57.5q94 0 146.5 -60t34.5 -160l-41 -230h14
q56 0 108.5 45t65.5 105h104q-12 -66 -54 -117.5t-103 -76.5z" />
    <glyph glyph-name="f_l.liga" unicode="fl" horiz-adv-x="570" 
d="M58 0l54 310h-70l16 90h70l15 81q21 112 85.5 169.5t153.5 57.5q94 0 146.5 -60t34.5 -160l-86 -488h-107l87 496q10 57 -15 85.5t-67 28.5t-77 -30t-46 -87l-17 -93h130l-16 -90h-130l-54 -310h-107z" />
    <glyph glyph-name="f_odieresis.liga" unicode="f&#xf6;" horiz-adv-x="816" 
d="M58 0l54 310h-70l16 90h70l13 71q21 116 93 177.5t163 61.5q89 0 148.5 -55.5t41.5 -152.5h-104q8 51 -21 80t-73 29q-48 0 -88 -34.5t-51 -93.5l-15 -83h130l-16 -90h-130l-54 -310h-107zM747 500q-31 0 -49.5 19t-18.5 48q0 30 19 49t49 19t49 -19.5t19 -48.5t-19 -48
t-49 -19zM556 -12q-101 0 -156 66t-36 166q17 88 80.5 140t150.5 52q101 0 156.5 -67t36.5 -166q-16 -86 -80 -138.5t-152 -52.5zM567 88q45 0 77 27.5t41 74.5q10 54 -18 88.5t-80 34.5q-47 0 -79 -29.5t-40 -72.5q-10 -52 18 -87.5t81 -35.5z" />
    <glyph glyph-name="f_ohungarumlaut.liga" unicode="f&#x151;" horiz-adv-x="816" 
d="M365 400l-16 -90h-129l-55 -310h-107l55 310h-71l16 90h70l13 71q20 116 84 176.5t166 60.5q69 0 118 -33l-60 -88q-23 22 -64 22q-112 0 -135 -126l-15 -83h130zM503 464l-53 69l171 131l58 -74zM703 464l-53 69l171 131l58 -74zM595 412q101 0 156.5 -67t36.5 -166
q-16 -86 -80 -138.5t-152 -52.5q-101 0 -156 66t-36 166q17 88 80.5 140t150.5 52zM685 190q10 54 -18 88.5t-80 34.5q-47 0 -79 -29.5t-40 -72.5q-10 -52 18 -87.5t81 -35.5q45 0 77 27.5t41 74.5z" />
    <glyph glyph-name="f_thorn.liga" unicode="f&#xfe;" horiz-adv-x="861" 
d="M665 410q64 0 107 -35t57 -87.5t4 -110.5q-14 -78 -68.5 -133t-136.5 -55q-94 0 -142 71l-47 -280h-107l125 716q10 57 -15 85.5t-67 28.5t-77 -30t-46 -87l-17 -93h130l-16 -90h-130l-54 -310h-107l54 310h-70l16 90h70l15 81q21 112 85.5 169.5t153.5 57.5
q94 0 146.5 -60t34.5 -160l-22 -127q54 49 124 49zM730 189q8 49 -17.5 86.5t-80.5 37.5q-47 0 -82 -27t-43 -72q-10 -53 22 -90t86 -37q46 0 76.5 29.5t38.5 72.5z" />
    <glyph glyph-name="f_t.liga" unicode="ft" horiz-adv-x="690" 
d="M510 310l-25 -142q-7 -37 8.5 -58.5t48.5 -21.5q34 0 67 23l52 -68q-58 -55 -142 -55q-76 0 -116.5 45t-25.5 126l27 151h-184l-55 -310h-107l55 310h-71l16 90h70l13 71q20 111 84 174t160 63q46 0 87.5 -17.5t64.5 -49.5l-82 -65q-25 33 -76 33q-49 0 -83.5 -32
t-45.5 -94l-15 -83h184l18 100h107l-18 -100h163l-16 -90h-163z" />
    <glyph glyph-name="f_udieresis.liga" unicode="f&#xfc;" horiz-adv-x="852" 
d="M250 483l-15 -83h130l-16 -90h-130l-54 -310h-107l54 310h-70l16 90h70l13 71q21 116 93 177.5t163 61.5q89 0 148.5 -55.5t41.5 -152.5h-104q8 51 -21 80t-73 29q-48 0 -88 -34.5t-51 -93.5zM747 500q-31 0 -49.5 19t-18.5 48q0 30 19 49t49 19t49 -19.5t19 -48.5
t-19 -48t-49 -19zM722 400h107l-70 -400h-107l9 54q-69 -66 -151 -66q-68 0 -102.5 48.5t-19.5 127.5l41 236h106l-39 -220q-15 -94 58 -94q45 0 83 31.5t49 78.5z" />
    <glyph glyph-name="f_uhungarumlaut.liga" unicode="f&#x171;" horiz-adv-x="862" 
d="M385 609q-112 0 -135 -126l-15 -83h130l-16 -90h-129l-55 -310h-107l55 310h-71l16 90h70l13 71q20 116 84 176.5t166 60.5q69 0 118 -33l-60 -88q-23 22 -64 22zM534 464l-53 69l171 131l58 -74zM734 464l-53 69l171 131l58 -74zM696 196l36 204h107l-70 -400h-107l9 54
q-69 -66 -151 -66q-68 0 -102.5 48.5t-19.5 127.5l41 236h106l-39 -220q-15 -94 58 -94q45 0 83 31.5t49 78.5z" />
    <glyph glyph-name="uni00ED02370301.liga" unicode="&#xed;&#x237;&#x301;" horiz-adv-x="516" 
d="M329 590l-176 -126l-53 69l171 131zM584 590l-176 -126l-53 69l171 131zM350 193l36 207h107l-70 -401q-19 -108 -83 -169.5t-159 -61.5q-53 0 -99.5 19t-70.5 56l79 66q28 -39 93 -39q51 0 86 33t46 94l10 56q-70 -65 -151 -65q-68 0 -102.5 48.5t-19.5 127.5l41 236
h106l-39 -220q-15 -94 58 -94q44 0 81.5 30.5t50.5 76.5z" />
    <glyph glyph-name="longs_t.liga" unicode="&#x17f;t" horiz-adv-x="691" 
d="M511 310l-25 -142q-7 -37 8.5 -58.5t48.5 -21.5q34 0 67 23l52 -68q-58 -55 -142 -55q-76 0 -116.5 45t-25.5 126l27 151h-81l16 90h81l17 99q10 55 -11 82.5t-65 27.5q-46 0 -78 -29.5t-42 -86.5l-87 -493h-107l85 481q19 108 80 167.5t157 59.5q94 0 143 -56.5
t31 -158.5l-17 -93h163l-16 -90h-163z" />
    <glyph glyph-name="longs_adieresis.liga" unicode="&#x17f;&#xe4;" horiz-adv-x="800" 
d="M463 502q7 53 -21 81t-69 28q-45 0 -83.5 -33.5t-49.5 -94.5l-85 -483h-107l83 471q20 116 90.5 177.5t159.5 61.5q87 0 145.5 -55.5t40.5 -152.5h-104zM727 500q-31 0 -49.5 19t-18.5 48q0 30 19 49t49 19t49 -19.5t19 -48.5t-19 -48t-49 -19zM663 336l10 64h104
l-70 -400h-104l7 42q-57 -52 -128 -52q-64 0 -107 35t-57 87.5t-4 110.5q14 78 68.5 133t136.5 55q97 0 144 -75zM515 87q47 0 82 27t43 72q10 53 -22 90t-86 37q-46 0 -76.5 -29.5t-38.5 -72.5q-8 -49 17.5 -86.5t80.5 -37.5z" />
    <glyph glyph-name="longs_b.liga" unicode="&#x17f;b" horiz-adv-x="833" 
d="M637 410q64 0 107 -35t57 -87.5t4 -110.5q-14 -78 -68.5 -133t-136.5 -55q-94 0 -142 71l-9 -60h-107l87 496q10 56 -13.5 85t-60.5 29q-39 0 -71 -30t-42 -87l-87 -493h-107l85 481q19 112 81.5 169.5t147.5 57.5q89 0 139.5 -60t33.5 -160l-22 -127q54 49 124 49z
M702 189q8 49 -17.5 86.5t-80.5 37.5q-47 0 -82 -27t-43 -72q-10 -53 22 -90t86 -37q46 0 76.5 29.5t38.5 72.5z" />
    <glyph glyph-name="longs_h.liga" unicode="&#x17f;h" horiz-adv-x="836" 
d="M662 412q68 0 102.5 -48.5t19.5 -127.5l-41 -236h-106l39 220q15 94 -58 94q-44 0 -81.5 -29.5t-50.5 -73.5l-38 -211h-107l88 496q10 56 -13.5 85t-60.5 29q-39 0 -71 -30t-42 -87l-87 -493h-107l85 481q19 112 81.5 169.5t147.5 57.5q89 0 139.5 -60t33.5 -160
l-25 -142q71 66 152 66z" />
    <glyph glyph-name="longs_i.liga" unicode="&#x17f;i" horiz-adv-x="540" 
d="M48 0l85 481q16 106 75.5 166.5t146.5 60.5q85 0 136 -55t36 -141h-105q7 44 -14 70.5t-58 26.5q-39 0 -69.5 -29.5t-38.5 -86.5l-87 -493h-107zM329 0l70 400h107l-70 -400h-107z" />
    <glyph glyph-name="longs_j.liga" unicode="&#x17f;j" horiz-adv-x="540" 
d="M48 0l85 481q16 106 75.5 166.5t146.5 60.5q85 0 136 -55t36 -141h-105q7 44 -14 70.5t-58 26.5q-39 0 -69.5 -29.5t-38.5 -86.5l-87 -493h-107zM144 -232l18 102h33q111 0 133 128l71 402h107l-70 -400q-21 -118 -82 -175t-167 -57h-43z" />
    <glyph glyph-name="longs_k.liga" unicode="&#x17f;k" horiz-adv-x="798" 
d="M628 214q116 -50 85 -214h-105q14 83 -11 125.5t-78 42.5h-41l-30 -168h-107l88 496q10 56 -13.5 85t-60.5 29q-39 0 -71 -30t-42 -87l-87 -493h-107l85 481q19 112 81.5 169.5t147.5 57.5q89 0 139.5 -60t33.5 -160l-41 -230h13q56 0 108.5 45t65.5 105h104
q-12 -66 -54 -117.5t-103 -76.5z" />
    <glyph glyph-name="longs_l.liga" unicode="&#x17f;l" horiz-adv-x="571" 
d="M553 599l-105 -599h-107l106 603h-78q-108 0 -129 -117l-85 -486h-107l83 474q20 111 85 168.5t171 57.5h73q52 0 76.5 -27t16.5 -74z" />
    <glyph glyph-name="longs_odieresis.liga" unicode="&#x17f;&#xf6;" horiz-adv-x="776" 
d="M48 0l83 471q20 116 90.5 177.5t159.5 61.5q87 0 145.5 -55.5t40.5 -152.5h-104q7 53 -21 81t-69 28q-45 0 -83.5 -33.5t-49.5 -94.5l-85 -483h-107zM707 500q-31 0 -49.5 19t-18.5 48q0 30 19 49t49 19t49 -19.5t19 -48.5t-19 -48t-49 -19zM516 -12q-101 0 -156 66
t-36 166q17 88 80.5 140t150.5 52q101 0 156.5 -67t36.5 -166q-16 -86 -80 -138.5t-152 -52.5zM527 88q45 0 77.5 28t41.5 74q10 54 -18.5 88.5t-80.5 34.5q-47 0 -79.5 -29.5t-40.5 -72.5q-10 -51 18.5 -87t81.5 -36z" />
    <glyph glyph-name="longs_thorn.liga" unicode="&#x17f;&#xfe;" horiz-adv-x="833" 
d="M637 410q64 0 107 -35t57 -87.5t4 -110.5q-14 -78 -68.5 -133t-136.5 -55q-94 0 -142 71l-49 -280h-107l127 716q10 56 -13.5 85t-60.5 29q-39 0 -71 -30t-42 -87l-87 -493h-107l85 481q19 112 81.5 169.5t147.5 57.5q89 0 139.5 -60t33.5 -160l-22 -127q54 49 124 49z
M702 189q8 49 -17.5 86.5t-80.5 37.5q-47 0 -82 -27t-43 -72q-10 -53 22 -90t86 -37q46 0 76.5 29.5t38.5 72.5z" />
    <glyph glyph-name="longs_longs.liga" unicode="&#x17f;&#x17f;" horiz-adv-x="606" 
d="M674 708h43l-18 -103h-37q-111 0 -132 -122l-85 -483h-107l83 471q11 59 31 101q-31 37 -84 37q-48 0 -82.5 -32.5t-45.5 -93.5l-85 -483h-107l83 471q20 111 84 174t158 63q88 0 145 -50q62 50 156 50z" />
    <glyph glyph-name="longs_longs_adieresis.liga" unicode="&#x17f;&#x17f;&#xe4;" horiz-adv-x="1105" 
d="M768 502q7 53 -21 81t-69 28q-45 0 -83.5 -33.5t-49.5 -94.5l-85 -483h-107l83 471q9 49 28 91q-29 47 -91 47q-48 0 -82.5 -32.5t-45.5 -93.5l-85 -483h-107l83 471q20 111 84 174t158 63q95 0 152 -57q66 59 156 59q87 0 145.5 -55.5t40.5 -152.5h-104zM1032 500
q-30 0 -49 19t-19 48q0 30 19 49t49 19t49 -19.5t19 -48.5t-19 -48t-49 -19zM968 336l10 64h104l-70 -400h-104l7 42q-57 -52 -128 -52q-64 0 -107 35t-57 87.5t-4 110.5q14 78 68.5 133t136.5 55q45 0 83 -19t61 -56zM820 87q47 0 82 27t43 72q10 53 -22 90t-86 37
q-46 0 -76.5 -29.5t-38.5 -72.5q-8 -49 17.5 -86.5t80.5 -37.5z" />
    <glyph glyph-name="longs_longs_b.liga" unicode="&#x17f;&#x17f;b" horiz-adv-x="1138" 
d="M942 410q64 0 107 -35t57 -87.5t4 -110.5q-14 -78 -68.5 -133t-136.5 -55q-94 0 -142 71l-9 -60h-107l87 496q10 56 -13.5 85t-60.5 29q-39 0 -71 -30t-42 -87l-87 -493h-107l85 481q6 40 24 84q-29 44 -89 44q-48 0 -82.5 -32.5t-45.5 -93.5l-85 -483h-107l83 471
q20 111 84 174t158 63q91 0 147 -53q59 53 142 53q89 0 139.5 -60t33.5 -160l-22 -127q54 49 124 49zM1007 189q8 49 -17.5 86.5t-80.5 37.5q-47 0 -82 -27t-43 -72q-10 -53 22 -90t86 -37q46 0 76.5 29.5t38.5 72.5z" />
    <glyph glyph-name="longs_longs_h.liga" unicode="&#x17f;&#x17f;h" horiz-adv-x="1141" 
d="M967 412q68 0 102.5 -48.5t19.5 -127.5l-41 -236h-106l39 220q15 94 -58 94q-44 0 -81.5 -29.5t-50.5 -73.5l-38 -211h-107l88 496q10 56 -13.5 85t-60.5 29q-39 0 -71 -30t-42 -87l-87 -493h-107l85 481q6 40 24 84q-29 44 -89 44q-48 0 -82.5 -32.5t-45.5 -93.5
l-85 -483h-107l83 471q20 111 84 174t158 63q91 0 147 -53q59 53 142 53q89 0 139.5 -60t33.5 -160l-25 -142q71 66 152 66z" />
    <glyph glyph-name="longs_longs_i.liga" unicode="&#x17f;&#x17f;i" horiz-adv-x="840" 
d="M655 708q85 0 136 -55t36 -141h-105q7 44 -14 70.5t-58 26.5q-39 0 -69.5 -29.5t-38.5 -86.5l-87 -493h-107l85 481q7 46 23 85q-30 43 -88 43q-48 0 -82.5 -32.5t-45.5 -93.5l-85 -483h-107l83 471q20 111 84 174t158 63q89 0 146 -51q57 51 136 51zM629 0l70 400h107
l-70 -400h-107z" />
    <glyph glyph-name="longs_longs_j.liga" unicode="&#x17f;&#x17f;j" horiz-adv-x="840" 
d="M655 708q85 0 136 -55t36 -141h-105q7 44 -14 70.5t-58 26.5q-39 0 -69.5 -29.5t-38.5 -86.5l-87 -493h-107l85 481q7 46 23 85q-30 43 -88 43q-48 0 -82.5 -32.5t-45.5 -93.5l-85 -483h-107l83 471q20 111 84 174t158 63q89 0 146 -51q57 51 136 51zM628 -2l71 402h107
l-70 -400q-21 -118 -82 -175t-167 -57h-43l18 102h33q111 0 133 128z" />
    <glyph glyph-name="longs_longs_k.liga" unicode="&#x17f;&#x17f;k" horiz-adv-x="1103" 
d="M933 214q116 -50 85 -214h-105q14 83 -11 125.5t-78 42.5h-41l-30 -168h-107l88 496q10 56 -13.5 85t-60.5 29q-39 0 -71 -30t-42 -87l-87 -493h-107l85 481q6 40 24 84q-29 44 -89 44q-48 0 -82.5 -32.5t-45.5 -93.5l-85 -483h-107l83 471q20 111 84 174t158 63
q91 0 147 -53q59 53 142 53q89 0 139.5 -60t33.5 -160l-41 -230h13q56 0 108.5 45t65.5 105h104q-12 -66 -54 -117.5t-103 -76.5z" />
    <glyph glyph-name="longs_longs_l.liga" unicode="&#x17f;&#x17f;l" horiz-adv-x="864" 
d="M753 700q52 0 76.5 -27t16.5 -74l-105 -599h-107l106 603h-78q-108 0 -129 -117l-85 -486h-107l83 474q11 55 30 95q-31 40 -86 40q-48 0 -82.5 -32.5t-45.5 -93.5l-85 -483h-107l83 471q20 111 84 174t158 63t150 -55q62 47 157 47h73z" />
    <glyph glyph-name="longs_longs_odieresis.liga" unicode="&#x17f;&#x17f;&#xf6;" horiz-adv-x="1081" 
d="M768 502q7 53 -21 81t-69 28q-45 0 -83.5 -33.5t-49.5 -94.5l-85 -483h-107l83 471q9 49 28 91q-29 47 -91 47q-48 0 -82.5 -32.5t-45.5 -93.5l-85 -483h-107l83 471q20 111 84 174t158 63q95 0 152 -57q66 59 156 59q87 0 145.5 -55.5t40.5 -152.5h-104zM1012 635
q30 0 49 -19.5t19 -48.5t-19 -48t-49 -19t-49 19t-19 48q0 30 19 49t49 19zM860 412q101 0 156.5 -67t36.5 -166q-16 -86 -80 -138.5t-152 -52.5q-101 0 -156 66t-36 166q17 88 80.5 140t150.5 52zM951 190q10 54 -18.5 88.5t-80.5 34.5q-47 0 -79.5 -29.5t-40.5 -72.5
q-10 -51 18.5 -87t81.5 -36q45 0 77.5 28t41.5 74z" />
    <glyph glyph-name="longs_longs_thorn.liga" unicode="&#x17f;&#x17f;&#xfe;" horiz-adv-x="1138" 
d="M942 410q64 0 107 -35t57 -87.5t4 -110.5q-14 -78 -68.5 -133t-136.5 -55q-94 0 -142 71l-49 -280h-107l127 716q10 56 -13.5 85t-60.5 29q-39 0 -71 -30t-42 -87l-87 -493h-107l85 481q6 40 24 84q-29 44 -89 44q-48 0 -82.5 -32.5t-45.5 -93.5l-85 -483h-107l83 471
q20 111 84 174t158 63q91 0 147 -53q59 53 142 53q89 0 139.5 -60t33.5 -160l-22 -127q54 49 124 49zM1007 189q8 49 -17.5 86.5t-80.5 37.5q-47 0 -82 -27t-43 -72q-10 -53 22 -90t86 -37q46 0 76.5 29.5t38.5 72.5z" />
    <glyph glyph-name="longs_longs_longs.liga" unicode="&#x17f;&#x17f;&#x17f;" horiz-adv-x="901" 
d="M969 708h43l-18 -103h-37q-111 0 -132 -122l-85 -483h-107l83 471q11 59 31 101q-31 37 -84 37q-48 0 -82.5 -32.5t-45.5 -93.5l-85 -483h-107l83 471q9 54 30 96q-30 42 -88 42q-48 0 -82.5 -32.5t-45.5 -93.5l-85 -483h-107l83 471q20 111 84 174t158 63q91 0 148 -53
q61 53 147 53q88 0 145 -50q62 50 156 50z" />
    <glyph glyph-name="longs_longs_longs_h.liga" unicode="&#x17f;&#x17f;&#x17f;h" horiz-adv-x="1436" 
d="M1262 412q68 0 102.5 -48.5t19.5 -127.5l-41 -236h-106l39 220q15 94 -58 94q-44 0 -81.5 -29.5t-50.5 -73.5l-38 -211h-107l88 496q10 56 -13.5 85t-60.5 29q-39 0 -71 -30t-42 -87l-87 -493h-107l85 481q7 39 22 80q-30 48 -92 48q-48 0 -82.5 -32.5t-45.5 -93.5
l-85 -483h-107l83 471q9 54 30 96q-30 42 -88 42q-48 0 -82.5 -32.5t-45.5 -93.5l-85 -483h-107l83 471q20 111 84 174t158 63q91 0 148 -53q61 53 147 53q94 0 150 -55q59 55 144 55q89 0 139.5 -60t33.5 -160l-25 -142q71 66 152 66z" />
    <glyph glyph-name="longs_longs_longs_i.liga" unicode="&#x17f;&#x17f;&#x17f;i" horiz-adv-x="1140" 
d="M955 708q85 0 136 -55t36 -141h-105q7 44 -14 70.5t-58 26.5q-39 0 -69.5 -29.5t-38.5 -86.5l-87 -493h-107l85 481q7 46 23 85q-30 43 -88 43q-48 0 -82.5 -32.5t-45.5 -93.5l-85 -483h-107l83 471q9 53 28 92q-31 46 -91 46q-48 0 -82.5 -32.5t-45.5 -93.5l-85 -483
h-107l83 471q20 111 84 174t158 63q92 0 150 -55q61 55 150 55t146 -51q57 51 136 51zM929 0l70 400h107l-70 -400h-107z" />
    <glyph glyph-name="longs_longs_longs_j.liga" unicode="&#x17f;&#x17f;&#x17f;j" horiz-adv-x="1140" 
d="M955 708q85 0 136 -55t36 -141h-105q7 44 -14 70.5t-58 26.5q-39 0 -69.5 -29.5t-38.5 -86.5l-87 -493h-107l85 481q7 46 23 85q-30 43 -88 43q-48 0 -82.5 -32.5t-45.5 -93.5l-85 -483h-107l83 471q9 53 28 92q-31 46 -91 46q-48 0 -82.5 -32.5t-45.5 -93.5l-85 -483
h-107l83 471q20 111 84 174t158 63q92 0 150 -55q61 55 150 55t146 -51q57 51 136 51zM928 -2l71 402h107l-70 -400q-21 -118 -82 -175t-167 -57h-43l18 102h33q111 0 133 128z" />
    <glyph glyph-name="longs_longs_longs_k.liga" unicode="&#x17f;&#x17f;&#x17f;k" horiz-adv-x="1398" 
d="M1228 214q116 -50 85 -214h-105q14 83 -11 125.5t-78 42.5h-41l-30 -168h-107l88 496q10 56 -13.5 85t-60.5 29q-39 0 -71 -30t-42 -87l-87 -493h-107l85 481q6 40 24 84q-29 44 -89 44q-48 0 -82.5 -32.5t-45.5 -93.5l-85 -483h-107l83 471q9 53 28 92q-31 46 -91 46
q-48 0 -82.5 -32.5t-45.5 -93.5l-85 -483h-107l83 471q20 111 84 174t158 63q92 0 150 -55q61 55 150 55q91 0 147 -53q59 53 142 53q89 0 139.5 -60t33.5 -160l-41 -230h13q56 0 108.5 45t65.5 105h104q-12 -66 -54 -117.5t-103 -76.5z" />
    <glyph glyph-name="longs_longs_longs_l.liga" unicode="&#x17f;&#x17f;&#x17f;l" horiz-adv-x="1164" 
d="M1053 700q52 0 76.5 -27t16.5 -74l-105 -599h-107l106 603h-78q-108 0 -129 -117l-85 -486h-107l83 474q11 55 30 95q-31 40 -86 40q-48 0 -82.5 -32.5t-45.5 -93.5l-85 -483h-107l83 471q9 53 28 92q-31 46 -91 46q-48 0 -82.5 -32.5t-45.5 -93.5l-85 -483h-107l83 471
q20 111 84 174t158 63q92 0 150 -55q61 55 150 55q94 0 150 -55q62 47 157 47h73z" />
    <glyph glyph-name="longs_longs_longs_t.liga" unicode="&#x17f;&#x17f;&#x17f;t" horiz-adv-x="1281" 
d="M1101 310l-25 -142q-7 -37 8.5 -58.5t48.5 -21.5q34 0 67 23l52 -68q-58 -55 -142 -55q-76 0 -116.5 45t-25.5 126l27 151h-81l16 90h81l17 99q10 55 -11 82.5t-65 27.5q-46 0 -78 -29.5t-42 -86.5l-87 -493h-107l85 481q10 52 26 88q-31 40 -86 40q-48 0 -82.5 -32.5
t-45.5 -93.5l-85 -483h-107l83 471q9 54 30 96q-30 42 -88 42q-48 0 -82.5 -32.5t-45.5 -93.5l-85 -483h-107l83 471q20 111 84 174t158 63q91 0 148 -53q61 53 147 53q88 0 145 -50q59 50 147 50q94 0 143 -56.5t31 -158.5l-17 -93h163l-16 -90h-163z" />
    <glyph glyph-name="longs_longs_t.liga" unicode="&#x17f;&#x17f;t" horiz-adv-x="996" 
d="M816 310l-25 -142q-7 -37 8.5 -58.5t48.5 -21.5q34 0 67 23l52 -68q-58 -55 -142 -55q-76 0 -116.5 45t-25.5 126l27 151h-81l16 90h81l17 99q10 55 -11 82.5t-65 27.5q-46 0 -78 -29.5t-42 -86.5l-87 -493h-107l85 481q6 40 24 84q-29 44 -89 44q-48 0 -82.5 -32.5
t-45.5 -93.5l-85 -483h-107l83 471q20 111 84 174t158 63q91 0 147 -53q59 53 150 53q94 0 143 -56.5t31 -158.5l-17 -93h163l-16 -90h-163z" />
    <glyph glyph-name="longs_longs_udieresis.liga" unicode="&#x17f;&#x17f;&#xfc;" horiz-adv-x="1107" 
d="M768 502q7 53 -21 81t-69 28q-45 0 -83.5 -33.5t-49.5 -94.5l-85 -483h-107l83 471q9 49 28 91q-29 47 -91 47q-48 0 -82.5 -32.5t-45.5 -93.5l-85 -483h-107l83 471q20 111 84 174t158 63q95 0 152 -57q66 59 156 59q87 0 145.5 -55.5t40.5 -152.5h-104zM1032 500
q-30 0 -49 19t-19 48q0 30 19 49t49 19t49 -19.5t19 -48.5t-19 -48t-49 -19zM940 192l37 208h107l-70 -400h-106l7 42q-60 -54 -138 -54q-73 0 -110.5 49.5t-23.5 126.5l41 236h106l-39 -220q-7 -43 7 -68.5t50 -25.5q43 0 81.5 30.5t50.5 75.5z" />
    <glyph glyph-name="longs_udieresis.liga" unicode="&#x17f;&#xfc;" horiz-adv-x="802" 
d="M463 502q7 53 -21 81t-69 28q-45 0 -83.5 -33.5t-49.5 -94.5l-85 -483h-107l83 471q20 116 90.5 177.5t159.5 61.5q87 0 145.5 -55.5t40.5 -152.5h-104zM727 500q-31 0 -49.5 19t-18.5 48q0 30 19 49t49 19t49 -19.5t19 -48.5t-19 -48t-49 -19zM635 192l37 208h107
l-70 -400h-106l7 42q-60 -54 -138 -54q-73 0 -110.5 49.5t-23.5 126.5l41 236h106l-39 -220q-7 -43 7 -68.5t50 -25.5q43 0 81.5 30.5t50.5 75.5z" />
    <glyph glyph-name="t_t.liga" unicode="tt" horiz-adv-x="748" 
d="M568 310l-25 -142q-7 -37 8.5 -58.5t48.5 -21.5q34 0 67 23l52 -68q-58 -55 -142 -55q-76 0 -116.5 45t-25.5 126l27 151h-248l-25 -142q-7 -37 8.5 -58.5t48.5 -21.5q34 0 67 23l52 -68q-58 -55 -142 -55q-76 0 -116.5 45t-25.5 126l27 151h-71l16 90h70l18 100h107
l-18 -100h247l18 100h107l-18 -100h163l-16 -90h-163z" />
    <glyph glyph-name=".notdef" horiz-adv-x="460" 
d="M377 700v-920h-291v920h291zM306 638h-151v-30h59v-34h-60v-30h152v30h-60v34h60v30zM246 520h-92v-96h152v31h-60v65zM214 488v-33h-30v33h30zM306 399h-152v-30h60v-34h-60v-31h92v65h60v30zM306 344h-30v-61h-122v-31h152v92zM306 232h-92v-52h32v21h30v-43h-92v74
h-30v-104h152v104zM306 73h-152v-104h152v104zM276 42v-43h-92v43h92zM306 -53h-152v-30h64l-64 -43v-31h152v31h-93l64 43h29v30z" />
    <glyph glyph-name=".null" horiz-adv-x="0" 
 />
    <glyph glyph-name="nonmarkingreturn" horiz-adv-x="333" 
 />
    <glyph glyph-name="space" unicode=" " horiz-adv-x="250" 
 />
    <glyph glyph-name="exclam" unicode="!" horiz-adv-x="256" 
d="M81 270l76 430h117l-76 -430h-117zM103 -13q-31 0 -49.5 18.5t-18.5 48.5t19 49t49 19t49 -19.5t19 -48.5t-19 -48t-49 -19z" />
    <glyph glyph-name="quotedbl" unicode="&#x22;" horiz-adv-x="416" 
d="M185 324h-88l41 276h104zM365 324h-88l41 276h104z" />
    <glyph glyph-name="numbersign" unicode="#" horiz-adv-x="660" 
d="M632 323h-94l-54 -153h121l-15 -87h-137l-67 -190l-88 24l59 166h-154l-67 -190l-88 24l59 166h-77l15 87h92l54 153h-119l15 87h135l69 196l88 -24l-61 -172h154l69 196l88 -24l-61 -172h79zM387 170l54 153h-153l-54 -153h153z" />
    <glyph glyph-name="dollar" unicode="$" horiz-adv-x="600" 
d="M346 353q124 -26 170 -70q50 -49 32 -128q-16 -73 -80 -115.5t-149 -50.5l-22 -109h-93l18 113q-139 24 -186 120l85 57q57 -83 176 -79q52 0 92 16.5t48 51.5q5 23 -5.5 40.5t-34.5 28t-42 16t-44 10.5q-49 10 -83.5 22t-68.5 34t-47 59t-2 88q15 68 77 108t144 46
l21 104h93l-17 -109q122 -22 177 -110l-86 -61q-24 38 -70 57t-98 19q-49 0 -84.5 -15.5t-41.5 -43.5q-5 -23 3.5 -40.5t30 -29t39.5 -17t48 -12.5z" />
    <glyph glyph-name="percent" unicode="%" horiz-adv-x="736" 
d="M220 312q-73 0 -113 45.5t-25 118.5q12 61 57 98.5t110 37.5q74 0 112.5 -46.5t24.5 -116.5q-12 -61 -56 -99t-110 -38zM125 -10l-58 60l577 558l58 -60zM225 402q27 0 45 15.5t23 41.5q6 28 -7 45.5t-43 17.5q-27 0 -45.5 -15.5t-23.5 -40.5q-6 -29 8.5 -46.5
t42.5 -17.5zM522 -12q-73 0 -113 45.5t-25 118.5q12 61 57 98.5t110 37.5q74 0 112.5 -46.5t24.5 -116.5q-12 -61 -56 -99t-110 -38zM527 78q27 0 45 15.5t23 41.5q6 28 -7 45.5t-43 17.5q-27 0 -45.5 -15.5t-23.5 -40.5q-6 -29 8.5 -46.5t42.5 -17.5z" />
    <glyph glyph-name="ampersand" unicode="&#x26;" horiz-adv-x="576" 
d="M464 143l81 -78l-78 -77l-69 69q-76 -71 -173 -71q-92 0 -145 58.5t-39 132.5q17 92 130 158q-27 65 -17 123q11 67 67 111.5t132 44.5q95 0 155 -58l-59 -81q-49 37 -90 37q-36 0 -61.5 -22t-32.5 -63q-3 -17 1 -35t35 -65t92 -112q23 54 35 126l99 -8
q-18 -110 -63 -190zM146 174q-6 -35 21.5 -60t71.5 -25q50 0 91 35q-74 74 -117 136q-59 -37 -67 -86z" />
    <glyph glyph-name="quotesingle" unicode="'" horiz-adv-x="236" 
d="M185 324h-88l41 276h104z" />
    <glyph glyph-name="parenleft" unicode="(" horiz-adv-x="344" 
d="M186 -220q-87 104 -118 233.5t-7 261.5q23 132 96.5 247t188.5 190l51 -80q-94 -68 -153 -163.5t-78 -202.5q-19 -106 3.5 -211.5t84.5 -195.5z" />
    <glyph glyph-name="parenright" unicode=")" horiz-adv-x="344" 
d="M14 -220l-51 80q94 68 153 163.5t78 202.5q19 106 -3.5 211.5t-84.5 195.5l68 79q87 -104 118 -233.5t7 -261.5q-23 -132 -96.5 -247t-188.5 -190z" />
    <glyph glyph-name="asterisk" unicode="*" horiz-adv-x="531" 
d="M526 443l-158 -1l65 -144l-92 -37l-53 151l-122 -106l-63 76l129 96l-137 81l51 82l134 -92l35 153l97 -26l-50 -149l159 14z" />
    <glyph glyph-name="plus" unicode="+" horiz-adv-x="520" 
d="M498 298v-97h-181v-181h-97v181h-182v97h182v182h97v-182h181z" />
    <glyph glyph-name="comma" unicode="," horiz-adv-x="236" 
d="M59 -164l-86 27l93 277l101 -30z" />
    <glyph glyph-name="hyphen" unicode="-" horiz-adv-x="420" 
d="M360 201h-300l17 97h300z" />
    <glyph glyph-name="period" unicode="." horiz-adv-x="236" 
d="M92 -13q-30 0 -49 18.5t-19 48.5t19 49t49 19t49 -19.5t19 -48.5t-19 -48t-49 -19z" />
    <glyph glyph-name="slash" unicode="/" horiz-adv-x="362" 
d="M-20 -91l303 799l94 -33l-303 -799z" />
    <glyph glyph-name="zero" unicode="0" horiz-adv-x="602" 
d="M284 -12q-124 0 -192 82t-45 205q21 109 100 173t186 64q124 0 193 -83t46 -205q-20 -107 -99.5 -171.5t-188.5 -64.5zM296 92q63 0 109.5 39t59.5 105q14 74 -26 124.5t-114 50.5q-66 0 -112 -42t-58 -103q-14 -73 26.5 -123.5t114.5 -50.5z" />
    <glyph glyph-name="one" unicode="1" horiz-adv-x="333" 
d="M92 0l69 392q0 1 1 3h-1h-0.5h-1.5h-88l18 105h99q54 0 74.5 -24.5t10.5 -79.5l-70 -396h-111z" />
    <glyph glyph-name="two" unicode="2" horiz-adv-x="465" 
d="M430 348q-8 -43 -42.5 -85.5t-117.5 -102.5l-94 -67h228l-17 -93h-383l14 85l211 162q83 64 92 110q6 30 -13.5 44.5t-52.5 14.5q-60 0 -120 -58l-58 64q35 41 86 66t101 25q78 0 129.5 -43t36.5 -122z" />
    <glyph glyph-name="three" unicode="3" horiz-adv-x="481" 
d="M446 344q-8 -43 -38 -78t-77 -54q48 -20 69.5 -58t12.5 -90q-14 -84 -86 -130t-163 -46q-107 0 -181 49l57 78q47 -26 125 -26q57 0 98 24t47 68q3 17 -4 31t-28 26t-64 18.5t-107 6.5l16 91q199 0 213 95q5 33 -19.5 49t-69.5 16q-69 0 -126 -34l-41 76q76 56 178 56
q89 0 145.5 -46t42.5 -122z" />
    <glyph glyph-name="four" unicode="4" horiz-adv-x="530" 
d="M474 112l-16 -92h-71l-21 -120h-101l21 120h-287l13 79l353 401h107l-69 -388h71zM138 112h165l41 233z" />
    <glyph glyph-name="five" unicode="5" horiz-adv-x="478" 
d="M177 -112q-106 0 -183 49l56 78q49 -31 126 -31q55 0 92 27.5t45 74.5t-24 73t-98 26h-117l55 315h331l-16 -93h-223l-23 -127h1q122 -1 178.5 -53t39.5 -148q-16 -94 -83 -142.5t-157 -48.5z" />
    <glyph glyph-name="six" unicode="6" horiz-adv-x="520" 
d="M313 400q89 0 137.5 -57t34.5 -149q-15 -90 -81 -148.5t-164 -58.5q-106 0 -162 70t-34 200q25 149 132.5 246t262.5 97h27l-17 -98h-4q-184 0 -271 -148q60 46 139 46zM382 193q10 51 -19.5 82t-84.5 31q-52 0 -90.5 -27.5t-47.5 -72.5q-10 -52 23.5 -87t85.5 -35
q48 0 86 31t47 78z" />
    <glyph glyph-name="seven" unicode="7" horiz-adv-x="460" 
d="M61 500l406 1l-14 -86l-337 -530l-88 47l309 475h-292z" />
    <glyph glyph-name="eight" unicode="8" horiz-adv-x="526" 
d="M502 417q-16 -74 -87 -112q87 -54 70 -155q-13 -73 -77 -117.5t-165 -44.5q-118 0 -173.5 58.5t-39.5 139.5q9 46 41.5 81t82.5 54q-62 51 -47 132q12 65 70.5 107t139.5 42q94 0 148 -54t37 -131zM210 441q-8 -35 16 -60.5t67 -25.5q42 0 73 23.5t37 58.5q5 31 -20 52.5
t-67 21.5q-38 0 -68.5 -18.5t-37.5 -51.5zM386 170q8 43 -23.5 69.5t-87.5 26.5q-53 0 -93.5 -24.5t-48.5 -67.5q-7 -40 21 -67t90 -27q60 0 97.5 25t44.5 65z" />
    <glyph glyph-name="nine" unicode="9" horiz-adv-x="520" 
d="M298 513q106 0 162 -70t34 -200q-25 -149 -132.5 -246t-262.5 -97h-27l17 98h4q184 0 271 148q-60 -46 -139 -46q-89 0 -137.5 57t-34.5 149q15 90 81 148.5t164 58.5zM156 307q-10 -51 19.5 -82t84.5 -31q52 0 90.5 27.5t47.5 72.5q10 52 -23.5 87t-85.5 35
q-48 0 -86 -31t-47 -78z" />
    <glyph glyph-name="colon" unicode=":" horiz-adv-x="236" 
d="M143 274q-31 0 -49.5 19t-18.5 48q0 30 19 49t49 19t49 -19.5t19 -48.5t-19 -48t-49 -19zM92 -13q-30 0 -49 18.5t-19 48.5t19 49t49 19t49 -19.5t19 -48.5t-19 -48t-49 -19z" />
    <glyph glyph-name="semicolon" unicode=";" horiz-adv-x="249" 
d="M156 274q-30 0 -49 19t-19 48q0 30 19 49t49 19t49 -19.5t19 -48.5t-19 -48t-49 -19zM69 -164l-86 27l93 277l101 -30z" />
    <glyph glyph-name="less" unicode="&#x3c;" horiz-adv-x="515" 
d="M447 391l-285 -140l285 -142l-47 -90l-354 192v80l354 189z" />
    <glyph glyph-name="equal" unicode="=" horiz-adv-x="520" 
d="M499 301h-460v97h460v-97zM499 101h-460v97h460v-97z" />
    <glyph glyph-name="greater" unicode="&#x3e;" horiz-adv-x="515" 
d="M115 480l354 -192v-80l-354 -189l-47 89l285 140l-285 142z" />
    <glyph glyph-name="question" unicode="?" horiz-adv-x="420" 
d="M278 266l-116 4l6 37q15 85 95 152q3 3 16 13.5t18.5 15.5t14.5 15t14 20t7 21q7 30 -11.5 47.5t-54.5 17.5q-65 0 -108 -61l-67 73q76 91 188 91q80 0 128 -48.5t32 -132.5q-8 -40 -26 -64t-58 -59q-38 -33 -53 -58t-25 -84zM184 -13q-30 0 -49 18.5t-19 48.5t19 49
t49 19t49 -19.5t19 -48.5t-19 -48t-49 -19z" />
    <glyph glyph-name="at" unicode="@" horiz-adv-x="1025" 
d="M555 701q130 0 235 -56.5t157.5 -158.5t30.5 -225q-22 -122 -86.5 -179t-143.5 -57q-40 0 -73.5 22t-48.5 59q-59 -81 -152 -81q-86 0 -136 63t-34 157q15 89 82 146.5t148 57.5q83 0 122 -61l8 49h96l-44 -249q-6 -34 12 -52t48 -18q85 0 108 143q17 105 -23.5 185.5
t-120.5 121t-183 40.5q-154 0 -253 -89t-127 -222q-19 -90 1 -170.5t69 -135t119 -86.5t149 -32q125 0 239 46l27 -91q-128 -49 -267 -49q-77 0 -150 23.5t-133 67.5t-102 107.5t-57 143t2 173.5q16 82 56.5 155t100.5 129.5t144 89.5t180 33zM493 123q48 0 90 33t52 90
q9 50 -17.5 77.5t-69.5 27.5q-48 0 -89 -32.5t-52 -89.5q-8 -52 17.5 -79t68.5 -27z" />
    <glyph glyph-name="A" unicode="A" horiz-adv-x="632" 
d="M448 0l-30 167h-215l-89 -167h-127l337 600h125l124 -600h-125zM257 269h142l-36 199z" />
    <glyph glyph-name="B" unicode="B" horiz-adv-x="644" 
d="M619 429q-15 -80 -95 -123q46 -23 65.5 -63t11.5 -84q-12 -67 -71.5 -113t-163.5 -46h-318l106 600h270q107 0 157 -51t38 -120zM251 502l-28 -154h162q50 0 82 23t38 55t-19 54.5t-77 22.5zM489 174q6 34 -22 56t-90 22h-170l-28 -154l180 -1q55 -1 89.5 21t40.5 56z
" />
    <glyph glyph-name="C" unicode="C" horiz-adv-x="630" 
d="M346 -14q-148 0 -229.5 101t-53.5 244q24 123 116.5 203.5t224.5 80.5q147 0 244 -122l-84 -72q-66 88 -166 88q-81 0 -141 -51.5t-76 -136.5q-19 -98 32.5 -163.5t146.5 -65.5q96 0 180 82l69 -66q-109 -122 -263 -122z" />
    <glyph glyph-name="D" unicode="D" horiz-adv-x="669" 
d="M354 600q153 0 233.5 -89.5t56.5 -226.5q-24 -136 -125.5 -210t-252.5 -74h-228l106 600h210zM281 104q93 -2 161 45.5t83 135.5q17 100 -35 157.5t-160 57.5h-87l-69 -395z" />
    <glyph glyph-name="E" unicode="E" horiz-adv-x="580" 
d="M575 499h-332l-25 -141h312l-17 -100h-312l-28 -157h342l-18 -101h-459l106 600h449z" />
    <glyph glyph-name="F" unicode="F" horiz-adv-x="560" 
d="M575 499h-332l-27 -151h302l-17 -100h-302l-44 -248h-117l106 600h449z" />
    <glyph glyph-name="G" unicode="G" horiz-adv-x="722" 
d="M393 351l307 -4q0 -42 -6 -77q-22 -125 -112.5 -204.5t-225.5 -79.5q-153 0 -236.5 98.5t-56.5 246.5q23 127 118.5 205.5t230.5 78.5q76 0 140 -26t104 -73l-94 -76q-52 69 -160 69q-87 0 -147.5 -51.5t-75.5 -136.5q-17 -96 35.5 -162.5t148.5 -66.5q75 0 131 42.5
t77 114.5h-196z" />
    <glyph glyph-name="H" unicode="H" horiz-adv-x="693" 
d="M574 600h117l-106 -600h-117l45 257h-313l-45 -257h-117l106 600h117l-43 -241h313z" />
    <glyph glyph-name="I" unicode="I" horiz-adv-x="283" 
d="M48 0l106 600h117l-106 -600h-117z" />
    <glyph glyph-name="J" unicode="J" horiz-adv-x="308" 
d="M-89 -55h42q49 0 85.5 31.5t44.5 80.5l96 543h117l-94 -531q-19 -106 -88 -166.5t-173 -60.5h-48z" />
    <glyph glyph-name="K" unicode="K" horiz-adv-x="635" 
d="M427 307q174 -61 130 -307h-118q20 119 -20.5 188t-131.5 69h-87l-45 -257h-117l106 600h117l-43 -241h72q88 0 157.5 68t89.5 173h117q-19 -110 -78 -185.5t-149 -107.5z" />
    <glyph glyph-name="L" unicode="L" horiz-adv-x="543" 
d="M173 102h332l-18 -102h-449l106 600h117z" />
    <glyph glyph-name="M" unicode="M" horiz-adv-x="826" 
d="M630 600h154l-66 -600h-113l48 451l-218 -371h-89l-84 367l-111 -447h-113l146 600h149l85 -357z" />
    <glyph glyph-name="N" unicode="N" horiz-adv-x="680" 
d="M567 600h111l-106 -600h-129l-216 442l-78 -442h-111l106 600h129l216 -442z" />
    <glyph glyph-name="O" unicode="O" horiz-adv-x="720" 
d="M352 -14q-152 0 -233.5 97.5t-55.5 247.5q22 124 117.5 204t220.5 80q154 0 236 -97.5t55 -247.5q-21 -124 -117 -204t-223 -80zM362 92q79 0 138.5 53t73.5 135q17 100 -34 164.5t-147 64.5q-78 0 -138.5 -53t-73.5 -135q-16 -100 35 -164.5t146 -64.5z" />
    <glyph glyph-name="P" unicode="P" horiz-adv-x="578" 
d="M283 173h-99l-31 -173h-115l106 600h200q122 0 184 -65t43 -164q-17 -90 -92.5 -144t-195.5 -54zM328 496h-87l-40 -223h91q64 0 109 27t53 74q9 49 -21 85.5t-105 36.5z" />
    <glyph glyph-name="Q" unicode="Q" horiz-adv-x="720" 
d="M692 270q-22 -132 -129 -213l73 -82l-90 -80l-92 106q-48 -15 -102 -15q-152 0 -233.5 97.5t-55.5 247.5q22 124 117.5 204t220.5 80q154 0 236 -97.5t55 -247.5zM574 280q17 100 -34 164.5t-147 64.5q-78 0 -138.5 -53t-73.5 -135q-16 -100 35 -164.5t146 -64.5
q79 0 138.5 53t73.5 135z" />
    <glyph glyph-name="R" unicode="R" horiz-adv-x="653" 
d="M617 423q-9 -53 -47 -96.5t-99 -61.5q133 -67 97 -265h-114q20 118 -31 175.5t-177 57.5h-43l-41 -233h-114l106 600h268q104 0 155.5 -51t39.5 -126zM502 419q6 36 -18 59.5t-75 23.5h-158l-31 -176h152q48 0 85.5 26t44.5 67z" />
    <glyph glyph-name="S" unicode="S" horiz-adv-x="600" 
d="M286 -12q-83 0 -152 32.5t-98 92.5l85 57q57 -83 176 -79q52 0 92 16.5t48 51.5q5 23 -5.5 40.5t-34.5 28t-42 16t-44 10.5q-49 10 -83.5 22t-68.5 34t-47 59t-2 88q16 75 88 115t164 40q77 0 142.5 -29.5t100.5 -86.5l-86 -61q-24 38 -70 57t-98 19q-49 0 -84.5 -15.5
t-41.5 -43.5q-5 -23 3.5 -40.5t30 -29t39.5 -17t48 -12.5q124 -26 170 -70q50 -49 32 -128q-18 -80 -92.5 -123.5t-169.5 -43.5z" />
    <glyph glyph-name="T" unicode="T" horiz-adv-x="593" 
d="M639 600l-18 -102h-213l-88 -498h-117l88 498h-213l18 102h543z" />
    <glyph glyph-name="U" unicode="U" 
d="M323 -14q-131 0 -198.5 82t-43.5 218l56 314h117l-57 -326q-15 -84 22 -133.5t110 -49.5q70 0 121 47t65 125l60 337h117l-61 -346q-22 -126 -104.5 -197t-203.5 -71z" />
    <glyph glyph-name="V" unicode="V" horiz-adv-x="632" 
d="M553 600h127l-337 -600h-125l-124 600h125l85 -468z" />
    <glyph glyph-name="W" unicode="W" horiz-adv-x="926" 
d="M856 604h118l-279 -604h-125l-70 445l-221 -445h-126l-59 604h113l47 -440l221 436h107l73 -444z" />
    <glyph glyph-name="X" unicode="X" horiz-adv-x="654" 
d="M481 302q128 -79 88 -302h-124q26 124 -6.5 190.5t-102.5 66.5t-123 -67t-74 -190h-124q41 246 197 312q-128 76 -91 288h124q-24 -117 9 -179t102 -62q70 0 123 63t72 178h124q-41 -235 -194 -298z" />
    <glyph glyph-name="Y" unicode="Y" horiz-adv-x="580" 
d="M626 600q-27 -158 -95.5 -247t-174.5 -103l-44 -250h-117l45 255q-98 23 -134.5 110t-9.5 235h116q-23 -126 4 -191.5t103 -65.5q71 0 119.5 65.5t71.5 191.5h116z" />
    <glyph glyph-name="Z" unicode="Z" horiz-adv-x="595" 
d="M604 508l-367 -365q-29 -29 -52 -48q44 4 95 4h252l-18 -99h-494l15 86l374 372q29 29 49 45q-39 -2 -112 -2h-236l18 99h492z" />
    <glyph glyph-name="bracketleft" unicode="[" horiz-adv-x="340" 
d="M372 610h-103l-131 -740h103l-16 -90h-210l147 830l16 90h210z" />
    <glyph glyph-name="backslash" unicode="\" horiz-adv-x="382" 
d="M185 -111l-90 794l107 14l90 -794z" />
    <glyph glyph-name="bracketright" unicode="]" horiz-adv-x="340" 
d="M339 700l-147 -830l-16 -90h-210l16 90h103l131 740h-103l16 90h210z" />
    <glyph glyph-name="asciicircum" unicode="^" horiz-adv-x="422" 
d="M451 423l-79 -62l-107 129l-159 -131l-57 64l231 191z" />
    <glyph glyph-name="underscore" unicode="_" horiz-adv-x="520" 
d="M440 -87h-460l15 87h460z" />
    <glyph glyph-name="grave" unicode="`" horiz-adv-x="316" 
d="M252 461l-134 126l75 72l131 -131z" />
    <glyph glyph-name="a" unicode="a" horiz-adv-x="514" 
d="M387 400h104l-70 -400h-104l7 42q-54 -52 -126 -52q-86 0 -136.5 68t-33.5 165q14 79 73 133.5t134 54.5q43 0 81 -19.5t61 -55.5zM229 87q47 0 82 27.5t43 71.5q10 51 -21.5 89t-85.5 38q-47 0 -77.5 -31t-37.5 -71q-8 -47 16.5 -85.5t80.5 -38.5z" />
    <glyph glyph-name="b" unicode="b" horiz-adv-x="524" 
d="M328 410q64 0 107 -35t57 -87.5t4 -110.5q-14 -78 -68.5 -133t-136.5 -55q-97 0 -144 75l-10 -64h-104l123 700h106l-59 -340q53 50 125 50zM392 189q8 49 -17.5 86.5t-79.5 37.5q-47 0 -82 -27t-43 -72q-10 -53 22 -90t86 -37q46 0 76 29.5t38 72.5z" />
    <glyph glyph-name="c" unicode="c" horiz-adv-x="421" 
d="M220 -12q-101 0 -156 66t-36 166q17 88 80.5 140t150.5 52q110 0 165 -78l-83 -61q-32 40 -90 40q-46 0 -78 -29.5t-40 -72.5q-10 -52 18 -87.5t80 -35.5q50 0 96 39l64 -69q-68 -70 -171 -70z" />
    <glyph glyph-name="d" unicode="d" horiz-adv-x="514" 
d="M438 700h106l-123 -700h-104l7 42q-57 -52 -128 -52q-64 0 -107 35t-57 87.5t-4 110.5q14 78 68.5 133t136.5 55q94 0 143 -73zM229 87q47 0 82 27t43 72q10 53 -22 90t-86 37q-46 0 -76 -29.5t-37 -72.5q-8 -49 17 -86.5t79 -37.5z" />
    <glyph glyph-name="e" unicode="e" horiz-adv-x="468" 
d="M260 412q96 0 145 -58t33 -150q-2 -18 -11 -43l-300 2q4 -42 36.5 -66t79.5 -24q62 0 110 38l45 -61q-75 -62 -164 -62q-98 0 -159 63.5t-42 168.5q15 85 78 138.5t149 53.5zM254 328q-34 0 -64 -20t-47 -60h204q-4 37 -30.5 58.5t-62.5 21.5z" />
    <glyph glyph-name="f" unicode="f" horiz-adv-x="346" 
d="M394 708h43l-18 -102h-37q-112 0 -132 -123l-15 -83h130l-16 -90h-129l-55 -310h-107l55 310h-71l16 90h70l13 71q21 121 83 179t170 58z" />
    <glyph glyph-name="g" unicode="g" horiz-adv-x="514" 
d="M384 400h107l-72 -411q-19 -103 -85.5 -161.5t-164.5 -58.5q-115 0 -167 65l68 68q39 -34 102 -34q57 0 93.5 33.5t47.5 95.5l7 42q-54 -49 -124 -49q-87 0 -136.5 70t-31.5 163q15 80 74 134t133 54q91 0 139 -71zM133 211q-8 -49 17.5 -86.5t79.5 -37.5q46 0 81 27.5
t43 71.5q10 54 -22.5 90.5t-84.5 36.5q-47 0 -77 -30.5t-37 -71.5z" />
    <glyph glyph-name="h" unicode="h" horiz-adv-x="528" 
d="M354 412q68 0 102.5 -48.5t19.5 -127.5l-41 -236h-106l39 220q15 94 -58 94q-45 0 -83.5 -31t-50.5 -77l-36 -206h-107l123 700h107l-62 -354q73 66 153 66z" />
    <glyph glyph-name="i" unicode="i" horiz-adv-x="243" 
d="M185 491q-31 0 -49.5 18.5t-18.5 48.5t19 49t49 19t49 -19.5t19 -48.5t-19 -48t-49 -19zM33 0l70 400h107l-70 -400h-107z" />
    <glyph glyph-name="j" unicode="j" horiz-adv-x="243" 
d="M185 491q-31 0 -49.5 18.5t-18.5 48.5t19 49t49 19t49 -19.5t19 -48.5t-19 -48t-49 -19zM-6 -220l109 620h107l-109 -620h-107z" />
    <glyph glyph-name="k" unicode="k" horiz-adv-x="490" 
d="M320 214q116 -50 85 -214h-105q14 83 -11 125.5t-78 42.5h-41l-30 -168h-107l123 700h107l-78 -442h14q56 0 108.5 45t65.5 105h104q-12 -66 -54 -117.5t-103 -76.5z" />
    <glyph glyph-name="l" unicode="l" horiz-adv-x="243" 
d="M33 0l123 700h107l-123 -700h-107z" />
    <glyph glyph-name="m" unicode="m" horiz-adv-x="808" 
d="M622 412q74 0 111 -49t23 -127l-41 -236h-107l39 220q13 94 -57 94q-46 0 -84.5 -32t-49.5 -84l-34 -198h-107l39 220q15 94 -56 94q-43 0 -82 -31.5t-50 -78.5l-36 -204h-107l70 400h107l-7 -41q59 53 136 53q99 0 128 -81q68 81 165 81z" />
    <glyph glyph-name="n" unicode="n" horiz-adv-x="518" 
d="M344 412q68 0 102.5 -48.5t19.5 -127.5l-41 -236h-106l39 220q15 94 -58 94q-45 0 -84 -32t-50 -78l-36 -204h-107l70 400h107l-10 -55q74 67 154 67z" />
    <glyph glyph-name="o" unicode="o" horiz-adv-x="480" 
d="M220 -12q-101 0 -156 66t-36 166q17 88 80.5 140t150.5 52q101 0 156.5 -67t36.5 -166q-16 -86 -80 -138.5t-152 -52.5zM231 88q45 0 77 27.5t41 74.5q10 54 -18 88.5t-80 34.5q-47 0 -79 -29.5t-40 -72.5q-10 -52 18 -87.5t81 -35.5z" />
    <glyph glyph-name="p" unicode="p" horiz-adv-x="514" 
d="M318 410q64 0 107 -35t57 -87.5t4 -110.5q-14 -78 -68.5 -133t-136.5 -55q-94 0 -143 73l-48 -282h-106l109 620h104l-7 -42q57 52 128 52zM382 189q8 49 -17.5 86.5t-79.5 37.5q-47 0 -82 -27t-43 -72q-10 -53 22 -90t86 -37q46 0 76 29.5t38 72.5z" />
    <glyph glyph-name="q" unicode="q" horiz-adv-x="514" 
d="M387 400h104l-109 -620h-106l45 260q-53 -50 -125 -50q-64 0 -107 35t-57 87.5t-4 110.5q14 78 68.5 133t136.5 55q97 0 144 -75zM133 211q-9 -54 17.5 -89t78.5 -35q47 0 82 27t43 72q10 53 -22 90t-86 37q-43 0 -74 -27t-39 -75z" />
    <glyph glyph-name="r" unicode="r" horiz-adv-x="356" 
d="M186 323q71 85 178 85l-15 -108h-22q-54 0 -104 -34.5t-64 -97.5l-29 -168h-107l70 400h107z" />
    <glyph glyph-name="s" unicode="s" horiz-adv-x="398" 
d="M174 -13q-113 0 -167 79l76 51q25 -23 46.5 -33.5t54.5 -10.5q56 0 65 36q5 20 -13.5 31.5t-50.5 20.5q-140 39 -120 146q9 51 54.5 79t107.5 28q106 0 152 -77l-76 -51q-27 41 -76 41q-56 0 -64 -35q-4 -19 13.5 -30.5t50.5 -20.5q136 -36 117 -141q-10 -53 -57 -83
t-113 -30z" />
    <glyph glyph-name="t" unicode="t" horiz-adv-x="394" 
d="M214 310l-25 -142q-7 -37 8.5 -58.5t48.5 -21.5q34 0 67 23l52 -68q-58 -55 -142 -55q-76 0 -116.5 45t-25.5 126l27 151h-71l16 90h70l18 100h107l-18 -100h163l-16 -90h-163z" />
    <glyph glyph-name="u" unicode="u" horiz-adv-x="516" 
d="M386 400h107l-70 -400h-107l9 54q-69 -66 -151 -66q-68 0 -102.5 48.5t-19.5 127.5l41 236h106l-39 -220q-15 -94 58 -94q45 0 83 31.5t49 78.5z" />
    <glyph glyph-name="v" unicode="v" horiz-adv-x="462" 
d="M368 400h117l-230 -400h-116l-90 400h115l51 -287z" />
    <glyph glyph-name="w" unicode="w" horiz-adv-x="752" 
d="M656 400h119l-215 -400h-116l-52 286l-152 -286h-116l-75 400h115l38 -281l146 281h124l48 -281z" />
    <glyph glyph-name="x" unicode="x" horiz-adv-x="480" 
d="M350 196q72 -59 45 -196h-105q14 76 -3.5 114.5t-54.5 38.5q-39 0 -69.5 -40.5t-43.5 -112.5h-105q27 158 117 207q-72 59 -46 193h105q-13 -71 4 -109.5t55 -38.5q40 0 70 39.5t41 108.5h106q-27 -155 -116 -204z" />
    <glyph glyph-name="y" unicode="y" horiz-adv-x="516" 
d="M386 400h107l-70 -401q-19 -108 -83 -169.5t-159 -61.5q-53 0 -99.5 19t-70.5 56l79 66q28 -39 93 -39q51 0 86 33t46 94l10 56q-70 -65 -151 -65q-68 0 -102.5 48.5t-19.5 127.5l41 236h106l-39 -220q-15 -94 58 -94q44 0 81.5 30.5t50.5 76.5z" />
    <glyph glyph-name="z" unicode="z" horiz-adv-x="433" 
d="M412 322l-188 -179q-41 -39 -65 -57q35 3 103 3h109l-15 -89h-349l13 78l189 180q43 39 65 56q-35 -3 -104 -3h-104l15 89h345z" />
    <glyph glyph-name="braceleft" unicode="{" horiz-adv-x="393" 
d="M425 610h-103l-131 -740h103l-16 -90h-210l74 420h-105l16 90h105l57 320l16 90h210z" />
    <glyph glyph-name="bar" unicode="|" horiz-adv-x="307" 
d="M8 -220l163 920h107l-163 -920h-107z" />
    <glyph glyph-name="braceright" unicode="}" horiz-adv-x="393" 
d="M354 190h-105l-57 -320l-16 -90h-210l16 90h103l131 740h-103l16 90h210l-74 -420h105z" />
    <glyph glyph-name="asciitilde" unicode="~" horiz-adv-x="488" 
d="M336 161q-23 0 -44 9t-31.5 18t-27.5 26q-36 36 -59 36t-38.5 -22t-15.5 -59h-85q0 80 38.5 124.5t95.5 44.5q24 0 45 -9t30.5 -17.5t26.5 -25.5q34 -36 59 -36t40.5 23t15.5 58h85q0 -76 -38.5 -123t-96.5 -47z" />
    <glyph glyph-name="exclamdown" unicode="&#xa1;" horiz-adv-x="255" 
d="M179 555q31 0 49.5 -18.5t18.5 -48.5t-19 -49t-49 -19t-49 19.5t-19 48.5t19 48t49 19zM201 272l-76 -430h-117l76 430h117z" />
    <glyph glyph-name="cent" unicode="&#xa2;" horiz-adv-x="420" 
d="M239 138q50 0 96 39l64 -69q-57 -59 -143 -68l-25 -127h-93l21 135q-70 21 -104 81.5t-19 140.5q16 79 68.5 129t127.5 61l24 123h93l-19 -129q64 -18 102 -70l-83 -61q-32 40 -90 40q-46 0 -78 -29.5t-40 -72.5q-10 -52 18 -87.5t80 -35.5z" />
    <glyph glyph-name="sterling" unicode="&#xa3;" horiz-adv-x="573" 
d="M549 400h-105q12 49 -12.5 81t-68.5 32t-75.5 -33.5t-41.5 -93.5l-12 -66h160l-16 -90h-159l-24 -131h299l-18 -99h-409l41 230h-70l16 90h70l13 74q16 100 78 159t152 59q94 0 147.5 -61t34.5 -151z" />
    <glyph glyph-name="currency" unicode="&#xa4;" horiz-adv-x="610" 
d="M154 442l-65 129l86 47l72 -125zM536 431l-77 62l112 125l72 -58zM293 37q-101 0 -156 66t-36 166q17 88 80.5 140t150.5 52q101 0 156.5 -67t36.5 -166q-16 -86 -80 -138.5t-152 -52.5zM304 137q45 0 77.5 28t41.5 74q10 54 -18.5 88.5t-80.5 34.5q-47 0 -79.5 -29.5
t-40.5 -72.5q-10 -51 18.5 -87t81.5 -36zM55 -118l-71 59l106 129l77 -63zM452 -118l-72 125l93 51l66 -129z" />
    <glyph glyph-name="yen" unicode="&#xa5;" horiz-adv-x="580" 
d="M626 600q-25 -144 -97.5 -237.5t-171.5 -110.5l-11 -62h109l-16 -90h-109l-18 -100h-117l18 100h-114l16 90h114l12 68q-95 25 -133 113.5t-12 228.5h116q-22 -121 6 -189t101 -68q65 0 117.5 70.5t73.5 186.5h116z" />
    <glyph glyph-name="brokenbar" unicode="&#xa6;" horiz-adv-x="307" 
d="M104 320l67 380h107l-67 -380h-107zM8 -220l67 380h107l-67 -380h-107z" />
    <glyph glyph-name="section" unicode="&#xa7;" horiz-adv-x="522" 
d="M341 431q15 -8 23 -12.5t23 -13.5t23.5 -15.5t21.5 -16.5t20.5 -19t16.5 -20.5t13.5 -23.5t8 -26t3.5 -30t-4 -33q-21 -104 -135 -153q66 -54 52 -135q-13 -75 -72 -119t-136 -44q-58 0 -111.5 25.5t-77.5 74.5l84 56q16 -29 46.5 -44.5t62.5 -15.5q37 0 65 20t32 53
q3 18 -3 32.5t-24 29t-31.5 23t-45.5 25.5q-15 8 -23.5 13t-23 13.5t-24 15.5t-22 16.5t-20 19t-16 21t-13 23.5t-8 26t-3.5 30t4 33q22 105 134 153q-65 53 -51 134q12 74 71.5 118.5t137.5 44.5q60 0 112.5 -27t75.5 -73l-84 -56q-16 29 -47 44.5t-64 15.5
q-37 0 -64 -20.5t-32 -52.5q-5 -33 20.5 -55.5t84.5 -54.5zM383 216q5 27 -3.5 49t-31 41t-38 28.5t-44.5 25.5q-8 4 -11 6q-37 -6 -65 -36t-35 -65q-5 -27 3 -50t32.5 -43t37.5 -28t43 -24l6 -3q1 -1 2 -1.5t2 -0.5q39 8 67 37t35 64z" />
    <glyph glyph-name="dieresis" unicode="&#xa8;" horiz-adv-x="436" 
d="M176 499q-32 0 -49 22t-11 55q5 27 24 44t46 17q33 0 51 -22t12 -55q-5 -27 -25 -44t-48 -17zM376 499q-32 0 -49 22t-11 55q5 27 24 44t46 17q33 0 51 -22t12 -55q-5 -27 -25 -44t-48 -17z" />
    <glyph glyph-name="copyright" unicode="&#xa9;" horiz-adv-x="1040" 
d="M500 -221q-139 0 -245 64.5t-156 179t-28 252.5q29 183 163.5 304.5t327.5 121.5q212 0 334 -144t87 -356q-30 -181 -160.5 -301.5t-322.5 -120.5zM508 -127q155 0 257.5 99.5t125.5 247.5q25 166 -69.5 277t-261.5 111q-156 0 -264 -99t-130 -247q-24 -165 75.5 -277
t266.5 -112zM525 15q-111 0 -172 70.5t-40 176.5q19 93 88 147.5t163 54.5q110 0 165 -78l-83 -61q-32 40 -90 40q-55 0 -93 -32.5t-47 -79.5q-12 -58 22.5 -98t97.5 -40q50 0 96 44l64 -69q-69 -75 -171 -75z" />
    <glyph glyph-name="ordfeminine" unicode="&#xaa;" horiz-adv-x="400" 
d="M357 691h90l-54 -308h-90l5 29q-44 -36 -88 -36q-74 0 -107.5 54t-21.5 125q11 60 53 102.5t105 42.5q65 0 102 -46zM180 546q-5 -34 12 -60t54 -26q32 0 56 18t30 48q7 36 -15 62t-58 26q-31 0 -52 -20t-27 -48zM45 201l17 97h310l-17 -97h-310z" />
    <glyph glyph-name="guillemotleft" unicode="&#xab;" horiz-adv-x="529" 
d="M295 351l-124 -106l84 -100l-68 -66l-143 170l197 171zM505 351l-124 -106l84 -100l-68 -66l-143 170l197 171z" />
    <glyph glyph-name="logicalnot" unicode="&#xac;" horiz-adv-x="560" 
d="M408 97v142q0 6 -6 6h-347v100h358q56 0 79 -21.5t23 -73.5v-153h-107z" />
    <glyph glyph-name="registered" unicode="&#xae;" horiz-adv-x="1040" 
d="M562 701q212 0 334 -144t87 -356q-30 -181 -160.5 -301.5t-322.5 -120.5q-139 0 -245 64.5t-156 179t-28 252.5q29 183 163.5 304.5t327.5 121.5zM891 220q25 166 -69.5 277t-261.5 111q-156 0 -264 -99t-130 -247q-24 -165 75.5 -277t266.5 -112q155 0 257.5 99.5
t125.5 247.5zM588 477q86 0 127 -47t28 -107q-8 -37 -36 -66.5t-70 -43.5q88 -56 64 -198h-99q15 82 -17 125t-95 43h-41l-29 -168h-98l81 462h185zM643 329q5 21 -10.5 40.5t-55.5 19.5l-91 -1l-21 -118h77q40 0 68 17.5t33 41.5z" />
    <glyph glyph-name="macron" unicode="&#xaf;" horiz-adv-x="401" 
d="M405 508h-300l15 87h300z" />
    <glyph glyph-name="degree" unicode="&#xb0;" horiz-adv-x="376" 
d="M220 312q-73 0 -113 45.5t-25 118.5q12 61 57 98.5t110 37.5q74 0 112.5 -46.5t24.5 -116.5q-12 -61 -56 -99t-110 -38zM225 402q27 0 45 15.5t23 41.5q6 28 -7 45.5t-43 17.5q-27 0 -45.5 -15.5t-23.5 -40.5q-6 -29 8.5 -46.5t42.5 -17.5z" />
    <glyph glyph-name="plusminus" unicode="&#xb1;" horiz-adv-x="520" 
d="M317 418h181v-97h-181v-181h-97v181h-182v97h182v182h97v-182zM38 -19v97h460v-97h-460z" />
    <glyph glyph-name="uni00B2" unicode="&#xb2;" horiz-adv-x="272" 
d="M315 602q-6 -34 -31.5 -65t-85.5 -82h92l-14 -75h-221l8 62q143 121 152 130q15 16 17 28t-7.5 18.5t-22.5 6.5q-31 0 -61 -33l-47 57q49 57 115 57q49 0 81.5 -27t24.5 -77z" />
    <glyph glyph-name="uni00B3" unicode="&#xb3;" horiz-adv-x="279" 
d="M315 613q-10 -49 -70 -68q61 -22 52 -81q-7 -42 -45.5 -66t-91.5 -24q-68 0 -108 27l37 62q23 -13 64 -13q33 0 47 10.5t14 21.5q0 26 -85 26l4 69q88 0 94 33q2 12 -8 17.5t-25 5.5q-32 0 -62 -19l-31 63q37 29 97 29q55 0 90.5 -25.5t26.5 -67.5z" />
    <glyph glyph-name="acute" unicode="&#xb4;" horiz-adv-x="319" 
d="M162 464l-53 69l171 131l58 -74z" />
    <glyph glyph-name="paragraph" unicode="&#xb6;" horiz-adv-x="767" 
d="M490 600h50l-106 -600h-42q-87 0 -154 28t-103.5 73.5t-50.5 101.5t-3 115q23 117 131 199.5t278 82.5zM634 600h114l-145 -820h-114z" />
    <glyph glyph-name="periodcentered" unicode="&#xb7;" horiz-adv-x="236" 
d="M130 181q-30 0 -49 18.5t-19 48.5t19 49t49 19t49 -19.5t19 -48.5t-19 -48t-49 -19z" />
    <glyph glyph-name="cedilla" unicode="&#xb8;" horiz-adv-x="200" 
d="M71 -220h-93l25 155h100z" />
    <glyph glyph-name="uni00B9" unicode="&#xb9;" horiz-adv-x="243" 
d="M116 380l41 226q1 4 -2 4h-58l16 90h69q45 0 62.5 -24.5t7.5 -79.5l-38 -216h-98z" />
    <glyph glyph-name="ordmasculine" unicode="&#xba;" horiz-adv-x="390" 
d="M239 376q-79 0 -122 49t-27 128q13 65 61.5 106t118.5 41q80 0 121.5 -50.5t26.5 -125.5q-12 -66 -60 -107t-119 -41zM244 463q33 0 55 20t29 52q7 35 -9.5 56.5t-54.5 21.5q-33 0 -55.5 -19.5t-29.5 -51.5q-7 -36 11 -57.5t54 -21.5zM45 201l17 97h300l-17 -97h-300z
" />
    <glyph glyph-name="guillemotright" unicode="&#xbb;" horiz-adv-x="529" 
d="M149 415l143 -170l-197 -171l-54 69l124 106l-84 100zM359 415l143 -170l-197 -171l-54 69l124 106l-84 100z" />
    <glyph glyph-name="onequarter" unicode="&#xbc;" horiz-adv-x="708" 
d="M574 625l63 -54l-534 -598l-63 54zM138 506q1 4 -2 4h-58l16 90h69q45 0 62.5 -24.5t7.5 -79.5l-38 -216h-98zM682 122l-12 -69h-49l-9 -58h-80l12 58h-147l9 59l145 208h116l-34 -198h49zM577 241l-80 -119h60z" />
    <glyph glyph-name="onehalf" unicode="&#xbd;" horiz-adv-x="670" 
d="M574 625l63 -54l-534 -598l-63 54zM138 506q1 4 -2 4h-58l16 90h69q45 0 62.5 -24.5t7.5 -79.5l-38 -216h-98zM647 222q-6 -34 -31.5 -65t-85.5 -82h92l-14 -75h-221l8 62q143 121 152 130q15 16 17 28t-7.5 18.5t-22.5 6.5q-31 0 -61 -33l-47 57q49 57 115 57
q49 0 81.5 -27t24.5 -77z" />
    <glyph glyph-name="threequarters" unicode="&#xbe;" horiz-adv-x="744" 
d="M610 625l63 -54l-534 -598l-63 54zM278 364q-7 -42 -45.5 -66t-91.5 -24q-67 0 -108 27l37 62q23 -13 64 -13q33 0 47 10.5t14 21.5q0 26 -85 26l4 69q88 0 94 33q2 12 -8 17.5t-25 5.5q-32 0 -62 -19l-31 63q37 29 97 29q55 0 90.5 -25.5t26.5 -67.5q-10 -49 -70 -68
q61 -22 52 -81zM718 122l-12 -69h-49l-9 -58h-80l12 58h-147l9 59l145 208h116l-34 -198h49zM613 241l-80 -119h60z" />
    <glyph glyph-name="questiondown" unicode="&#xbf;" horiz-adv-x="420" 
d="M262 563q30 0 49 -18.5t19 -48.5t-19 -49t-49 -19t-49 19.5t-19 48.5t19 48t49 19zM168 284l116 -4l-6 -37q-15 -85 -95 -152q-3 -3 -16 -13.5t-18.5 -15.5t-14.5 -15t-14 -20t-7 -21q-7 -30 11.5 -47.5t54.5 -17.5q65 0 108 61l67 -73q-76 -91 -188 -91q-80 0 -128 48.5
t-32 132.5q8 40 26 64t58 59q38 33 53 58t25 84z" />
    <glyph glyph-name="Agrave" unicode="&#xc0;" horiz-adv-x="632" 
d="M530 747l-48 -80l-190 91l52 86zM448 0l-30 167h-215l-89 -167h-127l337 600h125l124 -600h-125zM257 269h142l-36 199z" />
    <glyph glyph-name="Aacute" unicode="&#xc1;" horiz-adv-x="632" 
d="M539 764l-216 -91l-38 79l214 97zM448 0l-30 167h-215l-89 -167h-127l337 600h125l124 -600h-125zM257 269h142l-36 199z" />
    <glyph glyph-name="Acircumflex" unicode="&#xc2;" horiz-adv-x="632" 
d="M420 747l-99 -79l-55 65l166 134l129 -141l-75 -58zM448 0l-30 167h-215l-89 -167h-127l337 600h125l124 -600h-125zM257 269h142l-36 199z" />
    <glyph glyph-name="Atilde" unicode="&#xc3;" horiz-adv-x="632" 
d="M362 735q-13 0 -21.5 -12t-8.5 -31h-80q0 61 29.5 94.5t73.5 33.5q35 0 70 -35q22 -20 33 -20q13 0 21.5 12t8.5 31h80q0 -59 -30 -93.5t-68 -34.5q-42 0 -78 36q-19 19 -30 19zM448 0l-30 167h-215l-89 -167h-127l337 600h125l124 -600h-125zM257 269h142l-36 199z" />
    <glyph glyph-name="Adieresis" unicode="&#xc4;" horiz-adv-x="632" 
d="M311 686q-31 0 -49.5 19t-18.5 48q0 30 19 49t49 19t49 -19.5t19 -48.5t-19 -48t-49 -19zM511 686q-31 0 -49.5 19t-18.5 48q0 30 19 49t49 19t49 -19.5t19 -48.5t-19 -48t-49 -19zM324 600h125l124 -600h-125l-30 167h-215l-89 -167h-127zM257 269h142l-36 199z" />
    <glyph glyph-name="Aring" unicode="&#xc5;" horiz-adv-x="632" 
d="M406 657q-56 0 -93 33.5t-37 85.5t37 85.5t93 33.5t93 -33.5t37 -85.5t-37 -85.5t-93 -33.5zM406 821q-20 0 -32.5 -12.5t-12.5 -32.5t12.5 -32.5t32.5 -12.5t32.5 12.5t12.5 32.5t-12.5 32.5t-32.5 12.5zM448 0l-30 167h-215l-89 -167h-127l337 600h125l124 -600h-125z
M257 269h142l-36 199z" />
    <glyph glyph-name="AE" unicode="&#xc6;" horiz-adv-x="844" 
d="M839 499h-325l9 -141h271l-18 -100h-247l10 -157h240l-18 -101h-332l-7 167h-214l-107 -167h-135l403 600h488zM274 269h143l-9 209z" />
    <glyph glyph-name="Ccedilla" unicode="&#xc7;" horiz-adv-x="630" 
d="M346 -14q-148 0 -229.5 101t-53.5 244q24 123 116.5 203.5t224.5 80.5q147 0 244 -122l-84 -72q-66 88 -166 88q-81 0 -141 -51.5t-76 -136.5q-19 -98 32.5 -163.5t146.5 -65.5q96 0 180 82l69 -66q-109 -122 -263 -122zM287 -220h-93l25 155h100z" />
    <glyph glyph-name="Egrave" unicode="&#xc8;" horiz-adv-x="580" 
d="M526 747l-48 -80l-190 91l52 86zM575 499h-332l-25 -141h312l-17 -100h-312l-28 -157h342l-18 -101h-459l106 600h449z" />
    <glyph glyph-name="Eacute" unicode="&#xc9;" horiz-adv-x="580" 
d="M535 764l-216 -91l-38 79l214 97zM575 499h-332l-25 -141h312l-17 -100h-312l-28 -157h342l-18 -101h-459l106 600h449z" />
    <glyph glyph-name="Ecircumflex" unicode="&#xca;" horiz-adv-x="580" 
d="M416 747l-99 -79l-55 65l166 134l129 -141l-75 -58zM575 499h-332l-25 -141h312l-17 -100h-312l-28 -157h342l-18 -101h-459l106 600h449z" />
    <glyph glyph-name="Edieresis" unicode="&#xcb;" horiz-adv-x="580" 
d="M307 686q-31 0 -49.5 19t-18.5 48q0 30 19 49t49 19t49 -19.5t19 -48.5t-19 -48t-49 -19zM507 686q-31 0 -49.5 19t-18.5 48q0 30 19 49t49 19t49 -19.5t19 -48.5t-19 -48t-49 -19zM575 499h-332l-25 -141h312l-17 -100h-312l-28 -157h342l-18 -101h-459l106 600h449z
" />
    <glyph glyph-name="Igrave" unicode="&#xcc;" horiz-adv-x="283" 
d="M310 667l-190 91l52 86l186 -97zM48 0l106 600h117l-106 -600h-117z" />
    <glyph glyph-name="Iacute" unicode="&#xcd;" horiz-adv-x="283" 
d="M151 673l-38 79l214 97l40 -85zM48 0l106 600h117l-106 -600h-117z" />
    <glyph glyph-name="Icircumflex" unicode="&#xce;" horiz-adv-x="283" 
d="M260 867l129 -141l-75 -58l-66 79l-99 -79l-55 65zM48 0l106 600h117l-106 -600h-117z" />
    <glyph glyph-name="Idieresis" unicode="&#xcf;" horiz-adv-x="283" 
d="M139 686q-31 0 -49.5 19t-18.5 48q0 30 19 49t49 19t49 -19.5t19 -48.5t-19 -48t-49 -19zM339 686q-31 0 -49.5 19t-18.5 48q0 30 19 49t49 19t49 -19.5t19 -48.5t-19 -48t-49 -19zM48 0l106 600h117l-106 -600h-117z" />
    <glyph glyph-name="Eth" unicode="&#xd0;" horiz-adv-x="669" 
d="M354 600q153 0 233.5 -89.5t56.5 -226.5q-24 -136 -125.5 -210t-252.5 -74h-228l45 256h-68l15 87h69l45 257h210zM525 285q17 100 -35 157.5t-160 57.5h-87l-27 -157h114l-15 -87h-115l-26 -151l107 -1q93 -2 161 45.5t83 135.5z" />
    <glyph glyph-name="Ntilde" unicode="&#xd1;" horiz-adv-x="680" 
d="M384 735q-13 0 -21.5 -12t-8.5 -31h-80q0 61 29.5 94.5t73.5 33.5q35 0 70 -35q22 -20 33 -20q13 0 21.5 12t8.5 31h80q0 -59 -30 -93.5t-68 -34.5q-42 0 -78 36q-19 19 -30 19zM567 600h111l-106 -600h-129l-216 442l-78 -442h-111l106 600h129l216 -442z" />
    <glyph glyph-name="Ograve" unicode="&#xd2;" horiz-adv-x="720" 
d="M529 667l-190 91l52 86l186 -97zM352 -14q-152 0 -233.5 97.5t-55.5 247.5q22 124 117.5 204t220.5 80q154 0 236 -97.5t55 -247.5q-21 -124 -117 -204t-223 -80zM362 92q79 0 138.5 53t73.5 135q17 100 -34 164.5t-147 64.5q-78 0 -138.5 -53t-73.5 -135
q-16 -100 35 -164.5t146 -64.5z" />
    <glyph glyph-name="Oacute" unicode="&#xd3;" horiz-adv-x="720" 
d="M370 673l-38 79l214 97l40 -85zM352 -14q-152 0 -233.5 97.5t-55.5 247.5q22 124 117.5 204t220.5 80q154 0 236 -97.5t55 -247.5q-21 -124 -117 -204t-223 -80zM362 92q79 0 138.5 53t73.5 135q17 100 -34 164.5t-147 64.5q-78 0 -138.5 -53t-73.5 -135
q-16 -100 35 -164.5t146 -64.5z" />
    <glyph glyph-name="Ocircumflex" unicode="&#xd4;" horiz-adv-x="720" 
d="M467 747l-99 -79l-55 65l166 134l129 -141l-75 -58zM401 615q154 0 236 -97.5t55 -247.5q-21 -124 -117 -204t-223 -80q-152 0 -233.5 97.5t-55.5 247.5q22 124 117.5 204t220.5 80zM574 280q17 100 -34 164.5t-147 64.5q-78 0 -138.5 -53t-73.5 -135q-16 -100 35 -164.5
t146 -64.5q79 0 138.5 53t73.5 135z" />
    <glyph glyph-name="Otilde" unicode="&#xd5;" horiz-adv-x="720" 
d="M517 680q-42 0 -78 36q-19 19 -30 19q-13 0 -21.5 -12t-8.5 -31h-80q0 61 29.5 94.5t73.5 33.5q35 0 70 -35q22 -20 33 -20q13 0 21.5 12t8.5 31h80q0 -59 -30 -93.5t-68 -34.5zM352 -14q-152 0 -233.5 97.5t-55.5 247.5q22 124 117.5 204t220.5 80q154 0 236 -97.5
t55 -247.5q-21 -124 -117 -204t-223 -80zM362 92q79 0 138.5 53t73.5 135q17 100 -34 164.5t-147 64.5q-78 0 -138.5 -53t-73.5 -135q-16 -100 35 -164.5t146 -64.5z" />
    <glyph glyph-name="Odieresis" unicode="&#xd6;" horiz-adv-x="720" 
d="M358 686q-30 0 -49 19t-19 48q0 30 19 49t49 19t49 -19.5t19 -48.5t-19 -48t-49 -19zM558 686q-30 0 -49 19t-19 48q0 30 19 49t49 19t49 -19.5t19 -48.5t-19 -48t-49 -19zM352 -14q-152 0 -233.5 97.5t-55.5 247.5q22 124 117.5 204t220.5 80q154 0 236 -97.5t55 -247.5
q-21 -124 -117 -204t-223 -80zM362 92q79 0 138.5 53t73.5 135q17 100 -34 164.5t-147 64.5q-78 0 -138.5 -53t-73.5 -135q-16 -100 35 -164.5t146 -64.5z" />
    <glyph glyph-name="multiply" unicode="&#xd7;" horiz-adv-x="520" 
d="M487 399l-149 -149l148 -149l-67 -68l-149 149l-148 -148l-68 67l148 149l-148 148l67 68l149 -149l148 149z" />
    <glyph glyph-name="Oslash" unicode="&#xd8;" horiz-adv-x="720" 
d="M748 548l-85 -71q48 -88 27 -207q-21 -124 -117 -204t-223 -80q-120 0 -200 64l-80 -67l-59 68l81 67q-52 91 -31 213q22 124 117.5 204t220.5 80q127 0 207 -69l84 70zM172 321q-12 -72 11 -127l336 280q-50 42 -128 42q-80 0 -142.5 -55t-76.5 -140zM579 280
q12 67 -8 121l-333 -278q51 -38 122 -38q81 0 143.5 55t75.5 140z" />
    <glyph glyph-name="Ugrave" unicode="&#xd9;" 
d="M513 667l-190 91l52 86l186 -97zM323 -14q-131 0 -198.5 82t-43.5 218l56 314h117l-57 -326q-15 -84 22 -133.5t110 -49.5q70 0 121 47t65 125l60 337h117l-61 -346q-22 -126 -104.5 -197t-203.5 -71z" />
    <glyph glyph-name="Uacute" unicode="&#xda;" 
d="M354 673l-38 79l214 97l40 -85zM336 -14q-135 0 -206 85.5t-45 234.5l52 294h117l-53 -306q-17 -97 23.5 -150t116.5 -53q71 0 116 46t58 126l60 337h117l-61 -346q-21 -127 -97.5 -197.5t-197.5 -70.5z" />
    <glyph glyph-name="Ucircumflex" unicode="&#xdb;" 
d="M451 747l-99 -79l-55 65l166 134l129 -141l-75 -58zM575 600h117l-61 -346q-21 -127 -97.5 -197.5t-197.5 -70.5q-135 0 -206 85.5t-45 234.5l52 294h117l-53 -306q-17 -97 23.5 -150t116.5 -53q71 0 116 46t58 126z" />
    <glyph glyph-name="Udieresis" unicode="&#xdc;" 
d="M342 686q-30 0 -49 19t-19 48q0 30 19 49t49 19t49 -19.5t19 -48.5t-19 -48t-49 -19zM542 686q-30 0 -49 19t-19 48q0 30 19 49t49 19t49 -19.5t19 -48.5t-19 -48t-49 -19zM336 -14q-135 0 -206 85.5t-45 234.5l52 294h117l-53 -306q-17 -97 23.5 -150t116.5 -53
q71 0 116 46t58 126l60 337h117l-61 -346q-21 -127 -97.5 -197.5t-197.5 -70.5z" />
    <glyph glyph-name="Yacute" unicode="&#xdd;" horiz-adv-x="580" 
d="M516 764l-216 -91l-38 79l214 97zM626 600q-27 -158 -95.5 -247t-174.5 -103l-44 -250h-117l45 255q-98 23 -134.5 110t-9.5 235h116q-23 -126 4 -191.5t103 -65.5q71 0 119.5 65.5t71.5 191.5h116z" />
    <glyph glyph-name="Thorn" unicode="&#xde;" horiz-adv-x="578" 
d="M36 -10l110 620h114l-15 -97h94q113 0 174.5 -64.5t42.5 -165.5q-17 -90 -92 -143.5t-187 -53.5h-109l-17 -96h-115zM186 188h101q55 0 100 28t52 75q8 51 -21.5 86t-94.5 34l-98 -1z" />
    <glyph glyph-name="germandbls" unicode="&#xdf;" horiz-adv-x="584" 
d="M359 -12q-89 0 -132 59l73 71q36 -31 67 -31q26 0 47 16.5t26 45.5q3 16 -6 31t-17.5 22.5t-30.5 23.5q-27 20 -40.5 32.5t-25.5 38.5t-6 57q7 41 58 102q43 50 52 91q6 27 -12.5 44.5t-52.5 17.5q-49 0 -86.5 -33t-49.5 -103l-83 -473h-107l81 461q21 117 87.5 182
t160.5 65q84 0 133.5 -49t35.5 -122q-7 -37 -62 -108q-43 -59 -47 -79q-3 -19 8.5 -33.5t39.5 -36.5q27 -20 41 -34t26 -43.5t6 -63.5q-11 -63 -60.5 -107t-123.5 -44z" />
    <glyph glyph-name="agrave" unicode="&#xe0;" horiz-adv-x="514" 
d="M423 528l-72 -67l-134 126l75 72zM387 400h104l-70 -400h-104l7 42q-54 -52 -126 -52q-86 0 -136.5 68t-33.5 165q14 79 73 133.5t134 54.5q43 0 81 -19.5t61 -55.5zM229 87q47 0 82 27.5t43 71.5q10 51 -21.5 89t-85.5 38q-47 0 -77.5 -31t-37.5 -71q-8 -47 16.5 -85.5
t80.5 -38.5z" />
    <glyph glyph-name="aacute" unicode="&#xe1;" horiz-adv-x="514" 
d="M455 590l-176 -126l-53 69l171 131zM387 400h104l-70 -400h-104l7 42q-54 -52 -126 -52q-86 0 -136.5 68t-33.5 165q14 79 73 133.5t134 54.5q43 0 81 -19.5t61 -55.5zM229 87q47 0 82 27.5t43 71.5q10 51 -21.5 89t-85.5 38q-47 0 -77.5 -31t-37.5 -71
q-8 -47 16.5 -85.5t80.5 -38.5z" />
    <glyph glyph-name="acircumflex" unicode="&#xe2;" horiz-adv-x="514" 
d="M328 547l-99 -79l-55 65l166 134l129 -141l-75 -58zM387 400h104l-70 -400h-104l7 42q-54 -52 -126 -52q-86 0 -136.5 68t-33.5 165q14 79 73 133.5t134 54.5q43 0 81 -19.5t61 -55.5zM229 87q47 0 82 27.5t43 71.5q10 51 -21.5 89t-85.5 38q-47 0 -77.5 -31t-37.5 -71
q-8 -47 16.5 -85.5t80.5 -38.5z" />
    <glyph glyph-name="atilde" unicode="&#xe3;" horiz-adv-x="514" 
d="M270 535q-13 0 -21.5 -12t-8.5 -31h-80q0 61 29.5 94.5t73.5 33.5q35 0 70 -35q22 -20 33 -20q13 0 21.5 12t8.5 31h80q0 -59 -30 -93.5t-68 -34.5q-42 0 -78 36q-19 19 -30 19zM387 400h104l-70 -400h-104l7 42q-54 -52 -126 -52q-86 0 -136.5 68t-33.5 165
q14 79 73 133.5t134 54.5q43 0 81 -19.5t61 -55.5zM229 87q47 0 82 27.5t43 71.5q10 51 -21.5 89t-85.5 38q-47 0 -77.5 -31t-37.5 -71q-8 -47 16.5 -85.5t80.5 -38.5z" />
    <glyph glyph-name="adieresis" unicode="&#xe4;" horiz-adv-x="514" 
d="M220 490q-30 0 -49 19t-19 48q0 30 19 49t49 19t49 -19.5t19 -48.5t-19 -48t-49 -19zM420 490q-30 0 -49 19t-19 48q0 30 19 49t49 19t49 -19.5t19 -48.5t-19 -48t-49 -19zM387 400h104l-70 -400h-104l7 42q-54 -52 -126 -52q-86 0 -136.5 68t-33.5 165q14 79 73 133.5
t134 54.5q43 0 81 -19.5t61 -55.5zM229 87q47 0 82 27.5t43 71.5q10 51 -21.5 89t-85.5 38q-47 0 -77.5 -31t-37.5 -71q-8 -47 16.5 -85.5t80.5 -38.5z" />
    <glyph glyph-name="aring" unicode="&#xe5;" horiz-adv-x="514" 
d="M314 457q-56 0 -93 33.5t-37 85.5t37 85.5t93 33.5t93 -33.5t37 -85.5t-37 -85.5t-93 -33.5zM314 621q-20 0 -32.5 -12.5t-12.5 -32.5t12.5 -32.5t32.5 -12.5t32.5 12.5t12.5 32.5t-12.5 32.5t-32.5 12.5zM387 400h104l-70 -400h-104l7 42q-54 -52 -126 -52
q-86 0 -136.5 68t-33.5 165q14 79 73 133.5t134 54.5q43 0 81 -19.5t61 -55.5zM229 87q47 0 82 27.5t43 71.5q10 51 -21.5 89t-85.5 38q-47 0 -77.5 -31t-37.5 -71q-8 -47 16.5 -85.5t80.5 -38.5z" />
    <glyph glyph-name="ae" unicode="&#xe6;" horiz-adv-x="791" 
d="M605 412q83 0 127.5 -58.5t28.5 -149.5q-4 -21 -11 -43l-300 2q4 -42 36.5 -66t79.5 -24q62 0 110 38l45 -61q-74 -62 -159 -62q-97 0 -140 82l-12 -70h-88l8 48q-56 -58 -134 -58q-64 0 -107 35t-57 87.5t-4 110.5q14 78 68.5 133t136.5 55q46 0 85.5 -21t62.5 -60
l11 70h88l-7 -41q53 53 132 53zM582 328q-34 0 -66 -19.5t-50 -60.5h204q-3 38 -28 59t-60 21zM229 87q47 0 82 27t43 72q10 53 -22 90t-86 37q-46 0 -76 -29.5t-38 -72.5q-8 -49 17.5 -86.5t79.5 -37.5z" />
    <glyph glyph-name="ccedilla" unicode="&#xe7;" horiz-adv-x="421" 
d="M220 -12q-101 0 -156 66t-36 166q17 88 80.5 140t150.5 52q110 0 165 -78l-83 -61q-32 40 -90 40q-46 0 -78 -29.5t-40 -72.5q-10 -52 18 -87.5t80 -35.5q50 0 96 39l64 -69q-68 -70 -171 -70zM216 -220h-93l25 155h100z" />
    <glyph glyph-name="egrave" unicode="&#xe8;" horiz-adv-x="468" 
d="M401 528l-72 -67l-134 126l75 72zM260 412q96 0 145 -58t33 -150q-2 -18 -11 -43l-300 2q4 -42 36.5 -66t79.5 -24q62 0 110 38l45 -61q-75 -62 -164 -62q-98 0 -159 63.5t-42 168.5q15 85 78 138.5t149 53.5zM254 328q-34 0 -64 -20t-47 -60h204q-4 37 -30.5 58.5
t-62.5 21.5z" />
    <glyph glyph-name="eacute" unicode="&#xe9;" horiz-adv-x="468" 
d="M433 590l-176 -126l-53 69l171 131zM260 412q96 0 145 -58t33 -150q-2 -18 -11 -43l-300 2q4 -42 36.5 -66t79.5 -24q62 0 110 38l45 -61q-75 -62 -164 -62q-98 0 -159 63.5t-42 168.5q15 85 78 138.5t149 53.5zM254 328q-34 0 -64 -20t-47 -60h204q-4 37 -30.5 58.5
t-62.5 21.5z" />
    <glyph glyph-name="ecircumflex" unicode="&#xea;" horiz-adv-x="468" 
d="M306 547l-99 -79l-55 65l166 134l129 -141l-75 -58zM260 412q96 0 145 -58t33 -150q-2 -18 -11 -43l-300 2q4 -42 36.5 -66t79.5 -24q62 0 110 38l45 -61q-75 -62 -164 -62q-98 0 -159 63.5t-42 168.5q15 85 78 138.5t149 53.5zM254 328q-34 0 -64 -20t-47 -60h204
q-4 37 -30.5 58.5t-62.5 21.5z" />
    <glyph glyph-name="edieresis" unicode="&#xeb;" horiz-adv-x="468" 
d="M198 490q-30 0 -49 19t-19 48q0 30 19 49t49 19t49 -19.5t19 -48.5t-19 -48t-49 -19zM398 625q30 0 49 -19.5t19 -48.5t-19 -48t-49 -19t-49 19t-19 48q0 30 19 49t49 19zM260 412q96 0 145 -58t33 -150q-2 -18 -11 -43l-300 2q4 -42 36.5 -66t79.5 -24q62 0 110 38
l45 -61q-75 -62 -164 -62q-98 0 -159 63.5t-42 168.5q15 85 78 138.5t149 53.5zM254 328q-34 0 -64 -20t-47 -60h204q-4 37 -30.5 58.5t-62.5 21.5z" />
    <glyph glyph-name="igrave" unicode="&#xec;" horiz-adv-x="243" 
d="M216 461l-134 126l75 72l131 -131zM33 0l70 400h107l-70 -400h-107z" />
    <glyph glyph-name="iacute" unicode="&#xed;" horiz-adv-x="243" 
d="M144 464l-53 69l171 131l58 -74zM33 0l70 400h107l-70 -400h-107z" />
    <glyph glyph-name="icircumflex" unicode="&#xee;" horiz-adv-x="243" 
d="M200 664l119 -141l-79 -62l-59 80l-92 -80l-52 62zM33 0l70 400h107l-70 -400h-107z" />
    <glyph glyph-name="idieresis" unicode="&#xef;" horiz-adv-x="243" 
d="M100 495q-28 0 -45.5 17.5t-17.5 44.5t17.5 45t45.5 18t45.5 -18t17.5 -45t-17.5 -44.5t-45.5 -17.5zM268 495q-28 0 -45.5 17.5t-17.5 44.5t17.5 45t45.5 18t45.5 -18t17.5 -45t-17.5 -44.5t-45.5 -17.5zM33 0l70 400h107l-70 -400h-107z" />
    <glyph glyph-name="eth" unicode="&#xf0;" horiz-adv-x="481" 
d="M478 642l-101 -65q55 -68 78.5 -155.5t8.5 -181.5q-19 -125 -89 -188.5t-162 -63.5q-98 0 -151 67t-34 168q16 86 72.5 131.5t134.5 45.5t140 -53q-14 101 -80 177l-134 -86l-46 67l117 76q-47 31 -100 40l22 90q92 -17 164 -75l115 74zM354 209q7 45 -21.5 74.5
t-79.5 29.5q-47 0 -80 -26t-41 -78q-8 -54 17.5 -87.5t73.5 -33.5q52 0 87.5 37.5t43.5 83.5z" />
    <glyph glyph-name="ntilde" unicode="&#xf1;" horiz-adv-x="518" 
d="M272 535q-13 0 -21.5 -12t-8.5 -31h-80q0 61 29.5 94.5t73.5 33.5q35 0 70 -35q22 -20 33 -20q13 0 21.5 12t8.5 31h80q0 -59 -30 -93.5t-68 -34.5q-42 0 -78 36q-19 19 -30 19zM344 412q68 0 102.5 -48.5t19.5 -127.5l-41 -236h-106l39 220q15 94 -58 94q-45 0 -84 -32
t-50 -78l-36 -204h-107l70 400h107l-10 -55q74 67 154 67z" />
    <glyph glyph-name="ograve" unicode="&#xf2;" horiz-adv-x="480" 
d="M334 461l-134 126l75 72l131 -131zM220 -12q-101 0 -156 66t-36 166q17 88 80.5 140t150.5 52q101 0 156.5 -67t36.5 -166q-16 -86 -80 -138.5t-152 -52.5zM231 88q45 0 77 27.5t41 74.5q10 54 -18 88.5t-80 34.5q-47 0 -79 -29.5t-40 -72.5q-10 -52 18 -87.5t81 -35.5z
" />
    <glyph glyph-name="oacute" unicode="&#xf3;" horiz-adv-x="480" 
d="M262 464l-53 69l171 131l58 -74zM220 -12q-101 0 -156 66t-36 166q17 88 80.5 140t150.5 52q101 0 156.5 -67t36.5 -166q-16 -86 -80 -138.5t-152 -52.5zM231 88q45 0 77 27.5t41 74.5q10 54 -18 88.5t-80 34.5q-47 0 -79 -29.5t-40 -72.5q-10 -52 18 -87.5t81 -35.5z
" />
    <glyph glyph-name="ocircumflex" unicode="&#xf4;" horiz-adv-x="480" 
d="M311 547l-99 -79l-55 65l166 134l129 -141l-75 -58zM259 412q101 0 156.5 -67t36.5 -166q-16 -86 -80 -138.5t-152 -52.5q-101 0 -156 66t-36 166q17 88 80.5 140t150.5 52zM349 190q10 54 -18 88.5t-80 34.5q-47 0 -79 -29.5t-40 -72.5q-10 -52 18 -87.5t81 -35.5
q45 0 77 27.5t41 74.5z" />
    <glyph glyph-name="otilde" unicode="&#xf5;" horiz-adv-x="480" 
d="M361 480q-42 0 -78 36q-19 19 -30 19q-13 0 -21.5 -12t-8.5 -31h-80q0 61 29.5 94.5t73.5 33.5q35 0 70 -35q22 -20 33 -20q13 0 21.5 12t8.5 31h80q0 -59 -30 -93.5t-68 -34.5zM220 -12q-101 0 -156 66t-36 166q17 88 80.5 140t150.5 52q101 0 156.5 -67t36.5 -166
q-16 -86 -80 -138.5t-152 -52.5zM231 88q45 0 77 27.5t41 74.5q10 54 -18 88.5t-80 34.5q-47 0 -79 -29.5t-40 -72.5q-10 -52 18 -87.5t81 -35.5z" />
    <glyph glyph-name="odieresis" unicode="&#xf6;" horiz-adv-x="480" 
d="M203 490q-31 0 -49.5 19t-18.5 48q0 30 19 49t49 19t49 -19.5t19 -48.5t-19 -48t-49 -19zM403 490q-31 0 -49.5 19t-18.5 48q0 30 19 49t49 19t49 -19.5t19 -48.5t-19 -48t-49 -19zM220 -12q-101 0 -156 66t-36 166q17 88 80.5 140t150.5 52q101 0 156.5 -67t36.5 -166
q-16 -86 -80 -138.5t-152 -52.5zM231 88q45 0 77 27.5t41 74.5q10 54 -18 88.5t-80 34.5q-47 0 -79 -29.5t-40 -72.5q-10 -52 18 -87.5t81 -35.5z" />
    <glyph glyph-name="divide" unicode="&#xf7;" horiz-adv-x="520" 
d="M270 378q-30 0 -49 19t-19 48q0 30 19 49t49 19t49 -19.5t19 -48.5t-19 -48t-49 -19zM498 202h-460v97h460v-97zM270 -12q-30 0 -49 19t-19 48q0 30 19 49t49 19t49 -19.5t19 -48.5t-19 -48t-49 -19z" />
    <glyph glyph-name="oslash" unicode="&#xf8;" horiz-adv-x="480" 
d="M497 361l-60 -50q28 -59 15 -132q-16 -86 -80 -138.5t-152 -52.5q-74 0 -125 38l-59 -49l-54 61l60 50q-28 57 -14 132q17 88 80.5 140t150.5 52q76 0 127 -39l59 49zM121 211q-6 -28 1 -57l188 156q-28 13 -59 13q-51 0 -86 -32.5t-44 -79.5zM360 190q6 30 -1 56
l-186 -155q26 -13 58 -13q49 0 84 30.5t45 81.5z" />
    <glyph glyph-name="ugrave" unicode="&#xf9;" horiz-adv-x="516" 
d="M427 528l-72 -67l-134 126l75 72zM386 400h107l-70 -400h-107l9 54q-69 -66 -151 -66q-68 0 -102.5 48.5t-19.5 127.5l41 236h106l-39 -220q-15 -94 58 -94q45 0 83 31.5t49 78.5z" />
    <glyph glyph-name="uacute" unicode="&#xfa;" horiz-adv-x="516" 
d="M459 590l-176 -126l-53 69l171 131zM386 400h107l-70 -400h-107l9 54q-69 -66 -151 -66q-68 0 -102.5 48.5t-19.5 127.5l41 236h106l-39 -220q-15 -94 58 -94q45 0 83 31.5t49 78.5z" />
    <glyph glyph-name="ucircumflex" unicode="&#xfb;" horiz-adv-x="516" 
d="M332 547l-99 -79l-55 65l166 134l129 -141l-75 -58zM386 400h107l-70 -400h-107l9 54q-69 -66 -151 -66q-68 0 -102.5 48.5t-19.5 127.5l41 236h106l-39 -220q-15 -94 58 -94q45 0 83 31.5t49 78.5z" />
    <glyph glyph-name="udieresis" unicode="&#xfc;" horiz-adv-x="516" 
d="M224 490q-30 0 -49 19t-19 48q0 30 19 49t49 19t49 -19.5t19 -48.5t-19 -48t-49 -19zM424 490q-30 0 -49 19t-19 48q0 30 19 49t49 19t49 -19.5t19 -48.5t-19 -48t-49 -19zM386 400h107l-70 -400h-107l9 54q-69 -66 -151 -66q-68 0 -102.5 48.5t-19.5 127.5l41 236h106
l-39 -220q-15 -94 58 -94q45 0 83 31.5t49 78.5z" />
    <glyph glyph-name="yacute" unicode="&#xfd;" horiz-adv-x="516" 
d="M454 590l-176 -126l-53 69l171 131zM386 400h107l-70 -401q-19 -108 -83 -169.5t-159 -61.5q-53 0 -99.5 19t-70.5 56l79 66q28 -39 93 -39q51 0 86 33t46 94l10 56q-70 -65 -151 -65q-68 0 -102.5 48.5t-19.5 127.5l41 236h106l-39 -220q-15 -94 58 -94q44 0 81.5 30.5
t50.5 76.5z" />
    <glyph glyph-name="thorn" unicode="&#xfe;" horiz-adv-x="524" 
d="M328 410q64 0 107 -35t57 -87.5t4 -110.5q-14 -78 -68.5 -133t-136.5 -55q-94 0 -143 73l-48 -282h-106l162 920h106l-59 -340q53 50 125 50zM392 189q8 49 -17.5 86.5t-79.5 37.5q-47 0 -82 -27t-43 -72q-10 -53 22 -90t86 -37q46 0 76.5 30t37.5 72z" />
    <glyph glyph-name="ydieresis" unicode="&#xff;" horiz-adv-x="516" 
d="M219 490q-31 0 -49.5 19t-18.5 48q0 30 19 49t49 19t49 -19.5t19 -48.5t-19 -48t-49 -19zM419 490q-31 0 -49.5 19t-18.5 48q0 30 19 49t49 19t49 -19.5t19 -48.5t-19 -48t-49 -19zM386 400h107l-70 -401q-19 -108 -83 -169.5t-159 -61.5q-53 0 -99.5 19t-70.5 56l79 66
q28 -39 93 -39q51 0 86 33t46 94l10 56q-70 -65 -151 -65q-68 0 -102.5 48.5t-19.5 127.5l41 236h106l-39 -220q-15 -94 58 -94q44 0 81.5 30.5t50.5 76.5z" />
    <glyph glyph-name="Amacron" unicode="&#x100;" horiz-adv-x="632" 
d="M568 795l-15 -87h-300l15 87h300zM448 0l-30 167h-215l-89 -167h-127l337 600h125l124 -600h-125zM257 269h142l-36 199z" />
    <glyph glyph-name="amacron" unicode="&#x101;" horiz-adv-x="514" 
d="M476 595l-15 -87h-300l15 87h300zM387 400h104l-70 -400h-104l7 42q-54 -52 -126 -52q-86 0 -136.5 68t-33.5 165q14 79 73 133.5t134 54.5q43 0 81 -19.5t61 -55.5zM229 87q47 0 82 27.5t43 71.5q10 51 -21.5 89t-85.5 38q-47 0 -77.5 -31t-37.5 -71q-8 -47 16.5 -85.5
t80.5 -38.5z" />
    <glyph glyph-name="Abreve" unicode="&#x102;" horiz-adv-x="632" 
d="M394 672q-66 0 -105 44.5t-27 109.5h93q-4 -32 8 -51t38 -19q50 0 65 70h95q-13 -69 -58 -111.5t-109 -42.5zM448 0l-30 167h-215l-89 -167h-127l337 600h125l124 -600h-125zM257 269h142l-36 199z" />
    <glyph glyph-name="abreve" unicode="&#x103;" horiz-adv-x="514" 
d="M302 472q-66 0 -105 44.5t-27 109.5h93q-4 -32 8 -51t38 -19q50 0 65 70h95q-13 -69 -58 -111.5t-109 -42.5zM387 400h104l-70 -400h-104l7 42q-54 -52 -126 -52q-86 0 -136.5 68t-33.5 165q14 79 73 133.5t134 54.5q43 0 81 -19.5t61 -55.5zM229 87q47 0 82 27.5
t43 71.5q10 51 -21.5 89t-85.5 38q-47 0 -77.5 -31t-37.5 -71q-8 -47 16.5 -85.5t80.5 -38.5z" />
    <glyph glyph-name="Aogonek" unicode="&#x104;" horiz-adv-x="632" 
d="M573 0q-57 -52 -64 -98q-7 -40 52 -40l-12 -89h-20q-70 0 -105 40t-25 98q8 47 48 92l-29 164h-215l-89 -167h-127l337 600h125zM257 269h142l-36 199z" />
    <glyph glyph-name="aogonek" unicode="&#x105;" horiz-adv-x="514" 
d="M387 400h104l-70 -400q-59 -56 -66 -98q-7 -40 52 -40l-12 -89h-20q-65 0 -97 37t-22 91q8 51 62 103l6 38q-54 -52 -126 -52q-86 0 -136.5 68t-33.5 165q14 79 73 133.5t134 54.5q43 0 81 -19.5t61 -55.5zM229 87q47 0 82 27.5t43 71.5q10 51 -21.5 89t-85.5 38
q-47 0 -77.5 -31t-37.5 -71q-8 -47 16.5 -85.5t80.5 -38.5z" />
    <glyph glyph-name="Cacute" unicode="&#x106;" horiz-adv-x="630" 
d="M339 673l-38 79l214 97l40 -85zM346 -14q-148 0 -229.5 101t-53.5 244q24 123 116.5 203.5t224.5 80.5q147 0 244 -122l-84 -72q-66 88 -166 88q-81 0 -141 -51.5t-76 -136.5q-19 -98 32.5 -163.5t146.5 -65.5q96 0 180 82l69 -66q-109 -122 -263 -122z" />
    <glyph glyph-name="cacute" unicode="&#x107;" horiz-adv-x="421" 
d="M251 464l-53 69l171 131l58 -74zM220 -12q-101 0 -156 66t-36 166q17 88 80.5 140t150.5 52q110 0 165 -78l-83 -61q-32 40 -90 40q-46 0 -78 -29.5t-40 -72.5q-10 -52 18 -87.5t80 -35.5q50 0 96 39l64 -69q-68 -70 -171 -70z" />
    <glyph glyph-name="Ccircumflex" unicode="&#x108;" horiz-adv-x="630" 
d="M436 747l-99 -79l-55 65l166 134l129 -141l-75 -58zM360 92q96 0 180 82l69 -66q-109 -122 -263 -122q-148 0 -229.5 101t-53.5 244q24 123 116.5 203.5t224.5 80.5q147 0 244 -122l-84 -72q-66 88 -166 88q-81 0 -141 -51.5t-76 -136.5q-19 -98 32.5 -163.5t146.5 -65.5
z" />
    <glyph glyph-name="ccircumflex" unicode="&#x109;" horiz-adv-x="421" 
d="M300 547l-99 -79l-55 65l166 134l129 -141l-75 -58zM251 313q-46 0 -78 -29.5t-40 -72.5q-10 -52 18 -87.5t80 -35.5q50 0 96 39l64 -69q-68 -70 -171 -70q-101 0 -156 66t-36 166q17 88 80.5 140t150.5 52q110 0 165 -78l-83 -61q-32 40 -90 40z" />
    <glyph glyph-name="Cdotaccent" unicode="&#x10a;" horiz-adv-x="630" 
d="M430 701q-30 0 -49 18.5t-19 48.5t19 49t49 19t49 -19.5t19 -48.5t-19 -48t-49 -19zM346 -14q-148 0 -229.5 101t-53.5 244q24 123 116.5 203.5t224.5 80.5q147 0 244 -122l-84 -72q-66 88 -166 88q-81 0 -141 -51.5t-76 -136.5q-19 -98 32.5 -163.5t146.5 -65.5
q96 0 180 82l69 -66q-109 -122 -263 -122z" />
    <glyph glyph-name="cdotaccent" unicode="&#x10b;" horiz-adv-x="421" 
d="M292 491q-30 0 -49 18.5t-19 48.5t19 49t49 19t49 -19.5t19 -48.5t-19 -48t-49 -19zM220 -12q-101 0 -156 66t-36 166q17 88 80.5 140t150.5 52q110 0 165 -78l-83 -61q-32 40 -90 40q-46 0 -78 -29.5t-40 -72.5q-10 -52 18 -87.5t80 -35.5q50 0 96 39l64 -69
q-68 -70 -171 -70z" />
    <glyph glyph-name="Ccaron" unicode="&#x10c;" horiz-adv-x="630" 
d="M574 795l-166 -134l-129 141l75 58l66 -79l99 79zM360 92q96 0 180 82l69 -66q-109 -122 -263 -122q-148 0 -229.5 101t-53.5 244q24 123 116.5 203.5t224.5 80.5q147 0 244 -122l-84 -72q-66 88 -166 88q-81 0 -141 -51.5t-76 -136.5q-19 -98 32.5 -163.5t146.5 -65.5z
" />
    <glyph glyph-name="ccaron" unicode="&#x10d;" horiz-adv-x="421" 
d="M438 595l-166 -134l-129 141l75 58l66 -79l99 79zM251 313q-46 0 -78 -29.5t-40 -72.5q-10 -52 18 -87.5t80 -35.5q50 0 96 39l64 -69q-68 -70 -171 -70q-101 0 -156 66t-36 166q17 88 80.5 140t150.5 52q110 0 165 -78l-83 -61q-32 40 -90 40z" />
    <glyph glyph-name="Dcaron" unicode="&#x10e;" horiz-adv-x="669" 
d="M536 795l-166 -134l-129 141l75 58l66 -79l99 79zM354 600q153 0 233.5 -89.5t56.5 -226.5q-24 -136 -125.5 -210t-252.5 -74h-228l106 600h210zM525 285q17 100 -35 157.5t-160 57.5h-87l-69 -395l107 -1q93 -2 161 45.5t83 135.5z" />
    <glyph glyph-name="dcaron" unicode="&#x10f;" horiz-adv-x="514" 
d="M376 338l62 362h106l-123 -700h-104l7 42q-57 -52 -128 -52q-64 0 -107 35t-57 87.5t-4 110.5q14 78 68.5 133t136.5 55q94 0 143 -73zM588 700h88l-33 -193l-95 -44zM229 87q47 0 82 27t43 72q10 53 -22 90t-86 37q-46 0 -76 -29.5t-37 -72.5q-8 -49 17 -86.5t79 -37.5z
" />
    <glyph glyph-name="Dcroat" unicode="&#x110;" horiz-adv-x="669" 
d="M354 600q153 0 233.5 -89.5t56.5 -226.5q-24 -136 -125.5 -210t-252.5 -74h-228l45 256h-68l15 87h69l45 257h210zM525 285q17 100 -35 157.5t-160 57.5h-87l-27 -157h114l-15 -87h-115l-26 -151l107 -1q93 -2 161 45.5t83 135.5z" />
    <glyph glyph-name="dcroat" unicode="&#x111;" horiz-adv-x="514" 
d="M600 576l-15 -87h-78l-86 -489h-104l7 42q-57 -52 -128 -52q-64 0 -107 35t-57 87.5t-4 110.5q14 78 68.5 133t136.5 55q94 0 143 -73l26 151h-117l15 87h117l21 124h106l-22 -124h78zM229 87q47 0 82 27t43 72q10 53 -22 90t-86 37q-46 0 -76 -29.5t-37 -72.5
q-8 -49 17 -86.5t79 -37.5z" />
    <glyph glyph-name="Emacron" unicode="&#x112;" horiz-adv-x="580" 
d="M564 795l-15 -87h-300l15 87h300zM575 499h-332l-25 -141h312l-17 -100h-312l-28 -157h342l-18 -101h-459l106 600h449z" />
    <glyph glyph-name="emacron" unicode="&#x113;" horiz-adv-x="468" 
d="M454 595l-15 -87h-300l15 87h300zM260 412q96 0 145 -58t33 -150q-2 -18 -11 -43l-300 2q4 -42 36.5 -66t79.5 -24q62 0 110 38l45 -61q-75 -62 -164 -62q-98 0 -159 63.5t-42 168.5q15 85 78 138.5t149 53.5zM254 328q-34 0 -64 -20t-47 -60h204q-4 37 -30.5 58.5
t-62.5 21.5z" />
    <glyph glyph-name="Ebreve" unicode="&#x114;" horiz-adv-x="580" 
d="M390 672q-66 0 -105 44.5t-27 109.5h93q-4 -32 8 -51t38 -19q50 0 65 70h95q-13 -69 -58 -111.5t-109 -42.5zM575 499h-332l-25 -141h312l-17 -100h-312l-28 -157h342l-18 -101h-459l106 600h449z" />
    <glyph glyph-name="ebreve" unicode="&#x115;" horiz-adv-x="468" 
d="M280 472q-66 0 -105 44.5t-27 109.5h93q-4 -32 8 -51t38 -19q50 0 65 70h95q-13 -69 -58 -111.5t-109 -42.5zM260 412q96 0 145 -58t33 -150q-2 -18 -11 -43l-300 2q4 -42 36.5 -66t79.5 -24q62 0 110 38l45 -61q-75 -62 -164 -62q-98 0 -159 63.5t-42 168.5
q15 85 78 138.5t149 53.5zM254 328q-34 0 -64 -20t-47 -60h204q-4 37 -30.5 58.5t-62.5 21.5z" />
    <glyph glyph-name="Edotaccent" unicode="&#x116;" horiz-adv-x="580" 
d="M410 701q-30 0 -49 18.5t-19 48.5t19 49t49 19t49 -19.5t19 -48.5t-19 -48t-49 -19zM575 499h-332l-25 -141h312l-17 -100h-312l-28 -157h342l-18 -101h-459l106 600h449z" />
    <glyph glyph-name="edotaccent" unicode="&#x117;" horiz-adv-x="468" 
d="M298 491q-30 0 -49 18.5t-19 48.5t19 49t49 19t49 -19.5t19 -48.5t-19 -48t-49 -19zM260 412q96 0 145 -58t33 -150q-2 -18 -11 -43l-300 2q4 -42 36.5 -66t79.5 -24q62 0 110 38l45 -61q-75 -62 -164 -62q-98 0 -159 63.5t-42 168.5q15 85 78 138.5t149 53.5zM254 328
q-34 0 -64 -20t-47 -60h204q-4 37 -30.5 58.5t-62.5 21.5z" />
    <glyph glyph-name="Eogonek" unicode="&#x118;" horiz-adv-x="580" 
d="M575 499h-332l-25 -141h312l-17 -100h-312l-28 -157h342l-18 -101q-57 -52 -64 -98q-7 -40 52 -40l-12 -89h-20q-71 0 -105.5 37t-24.5 91q8 49 55 99h-340l106 600h449z" />
    <glyph glyph-name="eogonek" unicode="&#x119;" horiz-adv-x="468" 
d="M260 412q96 0 145 -58t33 -150q-2 -18 -11 -43l-300 2q4 -42 36.5 -66t79.5 -24q62 0 110 38l45 -61q-63 -75 -73 -135q-4 -22 7.5 -34t43.5 -12l-12 -89h-20q-65 0 -96.5 38.5t-21.5 95.5q7 39 23 74h-15q-98 0 -159 63.5t-42 168.5q15 85 78 138.5t149 53.5zM254 328
q-34 0 -64 -20t-47 -60h204q-4 37 -30.5 58.5t-62.5 21.5z" />
    <glyph glyph-name="Ecaron" unicode="&#x11a;" horiz-adv-x="580" 
d="M554 795l-166 -134l-129 141l75 58l66 -79l99 79zM575 499h-332l-25 -141h312l-17 -100h-312l-28 -157h342l-18 -101h-459l106 600h449z" />
    <glyph glyph-name="ecaron" unicode="&#x11b;" horiz-adv-x="468" 
d="M444 595l-166 -134l-129 141l75 58l66 -79l99 79zM260 412q96 0 145 -58t33 -150q-2 -18 -11 -43l-300 2q4 -42 36.5 -66t79.5 -24q62 0 110 38l45 -61q-75 -62 -164 -62q-98 0 -159 63.5t-42 168.5q15 85 78 138.5t149 53.5zM254 328q-34 0 -64 -20t-47 -60h204
q-4 37 -30.5 58.5t-62.5 21.5z" />
    <glyph glyph-name="Gcircumflex" unicode="&#x11c;" horiz-adv-x="722" 
d="M450 747l-99 -79l-55 65l166 134l129 -141l-75 -58zM393 351l307 -4q0 -42 -6 -77q-22 -125 -112.5 -204.5t-225.5 -79.5q-153 0 -236.5 98.5t-56.5 246.5q23 127 118.5 205.5t230.5 78.5q76 0 140 -26t104 -73l-94 -76q-52 69 -160 69q-87 0 -147.5 -51.5t-75.5 -136.5
q-17 -96 35.5 -162.5t148.5 -66.5q75 0 131 42.5t77 114.5h-196z" />
    <glyph glyph-name="gcircumflex" unicode="&#x11d;" horiz-adv-x="514" 
d="M303 547l-99 -79l-55 65l166 134l129 -141l-75 -58zM384 400h107l-72 -411q-19 -103 -85.5 -161.5t-164.5 -58.5q-115 0 -167 65l68 68q39 -34 102 -34q57 0 93.5 33.5t47.5 95.5l7 42q-54 -49 -124 -49q-87 0 -136.5 70t-31.5 163q15 80 74 134t133 54q91 0 139 -71z
M133 211q-8 -49 17.5 -86.5t79.5 -37.5q46 0 81 27.5t43 71.5q10 54 -22.5 90.5t-84.5 36.5q-47 0 -77 -30.5t-37 -71.5z" />
    <glyph glyph-name="Gbreve" unicode="&#x11e;" horiz-adv-x="722" 
d="M424 672q-66 0 -105 44.5t-27 109.5h93q-4 -32 8 -51t38 -19q50 0 65 70h95q-13 -69 -58 -111.5t-109 -42.5zM393 351l307 -4q0 -42 -6 -77q-22 -125 -112.5 -204.5t-225.5 -79.5q-153 0 -236.5 98.5t-56.5 246.5q23 127 118.5 205.5t230.5 78.5q76 0 140 -26t104 -73
l-94 -76q-52 69 -160 69q-87 0 -147.5 -51.5t-75.5 -136.5q-17 -96 35.5 -162.5t148.5 -66.5q75 0 131 42.5t77 114.5h-196z" />
    <glyph glyph-name="gbreve" unicode="&#x11f;" horiz-adv-x="514" 
d="M277 472q-66 0 -105 44.5t-27 109.5h93q-4 -32 8 -51t38 -19q50 0 65 70h95q-13 -69 -58 -111.5t-109 -42.5zM384 400h107l-72 -411q-19 -103 -85.5 -161.5t-164.5 -58.5q-115 0 -167 65l68 68q39 -34 102 -34q57 0 93.5 33.5t47.5 95.5l7 42q-54 -49 -124 -49
q-87 0 -136.5 70t-31.5 163q15 80 74 134t133 54q91 0 139 -71zM133 211q-8 -49 17.5 -86.5t79.5 -37.5q46 0 81 27.5t43 71.5q10 54 -22.5 90.5t-84.5 36.5q-47 0 -77 -30.5t-37 -71.5z" />
    <glyph glyph-name="Gdotaccent" unicode="&#x120;" horiz-adv-x="722" 
d="M444 701q-30 0 -49 18.5t-19 48.5t19 49t49 19t49 -19.5t19 -48.5t-19 -48t-49 -19zM393 351l307 -4q0 -42 -6 -77q-22 -125 -112.5 -204.5t-225.5 -79.5q-153 0 -236.5 98.5t-56.5 246.5q23 127 118.5 205.5t230.5 78.5q76 0 140 -26t104 -73l-94 -76q-52 69 -160 69
q-87 0 -147.5 -51.5t-75.5 -136.5q-17 -96 35.5 -162.5t148.5 -66.5q75 0 131 42.5t77 114.5h-196z" />
    <glyph glyph-name="gdotaccent" unicode="&#x121;" horiz-adv-x="514" 
d="M295 491q-31 0 -49.5 18.5t-18.5 48.5t19 49t49 19t49 -19.5t19 -48.5t-19 -48t-49 -19zM384 400h107l-72 -411q-19 -103 -85.5 -161.5t-164.5 -58.5q-115 0 -167 65l68 68q39 -34 102 -34q57 0 93.5 33.5t47.5 95.5l7 42q-54 -49 -124 -49q-87 0 -136.5 70t-31.5 163
q15 80 74 134t133 54q91 0 139 -71zM133 211q-8 -49 17.5 -86.5t79.5 -37.5q46 0 81 27.5t43 71.5q10 54 -22.5 90.5t-84.5 36.5q-47 0 -77 -30.5t-37 -71.5z" />
    <glyph glyph-name="Gcommaaccent" unicode="&#x122;" horiz-adv-x="722" 
d="M393 351l307 -4q0 -42 -6 -77q-22 -125 -112.5 -204.5t-225.5 -79.5q-153 0 -236.5 98.5t-56.5 246.5q23 127 118.5 205.5t230.5 78.5q76 0 140 -26t104 -73l-94 -76q-52 69 -160 69q-87 0 -147.5 -51.5t-75.5 -136.5q-17 -96 35.5 -162.5t148.5 -66.5q75 0 131 42.5
t77 114.5h-196zM255 -201l55 163l103 -32l-71 -160z" />
    <glyph glyph-name="gcommaaccent" unicode="&#x123;" horiz-adv-x="514" 
d="M376 667l-54 -198l-102 25l73 193zM384 400h107l-72 -411q-19 -103 -85.5 -161.5t-164.5 -58.5q-115 0 -167 65l68 68q39 -34 102 -34q57 0 93.5 33.5t47.5 95.5l7 42q-54 -49 -124 -49q-87 0 -136.5 70t-31.5 163q15 80 74 134t133 54q91 0 139 -71zM133 211
q-8 -49 17.5 -86.5t79.5 -37.5q46 0 81 27.5t43 71.5q10 54 -22.5 90.5t-84.5 36.5q-47 0 -77 -30.5t-37 -71.5z" />
    <glyph glyph-name="Hcircumflex" unicode="&#x124;" horiz-adv-x="693" 
d="M454 747l-99 -79l-55 65l166 134l129 -141l-75 -58zM574 600h117l-106 -600h-117l45 257h-313l-45 -257h-117l106 600h117l-43 -241h313z" />
    <glyph glyph-name="hcircumflex" unicode="&#x125;" horiz-adv-x="518" 
d="M203 701l-99 -79l-55 65l166 134l129 -141l-75 -58zM344 412q68 0 102.5 -48.5t19.5 -127.5l-41 -236h-106l39 220q15 94 -58 94q-45 0 -84 -32t-50 -78l-36 -204h-107l105 600h107l-45 -255q74 67 154 67z" />
    <glyph glyph-name="Hbar" unicode="&#x126;" horiz-adv-x="663" 
d="M544 600h117l-106 -600h-117l26 147h-283l-26 -147h-117l106 600h117l-23 -131h283zM198 243h283l23 129h-283z" />
    <glyph glyph-name="hbar" unicode="&#x127;" horiz-adv-x="528" 
d="M354 412q68 0 102.5 -48.5t19.5 -127.5l-41 -236h-106l39 220q15 94 -58 94q-45 0 -83.5 -31t-50.5 -77l-36 -206h-107l86 489h-68l15 87h68l22 124h107l-22 -124h125l-15 -87h-125l-25 -143q73 66 153 66z" />
    <glyph glyph-name="Itilde" unicode="&#x128;" horiz-adv-x="283" 
d="M298 680q-42 0 -78 36q-19 19 -30 19q-13 0 -21.5 -12t-8.5 -31h-80q0 61 29.5 94.5t73.5 33.5q35 0 70 -35q22 -20 33 -20q13 0 21.5 12t8.5 31h80q0 -59 -30 -93.5t-68 -34.5zM48 0l106 600h117l-106 -600h-117z" />
    <glyph glyph-name="itilde" unicode="&#x129;" horiz-adv-x="243" 
d="M243 480q-42 0 -78 36q-19 19 -30 19q-13 0 -21.5 -12t-8.5 -31h-80q0 61 29.5 94.5t73.5 33.5q35 0 70 -35q22 -20 33 -20q13 0 21.5 12t8.5 31h80q0 -59 -30 -93.5t-68 -34.5zM33 0l70 400h107l-70 -400h-107z" />
    <glyph glyph-name="Imacron" unicode="&#x12a;" horiz-adv-x="283" 
d="M356 708h-250l15 87h250zM48 0l106 600h117l-106 -600h-117z" />
    <glyph glyph-name="imacron" unicode="&#x12b;" horiz-adv-x="243" 
d="M301 508h-250l15 87h250zM33 0l70 400h107l-70 -400h-107z" />
    <glyph glyph-name="Ibreve" unicode="&#x12c;" horiz-adv-x="283" 
d="M183 826q-4 -32 8 -51t38 -19q50 0 65 70h95q-13 -69 -58 -111.5t-109 -42.5q-66 0 -105 44.5t-27 109.5h93zM48 0l106 600h117l-106 -600h-117z" />
    <glyph glyph-name="ibreve" unicode="&#x12d;" horiz-adv-x="243" 
d="M162 626q-14 -70 22 -70q17 0 29.5 19.5t17.5 50.5h85q-12 -70 -48 -112t-90 -42q-57 0 -86 44.5t-15 109.5h85zM33 0l70 400h107l-70 -400h-107z" />
    <glyph glyph-name="Iogonek" unicode="&#x12e;" horiz-adv-x="283" 
d="M154 600h117l-106 -600q-57 -52 -64 -98q-7 -40 52 -40l-12 -89h-20q-71 0 -105.5 37t-24.5 91q8 52 57 101z" />
    <glyph glyph-name="iogonek" unicode="&#x12f;" horiz-adv-x="243" 
d="M185 626q30 0 49 -19.5t19 -48.5t-19 -48t-49 -19q-31 0 -49.5 18.5t-18.5 48.5t19 49t49 19zM33 0l70 400h107l-70 -400q-57 -51 -66 -95q-7 -40 52 -40l-11 -89h-20q-64 0 -95 34.5t-22 87.5q11 55 55 102z" />
    <glyph glyph-name="Idotaccent" unicode="&#x130;" horiz-adv-x="283" 
d="M242 701q-30 0 -49 18.5t-19 48.5t19 49t49 19t49 -19.5t19 -48.5t-19 -48t-49 -19zM48 0l106 600h117l-106 -600h-117z" />
    <glyph glyph-name="dotlessi" unicode="&#x131;" horiz-adv-x="243" 
d="M33 0l70 400h107l-70 -400h-107z" />
    <glyph glyph-name="IJ" unicode="&#x132;" horiz-adv-x="667" 
d="M198 249q-12 -72 25.5 -115t103.5 -43q65 0 110 42.5t58 115.5l59 351h117l-62 -360q-20 -119 -97.5 -186.5t-192.5 -67.5q-126 0 -194.5 75.5t-47.5 189.5l3 16h121zM99 383l38 217h121l-38 -217h-121z" />
    <glyph glyph-name="ij" unicode="&#x133;" horiz-adv-x="516" 
d="M173 491q-31 0 -49.5 18.5t-18.5 48.5t19 49t49 19t49 -19.5t19 -48.5t-19 -48t-49 -19zM458 626q30 0 49 -19.5t19 -48.5t-19 -48t-49 -19t-49 18.5t-19 48.5t19 49t49 19zM350 193l36 207h107l-70 -401q-19 -108 -83 -169.5t-159 -61.5q-53 0 -99.5 19t-70.5 56l79 66
q28 -39 93 -39q51 0 86 33t46 94l10 56q-70 -65 -151 -65q-68 0 -102.5 48.5t-19.5 127.5l41 236h106l-39 -220q-15 -94 58 -94q44 0 81.5 30.5t50.5 76.5z" />
    <glyph glyph-name="Jcircumflex" unicode="&#x134;" horiz-adv-x="308" 
d="M285 867l129 -141l-75 -58l-66 79l-99 -79l-55 65zM83 57l96 543h117l-94 -531q-19 -106 -88 -166.5t-173 -60.5h-48l18 103h42q49 0 85.5 31.5t44.5 80.5z" />
    <glyph glyph-name="jcircumflex" unicode="&#x135;" horiz-adv-x="243" 
d="M200 664l119 -141l-79 -62l-59 80l-92 -80l-52 62zM-6 -220l109 620h107l-109 -620h-107z" />
    <glyph glyph-name="Kcommaaccent" unicode="&#x136;" horiz-adv-x="635" 
d="M427 307q174 -61 130 -307h-118q20 119 -20.5 188t-131.5 69h-87l-45 -257h-117l106 600h117l-43 -241h72q88 0 157.5 68t89.5 173h117q-19 -110 -78 -185.5t-149 -107.5zM190 -201l55 163l103 -32l-71 -160z" />
    <glyph glyph-name="kcommaaccent" unicode="&#x137;" horiz-adv-x="490" 
d="M320 214q116 -50 85 -214h-105q14 83 -11 125.5t-78 42.5h-41l-30 -168h-107l123 700h107l-78 -442h14q56 0 108.5 45t65.5 105h104q-12 -66 -54 -117.5t-103 -76.5zM114 -209l56 168l99 -27l-72 -165z" />
    <glyph glyph-name="Lacute" unicode="&#x139;" horiz-adv-x="543" 
d="M359 764l-216 -91l-38 79l214 97zM173 102h332l-18 -102h-449l106 600h117z" />
    <glyph glyph-name="lacute" unicode="&#x13a;" horiz-adv-x="223" 
d="M141 663l-38 79l214 97l40 -85zM23 0l105 600h107l-105 -600h-107z" />
    <glyph glyph-name="Lcommaaccent" unicode="&#x13b;" horiz-adv-x="543" 
d="M173 102h332l-18 -102h-449l106 600h117zM159 -201l55 163l103 -32l-71 -160z" />
    <glyph glyph-name="lcommaaccent" unicode="&#x13c;" horiz-adv-x="243" 
d="M33 0l123 700h107l-123 -700h-107zM69 -233l-83 24l56 168l99 -27z" />
    <glyph glyph-name="Lcaron" unicode="&#x13d;" horiz-adv-x="543" 
d="M261 600l-88 -498h332l-18 -102h-449l106 600h117zM458 600h99l-39 -225l-107 -52z" />
    <glyph glyph-name="lcaron" unicode="&#x13e;" horiz-adv-x="243" 
d="M33 0l123 700h107l-123 -700h-107zM383 700l-33 -193l-95 -44l40 237h88z" />
    <glyph glyph-name="Ldot" unicode="&#x13f;" horiz-adv-x="543" 
d="M261 600l-88 -498h332l-18 -102h-449l106 600h117zM439 264q-31 0 -49.5 19t-18.5 48q0 30 19 49t49 19t49 -19.5t19 -48.5t-19 -48t-49 -19z" />
    <glyph glyph-name="ldot" unicode="&#x140;" horiz-adv-x="270" 
d="M33 0l123 700h107l-123 -700h-107zM282 274q-30 0 -49 19t-19 48q0 30 19 49t49 19t49 -19.5t19 -48.5t-19 -48t-49 -19z" />
    <glyph glyph-name="Lslash" unicode="&#x141;" horiz-adv-x="553" 
d="M183 102h332l-18 -102h-449l38 216l-67 -34l-33 81l119 60l49 277h117l-37 -212l114 58l32 -81l-165 -84z" />
    <glyph glyph-name="lslash" unicode="&#x142;" horiz-adv-x="263" 
d="M330 397l-112 -68l-58 -329h-107l45 257l-53 -32l-39 71l111 67l59 337h107l-46 -264l53 32z" />
    <glyph glyph-name="Nacute" unicode="&#x143;" horiz-adv-x="680" 
d="M561 764l-216 -91l-38 79l214 97zM567 600h111l-106 -600h-129l-216 442l-78 -442h-111l106 600h129l216 -442z" />
    <glyph glyph-name="nacute" unicode="&#x144;" horiz-adv-x="518" 
d="M457 590l-176 -126l-53 69l171 131zM344 412q68 0 102.5 -48.5t19.5 -127.5l-41 -236h-106l39 220q15 94 -58 94q-45 0 -84 -32t-50 -78l-36 -204h-107l70 400h107l-10 -55q74 67 154 67z" />
    <glyph glyph-name="Ncommaaccent" unicode="&#x145;" horiz-adv-x="680" 
d="M567 600h111l-106 -600h-129l-216 442l-78 -442h-111l106 600h129l216 -442zM214 -201l55 163l103 -32l-71 -160z" />
    <glyph glyph-name="ncommaaccent" unicode="&#x146;" horiz-adv-x="518" 
d="M344 412q68 0 102.5 -48.5t19.5 -127.5l-41 -236h-106l39 220q15 94 -58 94q-45 0 -84 -32t-50 -78l-36 -204h-107l70 400h107l-10 -55q74 67 154 67zM123 -209l56 168l99 -27l-72 -165z" />
    <glyph glyph-name="Ncaron" unicode="&#x147;" horiz-adv-x="680" 
d="M580 795l-166 -134l-129 141l75 58l66 -79l99 79zM567 600h111l-106 -600h-129l-216 442l-78 -442h-111l106 600h129l216 -442z" />
    <glyph glyph-name="ncaron" unicode="&#x148;" horiz-adv-x="518" 
d="M468 595l-166 -134l-129 141l75 58l66 -79l99 79zM344 412q68 0 102.5 -48.5t19.5 -127.5l-41 -236h-106l39 220q15 94 -58 94q-45 0 -84 -32t-50 -78l-36 -204h-107l70 400h107l-10 -55q74 67 154 67z" />
    <glyph glyph-name="Eng" unicode="&#x14a;" horiz-adv-x="704" 
d="M471 614q111 0 163.5 -66.5t32.5 -181.5l-53 -297q-19 -106 -88 -166.5t-173 -60.5h-48l18 103h42q49 0 85.5 31.5t44.5 80.5l47 267q17 94 -6 138.5t-97 44.5q-91 0 -153 -60t-79 -150l-52 -297h-117l106 600h117l-14 -84q89 98 224 98z" />
    <glyph glyph-name="eng" unicode="&#x14b;" horiz-adv-x="518" 
d="M330 412q74 0 112 -49.5t24 -126.5l-41 -236q-20 -109 -86 -170.5t-163 -61.5h-43l18 102h33q49 0 86.5 35t48.5 99l39 216q7 43 -7.5 68.5t-51.5 25.5q-44 0 -83 -31.5t-50 -78.5l-36 -204h-107l70 400h107l-7 -41q59 53 137 53z" />
    <glyph glyph-name="Omacron" unicode="&#x14c;" horiz-adv-x="720" 
d="M600 708h-300l15 87h300zM352 -14q-152 0 -233.5 97.5t-55.5 247.5q22 124 117.5 204t220.5 80q154 0 236 -97.5t55 -247.5q-21 -124 -117 -204t-223 -80zM362 92q79 0 138.5 53t73.5 135q17 100 -34 164.5t-147 64.5q-78 0 -138.5 -53t-73.5 -135q-16 -100 35 -164.5
t146 -64.5z" />
    <glyph glyph-name="omacron" unicode="&#x14d;" horiz-adv-x="480" 
d="M444 508h-300l15 87h300zM220 -12q-101 0 -156 66t-36 166q17 88 80.5 140t150.5 52q101 0 156.5 -67t36.5 -166q-16 -86 -80 -138.5t-152 -52.5zM231 88q45 0 77 27.5t41 74.5q10 54 -18 88.5t-80 34.5q-47 0 -79 -29.5t-40 -72.5q-10 -52 18 -87.5t81 -35.5z" />
    <glyph glyph-name="Obreve" unicode="&#x14e;" horiz-adv-x="720" 
d="M402 826q-4 -32 8 -51t38 -19q50 0 65 70h95q-13 -69 -58 -111.5t-109 -42.5q-66 0 -105 44.5t-27 109.5h93zM352 -14q-152 0 -233.5 97.5t-55.5 247.5q22 124 117.5 204t220.5 80q154 0 236 -97.5t55 -247.5q-21 -124 -117 -204t-223 -80zM362 92q79 0 138.5 53
t73.5 135q17 100 -34 164.5t-147 64.5q-78 0 -138.5 -53t-73.5 -135q-16 -100 35 -164.5t146 -64.5z" />
    <glyph glyph-name="obreve" unicode="&#x14f;" horiz-adv-x="480" 
d="M246 626q-4 -32 8 -51t38 -19q50 0 65 70h95q-13 -69 -58 -111.5t-109 -42.5q-66 0 -105 44.5t-27 109.5h93zM220 -12q-101 0 -156 66t-36 166q17 88 80.5 140t150.5 52q101 0 156.5 -67t36.5 -166q-16 -86 -80 -138.5t-152 -52.5zM231 88q45 0 77 27.5t41 74.5
q10 54 -18 88.5t-80 34.5q-47 0 -79 -29.5t-40 -72.5q-10 -52 18 -87.5t81 -35.5z" />
    <glyph glyph-name="Ohungarumlaut" unicode="&#x150;" horiz-adv-x="720" 
d="M269 673l-38 79l214 97l40 -85zM509 673l-38 79l214 97l40 -85zM352 -14q-152 0 -233.5 97.5t-55.5 247.5q22 124 117.5 204t220.5 80q154 0 236 -97.5t55 -247.5q-21 -124 -117 -204t-223 -80zM362 92q79 0 138.5 53t73.5 135q17 100 -34 164.5t-147 64.5
q-78 0 -138.5 -53t-73.5 -135q-16 -100 35 -164.5t146 -64.5z" />
    <glyph glyph-name="ohungarumlaut" unicode="&#x151;" horiz-adv-x="480" 
d="M167 464l-53 69l171 131l58 -74zM367 464l-53 69l171 131l58 -74zM220 -12q-101 0 -156 66t-36 166q17 88 80.5 140t150.5 52q101 0 156.5 -67t36.5 -166q-16 -86 -80 -138.5t-152 -52.5zM231 88q45 0 77 27.5t41 74.5q10 54 -18 88.5t-80 34.5q-47 0 -79 -29.5
t-40 -72.5q-10 -52 18 -87.5t81 -35.5z" />
    <glyph glyph-name="OE" unicode="&#x152;" horiz-adv-x="980" 
d="M975 499h-351q39 -60 43 -141h263l-17 -100h-253q-18 -90 -74 -157h329l-18 -101h-465q-47 -14 -97 -14q-141 0 -219 98.5t-53 246.5q21 124 114 204t218 80q53 0 97 -15h501zM179 321q-16 -101 33.5 -166t135.5 -65q76 0 131 53.5t67 136.5q15 100 -31 165.5t-131 65.5
q-76 0 -133.5 -53.5t-71.5 -136.5z" />
    <glyph glyph-name="oe" unicode="&#x153;" horiz-adv-x="791" 
d="M599 412q85 0 131 -58.5t31 -149.5q-3 -17 -11 -43l-300 2q4 -42 36.5 -66t79.5 -24q62 0 110 38l45 -61q-75 -62 -164 -62q-55 0 -100 23.5t-69 65.5q-62 -89 -173 -89q-95 0 -150 66t-37 166q17 88 80.5 140t146.5 52q114 0 160 -90q66 90 184 90zM587 328
q-36 0 -68.5 -20t-51.5 -60h203q-4 37 -27.5 58.5t-55.5 21.5zM351 190q10 54 -18.5 88.5t-80.5 34.5q-47 0 -79.5 -29.5t-40.5 -72.5q-10 -51 18.5 -87t80.5 -36q46 0 78.5 27.5t41.5 74.5z" />
    <glyph glyph-name="Racute" unicode="&#x154;" horiz-adv-x="653" 
d="M540 764l-216 -91l-38 79l214 97zM617 423q-9 -53 -47 -96.5t-99 -61.5q133 -67 97 -265h-114q20 118 -31 175.5t-177 57.5h-43l-41 -233h-114l106 600h268q104 0 155.5 -51t39.5 -126zM502 419q6 36 -18 59.5t-75 23.5h-158l-31 -176h152q48 0 85.5 26t44.5 67z" />
    <glyph glyph-name="racute" unicode="&#x155;" horiz-adv-x="356" 
d="M388 590l-176 -126l-53 69l171 131zM186 323q71 85 178 85l-15 -108h-22q-54 0 -104 -34.5t-64 -97.5l-29 -168h-107l70 400h107z" />
    <glyph glyph-name="Rcommaaccent" unicode="&#x156;" horiz-adv-x="653" 
d="M617 423q-9 -53 -47 -96.5t-99 -61.5q133 -67 97 -265h-114q20 118 -31 175.5t-177 57.5h-43l-41 -233h-114l106 600h268q104 0 155.5 -51t39.5 -126zM502 419q6 36 -18 59.5t-75 23.5h-158l-31 -176h152q48 0 85.5 26t44.5 67zM194 -201l55 163l103 -32l-71 -160z" />
    <glyph glyph-name="rcommaaccent" unicode="&#x157;" horiz-adv-x="356" 
d="M186 323q71 85 178 85l-15 -108h-22q-54 0 -104 -34.5t-64 -97.5l-29 -168h-107l70 400h107zM42 -209l56 168l99 -27l-72 -165z" />
    <glyph glyph-name="Rcaron" unicode="&#x158;" horiz-adv-x="653" 
d="M559 795l-166 -134l-129 141l75 58l66 -79l99 79zM617 423q-9 -53 -47 -96.5t-99 -61.5q133 -67 97 -265h-114q20 118 -31 175.5t-177 57.5h-43l-41 -233h-114l106 600h268q104 0 155.5 -51t39.5 -126zM502 419q6 36 -18 59.5t-75 23.5h-158l-31 -176h152q48 0 85.5 26
t44.5 67z" />
    <glyph glyph-name="rcaron" unicode="&#x159;" horiz-adv-x="356" 
d="M399 595l-166 -134l-129 141l75 58l66 -79l99 79zM186 323q71 85 178 85l-15 -108h-22q-54 0 -104 -34.5t-64 -97.5l-29 -168h-107l70 400h107z" />
    <glyph glyph-name="Sacute" unicode="&#x15a;" horiz-adv-x="600" 
d="M310 673l-38 79l214 97l40 -85zM286 -12q-83 0 -152 32.5t-98 92.5l85 57q57 -83 176 -79q52 0 92 16.5t48 51.5q5 23 -5.5 40.5t-34.5 28t-42 16t-44 10.5q-49 10 -83.5 22t-68.5 34t-47 59t-2 88q16 75 88 115t164 40q77 0 142.5 -29.5t100.5 -86.5l-86 -61
q-24 38 -70 57t-98 19q-49 0 -84.5 -15.5t-41.5 -43.5q-5 -23 3.5 -40.5t30 -29t39.5 -17t48 -12.5q124 -26 170 -70q50 -49 32 -128q-18 -80 -92.5 -123.5t-169.5 -43.5z" />
    <glyph glyph-name="sacute" unicode="&#x15b;" horiz-adv-x="398" 
d="M214 464l-53 69l171 131l58 -74zM174 -13q-113 0 -167 79l76 51q25 -23 46.5 -33.5t54.5 -10.5q56 0 65 36q5 20 -13.5 31.5t-50.5 20.5q-140 39 -120 146q9 51 54.5 79t107.5 28q106 0 152 -77l-76 -51q-27 41 -76 41q-56 0 -64 -35q-4 -19 13.5 -30.5t50.5 -20.5
q136 -36 117 -141q-10 -53 -57 -83t-113 -30z" />
    <glyph glyph-name="Scircumflex" unicode="&#x15c;" horiz-adv-x="600" 
d="M407 747l-99 -79l-55 65l166 134l129 -141l-75 -58zM346 353q124 -26 170 -70q50 -49 32 -128q-18 -80 -92.5 -123.5t-169.5 -43.5q-83 0 -152 32.5t-98 92.5l85 57q57 -83 176 -79q52 0 92 16.5t48 51.5q5 23 -5.5 40.5t-34.5 28t-42 16t-44 10.5q-49 10 -83.5 22
t-68.5 34t-47 59t-2 88q16 75 88 115t164 40q77 0 142.5 -29.5t100.5 -86.5l-86 -61q-24 38 -70 57t-98 19q-49 0 -84.5 -15.5t-41.5 -43.5q-5 -23 3.5 -40.5t30 -29t39.5 -17t48 -12.5z" />
    <glyph glyph-name="scircumflex" unicode="&#x15d;" horiz-adv-x="398" 
d="M251 541l-92 -80l-52 62l163 141l119 -141l-79 -62zM227 327q-56 0 -64 -35q-4 -19 13.5 -30.5t50.5 -20.5q136 -36 117 -141q-10 -53 -57 -83t-113 -30q-113 0 -167 79l76 51q25 -23 46.5 -33.5t54.5 -10.5q56 0 65 36q5 20 -13.5 31.5t-50.5 20.5q-140 39 -120 146
q9 51 54.5 79t107.5 28q106 0 152 -77l-76 -51q-27 41 -76 41z" />
    <glyph glyph-name="Scedilla" unicode="&#x15e;" horiz-adv-x="600" 
d="M286 -12q-83 0 -152 32.5t-98 92.5l85 57q57 -83 176 -79q52 0 92 16.5t48 51.5q5 23 -5.5 40.5t-34.5 28t-42 16t-44 10.5q-49 10 -83.5 22t-68.5 34t-47 59t-2 88q16 75 88 115t164 40q77 0 142.5 -29.5t100.5 -86.5l-86 -61q-24 38 -70 57t-98 19q-49 0 -84.5 -15.5
t-41.5 -43.5q-5 -23 3.5 -40.5t30 -29t39.5 -17t48 -12.5q124 -26 170 -70q50 -49 32 -128q-18 -80 -92.5 -123.5t-169.5 -43.5zM270 -220h-93l25 155h100z" />
    <glyph glyph-name="scedilla" unicode="&#x15f;" horiz-adv-x="398" 
d="M174 -13q-113 0 -167 79l76 51q25 -23 46.5 -33.5t54.5 -10.5q56 0 65 36q5 20 -13.5 31.5t-50.5 20.5q-140 39 -120 146q9 51 54.5 79t107.5 28q106 0 152 -77l-76 -51q-27 41 -76 41q-56 0 -64 -35q-4 -19 13.5 -30.5t50.5 -20.5q136 -36 117 -141q-10 -53 -57 -83
t-113 -30zM165 -220h-93l25 155h100z" />
    <glyph glyph-name="Scaron" unicode="&#x160;" horiz-adv-x="600" 
d="M545 795l-166 -134l-129 141l75 58l66 -79l99 79zM346 353q124 -26 170 -70q50 -49 32 -128q-18 -80 -92.5 -123.5t-169.5 -43.5q-83 0 -152 32.5t-98 92.5l85 57q57 -83 176 -79q52 0 92 16.5t48 51.5q5 23 -5.5 40.5t-34.5 28t-42 16t-44 10.5q-49 10 -83.5 22
t-68.5 34t-47 59t-2 88q16 75 88 115t164 40q77 0 142.5 -29.5t100.5 -86.5l-86 -61q-24 38 -70 57t-98 19q-49 0 -84.5 -15.5t-41.5 -43.5q-5 -23 3.5 -40.5t30 -29t39.5 -17t48 -12.5z" />
    <glyph glyph-name="scaron" unicode="&#x161;" horiz-adv-x="398" 
d="M403 602l-163 -141l-119 141l75 58l60 -79l95 83zM227 327q-56 0 -64 -35q-4 -19 13.5 -30.5t50.5 -20.5q136 -36 117 -141q-10 -53 -57 -83t-113 -30q-113 0 -167 79l76 51q25 -23 46.5 -33.5t54.5 -10.5q56 0 65 36q5 20 -13.5 31.5t-50.5 20.5q-140 39 -120 146
q9 51 54.5 79t107.5 28q106 0 152 -77l-76 -51q-27 41 -76 41z" />
    <glyph glyph-name="uni0162" unicode="&#x162;" horiz-adv-x="593" 
d="M639 600l-18 -102h-213l-88 -498h-117l88 498h-213l18 102h543zM174 -220l25 155h100l-32 -155h-93z" />
    <glyph glyph-name="uni0163" unicode="&#x163;" horiz-adv-x="394" 
d="M214 310l-25 -142q-7 -37 8.5 -58.5t48.5 -21.5q34 0 67 23l52 -68q-58 -55 -142 -55q-76 0 -116.5 45t-25.5 126l27 151h-71l16 90h70l18 100h107l-18 -100h163l-16 -90h-163zM109 -220l25 155h100l-32 -155h-93z" />
    <glyph glyph-name="Tcaron" unicode="&#x164;" horiz-adv-x="593" 
d="M542 795l-166 -134l-129 141l75 58l66 -79l99 79zM639 600l-18 -102h-213l-88 -498h-117l88 498h-213l18 102h543z" />
    <glyph glyph-name="tcaron" unicode="&#x165;" horiz-adv-x="394" 
d="M338 700h88l-33 -193l-95 -44zM248 500l-18 -100h163l-16 -90h-163l-25 -142q-7 -37 8.5 -58.5t48.5 -21.5q34 0 67 23l52 -68q-58 -55 -142 -55q-76 0 -116.5 45t-25.5 126l27 151h-71l16 90h70l18 100h107z" />
    <glyph glyph-name="Tbar" unicode="&#x166;" horiz-adv-x="593" 
d="M621 498h-213l-27 -155h91l-15 -87h-92l-45 -256h-117l45 256h-91l15 87h92l27 155h-213l18 102h543z" />
    <glyph glyph-name="tbar" unicode="&#x167;" horiz-adv-x="394" 
d="M377 310h-163l-11 -61h123l-15 -87h-123q-5 -34 11 -54t47 -20q34 0 67 23l52 -68q-58 -55 -142 -55q-76 0 -116.5 45t-25.5 126l1 3h-71l15 87h71l11 61h-71l16 90h70l18 100h107l-18 -100h163z" />
    <glyph glyph-name="Utilde" unicode="&#x168;" 
d="M501 680q-42 0 -78 36q-19 19 -30 19q-13 0 -21.5 -12t-8.5 -31h-80q0 61 29.5 94.5t73.5 33.5q35 0 70 -35q22 -20 33 -20q13 0 21.5 12t8.5 31h80q0 -59 -30 -93.5t-68 -34.5zM323 -14q-131 0 -198.5 82t-43.5 218l56 314h117l-57 -326q-15 -84 22 -133.5t110 -49.5
q70 0 121 47t65 125l60 337h117l-61 -346q-22 -126 -104.5 -197t-203.5 -71z" />
    <glyph glyph-name="utilde" unicode="&#x169;" horiz-adv-x="516" 
d="M274 535q-13 0 -21.5 -12t-8.5 -31h-80q0 61 29.5 94.5t73.5 33.5q35 0 70 -35q22 -20 33 -20q13 0 21.5 12t8.5 31h80q0 -59 -30 -93.5t-68 -34.5q-42 0 -78 36q-19 19 -30 19zM386 400h107l-70 -400h-107l9 54q-69 -66 -151 -66q-68 0 -102.5 48.5t-19.5 127.5l41 236
h106l-39 -220q-15 -94 58 -94q45 0 83 31.5t49 78.5z" />
    <glyph glyph-name="Umacron" unicode="&#x16a;" 
d="M584 708h-300l15 87h300zM336 -14q-135 0 -206 85.5t-45 234.5l52 294h117l-53 -306q-17 -97 23.5 -150t116.5 -53q71 0 116 46t58 126l60 337h117l-61 -346q-21 -127 -97.5 -197.5t-197.5 -70.5z" />
    <glyph glyph-name="umacron" unicode="&#x16b;" horiz-adv-x="516" 
d="M480 595l-15 -87h-300l15 87h300zM386 400h107l-70 -400h-107l9 54q-69 -66 -151 -66q-68 0 -102.5 48.5t-19.5 127.5l41 236h106l-39 -220q-15 -94 58 -94q45 0 83 31.5t49 78.5z" />
    <glyph glyph-name="Ubreve" unicode="&#x16c;" 
d="M386 826q-4 -32 8 -51t38 -19q50 0 65 70h95q-13 -69 -58 -111.5t-109 -42.5q-66 0 -105 44.5t-27 109.5h93zM323 -14q-131 0 -198.5 82t-43.5 218l56 314h117l-57 -326q-15 -84 22 -133.5t110 -49.5q70 0 121 47t65 125l60 337h117l-61 -346q-22 -126 -104.5 -197
t-203.5 -71z" />
    <glyph glyph-name="ubreve" unicode="&#x16d;" horiz-adv-x="516" 
d="M306 472q-66 0 -105 44.5t-27 109.5h93q-4 -32 8 -51t38 -19q50 0 65 70h95q-13 -69 -58 -111.5t-109 -42.5zM386 400h107l-70 -400h-107l9 54q-69 -66 -151 -66q-68 0 -102.5 48.5t-19.5 127.5l41 236h106l-39 -220q-15 -94 58 -94q45 0 83 31.5t49 78.5z" />
    <glyph glyph-name="Uring" unicode="&#x16e;" 
d="M437 657q-56 0 -93 33.5t-37 85.5t37 85.5t93 33.5t93 -33.5t37 -85.5t-37 -85.5t-93 -33.5zM437 731q20 0 32.5 12.5t12.5 32.5t-12.5 32.5t-32.5 12.5t-32.5 -12.5t-12.5 -32.5t12.5 -32.5t32.5 -12.5zM336 -14q-135 0 -206 85.5t-45 234.5l52 294h117l-53 -306
q-17 -97 23.5 -150t116.5 -53q71 0 116 46t58 126l60 337h117l-61 -346q-21 -127 -97.5 -197.5t-197.5 -70.5z" />
    <glyph glyph-name="uring" unicode="&#x16f;" horiz-adv-x="516" 
d="M318 457q-56 0 -93 33.5t-37 85.5t37 85.5t93 33.5t93 -33.5t37 -85.5t-37 -85.5t-93 -33.5zM318 621q-20 0 -32.5 -12.5t-12.5 -32.5t12.5 -32.5t32.5 -12.5t32.5 12.5t12.5 32.5t-12.5 32.5t-32.5 12.5zM386 400h107l-70 -400h-107l9 54q-69 -66 -151 -66
q-68 0 -102.5 48.5t-19.5 127.5l41 236h106l-39 -220q-15 -94 58 -94q45 0 83 31.5t49 78.5z" />
    <glyph glyph-name="Uhungarumlaut" unicode="&#x170;" 
d="M253 673l-38 79l214 97l40 -85zM493 673l-38 79l214 97l40 -85zM323 -14q-131 0 -198.5 82t-43.5 218l56 314h117l-57 -326q-15 -84 22 -133.5t110 -49.5q70 0 121 47t65 125l60 337h117l-61 -346q-22 -126 -104.5 -197t-203.5 -71z" />
    <glyph glyph-name="uhungarumlaut" unicode="&#x171;" horiz-adv-x="516" 
d="M364 590l-176 -126l-53 69l171 131zM388 464l-53 69l171 131l58 -74zM350 196l36 204h107l-70 -400h-107l9 54q-69 -66 -151 -66q-68 0 -102.5 48.5t-19.5 127.5l41 236h106l-39 -220q-15 -94 58 -94q45 0 83 31.5t49 78.5z" />
    <glyph glyph-name="Uogonek" unicode="&#x172;" 
d="M575 600h117l-61 -346q-18 -111 -79.5 -179t-157.5 -84q-47 -48 -54 -89q-7 -40 52 -40l-12 -89h-20q-71 0 -105.5 37t-24.5 91q6 44 47 90q-108 19 -161.5 101.5t-30.5 213.5l52 294h117l-53 -306q-17 -97 23.5 -150t116.5 -53q71 0 116 46t58 126z" />
    <glyph glyph-name="uogonek" unicode="&#x173;" horiz-adv-x="516" 
d="M386 400h107l-70 -400q-59 -56 -66 -98q-7 -40 52 -40l-12 -89h-20q-65 0 -97 37t-22 91q8 51 58 99l9 54q-69 -66 -151 -66q-68 0 -102.5 48.5t-19.5 127.5l41 236h106l-39 -220q-15 -94 58 -94q45 0 83 31.5t49 78.5z" />
    <glyph glyph-name="Wcircumflex" unicode="&#x174;" horiz-adv-x="926" 
d="M558 747l-99 -79l-55 65l166 134l129 -141l-75 -58zM856 604h118l-279 -604h-125l-70 445l-221 -445h-126l-59 604h113l47 -440l221 436h107l73 -444z" />
    <glyph glyph-name="wcircumflex" unicode="&#x175;" horiz-adv-x="752" 
d="M442 547l-99 -79l-55 65l166 134l129 -141l-75 -58zM656 400h119l-215 -400h-116l-52 286l-152 -286h-116l-75 400h115l38 -281l146 281h124l48 -281z" />
    <glyph glyph-name="Ycircumflex" unicode="&#x176;" horiz-adv-x="580" 
d="M397 747l-99 -79l-55 65l166 134l129 -141l-75 -58zM626 600q-27 -158 -95.5 -247t-174.5 -103l-44 -250h-117l45 255q-98 23 -134.5 110t-9.5 235h116q-23 -126 4 -191.5t103 -65.5q71 0 119.5 65.5t71.5 191.5h116z" />
    <glyph glyph-name="ycircumflex" unicode="&#x177;" horiz-adv-x="516" 
d="M327 547l-99 -79l-55 65l166 134l129 -141l-75 -58zM386 400h107l-70 -401q-19 -108 -83 -169.5t-159 -61.5q-53 0 -99.5 19t-70.5 56l79 66q28 -39 93 -39q51 0 86 33t46 94l10 56q-70 -65 -151 -65q-68 0 -102.5 48.5t-19.5 127.5l41 236h106l-39 -220q-15 -94 58 -94
q44 0 81.5 30.5t50.5 76.5z" />
    <glyph glyph-name="Ydieresis" unicode="&#x178;" horiz-adv-x="580" 
d="M288 686q-30 0 -49 19t-19 48q0 30 19 49t49 19t49 -19.5t19 -48.5t-19 -48t-49 -19zM488 686q-30 0 -49 19t-19 48q0 30 19 49t49 19t49 -19.5t19 -48.5t-19 -48t-49 -19zM626 600q-27 -158 -95.5 -247t-174.5 -103l-44 -250h-117l45 255q-98 23 -134.5 110t-9.5 235
h116q-23 -126 4 -191.5t103 -65.5q71 0 119.5 65.5t71.5 191.5h116z" />
    <glyph glyph-name="Zacute" unicode="&#x179;" horiz-adv-x="595" 
d="M516 764l-216 -91l-38 79l214 97zM604 508l-367 -365q-29 -29 -52 -48q44 4 95 4h252l-18 -99h-494l15 86l374 372q29 29 49 45q-39 -2 -112 -2h-236l18 99h492z" />
    <glyph glyph-name="zacute" unicode="&#x17a;" horiz-adv-x="433" 
d="M419 590l-176 -126l-53 69l171 131zM412 322l-188 -179q-41 -39 -65 -57q35 3 103 3h109l-15 -89h-349l13 78l189 180q43 39 65 56q-35 -3 -104 -3h-104l15 89h345z" />
    <glyph glyph-name="Zdotaccent" unicode="&#x17b;" horiz-adv-x="595" 
d="M391 701q-31 0 -49.5 18.5t-18.5 48.5t19 49t49 19t49 -19.5t19 -48.5t-19 -48t-49 -19zM604 508l-367 -365q-29 -29 -52 -48q44 4 95 4h252l-18 -99h-494l15 86l374 372q29 29 49 45q-39 -2 -112 -2h-236l18 99h492z" />
    <glyph glyph-name="zdotaccent" unicode="&#x17c;" horiz-adv-x="433" 
d="M284 491q-30 0 -49 18.5t-19 48.5t19 49t49 19t49 -19.5t19 -48.5t-19 -48t-49 -19zM412 322l-188 -179q-41 -39 -65 -57q35 3 103 3h109l-15 -89h-349l13 78l189 180q43 39 65 56q-35 -3 -104 -3h-104l15 89h345z" />
    <glyph glyph-name="Zcaron" unicode="&#x17d;" horiz-adv-x="595" 
d="M535 795l-166 -134l-129 141l75 58l66 -79l99 79zM604 508l-367 -365q-29 -29 -52 -48q44 4 95 4h252l-18 -99h-494l15 86l374 372q29 29 49 45q-39 -2 -112 -2h-236l18 99h492z" />
    <glyph glyph-name="zcaron" unicode="&#x17e;" horiz-adv-x="433" 
d="M430 595l-166 -134l-129 141l75 58l66 -79l99 79zM66 311l15 89h345l-14 -78l-188 -179q-41 -39 -65 -57q35 3 103 3h109l-15 -89h-349l13 78l189 180q43 39 65 56q-35 -3 -104 -3h-104z" />
    <glyph glyph-name="longs" unicode="&#x17f;" horiz-adv-x="316" 
d="M48 0l83 471q20 116 84.5 176.5t168.5 60.5h43l-18 -103h-37q-111 0 -132 -122l-85 -483h-107z" />
    <glyph glyph-name="uni018F" unicode="&#x18f;" horiz-adv-x="710" 
d="M393 615q151 0 233 -97t56 -248q-24 -126 -119.5 -205t-234.5 -79q-149 0 -220.5 94.5t-42.5 262.5h504q-7 74 -57 119.5t-131 45.5q-111 0 -193 -57l-60 83q107 81 265 81zM338 90q80 0 137.5 41.5t80.5 111.5h-380q-2 -74 41.5 -113.5t120.5 -39.5z" />
    <glyph glyph-name="uni01CD" unicode="&#x1cd;" horiz-adv-x="632" 
d="M558 795l-166 -134l-129 141l75 58l66 -79l99 79zM448 0l-30 167h-215l-89 -167h-127l337 600h125l124 -600h-125zM257 269h142l-36 199z" />
    <glyph glyph-name="uni01CE" unicode="&#x1ce;" horiz-adv-x="514" 
d="M466 595l-166 -134l-129 141l75 58l66 -79l99 79zM387 400h104l-70 -400h-104l7 42q-54 -52 -126 -52q-86 0 -136.5 68t-33.5 165q14 79 73 133.5t134 54.5q43 0 81 -19.5t61 -55.5zM229 87q47 0 82 27.5t43 71.5q10 51 -21.5 89t-85.5 38q-47 0 -77.5 -31t-37.5 -71
q-8 -47 16.5 -85.5t80.5 -38.5z" />
    <glyph glyph-name="uni01CF" unicode="&#x1cf;" horiz-adv-x="283" 
d="M386 795l-166 -134l-129 141l75 58l66 -79l99 79zM48 0l106 600h117l-106 -600h-117z" />
    <glyph glyph-name="uni01D0" unicode="&#x1d0;" horiz-adv-x="243" 
d="M333 602l-163 -141l-119 141l75 58l60 -79l95 83zM33 0l70 400h107l-70 -400h-107z" />
    <glyph glyph-name="uni01D1" unicode="&#x1d1;" horiz-adv-x="720" 
d="M605 795l-166 -134l-129 141l75 58l66 -79l99 79zM401 615q154 0 236 -97.5t55 -247.5q-21 -124 -117 -204t-223 -80q-152 0 -233.5 97.5t-55.5 247.5q22 124 117.5 204t220.5 80zM574 280q17 100 -34 164.5t-147 64.5q-78 0 -138.5 -53t-73.5 -135q-16 -100 35 -164.5
t146 -64.5q79 0 138.5 53t73.5 135z" />
    <glyph glyph-name="uni01D2" unicode="&#x1d2;" horiz-adv-x="480" 
d="M449 595l-166 -134l-129 141l75 58l66 -79l99 79zM259 412q101 0 156.5 -67t36.5 -166q-16 -86 -80 -138.5t-152 -52.5q-101 0 -156 66t-36 166q17 88 80.5 140t150.5 52zM349 190q10 54 -18 88.5t-80 34.5q-47 0 -79 -29.5t-40 -72.5q-10 -52 18 -87.5t81 -35.5
q45 0 77 27.5t41 74.5z" />
    <glyph glyph-name="uni01D3" unicode="&#x1d3;" 
d="M589 795l-166 -134l-129 141l75 58l66 -79l99 79zM575 600h117l-61 -346q-22 -126 -104.5 -197t-203.5 -71q-131 0 -198.5 82t-43.5 218l56 314h117l-57 -326q-15 -84 22 -133.5t110 -49.5q70 0 121 47t65 125z" />
    <glyph glyph-name="uni01D4" unicode="&#x1d4;" horiz-adv-x="516" 
d="M470 595l-166 -134l-129 141l75 58l66 -79l99 79zM386 400h107l-70 -400h-107l9 54q-69 -66 -151 -66q-68 0 -102.5 48.5t-19.5 127.5l41 236h106l-39 -220q-15 -94 58 -94q45 0 83 31.5t49 78.5z" />
    <glyph glyph-name="uni01D5" unicode="&#x1d5;" 
d="M602 878h-300l15 87h300zM328 670q-30 0 -49 19t-19 48q0 30 19 49t49 19t49 -19.5t19 -48.5t-19 -48t-49 -19zM528 670q-30 0 -49 19t-19 48q0 30 19 49t49 19t49 -19.5t19 -48.5t-19 -48t-49 -19zM336 -14q-135 0 -206 85.5t-45 234.5l52 294h117l-53 -306
q-17 -97 23.5 -150t116.5 -53q71 0 116 46t58 126l60 337h117l-61 -346q-21 -127 -97.5 -197.5t-197.5 -70.5z" />
    <glyph glyph-name="uni01D6" unicode="&#x1d6;" horiz-adv-x="516" 
d="M498 765l-15 -87h-300l15 87h300zM209 470q-31 0 -49.5 19t-18.5 48q0 30 19 49t49 19t49 -19.5t19 -48.5t-19 -48t-49 -19zM341 537q0 30 19 49t49 19t49 -19.5t19 -48.5t-19 -48t-49 -19q-31 0 -49.5 19t-18.5 48zM350 196l36 204h107l-70 -400h-107l9 54
q-69 -66 -151 -66q-68 0 -102.5 48.5t-19.5 127.5l41 236h106l-39 -220q-15 -94 58 -94q45 0 83 31.5t49 78.5z" />
    <glyph glyph-name="uni01D7" unicode="&#x1d7;" 
d="M381 836l-38 79l214 97l40 -85zM332 670q-30 0 -49 19t-19 48q0 30 19 49t49 19t49 -19.5t19 -48.5t-19 -48t-49 -19zM532 670q-30 0 -49 19t-19 48q0 30 19 49t49 19t49 -19.5t19 -48.5t-19 -48t-49 -19zM336 -14q-135 0 -206 85.5t-45 234.5l52 294h117l-53 -306
q-17 -97 23.5 -150t116.5 -53q71 0 116 46t58 126l60 337h117l-61 -346q-21 -127 -97.5 -197.5t-197.5 -70.5z" />
    <glyph glyph-name="uni01D8" unicode="&#x1d8;" horiz-adv-x="516" 
d="M478 727l-216 -91l-38 79l214 97zM213 470q-31 0 -49.5 19t-18.5 48q0 30 19 49t49 19t49 -19.5t19 -48.5t-19 -48t-49 -19zM413 605q30 0 49 -19.5t19 -48.5t-19 -48t-49 -19q-31 0 -49.5 19t-18.5 48q0 30 19 49t49 19zM386 400h107l-70 -400h-107l9 54
q-69 -66 -151 -66q-68 0 -102.5 48.5t-19.5 127.5l41 236h106l-39 -220q-15 -94 58 -94q45 0 83 31.5t49 78.5z" />
    <glyph glyph-name="uni01D9" unicode="&#x1d9;" 
d="M610 965l-166 -134l-129 141l75 58l66 -79l99 79zM332 670q-30 0 -49 19t-19 48q0 30 19 49t49 19t49 -19.5t19 -48.5t-19 -48t-49 -19zM464 737q0 30 19 49t49 19t49 -19.5t19 -48.5t-19 -48t-49 -19t-49 19t-19 48zM575 600h117l-61 -346q-21 -127 -97.5 -197.5
t-197.5 -70.5q-135 0 -206 85.5t-45 234.5l52 294h117l-53 -306q-17 -97 23.5 -150t116.5 -53q71 0 116 46t58 126z" />
    <glyph glyph-name="uni01DA" unicode="&#x1da;" horiz-adv-x="516" 
d="M491 765l-166 -134l-129 141l75 58l66 -79l99 79zM213 470q-31 0 -49.5 19t-18.5 48q0 30 19 49t49 19t49 -19.5t19 -48.5t-19 -48t-49 -19zM345 537q0 30 19 49t49 19t49 -19.5t19 -48.5t-19 -48t-49 -19q-31 0 -49.5 19t-18.5 48zM386 400h107l-70 -400h-107l9 54
q-69 -66 -151 -66q-68 0 -102.5 48.5t-19.5 127.5l41 236h106l-39 -220q-15 -94 58 -94q45 0 83 31.5t49 78.5z" />
    <glyph glyph-name="uni01DB" unicode="&#x1db;" 
d="M513 837l-190 91l52 86l186 -97zM337 670q-31 0 -49.5 19t-18.5 48q0 30 19 49t49 19t49 -19.5t19 -48.5t-19 -48t-49 -19zM537 670q-31 0 -49.5 19t-18.5 48q0 30 19 49t49 19t49 -19.5t19 -48.5t-19 -48t-49 -19zM336 -14q-135 0 -206 85.5t-45 234.5l52 294h117
l-53 -306q-17 -97 23.5 -150t116.5 -53q71 0 116 46t58 126l60 337h117l-61 -346q-21 -127 -97.5 -197.5t-197.5 -70.5z" />
    <glyph glyph-name="uni01DC" unicode="&#x1dc;" horiz-adv-x="516" 
d="M442 717l-48 -80l-190 91l52 86zM218 470q-30 0 -49 19t-19 48q0 30 19 49t49 19t49 -19.5t19 -48.5t-19 -48t-49 -19zM350 537q0 30 19 49t49 19t49 -19.5t19 -48.5t-19 -48t-49 -19t-49 19t-19 48zM386 400h107l-70 -400h-107l9 54q-69 -66 -151 -66q-68 0 -102.5 48.5
t-19.5 127.5l41 236h106l-39 -220q-15 -94 58 -94q45 0 83 31.5t49 78.5z" />
    <glyph glyph-name="uni01E2" unicode="&#x1e2;" horiz-adv-x="844" 
d="M702 795l-15 -87h-300l15 87h300zM839 499h-325l9 -141h271l-18 -100h-247l10 -157h240l-18 -101h-332l-7 167h-214l-107 -167h-135l403 600h488zM274 269h143l-9 209z" />
    <glyph glyph-name="uni01E3" unicode="&#x1e3;" horiz-adv-x="791" 
d="M615 595l-15 -87h-300l15 87h300zM605 412q83 0 127.5 -58.5t28.5 -149.5q-4 -21 -11 -43l-300 2q4 -42 36.5 -66t79.5 -24q62 0 110 38l45 -61q-74 -62 -159 -62q-97 0 -140 82l-12 -70h-88l8 48q-56 -58 -134 -58q-64 0 -107 35t-57 87.5t-4 110.5q14 78 68.5 133
t136.5 55q46 0 85.5 -21t62.5 -60l11 70h88l-7 -41q53 53 132 53zM582 328q-34 0 -66 -19.5t-50 -60.5h204q-3 38 -28 59t-60 21zM229 87q47 0 82 27t43 72q10 53 -22 90t-86 37q-46 0 -76 -29.5t-38 -72.5q-8 -49 17.5 -86.5t79.5 -37.5z" />
    <glyph glyph-name="Gcaron" unicode="&#x1e6;" horiz-adv-x="722" 
d="M588 795l-166 -134l-129 141l75 58l66 -79l99 79zM393 351l307 -4q0 -42 -6 -77q-22 -125 -112.5 -204.5t-225.5 -79.5q-153 0 -236.5 98.5t-56.5 246.5q23 127 118.5 205.5t230.5 78.5q76 0 140 -26t104 -73l-94 -76q-52 69 -160 69q-87 0 -147.5 -51.5t-75.5 -136.5
q-17 -96 35.5 -162.5t148.5 -66.5q75 0 131 42.5t77 114.5h-196z" />
    <glyph glyph-name="gcaron" unicode="&#x1e7;" horiz-adv-x="514" 
d="M441 595l-166 -134l-129 141l75 58l66 -79l99 79zM384 400h107l-72 -411q-19 -103 -85.5 -161.5t-164.5 -58.5q-115 0 -167 65l68 68q39 -34 102 -34q57 0 93.5 33.5t47.5 95.5l7 42q-54 -49 -124 -49q-87 0 -136.5 70t-31.5 163q15 80 74 134t133 54q91 0 139 -71z
M133 211q-8 -49 17.5 -86.5t79.5 -37.5q46 0 81 27.5t43 71.5q10 54 -22.5 90.5t-84.5 36.5q-47 0 -77 -30.5t-37 -71.5z" />
    <glyph glyph-name="uni01E8" unicode="&#x1e8;" horiz-adv-x="635" 
d="M563 795l-166 -134l-129 141l75 58l66 -79l99 79zM427 307q174 -61 130 -307h-118q20 119 -20.5 188t-131.5 69h-87l-45 -257h-117l106 600h117l-43 -241h72q88 0 157.5 68t89.5 173h117q-19 -110 -78 -185.5t-149 -107.5z" />
    <glyph glyph-name="uni01E9" unicode="&#x1e9;" horiz-adv-x="480" 
d="M361 784l-166 -134l-129 141l75 58l66 -79l99 79zM310 214q116 -50 85 -214h-105q14 83 -11 125.5t-78 42.5h-42l-29 -168h-107l105 600h107l-60 -342h14q56 0 108.5 45t65.5 105h104q-12 -66 -54 -117.5t-103 -76.5z" />
    <glyph glyph-name="uni01EA" unicode="&#x1ea;" horiz-adv-x="720" 
d="M401 615q154 0 236 -97.5t55 -247.5q-17 -99 -83 -172t-161 -99q-47 -47 -53 -87q-7 -40 52 -40l-12 -89h-20q-71 0 -105.5 37t-24.5 91q7 38 35 76q-138 11 -210 107t-47 237q22 124 117.5 204t220.5 80zM574 280q17 100 -34 164.5t-147 64.5q-78 0 -138.5 -53
t-73.5 -135q-16 -100 35 -164.5t146 -64.5q79 0 138.5 53t73.5 135z" />
    <glyph glyph-name="uni01EB" unicode="&#x1eb;" horiz-adv-x="480" 
d="M259 412q101 0 156.5 -67t36.5 -166q-12 -64 -51.5 -110t-96.5 -67q-51 -49 -58 -90q-7 -40 52 -40l-12 -89h-20q-65 0 -97 37t-22 91q6 38 40 79q-86 11 -131 75t-28 155q17 88 80.5 140t150.5 52zM349 190q10 54 -18 88.5t-80 34.5q-47 0 -79 -29.5t-40 -72.5
q-10 -52 18 -87.5t81 -35.5q45 0 77 27.5t41 74.5z" />
    <glyph glyph-name="AEacute" unicode="&#x1fc;" horiz-adv-x="844" 
d="M673 764l-216 -91l-38 79l214 97zM839 499h-325l9 -141h271l-18 -100h-247l10 -157h240l-18 -101h-332l-7 167h-214l-107 -167h-135l403 600h488zM274 269h143l-9 209z" />
    <glyph glyph-name="aeacute" unicode="&#x1fd;" horiz-adv-x="791" 
d="M594 590l-176 -126l-53 69l171 131zM605 412q83 0 127.5 -58.5t28.5 -149.5q-4 -21 -11 -43l-300 2q4 -42 36.5 -66t79.5 -24q62 0 110 38l45 -61q-74 -62 -159 -62q-97 0 -140 82l-12 -70h-88l8 48q-56 -58 -134 -58q-64 0 -107 35t-57 87.5t-4 110.5q14 78 68.5 133
t136.5 55q46 0 85.5 -21t62.5 -60l11 70h88l-7 -41q53 53 132 53zM582 328q-34 0 -66 -19.5t-50 -60.5h204q-3 38 -28 59t-60 21zM229 87q47 0 82 27t43 72q10 53 -22 90t-86 37q-46 0 -76 -29.5t-38 -72.5q-8 -49 17.5 -86.5t79.5 -37.5z" />
    <glyph glyph-name="Oslashacute" unicode="&#x1fe;" horiz-adv-x="720" 
d="M586 764l-216 -91l-38 79l214 97zM748 548l-85 -71q48 -88 27 -207q-21 -124 -117 -204t-223 -80q-120 0 -200 64l-80 -67l-59 68l81 67q-52 91 -31 213q22 124 117.5 204t220.5 80q127 0 207 -69l84 70zM172 321q-12 -72 11 -127l336 280q-50 42 -128 42
q-80 0 -142.5 -55t-76.5 -140zM579 280q12 67 -8 121l-333 -278q51 -38 122 -38q81 0 143.5 55t75.5 140z" />
    <glyph glyph-name="oslashacute" unicode="&#x1ff;" horiz-adv-x="480" 
d="M441 590l-176 -126l-53 69l171 131zM497 361l-60 -50q28 -59 15 -132q-16 -86 -80 -138.5t-152 -52.5q-74 0 -125 38l-59 -49l-54 61l60 50q-28 57 -14 132q17 88 80.5 140t150.5 52q76 0 127 -39l59 49zM121 211q-6 -28 1 -57l188 156q-28 13 -59 13q-51 0 -86 -32.5
t-44 -79.5zM360 190q6 30 -1 56l-186 -155q26 -13 58 -13q49 0 84 30.5t45 81.5z" />
    <glyph glyph-name="Scommaaccent" unicode="&#x218;" horiz-adv-x="600" 
d="M286 -12q-83 0 -152 32.5t-98 92.5l85 57q57 -83 176 -79q52 0 92 16.5t48 51.5q5 23 -5.5 40.5t-34.5 28t-42 16t-44 10.5q-49 10 -83.5 22t-68.5 34t-47 59t-2 88q16 75 88 115t164 40q77 0 142.5 -29.5t100.5 -86.5l-86 -61q-24 38 -70 57t-98 19q-49 0 -84.5 -15.5
t-41.5 -43.5q-5 -23 3.5 -40.5t30 -29t39.5 -17t48 -12.5q124 -26 170 -70q50 -49 32 -128q-18 -80 -92.5 -123.5t-169.5 -43.5zM249 -230l-87 29l55 163l103 -32z" />
    <glyph glyph-name="scommaaccent" unicode="&#x219;" horiz-adv-x="398" 
d="M174 -13q-113 0 -167 79l76 51q25 -23 46.5 -33.5t54.5 -10.5q56 0 65 36q5 20 -13.5 31.5t-50.5 20.5q-140 39 -120 146q9 51 54.5 79t107.5 28q106 0 152 -77l-76 -51q-27 41 -76 41q-56 0 -64 -35q-4 -19 13.5 -30.5t50.5 -20.5q136 -36 117 -141q-10 -53 -57 -83
t-113 -30zM142 -233l-83 24l56 168l99 -27z" />
    <glyph glyph-name="uni021A" unicode="&#x21a;" horiz-adv-x="593" 
d="M639 600l-18 -102h-213l-88 -498h-117l88 498h-213l18 102h543zM159 -201l55 163l103 -32l-71 -160z" />
    <glyph glyph-name="uni021B" unicode="&#x21b;" horiz-adv-x="394" 
d="M214 310l-25 -142q-7 -37 8.5 -58.5t48.5 -21.5q34 0 67 23l52 -68q-58 -55 -142 -55q-76 0 -116.5 45t-25.5 126l27 151h-71l16 90h70l18 100h107l-18 -100h163l-16 -90h-163zM96 -209l56 168l99 -27l-72 -165z" />
    <glyph glyph-name="uni0232" unicode="&#x232;" horiz-adv-x="580" 
d="M545 795l-15 -87h-300l15 87h300zM626 600q-27 -158 -95.5 -247t-174.5 -103l-44 -250h-117l45 255q-98 23 -134.5 110t-9.5 235h116q-23 -126 4 -191.5t103 -65.5q71 0 119.5 65.5t71.5 191.5h116z" />
    <glyph glyph-name="uni0233" unicode="&#x233;" horiz-adv-x="516" 
d="M475 595l-15 -87h-300l15 87h300zM386 400h107l-70 -401q-19 -108 -83 -169.5t-159 -61.5q-53 0 -99.5 19t-70.5 56l79 66q28 -39 93 -39q51 0 86 33t46 94l10 56q-70 -65 -151 -65q-68 0 -102.5 48.5t-19.5 127.5l41 236h106l-39 -220q-15 -94 58 -94q44 0 81.5 30.5
t50.5 76.5z" />
    <glyph glyph-name="uni0237" unicode="&#x237;" horiz-adv-x="243" 
d="M-6 -220l109 620h107l-109 -620h-107z" />
    <glyph glyph-name="uni0259" unicode="&#x259;" horiz-adv-x="468" 
d="M234 412q98 0 159 -63.5t42 -168.5q-15 -85 -78 -138.5t-149 -53.5q-96 0 -145 58t-33 150q2 17 11 43l300 -2q-4 42 -36.5 66t-79.5 24q-62 0 -110 -38l-45 61q75 62 164 62zM214 72q34 0 64 20t47 60h-204q4 -37 30.5 -58.5t62.5 -21.5z" />
    <glyph glyph-name="circumflex" unicode="&#x2c6;" horiz-adv-x="397" 
d="M404 526l-75 -58l-66 79l-99 -79l-55 65l166 134z" />
    <glyph glyph-name="caron" unicode="&#x2c7;" horiz-adv-x="396" 
d="M361 660l55 -65l-166 -134l-129 141l75 58l66 -79z" />
    <glyph glyph-name="breve" unicode="&#x2d8;" horiz-adv-x="399" 
d="M218 626q-4 -32 8 -51t38 -19q50 0 65 70h95q-13 -69 -58 -111.5t-109 -42.5q-66 0 -105 44.5t-27 109.5h93z" />
    <glyph glyph-name="dotaccent" unicode="&#x2d9;" horiz-adv-x="238" 
d="M200 491q-30 0 -49 18.5t-19 48.5t19 49t49 19t49 -19.5t19 -48.5t-19 -48t-49 -19z" />
    <glyph glyph-name="ring" unicode="&#x2da;" horiz-adv-x="364" 
d="M248 457q-56 0 -93 33.5t-37 85.5t37 85.5t93 33.5t93 -33.5t37 -85.5t-37 -85.5t-93 -33.5zM248 531q20 0 32.5 12.5t12.5 32.5t-12.5 32.5t-32.5 12.5t-32.5 -12.5t-12.5 -32.5t12.5 -32.5t32.5 -12.5z" />
    <glyph glyph-name="ogonek" unicode="&#x2db;" horiz-adv-x="261" 
d="M116 -227q-65 0 -97 37t-22 91q8 52 64 105l101 -6q-59 -56 -66 -98q-7 -40 52 -40l-12 -89h-20z" />
    <glyph glyph-name="tilde" unicode="&#x2dc;" horiz-adv-x="402" 
d="M323 480q-42 0 -78 36q-19 19 -30 19q-13 0 -21.5 -12t-8.5 -31h-80q0 61 29.5 94.5t73.5 33.5q35 0 70 -35q22 -20 33 -20q13 0 21.5 12t8.5 31h80q0 -59 -30 -93.5t-68 -34.5z" />
    <glyph glyph-name="hungarumlaut" unicode="&#x2dd;" horiz-adv-x="484" 
d="M147 464l-53 69l171 131l58 -74zM347 464l-53 69l171 131l58 -74z" />
    <glyph glyph-name="gravecomb" unicode="&#x300;" horiz-adv-x="0" 
d="M-32 461l-134 126l75 72l131 -131z" />
    <glyph glyph-name="acutecomb" unicode="&#x301;" horiz-adv-x="0" 
d="M-133 464l-53 69l171 131l58 -74z" />
    <glyph glyph-name="uni0302" unicode="&#x302;" horiz-adv-x="0" 
d="M23 526l-75 -58l-66 79l-99 -79l-55 65l166 134z" />
    <glyph glyph-name="tildecomb" unicode="&#x303;" horiz-adv-x="0" 
d="M-58 480q-42 0 -78 36q-19 19 -30 19q-13 0 -21.5 -12t-8.5 -31h-80q0 61 29.5 94.5t73.5 33.5q35 0 70 -35q22 -20 33 -20q13 0 21.5 12t8.5 31h80q0 -59 -30 -93.5t-68 -34.5z" />
    <glyph glyph-name="uni0304" unicode="&#x304;" horiz-adv-x="0" 
d="M25 508h-300l15 87h300z" />
    <glyph glyph-name="uni0306" unicode="&#x306;" horiz-adv-x="0" 
d="M-161 626q-4 -32 8 -51t38 -19q50 0 65 70h95q-13 -69 -58 -111.5t-109 -42.5q-66 0 -105 44.5t-27 109.5h93z" />
    <glyph glyph-name="uni0307" unicode="&#x307;" horiz-adv-x="0" 
d="M-59 491q-31 0 -49.5 18.5t-18.5 48.5t19 49t49 19t49 -19.5t19 -48.5t-19 -48t-49 -19z" />
    <glyph glyph-name="uni0308" unicode="&#x308;" horiz-adv-x="0" 
d="M-257 490q-31 0 -49.5 19t-18.5 48q0 30 19 49t49 19t49 -19.5t19 -48.5t-19 -48t-49 -19zM-57 490q-31 0 -49.5 19t-18.5 48q0 30 19 49t49 19t49 -19.5t19 -48.5t-19 -48t-49 -19z" />
    <glyph glyph-name="uni030A" unicode="&#x30a;" horiz-adv-x="0" 
d="M-94 457q-56 0 -93 33.5t-37 85.5t37 85.5t93 33.5t93 -33.5t37 -85.5t-37 -85.5t-93 -33.5zM-94 531q20 0 32.5 12.5t12.5 32.5t-12.5 32.5t-32.5 12.5t-32.5 -12.5t-12.5 -32.5t12.5 -32.5t32.5 -12.5z" />
    <glyph glyph-name="uni030B" unicode="&#x30b;" horiz-adv-x="0" 
d="M-289 464l-53 69l171 131l58 -74zM-89 464l-53 69l171 131l58 -74z" />
    <glyph glyph-name="uni030C" unicode="&#x30c;" horiz-adv-x="0" 
d="M-21 660l55 -65l-166 -134l-129 141l75 58l66 -79z" />
    <glyph glyph-name="uni0312" unicode="&#x312;" horiz-adv-x="0" 
d="M-59 687l83 -20l-54 -198l-102 25z" />
    <glyph glyph-name="uni0326" unicode="&#x326;" horiz-adv-x="0" 
d="M-198 -233l-83 24l56 168l99 -27z" />
    <glyph glyph-name="uni0327" unicode="&#x327;" horiz-adv-x="0" 
d="M-127 -220h-93l25 155h100z" />
    <glyph glyph-name="uni0328" unicode="&#x328;" horiz-adv-x="0" 
d="M-143 -227q-65 0 -97 37t-22 91q8 52 64 105l101 -6q-59 -56 -66 -98q-7 -40 52 -40l-12 -89h-20z" />
    <glyph glyph-name="uni0335" unicode="&#x335;" horiz-adv-x="0" 
d="M-37 156h-300l15 87h300z" />
    <glyph glyph-name="uni0336" unicode="&#x336;" horiz-adv-x="0" 
d="M-65 156h-330l15 87h330z" />
    <glyph glyph-name="uni0337" unicode="&#x337;" horiz-adv-x="0" 
d="M-28 309l-285 -172l-39 71l284 172z" />
    <glyph glyph-name="uni0338" unicode="&#x338;" horiz-adv-x="0" 
d="M81 365l-461 -384l-53 61l462 384z" />
    <glyph glyph-name="uni037E" unicode="&#x37e;" horiz-adv-x="249" 
d="M156 274q-30 0 -49 19t-19 48q0 30 19 49t49 19t49 -19.5t19 -48.5t-19 -48t-49 -19zM69 -164l-86 27l93 277l101 -30z" />
    <glyph glyph-name="tonos" unicode="&#x384;" horiz-adv-x="275" 
d="M207 461l-88 29l69 175l94 -30z" />
    <glyph glyph-name="dieresistonos" unicode="&#x385;" horiz-adv-x="325" 
d="M257 580l-88 29l69 175l94 -30zM127 445q-28 0 -45.5 17.5t-17.5 44.5t17.5 45t45.5 18t45.5 -18t17.5 -45t-17.5 -44.5t-45.5 -17.5zM295 445q-28 0 -45.5 17.5t-17.5 44.5t17.5 45t45.5 18t45.5 -18t17.5 -45t-17.5 -44.5t-45.5 -17.5z" />
    <glyph glyph-name="Alphatonos" unicode="&#x386;" horiz-adv-x="632" 
d="M448 0l-30 167h-215l-89 -167h-127l337 600h125l124 -600h-125zM207 600l-75 -200h-94l69 200h100zM257 269h142l-36 199z" />
    <glyph glyph-name="anoteleia" unicode="&#x387;" horiz-adv-x="266" 
d="M160 267q-30 0 -49 18.5t-19 48.5t19 49t49 19t49 -19.5t19 -48.5t-19 -48t-49 -19z" />
    <glyph glyph-name="Epsilontonos" unicode="&#x388;" horiz-adv-x="685" 
d="M89 600h100l-75 -200h-94zM680 499h-332l-25 -141h312l-17 -100h-312l-28 -157h342l-18 -101h-459l106 600h449z" />
    <glyph glyph-name="Etatonos" unicode="&#x389;" horiz-adv-x="803" 
d="M94 600h100l-75 -200h-94zM684 600h117l-106 -600h-117l45 257h-313l-45 -257h-117l106 600h117l-43 -241h313z" />
    <glyph glyph-name="Iotatonos" unicode="&#x38a;" horiz-adv-x="393" 
d="M119 400h-94l69 200h100zM158 0l106 600h117l-106 -600h-117z" />
    <glyph glyph-name="Omicrontonos" unicode="&#x38c;" horiz-adv-x="815" 
d="M447 -14q-152 0 -233.5 97.5t-55.5 247.5q22 124 117.5 204t220.5 80q154 0 236 -97.5t55 -247.5q-21 -124 -117 -204t-223 -80zM124 400h-94l69 200h100zM457 92q79 0 138.5 53t73.5 135q17 100 -34 164.5t-147 64.5q-78 0 -138.5 -53t-73.5 -135q-16 -100 35 -164.5
t146 -64.5z" />
    <glyph glyph-name="Upsilontonos" unicode="&#x38e;" horiz-adv-x="752" 
d="M30 400l69 200h100l-75 -200h-94zM691 600h128l-310 -420h-1l-31 -180h-117l31 180h1l-159 420h124l110 -318z" />
    <glyph glyph-name="Omegatonos" unicode="&#x38f;" horiz-adv-x="829" 
d="M798 307q-25 -127 -137 -210h101l-17 -97h-255l17 97q62 22 112.5 81t62.5 131q15 84 -30.5 142t-139.5 58q-89 0 -143 -47t-70 -129q-29 -147 96 -236l-17 -97h-255l17 97h129q-107 101 -86 246q18 126 106.5 198.5t225.5 72.5q152 0 230 -88.5t53 -218.5zM213 600
l-75 -200h-94l69 200h100z" />
    <glyph glyph-name="iotadieresistonos" unicode="&#x390;" horiz-adv-x="278" 
d="M216 580l-88 29l69 175l94 -30zM86 445q-28 0 -45.5 17.5t-17.5 44.5t17.5 45t45.5 18t45.5 -18t17.5 -45t-17.5 -44.5t-45.5 -17.5zM254 445q-28 0 -45.5 17.5t-17.5 44.5t17.5 45t45.5 18t45.5 -18t17.5 -45t-17.5 -44.5t-45.5 -17.5zM209 -12q-83 0 -123.5 41.5
t-27.5 112.5l45 258h107l-44 -251q-12 -62 60 -62z" />
    <glyph glyph-name="Alpha" unicode="&#x391;" horiz-adv-x="632" 
d="M448 0l-30 167h-215l-89 -167h-127l337 600h125l124 -600h-125zM257 269h142l-36 199z" />
    <glyph glyph-name="Beta" unicode="&#x392;" horiz-adv-x="644" 
d="M619 429q-15 -80 -95 -123q46 -23 65.5 -63t11.5 -84q-12 -67 -71.5 -113t-163.5 -46h-318l106 600h270q107 0 157 -51t38 -120zM251 502l-28 -154h162q50 0 82 23t38 55t-19 54.5t-77 22.5zM489 174q6 34 -22 56t-90 22h-170l-28 -154l180 -1q55 -1 89.5 21t40.5 56z
" />
    <glyph glyph-name="Gamma" unicode="&#x393;" horiz-adv-x="518" 
d="M564 600l-18 -102h-303l-88 -498h-117l106 600h420z" />
    <glyph glyph-name="uni0394" unicode="&#x394;" horiz-adv-x="652" 
d="M459 600l134 -600h-606l347 600h125zM171 101h280l-72 385z" />
    <glyph glyph-name="Epsilon" unicode="&#x395;" horiz-adv-x="580" 
d="M575 499h-332l-25 -141h312l-17 -100h-312l-28 -157h342l-18 -101h-459l106 600h449z" />
    <glyph glyph-name="Zeta" unicode="&#x396;" horiz-adv-x="595" 
d="M604 508l-367 -365q-29 -29 -52 -48q44 4 95 4h252l-18 -99h-494l15 86l374 372q29 29 49 45q-39 -2 -112 -2h-236l18 99h492z" />
    <glyph glyph-name="Eta" unicode="&#x397;" horiz-adv-x="693" 
d="M574 600h117l-106 -600h-117l45 257h-313l-45 -257h-117l106 600h117l-43 -241h313z" />
    <glyph glyph-name="Theta" unicode="&#x398;" horiz-adv-x="720" 
d="M401 615q154 0 236 -97.5t55 -247.5q-21 -124 -117 -204t-223 -80q-152 0 -233.5 97.5t-55.5 247.5q22 124 117.5 204t220.5 80zM393 509q-69 0 -125 -42.5t-78 -110.5h386q-9 70 -58 111.5t-125 41.5zM362 92q73 0 130.5 46.5t77.5 121.5h-392q5 -76 55 -122t129 -46z
" />
    <glyph glyph-name="Iota" unicode="&#x399;" horiz-adv-x="283" 
d="M48 0l106 600h117l-106 -600h-117z" />
    <glyph glyph-name="Kappa" unicode="&#x39a;" horiz-adv-x="635" 
d="M427 307q174 -61 130 -307h-118q20 119 -20.5 188t-131.5 69h-87l-45 -257h-117l106 600h117l-43 -241h72q88 0 157.5 68t89.5 173h117q-19 -110 -78 -185.5t-149 -107.5z" />
    <glyph glyph-name="Lambda" unicode="&#x39b;" horiz-adv-x="632" 
d="M573 0h-125l-85 468l-249 -468h-127l337 600h125z" />
    <glyph glyph-name="Mu" unicode="&#x39c;" horiz-adv-x="826" 
d="M630 600h154l-66 -600h-113l48 451l-218 -371h-89l-84 367l-111 -447h-113l146 600h149l85 -357z" />
    <glyph glyph-name="Nu" unicode="&#x39d;" horiz-adv-x="680" 
d="M567 600h111l-106 -600h-129l-216 442l-78 -442h-111l106 600h129l216 -442z" />
    <glyph glyph-name="Xi" unicode="&#x39e;" horiz-adv-x="630" 
d="M126 498l18 102h484l-18 -102h-484zM82 249l18 102h484l-18 -102h-484zM38 0l18 102h484l-18 -102h-484z" />
    <glyph glyph-name="Omicron" unicode="&#x39f;" horiz-adv-x="720" 
d="M352 -14q-152 0 -233.5 97.5t-55.5 247.5q22 124 117.5 204t220.5 80q154 0 236 -97.5t55 -247.5q-21 -124 -117 -204t-223 -80zM362 92q79 0 138.5 53t73.5 135q17 100 -34 164.5t-147 64.5q-78 0 -138.5 -53t-73.5 -135q-16 -100 35 -164.5t146 -64.5z" />
    <glyph glyph-name="Pi" unicode="&#x3a0;" horiz-adv-x="683" 
d="M681 600l-106 -600h-117l88 498h-303l-88 -498h-117l106 600h537z" />
    <glyph glyph-name="Rho" unicode="&#x3a1;" horiz-adv-x="578" 
d="M283 173h-99l-31 -173h-115l106 600h200q122 0 184 -65t43 -164q-17 -90 -92.5 -144t-195.5 -54zM328 496h-87l-40 -223h91q64 0 109 27t53 74q9 49 -21 85.5t-105 36.5z" />
    <glyph glyph-name="Sigma" unicode="&#x3a3;" horiz-adv-x="595" 
d="M616 600l-18 -97h-351q8 -64 48 -101.5t106 -42.5l-18 -102q-157 -23 -219 -160h363l-17 -97h-493q22 121 86 202t164 110q-78 35 -115.5 111t-19.5 177h484z" />
    <glyph glyph-name="Tau" unicode="&#x3a4;" horiz-adv-x="593" 
d="M639 600l-18 -102h-213l-88 -498h-117l88 498h-213l18 102h543z" />
    <glyph glyph-name="Upsilon" unicode="&#x3a5;" horiz-adv-x="637" 
d="M556 600h128l-310 -420h-1l-31 -180h-117l31 180h1l-159 420h124l110 -318z" />
    <glyph glyph-name="Phi" unicode="&#x3a6;" horiz-adv-x="760" 
d="M506 598q124 -24 188 -114.5t38 -213.5q-24 -115 -114.5 -189.5t-217.5 -83.5l-17 -97h-112l18 103q-124 24 -188 115t-38 213q24 115 114.5 189.5t217.5 83.5l17 96h112zM179 321q-16 -75 20 -133.5t109 -78.5l68 389q-76 -10 -129 -58t-68 -119zM616 280
q16 75 -20 133.5t-109 78.5l-68 -389q75 11 128 58t69 119z" />
    <glyph glyph-name="Chi" unicode="&#x3a7;" horiz-adv-x="654" 
d="M481 302q128 -79 88 -302h-124q26 124 -6.5 190.5t-102.5 66.5t-123 -67t-74 -190h-124q41 246 197 312q-128 76 -91 288h124q-24 -117 9 -179t102 -62q70 0 123 63t72 178h124q-41 -235 -194 -298z" />
    <glyph glyph-name="Psi" unicode="&#x3a8;" horiz-adv-x="760" 
d="M677 600h114l-19 -104q-28 -152 -117.5 -247.5t-228.5 -107.5l-25 -141h-112l26 145q-127 22 -186.5 118t-34.5 241l17 96h114l-19 -104q-18 -98 16 -164.5t110 -86.5l63 355h112l-63 -357q87 17 142.5 88t73.5 173z" />
    <glyph glyph-name="uni03A9" unicode="&#x3a9;" horiz-adv-x="720" 
d="M689 307q-25 -127 -137 -210h101l-17 -97h-255l17 97q62 22 112.5 81t62.5 131q15 84 -30.5 142t-139.5 58q-89 0 -143 -47t-70 -129q-29 -147 96 -236l-17 -97h-255l17 97h129q-107 101 -86 246q18 126 106.5 198.5t225.5 72.5q152 0 230 -88.5t53 -218.5z" />
    <glyph glyph-name="Iotadieresis" unicode="&#x3aa;" horiz-adv-x="283" 
d="M140 686q-30 0 -49 19t-19 48q0 30 19 49t49 19t49 -19.5t19 -48.5t-19 -48t-49 -19zM340 686q-30 0 -49 19t-19 48q0 30 19 49t49 19t49 -19.5t19 -48.5t-19 -48t-49 -19zM48 0l106 600h117l-106 -600h-117z" />
    <glyph glyph-name="Upsilondieresis" unicode="&#x3ab;" horiz-adv-x="637" 
d="M317 686q-31 0 -49.5 19t-18.5 48q0 30 19 49t49 19t49 -19.5t19 -48.5t-19 -48t-49 -19zM517 686q-31 0 -49.5 19t-18.5 48q0 30 19 49t49 19t49 -19.5t19 -48.5t-19 -48t-49 -19zM556 600h128l-310 -420h-1l-31 -180h-117l31 180h1l-159 420h124l110 -318z" />
    <glyph glyph-name="alphatonos" unicode="&#x3ac;" horiz-adv-x="543" 
d="M430 635l-75 -174l-88 29l69 175zM432 167q10 -38 30.5 -58.5t60.5 -20.5l-17 -101q-105 0 -138 81q-69 -80 -159 -80q-93 0 -146.5 67.5t-34.5 168.5q36 188 216 188q121 0 156 -95l29 83h109q-14 -29 -50 -111t-56 -122zM226 86q70 0 117 93q-5 34 -9 52.5t-14.5 40.5
t-29 32t-46.5 10q-45 0 -74 -26.5t-38 -71.5q-11 -61 17.5 -95.5t76.5 -34.5z" />
    <glyph glyph-name="epsilontonos" unicode="&#x3ad;" horiz-adv-x="421" 
d="M376 635l-75 -174l-88 29l69 175zM208 78q74 0 120 45l55 -65q-66 -72 -174 -72q-77 0 -131.5 36.5t-43.5 97.5q13 69 108 92q-36 16 -53 46t-10 64q9 44 55.5 68t107.5 24q51 0 97 -17t72 -51l-58 -56q-37 34 -103 34q-33 0 -50.5 -11t-18.5 -22q-2 -17 26.5 -29.5
t83.5 -12.5l-8 -86q-67 0 -104 -14.5t-41 -35.5q-3 -18 17 -26.5t53 -8.5z" />
    <glyph glyph-name="etatonos" unicode="&#x3ae;" horiz-adv-x="518" 
d="M419 635l-75 -174l-88 29l69 175zM344 412q68 0 102 -48.5t20 -127.5l-80 -456h-106l78 440q16 94 -58 94q-45 0 -84 -32t-50 -78l-36 -204h-107l70 400h107l-10 -55q74 67 154 67z" />
    <glyph glyph-name="iotatonos" unicode="&#x3af;" horiz-adv-x="278" 
d="M207 461l-88 29l69 175l94 -30zM209 -12q-83 0 -123.5 41.5t-27.5 112.5l45 258h107l-44 -251q-12 -62 60 -62z" />
    <glyph glyph-name="upsilondieresistonos" unicode="&#x3b0;" horiz-adv-x="512" 
d="M350 580l-88 29l69 175l94 -30zM220 445q-28 0 -45.5 17.5t-17.5 44.5t17.5 45t45.5 18t45.5 -18t17.5 -45t-17.5 -44.5t-45.5 -17.5zM388 445q-28 0 -45.5 17.5t-17.5 44.5t17.5 45t45.5 18t45.5 -18t17.5 -45t-17.5 -44.5t-45.5 -17.5zM348 198l35 202h106l-36 -204
q-17 -100 -75 -154.5t-136 -54.5q-85 0 -142.5 57t-40.5 158l34 198h106l-35 -200q-10 -56 16.5 -84t65.5 -28t66 28.5t36 81.5z" />
    <glyph glyph-name="alpha" unicode="&#x3b1;" horiz-adv-x="543" 
d="M432 167q10 -38 30.5 -58.5t60.5 -20.5l-17 -101q-105 0 -138 81q-69 -80 -159 -80q-93 0 -146.5 67.5t-34.5 168.5q36 188 216 188q121 0 156 -95l29 83h109q-14 -29 -50 -111t-56 -122zM226 86q70 0 117 93q-5 34 -9 52.5t-14.5 40.5t-29 32t-46.5 10q-45 0 -74 -26.5
t-38 -71.5q-11 -61 17.5 -95.5t76.5 -34.5z" />
    <glyph glyph-name="beta" unicode="&#x3b2;" horiz-adv-x="529" 
d="M514 514q-20 -99 -117 -140q56 -25 81.5 -76.5t11.5 -123.5q-17 -89 -78.5 -137.5t-150.5 -48.5q-88 0 -134 46l-45 -254h-103l129 731q15 93 73 146t148 53q95 0 149 -55t36 -141zM409 515q10 44 -10.5 74.5t-69.5 30.5t-80.5 -32.5t-39.5 -85.5l-56 -320
q-5 -37 18.5 -65.5t80.5 -28.5q54 0 90 28.5t45 77.5q10 58 -22 94.5t-92 36.5h-20l16 92h12q49 0 84 28.5t44 69.5z" />
    <glyph glyph-name="gamma" unicode="&#x3b3;" horiz-adv-x="483" 
d="M378 400h129q-107 -140 -181.5 -296t-99.5 -298l-5 -26h-107l6 34q25 144 7 295t-76 291h121q51 -168 45 -339q57 185 161 339z" />
    <glyph glyph-name="delta" unicode="&#x3b4;" horiz-adv-x="481" 
d="M301 609q-60 0 -68 -44q-7 -38 50 -88l98 -87q95 -85 72 -212q-16 -86 -76 -138t-148 -52q-104 0 -162 69.5t-38 169.5q16 78 72 123t135 45h4l-22 16q-108 80 -93 172q10 55 53.5 86t111.5 31h201l-16 -90zM349 191q10 51 -18.5 86.5t-80.5 35.5q-45 0 -77 -28t-40 -72
q-10 -53 18 -89t78 -36q44 0 77.5 28.5t42.5 74.5z" />
    <glyph glyph-name="epsilon" unicode="&#x3b5;" horiz-adv-x="421" 
d="M208 78q74 0 120 45l55 -65q-66 -72 -174 -72q-77 0 -131.5 36.5t-43.5 97.5q13 69 108 92q-36 16 -53 46t-10 64q9 44 55.5 68t107.5 24q51 0 97 -17t72 -51l-58 -56q-37 34 -103 34q-33 0 -50.5 -11t-18.5 -22q-2 -17 26.5 -29.5t83.5 -12.5l-8 -86q-67 0 -104 -14.5
t-41 -35.5q-3 -18 17 -26.5t53 -8.5z" />
    <glyph glyph-name="zeta" unicode="&#x3b6;" horiz-adv-x="465" 
d="M485 610q-109 -51 -207.5 -169.5t-115.5 -216.5q-11 -65 13 -94.5t87 -29.5h139l-38 -220h-107l21 120h-24q-116 0 -167 57t-31 169q17 97 91 201.5t174 182.5h-177l16 90h342z" />
    <glyph glyph-name="eta" unicode="&#x3b7;" horiz-adv-x="518" 
d="M344 412q68 0 102 -48.5t20 -127.5l-80 -456h-106l78 440q16 94 -58 94q-45 0 -84 -32t-50 -78l-36 -204h-107l70 400h107l-10 -55q74 67 154 67z" />
    <glyph glyph-name="theta" unicode="&#x3b8;" horiz-adv-x="540" 
d="M351 710q109 0 153.5 -99t15.5 -271q-28 -168 -100 -260t-177 -92q-108 0 -153 97.5t-17 270.5q27 169 99.5 261.5t178.5 92.5zM344 612q-54 0 -94.5 -57t-64.5 -159h240q26 216 -81 216zM249 88q53 0 94.5 56.5t65.5 161.5h-240q-14 -106 6.5 -162t73.5 -56z" />
    <glyph glyph-name="iota" unicode="&#x3b9;" horiz-adv-x="278" 
d="M209 -12q-83 0 -123.5 41.5t-27.5 112.5l45 258h107l-44 -251q-12 -62 60 -62z" />
    <glyph glyph-name="kappa" unicode="&#x3ba;" horiz-adv-x="490" 
d="M321 213q114 -50 84 -213h-105q14 83 -11 125.5t-78 42.5h-42l-29 -168h-107l70 400h107l-25 -142h14q56 0 108.5 42.5t65.5 99.5h104q-12 -63 -53.5 -112.5t-102.5 -74.5z" />
    <glyph glyph-name="lambda" unicode="&#x3bb;" horiz-adv-x="472" 
d="M423 0h-113l-56 277l-158 -277h-119l249 417l-22 107q-9 44 -28 60t-56 16h-26l17 100h18q75 0 116.5 -33.5t58.5 -116.5z" />
    <glyph glyph-name="uni03BC" unicode="&#x3bc;" horiz-adv-x="546" 
d="M449 149q-6 -31 14 -46.5t56 -15.5l-17 -99q-96 0 -140 53q-41 -53 -114 -53q-85 0 -110 58l-47 -266h-107l109 620h107l-38 -219q-9 -41 16.5 -68t66.5 -27q33 0 62.5 28t39.5 64l39 222h107z" />
    <glyph glyph-name="nu" unicode="&#x3bd;" horiz-adv-x="462" 
d="M368 400h117l-230 -400h-116l-90 400h115l51 -287z" />
    <glyph glyph-name="xi" unicode="&#x3be;" horiz-adv-x="460" 
d="M412 610q-159 0 -178 -87q-10 -47 28.5 -76.5t117.5 -29.5h60l-16 -90h-49q-88 0 -146.5 -31.5t-70.5 -84.5q-12 -54 26 -82.5t128 -28.5h79l-38 -220h-107l21 120h-14q-105 0 -164.5 57t-40.5 150q26 126 178 167q-117 51 -91 174q16 77 82 114.5t191 37.5h88l-16 -90
h-68z" />
    <glyph glyph-name="omicron" unicode="&#x3bf;" horiz-adv-x="480" 
d="M220 -12q-101 0 -156 66t-36 166q17 88 80.5 140t150.5 52q101 0 156.5 -67t36.5 -166q-16 -86 -80 -138.5t-152 -52.5zM231 88q45 0 77 27.5t41 74.5q10 54 -18 88.5t-80 34.5q-47 0 -79 -29.5t-40 -72.5q-10 -52 18 -87.5t81 -35.5z" />
    <glyph glyph-name="pi" unicode="&#x3c0;" horiz-adv-x="540" 
d="M449 310l-27 -151q-7 -39 10 -55.5t59 -16.5l-17 -99q-90 0 -132 41t-29 113l29 168h-126l-54 -310h-107l54 310h-83l16 90h510l-16 -90h-87z" />
    <glyph glyph-name="rho" unicode="&#x3c1;" horiz-adv-x="507" 
d="M283 412q101 0 158 -63.5t39 -167.5q-16 -85 -77.5 -139t-142.5 -54q-77 0 -123 49l-46 -257h-107l71 405q19 109 78.5 168t149.5 59zM377 189q9 60 -20.5 92t-74.5 32q-50 0 -80.5 -34t-37.5 -78q-7 -46 17.5 -79.5t73.5 -33.5q45 0 79.5 28.5t42.5 72.5z" />
    <glyph glyph-name="uni03C2" unicode="&#x3c2;" horiz-adv-x="418" 
d="M216 -120l21 120h-10q-102 0 -161 68t-40 166q16 81 78.5 129.5t148.5 48.5q116 0 177 -81l-75 -60q-37 42 -103 42q-44 0 -78.5 -24t-44.5 -73q-11 -54 24.5 -85t117.5 -31h90l-38 -220h-107z" />
    <glyph glyph-name="sigma" unicode="&#x3c3;" horiz-adv-x="510" 
d="M533 400l-16 -90h-92q42 -52 27 -131q-16 -86 -80 -138.5t-152 -52.5q-101 0 -156 66t-36 166q17 83 80.5 131.5t150.5 48.5h274zM349 190q10 50 -18 81.5t-80 31.5q-47 0 -79 -26.5t-40 -65.5q-10 -52 18 -87.5t81 -35.5q45 0 77 27.5t41 74.5z" />
    <glyph glyph-name="tau" unicode="&#x3c4;" horiz-adv-x="428" 
d="M279 307l-26 -148q-7 -39 10.5 -55.5t67.5 -16.5l-17 -99q-106 0 -145.5 41t-22.5 133l26 145h-135l16 93h382l-16 -93h-140z" />
    <glyph glyph-name="upsilon" unicode="&#x3c5;" horiz-adv-x="512" 
d="M348 198l35 202h106l-36 -204q-17 -100 -75 -154.5t-136 -54.5q-85 0 -142.5 57t-40.5 158l34 198h106l-35 -200q-10 -56 16.5 -84t65.5 -28t66 28.5t36 81.5z" />
    <glyph glyph-name="phi" unicode="&#x3c6;" horiz-adv-x="570" 
d="M374 406q96 -16 141 -75t30 -149q-15 -88 -77.5 -137.5t-167.5 -55.5l-37 -209h-103l38 214q-97 16 -142.5 75.5t-30.5 148.5t78 138.5t169 54.5l50 289h103zM125 203q-7 -47 18 -76.5t75 -38.5l40 228q-120 -16 -133 -113zM446 199q6 45 -18 74.5t-75 39.5l-40 -227
q119 16 133 113z" />
    <glyph glyph-name="chi" unicode="&#x3c7;" horiz-adv-x="460" 
d="M484 400l-216 -314l104 -306h-112l-67 214l-140 -214h-116l215 306l-104 314h114l63 -215l141 215h118z" />
    <glyph glyph-name="psi" unicode="&#x3c8;" horiz-adv-x="638" 
d="M513 400h102l-25 -144q-24 -134 -85.5 -197t-172.5 -70l-37 -209h-99l37 213q-206 32 -164 271l24 136h102l-25 -143q-14 -80 6.5 -120t73.5 -50l108 613h99l-108 -613q58 10 91 51.5t49 126.5z" />
    <glyph glyph-name="omega" unicode="&#x3c9;" horiz-adv-x="759" 
d="M669 400q56 -88 36 -205q-16 -97 -72 -152t-137 -55q-99 0 -137 74q-55 -74 -143 -74q-89 0 -134 60t-27 163q19 109 102 189h110q-88 -89 -108 -203q-19 -109 60 -109q41 0 69 27.5t35 68.5l24 136h107l-26 -144q-7 -40 13 -64t58 -24q79 0 101 115q22 114 -33 197h102z
" />
    <glyph glyph-name="iotadieresis" unicode="&#x3ca;" horiz-adv-x="278" 
d="M100 495q-28 0 -45.5 17.5t-17.5 44.5t17.5 45t45.5 18t45.5 -18t17.5 -45t-17.5 -44.5t-45.5 -17.5zM268 495q-28 0 -45.5 17.5t-17.5 44.5t17.5 45t45.5 18t45.5 -18t17.5 -45t-17.5 -44.5t-45.5 -17.5zM209 -12q-83 0 -123.5 41.5t-27.5 112.5l45 258h107l-44 -251
q-12 -62 60 -62z" />
    <glyph glyph-name="upsilondieresis" unicode="&#x3cb;" horiz-adv-x="512" 
d="M219 490q-31 0 -49.5 19t-18.5 48q0 30 19 49t49 19t49 -19.5t19 -48.5t-19 -48t-49 -19zM419 490q-31 0 -49.5 19t-18.5 48q0 30 19 49t49 19t49 -19.5t19 -48.5t-19 -48t-49 -19zM348 198l35 202h106l-36 -204q-17 -100 -75 -154.5t-136 -54.5q-85 0 -142.5 57
t-40.5 158l34 198h106l-35 -200q-10 -56 16.5 -84t65.5 -28t66 28.5t36 81.5z" />
    <glyph glyph-name="omicrontonos" unicode="&#x3cc;" horiz-adv-x="480" 
d="M315 461l-88 29l69 175l94 -30zM220 -12q-101 0 -156 66t-36 166q17 88 80.5 140t150.5 52q101 0 156.5 -67t36.5 -166q-16 -86 -80 -138.5t-152 -52.5zM231 88q45 0 77 27.5t41 74.5q10 54 -18 88.5t-80 34.5q-47 0 -79 -29.5t-40 -72.5q-10 -52 18 -87.5t81 -35.5z" />
    <glyph glyph-name="upsilontonos" unicode="&#x3cd;" horiz-adv-x="512" 
d="M341 461l-88 29l69 175l94 -30zM348 198l35 202h106l-36 -204q-17 -100 -75 -154.5t-136 -54.5q-85 0 -142.5 57t-40.5 158l34 198h106l-35 -200q-10 -56 16.5 -84t65.5 -28t66 28.5t36 81.5z" />
    <glyph glyph-name="omegatonos" unicode="&#x3ce;" horiz-adv-x="759" 
d="M540 635l-75 -174l-88 29l69 175zM669 400q56 -88 36 -205q-16 -97 -72 -152t-137 -55q-99 0 -137 74q-55 -74 -143 -74q-89 0 -134 60t-27 163q19 109 102 189h110q-88 -89 -108 -203q-19 -109 60 -109q41 0 69 27.5t35 68.5l24 136h107l-26 -144q-7 -40 13 -64t58 -24
q79 0 101 115q22 114 -33 197h102z" />
    <glyph glyph-name="uni0401" unicode="&#x401;" horiz-adv-x="580" 
d="M285 686q-31 0 -49.5 19t-18.5 48q0 30 19 49t49 19t49 -19.5t19 -48.5t-19 -48t-49 -19zM485 686q-31 0 -49.5 19t-18.5 48q0 30 19 49t49 19t49 -19.5t19 -48.5t-19 -48t-49 -19zM575 499h-332l-25 -141h312l-18 -100h-311l-28 -157h342l-18 -101h-459l106 600h449z
" />
    <glyph glyph-name="uni0402" unicode="&#x402;" horiz-adv-x="737" 
d="M512 394q100 0 146 -59.5t28 -159.5q-31 -175 -233 -175h-49l20 116h36q97 0 112 77q8 43 -13.5 69.5t-81.5 26.5q-73 0 -122.5 -41.5t-62.5 -120.5l-22 -127h-117l88 500h-173l18 100h553l-18 -100h-262l-31 -178q75 72 184 72z" />
    <glyph glyph-name="uni0403" unicode="&#x403;" horiz-adv-x="518" 
d="M505 764l-216 -91l-38 79l214 97zM564 600l-18 -102h-303l-88 -498h-117l106 600h420z" />
    <glyph glyph-name="uni0404" unicode="&#x404;" horiz-adv-x="630" 
d="M360 92q96 0 180 82l69 -66q-109 -122 -263 -122q-146 0 -228.5 100t-54.5 245q23 123 116 203.5t225 80.5q147 0 244 -122l-84 -72q-66 88 -166 88q-72 0 -128.5 -40.5t-80.5 -109.5h277l-18 -102h-272q6 -73 56.5 -119t127.5 -46z" />
    <glyph glyph-name="uni0405" unicode="&#x405;" horiz-adv-x="600" 
d="M286 -12q-83 0 -152 32.5t-98 92.5l85 57q57 -83 176 -79q52 0 92 16.5t48 51.5q5 23 -5.5 40.5t-34.5 28t-42 16t-44 10.5q-49 10 -83.5 22t-68.5 34t-47 59t-2 88q16 75 88 115t164 40q77 0 142.5 -29.5t100.5 -86.5l-86 -61q-24 38 -70 57t-98 19q-49 0 -84.5 -15.5
t-41.5 -43.5q-5 -23 3.5 -40.5t30 -29t39.5 -17t48 -12.5q124 -26 170 -70q50 -49 32 -128q-18 -80 -92.5 -123.5t-169.5 -43.5z" />
    <glyph glyph-name="uni0406" unicode="&#x406;" horiz-adv-x="283" 
d="M48 0l106 600h117l-106 -600h-117z" />
    <glyph glyph-name="uni0407" unicode="&#x407;" horiz-adv-x="283" 
d="M139 686q-31 0 -49.5 19t-18.5 48q0 30 19 49t49 19t49 -19.5t19 -48.5t-19 -48t-49 -19zM339 686q-31 0 -49.5 19t-18.5 48q0 30 19 49t49 19t49 -19.5t19 -48.5t-19 -48t-49 -19zM48 0l106 600h117l-106 -600h-117z" />
    <glyph glyph-name="uni0408" unicode="&#x408;" horiz-adv-x="308" 
d="M-89 -55h42q49 0 85.5 31.5t44.5 80.5l96 543h117l-94 -531q-19 -106 -88 -166.5t-173 -60.5h-48z" />
    <glyph glyph-name="uni0409" unicode="&#x409;" horiz-adv-x="1004" 
d="M747 427q116 0 177.5 -64.5t42.5 -166.5q-18 -91 -92 -143.5t-191 -52.5h-210l60 346q13 79 -12.5 121t-87.5 42q-65 0 -106.5 -46.5t-55.5 -125.5l-30 -169q-17 -93 -69.5 -135.5t-151.5 -42.5h-37l18 102h29q38 0 63.5 22.5t32.5 61.5l30 170q23 129 95 198.5t187 69.5
q97 0 153.5 -49t63.5 -138h91zM855 207q10 50 -21.5 85t-96.5 35h-88l-40 -223h79q66 0 112 27.5t55 75.5z" />
    <glyph glyph-name="uni040A" unicode="&#x40a;" horiz-adv-x="974" 
d="M720 387q111 0 171 -62t41 -159q-34 -166 -278 -166h-206l51 287h-293l-51 -287h-117l106 600h117l-37 -211h293l37 211h117l-38 -213h87zM819 186q9 43 -20 72t-89 29h-94l-33 -183h75q144 0 161 82z" />
    <glyph glyph-name="uni040B" unicode="&#x40b;" horiz-adv-x="737" 
d="M505 394q93 0 138 -53t29 -145l-34 -196h-117l27 154q13 76 -3 105.5t-75 29.5q-151 0 -178 -162l-22 -127h-117l88 500h-173l18 100h553l-18 -100h-262l-31 -174q71 68 177 68z" />
    <glyph glyph-name="uni040C" unicode="&#x40c;" horiz-adv-x="635" 
d="M544 764l-216 -91l-38 79l214 97zM427 307q174 -61 130 -307h-118q20 119 -20.5 188t-131.5 69h-87l-45 -257h-117l106 600h117l-43 -241h72q88 0 157.5 68t89.5 173h117q-19 -110 -78 -185.5t-149 -107.5z" />
    <glyph glyph-name="uni040E" unicode="&#x40e;" horiz-adv-x="642" 
d="M404 652q-66 0 -105 44.5t-27 109.5h93q-4 -32 8 -51t38 -19q50 0 65 70h95q-13 -69 -58 -111.5t-109 -42.5zM564 600h132l-348 -573q-51 -84 -109 -124.5t-147 -40.5h-48l19 104h39q89 0 150 94l-162 540h130l110 -405z" />
    <glyph glyph-name="uni040F" unicode="&#x40f;" horiz-adv-x="678" 
d="M559 600h117l-106 -600h-208l-25 -138h-117l25 138h-207l106 600h117l-88 -498h298z" />
    <glyph glyph-name="uni0410" unicode="&#x410;" horiz-adv-x="632" 
d="M448 0l-30 167h-215l-89 -167h-127l337 600h125l124 -600h-125zM257 269h142l-36 199z" />
    <glyph glyph-name="uni0411" unicode="&#x411;" horiz-adv-x="644" 
d="M613 498h-363l-25 -142h198q93 0 144 -56t36 -138q-13 -73 -76 -117.5t-169 -44.5h-310l106 600h477zM390 260h-182l-29 -162h192q51 0 83.5 21.5t37.5 57.5t-22.5 59.5t-79.5 23.5z" />
    <glyph glyph-name="uni0412" unicode="&#x412;" horiz-adv-x="644" 
d="M619 429q-15 -80 -95 -123q46 -23 65.5 -63t11.5 -84q-12 -67 -71.5 -113t-163.5 -46h-318l106 600h270q107 0 157 -51t38 -120zM251 502l-28 -154h162q50 0 82 23t38 55t-19 54.5t-77 22.5zM489 174q6 34 -22 56t-90 22h-170l-28 -154l180 -1q55 -1 89.5 21t40.5 56z
" />
    <glyph glyph-name="uni0413" unicode="&#x413;" horiz-adv-x="518" 
d="M564 600l-18 -102h-303l-88 -498h-117l106 600h420z" />
    <glyph glyph-name="uni0414" unicode="&#x414;" horiz-adv-x="710" 
d="M587 112h74l-9 -50h1l-36 -200h-117l27 148h-411l-27 -148h-117l27 148h-1l18 102h80l47 264q19 108 93 166t195 58h242zM258 367l-45 -255h257l66 385h-117q-65 0 -107.5 -35t-53.5 -95z" />
    <glyph glyph-name="uni0415" unicode="&#x415;" horiz-adv-x="580" 
d="M575 499h-332l-25 -141h312l-18 -100h-311l-28 -157h342l-18 -101h-459l106 600h449z" />
    <glyph glyph-name="uni0416" unicode="&#x416;" horiz-adv-x="887" 
d="M685 307q168 -63 124 -307h-115q21 117 -23 187t-132 70h-27l-45 -257h-117l45 257h-19q-85 0 -159.5 -73.5t-94.5 -183.5h-114q19 116 79.5 196t152.5 112q-160 60 -118 292h115q-20 -111 23.5 -176t133.5 -65h19l43 241h117l-43 -241h12q86 0 158.5 68.5t91.5 172.5
h114q-19 -111 -76.5 -186.5t-144.5 -106.5z" />
    <glyph glyph-name="uni0417" unicode="&#x417;" horiz-adv-x="551" 
d="M540 441q-14 -86 -106 -130q93 -44 75 -146q-14 -79 -85 -128t-175 -49q-89 0 -151.5 37t-89.5 99l85 55q56 -90 158 -90q58 0 101.5 25t50.5 67q7 38 -30.5 60t-142.5 22l8 91q98 0 142.5 29t47.5 65q2 31 -26 47.5t-74 16.5q-114 0 -188 -95l-72 67q96 128 263 128
q102 0 161.5 -47t47.5 -124z" />
    <glyph glyph-name="uni0418" unicode="&#x418;" horiz-adv-x="680" 
d="M545 600h133l-106 -600h-113l77 440l-365 -440h-133l106 600h113l-78 -441z" />
    <glyph glyph-name="uni0419" unicode="&#x419;" horiz-adv-x="680" 
d="M418 652q-66 0 -105 44.5t-27 109.5h93q-4 -32 8 -51t38 -19q50 0 65 70h95q-13 -69 -58 -111.5t-109 -42.5zM545 600h133l-106 -600h-113l77 440l-365 -440h-133l106 600h113l-78 -441z" />
    <glyph glyph-name="uni041A" unicode="&#x41a;" horiz-adv-x="635" 
d="M427 307q174 -61 130 -307h-118q20 119 -20.5 188t-131.5 69h-87l-45 -257h-117l106 600h117l-43 -241h72q88 0 157.5 68t89.5 173h117q-19 -110 -78 -185.5t-149 -107.5z" />
    <glyph glyph-name="uni041B" unicode="&#x41b;" horiz-adv-x="696" 
d="M253 198q-20 -108 -76.5 -158t-160.5 -50h-37l18 102h29q42 0 72 30.5t39 83.5l30 170q19 108 93 166t195 58h239l-106 -600h-117l85 497h-113q-65 0 -107.5 -35t-53.5 -95z" />
    <glyph glyph-name="uni041C" unicode="&#x41c;" horiz-adv-x="826" 
d="M630 600h154l-66 -600h-113l48 451l-218 -371h-89l-84 367l-111 -447h-113l146 600h149l85 -357z" />
    <glyph glyph-name="uni041D" unicode="&#x41d;" horiz-adv-x="693" 
d="M574 600h117l-106 -600h-117l45 257h-313l-45 -257h-117l106 600h117l-43 -241h313z" />
    <glyph glyph-name="uni041E" unicode="&#x41e;" horiz-adv-x="720" 
d="M352 -14q-152 0 -233.5 97.5t-55.5 247.5q22 124 117.5 204t220.5 80q154 0 236 -97.5t55 -247.5q-21 -124 -117 -204t-223 -80zM362 92q79 0 138.5 53t73.5 135q17 100 -34 164.5t-147 64.5q-78 0 -138.5 -53t-73.5 -135q-16 -100 35 -164.5t146 -64.5z" />
    <glyph glyph-name="uni041F" unicode="&#x41f;" horiz-adv-x="683" 
d="M681 600l-106 -600h-117l88 498h-303l-88 -498h-117l106 600h537z" />
    <glyph glyph-name="uni0420" unicode="&#x420;" horiz-adv-x="578" 
d="M283 173h-99l-31 -173h-115l106 600h200q122 0 184 -65t43 -164q-17 -90 -92.5 -144t-195.5 -54zM328 496h-87l-40 -223h91q64 0 109 27t53 74q9 49 -21 85.5t-105 36.5z" />
    <glyph glyph-name="uni0421" unicode="&#x421;" horiz-adv-x="630" 
d="M346 -14q-148 0 -229.5 101t-53.5 244q24 123 116.5 203.5t224.5 80.5q147 0 244 -122l-84 -72q-66 88 -166 88q-81 0 -141 -51.5t-76 -136.5q-19 -98 32.5 -163.5t146.5 -65.5q96 0 180 82l69 -66q-109 -122 -263 -122z" />
    <glyph glyph-name="uni0422" unicode="&#x422;" horiz-adv-x="593" 
d="M639 600l-18 -102h-213l-88 -498h-117l88 498h-213l18 102h543z" />
    <glyph glyph-name="uni0423" unicode="&#x423;" horiz-adv-x="642" 
d="M564 600h132l-348 -573q-51 -84 -109 -124.5t-147 -40.5h-48l19 104h39q89 0 150 94l-162 540h130l110 -405z" />
    <glyph glyph-name="uni0424" unicode="&#x424;" horiz-adv-x="760" 
d="M506 598q124 -24 188 -114.5t38 -213.5q-24 -115 -114.5 -189.5t-217.5 -83.5l-17 -97h-112l18 103q-124 24 -188 115t-38 213q24 115 114.5 189.5t217.5 83.5l17 96h112zM179 321q-16 -75 20 -133.5t109 -78.5l68 389q-76 -10 -129 -58t-68 -119zM616 280
q16 75 -20 133.5t-109 78.5l-68 -389q75 11 128 58t69 119z" />
    <glyph glyph-name="uni0425" unicode="&#x425;" horiz-adv-x="654" 
d="M481 302q128 -79 88 -302h-124q26 124 -6.5 190.5t-102.5 66.5t-123 -67t-74 -190h-124q41 246 197 312q-128 76 -91 288h124q-24 -117 9 -179t102 -62q70 0 123 63t72 178h124q-41 -235 -194 -298z" />
    <glyph glyph-name="uni0426" unicode="&#x426;" horiz-adv-x="721" 
d="M588 102h87l-7 -40l-3 -17l-8 -45l-25 -138h-117l25 138h-502l106 600h117l-88 -498h298l88 498h117z" />
    <glyph glyph-name="uni0427" unicode="&#x427;" horiz-adv-x="641" 
d="M522 600h117l-106 -600h-116l44 252q-69 -66 -172 -66q-107 0 -162 68.5t-33 189.5l28 156h117l-29 -164q-25 -144 101 -144q75 0 124.5 47.5t60.5 113.5z" />
    <glyph glyph-name="uni0428" unicode="&#x428;" horiz-adv-x="1017" 
d="M898 600h117l-106 -600h-871l106 600h117l-88 -498h259l88 498h117l-88 -498h261z" />
    <glyph glyph-name="uni0429" unicode="&#x429;" horiz-adv-x="1060" 
d="M927 102h87l-7 -40l-3 -17l-8 -45l-25 -138h-117l25 138h-841l106 600h117l-88 -498h259l88 498h117l-88 -498h261l88 498h117z" />
    <glyph glyph-name="uni042A" unicode="&#x42a;" horiz-adv-x="668" 
d="M409 427q119 0 180.5 -65.5t41.5 -165.5q-18 -92 -94 -144t-201 -52h-208l88 498h-158l18 102h273l-18 -102l-13 -71h91zM518 206q10 49 -18 85t-101 36h-99l-39 -223h79q71 0 120 26.5t58 75.5z" />
    <glyph glyph-name="uni042B" unicode="&#x42b;" horiz-adv-x="841" 
d="M319 427q119 0 180.5 -65.5t41.5 -165.5q-18 -92 -94 -144t-201 -52h-208l106 600h115l-31 -173h91zM605 0l106 600h117l-106 -600h-117zM250 104q71 0 120 26.5t58 75.5q10 49 -18 85t-101 36h-99l-39 -223h79z" />
    <glyph glyph-name="uni042C" unicode="&#x42c;" horiz-adv-x="578" 
d="M319 427q119 0 180.5 -65.5t41.5 -165.5q-18 -92 -94 -144t-201 -52h-208l106 600h115l-31 -173h91zM250 104q71 0 120 26.5t58 75.5q10 49 -18 85t-101 36h-99l-39 -223h79z" />
    <glyph glyph-name="uni042D" unicode="&#x42d;" horiz-adv-x="630" 
d="M319 614q146 0 228.5 -100t54.5 -245q-23 -123 -116 -203.5t-225 -80.5q-147 0 -244 122l84 72q66 -88 166 -88q77 0 135 45.5t79 120.5h-279l18 102h267q-11 67 -60.5 108t-121.5 41q-96 0 -180 -82l-69 66q109 122 263 122z" />
    <glyph glyph-name="uni042E" unicode="&#x42e;" horiz-adv-x="980" 
d="M676 615q142 0 222.5 -98t53.5 -247q-24 -129 -115.5 -206.5t-217.5 -77.5q-124 0 -202 75.5t-80 195.5h-137l-45 -257h-117l106 600h117l-43 -241h131q30 118 120 187t207 69zM836 280q18 99 -32.5 164t-139.5 65q-80 0 -135 -52.5t-70 -135.5q-17 -96 32 -162.5
t140 -66.5q79 0 134.5 53t70.5 135z" />
    <glyph glyph-name="uni042F" unicode="&#x42f;" horiz-adv-x="644" 
d="M357 600h285l-106 -600h-114l41 233h-56q-106 0 -181 -64t-94 -169h-117q36 205 194 270q-52 22 -75 72.5t-13 106.5q11 62 72.5 106.5t163.5 44.5zM479 326l31 176h-149q-112 0 -129 -80q-8 -36 14 -66t73 -30h160z" />
    <glyph glyph-name="uni0430" unicode="&#x430;" horiz-adv-x="514" 
d="M387 400h104l-70 -400h-104l7 42q-54 -52 -126 -52q-86 0 -136.5 68t-33.5 165q14 79 73 133.5t134 54.5q43 0 81 -19.5t61 -55.5zM229 87q47 0 82 27.5t43 71.5q10 51 -21.5 89t-85.5 38q-47 0 -77.5 -31t-37.5 -71q-8 -47 16.5 -85.5t80.5 -38.5z" />
    <glyph glyph-name="uni0431" unicode="&#x431;" horiz-adv-x="490" 
d="M493 550q-64 0 -105.5 -3.5t-81 -14.5t-65 -32t-46 -54.5t-34.5 -83.5q61 43 126 43q91 0 141.5 -63.5t33.5 -160.5q-15 -85 -76 -139t-156 -54q-51 0 -88.5 16.5t-57 45.5t-30.5 61t-11.5 70t1.5 64.5t7 53.5q19 111 55 181t95 107t128 50t173 13zM269 308
q-48 0 -81 -29.5t-42 -73.5q-10 -50 17.5 -83.5t75.5 -33.5q46 0 79.5 31.5t41.5 79.5q7 49 -18 79t-73 30z" />
    <glyph glyph-name="uni0432" unicode="&#x432;" horiz-adv-x="471" 
d="M423 288q-10 -56 -70 -83q75 -36 63 -107q-7 -42 -46.5 -70t-106.5 -28h-240l70 400h202q69 0 102.5 -33.5t25.5 -78.5zM178 321l-13 -78h113q20 0 33 11t16 27q2 16 -7.5 28t-30.5 12h-111zM315 117q3 18 -9 32.5t-34 14.5h-121l-15 -85h121q50 0 58 38z" />
    <glyph glyph-name="uni0433" unicode="&#x433;" horiz-adv-x="370" 
d="M380 400l-16 -93h-180l-54 -307h-107l70 400h287z" />
    <glyph glyph-name="uni0434" unicode="&#x434;" horiz-adv-x="537" 
d="M493 99l-7 -37h1l-29 -160h-107l20 108h-271l-20 -108h-107l20 108h-1l16 89h61l18 102q17 92 79.5 145.5t155.5 53.5h169l-57 -301h59zM173 99h159l37 208h-56q-46 0 -80.5 -32.5t-42.5 -82.5z" />
    <glyph glyph-name="uni0435" unicode="&#x435;" horiz-adv-x="468" 
d="M260 412q96 0 145 -58t33 -150q-2 -18 -11 -43l-300 2q4 -42 36.5 -66t79.5 -24q62 0 110 38l45 -61q-75 -62 -164 -62q-98 0 -159 63.5t-42 168.5q15 85 78 138.5t149 53.5zM254 328q-34 0 -64 -20t-47 -60h204q-4 37 -30.5 58.5t-62.5 21.5z" />
    <glyph glyph-name="uni0436" unicode="&#x436;" 
d="M515 213q119 -47 89 -213h-105q14 83 -10 125.5t-75 42.5h-25l-29 -168h-103l29 168h-17q-51 0 -94 -44.5t-57 -123.5h-105q31 175 164 216q-54 25 -79.5 74t-13.5 110h105q-12 -58 20 -100t88 -42h5l25 142h103l-25 -142q54 2 103 44t62 98h104q-12 -64 -55 -113.5
t-104 -73.5z" />
    <glyph glyph-name="uni0437" unicode="&#x437;" horiz-adv-x="401" 
d="M374 285q-11 -56 -94 -79q86 -34 71 -111q-10 -52 -62 -79.5t-120 -27.5q-47 0 -95 20t-80 61l60 60q36 -49 118 -49q36 0 59.5 10t27.5 26q5 23 -28.5 36t-102.5 13l6 82q131 0 141 43q4 17 -14 24.5t-49 7.5q-76 0 -123 -42l-50 62q66 70 174 70q81 0 125.5 -38.5
t35.5 -88.5z" />
    <glyph glyph-name="uni0438" unicode="&#x438;" horiz-adv-x="508" 
d="M367 400h118l-70 -400h-102l46 261l-218 -261h-118l70 400h102l-46 -261z" />
    <glyph glyph-name="uni0439" unicode="&#x439;" horiz-adv-x="508" 
d="M304 472q-66 0 -105 44.5t-27 109.5h93q-4 -32 8 -51t38 -19q50 0 65 70h95q-13 -69 -58 -111.5t-109 -42.5zM367 400h118l-70 -400h-102l46 261l-218 -261h-118l70 400h102l-46 -261z" />
    <glyph glyph-name="uni043A" unicode="&#x43a;" horiz-adv-x="490" 
d="M321 213q114 -50 84 -213h-105q14 83 -11 125.5t-78 42.5h-42l-29 -168h-107l70 400h107l-25 -142h14q56 0 108.5 42.5t65.5 99.5h104q-12 -63 -53.5 -112.5t-102.5 -74.5z" />
    <glyph glyph-name="uni043B" unicode="&#x43b;" horiz-adv-x="519" 
d="M194 148q-15 -83 -62.5 -120.5t-135.5 -37.5h-27l16 92h19q33 0 55.5 20t28.5 54l11 63q15 84 73.5 132.5t142.5 48.5h181l-70 -400h-107l53 307h-66q-36 0 -65 -28t-36 -69z" />
    <glyph glyph-name="uni043C" unicode="&#x43c;" horiz-adv-x="630" 
d="M452 400h128l-43 -400h-101l32 267l-136 -235h-93l-53 240l-63 -272h-100l97 400h126l61 -242z" />
    <glyph glyph-name="uni043D" unicode="&#x43d;" horiz-adv-x="508" 
d="M378 400h107l-70 -400h-107l27 156h-178l-27 -156h-107l70 400h107l-27 -154h178z" />
    <glyph glyph-name="uni043E" unicode="&#x43e;" horiz-adv-x="480" 
d="M220 -12q-101 0 -156 66t-36 166q17 88 80.5 140t150.5 52q101 0 156.5 -67t36.5 -166q-16 -86 -80 -138.5t-152 -52.5zM231 88q45 0 77 27.5t41 74.5q10 54 -18 88.5t-80 34.5q-47 0 -79 -29.5t-40 -72.5q-10 -52 18 -87.5t81 -35.5z" />
    <glyph glyph-name="uni043F" unicode="&#x43f;" horiz-adv-x="508" 
d="M485 400l-70 -400h-107l54 310h-178l-54 -310h-107l70 400h392z" />
    <glyph glyph-name="uni0440" unicode="&#x440;" horiz-adv-x="514" 
d="M318 410q64 0 107 -35t57 -87.5t4 -110.5q-14 -78 -68.5 -133t-136.5 -55q-94 0 -143 73l-48 -282h-106l109 620h104l-7 -42q57 52 128 52zM382 189q8 49 -17.5 86.5t-79.5 37.5q-47 0 -82 -27t-43 -72q-10 -53 22 -90t86 -37q46 0 76 29.5t38 72.5z" />
    <glyph glyph-name="uni0441" unicode="&#x441;" horiz-adv-x="421" 
d="M220 -12q-101 0 -156 66t-36 166q17 88 80.5 140t150.5 52q110 0 165 -78l-83 -61q-32 40 -90 40q-46 0 -78 -29.5t-40 -72.5q-10 -52 18 -87.5t80 -35.5q50 0 96 39l64 -69q-68 -70 -171 -70z" />
    <glyph glyph-name="uni0442" unicode="&#x442;" horiz-adv-x="428" 
d="M440 400l-16 -93h-138l-54 -307h-107l54 307h-137l16 93h382z" />
    <glyph glyph-name="uni0443" unicode="&#x443;" horiz-adv-x="516" 
d="M386 400h107l-70 -401q-19 -108 -83 -169.5t-159 -61.5q-53 0 -99.5 19t-70.5 56l79 66q28 -39 93 -39q51 0 86 33t46 94l10 56q-70 -65 -151 -65q-68 0 -102.5 48.5t-19.5 127.5l41 236h106l-39 -220q-15 -94 58 -94q44 0 81.5 30.5t50.5 76.5z" />
    <glyph glyph-name="uni0444" unicode="&#x444;" horiz-adv-x="570" 
d="M374 406q98 -17 142 -75.5t26 -151.5q-15 -83 -79 -132.5t-163 -57.5l-37 -209h-103l38 213q-99 15 -143.5 74t-26.5 153q16 85 80 135t164 56l41 239h103zM132 211q-8 -46 14.5 -76.5t72.5 -41.5l38 218q-51 -6 -84.5 -32t-40.5 -68zM439 190q18 93 -87 117l-38 -217
q52 8 85 33.5t40 66.5z" />
    <glyph glyph-name="uni0445" unicode="&#x445;" horiz-adv-x="480" 
d="M350 196q72 -59 45 -196h-105q14 76 -3.5 114.5t-54.5 38.5q-39 0 -69.5 -40.5t-43.5 -112.5h-105q27 158 117 207q-72 59 -46 193h105q-13 -71 4 -109.5t55 -38.5q40 0 70 39.5t41 108.5h106q-27 -155 -116 -204z" />
    <glyph glyph-name="uni0446" unicode="&#x446;" horiz-adv-x="531" 
d="M425 99h71l-40 -227h-107l23 128h-349l70 400h106l-53 -301h172l53 301h107z" />
    <glyph glyph-name="uni0447" unicode="&#x447;" horiz-adv-x="486" 
d="M356 400h107l-70 -400h-106l27 154q-47 -36 -115 -36q-74 0 -118 40t-32 106l24 136h106l-21 -120q-6 -32 12 -48.5t53 -16.5q43 0 75 26t42 68z" />
    <glyph glyph-name="uni0448" unicode="&#x448;" horiz-adv-x="780" 
d="M650 400h107l-70 -400h-664l70 400h106l-53 -301h172l53 301h107l-53 -301h172z" />
    <glyph glyph-name="uni0449" unicode="&#x449;" horiz-adv-x="811" 
d="M704 99h72l-41 -227h-107l23 128h-628l70 400h106l-53 -301h172l53 301h107l-53 -301h172l53 301h107z" />
    <glyph glyph-name="uni044A" unicode="&#x44a;" horiz-adv-x="506" 
d="M325 284q79 0 117.5 -47t27.5 -108q-9 -53 -53 -91t-114 -38h-200l54 307h-125l16 93h222l-20 -116h75zM371 139q4 22 -10.5 38.5t-43.5 16.5h-83l-18 -104h85q30 0 48.5 14.5t21.5 34.5z" />
    <glyph glyph-name="uni044B" unicode="&#x44b;" horiz-adv-x="644" 
d="M23 0l70 400h97l-20 -116h75q79 0 117.5 -47t27.5 -108q-9 -53 -53 -91t-114 -38h-200zM434 0l70 400h107l-70 -400h-107zM136 90h85q30 0 48.5 14.5t21.5 34.5q4 22 -10.5 38.5t-43.5 16.5h-83z" />
    <glyph glyph-name="uni044C" unicode="&#x44c;" horiz-adv-x="426" 
d="M23 0l70 400h97l-20 -116h75q79 0 117.5 -47t27.5 -108q-9 -53 -53 -91t-114 -38h-200zM136 90h85q30 0 48.5 14.5t21.5 34.5q4 22 -10.5 38.5t-43.5 16.5h-83z" />
    <glyph glyph-name="uni044D" unicode="&#x44d;" horiz-adv-x="421" 
d="M201 412q101 0 156 -66t36 -166q-17 -88 -80.5 -140t-150.5 -52q-110 0 -165 78l83 61q32 -40 90 -40q38 0 67 20t44 52h-155l14 83h149q-9 32 -35.5 51t-63.5 19q-50 0 -96 -39l-64 69q68 70 171 70z" />
    <glyph glyph-name="uni044E" unicode="&#x44e;" horiz-adv-x="670" 
d="M459 412q96 0 148.5 -67.5t34.5 -165.5q-16 -86 -77 -138.5t-145 -52.5q-79 0 -129.5 46t-56.5 122h-77l-27 -156h-107l70 400h107l-27 -154h71q22 77 80 121.5t135 44.5zM539 190q10 54 -15.5 88.5t-72.5 34.5q-43 0 -72 -29t-37 -73q-9 -52 16 -87.5t73 -35.5
q41 0 70.5 27.5t37.5 74.5z" />
    <glyph glyph-name="uni044F" unicode="&#x44f;" horiz-adv-x="461" 
d="M228 400h210l-70 -400h-99l23 132h-63q-40 0 -73 -36.5t-43 -95.5h-111q23 128 132 171q-41 13 -61.5 44.5t-13.5 76.5q9 47 50.5 77.5t118.5 30.5zM307 216l18 102h-93q-30 0 -47.5 -12.5t-20.5 -31.5q-4 -22 13 -40t49 -18h81z" />
    <glyph glyph-name="uni0451" unicode="&#x451;" horiz-adv-x="468" 
d="M187 490q-31 0 -49.5 19t-18.5 48q0 30 19 49t49 19t49 -19.5t19 -48.5t-19 -48t-49 -19zM387 490q-31 0 -49.5 19t-18.5 48q0 30 19 49t49 19t49 -19.5t19 -48.5t-19 -48t-49 -19zM260 412q96 0 145 -58t33 -150q-2 -18 -11 -43l-300 2q4 -42 36.5 -66t79.5 -24
q62 0 110 38l45 -61q-75 -62 -164 -62q-98 0 -159 63.5t-42 168.5q15 85 78 138.5t149 53.5zM254 328q-34 0 -64 -20t-47 -60h204q-4 37 -30.5 58.5t-62.5 21.5z" />
    <glyph glyph-name="uni0452" unicode="&#x452;" horiz-adv-x="514" 
d="M330 412q84 0 119.5 -69t16.5 -176q-15 -86 -71 -190t-141 -205l-84 55q165 204 188 341q5 37 4.5 69t-16.5 54.5t-48 22.5q-40 0 -75 -30.5t-47 -76.5l-36 -207h-107l84 479h-68l16 87h67l15 84h107l-15 -84h126l-16 -87h-125l-20 -116q55 49 126 49z" />
    <glyph glyph-name="uni0453" unicode="&#x453;" horiz-adv-x="370" 
d="M393 590l-176 -126l-53 69l171 131zM380 400l-16 -93h-180l-54 -307h-107l70 400h287z" />
    <glyph glyph-name="uni0454" unicode="&#x454;" horiz-adv-x="421" 
d="M231 88q50 0 96 39l64 -69q-68 -70 -171 -70q-101 0 -156 66t-36 166q17 88 80.5 140t150.5 52q110 0 165 -78l-83 -61q-32 40 -90 40q-38 0 -66 -19.5t-42 -51.5h152l-14 -83h-147q8 -32 34 -51.5t63 -19.5z" />
    <glyph glyph-name="uni0455" unicode="&#x455;" horiz-adv-x="398" 
d="M174 -13q-113 0 -167 79l76 51q25 -23 46.5 -33.5t54.5 -10.5q56 0 65 36q5 20 -13.5 31.5t-50.5 20.5q-140 39 -120 146q9 51 54.5 79t107.5 28q106 0 152 -77l-76 -51q-27 41 -76 41q-56 0 -64 -35q-4 -19 13.5 -30.5t50.5 -20.5q136 -36 117 -141q-10 -53 -57 -83
t-113 -30z" />
    <glyph glyph-name="uni0456" unicode="&#x456;" horiz-adv-x="243" 
d="M185 491q-31 0 -49.5 18.5t-18.5 48.5t19 49t49 19t49 -19.5t19 -48.5t-19 -48t-49 -19zM33 0l70 400h107l-70 -400h-107z" />
    <glyph glyph-name="uni0457" unicode="&#x457;" horiz-adv-x="243" 
d="M100 495q-28 0 -45.5 17.5t-17.5 44.5t17.5 45t45.5 18t45.5 -18t17.5 -45t-17.5 -44.5t-45.5 -17.5zM268 495q-28 0 -45.5 17.5t-17.5 44.5t17.5 45t45.5 18t45.5 -18t17.5 -45t-17.5 -44.5t-45.5 -17.5zM33 0l70 400h107l-70 -400h-107z" />
    <glyph glyph-name="uni0458" unicode="&#x458;" horiz-adv-x="243" 
d="M185 491q-31 0 -49.5 18.5t-18.5 48.5t19 49t49 19t49 -19.5t19 -48.5t-19 -48t-49 -19zM-6 -220l109 620h107l-109 -620h-107z" />
    <glyph glyph-name="uni0459" unicode="&#x459;" horiz-adv-x="695" 
d="M514 284q77 0 116.5 -48t27.5 -116q-11 -59 -58.5 -89.5t-117.5 -30.5h-173l53 307h-56q-36 0 -65 -28t-36 -69l-11 -62q-15 -83 -62.5 -120.5t-135.5 -37.5h-27l16 92h19q33 0 55.5 20t28.5 54l11 63q15 84 73.5 132.5t142.5 48.5h171l-20 -116h48zM560 136
q5 24 -10 42.5t-44 18.5h-56l-19 -110h58q61 0 71 49z" />
    <glyph glyph-name="uni045A" unicode="&#x45a;" horiz-adv-x="690" 
d="M505 264q78 0 117.5 -46t29.5 -104q-9 -49 -51 -81.5t-114 -32.5h-179l31 176h-178l-31 -176h-107l70 400h107l-23 -134h178l23 134h107l-24 -136h44zM552 128q4 20 -10 34.5t-44 14.5h-52l-16 -90h64q25 0 40.5 12t17.5 29z" />
    <glyph glyph-name="uni045B" unicode="&#x45b;" horiz-adv-x="528" 
d="M354 412q68 0 102.5 -48.5t19.5 -127.5l-41 -236h-106l39 220q15 94 -58 94q-45 0 -83.5 -31.5t-50.5 -77.5l-36 -205h-107l84 479h-68l16 87h67l15 84h107l-15 -84h126l-16 -87h-125l-23 -134q72 67 153 67z" />
    <glyph glyph-name="uni045C" unicode="&#x45c;" horiz-adv-x="490" 
d="M443 590l-176 -126l-53 69l171 131zM321 213q114 -50 84 -213h-105q14 83 -11 125.5t-78 42.5h-42l-29 -168h-107l70 400h107l-25 -142h14q56 0 108.5 42.5t65.5 99.5h104q-12 -63 -53.5 -112.5t-102.5 -74.5z" />
    <glyph glyph-name="uni045E" unicode="&#x45e;" horiz-adv-x="516" 
d="M309 472q-66 0 -105 44.5t-27 109.5h93q-4 -32 8 -51t38 -19q50 0 65 70h95q-13 -69 -58 -111.5t-109 -42.5zM386 400h107l-70 -401q-19 -108 -83 -169.5t-159 -61.5q-53 0 -99.5 19t-70.5 56l79 66q28 -39 93 -39q51 0 86 33t46 94l10 56q-70 -65 -151 -65
q-68 0 -102.5 48.5t-19.5 127.5l41 236h106l-39 -220q-15 -94 58 -94q44 0 81.5 30.5t50.5 76.5z" />
    <glyph glyph-name="uni045F" unicode="&#x45f;" horiz-adv-x="501" 
d="M371 400h107l-70 -400h-139l-23 -128h-107l23 128h-139l70 400h106l-53 -301h172z" />
    <glyph glyph-name="uni0462" unicode="&#x462;" horiz-adv-x="638" 
d="M379 427q119 0 180.5 -65.5t41.5 -165.5q-18 -92 -94 -144t-201 -52h-208l88 500h-108l18 100h107l18 100h115l-18 -100h161l-18 -100h-160l-13 -73h91zM488 206q10 49 -18 85t-101 36h-99l-39 -223h79q71 0 120 26.5t58 75.5z" />
    <glyph glyph-name="uni0463" unicode="&#x463;" horiz-adv-x="446" 
d="M265 284q79 0 117.5 -47t27.5 -108q-9 -53 -53 -91t-114 -38h-200l62 353h-78l15 87h78l37 210h97l-37 -210h135l-15 -87h-135l-12 -69h75zM311 139q4 22 -10.5 38.5t-43.5 16.5h-83l-18 -104h85q30 0 48.5 14.5t21.5 34.5z" />
    <glyph glyph-name="uni0472" unicode="&#x472;" horiz-adv-x="720" 
d="M401 615q154 0 236 -97.5t55 -247.5q-21 -124 -117 -204t-223 -80q-152 0 -233.5 97.5t-55.5 247.5q22 124 117.5 204t220.5 80zM393 509q-69 0 -125 -42.5t-78 -110.5h386q-9 70 -58 111.5t-125 41.5zM362 92q73 0 130.5 46.5t77.5 121.5h-392q5 -76 55 -122t129 -46z
" />
    <glyph glyph-name="uni0473" unicode="&#x473;" horiz-adv-x="480" 
d="M259 412q101 0 156.5 -67t36.5 -166q-16 -86 -80 -138.5t-152 -52.5q-101 0 -156 66t-36 166q17 88 80.5 140t150.5 52zM252 322q-41 0 -71.5 -20.5t-46.5 -54.5h223q-9 35 -37 55t-68 20zM230 79q40 0 71.5 21t46.5 57h-224q8 -35 36 -56.5t70 -21.5z" />
    <glyph glyph-name="uni0474" unicode="&#x474;" horiz-adv-x="632" 
d="M474 478q35 73 77.5 103.5t123.5 30.5l-11 -108q-60 0 -94 -61l-226 -443h-125l-124 600h125l81 -479z" />
    <glyph glyph-name="uni0475" unicode="&#x475;" horiz-adv-x="462" 
d="M290 292q33 68 74.5 93t116.5 25l-9 -99q-36 0 -53 -11t-33 -44l-136 -256h-116l-90 400h115l50 -280z" />
    <glyph glyph-name="uni0490" unicode="&#x490;" horiz-adv-x="518" 
d="M470 700h112l-35 -202h-304l-88 -498h-117l106 600h309z" />
    <glyph glyph-name="uni0491" unicode="&#x491;" horiz-adv-x="370" 
d="M295 520h107l-37 -213h-181l-54 -307h-107l70 400h181z" />
    <glyph glyph-name="uni0492" unicode="&#x492;" horiz-adv-x="518" 
d="M546 498h-303l-26 -147h109l-15 -87h-109l-47 -264h-117l47 264h-74l15 87h74l44 249h420z" />
    <glyph glyph-name="uni0493" unicode="&#x493;" horiz-adv-x="389" 
d="M384 307h-180l-15 -85h96l-15 -85h-96l-24 -137h-107l24 137h-57l15 85h57l31 178h287z" />
    <glyph glyph-name="uni0496" unicode="&#x496;" horiz-adv-x="924" 
d="M818 98h74l-6 -36l-7 -37l-4 -25l-25 -138h-117l25 138h-64q21 117 -23 187t-132 70h-27l-45 -257h-117l45 257h-19q-85 0 -159.5 -73.5t-94.5 -183.5h-114q19 116 79.5 196t152.5 112q-160 60 -118 292h115q-20 -111 23.5 -176t133.5 -65h19l43 241h117l-43 -241h12
q86 0 158.5 68.5t91.5 172.5h114q-19 -111 -76.5 -186.5t-144.5 -106.5q130 -49 133 -209z" />
    <glyph glyph-name="uni0497" unicode="&#x497;" horiz-adv-x="717" 
d="M607 99h84l-40 -227h-107l23 128h-68q14 83 -10 125.5t-75 42.5h-25l-29 -168h-103l29 168h-17q-51 0 -94 -44.5t-57 -123.5h-105q31 175 164 216q-54 25 -79.5 74t-13.5 110h105q-12 -58 20 -100t88 -42h5l25 142h103l-25 -142q54 2 103 44t62 98h104
q-12 -64 -55 -113.5t-104 -73.5q77 -29 92 -114z" />
    <glyph glyph-name="uni049A" unicode="&#x49a;" horiz-adv-x="671" 
d="M565 98h74l-6 -36l-7 -37l-4 -25l-25 -138h-117l25 138h-66q20 119 -20.5 188t-131.5 69h-87l-45 -257h-117l106 600h117l-43 -241h72q88 0 157.5 68t89.5 173h117q-19 -110 -78 -185.5t-149 -107.5q135 -47 138 -209z" />
    <glyph glyph-name="uni049B" unicode="&#x49b;" horiz-adv-x="526" 
d="M408 99h92l-40 -227h-107l23 128h-76q14 83 -11 125.5t-78 42.5h-42l-29 -168h-107l70 400h107l-25 -142h14q56 0 108.5 42.5t65.5 99.5h104q-12 -63 -53.5 -112.5t-102.5 -74.5q74 -31 87 -114z" />
    <glyph glyph-name="uni04A2" unicode="&#x4a2;" horiz-adv-x="736" 
d="M602 98h87l-6 -36l-7 -37l-4 -25l-25 -138h-117l25 138h-87l45 257h-313l-45 -257h-117l106 600h117l-43 -241h313l43 241h117z" />
    <glyph glyph-name="uni04A3" unicode="&#x4a3;" horiz-adv-x="538" 
d="M432 99h71l-40 -227h-107l23 128h-71l27 156h-178l-27 -156h-107l70 400h107l-27 -154h178l27 154h107z" />
    <glyph glyph-name="uni04AE" unicode="&#x4ae;" horiz-adv-x="677" 
d="M565 600h117l-30 -166q-20 -115 -88.5 -184.5t-172.5 -81.5l-29 -168h-117l30 174q-94 22 -139.5 95t-26.5 177l28 154h117l-29 -166q-13 -75 23 -120t107 -45q72 0 120 47.5t62 126.5z" />
    <glyph glyph-name="uni04AF" unicode="&#x4af;" horiz-adv-x="512" 
d="M383 400h106l-36 -204q-15 -87 -64.5 -139.5t-115.5 -65.5l-37 -211h-107l38 218q-60 20 -91 73.5t-17 132.5l34 196h106l-37 -210q-8 -49 14 -75.5t60 -26.5q39 0 71 29.5t41 80.5z" />
    <glyph glyph-name="uni04B0" unicode="&#x4b0;" horiz-adv-x="580" 
d="M627 600q-30 -163 -95 -248.5t-173 -99.5l-6 -36h127l-16 -92h-127l-22 -124h-117l22 124h-126l16 92h126l7 40q-96 22 -135.5 109t-13.5 235h118q-48 -257 106 -257q75 0 121 63.5t70 193.5h118z" />
    <glyph glyph-name="uni04B1" unicode="&#x4b1;" horiz-adv-x="512" 
d="M453 196q-15 -87 -64.5 -139.5t-115.5 -65.5l-6 -34h116l-16 -90h-116l-15 -87h-107l15 87h-117l16 90h117l7 40q-59 20 -91 72t-19 125l36 206h106l-37 -210q-9 -51 14.5 -76.5t59.5 -25.5q39 0 71 29.5t41 80.5l35 202h106z" />
    <glyph glyph-name="uni04B2" unicode="&#x4b2;" horiz-adv-x="671" 
d="M578 98h61l-6 -36l-7 -37l-4 -25l-25 -138h-117l25 138h-60q26 124 -6.5 190.5t-102.5 66.5t-123 -67t-74 -190h-124q41 246 197 312q-128 76 -91 288h124q-24 -117 9 -179t102 -62q70 0 123 63t72 178h124q-41 -235 -194 -298q96 -59 97 -204z" />
    <glyph glyph-name="uni04B3" unicode="&#x4b3;" horiz-adv-x="516" 
d="M400 99h90l-40 -227h-107l23 128h-76q14 76 -3.5 114.5t-54.5 38.5q-39 0 -69.5 -40.5t-43.5 -112.5h-105q27 158 117 207q-72 59 -46 193h105q-13 -71 4 -109.5t55 -38.5q40 0 70 39.5t41 108.5h106q-27 -155 -116 -204q41 -33 50 -97z" />
    <glyph glyph-name="uni04B6" unicode="&#x4b6;" horiz-adv-x="686" 
d="M550 98h89l-6 -36l-7 -37l-4 -25l-25 -138h-117l25 138h-88l44 252q-69 -66 -172 -66q-107 0 -162 68.5t-33 189.5l28 156h117l-29 -164q-25 -144 101 -144q75 0 124.5 47.5t60.5 113.5l26 147h117z" />
    <glyph glyph-name="uni04B7" unicode="&#x4b7;" horiz-adv-x="520" 
d="M410 99h75l-40 -227h-107l23 128h-74l27 154q-47 -36 -115 -36q-74 0 -118 40t-32 106l24 136h106l-21 -120q-6 -32 12 -48.5t53 -16.5q43 0 75 26t42 68l16 91h107z" />
    <glyph glyph-name="uni04BA" unicode="&#x4ba;" horiz-adv-x="675" 
d="M431 514q108 0 159 -63.5t32 -174.5l-49 -276h-117l42 234q16 92 -6 133.5t-96 41.5q-83 0 -135 -47.5t-66 -134.5l-40 -227h-117l106 600h117l-29 -164q80 78 199 78z" />
    <glyph glyph-name="uni04BB" unicode="&#x4bb;" horiz-adv-x="528" 
d="M354 412q68 0 102.5 -48.5t19.5 -127.5l-41 -236h-106l39 220q15 94 -58 94q-45 0 -83.5 -31.5t-50.5 -77.5l-36 -205h-107l114 650h107l-53 -305q72 67 153 67z" />
    <glyph glyph-name="uni04C0" unicode="&#x4c0;" horiz-adv-x="283" 
d="M48 0l106 600h117l-106 -600h-117z" />
    <glyph glyph-name="uni04CF" unicode="&#x4cf;" horiz-adv-x="243" 
d="M33 0l114 650h107l-114 -650h-107z" />
    <glyph glyph-name="uni04D8" unicode="&#x4d8;" horiz-adv-x="710" 
d="M393 615q151 0 233 -97t56 -248q-24 -126 -119.5 -205t-234.5 -79q-149 0 -220.5 94.5t-42.5 262.5h504q-7 74 -57 119.5t-131 45.5q-111 0 -193 -57l-60 83q107 81 265 81zM338 90q80 0 137.5 41.5t80.5 111.5h-380q-2 -74 41.5 -113.5t120.5 -39.5z" />
    <glyph glyph-name="uni04D9" unicode="&#x4d9;" horiz-adv-x="468" 
d="M234 412q98 0 159 -63.5t42 -168.5q-15 -85 -78 -138.5t-149 -53.5q-96 0 -145 58t-33 150q2 17 11 43l300 -2q-4 42 -36.5 66t-79.5 24q-62 0 -110 -38l-45 61q75 62 164 62zM214 72q34 0 64 20t47 60h-204q4 -37 30.5 -58.5t62.5 -21.5z" />
    <glyph glyph-name="uni04E2" unicode="&#x4e2;" horiz-adv-x="680" 
d="M595 795l-15 -87h-300l15 87h300zM545 600h133l-106 -600h-113l77 440l-365 -440h-133l106 600h113l-78 -441z" />
    <glyph glyph-name="uni04E3" unicode="&#x4e3;" horiz-adv-x="516" 
d="M479 595l-15 -87h-300l15 87h300zM367 400h118l-70 -400h-102l46 261l-218 -261h-118l70 400h102l-46 -261z" />
    <glyph glyph-name="uni04E8" unicode="&#x4e8;" horiz-adv-x="720" 
d="M401 615q154 0 236 -97.5t55 -247.5q-21 -124 -117 -204t-223 -80q-152 0 -233.5 97.5t-55.5 247.5q22 124 117.5 204t220.5 80zM393 509q-69 0 -125 -42.5t-78 -110.5h386q-9 70 -58 111.5t-125 41.5zM362 92q73 0 130.5 46.5t77.5 121.5h-392q5 -76 55 -122t129 -46z
" />
    <glyph glyph-name="uni04E9" unicode="&#x4e9;" horiz-adv-x="480" 
d="M259 412q101 0 156.5 -67t36.5 -166q-16 -86 -80 -138.5t-152 -52.5q-101 0 -156 66t-36 166q17 88 80.5 140t150.5 52zM252 322q-41 0 -71.5 -20.5t-46.5 -54.5h223q-9 35 -37 55t-68 20zM230 79q40 0 71.5 21t46.5 57h-224q8 -35 36 -56.5t70 -21.5z" />
    <glyph glyph-name="uni04EE" unicode="&#x4ee;" horiz-adv-x="642" 
d="M581 795l-15 -87h-300l15 87h300zM564 600h132l-348 -573q-51 -84 -109 -124.5t-147 -40.5h-48l19 104h39q89 0 150 94l-162 540h130l110 -405z" />
    <glyph glyph-name="uni04EF" unicode="&#x4ef;" horiz-adv-x="516" 
d="M483 595l-15 -87h-300l15 87h300zM386 400h107l-70 -401q-19 -108 -83 -169.5t-159 -61.5q-53 0 -99.5 19t-70.5 56l79 66q28 -39 93 -39q51 0 86 33t46 94l10 56q-70 -65 -151 -65q-68 0 -102.5 48.5t-19.5 127.5l41 236h106l-39 -220q-15 -94 58 -94q44 0 81.5 30.5
t50.5 76.5z" />
    <glyph glyph-name="uni05B0" unicode="&#x5b0;" horiz-adv-x="0" 
d="M76 -116q-22 0 -36.5 14.5t-14.5 36.5t14.5 36t36.5 14t36.5 -14t14.5 -36t-14.5 -36.5t-36.5 -14.5zM56 -232q-22 0 -36.5 14.5t-14.5 36.5t14.5 36t36.5 14t36.5 -14t14.5 -36t-14.5 -36.5t-36.5 -14.5z" />
    <glyph glyph-name="uni05B1" unicode="&#x5b1;" horiz-adv-x="0" 
d="M83 -116q-22 0 -36.5 14.5t-14.5 36.5t14.5 36t36.5 14t36.5 -14t14.5 -36t-14.5 -36.5t-36.5 -14.5zM233 -116q-22 0 -36.5 14.5t-14.5 36.5t14.5 36t36.5 14t36.5 -14t14.5 -36t-14.5 -36.5t-36.5 -14.5zM381 -116q-22 0 -36.5 14.5t-14.5 36.5t14.5 36t36.5 14
t36.5 -14t14.5 -36t-14.5 -36.5t-36.5 -14.5zM150 -232q-22 0 -36.5 14.5t-14.5 36.5t14.5 36t36.5 14t36.5 -14t14.5 -36t-14.5 -36.5t-36.5 -14.5zM361 -232q-22 0 -36.5 14.5t-14.5 36.5t14.5 36t36.5 14t36.5 -14t14.5 -36t-14.5 -36.5t-36.5 -14.5z" />
    <glyph glyph-name="uni05B2" unicode="&#x5b2;" horiz-adv-x="0" 
d="M365 -116q-22 0 -36.5 14.5t-14.5 36.5t14.5 36t36.5 14t36.5 -14t14.5 -36t-14.5 -36.5t-36.5 -14.5zM278 -121h-300l14 77h300zM345 -232q-22 0 -36.5 14.5t-14.5 36.5t14.5 36t36.5 14t36.5 -14t14.5 -36t-14.5 -36.5t-36.5 -14.5z" />
    <glyph glyph-name="uni05B3" unicode="&#x5b3;" horiz-adv-x="0" 
d="M365 -15q22 0 36.5 -14t14.5 -36t-14.5 -36.5t-36.5 -14.5t-36.5 14.5t-14.5 36.5t14.5 36t36.5 14zM-22 -121l14 77h300l-14 -77h-108l-19 -110h-83l19 110h-109zM345 -131q22 0 36.5 -14t14.5 -36t-14.5 -36.5t-36.5 -14.5t-36.5 14.5t-14.5 36.5t14.5 36t36.5 14z" />
    <glyph glyph-name="uni05B4" unicode="&#x5b4;" horiz-adv-x="0" 
d="M73 -123q-22 0 -36.5 14.5t-14.5 36.5t14.5 36t36.5 14t36.5 -14t14.5 -36t-14.5 -36.5t-36.5 -14.5z" />
    <glyph glyph-name="uni05B5" unicode="&#x5b5;" horiz-adv-x="0" 
d="M78 -123q-22 0 -36.5 14.5t-14.5 36.5t14.5 36t36.5 14t36.5 -14t14.5 -36t-14.5 -36.5t-36.5 -14.5zM228 -123q-22 0 -36.5 14.5t-14.5 36.5t14.5 36t36.5 14t36.5 -14t14.5 -36t-14.5 -36.5t-36.5 -14.5z" />
    <glyph glyph-name="uni05B6" unicode="&#x5b6;" horiz-adv-x="0" 
d="M68 -116q-22 0 -36.5 14.5t-14.5 36.5t14.5 36t36.5 14t36.5 -14t14.5 -36t-14.5 -36.5t-36.5 -14.5zM218 -116q-22 0 -36.5 14.5t-14.5 36.5t14.5 36t36.5 14t36.5 -14t14.5 -36t-14.5 -36.5t-36.5 -14.5zM135 -232q-22 0 -36.5 14.5t-14.5 36.5t14.5 36t36.5 14
t36.5 -14t14.5 -36t-14.5 -36.5t-36.5 -14.5z" />
    <glyph glyph-name="uni05B7" unicode="&#x5b7;" horiz-adv-x="0" 
d="M273 -121h-300l14 77h300z" />
    <glyph glyph-name="uni05B8" unicode="&#x5b8;" horiz-adv-x="0" 
d="M287 -44l-14 -77h-108l-19 -110h-83l19 110h-109l14 77h300z" />
    <glyph glyph-name="uni05B9" unicode="&#x5b9;" horiz-adv-x="0" 
d="M174 650q-22 0 -36.5 14.5t-14.5 36.5t14.5 36t36.5 14t36.5 -14t14.5 -36t-14.5 -36.5t-36.5 -14.5z" />
    <glyph glyph-name="uni05BA" unicode="&#x5ba;" horiz-adv-x="0" 
d="M211 650q-22 0 -36.5 14.5t-14.5 36.5t14.5 36t36.5 14t36.5 -14t14.5 -36t-14.5 -36.5t-36.5 -14.5z" />
    <glyph glyph-name="uni05BB" unicode="&#x5bb;" horiz-adv-x="0" 
d="M69 -113q-22 0 -36.5 14.5t-14.5 36.5t14.5 36t36.5 14t36.5 -14t14.5 -36t-14.5 -36.5t-36.5 -14.5zM190 -172q-22 0 -36.5 14.5t-14.5 36.5t14.5 36t36.5 14t36.5 -14t14.5 -36t-14.5 -36.5t-36.5 -14.5zM307 -231q-22 0 -36.5 14.5t-14.5 36.5t14.5 36t36.5 14
t36.5 -14t14.5 -36t-14.5 -36.5t-36.5 -14.5z" />
    <glyph glyph-name="uni05BC" unicode="&#x5bc;" horiz-adv-x="0" 
d="M138 248q-22 0 -36.5 14.5t-14.5 36.5t14.5 36t36.5 14t36.5 -14t14.5 -36t-14.5 -36.5t-36.5 -14.5z" />
    <glyph glyph-name="uni05BE" unicode="&#x5be;" horiz-adv-x="420" 
d="M408 503h-300l17 97h300z" />
    <glyph glyph-name="uni05BF" unicode="&#x5bf;" horiz-adv-x="0" 
d="M419 676h-300l15 87h300z" />
    <glyph glyph-name="uni05C0" unicode="&#x5c0;" horiz-adv-x="307" 
d="M65 0l144 820h107l-144 -820h-107z" />
    <glyph glyph-name="uni05C1" unicode="&#x5c1;" horiz-adv-x="0" 
d="M176 650q-22 0 -36.5 14.5t-14.5 36.5t14.5 36t36.5 14t36.5 -14t14.5 -36t-14.5 -36.5t-36.5 -14.5z" />
    <glyph glyph-name="uni05C2" unicode="&#x5c2;" horiz-adv-x="0" 
d="M211 650q-22 0 -36.5 14.5t-14.5 36.5t14.5 36t36.5 14t36.5 -14t14.5 -36t-14.5 -36.5t-36.5 -14.5z" />
    <glyph glyph-name="uni05C3" unicode="&#x5c3;" horiz-adv-x="236" 
d="M178 475q-30 0 -49 18.5t-19 48.5t19 49t49 19t49 -19.5t19 -48.5t-19 -48t-49 -19zM92 -13q-30 0 -49 18.5t-19 48.5t19 49t49 19t49 -19.5t19 -48.5t-19 -48t-49 -19z" />
    <glyph glyph-name="uni05C7" unicode="&#x5c7;" horiz-adv-x="0" 
d="M282 -44l-14 -77h-108l-19 -110h-83l19 110h-109l14 77h300z" />
    <glyph glyph-name="uni05D0" unicode="&#x5d0;" horiz-adv-x="643" 
d="M631 466q-18 -103 -61 -163t-111 -99l110 -204h-135l-164 305q-47 -32 -71 -68.5t-37 -110.5l-22 -126h-116l23 134q18 103 61 163t112 100l-110 203h135l164 -305q46 31 70 68t37 111l23 126h116z" />
    <glyph glyph-name="uni05D1" unicode="&#x5d1;" horiz-adv-x="625" 
d="M471 110h113l-19 -110h-538l19 110h308l38 214q15 85 -10 125.5t-101 40.5h-168l20 110h188q109 0 161.5 -63t33.5 -171z" />
    <glyph glyph-name="uni05D2" unicode="&#x5d2;" horiz-adv-x="505" 
d="M238 600q104 0 150 -60t44 -174l-3 -366h-116l2 169q-70 -10 -113 -46.5t-54 -96.5l-4 -26h-116l6 34q41 230 282 248l1 42q1 90 -23 128t-96 38h-50l20 110h70z" />
    <glyph glyph-name="uni05D3" unicode="&#x5d3;" horiz-adv-x="593" 
d="M639 600l-20 -112h-113l-86 -488h-117l86 488h-313l20 112h543z" />
    <glyph glyph-name="uni05D4" unicode="&#x5d4;" horiz-adv-x="674" 
d="M456 0l57 324q15 85 -10 125.5t-101 40.5h-278l20 110h298q109 0 161.5 -63t33.5 -171l-64 -366h-117zM38 0l58 330h117l-58 -330h-117z" />
    <glyph glyph-name="uni05D5" unicode="&#x5d5;" horiz-adv-x="283" 
d="M48 0l106 600h117l-106 -600h-117z" />
    <glyph glyph-name="uni05D6" unicode="&#x5d6;" horiz-adv-x="399" 
d="M101 600h343l-20 -112q-58 0 -99.5 -46t-55.5 -126l-55 -316h-117l57 324q18 104 84 164h-157z" />
    <glyph glyph-name="uni05D7" unicode="&#x5d7;" horiz-adv-x="694" 
d="M38 0l106 600h318q109 0 161.5 -63t33.5 -171l-64 -366h-117l57 324q15 85 -10 125.5t-101 40.5h-181l-86 -490h-117z" />
    <glyph glyph-name="uni05D8" unicode="&#x5d8;" 
d="M332 -14q-131 0 -203.5 85.5t-47.5 214.5l56 314h117l-58 -326q-16 -76 26 -125.5t118 -49.5q77 0 131.5 52t67.5 132l14 81q10 57 -15.5 91.5t-92.5 34.5h-28l20 110h38q109 0 161.5 -64.5t32.5 -179.5l-15 -82q-21 -129 -109 -208.5t-213 -79.5z" />
    <glyph glyph-name="uni05D9" unicode="&#x5d9;" horiz-adv-x="283" 
d="M106 330l48 270h117l-48 -270h-117z" />
    <glyph glyph-name="uni05DA" unicode="&#x5da;" horiz-adv-x="524" 
d="M267 -220l99 564q14 78 -12.5 112t-101.5 34h-158l20 110h178q112 0 163.5 -62t31.5 -172l-103 -586h-117z" />
    <glyph glyph-name="uni05DB" unicode="&#x5db;" horiz-adv-x="545" 
d="M20 0l19 112h141q86 1 147 49.5t75 127.5q15 85 -31.5 142.5t-135.5 57.5h-129l20 111h123q141 0 218 -93t51 -234q-23 -123 -117 -198t-230 -75h-151z" />
    <glyph glyph-name="uni05DC" unicode="&#x5dc;" horiz-adv-x="551" 
d="M222 600h354l-21 -115q-48 -272 -309 -502l-76 85q228 200 267 421h-351l58 331h117z" />
    <glyph glyph-name="uni05DD" unicode="&#x5dd;" horiz-adv-x="704" 
d="M472 600q109 0 161.5 -63t33.5 -171l-64 -366h-565l106 600h328zM174 110h331l38 214q15 85 -10 125.5t-101 40.5h-191z" />
    <glyph glyph-name="uni05DE" unicode="&#x5de;" horiz-adv-x="704" 
d="M464 614q112 0 167.5 -66.5t35.5 -181.5l-64 -366h-276l19 110h159l38 214q16 93 -9.5 139t-101.5 46q-91 0 -150 -60t-75 -152l-52 -297h-117l106 600h117l-13 -78q84 92 216 92z" />
    <glyph glyph-name="uni05DF" unicode="&#x5df;" horiz-adv-x="283" 
d="M9 -220l145 820h117l-145 -820h-117z" />
    <glyph glyph-name="uni05E0" unicode="&#x5e0;" horiz-adv-x="410" 
d="M178 600q108 0 160.5 -67.5t32.5 -178.5l-62 -354h-297l19 110h180l41 232q26 145 -94 145h-30l20 113h30z" />
    <glyph glyph-name="uni05E1" unicode="&#x5e1;" horiz-adv-x="680" 
d="M330 -14q-145 0 -217 88t-47 227l53 299h579l-55 -307q-51 -307 -313 -307zM332 96q161 0 197 206l34 193h-347l-36 -202q-17 -86 25 -141.5t127 -55.5z" />
    <glyph glyph-name="uni05E2" unicode="&#x5e2;" horiz-adv-x="624" 
d="M522 600h117l-31 -174q-40 -226 -159 -326t-343 -100h-88l19 110h80q59 0 109 9l-106 481h125l91 -440q120 73 156 274z" />
    <glyph glyph-name="uni05E3" unicode="&#x5e3;" horiz-adv-x="631" 
d="M320 600q316 0 262 -303l-91 -517h-117l93 525q33 184 -141 184h-112l-26 -150h103l-18 -99h-210l64 360h193z" />
    <glyph glyph-name="uni05E4" unicode="&#x5e4;" horiz-adv-x="654" 
d="M328 600q162 0 243 -92.5t56 -234.5q-23 -130 -112 -201.5t-236 -71.5h-231l19 112h221q87 0 147 46t75 131q16 89 -31 144.5t-146 55.5h-92l-25 -140h123l-17 -99h-230l42 239l20 111h174z" />
    <glyph glyph-name="uni05E5" unicode="&#x5e5;" horiz-adv-x="600" 
d="M505 600h117l-15 -84q-27 -151 -89.5 -245.5t-176.5 -145.5l-61 -345h-117l67 376l-155 444h130l118 -375q128 78 168 299z" />
    <glyph glyph-name="uni05E6" unicode="&#x5e6;" horiz-adv-x="595" 
d="M583 466q-15 -84 -53.5 -133.5t-100.5 -81.5l86 -141h1l-19 -110h-495l19 110h355l-294 490h135l158 -261q42 24 63 52t30 83l23 126h116z" />
    <glyph glyph-name="uni05E7" unicode="&#x5e7;" horiz-adv-x="630" 
d="M325 -17l-76 85q228 199 267 423l-387 -2l20 111h506l-21 -115q-26 -140 -101.5 -263t-207.5 -239zM9 -220l97 550h117l-97 -550h-117z" />
    <glyph glyph-name="uni05E8" unicode="&#x5e8;" horiz-adv-x="584" 
d="M366 0l57 324q15 85 -10 125.5t-101 40.5h-208l20 110h228q109 0 161.5 -63t33.5 -171l-64 -366h-117z" />
    <glyph glyph-name="uni05E9" unicode="&#x5e9;" horiz-adv-x="787" 
d="M675 600h117l-53 -296q-26 -142 -126 -230t-241 -88q-147 0 -229 94t-57 236l51 284h117l-53 -296q-14 -81 17 -135q67 34 101 78t51 137l39 216h116l-40 -224q-19 -108 -63.5 -170.5t-121.5 -103.5q33 -13 79 -13q94 0 160.5 63t84.5 161z" />
    <glyph glyph-name="uni05EA" unicode="&#x5ea;" horiz-adv-x="718" 
d="M-15 0l19 108h22q99 0 117 97l70 395h253q119 0 176 -67.5t36 -186.5l-61 -346h-117l59 334q14 82 -12 119t-101 37h-136l-50 -283q-19 -107 -76 -157t-161 -50h-38z" />
    <glyph glyph-name="uni05F0" unicode="&#x5f0;" horiz-adv-x="566" 
d="M48 0l106 600h117l-106 -600h-117zM331 0l106 600h117l-106 -600h-117z" />
    <glyph glyph-name="uni05F1" unicode="&#x5f1;" horiz-adv-x="526" 
d="M106 330l48 270h117l-48 -270h-117zM291 0l106 600h117l-106 -600h-117z" />
    <glyph glyph-name="uni05F2" unicode="&#x5f2;" horiz-adv-x="526" 
d="M106 330l48 270h117l-48 -270h-117zM349 330l48 270h117l-48 -270h-117z" />
    <glyph glyph-name="uni05F3" unicode="&#x5f3;" horiz-adv-x="227" 
d="M150 313l-86 27l93 277l101 -30z" />
    <glyph glyph-name="uni05F4" unicode="&#x5f4;" horiz-adv-x="407" 
d="M150 313l-86 27l93 277l101 -30zM330 313l-86 27l93 277l101 -30z" />
    <glyph glyph-name="uni1E30" unicode="&#x1e30;" horiz-adv-x="635" 
d="M544 764l-216 -91l-38 79l214 97zM427 307q174 -61 130 -307h-118q20 119 -20.5 188t-131.5 69h-87l-45 -257h-117l106 600h117l-43 -241h72q88 0 157.5 68t89.5 173h117q-19 -110 -78 -185.5t-149 -107.5z" />
    <glyph glyph-name="uni1E31" unicode="&#x1e31;" horiz-adv-x="480" 
d="M344 772l-176 -126l-53 69l171 131zM310 214q116 -50 85 -214h-105q14 83 -11 125.5t-78 42.5h-42l-29 -168h-107l105 600h107l-60 -342h14q56 0 108.5 45t65.5 105h104q-12 -66 -54 -117.5t-103 -76.5z" />
    <glyph glyph-name="uni1E40" unicode="&#x1e40;" horiz-adv-x="826" 
d="M509 701q-31 0 -49.5 18.5t-18.5 48.5t19 49t49 19t49 -19.5t19 -48.5t-19 -48t-49 -19zM630 600h154l-66 -600h-113l48 451l-218 -371h-89l-84 367l-111 -447h-113l146 600h149l85 -357z" />
    <glyph glyph-name="uni1E41" unicode="&#x1e41;" horiz-adv-x="808" 
d="M467 491q-31 0 -49.5 18.5t-18.5 48.5t19 49t49 19t49 -19.5t19 -48.5t-19 -48t-49 -19zM622 412q74 0 111 -49t23 -127l-41 -236h-107l39 220q13 94 -57 94q-46 0 -84.5 -32t-49.5 -84l-34 -198h-107l39 220q15 94 -56 94q-43 0 -82 -31.5t-50 -78.5l-36 -204h-107
l70 400h107l-7 -41q59 53 136 53q99 0 128 -81q68 81 165 81z" />
    <glyph glyph-name="Wgrave" unicode="&#x1e80;" horiz-adv-x="926" 
d="M668 747l-48 -80l-190 91l52 86zM856 604h118l-279 -604h-125l-70 445l-221 -445h-126l-59 604h113l47 -440l221 436h107l73 -444z" />
    <glyph glyph-name="wgrave" unicode="&#x1e81;" horiz-adv-x="752" 
d="M537 528l-72 -67l-134 126l75 72zM656 400h119l-215 -400h-116l-52 286l-152 -286h-116l-75 400h115l38 -281l146 281h124l48 -281z" />
    <glyph glyph-name="Wacute" unicode="&#x1e82;" horiz-adv-x="926" 
d="M677 764l-216 -91l-38 79l214 97zM856 604h118l-279 -604h-125l-70 445l-221 -445h-126l-59 604h113l47 -440l221 436h107l73 -444z" />
    <glyph glyph-name="wacute" unicode="&#x1e83;" horiz-adv-x="752" 
d="M569 590l-176 -126l-53 69l171 131zM656 400h119l-215 -400h-116l-52 286l-152 -286h-116l-75 400h115l38 -281l146 281h124l48 -281z" />
    <glyph glyph-name="Wdieresis" unicode="&#x1e84;" horiz-adv-x="926" 
d="M449 686q-31 0 -49.5 19t-18.5 48q0 30 19 49t49 19t49 -19.5t19 -48.5t-19 -48t-49 -19zM649 686q-31 0 -49.5 19t-18.5 48q0 30 19 49t49 19t49 -19.5t19 -48.5t-19 -48t-49 -19zM856 604h118l-279 -604h-125l-70 445l-221 -445h-126l-59 604h113l47 -440l221 436h107
l73 -444z" />
    <glyph glyph-name="wdieresis" unicode="&#x1e85;" horiz-adv-x="752" 
d="M334 490q-30 0 -49 19t-19 48q0 30 19 49t49 19t49 -19.5t19 -48.5t-19 -48t-49 -19zM534 490q-30 0 -49 19t-19 48q0 30 19 49t49 19t49 -19.5t19 -48.5t-19 -48t-49 -19zM656 400h119l-215 -400h-116l-52 286l-152 -286h-116l-75 400h115l38 -281l146 281h124l48 -281z
" />
    <glyph glyph-name="uni1E9E" unicode="&#x1e9e;" horiz-adv-x="720" 
d="M581 346q110 -78 90 -192q-12 -73 -72 -119.5t-153 -46.5q-100 0 -164 58l68 73q41 -31 99 -31q46 0 76 21t36 55t-18.5 62t-93.5 79l117 193q-59 14 -119 14q-201 0 -229 -155l-63 -357h-117l61 345q23 133 113.5 202t240.5 69q154 0 256 -52z" />
    <glyph glyph-name="uni1EBC" unicode="&#x1ebc;" horiz-adv-x="580" 
d="M358 735q-13 0 -21.5 -12t-8.5 -31h-80q0 61 29.5 94.5t73.5 33.5q35 0 70 -35q22 -20 33 -20q13 0 21.5 12t8.5 31h80q0 -59 -30 -93.5t-68 -34.5q-42 0 -78 36q-19 19 -30 19zM575 499h-332l-25 -141h312l-17 -100h-312l-28 -157h342l-18 -101h-459l106 600h449z" />
    <glyph glyph-name="uni1EBD" unicode="&#x1ebd;" horiz-adv-x="468" 
d="M248 535q-13 0 -21.5 -12t-8.5 -31h-80q0 61 29.5 94.5t73.5 33.5q35 0 70 -35q22 -20 33 -20q13 0 21.5 12t8.5 31h80q0 -59 -30 -93.5t-68 -34.5q-42 0 -78 36q-19 19 -30 19zM260 412q96 0 145 -58t33 -150q-2 -18 -11 -43l-300 2q4 -42 36.5 -66t79.5 -24
q62 0 110 38l45 -61q-75 -62 -164 -62q-98 0 -159 63.5t-42 168.5q15 85 78 138.5t149 53.5zM254 328q-34 0 -64 -20t-47 -60h204q-4 37 -30.5 58.5t-62.5 21.5z" />
    <glyph glyph-name="Ygrave" unicode="&#x1ef2;" horiz-adv-x="580" 
d="M507 747l-48 -80l-190 91l52 86zM626 600q-27 -158 -95.5 -247t-174.5 -103l-44 -250h-117l45 255q-98 23 -134.5 110t-9.5 235h116q-23 -126 4 -191.5t103 -65.5q71 0 119.5 65.5t71.5 191.5h116z" />
    <glyph glyph-name="ygrave" unicode="&#x1ef3;" horiz-adv-x="516" 
d="M422 528l-72 -67l-134 126l75 72zM386 400h107l-70 -401q-19 -108 -83 -169.5t-159 -61.5q-53 0 -99.5 19t-70.5 56l79 66q28 -39 93 -39q51 0 86 33t46 94l10 56q-70 -65 -151 -65q-68 0 -102.5 48.5t-19.5 127.5l41 236h106l-39 -220q-15 -94 58 -94q44 0 81.5 30.5
t50.5 76.5z" />
    </font>
</defs>
</svg>
