<svg xmlns="http://www.w3.org/2000/svg" xmlns:xlink="http://www.w3.org/1999/xlink" width="612" height="200"><defs><path id="a" d="M611.538 172.97c0 14.926-12.1 27.03-27.027 27.03H27.033C12.106 200.001 0 187.897 0 172.97V27.028C0 12.103 12.106 0 27.033 0H584.51c14.926 0 27.027 12.103 27.027 27.028V172.97h.001z"/><path id="b" d="M86.612 47.346L59.059 31.472 5.914.85C2.963-.851.023.179.023 3.73v124.764c0 2.664 2.101 3.812 4.665 2.336C7.25 129.352 59.059 99.5 59.059 99.5l27.552-15.873 26.484-15.257c3.108-1.792 2.809-4.248.187-5.657-2.621-1.41-26.67-15.368-26.67-15.368z"/><linearGradient id="c" x1="50%" x2="50%" y1="0%" y2="100%"><stop offset="0%" stop-color="#257CB0"/><stop offset="28.6%" stop-color="#4A93B5"/><stop offset="76.7%" stop-color="#78BCBB"/><stop offset="100%" stop-color="#89CFBD"/></linearGradient><path id="e" d="M86.612 47.346L59.059 31.472 5.914.85C2.963-.851.023.179.023 3.73v124.764c0 2.664 2.101 3.812 4.665 2.336C7.25 129.352 59.059 99.5 59.059 99.5l27.552-15.873 26.484-15.257c3.108-1.792 2.809-4.248.187-5.657-2.621-1.41-26.67-15.368-26.67-15.368z"/><linearGradient id="f" x1=".001%" x2="100.001%" y1="49.999%" y2="49.999%"><stop offset="0%" stop-color="#52C1AD"/><stop offset="100%" stop-color="#DEE89A"/></linearGradient><path id="h" d="M86.612 47.346L59.059 31.472 5.914.85C2.963-.851.023.179.023 3.73v124.764c0 2.664 2.101 3.812 4.665 2.336C7.25 129.352 59.059 99.5 59.059 99.5l27.552-15.873 26.484-15.257c3.108-1.792 2.809-4.248.187-5.657-2.621-1.41-26.67-15.368-26.67-15.368z"/><linearGradient id="i" x1="50%" x2="50%" y1="0%" y2="100%"><stop offset="0%" stop-color="#EC413D"/><stop offset="16.7%" stop-color="#DA4452"/><stop offset="57.5%" stop-color="#B0487A"/><stop offset="86.2%" stop-color="#954A92"/><stop offset="100%" stop-color="#8A4A9D"/></linearGradient><path id="k" d="M86.612 47.346L59.059 31.472 5.914.85C2.963-.851.023.179.023 3.73v124.764c0 2.664 2.101 3.812 4.665 2.336C7.25 129.352 59.059 99.5 59.059 99.5l27.552-15.873 26.484-15.257c3.108-1.792 2.809-4.248.187-5.657-2.621-1.41-26.67-15.368-26.67-15.368z"/><linearGradient id="l" x1="50.001%" x2="50.001%" y1=".001%" y2="99.997%"><stop offset="0%" stop-color="#F58879"/><stop offset="11.9%" stop-color="#F69079"/><stop offset="71.3%" stop-color="#FCB877"/><stop offset="100%" stop-color="#FEC874"/></linearGradient></defs><g fill="none" fill-rule="evenodd"><g fill-rule="nonzero"><use fill="#000" fill-rule="evenodd" xlink:href="#a"/><path stroke="#A6A6A6" stroke-width="4" d="M609.537 173.217V27.027C609.537 13.208 598.331 2 584.51 2H27.033C13.21 2 2 13.208 2 27.028V172.97c0 13.822 11.21 25.031 25.033 25.03h557.478c13.739 0 24.894-11.075 25.026-24.783z"/></g><g transform="translate(46.154 40.77)"><mask id="d" fill="#fff"><use xlink:href="#b"/></mask><path fill="url(#c)" fill-rule="nonzero" d="M.024-2.052v135.079L68.28 65.488z" mask="url(#d)"/></g><g transform="translate(46.154 40.77)"><mask id="g" fill="#fff"><use xlink:href="#e"/></mask><path fill="url(#f)" fill-rule="nonzero" d="M86.612 47.346L59.059 31.472.024-2.543v.491l68.256 67.54z" mask="url(#g)"/></g><g transform="translate(46.154 40.77)"><mask id="j" fill="#fff"><use xlink:href="#h"/></mask><path fill="url(#i)" fill-rule="nonzero" d="M.024 133.027v.491l59.035-34.017 27.552-15.874L68.28 65.488z" mask="url(#j)"/></g><g transform="translate(46.154 40.77)"><mask id="m" fill="#fff"><use xlink:href="#k"/></mask><path fill="url(#l)" fill-rule="nonzero" d="M86.612 47.346L68.28 65.488l18.33 18.14 31.488-18.141z" mask="url(#m)"/></g><path fill="#F9F9F9" fill-rule="nonzero" d="M475.418 132.862c-2.563 0-4.902-.471-7.02-1.414-2.117-.944-3.896-2.395-5.333-4.352h-.43c.287 2.293.43 4.467.43 6.52v16.157h-5.957V92.88h4.846l.824 5.374h.287c1.533-2.15 3.318-3.7 5.351-4.657 2.034-.955 4.37-1.433 7-1.433 5.22 0 9.248 1.78 12.083 5.338 2.837 3.559 4.256 8.552 4.256 14.974 0 6.45-1.443 11.458-4.325 15.032-2.884 3.57-6.888 5.353-12.012 5.353zm-.863-35.646c-4.02 0-6.93 1.112-8.724 3.332-1.795 2.221-2.717 5.757-2.766 10.606v1.323c0 5.519.922 9.465 2.766 11.843 1.844 2.377 4.801 3.563 8.868 3.563 3.401 0 6.065-1.372 7.992-4.118 1.925-2.746 2.89-6.532 2.89-11.359 0-4.894-.965-8.652-2.89-11.267-1.926-2.617-4.64-3.923-8.136-3.923zm31.001 34.93h-5.96V76.4h5.96v55.744zm34.269 0l-1.186-5.59h-.287c-1.963 2.462-3.92 4.13-5.871 4.998-1.95.874-4.387 1.309-7.306 1.309-3.901 0-6.959-1.004-9.174-3.01-2.216-2.005-3.322-4.858-3.322-8.561 0-7.928 6.356-12.084 19.066-12.468l6.681-.216v-2.435c0-3.082-.665-5.358-1.994-6.825-1.327-1.47-3.455-2.204-6.373-2.204-3.281 0-6.992 1.003-11.131 3.008l-1.832-4.55c1.94-1.05 4.063-1.874 6.375-2.47a27.656 27.656 0 0 1 6.947-.897c4.692 0 8.168 1.038 10.432 3.116 2.26 2.079 3.392 5.41 3.392 9.997v26.796h-4.417v.001zm-13.465-4.19c3.708 0 6.623-1.016 8.743-3.045 2.116-2.03 3.178-4.873 3.178-8.529v-3.546l-5.964.25c-4.739.17-8.153.901-10.25 2.206-2.094 1.301-3.142 3.326-3.142 6.073 0 2.148.651 3.785 1.958 4.905 1.305 1.124 3.13 1.685 5.477 1.685zm21.341-35.075h6.39l8.618 22.392c1.89 5.112 3.065 8.801 3.521 11.071h.287c.311-1.22.965-3.302 1.956-6.255.994-2.95 4.244-12.017 9.748-27.208h6.394l-16.914 44.711c-1.674 4.419-3.631 7.554-5.872 9.408-2.237 1.85-4.985 2.773-8.237 2.773-1.82 0-3.615-.203-5.389-.608v-4.764c1.316.286 2.79.43 4.418.43 4.094 0 7.012-2.293 8.761-6.88l2.19-5.587-15.87-39.483zM365.004 96.53c1.892 1.562 5.843 4.844 5.843 11.09 0 6.073-3.458 8.953-6.915 11.66-1.07 1.066-2.305 2.22-2.305 4.028 0 1.803 1.233 2.79 2.142 3.53l2.964 2.295c3.622 3.04 6.91 5.834 6.91 11.502 0 7.72-7.49 15.519-21.645 15.519-11.937 0-17.696-5.665-17.696-11.746 0-2.955 1.475-7.141 6.338-10.02 5.1-3.12 12.019-3.526 15.72-3.779-1.155-1.476-2.469-3.037-2.469-5.58 0-1.393.413-2.215.823-3.206-.909.084-1.813.166-2.637.166-8.722 0-13.66-6.488-13.66-12.891 0-3.779 1.73-7.97 5.265-11.005 4.694-3.86 10.29-4.518 14.74-4.518h16.951l-5.268 2.956h-5.1v-.001h-.001zm-5.846 36.466c-.658-.086-1.071-.086-1.89-.086-.741 0-5.192.168-8.645 1.32-1.81.652-7.08 2.623-7.08 8.457 0 5.829 5.683 10.023 14.49 10.023 7.897 0 12.1-3.786 12.1-8.873 0-4.197-2.717-6.405-8.975-10.841zm2.388-15.607c1.891-1.89 2.054-4.516 2.054-5.996 0-5.912-3.538-15.11-10.368-15.11-2.143 0-4.446 1.067-5.763 2.711-1.397 1.724-1.813 3.94-1.813 6.077 0 5.502 3.21 14.62 10.293 14.62 2.058 0 4.275-.986 5.597-2.302zm-48.362 14.293c-13.065 0-20.05-10.169-20.05-19.354 0-10.742 8.791-19.921 21.287-19.921 12.075 0 19.636 9.426 19.636 19.35.001 9.67-7.474 19.925-20.873 19.925zm10.271-6.641c1.975-2.627 2.469-5.905 2.469-9.105 0-7.218-3.452-20.99-13.643-20.99-2.711 0-5.422 1.067-7.394 2.792-3.206 2.866-3.784 6.476-3.784 10.005 0 8.112 4.028 21.473 13.974 21.473 3.204 0 6.492-1.555 8.378-4.175zm-54.813 6.64c-13.067 0-20.054-10.168-20.054-19.353 0-10.742 8.795-19.921 21.287-19.921 12.079 0 19.639 9.426 19.639 19.35 0 9.67-7.476 19.925-20.872 19.925zm10.273-6.64c1.972-2.627 2.467-5.905 2.467-9.105 0-7.218-3.455-20.99-13.646-20.99-2.71 0-5.423 1.067-7.394 2.792-3.205 2.866-3.78 6.476-3.78 10.005 0 8.112 4.025 21.473 13.973 21.473 3.205 0 6.491-1.555 8.38-4.175zm-36.604 5.355l-11.817 2.72c-4.794.744-9.089 1.398-13.63 1.398-22.807 0-31.48-16.735-31.48-29.843 0-15.99 12.31-30.825 33.38-30.825 4.464 0 8.756.658 12.639 1.73 6.196 1.732 9.088 3.873 10.906 5.111l-6.86 6.512-2.89.657 2.065-3.298c-2.808-2.718-7.935-7.746-17.68-7.746-13.056 0-22.89 9.897-22.89 24.321 0 15.494 11.239 30.085 29.247 30.085 5.293 0 8.014-1.07 10.494-2.061v-13.27l-12.473.66 6.607-3.549h17.517l-2.146 2.06c-.583.497-.663.664-.828 1.317-.086.744-.164 3.137-.164 3.96v10.06h.003z"/><path fill="#F9F9F9" fill-rule="nonzero" d="M391.36 127.738c-2.723-.25-3.293-.743-3.293-3.972V76.952c.017-.178.028-.36.044-.533.333-2.894 1.156-3.39 3.715-4.88h-11.794l-6.186 2.978h6.304v.037l-.005-.03v51.064c0 1.651-.325 1.902-2.224 4.38h14.596l3.05-1.814c-1.4-.171-2.804-.251-4.208-.416zm33.55.76c-.897.494-1.798 1.071-2.696 1.479-2.707 1.231-5.49 1.561-7.95 1.561-2.614 0-6.712-.17-10.892-3.205-5.809-4.11-8.348-11.174-8.348-17.333 0-12.73 10.317-18.972 18.75-18.972 2.95 0 5.983.738 8.439 2.302 4.09 2.705 5.155 6.237 5.725 8.127l-19.238 7.807-6.306.492c2.044 10.432 9.085 16.506 16.867 16.506 4.175 0 7.206-1.476 9.989-2.87l-4.34 4.106zm-7.694-24.482c1.553-.572 2.371-1.067 2.371-2.216 0-3.283-3.683-7.064-8.108-7.064-3.279 0-9.416 2.548-9.416 11.417 0 1.397.165 2.874.25 4.358l14.903-6.495zm15.597-11.426v5.42h-.656v-5.42h-1.788v-.562h4.231v.562h-1.787zm7.366 5.42v-5.47h-.03l-1.663 5.47h-.514l-1.678-5.47h-.022v5.47h-.596v-5.982h1.022l1.518 4.835h.022l1.495-4.835h1.036v5.982h-.59z"/><path fill="#F9F9FA" fill-rule="nonzero" d="M201.685 57.226h-4.114c0-.569-.39-2.181-1.17-4.837h-5.94c-.804 2.613-1.208 4.225-1.208 4.837h-3.868c0-.336 1-3.095 3-8.277 2.001-5.182 3.002-8.036 3.002-8.561h4.86c0 .491.905 3.303 2.718 8.438 1.813 5.135 2.72 7.935 2.72 8.4zm-5.939-7.308c-1.466-4.448-2.198-6.854-2.198-7.216h-.206c0 .336-.759 2.741-2.275 7.216h4.68zm22.515 7.308h-3.175c0-.353-1.179-2.22-3.535-5.6-2.467-3.56-3.873-5.995-4.215-7.306h-.206c.214 1.888.322 3.595.322 5.122 0 2.13.06 4.725.18 7.786h-3.163c.127-2.673.192-5.608.192-8.807 0-3.147-.064-5.825-.192-8.032h3.817c0 .458 1.057 2.282 3.174 5.47 2.254 3.389 3.548 5.687 3.882 6.895h.193c-.206-1.923-.309-3.647-.309-5.174 0-2.335-.06-4.734-.18-7.19h3.215c-.121 2.137-.18 4.815-.18 8.03-.001 3.24.059 6.176.18 8.806zm18.63-9.001c0 2.448-.78 4.587-2.34 6.414-1.56 1.83-3.745 2.742-6.556 2.742-1.268 0-3.017-.052-5.245-.156.111-2.604.168-5.54.168-8.807 0-3.137-.056-5.815-.168-8.031H225c.368 0 .917-.014 1.645-.039a54.18 54.18 0 0 1 1.427-.038c3.093 0 5.335.776 6.73 2.328 1.392 1.552 2.089 3.413 2.089 5.587zm-3.509.556c0-1.656-.48-3.05-1.44-4.185-.96-1.133-2.425-1.7-4.396-1.7-.368 0-.873.038-1.517.116.085 1.726.128 3.527.128 5.406 0 2.061.043 4.105.128 6.13a8.45 8.45 0 0 0 1.67.17c1.843 0 3.207-.577 4.094-1.728.887-1.151 1.333-2.554 1.333-4.21zm20.689 8.445h-3.806c-.994-3.052-1.756-4.936-2.287-5.651-.532-.716-1.389-1.074-2.57-1.074-.499 0-.974.005-1.427.013 0 2.217.038 4.454.116 6.712h-3.573a208.7 208.7 0 0 0 .167-8.807c0-3.137-.056-5.815-.167-8.031h2.223a68.1 68.1 0 0 0 1.613-.039 73.98 73.98 0 0 1 2.269-.038c3.933 0 5.9 1.353 5.9 4.06 0 2.147-1.122 3.643-3.367 4.49v.193c.865.24 1.624.921 2.275 2.036.65 1.116 1.528 3.161 2.634 6.136zm-4.82-11.898c0-1.716-1.098-2.574-3.291-2.574-.805 0-1.517.06-2.134.18.095 1.337.142 3.079.142 5.225.471.018.87.026 1.195.026 2.725 0 4.088-.951 4.088-2.857zm23.245 3.168c0 2.647-.805 4.842-2.417 6.584-1.612 1.74-3.604 2.612-5.977 2.612-2.263 0-4.157-.8-5.682-2.4-1.525-1.598-2.288-3.631-2.288-6.096 0-2.646.806-4.841 2.418-6.583 1.61-1.741 3.603-2.613 5.977-2.613 2.262 0 4.156.797 5.681 2.392 1.526 1.596 2.288 3.63 2.288 6.104zm-3.547.375c0-1.802-.458-3.264-1.375-4.385-.917-1.12-2.048-1.68-3.393-1.68-1.252 0-2.314.564-3.188 1.693-.873 1.13-1.313 2.556-1.313 4.282 0 1.792.461 3.252 1.382 4.377.922 1.126 2.05 1.688 3.388 1.688 1.25 0 2.314-.567 3.188-1.701.873-1.133 1.311-2.559 1.311-4.274zm10.815 8.355h-3.637c.111-2.672.167-5.608.167-8.807 0-3.147-.056-5.824-.167-8.031h3.637c-.11 2.173-.167 4.85-.167 8.031 0 3.25.056 6.186.167 8.807zm18.632-9.001c0 2.448-.78 4.587-2.34 6.414-1.56 1.83-3.745 2.742-6.556 2.742-1.268 0-3.017-.052-5.245-.156a206.9 206.9 0 0 0 .168-8.807c0-3.137-.056-5.815-.168-8.031h2.25c.369 0 .917-.014 1.645-.039a54.198 54.198 0 0 1 1.427-.038c3.093 0 5.336.776 6.73 2.328 1.392 1.552 2.089 3.413 2.089 5.587zm-3.509.556c0-1.656-.48-3.05-1.44-4.185-.959-1.133-2.425-1.7-4.396-1.7-.368 0-.873.038-1.517.116.085 1.726.128 3.527.128 5.406 0 2.061.043 4.105.128 6.13a8.45 8.45 0 0 0 1.67.17c1.843 0 3.207-.577 4.094-1.728.887-1.151 1.333-2.554 1.333-4.21zm28.226 8.445H319c0-.569-.39-2.181-1.171-4.837h-5.94c-.804 2.613-1.208 4.225-1.208 4.837h-3.867c0-.336 1-3.095 3.001-8.277 2-5.182 3.001-8.036 3.001-8.561h4.86c0 .491.907 3.303 2.718 8.438 1.812 5.135 2.72 7.935 2.72 8.4zm-5.939-7.308c-1.465-4.448-2.2-6.854-2.2-7.216h-.205c0 .336-.757 2.741-2.273 7.216h4.678zm20.933-5.121c0 2.06-.761 3.583-2.282 4.565-1.521.983-3.387 1.475-5.598 1.475-.403 0-.69-.009-.862-.025 0 1.621.047 3.759.142 6.414h-3.613c.111-2.49.168-5.427.168-8.807 0-3.103-.057-5.781-.168-8.031h2.236c.318 0 .925-.013 1.825-.039.9-.025 1.68-.038 2.34-.038 1.627 0 3.003.37 4.126 1.112 1.122.742 1.686 1.865 1.686 3.374zm-3.316.711c0-1.844-1.217-2.768-3.65-2.768-.61 0-1.253.065-1.929.194a96.59 96.59 0 0 1 .142 5.536 9.1 9.1 0 0 0 .745.025c3.128.001 4.692-.994 4.692-2.987zm18.733-.711c0 2.06-.76 3.583-2.28 4.565-1.522.983-3.388 1.475-5.6 1.475-.403 0-.689-.009-.861-.025 0 1.621.047 3.759.141 6.414h-3.613c.112-2.49.168-5.427.168-8.807 0-3.103-.056-5.781-.168-8.031h2.237c.317 0 .925-.013 1.825-.039.9-.025 1.679-.038 2.34-.038 1.626 0 3.003.37 4.125 1.112 1.122.742 1.686 1.865 1.686 3.374zm-3.316.711c0-1.844-1.217-2.768-3.65-2.768-.61 0-1.252.065-1.928.194a97.1 97.1 0 0 1 .141 5.536 9.1 9.1 0 0 0 .745.025c3.128.001 4.692-.994 4.692-2.987zm28.523 2.988c0 2.647-.805 4.842-2.417 6.584-1.612 1.742-3.604 2.612-5.977 2.612-2.263 0-4.157-.8-5.682-2.4-1.524-1.598-2.288-3.631-2.288-6.096 0-2.646.806-4.841 2.417-6.583C366.396 40.87 368.39 40 370.761 40c2.263 0 4.158.797 5.682 2.392 1.525 1.596 2.288 3.63 2.288 6.104zm-3.548.375c0-1.802-.458-3.264-1.375-4.385-.916-1.12-2.049-1.68-3.393-1.68-1.252 0-2.315.564-3.188 1.693-.874 1.13-1.312 2.556-1.312 4.282 0 1.792.46 3.252 1.382 4.377.922 1.126 2.05 1.688 3.387 1.688 1.251 0 2.314-.567 3.187-1.7.875-1.134 1.312-2.56 1.312-4.275zm20.97 8.355h-3.174c0-.353-1.177-2.22-3.535-5.6-2.467-3.56-3.873-5.995-4.215-7.306h-.206c.214 1.888.322 3.595.322 5.122 0 2.13.06 4.725.18 7.786h-3.163c.128-2.673.192-5.608.192-8.807 0-3.147-.064-5.825-.192-8.032h3.817c0 .458 1.059 2.282 3.174 5.47 2.255 3.389 3.548 5.687 3.882 6.895h.193c-.206-1.923-.309-3.647-.309-5.174 0-2.335-.06-4.734-.18-7.19h3.215c-.121 2.137-.18 4.815-.18 8.03 0 3.24.06 6.176.18 8.806z"/></g></svg>