<svg xmlns="http://www.w3.org/2000/svg" width="674" height="200"><defs><linearGradient id="a" x1="49.998%" x2="49.998%" y1="100.266%" y2="-260.383%"><stop offset="0%" stop-color="#1A1A1A" stop-opacity=".1"/><stop offset="12.3%" stop-color="#212121" stop-opacity=".151"/><stop offset="30.8%" stop-color="#353535" stop-opacity=".227"/><stop offset="53.2%" stop-color="#575757" stop-opacity=".318"/><stop offset="78.3%" stop-color="#858585" stop-opacity=".421"/><stop offset="100%" stop-color="#B3B3B3" stop-opacity=".51"/></linearGradient></defs><g fill="none"><path fill="#FFF" d="M669 175.854c0 5.081-2.018 9.954-5.61 13.545A19.121 19.121 0 0 1 649.85 195H23.175c-10.577.011-19.161-8.56-19.175-19.146V23.171C4.014 12.581 12.594 4.003 23.175 4h626.67c5.08 0 9.952 2.02 13.543 5.615a19.174 19.174 0 0 1 5.607 13.556L669 175.854z"/><path fill="#A6A6A6" d="M650.382 200H23.622C10.594 199.997.026 189.434 0 176.389V23.637C.02 10.585 10.587.01 23.623 0h626.754C663.411.017 673.975 10.587 674 23.637v152.752c.01 13.023-10.605 23.611-23.618 23.611z"/><path fill="#000" d="M669 175.854c0 5.081-2.018 9.954-5.61 13.545A19.121 19.121 0 0 1 649.85 195H23.175c-10.577.011-19.161-8.56-19.175-19.146V23.171C4.014 12.581 12.594 4.003 23.175 4h626.67c5.08 0 9.952 2.02 13.543 5.615a19.174 19.174 0 0 1 5.607 13.556L669 175.854z"/><path fill="#FFF" d="M150.864 98.538c-.145-16.044 13.223-23.85 13.834-24.213-7.57-10.967-19.306-12.466-23.43-12.585-9.855-1.03-19.415 5.86-24.436 5.86-5.12 0-12.852-5.76-21.185-5.591-10.722.164-20.754 6.332-26.255 15.91-11.354 19.53-2.886 48.228 7.992 64.014 5.441 7.736 11.8 16.363 20.122 16.06 8.142-.33 11.184-5.153 21.01-5.153 9.735 0 12.591 5.152 21.079 4.958 8.738-.134 14.24-7.766 19.491-15.567 6.288-8.856 8.814-17.587 8.914-18.035-.2-.07-16.966-6.432-17.136-25.658zM134.83 51.356c4.38-5.442 7.376-12.844 6.544-20.356-6.339.279-14.265 4.356-18.83 9.677-4.038 4.69-7.646 12.376-6.714 19.604 7.12.528 14.43-3.569 19-8.925z"/><path fill="url(#a)" d="M650.333 0H314l131.736 200h204.597c13.057-.011 23.642-10.578 23.667-23.626V23.637C673.978 10.586 663.392.014 650.333 0z"/><path fill="#FFF" d="M268.108 157.546h-11.333l-6.207-19.528H228.99l-5.913 19.528h-11.034l21.383-66.482h13.204l21.478 66.482zm-19.412-27.72l-5.614-17.36c-.594-1.774-1.711-5.95-3.348-12.525h-.2c-.658 2.827-1.711 7.004-3.154 12.524l-5.519 17.36h17.835zm74.295 3.161c0 8.153-2.211 14.598-6.637 19.329-3.963 4.211-8.888 6.314-14.761 6.314-6.343 0-10.904-2.263-13.674-6.799v25.154H277.28v-51.621c0-5.12-.134-10.371-.394-15.756h9.357l.594 7.598h.2c3.547-5.725 8.932-8.588 16.158-8.588 5.648 0 10.364 2.234 14.137 6.705 3.767 4.48 5.659 10.366 5.659 17.664zm-10.839.39c0-4.666-1.048-8.513-3.154-11.545-2.3-3.152-5.39-4.73-9.262-4.73-2.625 0-5.01.878-7.14 2.612-2.137 1.748-3.534 4.031-4.188 6.859a13.922 13.922 0 0 0-.494 3.242v7.998c0 3.482 1.068 6.425 3.204 8.833 2.136 2.398 4.91 3.602 8.324 3.602 4.007 0 7.126-1.554 9.357-4.636 2.235-3.093 3.353-7.17 3.353-12.235zm65.916-.39c0 8.153-2.21 14.598-6.637 19.329-3.967 4.211-8.888 6.314-14.766 6.314-6.343 0-10.904-2.263-13.673-6.799v25.154h-10.64v-51.621c0-5.12-.134-10.371-.394-15.756h9.357l.594 7.598h.2c3.542-5.725 8.927-8.588 16.158-8.588 5.644 0 10.36 2.234 14.142 6.705 3.762 4.48 5.659 10.366 5.659 17.664zm-10.844.39c0-4.666-1.053-8.513-3.159-11.545-2.3-3.152-5.38-4.73-9.252-4.73-2.625 0-5.01.878-7.15 2.612-2.136 1.748-3.529 4.031-4.182 6.859-.325 1.319-.5 2.393-.5 3.242v7.998c0 3.482 1.073 6.425 3.2 8.833 2.135 2.393 4.91 3.602 8.333 3.602 4.012 0 7.13-1.554 9.357-4.636 2.235-3.093 3.353-7.17 3.353-12.235zm72.423 5.52c0 5.66-1.976 10.261-5.903 13.813-4.322 3.877-10.355 5.82-18.09 5.82-7.146 0-12.875-1.378-17.196-4.141l2.46-8.877c4.666 2.767 9.79 4.146 15.37 4.146 4.012 0 7.13-.91 9.357-2.713 2.23-1.808 3.358-4.226 3.358-7.243 0-2.703-.933-4.966-2.765-6.81-1.841-1.838-4.885-3.551-9.162-5.125-11.627-4.341-17.445-10.69-17.445-19.044 0-5.455 2.055-9.921 6.157-13.413 4.102-3.487 9.542-5.23 16.308-5.23 6.044 0 11.079 1.054 15.076 3.157l-2.67 8.682c-3.762-2.038-8.01-3.057-12.76-3.057-3.752 0-6.697.924-8.803 2.762-1.771 1.644-2.67 3.647-2.67 6.025 0 2.623 1.024 4.801 3.06 6.51 1.766 1.573 4.99 3.287 9.65 5.125 5.72 2.308 9.921 4.996 12.611 8.083 2.71 3.088 4.057 6.94 4.057 11.53zm35.266-21.296h-11.727v23.275c0 5.92 2.066 8.872 6.208 8.872 1.901 0 3.478-.16 4.726-.495l.294 8.088c-2.096.785-4.856 1.18-8.274 1.18-4.202 0-7.485-1.284-9.856-3.852-2.36-2.568-3.548-6.87-3.548-12.924V117.58h-6.986v-7.993h6.986v-8.778l10.45-3.157v11.935h11.727v8.013zm52.806 15.581c0 7.369-2.105 13.419-6.307 18.15-4.397 4.87-10.245 7.298-17.536 7.298-7.036 0-12.63-2.333-16.802-6.994-4.172-4.67-6.258-10.556-6.258-17.654 0-7.429 2.156-13.514 6.453-18.245 4.306-4.736 10.105-7.104 17.396-7.104 7.026 0 12.67 2.338 16.941 7.004 4.082 4.526 6.113 10.371 6.113 17.545zm-11.028.245c0-4.391-.948-8.158-2.85-11.31-2.23-3.807-5.424-5.71-9.56-5.71-4.262 0-7.53 1.903-9.756 5.71-1.907 3.152-2.855 6.984-2.855 11.51 0 4.396.948 8.173 2.855 11.315 2.3 3.807 5.509 5.71 9.666 5.71 4.067 0 7.255-1.943 9.56-5.805 1.957-3.227 2.94-7.019 2.94-11.42zm45.626-14.452a18.494 18.494 0 0 0-3.354-.295c-3.742 0-6.637 1.409-8.673 4.246-1.766 2.498-2.655 5.655-2.655 9.467v25.153h-10.639v-32.841c.01-5.033-.093-10.065-.31-15.092h9.268l.389 9.172h.294c1.128-3.153 2.895-5.695 5.32-7.599a12.855 12.855 0 0 1 7.69-2.568c.983 0 1.871.07 2.66.195l.01 10.162zm47.581 12.334a25.005 25.005 0 0 1-.389 4.83h-31.917c.12 4.737 1.666 8.364 4.63 10.861 2.69 2.228 6.169 3.347 10.44 3.347 4.726 0 9.037-.749 12.915-2.263l1.667 7.39c-4.532 1.977-9.881 2.962-16.054 2.962-7.425 0-13.254-2.189-17.496-6.555-4.231-4.371-6.352-10.246-6.352-17.605 0-7.223 1.97-13.243 5.918-18.044 4.132-5.126 9.716-7.689 16.742-7.689 6.902 0 12.127 2.563 15.675 7.689 2.81 4.061 4.221 9.097 4.221 15.077zm-10.145-2.763c.075-3.162-.623-5.885-2.066-8.188-1.841-2.967-4.676-4.446-8.473-4.446-3.478 0-6.313 1.444-8.468 4.341-1.772 2.303-2.825 5.071-3.15 8.283l22.157.01zM225.75 68.652c-2.967 0-5.534-.15-7.67-.4V35.245a56.654 56.654 0 0 1 9.03-.698c12.232 0 17.866 6.172 17.866 16.232 0 11.604-6.654 17.873-19.226 17.873zm1.79-29.872c-1.65 0-3.056.102-4.222.349v25.09c.63.103 1.841.15 3.542.15 8.015 0 12.577-4.68 12.577-13.441 0-7.813-4.127-12.148-11.896-12.148zm34.99 30.123c-6.893 0-11.36-5.279-11.36-12.445 0-7.47 4.562-12.795 11.751-12.795 6.794 0 11.362 5.028 11.362 12.4 0 7.561-4.708 12.84-11.752 12.84zm.2-21.31c-3.786 0-6.213 3.632-6.213 8.71 0 4.982 2.477 8.614 6.164 8.614s6.163-3.883 6.163-8.716c0-4.925-2.426-8.608-6.113-8.608zm50.865-3.432l-7.379 24.193h-4.808l-3.057-10.506a81.341 81.341 0 0 1-1.896-7.813h-.1c-.385 2.637-1.115 5.279-1.89 7.813l-3.253 10.506h-4.857l-6.944-24.193h5.388l2.671 11.502c.63 2.739 1.16 5.324 1.601 7.766h.1c.385-2.036 1.016-4.58 1.941-7.715l3.352-11.548h4.273l3.207 11.302a96.726 96.726 0 0 1 1.896 7.966h.14c.34-2.488.875-5.13 1.6-7.966l2.867-11.302 5.148-.005zm27.166 24.193h-5.243V54.462c0-4.278-1.601-6.423-4.758-6.423-3.107 0-5.243 2.74-5.243 5.925v14.39h-5.243V51.076c0-2.139-.05-4.432-.195-6.92h4.613l.245 3.735h.145c1.41-2.586 4.272-4.228 7.48-4.228 4.952 0 8.204 3.884 8.204 10.204l-.005 14.487zm14.458 0h-5.248V33.06h5.248v35.294zm19.116.55c-6.889 0-11.361-5.28-11.361-12.446 0-7.47 4.562-12.795 11.746-12.795 6.8 0 11.362 5.028 11.362 12.4.005 7.561-4.708 12.84-11.747 12.84zm.195-21.311c-3.787 0-6.213 3.632-6.213 8.71 0 4.982 2.481 8.614 6.158 8.614 3.692 0 6.164-3.883 6.164-8.716.005-4.925-2.416-8.608-6.109-8.608zm32.224 20.761l-.38-2.785h-.14c-1.601 2.241-3.938 3.334-6.9 3.334-4.227 0-7.228-3.037-7.228-7.12 0-5.972 5.047-9.06 13.787-9.06v-.446c0-3.186-1.645-4.781-4.897-4.781-2.327 0-4.368.6-6.164 1.795l-1.066-3.535c2.182-1.395 4.903-2.093 8.1-2.093 6.164 0 9.275 3.335 9.275 10.01v8.91c0 2.442.106 4.335.34 5.776l-4.727-.005zm-.72-12.05c-5.824 0-8.745 1.446-8.745 4.878 0 2.54 1.505 3.781 3.597 3.781 2.666 0 5.148-2.088 5.148-4.925v-3.734zm30.567 12.05l-.245-3.883h-.145c-1.506 2.934-4.037 4.432-7.574 4.432-5.689 0-9.901-5.13-9.901-12.348 0-7.567 4.367-12.897 10.33-12.897 3.158 0 5.394 1.093 6.655 3.289h.105V33.06h5.248v28.774c0 2.34.055 4.53.195 6.52H436.6zm-.775-14.236c0-3.385-2.187-6.274-5.523-6.274-3.888 0-6.264 3.535-6.264 8.511 0 4.879 2.466 8.218 6.158 8.218 3.297 0 5.629-2.94 5.629-6.422v-4.033zm38.522 14.785c-6.889 0-11.357-5.279-11.357-12.445 0-7.47 4.563-12.795 11.747-12.795 6.8 0 11.362 5.028 11.362 12.4.005 7.561-4.703 12.84-11.752 12.84zm.195-21.31c-3.782 0-6.209 3.632-6.209 8.71 0 4.982 2.477 8.614 6.159 8.614 3.692 0 6.164-3.883 6.164-8.716.01-4.925-2.417-8.608-6.114-8.608zm39.753 20.761h-5.248V54.462c0-4.278-1.601-6.423-4.758-6.423-3.107 0-5.238 2.74-5.238 5.925v14.39h-5.248V51.076c0-2.139-.05-4.432-.195-6.92h4.613l.245 3.735h.145c1.406-2.586 4.272-4.233 7.474-4.233 4.953 0 8.21 3.884 8.21 10.204v14.492zm35.275-20.16h-5.768V59.94c0 2.99 1.01 4.484 3.052 4.484.925 0 1.7-.103 2.326-.252l.145 4.084c-1.015.4-2.376.6-4.067.6-4.133 0-6.604-2.34-6.604-8.465V48.193h-3.442v-4.032h3.442V39.73l5.148-1.596v6.023h5.768v4.037zm27.756 20.16h-5.238v-13.79c0-4.329-1.596-6.52-4.757-6.52-2.717 0-5.248 1.893-5.248 5.726v14.584h-5.238V33.06h5.238v14.533h.105c1.65-2.637 4.042-3.935 7.094-3.935 4.993 0 8.044 3.981 8.044 10.306v14.39zm28.437-10.804H590.03c.1 4.581 3.056 7.167 7.434 7.167 2.326 0 4.468-.4 6.359-1.144l.815 3.735c-2.231.995-4.858 1.492-7.914 1.492-7.38 0-11.747-4.78-11.747-12.194 0-7.418 4.472-12.994 11.156-12.994 6.029 0 9.81 4.581 9.81 11.502a10.62 10.62 0 0 1-.18 2.436zm-4.808-3.832c0-3.734-1.836-6.371-5.188-6.371-3.012 0-5.393 2.688-5.733 6.371h10.921z"/></g></svg>