<svg xmlns="http://www.w3.org/2000/svg" viewBox="0 0 113.61 36"><g data-name="Слой 2"><g data-name="Слой 1" fill="#fff"><path d="M4.21 36a4.19 4.19 0 0 1-2.54-7.53c8.81-6.64 16.61-6.56 21.6-5.32a23.77 23.77 0 0 1 10.21 5.48 4.19 4.19 0 1 1-5.79 6.07c-1.5-1.42-9.59-8.1-21 .45a4.16 4.16 0 0 1-2.48.85z" opacity=".94"/><path d="M34.42 30L21.36 2.4A4.19 4.19 0 1 0 13.79 6l13.06 27.6a4.19 4.19 0 1 0 7.57-3.6z" opacity=".85"/><path d="M17 14.47L8 33.6A4.2 4.2 0 0 1 4.19 36a4.1 4.1 0 0 1-1.79-.41A4.18 4.18 0 0 1 .4 30l9.12-19.26 4-8.35A4.19 4.19 0 1 1 21 6l-4 8.49z" fill-rule="evenodd" opacity=".94"/><path d="M107.47 25.21c1.84 0 2.85 1.25 2.85 3.79s-1 3.79-2.85 3.79-2.86-1.25-2.86-3.79 1.01-3.79 2.86-3.79zm0-2.45c-3.87 0-6.15 2.33-6.15 6.24s2.28 6.24 6.15 6.24 6.14-2.33 6.14-6.24-2.28-6.24-6.14-6.24zM99 23h-3.33v12H99zm-1.63-1.73c1.37 0 2-.57 2-1.75s-.67-1.78-2-1.78-2 .6-2 1.78.63 1.75 1.96 1.75zm-6.29 10.06a2 2 0 1 0 0 3.89 2 2 0 1 0 0-3.89zm-9.73-6.15c1.52 0 2.52 1 2.79 2.76h-5.59c.26-1.82 1.22-2.76 2.8-2.76zM87.16 29c0-3.93-2-6.19-5.78-6.19s-6 2.3-6 6.24 2.26 6.24 6.24 6.24c2.71 0 4.56-1 5.33-3l-2.69-1a2.5 2.5 0 0 1-2.64 1.49 2.81 2.81 0 0 1-3-2.54h8.5c-.01-.3.04-.95.04-1.24zM72 17.74h-3.26v13.92c0 2.5 1 3.58 3.36 3.58a4.86 4.86 0 0 0 2.23-.5l.29-2.28a3.63 3.63 0 0 1-1.41.26c-.89 0-1.18-.41-1.18-1.54zm-11.28 7.44c1.51 0 2.52 1 2.79 2.76h-5.6c.27-1.82 1.23-2.76 2.81-2.76zM66.53 29c0-3.93-2-6.19-5.78-6.19s-6 2.3-6 6.24 2.25 6.24 6.24 6.24c2.71 0 4.56-1 5.33-3l-2.69-1a2.5 2.5 0 0 1-2.64 1.49 2.8 2.8 0 0 1-3-2.54h8.49a10.87 10.87 0 0 0 .05-1.24zm-20.26 3.72c-1.73 0-2.81-1.27-2.81-3.72s1.08-3.72 2.81-3.72 2.79 1.32 2.79 3.6v.24c0 2.33-1.06 3.6-2.79 3.6zm2.79-15V25a4 4 0 0 0-3.75-2.21c-3.19 0-5.13 2.33-5.13 6.26s1.94 6.22 5.13 6.22a4.26 4.26 0 0 0 4-2.47l.11 2.2h2.92V17.74z"/></g></g></svg>