<?xml version="1.0" encoding="utf-8"?><svg width="130" height="109" fill="none" xmlns="http://www.w3.org/2000/svg" viewBox="0 0 130 109"><path d="M65.336 84.906c11.317 0 20.492-9.174 20.492-20.492 0-11.318-9.175-20.492-20.492-20.492-11.318 0-20.492 9.175-20.492 20.492 0 11.318 9.174 20.492 20.492 20.492z" fill="#EDEDED"/><path d="M95.234 13.016l-1.308-6.609C93.22 2.84 90.093.25 86.491.25h-42.31c-3.602 0-6.73 2.59-7.435 6.157l-1.309 6.609h59.797zm22.928 7.39H11.838C5.586 20.406.5 25.483.5 31.723v65.383c0 6.239 5.086 11.316 11.338 11.316h106.324c6.252 0 11.338-5.077 11.338-11.316V31.723c0-6.24-5.086-11.317-11.338-11.317zM32.75 44.045H20.656a3.776 3.776 0 01-3.779-3.772 3.774 3.774 0 013.78-3.773H32.75a3.775 3.775 0 013.78 3.773 3.776 3.776 0 01-3.78 3.772zM65 92.328c-15.42 0-27.967-12.522-27.967-27.914C37.033 49.022 49.58 36.5 65 36.5c15.42 0 27.967 12.522 27.967 27.914 0 15.392-12.546 27.914-27.967 27.914z" fill="#EDEDED"/></svg>