<svg width="695" height="75" viewBox="0 0 695 75" fill="none" xmlns="http://www.w3.org/2000/svg">
<g clip-path="url(#clip0)">
<path d="M380 0H434.95V8H388V33H431V41H388V67H435V75H380V0Z" fill="black"/>
<path d="M510 0H564.95V8H518V33H561V41H518V67H565V75H510V0Z" fill="black"/>
<path d="M130 0H184.95V8H138V33H181V41H138V67H185V75H130V0Z" fill="black"/>
<path d="M211 71C208.214 73.786 204.989 75 201 75H195C208.05 62.5 228.987 42.52 230 41H221.09C216.68 41 212.152 40.45 208.05 39C199.499 36.04 195.258 29 195.258 20.5C195.258 12 200 3.00001 210.463 0.306006C211.264 0.10013 212.089 -0.00269958 212.916 6.2603e-06H248.639C249.037 6.2603e-06 249.434 0.0790063 250 0.138006V75H242V41.102C240.947 42.266 227 55 211 71ZM242 33V8.00001H216.303C207 8.00001 202.885 14.206 203 20.5C203.225 26.776 207.5 33 216.81 33H242Z" fill="#FF0000"/>
<path d="M465 33.102H473.91C478.32 33.102 482.848 33.652 486.95 35.102C495.501 38.062 499.742 45.5 499.742 54C499.742 62.5 495 72 484.537 74.694C483.736 74.8999 482.911 75.0027 482.084 75H446.36C445.962 75 445.565 74.921 444.999 74.862V0H491.999V8H452.999V33C457.499 33.102 460.499 33.102 464.999 33.102H465ZM453 41V67H478.697C488 67 492.115 60.546 492 54C491.775 47.473 487.5 41 478.19 41H453Z" fill="black"/>
<path d="M640.018 0H648V62C665.352 34.273 677.686 14.606 685 3C686.423 0.726 688.486 0 691 0H695V75H687V13C670 41 657.667 60.667 650 72C648.418 74.338 646.5 75 644 75H640L640.018 0ZM0.018 0H8V62C25.352 34.273 37.686 14.606 45 3C46.423 0.726 48.486 0 51 0H55V75H47V13C30 41 17.667 60.667 10 72C8.418 74.338 6.5 75 4 75H0L0.018 0ZM323 0V62C340.352 34.273 352.686 14.606 360 3C361.423 0.726 363.486 0 366 0H370V75H362V13C345 41 332.667 60.667 325 72C323.418 74.338 321.5 75 319 75H315L315.015 13.024C315.015 12.427 289 56 278 72C276.325 74.436 274.5 75 272 75H268C285.3 47 303.5 18 313 3C314.568 0.524 316.5 0 319 0H323Z" fill="black"/>
<path d="M583 62C600.352 34.273 612.686 14.606 620 3C621.423 0.726 623.486 0 626 0H630V75H622V13C605 41 592.667 60.667 585 72C583.418 74.338 581.5 75 579 75H575L583 62Z" fill="#FF0000"/>
<path d="M73 62C90.352 34.273 102.686 14.606 110 3C111.423 0.726 113.486 0 116 0H120V75H112V13C94.702 41.169 83.478 59.17 78.33 67.002C83.5 67 99.5 67 112 67V75H65.5C65.5 73.5 66 72.5 67 71L73 62Z" fill="black"/>
</g>
<defs>
<clipPath id="clip0">
<rect width="695" height="75" fill="white"/>
</clipPath>
</defs>
</svg>
