<?xml version="1.0" encoding="utf-8"?>
<!-- Generator: Adobe Illustrator 22.0.0, SVG Export Plug-In . SVG Version: 6.00 Build 0)  -->
<svg version="1.1" id="Layer_1" xmlns="http://www.w3.org/2000/svg" xmlns:xlink="http://www.w3.org/1999/xlink" x="0px" y="0px"
	 viewBox="0 0 414 435" style="enable-background:new 0 0 414 435;" xml:space="preserve">
<g>
	<polygon points="200.8,141.8 154.4,95.4 154.4,214.9 200.7,261.2 	"/>
	<g>
		<polygon points="141.9,118.6 141.9,129.6 7.9,129.6 7.2,129.6 18.9,118.6 		"/>
	</g>
	<polygon points="56.5,142 141.9,142 141.9,191.5 91.6,191.5 42.1,142 	"/>
	<polygon points="74,191.5 58.6,191.5 9.1,142 24.5,142 	"/>
	<polygon points="259.5,77.7 154.4,77.7 206.9,130.4 	"/>
	<polygon points="259.5,385.2 213.1,431 213.1,414.5 259.6,367.8 	"/>
	<polygon points="213.1,141.7 259.5,95.3 259.5,215 213.1,261.4 	"/>
	<polygon points="340,191.5 355.4,191.5 404.9,142 389.5,142 	"/>
	<path d="M78.9,106.2c20-51.1,69.9-87.4,128-87.4c58.2,0,108,36.3,128,87.4h15.8C330,46.7,273.4,4,206.9,4S83.9,46.7,63.1,106.2
		H78.9z"/>
	<g>
		<path d="M141.9,277.3c-29.3-15.8-52.2-41.9-63.9-73.4H62.3c13.1,39.7,42.2,72.3,79.6,90V277.3z"/>
		<path d="M335.9,203.9c-11.7,31.5-34.6,57.6-63.9,73.4v16.6c37.4-17.7,66.5-50.3,79.6-90H335.9z"/>
	</g>
	<g>
		<polygon points="272.1,118.6 272.1,129.6 406.1,129.6 406.8,129.6 395.1,118.6 		"/>
	</g>
	<polygon points="165.2,243.1 154.4,254.3 154.4,351.4 200.8,396.9 200.8,278.8 	"/>
	<polygon points="248.9,243.2 259.5,254.3 259.5,350.5 213.1,396.9 213.1,279 	"/>
	<polygon points="357.5,142 272.1,142 272.1,191.5 322.4,191.5 371.9,142 	"/>
	<polygon points="154.4,384.9 200.7,431 200.7,414.4 154.4,368.1 	"/>
</g>
</svg>
