<?xml version="1.0" encoding="utf-8"?>
<!-- Generator: Adobe Illustrator 22.0.0, SVG Export Plug-In . SVG Version: 6.00 Build 0)  -->
<svg version="1.1" id="Layer_1" xmlns="http://www.w3.org/2000/svg" xmlns:xlink="http://www.w3.org/1999/xlink" x="0px" y="0px"
	 viewBox="0 0 414 435" style="enable-background:new 0 0 414 435;" xml:space="preserve">
<style type="text/css">
	.st0{fill:url(#SVGID_1_);}
	.st1{fill:url(#SVGID_2_);}
	.st2{fill:url(#SVGID_3_);}
	.st3{fill:url(#SVGID_4_);}
	.st4{fill:url(#SVGID_5_);}
	.st5{fill:url(#SVGID_6_);}
	.st6{fill:url(#SVGID_7_);}
	.st7{fill:url(#SVGID_8_);}
	.st8{fill:url(#SVGID_9_);}
	.st9{fill:url(#SVGID_10_);}
	.st10{fill:url(#SVGID_11_);}
	.st11{fill:url(#SVGID_12_);}
	.st12{fill:url(#SVGID_13_);}
	.st13{fill:url(#SVGID_14_);}
	.st14{fill:url(#SVGID_15_);}
	.st15{fill:url(#SVGID_16_);}
</style>
<g>
	<linearGradient id="SVGID_1_" gradientUnits="userSpaceOnUse" x1="219.249" y1="250.5022" x2="135.8471" y2="106.0458">
		<stop  offset="0" style="stop-color:#FF0056"/>
		<stop  offset="0.111" style="stop-color:#F20154"/>
		<stop  offset="0.3173" style="stop-color:#CF034E"/>
		<stop  offset="0.5963" style="stop-color:#970744"/>
		<stop  offset="0.9342" style="stop-color:#4A0D37"/>
		<stop  offset="1" style="stop-color:#3A0E34"/>
	</linearGradient>
	<polygon class="st0" points="200.8,141.8 154.4,95.4 154.4,214.9 200.7,261.2 	"/>
	<g>
		<linearGradient id="SVGID_2_" gradientUnits="userSpaceOnUse" x1="7.1861" y1="124.1197" x2="141.9326" y2="124.1197">
			<stop  offset="0" style="stop-color:#3A0E34"/>
			<stop  offset="1" style="stop-color:#FF0056"/>
		</linearGradient>
		<polygon class="st1" points="141.9,118.6 141.9,129.6 7.9,129.6 7.2,129.6 18.9,118.6 		"/>
	</g>
	<linearGradient id="SVGID_3_" gradientUnits="userSpaceOnUse" x1="42.1127" y1="166.7344" x2="141.9326" y2="166.7344">
		<stop  offset="0" style="stop-color:#FF0056"/>
		<stop  offset="1" style="stop-color:#3A0E34"/>
	</linearGradient>
	<polygon class="st2" points="56.5,142 141.9,142 141.9,191.5 91.6,191.5 42.1,142 	"/>
	<linearGradient id="SVGID_4_" gradientUnits="userSpaceOnUse" x1="41.5511" y1="191.4821" x2="41.5511" y2="141.9868">
		<stop  offset="0" style="stop-color:#3A0E34"/>
		<stop  offset="1" style="stop-color:#FF0056"/>
	</linearGradient>
	<polygon class="st3" points="74,191.5 58.6,191.5 9.1,142 24.5,142 	"/>
	<linearGradient id="SVGID_5_" gradientUnits="userSpaceOnUse" x1="206.9435" y1="130.351" x2="206.9435" y2="54.7649">
		<stop  offset="0" style="stop-color:#FF0056"/>
		<stop  offset="1" style="stop-color:#3A0E34"/>
	</linearGradient>
	<polygon class="st4" points="259.5,77.7 154.4,77.7 206.9,130.4 	"/>
	<linearGradient id="SVGID_6_" gradientUnits="userSpaceOnUse" x1="209.1012" y1="427.0092" x2="263.9525" y2="372.1578">
		<stop  offset="0" style="stop-color:#FF0056"/>
		<stop  offset="1" style="stop-color:#3A0E34"/>
	</linearGradient>
	<polygon class="st5" points="259.5,385.2 213.1,431 213.1,414.5 259.6,367.8 	"/>
	
		<radialGradient id="SVGID_7_" cx="254.6403" cy="180.179" r="107.7357" fx="219.0393" fy="240.1729" gradientUnits="userSpaceOnUse">
		<stop  offset="0" style="stop-color:#FF0056"/>
		<stop  offset="1" style="stop-color:#3A0E34"/>
	</radialGradient>
	<polygon class="st6" points="213.1,141.7 259.5,95.3 259.5,215 213.1,261.4 	"/>
	<linearGradient id="SVGID_8_" gradientUnits="userSpaceOnUse" x1="372.4489" y1="191.4821" x2="372.4489" y2="141.9868">
		<stop  offset="0" style="stop-color:#3A0E34"/>
		<stop  offset="1" style="stop-color:#FF0056"/>
	</linearGradient>
	<polygon class="st7" points="340,191.5 355.4,191.5 404.9,142 389.5,142 	"/>
	<linearGradient id="SVGID_9_" gradientUnits="userSpaceOnUse" x1="206.9436" y1="106.207" x2="206.9436" y2="3.9648">
		<stop  offset="0" style="stop-color:#3A0E34"/>
		<stop  offset="1" style="stop-color:#FF0056"/>
	</linearGradient>
	<path class="st8" d="M78.9,106.2c20-51.1,69.9-87.4,128-87.4c58.2,0,108,36.3,128,87.4h15.8C330,46.7,273.4,4,206.9,4
		S83.9,46.7,63.1,106.2H78.9z"/>
	<g>
		<linearGradient id="SVGID_10_" gradientUnits="userSpaceOnUse" x1="102.1296" y1="293.9156" x2="102.1296" y2="203.9144">
			<stop  offset="0.4113" style="stop-color:#FF0056"/>
			<stop  offset="1" style="stop-color:#3A0E34"/>
		</linearGradient>
		<path class="st9" d="M141.9,277.3c-29.3-15.8-52.2-41.9-63.9-73.4H62.3c13.1,39.7,42.2,72.3,79.6,90V277.3z"/>
		<linearGradient id="SVGID_11_" gradientUnits="userSpaceOnUse" x1="311.7575" y1="293.9157" x2="311.7575" y2="203.9144">
			<stop  offset="0.4113" style="stop-color:#FF0056"/>
			<stop  offset="1" style="stop-color:#3A0E34"/>
		</linearGradient>
		<path class="st10" d="M335.9,203.9c-11.7,31.5-34.6,57.6-63.9,73.4v16.6c37.4-17.7,66.5-50.3,79.6-90H335.9z"/>
	</g>
	<g>
		<linearGradient id="SVGID_12_" gradientUnits="userSpaceOnUse" x1="272.0674" y1="124.1197" x2="406.8139" y2="124.1197">
			<stop  offset="0" style="stop-color:#FF0056"/>
			<stop  offset="1" style="stop-color:#3A0E34"/>
		</linearGradient>
		<polygon class="st11" points="272.1,118.6 272.1,129.6 406.1,129.6 406.8,129.6 395.1,118.6 		"/>
	</g>
	
		<radialGradient id="SVGID_13_" cx="193.1392" cy="319.0943" r="79.4755" fx="197.2543" fy="284.288" gradientUnits="userSpaceOnUse">
		<stop  offset="0" style="stop-color:#FF0056"/>
		<stop  offset="1" style="stop-color:#3A0E34"/>
	</radialGradient>
	<polygon class="st12" points="165.2,243.1 154.4,254.3 154.4,351.4 200.8,396.9 200.8,278.8 	"/>
	<radialGradient id="SVGID_14_" cx="223.9616" cy="284.3289" r="103.6621" gradientUnits="userSpaceOnUse">
		<stop  offset="0" style="stop-color:#FF0056"/>
		<stop  offset="1" style="stop-color:#3A0E34"/>
	</radialGradient>
	<polygon class="st13" points="248.9,243.2 259.5,254.3 259.5,350.5 213.1,396.9 213.1,279 	"/>
	<linearGradient id="SVGID_15_" gradientUnits="userSpaceOnUse" x1="260.1623" y1="166.7344" x2="359.9823" y2="166.7344">
		<stop  offset="0" style="stop-color:#3A0E34"/>
		<stop  offset="1" style="stop-color:#FF0056"/>
	</linearGradient>
	<polygon class="st14" points="357.5,142 272.1,142 272.1,191.5 322.4,191.5 371.9,142 	"/>
	<linearGradient id="SVGID_16_" gradientUnits="userSpaceOnUse" x1="154.3649" y1="399.5514" x2="200.6954" y2="399.5514">
		<stop  offset="0" style="stop-color:#3A0E34"/>
		<stop  offset="1" style="stop-color:#FF0056"/>
	</linearGradient>
	<polygon class="st15" points="154.4,384.9 200.7,431 200.7,414.4 154.4,368.1 	"/>
</g>
</svg>
