<svg width="130" height="109" viewBox="0 0 130 109" fill="none" xmlns="http://www.w3.org/2000/svg">
<path d="M65.3359 84.9062C76.6535 84.9062 85.8281 75.7316 85.8281 64.4141C85.8281 53.0965 76.6535 43.9219 65.3359 43.9219C54.0184 43.9219 44.8438 53.0965 44.8438 64.4141C44.8438 75.7316 54.0184 84.9062 65.3359 84.9062Z" fill="#EDEDED"/>
<path d="M95.2344 13.0156L93.9262 6.40706C93.2201 2.83941 90.0932 0.25 86.4913 0.25H44.1806C40.5794 0.25 37.4518 2.83941 36.7456 6.40706L35.4375 13.0156H95.2344ZM118.162 20.4062H11.8379C5.58609 20.4062 0.5 25.4829 0.5 31.7226V97.1055C0.5 103.345 5.58609 108.422 11.8379 108.422H118.162C124.414 108.422 129.5 103.345 129.5 97.1055V31.7226C129.5 25.4829 124.414 20.4062 118.162 20.4062ZM32.75 44.0448H20.6562C19.6549 44.0457 18.6942 43.6488 17.9855 42.9415C17.2768 42.2341 16.878 41.2742 16.877 40.2729C16.8774 39.7771 16.9755 39.2861 17.1657 38.8282C17.3558 38.3702 17.6343 37.9542 17.9853 37.6039C18.3362 37.2536 18.7527 36.9758 19.211 36.7865C19.6693 36.5971 20.1604 36.4999 20.6562 36.5003H32.75C33.2459 36.4999 33.737 36.5971 34.1952 36.7865C34.6535 36.9758 35.07 37.2536 35.421 37.6039C35.7719 37.9542 36.0504 38.3702 36.2406 38.8282C36.4308 39.2861 36.5289 39.7771 36.5293 40.2729C36.5282 41.2742 36.1295 42.2341 35.4207 42.9415C34.712 43.6488 33.7513 44.0457 32.75 44.0448V44.0448ZM65 92.3278C49.5791 92.3278 37.0332 79.806 37.0332 64.4141C37.0332 49.0221 49.5791 36.5003 65 36.5003C80.4209 36.5003 92.9668 49.0221 92.9668 64.4141C92.9668 79.806 80.4209 92.3278 65 92.3278Z" fill="#EDEDED"/>
</svg>
