<?xml version="1.0" encoding="utf-8"?><svg viewBox="0 0 695 109" xmlns="http://www.w3.org/2000/svg" xmlns:xlink="http://www.w3.org/1999/xlink"><style>:root>svg{display:none}:root>svg:target{display:block}</style><svg fill="none" viewBox="0 0 695 75" id="logo" xmlns="http://www.w3.org/2000/svg"><g clip-path="url(#aclip0)"><path d="M380 0h54.95v8H388v25h43v8h-43v26h47v8h-55V0zM510 0h54.95v8H518v25h43v8h-43v26h47v8h-55V0zM130 0h54.95v8H138v25h43v8h-43v26h47v8h-55V0z" fill="#000"/><path d="M211 71c-2.786 2.786-6.011 4-10 4h-6c13.05-12.5 33.987-32.48 35-34h-8.91c-4.41 0-8.938-.55-13.04-2-8.551-2.96-12.792-10-12.792-18.5S200 3 210.463.306A9.73 9.73 0 01212.916 0h35.723c.398 0 .795.079 1.361.138V75h-8V41.102C240.947 42.266 227 55 211 71zm31-38V8h-25.697C207 8 202.885 14.206 203 20.5c.225 6.276 4.5 12.5 13.81 12.5H242z" fill="red"/><path d="M465 33.102h8.91c4.41 0 8.938.55 13.04 2 8.551 2.96 12.792 10.398 12.792 18.898S495 72 484.537 74.694a9.73 9.73 0 01-2.453.306H446.36c-.398 0-.795-.079-1.361-.138V0h47v8h-39v25c4.5.102 7.5.102 12 .102H465zM453 41v26h25.697C488 67 492.115 60.546 492 54c-.225-6.527-4.5-13-13.81-13H453zM640.018 0H648v62c17.352-27.727 29.686-47.394 37-59 1.423-2.274 3.486-3 6-3h4v75h-8V13c-17 28-29.333 47.667-37 59-1.582 2.338-3.5 3-6 3h-4l.018-75zm-640 0H8v62C25.352 34.273 37.686 14.606 45 3c1.423-2.274 3.486-3 6-3h4v75h-8V13C30 41 17.667 60.667 10 72c-1.582 2.338-3.5 3-6 3H0L.018 0zM323 0v62c17.352-27.727 29.686-47.394 37-59 1.423-2.274 3.486-3 6-3h4v75h-8V13c-17 28-29.333 47.667-37 59-1.582 2.338-3.5 3-6 3h-4l.015-61.976C315.015 12.427 289 56 278 72c-1.675 2.436-3.5 3-6 3h-4c17.3-28 35.5-57 45-72 1.568-2.476 3.5-3 6-3h4z" fill="#000"/><path d="M583 62c17.352-27.727 29.686-47.394 37-59 1.423-2.274 3.486-3 6-3h4v75h-8V13c-17 28-29.333 47.667-37 59-1.582 2.338-3.5 3-6 3h-4l8-13z" fill="red"/><path d="M73 62c17.352-27.727 29.686-47.394 37-59 1.423-2.274 3.486-3 6-3h4v75h-8V13C94.702 41.169 83.478 59.17 78.33 67.002 83.5 67 99.5 67 112 67v8H65.5c0-1.5.5-2.5 1.5-4l6-9z" fill="#000"/></g><defs><clipPath id="aclip0"><path fill="#fff" d="M0 0h695v75H0z"/></clipPath></defs></svg><svg fill="none" viewBox="0 0 130 109" id="no-image" xmlns="http://www.w3.org/2000/svg"><path d="M65.336 84.906c11.317 0 20.492-9.174 20.492-20.492 0-11.318-9.175-20.492-20.492-20.492-11.318 0-20.492 9.175-20.492 20.492 0 11.318 9.174 20.492 20.492 20.492z" fill="#EDEDED"/><path d="M95.234 13.016l-1.308-6.609C93.22 2.84 90.093.25 86.491.25h-42.31c-3.602 0-6.73 2.59-7.435 6.157l-1.309 6.609h59.797zm22.928 7.39H11.838C5.586 20.406.5 25.483.5 31.723v65.383c0 6.239 5.086 11.316 11.338 11.316h106.324c6.252 0 11.338-5.077 11.338-11.316V31.723c0-6.24-5.086-11.317-11.338-11.317zM32.75 44.045H20.656a3.776 3.776 0 01-3.779-3.772 3.774 3.774 0 013.78-3.773H32.75a3.775 3.775 0 013.78 3.773 3.776 3.776 0 01-3.78 3.772zM65 92.328c-15.42 0-27.967-12.522-27.967-27.914C37.033 49.022 49.58 36.5 65 36.5c15.42 0 27.967 12.522 27.967 27.914 0 15.392-12.546 27.914-27.967 27.914z" fill="#EDEDED"/></svg></svg>