<svg data-name="Слой 1" xmlns="http://www.w3.org/2000/svg" viewBox="0 0 919.12 199"><path d="M0 0h193v199H0V0zm144.34 152.18c-1.82-3.23-6.06-10.78-10.45-17.23-1.11-1.66-2.23-3.19-3.29-4.66 0 0-5.56 2.32-22.69 2.88s-20 4.9-29.65 4a31.66 31.66 0 0 1-16.51-6.91c-1.08 1.47-2.2 3-3.31 4.66-4.39 6.45-8.63 14-10.43 17.23l-.5.87a11.49 11.49 0 0 0-.06 10.92 7.08 7.08 0 0 0 6.27 3.69h84.91a7.07 7.07 0 0 0 6.27-3.63 11.49 11.49 0 0 0-.06-10.92l-.5-.87zm-78.85 1a5.74 5.74 0 1 1 5.73-5.74 5.75 5.75 0 0 1-5.73 5.74zm6.38 9.82a2 2 0 1 1 2-2 2.05 2.05 0 0 1-2 2zm18-12.95a3.46 3.46 0 1 1 3.45-3.45 3.44 3.44 0 0 1-3.45 3.45zm13.88 11.57a2.72 2.72 0 1 1 2.71-2.71 2.71 2.71 0 0 1-2.71 2.71zM115 150.3a6.17 6.17 0 1 1 6.17 6.18 6.17 6.17 0 0 1-6.17-6.18zm12.54 12.7a2 2 0 1 1 2.05-2 2.05 2.05 0 0 1-2.05 2zM92.8 98a3.51 3.51 0 1 1-3.51 3.51A3.51 3.51 0 0 1 92.8 98zm-10.19 17.65a6.13 6.13 0 1 1-6.13 6.12 6.12 6.12 0 0 1 6.13-6.12zm26.07-3.32a4.51 4.51 0 1 1-4.5 4.51 4.5 4.5 0 0 1 4.5-4.51zM96.35 22.86a2.6 2.6 0 1 1-2.6 2.6 2.6 2.6 0 0 1 2.6-2.6zm-19.09-2.14a6.15 6.15 0 1 1-6.16 6.15 6.15 6.15 0 0 1 6.16-6.15zM88.61 9.3a4.59 4.59 0 1 1-4.59 4.59 4.59 4.59 0 0 1 4.59-4.59zm5 24.47h4.77v4.85l4.62 10.9h10.68v6.56h11.82v8.35h-4.75c.06 5.9.24 24.95 0 33 0 1.81 4.57 8 8.21 13 2.3 3.1 4.8 6.54 7.3 10.2 7.47 11 14.67 23.84 17.75 29.32l.85 1.45a19.52 19.52 0 0 1 .09 18.6 12 12 0 0 1-10.66 6.28h-96.2A12 12 0 0 1 37.44 170a18.16 18.16 0 0 1-2.32-9.2 19.44 19.44 0 0 1 2.4-9.4l.83-1.45c3.08-5.5 10.3-18.35 17.75-29.32 2.51-3.66 5-7.1 7.3-10.22 3.64-5 8.18-11.16 8.24-13-.29-8.06-.11-27.11 0-33h-6.31v-8.35h12.76V49.5h10.67l4.85-10.91v-4.85zm4.77 32.39V82h-4.77V66.15h-15.1c-.08 7.2-.21 23.9 0 31.08.13 3.89-3.21 8.61-9.58 17.29-2.23 3-4.7 6.42-7.14 10-7.3 10.71-14.42 23.4-17.46 28.8l-.83 1.49a12.69 12.69 0 0 0-.15 11.71 5.22 5.22 0 0 0 4.7 2.86h96.15a5.18 5.18 0 0 0 4.69-2.86 12.57 12.57 0 0 0-.14-11.71l-.82-1.49c-3.05-5.4-10.16-18.09-17.45-28.8-2.46-3.6-4.92-7-7.16-10-6.37-8.68-9.7-13.4-9.56-17.29.25-7.18.11-23.88 0-31.08z" fill-rule="evenodd" fill="#201600"/><path d="M343 174.15h-34.75a50.59 50.59 0 0 1-3-7.51q-9.06-34.95-17-45t-22.77-10.05a44.32 44.32 0 0 0-6.76.42q0 32 1.21 62.19h-31.2q1.42-33.42 1.44-75.34 0-40.27-1.44-68.73h31.2q-1.2 32.81-1.21 59.67c3 .15 5.25.23 6.76.23q30.3 0 39.8-53a17.48 17.48 0 0 1 2.68-6.88h29.87c-1 2.31-2.45 6.35-4.45 12.09q-7.32 25.89-15.64 37.73a51.46 51.46 0 0 1-22.51 17.82V99c9.79 3.17 17.34 8.42 22.63 15.82s12 23.11 20.27 47.24c1.06 3.1 2.69 7.14 4.88 12.16zm154.22-74.69q0 34-20.81 56.34T425 178.12q-29.24 0-48.9-20.51t-19.7-52.15q0-34 20.77-56.34t51.47-22.32q29.18 0 48.91 20.47t19.67 52.19zm-30.51 3.21q0-23.11-11.86-37.5t-29.19-14.39q-16.2 0-27.45 14.5t-11.3 36.63q0 23 11.9 37.46T428 153.8q16.15 0 27.46-14.54t11.29-36.59zm162.08-72.59q-1.35 29.35-1.32 67.19 0 42 1.32 76.88h-31q1.29-31.89 1.32-73.9 0-29.24-.68-48.22H581.1q-1.65 8.49-4.27 18.24t-6 20c-2.3 6.8-4.83 13.64-7.59 20.39s-5.74 13.34-9 19.64a186.71 186.71 0 0 1-10.15 17.7 103.17 103.17 0 0 1-11.22 14.31 55.91 55.91 0 0 1-12.16 9.78 28.23 28.23 0 0 1-12.84 4l-1.13-27.68c2.83-.49 5.93-2.64 9.29-6.42a92.4 92.4 0 0 0 10.57-14.76 202.19 202.19 0 0 0 10.84-20.85q5.38-11.73 10.08-24.62c3.14-8.57 5.93-17.3 8.43-26.17a239.48 239.48 0 0 0 5.66-25.46zM771.5 130.8q0 44-71.9 44c-8.35 0-21.3-.22-38.94-.68q1.42-33.87 1.44-75.34 0-43.72-1.44-68.73h101l-.9 24.25q-41.13-1.75-72.13-1.78c.9 9.37 1.32 21.42 1.32 36.07 6-.27 11.18-.42 15.6-.42q65.92 0 65.93 42.6zm-29.76 1.2q0-22-38.59-22c-5.1 0-9.48.19-13.18.53q0 23.18.91 42.6a53.54 53.54 0 0 0 11.36.91c13.67 0 23.64-1.67 30-4.95s9.51-9 9.51-17.07zm177.38 42.14h-35.39q0-7.3-10.08-41.39h-51.09q-10.43 33.54-10.43 41.39h-33.3q0-4.3 25.83-70.8t25.83-73.27h41.84q0 6.35 23.38 72.21t23.41 71.86zm-51.1-62.5q-18.91-57.09-18.91-61.74h-1.78q0 4.3-19.6 61.74z" fill="#201600"/></svg>